<svg width="25" height="46" viewBox="0 0 25 46" fill="none" xmlns="http://www.w3.org/2000/svg">
<path d="M16.0774 26.0109C19.4444 27.9345 21.4646 31.4473 21.4646 35.2945C21.4646 41.1491 16.6667 46 10.7744 46C4.79798 46 0 41.1491 0 35.2945C0 31.4473 2.0202 27.9345 5.38721 26.0109V5.26909C5.38721 2.42545 7.82828 0 10.7744 0C13.6364 0 16.0774 2.42545 16.0774 5.26909V26.0109ZM13.9731 27.3491V5.26909C13.9731 3.51273 12.5421 2.09091 10.7744 2.09091C9.00673 2.09091 7.49158 3.51273 7.49158 5.26909V27.3491C4.29293 28.9382 2.10438 31.5309 2.10438 35.2945C2.10438 39.9782 5.97643 43.8255 10.7744 43.8255C15.4882 43.8255 19.3603 39.9782 19.3603 35.2945C19.3603 31.5309 17.2559 28.9382 13.9731 27.3491Z" fill="#192646"/>
<path d="M11.7845 28.9382C14.899 29.44 17.1717 32.1164 17.1717 35.2945C17.1717 38.8073 14.3098 41.7345 10.7744 41.7345C7.15488 41.7345 4.29293 38.8073 4.29293 35.2945C4.29293 32.1164 6.64983 29.44 9.68013 28.9382V16.9782H11.7845V28.9382ZM10.7744 31.0291C8.33333 31.0291 6.39731 32.9527 6.39731 35.2945C6.39731 37.6364 8.33333 39.56 10.7744 39.56C13.1313 39.56 15.0673 37.6364 15.0673 35.2945C15.0673 32.9527 13.1313 31.0291 10.7744 31.0291Z" fill="#192646"/>
<path d="M17.8451 13.4655H25V15.1382H17.8451V13.4655Z" fill="#192646"/>
<path d="M17.8451 16.4764H22.6431V18.1491H17.8451V16.4764Z" fill="#192646"/>
<path d="M17.8451 19.4873H22.6431V21.16H17.8451V19.4873Z" fill="#192646"/>
<path d="M17.8451 22.4982H25V24.1709H17.8451V22.4982Z" fill="#192646"/>
</svg>
