<!-- Generated by IcoMoon.io -->
<svg version="1.1" xmlns="http://www.w3.org/2000/svg" width="1024" height="1024" viewBox="0 0 1024 1024">
<g id="icomoon-ignore">
</g>
<path fill="#000" d="M783.999 12.19h-543.999c-132.8 0-240 108.023-240 241.843s107.2 241.843 240 241.843h543.999c132.801 0 240.001-108.022 240.001-241.843s-107.201-241.843-240.001-241.843zM783.999 431.384h-543.999c-97.6 0-176-79.002-176-177.35s78.4-177.352 176-177.352h543.999c97.602 0 176.001 79.002 176.001 177.352s-78.399 177.35-176.001 177.35z"></path>
<path fill="#000" d="M240 125.051c-70.4 0-128 58.043-128 128.983s57.6 128.984 128 128.984c70.399 0 128.001-58.044 128.001-128.984s-57.602-128.983-128.001-128.983zM240 318.525c-35.2 0-64-29.021-64-64.491s28.8-64.492 64-64.492c35.2 0 64.001 29.021 64.001 64.492s-28.801 64.491-64.001 64.491z"></path>
<path fill="#000" d="M783.999 528.123h-543.999c-132.8 0-240 108.022-240 241.842 0 133.822 107.2 241.844 240 241.844h543.999c132.801 0 240.001-108.022 240.001-241.844 0-133.82-107.201-241.842-240.001-241.842zM783.999 947.317h-543.999c-97.6 0-176-79.002-176-177.352 0-98.348 78.4-177.349 176-177.349h543.999c97.602 0 176.001 79.002 176.001 177.349 0 98.35-78.399 177.352-176.001 177.352z"></path>
<path fill="#000" d="M783.999 640.983c-70.4 0-128 58.044-128 128.983 0 70.941 57.6 128.985 128 128.985 70.402 0 128-58.044 128-128.985 0-70.939-57.598-128.983-128-128.983zM783.999 834.458c-35.199 0-64-29.021-64-64.492 0-35.469 28.801-64.49 64-64.49 35.201 0 64 29.021 64 64.49 0 35.472-28.799 64.492-64 64.492z"></path>
</svg>
