<!-- Generated by IcoMoon.io -->
<svg version="1.1" xmlns="http://www.w3.org/2000/svg" width="32" height="32" viewBox="0 0 32 32">
<path d="M15.955 32c-7.924 0-14.355-6.473-14.355-14.496 0-3.601 1.313-7.066 3.713-9.709 0.181-0.182 0.317-0.365 0.498-0.501 0.181-0.182 0.453-0.182 0.634 0s0.181 0.456 0 0.638c-0.136 0.137-0.317 0.319-0.453 0.501-2.264 2.507-3.487 5.744-3.487 9.117 0 7.476 6.023 13.584 13.449 13.584 3.623 0 6.974-1.413 9.555-3.966 0.181-0.182 0.453-0.182 0.634 0s0.181 0.456 0 0.638c-2.717 2.689-6.34 4.194-10.189 4.194z"></path>
<path d="M27.592 25.709c-0.091 0-0.181-0.046-0.226-0.091-0.226-0.137-0.272-0.41-0.136-0.638 1.449-2.234 2.219-4.786 2.219-7.476 0-7.476-6.023-13.584-13.494-13.584-2.717 0-5.298 0.821-7.517 2.325-0.226 0.137-0.498 0.091-0.634-0.137s-0.091-0.501 0.136-0.638c2.4-1.595 5.162-2.462 8.060-2.462 7.925 0 14.4 6.473 14.4 14.496 0 2.826-0.815 5.607-2.355 7.977-0.181 0.137-0.317 0.228-0.453 0.228z"></path>
<path d="M20.574 0.912h-9.238c-0.272 0-0.453-0.182-0.453-0.456s0.181-0.456 0.453-0.456h9.238c0.272 0 0.453 0.182 0.453 0.456s-0.181 0.456-0.453 0.456z"></path>
<path d="M23.698 6.017c-0.091 0-0.181-0.046-0.226-0.091-0.226-0.137-0.272-0.41-0.136-0.638l1.223-1.915c0.136-0.228 0.408-0.273 0.634-0.137s0.272 0.41 0.136 0.638l-1.268 1.96c-0.091 0.137-0.226 0.182-0.362 0.182z"></path>
<path d="M15.955 15.316c-0.272 0-0.453-0.182-0.453-0.456v-6.154c0-0.274 0.181-0.456 0.453-0.456s0.453 0.182 0.453 0.456v6.108c0 0.274-0.181 0.501-0.453 0.501z"></path>
<path d="M28.589 30.724c-0.136 0-0.226-0.046-0.317-0.137l-24.906-25.117c-0.181-0.182-0.181-0.456 0-0.638s0.453-0.182 0.634 0l24.951 25.117c0.181 0.182 0.181 0.456 0 0.638-0.091 0.091-0.226 0.137-0.362 0.137z"></path>
<path d="M21.298 20.392c-0.533 0-1.138 0.321-1.173 0.89l-0.036 0.32h0.782c0.036-0.249 0.284-0.427 0.462-0.392 0.178 0 0.427 0.178 0.391 0.392 0 0.285-0.249 0.427-0.462 0.57-0.391 0.214-0.818 0.427-1.031 0.819-0.178 0.356-0.178 0.641-0.178 1.033h2.524v-0.819h-1.458c0.356-0.285 0.782-0.427 1.067-0.784 0.32-0.392 0.427-0.997 0.142-1.425-0.178-0.392-0.64-0.605-1.031-0.605z"></path>
<path d="M16.071 9.6c-3.164 0-5.76 2.493-5.938 5.663-2.773 0.819-4.693 3.312-4.693 6.197 0 3.597 2.916 6.518 6.507 6.518 0.284 0 0.604-0.036 0.889-0.071l1.28 2.778 0.747-0.356-1.529-3.312-0.32 0.071c-0.356 0.071-0.711 0.107-1.067 0.107-3.164 0-5.724-2.564-5.724-5.734 0-2.636 1.778-4.915 4.302-5.556l0.284-0.071v-0.32c0.036-2.849 2.347-5.129 5.191-5.129s5.156 2.279 5.191 5.129v0.32l0.284 0.071c2.524 0.641 4.302 2.921 4.302 5.556 0 3.17-2.56 5.734-5.724 5.734-0.356 0-0.711-0.036-1.067-0.107l-0.32-0.071-1.564 3.348 0.747 0.356 1.316-2.814c0.284 0.036 0.604 0.071 0.889 0.071 3.591 0 6.507-2.92 6.507-6.518 0-2.885-1.92-5.378-4.693-6.197-0.036-3.17-2.631-5.663-5.796-5.663z"></path>
<path d="M12.373 18.361c-0.498-0.071-0.996 0-1.458 0.214-0.924 0.463-1.458 1.496-1.316 2.529s0.889 1.888 1.92 2.101c0.996 0.214 2.027-0.285 2.56-1.211l-0.711-0.392c-0.356 0.605-1.031 0.926-1.671 0.784-0.676-0.142-1.173-0.712-1.28-1.425s0.284-1.425 0.889-1.71c0.604-0.32 1.351-0.178 1.813 0.321l0.569-0.57c-0.391-0.32-0.853-0.57-1.316-0.641z"></path>
<path d="M17.067 19.109c0.889 0 1.6 0.748 1.6 1.674s-0.711 1.674-1.6 1.674-1.6-0.748-1.6-1.674c0-0.926 0.747-1.674 1.6-1.674zM17.067 18.326c-1.316 0-2.418 1.14-2.418 2.493s1.067 2.493 2.418 2.493c1.316 0 2.418-1.14 2.418-2.493 0-1.389-1.067-2.493-2.418-2.493z"></path>
</svg>
