<!-- Generated by IcoMoon.io -->
<svg version="1.1" xmlns="http://www.w3.org/2000/svg" width="32" height="32" viewBox="0 0 32 32">
<path d="M16 13.947c-0.626 0-1.183 0.278-1.565 0.73l-11.236-4.174c-0.104-0.035-0.174 0-0.209 0.104-0.035 0.070 0 0.174 0.104 0.209l2.122 0.974c-0.522 1.357-0.8 2.783-0.8 4.139h0.591c0-1.287 0.244-2.609 0.731-3.896l8.245 3.792c0 0.070 0 0.104 0 0.174 0 1.113 0.904 2.052 2.052 2.052s2.052-0.904 2.052-2.052c0-1.148-0.974-2.052-2.087-2.052zM16 17.39c-0.765 0-1.391-0.626-1.391-1.391s0.626-1.391 1.391-1.391 1.392 0.626 1.392 1.391c0 0.765-0.626 1.391-1.392 1.391z"></path>
<path d="M22.123 1.215c-8.14-3.374-17.533 0.522-20.907 8.661s0.522 17.532 8.662 20.906c1.983 0.835 4.070 1.217 6.088 1.217 6.296 0 12.28-3.722 14.819-9.879 3.374-8.14-0.522-17.532-8.662-20.906zM21.844 30.156c-3.792 1.565-7.931 1.565-11.723 0-3.583-1.496-6.436-4.209-8.036-7.722h5.914c1.948 2.435 4.87 3.861 8.001 3.861s6.053-1.391 8.001-3.861h5.879c-1.6 3.478-4.418 6.226-8.036 7.722zM30.158 21.808h-6.436l-0.104 0.104c-1.844 2.4-4.627 3.757-7.618 3.757s-5.775-1.357-7.618-3.722l-0.104-0.104h-6.436c-1.531-3.792-1.531-7.931 0-11.688 1.565-3.792 4.522-6.714 8.279-8.279 1.913-0.8 3.896-1.183 5.879-1.183s3.966 0.383 5.844 1.183c3.792 1.565 6.714 4.522 8.279 8.279s1.565 7.896 0.035 11.653z"></path>
<path d="M20.453 5.285c-4.627-1.913-9.81-0.591-13.010 2.887l0.452 0.417c2.087-2.296 5.044-3.583 8.14-3.583 1.391 0 2.818 0.278 4.209 0.835 4.209 1.739 6.784 5.809 6.784 10.122h0.591c-0.035-4.557-2.748-8.835-7.166-10.679z"></path>
</svg>
