<!-- Generated by IcoMoon.io -->
<svg version="1.1" xmlns="http://www.w3.org/2000/svg" width="32" height="32" viewBox="0 0 32 32">
<path d="M24.027 16.351c-0.808 0-1.724 0.486-1.778 1.349l-0.054 0.486h1.185c0.054-0.378 0.431-0.648 0.7-0.594 0.269 0 0.646 0.27 0.593 0.594 0 0.432-0.377 0.648-0.7 0.863-0.593 0.324-1.239 0.648-1.562 1.241-0.269 0.54-0.269 0.971-0.269 1.565h3.825v-1.241h-2.209c0.539-0.432 1.185-0.648 1.616-1.187 0.485-0.594 0.646-1.511 0.215-2.158-0.269-0.594-0.97-0.917-1.562-0.917z"></path>
<path d="M16.108 0c-4.795 0-8.727 3.777-8.997 8.58-4.202 1.241-7.111 5.019-7.111 9.39 0 5.45 4.418 9.875 9.859 9.875 0.431 0 0.916-0.054 1.347-0.108l1.939 4.209 1.131-0.54-2.316-5.019-0.485 0.108c-0.539 0.108-1.077 0.162-1.616 0.162-4.795 0-8.673-3.885-8.673-8.688 0-3.993 2.694-7.447 6.519-8.418l0.431-0.108v-0.486c0.054-4.317 3.556-7.771 7.865-7.771s7.811 3.454 7.865 7.771v0.486l0.431 0.108c3.825 0.971 6.518 4.425 6.518 8.418 0 4.803-3.879 8.688-8.673 8.688-0.539 0-1.077-0.054-1.616-0.162l-0.485-0.108-2.37 5.072 1.131 0.54 1.993-4.263c0.431 0.054 0.916 0.108 1.347 0.108 5.441 0 9.859-4.425 9.859-9.875 0-4.371-2.909-8.148-7.111-9.39-0.054-4.803-3.987-8.58-8.781-8.58z"></path>
<path d="M10.505 13.275c-0.754-0.108-1.508 0-2.209 0.324-1.401 0.701-2.209 2.266-1.993 3.831s1.347 2.86 2.909 3.184c1.508 0.324 3.071-0.432 3.879-1.835l-1.077-0.594c-0.539 0.917-1.562 1.403-2.532 1.187-1.024-0.216-1.778-1.079-1.939-2.159s0.431-2.158 1.347-2.59c0.916-0.486 2.047-0.27 2.747 0.486l0.862-0.863c-0.593-0.486-1.293-0.863-1.993-0.971z"></path>
<path d="M17.616 14.408c1.347 0 2.424 1.133 2.424 2.536s-1.077 2.536-2.424 2.536c-1.347 0-2.424-1.133-2.424-2.536s1.131-2.536 2.424-2.536zM17.616 13.221c-1.993 0-3.663 1.727-3.663 3.777s1.616 3.777 3.663 3.777c1.993 0 3.663-1.727 3.663-3.777 0-2.105-1.616-3.777-3.663-3.777z"></path>
</svg>
