<svg width="45" height="44" viewBox="0 0 45 44" fill="none" xmlns="http://www.w3.org/2000/svg">
<path d="M31.7533 37.334L31.7533 37.334V37.3371C31.7533 40.544 34.5709 43.15 37.9516 43.15C41.3324 43.15 44.15 40.544 44.15 37.3371C44.15 34.9002 42.5941 32.7476 40.2753 31.9439V29.1343H43.0549C43.2307 29.1343 43.3889 29.0751 43.5035 28.9606C43.6182 28.8461 43.6775 28.6881 43.6775 28.5124C43.6775 28.3366 43.6182 28.1786 43.5035 28.0641C43.3889 27.9496 43.2307 27.8904 43.0549 27.8904H40.2753V21.9612H43.0549C43.2307 21.9612 43.3889 21.9021 43.5035 21.7876C43.6182 21.6731 43.6775 21.515 43.6775 21.3393C43.6775 21.1636 43.6182 21.0055 43.5035 20.8911C43.3889 20.7766 43.2307 20.7174 43.0549 20.7174H40.2753V14.7882H43.0549C43.2307 14.7882 43.3889 14.729 43.5035 14.6146C43.6182 14.5001 43.6775 14.342 43.6775 14.1663C43.6775 13.9906 43.6182 13.8325 43.5035 13.718C43.3889 13.6035 43.2307 13.5444 43.0549 13.5444H40.2753V12.5146C40.2753 11.2067 39.2177 10.0994 37.8571 10.0994C36.4987 10.0994 35.439 11.1574 35.439 12.5146V32.0426C33.2611 32.8919 31.8011 34.9955 31.7533 37.334ZM37.8951 11.4373L37.895 11.4376H37.9044C38.5381 11.4376 39.0302 11.8971 39.0302 12.5146V21.9916H36.6841V12.5197C36.7286 11.8892 37.2303 11.3959 37.8951 11.4373ZM6.92841 7.7912L6.93481 7.79972L6.94236 7.80726L11.8566 12.7151C12.1042 12.9624 12.4826 12.9624 12.7302 12.7151C12.9779 12.4678 12.9779 12.0895 12.7302 11.8422L7.81589 6.93431L7.80835 6.92678L7.79981 6.92039C7.66629 6.82038 7.49368 6.79337 7.34022 6.81527C7.19004 6.83669 7.03536 6.90821 6.93492 7.03627C6.73545 7.2436 6.75564 7.56114 6.92841 7.7912ZM37.9989 41.9062C35.2365 41.9062 33.0466 39.8404 33.0456 37.3388C33.0921 35.3759 34.4179 33.6415 36.2901 33.093C36.4305 33.0569 36.5398 32.9562 36.6116 32.8487C36.6843 32.7398 36.7313 32.6051 36.7313 32.4764V23.2354H39.0775V32.382C39.0775 32.6758 39.256 32.9331 39.5219 32.9995C41.5323 33.5014 42.9051 35.2804 42.9522 37.3374C42.9048 39.842 40.7119 41.9062 37.9989 41.9062ZM32.9984 21.5753C32.9984 15.2626 27.8746 10.1938 21.6022 10.1938C15.2818 10.1938 10.206 15.3106 10.206 21.5753C10.206 27.8879 15.3298 32.9567 21.6022 32.9567C27.875 32.9567 32.9984 27.8403 32.9984 21.5753ZM21.6022 31.7129C15.9677 31.7129 11.4511 27.1556 11.4511 21.5753C11.4511 15.9486 16.0141 11.4376 21.6022 11.4376C27.2367 11.4376 31.7533 15.9949 31.7533 21.5753C31.7533 27.1552 27.1899 31.7129 21.6022 31.7129ZM20.9797 34.6944V41.6786C20.9797 41.8544 21.039 42.0124 21.1536 42.1269C21.2682 42.2414 21.4264 42.3006 21.6022 42.3006C21.778 42.3006 21.9362 42.2414 22.0508 42.1269C22.1654 42.0124 22.2247 41.8544 22.2247 41.6786V34.6944C22.2247 34.5187 22.1654 34.3606 22.0508 34.2461C21.9362 34.1316 21.778 34.0725 21.6022 34.0725C21.2264 34.0725 20.9797 34.3853 20.9797 34.6944ZM20.9797 1.47191V8.45618C20.9797 8.6319 21.039 8.78996 21.1536 8.90445C21.2682 9.01892 21.4264 9.07809 21.6022 9.07809C21.778 9.07809 21.9362 9.01892 22.0508 8.90445C22.1654 8.78996 22.2247 8.6319 22.2247 8.45618V1.47191C22.2247 1.29619 22.1654 1.13813 22.0508 1.02364C21.9362 0.909168 21.778 0.85 21.6022 0.85C21.4264 0.85 21.2682 0.909168 21.1536 1.02364C21.039 1.13813 20.9797 1.29619 20.9797 1.47191ZM8.46593 22.1972C8.64172 22.1972 8.79989 22.138 8.91451 22.0236C9.02915 21.9091 9.08846 21.751 9.08846 21.5753C9.08846 21.3996 9.02915 21.2415 8.91451 21.127C8.79989 21.0125 8.64172 20.9534 8.46593 20.9534H1.47253C1.29674 20.9534 1.13857 21.0125 1.02395 21.127C0.90931 21.2415 0.85 21.3996 0.85 21.5753C0.85 21.751 0.90931 21.9091 1.02395 22.0236C1.13857 22.138 1.29674 22.1972 1.47253 22.1972H8.46593ZM36.262 6.93431C36.0145 6.68706 35.6361 6.68706 35.3885 6.93431L30.4742 11.8422C30.2265 12.0895 30.2265 12.4678 30.4742 12.7151C30.7218 12.9624 31.1002 12.9624 31.3478 12.7151L36.262 7.80726C36.5097 7.5599 36.5097 7.18167 36.262 6.93431ZM11.8566 30.4354L6.94236 35.3433C6.69467 35.5907 6.69467 35.9689 6.94235 36.2163C7.18993 36.4635 7.56831 36.4635 7.81589 36.2163L12.7302 31.3084C12.9779 31.061 12.9779 30.6828 12.7302 30.4354C12.4826 30.1882 12.1042 30.1882 11.8566 30.4354Z" fill="#192646" stroke="#192646" stroke-width="0.3"/>
</svg>
