<!-- Generated by IcoMoon.io -->
<svg version="1.1" xmlns="http://www.w3.org/2000/svg" width="1024" height="1024" viewBox="0 0 1024 1024">
<g id="icomoon-ignore">
</g>
<path fill="#000" d="M510.55 1024c-253.583 0-459.35-207.135-459.35-463.864 0-115.237 42.023-226.097 118.823-310.7 5.796-5.835 10.143-11.67 15.94-16.046 5.796-5.835 14.491-5.835 20.287 0s5.796 14.588 0 20.423c-4.347 4.375-10.143 10.209-14.49 16.044-72.453 80.228-111.577 183.796-111.577 291.74 0 239.225 192.725 434.688 430.369 434.688 115.925 0 223.156-45.22 305.752-126.906 5.796-5.835 14.49-5.835 20.287 0s5.796 14.588 0 20.423c-86.944 86.063-202.869 134.199-326.040 134.199z"></path>
<path fill="#000" d="M882.958 822.7c-2.898 0-5.796-1.458-7.246-2.916-7.244-4.377-8.694-13.128-4.346-20.423 46.369-71.475 71.004-153.162 71.004-239.225 0-239.225-192.725-434.689-431.821-434.689-86.942 0-169.54 26.256-240.542 74.393-7.246 4.376-15.94 2.917-20.287-4.376s-2.898-16.046 4.347-20.422c76.801-51.054 165.192-78.769 257.932-78.769 253.585 0 460.8 207.133 460.8 463.863 0 90.44-26.083 179.419-75.35 255.271-5.798 4.377-10.144 7.293-14.492 7.293z"></path>
<path fill="#000" d="M658.354 29.174h-295.606c-8.696 0-14.492-5.835-14.492-14.587s5.796-14.587 14.492-14.587h295.606c8.696 0 14.492 5.835 14.492 14.587s-5.796 14.587-14.492 14.587z"></path>
<path fill="#000" d="M758.34 192.547c-2.898 0-5.796-1.459-7.246-2.917-7.244-4.376-8.694-13.128-4.346-20.422l39.123-61.265c4.348-7.294 13.042-8.752 20.287-4.376s8.694 13.128 4.348 20.422l-40.575 62.724c-2.898 4.376-7.244 5.835-11.592 5.835z"></path>
<path fill="#000" d="M510.55 490.119c-8.694 0-14.49-5.835-14.49-14.586v-196.923c0-8.753 5.796-14.588 14.49-14.588 8.696 0 14.492 5.835 14.492 14.588v195.463c0 8.753-5.796 16.046-14.492 16.046z"></path>
<path fill="#000" d="M914.838 983.157c-4.348 0-7.246-1.458-10.144-4.377l-796.981-803.737c-5.796-5.835-5.796-14.587 0-20.422s14.491-5.835 20.287 0l798.431 803.738c5.796 5.835 5.796 14.586 0 20.421-2.9 2.918-7.246 4.377-11.594 4.377z"></path>
<path fill="#000" d="M511.615 839.68c-95.726 0-173.695-77.582-173.695-173.601 0-69.132 88.005-218.153 140.499-299.575 11.579-18.436 36.282-23.812 54.811-12.29 4.631 3.072 9.263 7.682 12.351 12.29 52.494 82.192 140.499 230.443 140.499 299.575-1.544 96.018-78.742 173.601-174.465 173.601zM511.615 379.562c-2.316 0-5.405 1.536-6.177 3.842-84.916 132.889-135.096 238.891-135.096 282.675 0 77.582 63.304 141.339 141.273 141.339 77.967 0 142.043-62.988 142.043-141.339 0-44.552-50.18-149.787-135.096-282.675-1.544-2.306-5.405-3.842-6.947-3.842z"></path>
</svg>
