<!-- Generated by IcoMoon.io -->
<svg version="1.1" xmlns="http://www.w3.org/2000/svg" width="1024" height="1024" viewBox="0 0 1024 1024">
<g id="icomoon-ignore">
</g>
<path fill="#000" d="M491.2 812.633c-108.8 103.875-280 100.678-384-7.989-48-51.137-75.2-118.257-75.2-188.571 0-246.099 222.4-436.268 271.999-474.622 43.201 35.157 227.201 190.17 265.601 397.916 1.6 7.989 9.599 14.382 19.2 12.783 8-1.597 14.4-9.588 12.8-19.175-46.4-247.699-278.399-418.691-288-425.083-6.4-4.794-12.8-4.794-19.2 0-11.2 7.99-294.4 217.336-294.4 508.181 0 167.796 136 303.631 303.999 303.631 78.4 0 153.6-30.363 209.601-84.696 6.4-6.392 6.4-15.982 0-22.374-4.801-6.391-14.4-6.391-22.401 0z"></path>
<path fill="#000" d="M516.8 588.906c-6.4 6.392-6.4 15.98 0 22.373s16.001 6.392 22.401 0c11.2-11.186 30.4-11.186 41.599 0 24 23.971 62.401 23.971 86.401 0 11.2-11.186 30.4-11.186 41.599 0 24 23.971 62.401 23.971 86.401 0 11.2-11.186 30.4-11.186 41.599 0 24 23.971 62.401 23.971 86.401 0 6.4-6.392 6.4-15.98 0-22.373s-16.001-6.392-22.401 0c-11.2 11.186-30.4 11.186-41.599 0-24-23.971-62.401-23.971-86.401 0-11.2 11.186-30.4 11.186-41.599 0-24-23.971-62.401-23.971-86.401 0-11.2 11.186-30.4 11.186-41.599 0-24-23.971-62.401-23.971-86.401 0z"></path>
<path fill="#000" d="M635.2 771.085c11.2-11.186 30.4-11.186 41.599 0 24 23.971 62.401 23.971 86.401 0 6.4-6.392 6.4-15.982 0-22.373s-16.001-6.392-22.401 0c-11.2 11.186-30.4 11.186-41.599 0-24-23.971-62.401-23.971-86.401 0-11.2 11.186-30.4 11.186-41.599 0-24-23.971-62.401-23.971-86.401 0-11.2 11.186-30.4 11.186-41.599 0-24-23.971-62.401-23.971-86.401 0-6.4 6.391-6.4 15.98 0 22.373s16.001 6.392 22.401 0c11.2-11.186 30.4-11.186 41.599 0 24 23.971 62.401 23.971 86.401 0 11.2-11.186 30.4-11.186 41.599 0 24 23.971 62.401 23.971 86.401 0z"></path>
<path fill="#000" d="M1019.2 413.12c-6.4-6.391-16.001-6.391-22.401 0-1.6 3.197-4.8 3.197-8 1.599l-1.599-1.599c-14.4-14.382-40-14.382-54.401 0-3.199 3.197-6.4 3.197-9.599 0-14.4-14.382-40-14.382-54.401 0-3.199 3.197-6.4 3.197-9.599 0-14.4-14.382-40-14.382-54.401 0-1.6 3.197-4.8 3.197-8 1.599l-1.599-1.599c-14.4-14.382-40-14.382-54.401 0-6.4 6.392-6.4 15.982 0 22.374 6.4 6.391 16.001 6.391 22.401 0 1.6-3.197 4.8-3.197 8-1.599l1.599 1.599c14.4 14.382 40 14.382 54.401 0 3.199-3.197 6.4-3.197 9.599 0 14.4 14.382 40 14.382 54.401 0 3.199-3.197 6.4-3.197 9.599 0 14.4 14.382 40 14.382 54.401 0 1.6-3.197 4.8-3.197 8-1.599l1.599 1.599c14.4 14.382 40 14.382 54.401 0 6.4-6.392 6.4-15.982 0-22.374z"></path>
<path fill="#000" d="M900.8 876.555c-1.6 3.197-4.8 3.197-8 1.599l-1.599-1.599c-14.4-14.382-40-14.382-54.401 0-1.6 3.197-4.8 3.197-8 1.599l-1.599-1.599c-14.4-14.382-40-14.382-54.401 0-3.199 3.197-6.4 3.197-9.599 0-14.4-14.382-40-14.382-54.401 0-3.199 3.197-6.4 3.197-9.599 0-14.4-14.382-40-14.382-54.401 0-1.6 3.197-4.8 3.197-8 1.599l-1.599-1.599c-14.4-14.382-40-14.382-54.401 0-6.4 6.392-6.4 15.982 0 22.374 6.4 6.391 16.001 6.391 22.401 0 1.6-3.197 4.8-3.197 8-1.599l1.599 1.599c14.4 14.382 40 14.382 54.401 0 1.6-3.197 4.8-3.197 8-1.599l1.599 1.599c14.4 14.382 40 14.382 54.401 0 3.199-3.197 6.4-3.197 9.599 0 14.4 14.382 40 14.382 54.401 0 3.199-3.197 6.4-3.197 9.599 0 14.4 14.382 40 14.382 54.401 0 1.6-3.197 4.8-3.197 8-1.599l1.599 1.599c14.4 14.382 40 14.382 54.401 0 6.4-6.392 6.4-15.982 0-22.374-6.4-6.391-16.001-6.391-22.401 0z"></path>
<path fill="#000" d="M980.8 668.809c-1.6 3.197-4.801 3.197-8 1.599l-1.6-1.599c-14.399-14.382-40-14.382-54.399 0-3.201 3.197-6.4 3.197-9.601 0-14.399-14.382-40-14.382-54.399 0-3.201 3.197-6.4 3.197-9.601 0-14.399-14.382-40-14.382-54.399 0-1.6 3.197-4.801 3.197-8 1.599l-1.6-1.599c-14.399-14.382-40-14.382-54.399 0-6.4 6.392-6.4 15.982 0 22.373s15.999 6.392 22.399 0c1.6-3.195 4.801-3.195 8-1.597l1.6 1.597c14.399 14.383 40 14.383 54.399 0 3.201-3.195 6.4-3.195 9.601 0 14.399 14.383 40 14.383 54.399 0 3.201-3.195 6.4-3.195 9.601 0 14.399 14.383 40 14.383 54.399 0 1.6-3.195 4.801-3.195 8-1.597l1.6 1.597c14.399 14.383 40 14.383 54.399 0 6.4-6.391 6.4-15.98 0-22.373s-15.999-6.392-22.399 0z"></path>
</svg>
