<svg width="45" height="45" viewBox="0 0 45 45" fill="none" xmlns="http://www.w3.org/2000/svg">
<circle cx="22.2029" cy="22.6423" r="21.1509" stroke="#192646" stroke-width="1.43396"/>
<mask id="path-2-outside-1_8_303" maskUnits="userSpaceOnUse" x="7.97656" y="7.6614" width="29" height="30" fill="black">
<rect fill="white" x="7.97656" y="7.6614" width="29" height="30"/>
<path d="M26.4929 8.6614C24.7092 8.6614 23.2499 10.0937 23.2499 11.9166V16.6692C21.3365 19.2734 20.1366 20.9335 18.7745 22.7564C17.5098 21.0963 15.9532 19.0129 14.1371 16.539C14.1371 16.5064 14.1371 16.5064 14.1371 16.4739C14.3317 15.2044 14.5911 13.7721 14.8181 12.2421C14.8505 12.0468 14.6884 11.8515 14.4614 11.8515C14.2992 11.8515 14.1695 11.9817 14.1695 12.1445C13.9749 13.4465 13.7479 14.651 13.5858 15.7903C12.9047 14.8788 12.2886 14.0325 11.5103 12.9908C11.4454 12.8932 11.3481 12.828 11.2184 12.8606C10.9914 12.8606 10.8292 13.1861 10.9914 13.3814C11.7048 14.3255 12.2562 15.1067 12.9047 15.953C11.8994 15.7903 10.8292 15.6275 9.69419 15.4322C9.53204 15.3997 9.33746 15.5299 9.30503 15.6926C9.27261 15.8554 9.43475 16.0507 9.5969 16.0833C10.959 16.3111 12.2562 16.5064 13.4561 16.7017C15.2721 19.1431 16.8612 21.259 18.126 22.9517H13.3588C12.4507 22.0728 11.5751 21.2265 10.5374 20.1197C10.4725 20.0546 10.3752 20.0221 10.2779 20.0221C10.0185 20.0546 9.88877 20.4127 10.0834 20.5754C10.959 21.4869 11.6724 22.2356 12.4183 22.9517C11.3805 22.9517 10.3104 22.9517 9.27261 22.9517C9.11046 22.9517 8.94831 23.1471 8.98074 23.3098C8.98074 23.4726 9.17532 23.6353 9.33746 23.6028H12.4183C11.6724 24.3189 10.9265 25.0676 10.0834 25.9791C9.95363 26.1093 9.95363 26.3372 10.0834 26.4348C10.2131 26.565 10.4076 26.565 10.5374 26.4348C11.5751 25.328 12.4507 24.4817 13.3588 23.6028H18.1584C16.245 26.1744 14.8181 28.1275 13.8128 29.4621C12.5804 29.69 11.0887 29.8528 9.5969 30.1132C9.43475 30.1132 9.27261 30.3085 9.30503 30.5038C9.33746 30.6991 9.53204 30.7968 9.69419 30.7642C10.9265 30.5689 12.1264 30.4062 13.2615 30.2108C12.4507 31.2525 11.8021 32.2291 11.0238 33.1405C10.8941 33.2707 10.8941 33.4986 11.0238 33.5963C11.1535 33.7265 11.3805 33.7265 11.4778 33.5963C12.1589 32.7825 13.0993 31.5129 13.6506 30.7642C13.8128 31.8059 13.9749 32.9127 14.1695 34.0845C14.2019 34.2473 14.3641 34.3775 14.5587 34.345C14.7208 34.3124 14.8505 34.1496 14.8181 33.9543C14.5911 32.5546 14.3965 31.22 14.2019 29.983C15.2073 28.6158 16.7639 26.565 18.7745 23.8306C20.0069 25.4908 21.0122 26.7929 21.6284 27.6392C21.0122 28.5181 20.6555 29.5924 20.6555 30.7642C20.6555 33.9869 23.2823 36.6236 26.4929 36.6236C28.99 36.6236 31.1628 35.0611 31.9735 32.815C32.0384 32.6522 31.9411 32.457 31.7789 32.3919C31.6168 32.3267 31.4222 32.4244 31.3573 32.5872C30.6114 34.5403 28.6981 35.9726 26.4929 35.9726C23.639 35.9726 21.3041 33.6614 21.3041 30.7642C21.3041 28.9088 22.277 27.4114 23.7363 26.4674C23.8336 26.4023 23.8985 26.3046 23.8985 26.2069V16.832C23.8985 16.7669 23.8985 16.7343 23.8985 16.6692V11.8515C23.8985 10.3867 25.0335 9.24733 26.4929 9.24733C27.9522 9.24733 29.0872 10.3867 29.0872 11.8515V26.1744C29.0872 26.2721 29.1521 26.4023 29.2494 26.4348C30.7087 27.3788 31.6816 28.8762 31.6816 30.7317C31.6816 30.8944 31.8438 31.0572 32.0059 31.0572C32.1681 31.0572 32.3302 30.8944 32.3302 30.7317C32.3302 28.7135 31.26 27.0533 29.7358 26.0116V11.8515C29.7358 10.0937 28.3089 8.6614 26.4929 8.6614ZM32.2654 13.5442C32.1032 13.5442 31.9411 13.7395 31.9735 13.9023C32.0059 14.065 32.1681 14.2278 32.3302 14.1952H35.8975C36.0597 14.1952 36.2218 14.0325 36.2218 13.8697C36.2218 13.707 36.0597 13.5442 35.8975 13.5442C34.6976 13.5442 33.4653 13.5442 32.2654 13.5442ZM32.2654 16.1484C32.1032 16.1484 31.9411 16.3437 31.9735 16.5064C32.0059 16.6692 32.1681 16.832 32.3302 16.7994H33.9517C34.1139 16.7994 34.276 16.6367 34.276 16.4739C34.276 16.3111 34.1139 16.1484 33.9517 16.1484C33.4004 16.1484 32.8167 16.1484 32.2654 16.1484ZM23.2499 17.776V22.9517H19.4556C20.6231 21.3892 21.6932 19.9244 23.2499 17.776ZM32.2654 19.0781C32.1032 19.0781 31.9411 19.2734 31.9735 19.4361C32.0059 19.5989 32.1681 19.7616 32.3302 19.7291H35.8975C36.0597 19.7291 36.2218 19.5663 36.2218 19.4036C36.2218 19.2408 36.0597 19.0781 35.8975 19.0781C34.6976 19.0781 33.4653 19.0781 32.2654 19.0781ZM32.2654 21.6822C32.1032 21.6822 31.9411 21.8775 31.9735 22.0403C32.0059 22.203 32.1681 22.3658 32.3302 22.3333H33.9517C34.1139 22.3333 34.276 22.1705 34.276 22.0077C34.276 21.845 34.1139 21.6822 33.9517 21.6822C33.4004 21.6822 32.8167 21.6822 32.2654 21.6822ZM26.4604 23.2773C26.2983 23.3098 26.1686 23.44 26.1686 23.6028C26.1686 24.9049 26.1686 26.207 26.1686 27.5416C24.5471 27.7043 23.2499 29.1041 23.2499 30.7642C23.2499 32.5546 24.7092 34.0195 26.4929 34.0195C28.2765 34.0195 29.7358 32.5546 29.7358 30.7642C29.7358 29.0715 28.4711 27.7043 26.8172 27.5416C26.8172 26.2395 26.8172 24.9374 26.8172 23.6028C26.8172 23.44 26.655 23.2773 26.4604 23.2773ZM19.4231 23.6353H23.2499V26.0767C22.7958 26.3697 22.4067 26.7278 22.05 27.1184C21.4662 26.3046 20.5582 25.1002 19.4231 23.6353ZM32.2654 24.2864C32.1032 24.2864 31.9411 24.4817 31.9735 24.6444C31.9735 24.8072 32.1681 24.97 32.3302 24.9374H35.8975C36.0597 24.9374 36.2218 24.7747 36.2218 24.6119C36.2218 24.4491 36.0597 24.2864 35.8975 24.2864C34.6976 24.2864 33.4653 24.2864 32.2654 24.2864ZM26.4929 28.1926C27.9198 28.1926 29.0872 29.3645 29.0872 30.7968C29.0872 32.2291 27.9198 33.401 26.4929 33.401C25.0659 33.401 23.8985 32.2291 23.8985 30.7968C23.8985 29.332 25.0659 28.1926 26.4929 28.1926Z"/>
</mask>
<path d="M26.4929 8.6614C24.7092 8.6614 23.2499 10.0937 23.2499 11.9166V16.6692C21.3365 19.2734 20.1366 20.9335 18.7745 22.7564C17.5098 21.0963 15.9532 19.0129 14.1371 16.539C14.1371 16.5064 14.1371 16.5064 14.1371 16.4739C14.3317 15.2044 14.5911 13.7721 14.8181 12.2421C14.8505 12.0468 14.6884 11.8515 14.4614 11.8515C14.2992 11.8515 14.1695 11.9817 14.1695 12.1445C13.9749 13.4465 13.7479 14.651 13.5858 15.7903C12.9047 14.8788 12.2886 14.0325 11.5103 12.9908C11.4454 12.8932 11.3481 12.828 11.2184 12.8606C10.9914 12.8606 10.8292 13.1861 10.9914 13.3814C11.7048 14.3255 12.2562 15.1067 12.9047 15.953C11.8994 15.7903 10.8292 15.6275 9.69419 15.4322C9.53204 15.3997 9.33746 15.5299 9.30503 15.6926C9.27261 15.8554 9.43475 16.0507 9.5969 16.0833C10.959 16.3111 12.2562 16.5064 13.4561 16.7017C15.2721 19.1431 16.8612 21.259 18.126 22.9517H13.3588C12.4507 22.0728 11.5751 21.2265 10.5374 20.1197C10.4725 20.0546 10.3752 20.0221 10.2779 20.0221C10.0185 20.0546 9.88877 20.4127 10.0834 20.5754C10.959 21.4869 11.6724 22.2356 12.4183 22.9517C11.3805 22.9517 10.3104 22.9517 9.27261 22.9517C9.11046 22.9517 8.94831 23.1471 8.98074 23.3098C8.98074 23.4726 9.17532 23.6353 9.33746 23.6028H12.4183C11.6724 24.3189 10.9265 25.0676 10.0834 25.9791C9.95363 26.1093 9.95363 26.3372 10.0834 26.4348C10.2131 26.565 10.4076 26.565 10.5374 26.4348C11.5751 25.328 12.4507 24.4817 13.3588 23.6028H18.1584C16.245 26.1744 14.8181 28.1275 13.8128 29.4621C12.5804 29.69 11.0887 29.8528 9.5969 30.1132C9.43475 30.1132 9.27261 30.3085 9.30503 30.5038C9.33746 30.6991 9.53204 30.7968 9.69419 30.7642C10.9265 30.5689 12.1264 30.4062 13.2615 30.2108C12.4507 31.2525 11.8021 32.2291 11.0238 33.1405C10.8941 33.2707 10.8941 33.4986 11.0238 33.5963C11.1535 33.7265 11.3805 33.7265 11.4778 33.5963C12.1589 32.7825 13.0993 31.5129 13.6506 30.7642C13.8128 31.8059 13.9749 32.9127 14.1695 34.0845C14.2019 34.2473 14.3641 34.3775 14.5587 34.345C14.7208 34.3124 14.8505 34.1496 14.8181 33.9543C14.5911 32.5546 14.3965 31.22 14.2019 29.983C15.2073 28.6158 16.7639 26.565 18.7745 23.8306C20.0069 25.4908 21.0122 26.7929 21.6284 27.6392C21.0122 28.5181 20.6555 29.5924 20.6555 30.7642C20.6555 33.9869 23.2823 36.6236 26.4929 36.6236C28.99 36.6236 31.1628 35.0611 31.9735 32.815C32.0384 32.6522 31.9411 32.457 31.7789 32.3919C31.6168 32.3267 31.4222 32.4244 31.3573 32.5872C30.6114 34.5403 28.6981 35.9726 26.4929 35.9726C23.639 35.9726 21.3041 33.6614 21.3041 30.7642C21.3041 28.9088 22.277 27.4114 23.7363 26.4674C23.8336 26.4023 23.8985 26.3046 23.8985 26.2069V16.832C23.8985 16.7669 23.8985 16.7343 23.8985 16.6692V11.8515C23.8985 10.3867 25.0335 9.24733 26.4929 9.24733C27.9522 9.24733 29.0872 10.3867 29.0872 11.8515V26.1744C29.0872 26.2721 29.1521 26.4023 29.2494 26.4348C30.7087 27.3788 31.6816 28.8762 31.6816 30.7317C31.6816 30.8944 31.8438 31.0572 32.0059 31.0572C32.1681 31.0572 32.3302 30.8944 32.3302 30.7317C32.3302 28.7135 31.26 27.0533 29.7358 26.0116V11.8515C29.7358 10.0937 28.3089 8.6614 26.4929 8.6614ZM32.2654 13.5442C32.1032 13.5442 31.9411 13.7395 31.9735 13.9023C32.0059 14.065 32.1681 14.2278 32.3302 14.1952H35.8975C36.0597 14.1952 36.2218 14.0325 36.2218 13.8697C36.2218 13.707 36.0597 13.5442 35.8975 13.5442C34.6976 13.5442 33.4653 13.5442 32.2654 13.5442ZM32.2654 16.1484C32.1032 16.1484 31.9411 16.3437 31.9735 16.5064C32.0059 16.6692 32.1681 16.832 32.3302 16.7994H33.9517C34.1139 16.7994 34.276 16.6367 34.276 16.4739C34.276 16.3111 34.1139 16.1484 33.9517 16.1484C33.4004 16.1484 32.8167 16.1484 32.2654 16.1484ZM23.2499 17.776V22.9517H19.4556C20.6231 21.3892 21.6932 19.9244 23.2499 17.776ZM32.2654 19.0781C32.1032 19.0781 31.9411 19.2734 31.9735 19.4361C32.0059 19.5989 32.1681 19.7616 32.3302 19.7291H35.8975C36.0597 19.7291 36.2218 19.5663 36.2218 19.4036C36.2218 19.2408 36.0597 19.0781 35.8975 19.0781C34.6976 19.0781 33.4653 19.0781 32.2654 19.0781ZM32.2654 21.6822C32.1032 21.6822 31.9411 21.8775 31.9735 22.0403C32.0059 22.203 32.1681 22.3658 32.3302 22.3333H33.9517C34.1139 22.3333 34.276 22.1705 34.276 22.0077C34.276 21.845 34.1139 21.6822 33.9517 21.6822C33.4004 21.6822 32.8167 21.6822 32.2654 21.6822ZM26.4604 23.2773C26.2983 23.3098 26.1686 23.44 26.1686 23.6028C26.1686 24.9049 26.1686 26.207 26.1686 27.5416C24.5471 27.7043 23.2499 29.1041 23.2499 30.7642C23.2499 32.5546 24.7092 34.0195 26.4929 34.0195C28.2765 34.0195 29.7358 32.5546 29.7358 30.7642C29.7358 29.0715 28.4711 27.7043 26.8172 27.5416C26.8172 26.2395 26.8172 24.9374 26.8172 23.6028C26.8172 23.44 26.655 23.2773 26.4604 23.2773ZM19.4231 23.6353H23.2499V26.0767C22.7958 26.3697 22.4067 26.7278 22.05 27.1184C21.4662 26.3046 20.5582 25.1002 19.4231 23.6353ZM32.2654 24.2864C32.1032 24.2864 31.9411 24.4817 31.9735 24.6444C31.9735 24.8072 32.1681 24.97 32.3302 24.9374H35.8975C36.0597 24.9374 36.2218 24.7747 36.2218 24.6119C36.2218 24.4491 36.0597 24.2864 35.8975 24.2864C34.6976 24.2864 33.4653 24.2864 32.2654 24.2864ZM26.4929 28.1926C27.9198 28.1926 29.0872 29.3645 29.0872 30.7968C29.0872 32.2291 27.9198 33.401 26.4929 33.401C25.0659 33.401 23.8985 32.2291 23.8985 30.7968C23.8985 29.332 25.0659 28.1926 26.4929 28.1926Z" fill="#192646"/>
<path d="M26.4929 8.6614C24.7092 8.6614 23.2499 10.0937 23.2499 11.9166V16.6692C21.3365 19.2734 20.1366 20.9335 18.7745 22.7564C17.5098 21.0963 15.9532 19.0129 14.1371 16.539C14.1371 16.5064 14.1371 16.5064 14.1371 16.4739C14.3317 15.2044 14.5911 13.7721 14.8181 12.2421C14.8505 12.0468 14.6884 11.8515 14.4614 11.8515C14.2992 11.8515 14.1695 11.9817 14.1695 12.1445C13.9749 13.4465 13.7479 14.651 13.5858 15.7903C12.9047 14.8788 12.2886 14.0325 11.5103 12.9908C11.4454 12.8932 11.3481 12.828 11.2184 12.8606C10.9914 12.8606 10.8292 13.1861 10.9914 13.3814C11.7048 14.3255 12.2562 15.1067 12.9047 15.953C11.8994 15.7903 10.8292 15.6275 9.69419 15.4322C9.53204 15.3997 9.33746 15.5299 9.30503 15.6926C9.27261 15.8554 9.43475 16.0507 9.5969 16.0833C10.959 16.3111 12.2562 16.5064 13.4561 16.7017C15.2721 19.1431 16.8612 21.259 18.126 22.9517H13.3588C12.4507 22.0728 11.5751 21.2265 10.5374 20.1197C10.4725 20.0546 10.3752 20.0221 10.2779 20.0221C10.0185 20.0546 9.88877 20.4127 10.0834 20.5754C10.959 21.4869 11.6724 22.2356 12.4183 22.9517C11.3805 22.9517 10.3104 22.9517 9.27261 22.9517C9.11046 22.9517 8.94831 23.1471 8.98074 23.3098C8.98074 23.4726 9.17532 23.6353 9.33746 23.6028H12.4183C11.6724 24.3189 10.9265 25.0676 10.0834 25.9791C9.95363 26.1093 9.95363 26.3372 10.0834 26.4348C10.2131 26.565 10.4076 26.565 10.5374 26.4348C11.5751 25.328 12.4507 24.4817 13.3588 23.6028H18.1584C16.245 26.1744 14.8181 28.1275 13.8128 29.4621C12.5804 29.69 11.0887 29.8528 9.5969 30.1132C9.43475 30.1132 9.27261 30.3085 9.30503 30.5038C9.33746 30.6991 9.53204 30.7968 9.69419 30.7642C10.9265 30.5689 12.1264 30.4062 13.2615 30.2108C12.4507 31.2525 11.8021 32.2291 11.0238 33.1405C10.8941 33.2707 10.8941 33.4986 11.0238 33.5963C11.1535 33.7265 11.3805 33.7265 11.4778 33.5963C12.1589 32.7825 13.0993 31.5129 13.6506 30.7642C13.8128 31.8059 13.9749 32.9127 14.1695 34.0845C14.2019 34.2473 14.3641 34.3775 14.5587 34.345C14.7208 34.3124 14.8505 34.1496 14.8181 33.9543C14.5911 32.5546 14.3965 31.22 14.2019 29.983C15.2073 28.6158 16.7639 26.565 18.7745 23.8306C20.0069 25.4908 21.0122 26.7929 21.6284 27.6392C21.0122 28.5181 20.6555 29.5924 20.6555 30.7642C20.6555 33.9869 23.2823 36.6236 26.4929 36.6236C28.99 36.6236 31.1628 35.0611 31.9735 32.815C32.0384 32.6522 31.9411 32.457 31.7789 32.3919C31.6168 32.3267 31.4222 32.4244 31.3573 32.5872C30.6114 34.5403 28.6981 35.9726 26.4929 35.9726C23.639 35.9726 21.3041 33.6614 21.3041 30.7642C21.3041 28.9088 22.277 27.4114 23.7363 26.4674C23.8336 26.4023 23.8985 26.3046 23.8985 26.2069V16.832C23.8985 16.7669 23.8985 16.7343 23.8985 16.6692V11.8515C23.8985 10.3867 25.0335 9.24733 26.4929 9.24733C27.9522 9.24733 29.0872 10.3867 29.0872 11.8515V26.1744C29.0872 26.2721 29.1521 26.4023 29.2494 26.4348C30.7087 27.3788 31.6816 28.8762 31.6816 30.7317C31.6816 30.8944 31.8438 31.0572 32.0059 31.0572C32.1681 31.0572 32.3302 30.8944 32.3302 30.7317C32.3302 28.7135 31.26 27.0533 29.7358 26.0116V11.8515C29.7358 10.0937 28.3089 8.6614 26.4929 8.6614ZM32.2654 13.5442C32.1032 13.5442 31.9411 13.7395 31.9735 13.9023C32.0059 14.065 32.1681 14.2278 32.3302 14.1952H35.8975C36.0597 14.1952 36.2218 14.0325 36.2218 13.8697C36.2218 13.707 36.0597 13.5442 35.8975 13.5442C34.6976 13.5442 33.4653 13.5442 32.2654 13.5442ZM32.2654 16.1484C32.1032 16.1484 31.9411 16.3437 31.9735 16.5064C32.0059 16.6692 32.1681 16.832 32.3302 16.7994H33.9517C34.1139 16.7994 34.276 16.6367 34.276 16.4739C34.276 16.3111 34.1139 16.1484 33.9517 16.1484C33.4004 16.1484 32.8167 16.1484 32.2654 16.1484ZM23.2499 17.776V22.9517H19.4556C20.6231 21.3892 21.6932 19.9244 23.2499 17.776ZM32.2654 19.0781C32.1032 19.0781 31.9411 19.2734 31.9735 19.4361C32.0059 19.5989 32.1681 19.7616 32.3302 19.7291H35.8975C36.0597 19.7291 36.2218 19.5663 36.2218 19.4036C36.2218 19.2408 36.0597 19.0781 35.8975 19.0781C34.6976 19.0781 33.4653 19.0781 32.2654 19.0781ZM32.2654 21.6822C32.1032 21.6822 31.9411 21.8775 31.9735 22.0403C32.0059 22.203 32.1681 22.3658 32.3302 22.3333H33.9517C34.1139 22.3333 34.276 22.1705 34.276 22.0077C34.276 21.845 34.1139 21.6822 33.9517 21.6822C33.4004 21.6822 32.8167 21.6822 32.2654 21.6822ZM26.4604 23.2773C26.2983 23.3098 26.1686 23.44 26.1686 23.6028C26.1686 24.9049 26.1686 26.207 26.1686 27.5416C24.5471 27.7043 23.2499 29.1041 23.2499 30.7642C23.2499 32.5546 24.7092 34.0195 26.4929 34.0195C28.2765 34.0195 29.7358 32.5546 29.7358 30.7642C29.7358 29.0715 28.4711 27.7043 26.8172 27.5416C26.8172 26.2395 26.8172 24.9374 26.8172 23.6028C26.8172 23.44 26.655 23.2773 26.4604 23.2773ZM19.4231 23.6353H23.2499V26.0767C22.7958 26.3697 22.4067 26.7278 22.05 27.1184C21.4662 26.3046 20.5582 25.1002 19.4231 23.6353ZM32.2654 24.2864C32.1032 24.2864 31.9411 24.4817 31.9735 24.6444C31.9735 24.8072 32.1681 24.97 32.3302 24.9374H35.8975C36.0597 24.9374 36.2218 24.7747 36.2218 24.6119C36.2218 24.4491 36.0597 24.2864 35.8975 24.2864C34.6976 24.2864 33.4653 24.2864 32.2654 24.2864ZM26.4929 28.1926C27.9198 28.1926 29.0872 29.3645 29.0872 30.7968C29.0872 32.2291 27.9198 33.401 26.4929 33.401C25.0659 33.401 23.8985 32.2291 23.8985 30.7968C23.8985 29.332 25.0659 28.1926 26.4929 28.1926Z" stroke="#192646" stroke-width="0.30197" mask="url(#path-2-outside-1_8_303)"/>
</svg>
