<svg width="44" height="45" viewBox="0 0 44 45" fill="none" xmlns="http://www.w3.org/2000/svg">
<circle cx="21.8679" cy="22.6423" r="21.1509" stroke="#192646" stroke-width="1.43396"/>
<path d="M23.7598 10.7703L23.7592 10.7694C23.3901 10.1636 22.733 9.7581 21.9919 9.7581C21.2537 9.7581 20.5951 10.1221 20.2245 10.7304L20.2243 10.7309L8.54262 30.1925C8.54245 30.1928 8.54228 30.193 8.54211 30.1933C8.13106 30.8417 8.13158 31.6124 8.5012 32.2596C8.87103 32.9072 9.56925 33.3118 10.3093 33.3118H33.4765C34.2569 33.3118 34.9151 32.9064 35.2845 32.2596C35.6541 31.6125 35.6547 30.8419 35.2438 30.1935L23.7598 10.7703ZM9.34407 30.6623L9.34435 30.6618L20.9863 11.2394C21.2129 10.9055 21.5474 10.6892 21.9523 10.6892C22.3615 10.6892 22.732 10.9092 22.9162 11.2358L22.9162 11.2359L22.917 11.2373L34.4412 30.6615L34.4417 30.6623C34.6646 31.0282 34.6646 31.4269 34.4417 31.7929C34.2159 32.1635 33.8824 32.3807 33.4369 32.3807H10.3093C9.9024 32.3807 9.53019 32.1626 9.30512 31.7939C9.12155 31.4675 9.12052 31.0292 9.34407 30.6623ZM22.9767 26.6596L22.9769 26.6596L22.9776 26.6545L24.1656 17.6834L24.1663 17.6835V17.6735C24.1663 17.5412 24.1221 17.4124 24.0789 17.3273C24.0447 17.26 23.9695 17.2227 23.9064 17.202C23.8386 17.1797 23.7613 17.169 23.6948 17.169H20.5266C20.3931 17.169 20.2534 17.2125 20.1568 17.3077C20.1027 17.3609 20.0779 17.4258 20.0662 17.4892C20.0551 17.5496 20.0551 17.614 20.0551 17.6702V17.6735H20.0544L20.0557 17.6834L21.2438 26.6545L21.2436 26.6545L21.2447 26.6596C21.2899 26.8825 21.4738 27.0711 21.7147 27.0711H22.5067C22.7476 27.0711 22.9314 26.8825 22.9767 26.6596ZM22.1503 25.9356L21.1274 18.1H23.1732L22.1503 25.9356ZM22.1107 27.3881C21.1976 27.3881 20.4907 28.1242 20.4907 28.9848C20.4907 29.8454 21.1976 30.5815 22.1107 30.5815C23.0238 30.5815 23.7307 29.8454 23.7307 28.9848C23.7307 28.1242 23.0238 27.3881 22.1107 27.3881ZM22.1107 29.6504C21.7182 29.6504 21.4337 29.3347 21.4337 28.9848C21.4337 28.6375 21.7553 28.3192 22.1107 28.3192C22.4661 28.3192 22.7876 28.6375 22.7876 28.9848C22.7876 29.3347 22.5031 29.6504 22.1107 29.6504Z" fill="#192646" stroke="#192646" stroke-width="0.150985"/>
</svg>
