<svg width="44" height="45" viewBox="0 0 44 45" fill="none" xmlns="http://www.w3.org/2000/svg">
<circle cx="21.8728" cy="22.6423" r="21.1509" stroke="#192646" stroke-width="1.43396"/>
<path d="M28.1181 16.7087L28.1183 16.7092C29.0552 18.4127 29.9788 20.2467 30.6648 21.9852C31.35 23.7219 31.8012 25.3706 31.787 26.7015C31.787 26.7016 31.787 26.7017 31.787 26.7018L31.7115 26.701C31.7115 31.9648 27.4565 36.256 22.237 36.256C17.0176 36.256 12.7626 31.9648 12.7626 26.701L28.1181 16.7087ZM28.1181 16.7087C26.2169 13.3032 24.2021 10.3837 23.7733 9.80689C23.419 9.30128 22.8574 9.00318 22.237 9.00318C21.6163 9.00318 21.0544 9.30163 20.7001 9.80779L20.6997 9.80835C20.6874 9.82632 20.6737 9.8463 20.6586 9.86823C20.3651 10.2953 19.5611 11.4652 18.5774 13.0443C17.6747 12.6286 16.6647 12.4075 15.6276 12.4075C11.5573 12.4075 8.23359 15.7604 8.23359 19.8638C8.23359 22.9094 10.0746 25.5551 12.6871 26.6935L28.1181 16.7087ZM22.2654 35.4081C17.6047 35.4081 13.8017 31.6643 13.6355 27.0322C14.2666 27.2158 14.9469 27.3201 15.6276 27.3201C19.698 27.3201 23.0217 23.9672 23.0217 19.8638C23.0217 17.1463 21.5618 14.7685 19.4199 13.487C20.4218 11.8626 21.2249 10.6902 21.475 10.3539L21.475 10.3539L21.4764 10.3518C21.6593 10.0884 21.9469 9.95518 22.2654 9.95518C22.5796 9.95518 22.8698 10.1135 23.0555 10.3534C23.4547 10.9286 25.4156 13.7706 27.2772 17.0935C28.2088 18.7566 29.1149 20.5388 29.7878 22.2167C30.4615 23.8964 30.8984 25.4642 30.8984 26.701C30.8984 31.4946 27.0171 35.4081 22.2654 35.4081ZM18.4107 16.3777L18.4106 16.3778L12.1984 22.6714L12.252 22.7246L12.1983 22.6715L12.1983 22.6715C12.0274 22.844 12.0274 23.1488 12.1984 23.3213C12.2472 23.3704 12.2984 23.4056 12.3559 23.4279C12.4131 23.4501 12.4726 23.458 12.5357 23.458C12.6353 23.458 12.7701 23.425 12.873 23.3213L19.0852 17.0562L19.0855 17.0564L19.0898 17.0511C19.2555 16.8506 19.2553 16.5778 19.0569 16.3777C18.8855 16.2049 18.5821 16.2049 18.4107 16.3777ZM28.3642 26.225C28.1269 26.225 27.8916 26.4276 27.8916 26.701C27.8916 29.8354 25.3434 32.4043 22.237 32.4043C21.9678 32.4043 21.7644 32.6103 21.7644 32.8803C21.7644 33.1502 21.9678 33.3563 22.237 33.3563C25.8522 33.3563 28.8063 30.3775 28.8085 26.7337C28.8235 26.5879 28.783 26.4601 28.7005 26.3681C28.6175 26.2756 28.497 26.225 28.3642 26.225ZM9.15047 19.8638C9.15047 16.2715 12.0392 13.3309 15.6276 13.3309C19.1881 13.3309 22.1048 16.2433 22.1048 19.8638C22.1048 23.4838 19.1885 26.3681 15.6276 26.3681C12.067 26.3681 9.15047 23.4554 9.15047 19.8638ZM13.3867 19.1383C14.2232 19.1383 14.9089 18.4459 14.9089 17.6038C14.9089 16.7617 14.2232 16.0693 13.3867 16.0693C12.5501 16.0693 11.8645 16.7617 11.8645 17.6038C11.8645 18.4459 12.5501 19.1383 13.3867 19.1383ZM13.3867 16.9927C13.7132 16.9927 13.992 17.273 13.992 17.6038C13.992 17.9346 13.7132 18.2149 13.3867 18.2149C13.0602 18.2149 12.7814 17.9346 12.7814 17.6038C12.7814 17.2464 13.0581 16.9927 13.3867 16.9927ZM17.8686 20.5607C17.032 20.5607 16.3464 21.2531 16.3464 22.0952C16.3464 22.9373 17.032 23.6297 17.8686 23.6297C18.7052 23.6297 19.3908 22.9373 19.3908 22.0952C19.3908 21.2531 18.7052 20.5607 17.8686 20.5607ZM17.8686 22.7349C17.5421 22.7349 17.2633 22.4546 17.2633 22.1238C17.2633 21.793 17.5421 21.5127 17.8686 21.5127C18.1951 21.5127 18.4739 21.793 18.4739 22.1238C18.4739 22.4546 18.1951 22.7349 17.8686 22.7349Z" fill="#192646" stroke="#192646" stroke-width="0.150985"/>
</svg>
