<svg width="45" height="45" viewBox="0 0 45 45" fill="none" xmlns="http://www.w3.org/2000/svg">
<circle cx="22.2077" cy="22.6424" r="21.1509" stroke="#192646" stroke-width="1.43396"/>
<path d="M22.61 11.485C16.1541 11.485 10.9087 16.6987 10.9087 23.1156C10.9087 29.5324 16.1541 34.7461 22.61 34.7461C29.066 34.7461 34.3114 29.5324 34.3114 23.1156C34.3114 16.6987 29.066 11.485 22.61 11.485ZM33.5044 23.5166C33.3027 29.1715 28.7028 33.7435 23.0135 33.944V32.7409H22.2066V33.944C16.5173 33.7435 11.9174 29.1715 11.7157 23.5166H12.9262V22.7145H11.7157C11.9174 17.0596 16.5173 12.4876 22.2066 12.2871V13.4903H23.0135V12.2871C28.7028 12.4876 33.3027 17.0596 33.5044 22.7145H32.2939V23.5166H33.5044Z" fill="#192646"/>
<path d="M28.9468 28.8418L28.3762 29.409L29.5174 30.5433L30.0881 29.9762L28.9468 28.8418Z" fill="#192646"/>
<path d="M15.7022 15.6874L15.1316 16.2545L16.2728 17.3889L16.8434 16.8217L15.7022 15.6874Z" fill="#192646"/>
<path d="M16.2778 28.8468L15.1366 29.9812L15.7072 30.5483L16.8485 29.414L16.2778 28.8468Z" fill="#192646"/>
<path d="M29.5124 15.6824L28.3711 16.8167L28.9417 17.3839L30.083 16.2495L29.5124 15.6824Z" fill="#192646"/>
<path d="M23.0135 9.88077H25.031V9.07866H20.1891V9.88077H22.2066V11.485H22.61H23.0135V9.88077Z" fill="#192646"/>
<path d="M23.0135 21.5515V17.5008H22.2066V21.5515C21.5206 21.7119 20.9961 22.3536 20.9961 23.1156C20.9961 23.9979 21.7224 24.7198 22.61 24.7198C23.4977 24.7198 24.224 23.9979 24.224 23.1156C24.224 22.3536 23.6995 21.752 23.0135 21.5515ZM22.61 23.9177C22.1662 23.9177 21.8031 23.5567 21.8031 23.1156C21.8031 22.6744 22.1662 22.3135 22.61 22.3135C23.0539 22.3135 23.417 22.6744 23.417 23.1156C23.417 23.5567 23.0539 23.9177 22.61 23.9177Z" fill="#192646"/>
</svg>
