<svg width="25" height="50" viewBox="0 0 25 50" fill="none" xmlns="http://www.w3.org/2000/svg">
<path d="M6.46279 21.8653H0V18.5271H6.46279V21.8653ZM6.46279 11.6003H0V14.9385H6.46279V11.6003ZM6.46279 4.59005H0V7.92826H6.46279V4.59005ZM6.46279 41.0601C6.46279 38.3895 7.75535 35.8024 9.90961 34.1333V5.67497C9.90961 2.50366 12.4947 0 15.7692 0C19.0437 0 21.6288 2.50366 21.6288 5.67497V34.1333C25.5927 37.3046 26.1097 42.8961 22.9214 46.735C19.6469 50.574 13.8735 51.0747 9.90961 47.9869C7.66918 46.3178 6.46279 43.8141 6.46279 41.0601ZM11.8915 41.0601C11.8915 43.1464 13.6149 44.8156 15.7692 44.8156C17.9235 44.8156 19.6469 43.1464 19.6469 41.0601C19.6469 39.6413 18.7852 38.306 17.4926 37.6384V26.1215C17.4926 25.2035 16.7171 24.4524 15.7692 24.4524C14.8213 24.4524 14.0458 25.2035 14.0458 26.1215V37.6384C12.6671 38.306 11.8915 39.5579 11.8915 41.0601Z" fill="#192646"/>
</svg>
