<svg width="45" height="45" viewBox="0 0 45 45" fill="none" xmlns="http://www.w3.org/2000/svg">
<path d="M22.4029 4.27941L22.4029 4.27924L22.396 4.28093C22.2241 4.32338 22.0789 4.4276 21.9771 4.54818C21.8773 4.66653 21.8057 4.81717 21.8057 4.96406V8.59219C21.8057 8.77602 21.8972 8.94681 22.0204 9.06845C22.1437 9.1902 22.3158 9.27969 22.5 9.27969C22.6842 9.27969 22.8563 9.1902 22.9796 9.06845C23.1028 8.94681 23.1943 8.77602 23.1943 8.59219V4.96406C23.1943 4.55009 22.8513 4.19084 22.4029 4.27941ZM22.432 11.4656H22.4137L22.396 11.47C22.2241 11.5124 22.0789 11.6167 21.9771 11.7372C21.8773 11.8556 21.8057 12.0062 21.8057 12.1531V22.266C21.7703 22.3523 21.7712 22.4257 21.7823 22.4914C21.7873 22.521 21.7919 22.5414 21.7956 22.5581C21.8017 22.5852 21.8057 22.6027 21.8057 22.6344V22.6344V22.6344V22.6344V22.6344V22.6345V22.6345V22.6345V22.6345V22.6345V22.6345V22.6346V22.6346V22.6346V22.6346V22.6346V22.6346V22.6347V22.6347V22.6347V22.6347V22.6348V22.6348V22.6348V22.6348V22.6349V22.6349V22.6349V22.6349V22.6349V22.635V22.635V22.635V22.635V22.635V22.635V22.6351V22.6351V22.6351V22.6351V22.6351V22.6352V22.6352V22.6352V22.6352V22.6352V22.6353V22.6353V22.6353V22.6353V22.6354V22.6354V22.6354V22.6354V22.6354V22.6355V22.6355V22.6355V22.6356V22.6356V22.6356V22.6356V22.6357V22.6357V22.6357V22.6357V22.6358V22.6358V22.6358V22.6359V22.6359V22.6359V22.636V22.636V22.636V22.6361V22.6361V22.6361V22.6362V22.6362V22.6362V22.6363V22.6363V22.6363V22.6364V22.6364V22.6365V22.6365V22.6365V22.6366V22.6366V22.6367V22.6367V22.6367V22.6368V22.6368V22.6369V22.6369V22.637V22.637V22.6371V22.6371V22.6371V22.6372V22.6372V22.6373V22.6373V22.6374V22.6374V22.6375V22.6375V22.6376V22.6376V22.6377V22.6378V22.6378V22.6379V22.6379V22.638V22.638V22.6381V22.6381V22.6382V22.6383V22.6383V22.6384V22.6384V22.6385V22.6386V22.6386V22.6387V22.6388V22.6388V22.6389V22.6389V22.639V22.6391V22.6391V22.6392V22.6393V22.6393V22.6394V22.6395V22.6396V22.6396V22.6397V22.6398V22.6399V22.6399V22.64V22.6401V22.6402V22.6402V22.6403V22.6404V22.6405V22.6405V22.6406V22.6407V22.6408V22.6409V22.641V22.641V22.6411V22.6412V22.6413V22.6414V22.6415V22.6416V22.6416V22.6417V22.6418V22.6419V22.642V22.6421V22.6422V22.6423V22.6424V22.6425V22.6426V22.6427V22.6428V22.6429V22.643V22.6431V22.6432V22.6433V22.6434V22.6435V22.6436V22.6437V22.6438V22.6439V22.644V22.6441V22.6442V22.6443V22.6444V22.6446V22.6447V22.6448V22.6449V22.645V22.6451V22.6452V22.6454V22.6455V22.6456V22.6457V22.6458V22.646V22.6461V22.6462V22.6463V22.6465V22.6466V22.6467V22.6468V22.647V22.6471V22.6472V22.6474V22.6475V22.6476V22.6478V22.6479V22.648V22.6482V22.6483V22.6484V22.6486V22.6487V22.6489V22.649V22.6491V22.6493V22.6494V22.6496V22.6497V22.6499V22.65V22.6502V22.6503V22.6505V22.6506V22.6508V22.6509V22.6511V22.6512V22.6514V22.6516V22.6517V22.6519V22.652V22.6522V22.6524V22.6525V22.6527V22.6529V22.653V22.6532V22.6534V22.6535V22.6537V22.6539V22.654V22.6542V22.6544V22.6546V22.6548V22.6549V22.6551V22.6553V22.6555V22.6557V22.6558V22.656V22.6562V22.6564V22.6566V22.6568V22.657V22.6572V22.6573V22.6575V22.6577V22.6579V22.6581V22.6583V22.6585V22.6587V22.6589V22.6591V22.6593V22.6595V22.6597V22.6599V22.6601V22.6604V22.6606V22.6608V22.661V22.6612V22.6614V22.6616V22.6618V22.6621V22.6623V22.6625V22.6627V22.6629V22.6632V22.6634V22.6636V22.6638V22.6641V22.6643V22.6645V22.6648V22.665V22.6652V22.6655V22.6657V22.6659V22.6662V22.6664V22.6667V22.6669V22.6671V22.6674V22.6676V22.6679V22.6681V22.6684V22.6686V22.6689V22.6691V22.6694V22.6696V22.6699V22.6702V22.6704V22.6707V22.6709V22.6712V22.6715V22.6717V22.672V22.6723V22.6725V22.6728V22.6731V22.6733V22.6736V22.6739V22.6742V22.6745V22.6747V22.675V22.6753V22.6756V22.6759V22.6762V22.6764V22.6767V22.677V22.6773V22.6776V22.6779V22.6782V22.6785V22.6788V22.6791V22.6794V22.6797V22.68V22.6803V22.6806V22.6809V22.6812V22.6815V22.6818V22.6822V22.6825V22.6828V22.6831V22.6834V22.6837V22.6841V22.6844V22.6847V22.685V22.6854V22.6857V22.686V22.6863V22.6867V22.687V22.6873V22.6877V22.688V22.6884V22.6887V22.689V22.6894V22.6897V22.6901V22.6904V22.6908V22.6911V22.6915V22.6918V22.6922V22.6926V22.6929V22.6933V22.6936V22.694V22.6944V22.6947V22.6951V22.6955V22.6958V22.6962V22.6966V22.6969V22.6973V22.6977V22.6981V22.6985V22.6988V22.6992V22.6996V22.7V22.7004V22.7008V22.7012V22.7016C21.8057 22.7465 21.8179 22.786 21.8381 22.8193C21.85 22.8388 21.8639 22.8547 21.8737 22.8649V22.8986L21.9183 22.9427L22.0539 23.0765L22.0544 23.077L29.2659 30.2656L29.2664 30.2661C29.529 30.5254 29.9631 30.5254 30.2256 30.2661C30.4963 29.9989 30.4775 29.5755 30.2397 29.2624L30.2335 29.2542L30.2262 29.2469L23.1943 22.2362V12.2203C23.1943 11.7998 22.8532 11.4656 22.432 11.4656ZM36.3117 21.8125H36.2935L36.2758 21.8169C36.1089 21.8581 35.9457 21.9591 35.8321 22.0917C35.7187 22.2241 35.6402 22.4071 35.69 22.604C35.7292 22.7586 35.8092 22.9221 35.9389 23.0395C36.0705 23.1586 36.2486 23.2249 36.4616 23.1875H40.0538C40.238 23.1875 40.4101 23.098 40.5334 22.9763C40.6566 22.8546 40.7481 22.6838 40.7481 22.5C40.7481 22.3162 40.6566 22.1454 40.5334 22.0237C40.4101 21.902 40.238 21.8125 40.0538 21.8125H36.3797H36.3797H36.3797H36.3797H36.3796H36.3796H36.3796H36.3795H36.3795H36.3795H36.3794H36.3794H36.3794H36.3793H36.3793H36.3792H36.3792H36.3792H36.3791H36.3791H36.3791H36.379H36.379H36.379H36.3789H36.3789H36.3788H36.3788H36.3787H36.3787H36.3786H36.3786H36.3785H36.3785H36.3784H36.3784H36.3783H36.3783H36.3783H36.3782H36.3782H36.3782H36.3781H36.3781H36.3781H36.378H36.378H36.378H36.3779H36.3779H36.3779H36.3778H36.3778H36.3777H36.3777H36.3777H36.3776H36.3776H36.3776H36.3775H36.3775H36.3774H36.3774H36.3773H36.3773H36.3773H36.3772H36.3772H36.3771H36.3771H36.377H36.377H36.3769H36.3769H36.3768H36.3768H36.3767H36.3767H36.3766H36.3766H36.3765H36.3765H36.3764H36.3764H36.3763H36.3763H36.3762H36.3762H36.3761H36.376H36.376H36.3759H36.3759H36.3758H36.3758H36.3757H36.3756H36.3756H36.3755H36.3754H36.3754H36.3753H36.3753H36.3752H36.3751H36.3751H36.375H36.3749H36.3748H36.3748H36.3747H36.3746H36.3746H36.3745H36.3744H36.3743H36.3743H36.3742H36.3741H36.3741H36.374H36.3739H36.3738H36.3737H36.3737H36.3736H36.3735H36.3734H36.3733H36.3733H36.3732H36.3731H36.373H36.3729H36.3728H36.3727H36.3727H36.3726H36.3725H36.3724H36.3723H36.3722H36.3721H36.372H36.3719H36.3718H36.3717H36.3716H36.3715H36.3714H36.3713H36.3712H36.3711H36.371H36.3709H36.3708H36.3707H36.3706H36.3705H36.3704H36.3703H36.3702H36.3701H36.37H36.3699H36.3698H36.3697H36.3695H36.3694H36.3693H36.3692H36.3691H36.369H36.3689H36.3687H36.3686H36.3685H36.3684H36.3683H36.3681H36.368H36.3679H36.3678H36.3676H36.3675H36.3674H36.3673H36.3671H36.367H36.3669H36.3667H36.3666H36.3665H36.3663H36.3662H36.3661H36.3659H36.3658H36.3656H36.3655H36.3654H36.3652H36.3651H36.3649H36.3648H36.3646H36.3645H36.3644H36.3642H36.3641H36.3639H36.3638H36.3636H36.3634H36.3633H36.3631H36.363H36.3628H36.3627H36.3625H36.3623H36.3622H36.362H36.3619H36.3617H36.3615H36.3614H36.3612H36.361H36.3609H36.3607H36.3605H36.3603H36.3602H36.36H36.3598H36.3596H36.3595H36.3593H36.3591H36.3589H36.3587H36.3586H36.3584H36.3582H36.358H36.3578H36.3576H36.3574H36.3573H36.3571H36.3569H36.3567H36.3565H36.3563H36.3561H36.3559H36.3557H36.3555H36.3553H36.3551H36.3549H36.3547H36.3545H36.3543H36.3541H36.3539H36.3537H36.3534H36.3532H36.353H36.3528H36.3526H36.3524H36.3521H36.3519H36.3517H36.3515H36.3513H36.351H36.3508H36.3506H36.3504H36.3501H36.3499H36.3497H36.3494H36.3492H36.349H36.3487H36.3485H36.3483H36.348H36.3478H36.3475H36.3473H36.3471H36.3468H36.3466H36.3463H36.3461H36.3458H36.3456H36.3453H36.3451H36.3448H36.3446H36.3443H36.344H36.3438H36.3435H36.3433H36.343H36.3427H36.3425H36.3422H36.3419H36.3417H36.3414H36.3411H36.3408H36.3406H36.3403H36.34H36.3397H36.3394H36.3392H36.3389H36.3386H36.3383H36.338H36.3377H36.3374H36.3372H36.3369H36.3366H36.3363H36.336H36.3357H36.3354H36.3351H36.3348H36.3345H36.3342H36.3339H36.3336H36.3332H36.3329H36.3326H36.3323H36.332H36.3317H36.3314H36.331H36.3307H36.3304H36.3301H36.3298H36.3294H36.3291H36.3288H36.3284H36.3281H36.3278H36.3275H36.3271H36.3268H36.3264H36.3261H36.3258H36.3254H36.3251H36.3247H36.3244H36.324H36.3237H36.3233H36.323H36.3226H36.3223H36.3219H36.3216H36.3212H36.3208H36.3205H36.3201H36.3197H36.3194H36.319H36.3186H36.3183H36.3179H36.3175H36.3171H36.3168H36.3164H36.316H36.3156H36.3152H36.3148H36.3145H36.3141H36.3137H36.3133H36.3129H36.3125H36.3121H36.3117ZM22.432 35.6531H22.4137L22.396 35.6575C22.0775 35.7361 21.8057 35.9837 21.8057 36.3406V39.9688C21.8057 40.1526 21.8972 40.3234 22.0204 40.445C22.1437 40.5668 22.3158 40.6562 22.5 40.6562C22.6842 40.6562 22.8563 40.5668 22.9796 40.445C23.1028 40.3234 23.1943 40.1526 23.1943 39.9688V36.3406C23.1943 35.9763 22.8416 35.6531 22.432 35.6531ZM22.5 0.85C10.5788 0.85 0.85 10.5247 0.85 22.5C0.85 34.4078 10.5785 44.15 22.5 44.15C34.4212 44.15 44.15 34.4753 44.15 22.5C44.15 10.525 34.4896 0.85 22.5 0.85ZM22.5 2.225C33.7113 2.225 42.7614 11.2952 42.7614 22.5C42.7614 33.7048 33.7113 42.775 22.5 42.775C11.2887 42.775 2.23861 33.7048 2.23861 22.5C2.23861 11.2952 11.2887 2.225 22.5 2.225ZM4.87816 21.8125C4.68236 21.8125 4.50703 21.93 4.39508 22.0707C4.28303 22.2115 4.20734 22.4099 4.25649 22.604C4.29562 22.7586 4.37568 22.9221 4.50535 23.0395C4.63692 23.1586 4.81503 23.2249 5.02808 23.1875H8.68829C8.87249 23.1875 9.0446 23.098 9.1679 22.9763C9.29108 22.8546 9.3826 22.6838 9.3826 22.5C9.3826 22.3162 9.29108 22.1454 9.1679 22.0237C9.0446 21.902 8.87249 21.8125 8.68829 21.8125H4.9462H4.94619H4.94617H4.94616H4.94614H4.94612H4.9461H4.94609H4.94607H4.94605H4.94603H4.94601H4.946H4.94598H4.94596H4.94594H4.94592H4.9459H4.94588H4.94586H4.94583H4.94581H4.94578H4.94575H4.94574H4.94573H4.94571H4.9457H4.94568H4.94566H4.94565H4.94563H4.94562H4.9456H4.94558H4.94556H4.94555H4.94553H4.94551H4.94549H4.94547H4.94545H4.94543H4.94541H4.94539H4.94537H4.94535H4.94533H4.9453H4.94528H4.94526H4.94524H4.94521H4.94519H4.94516H4.94514H4.94511H4.94509H4.94506H4.94504H4.94501H4.94498H4.94496H4.94493H4.9449H4.94487H4.94484H4.94481H4.94478H4.94475H4.94472H4.94469H4.94466H4.94463H4.94459H4.94456H4.94453H4.94449H4.94446H4.94442H4.94439H4.94435H4.94431H4.94428H4.94424H4.9442H4.94416H4.94413H4.94409H4.94405H4.94401H4.94397H4.94393H4.94388H4.94384H4.9438H4.94376H4.94371H4.94367H4.94362H4.94358H4.94353H4.94349H4.94344H4.94339H4.94334H4.9433H4.94325H4.9432H4.94315H4.9431H4.94304H4.94299H4.94294H4.94289H4.94283H4.94278H4.94273H4.94267H4.94261H4.94256H4.9425H4.94244H4.94239H4.94233H4.94227H4.94221H4.94215H4.94209H4.94202H4.94196H4.9419H4.94184H4.94177H4.94171H4.94164H4.94157H4.94151H4.94144H4.94137H4.9413H4.94123H4.94116H4.94109H4.94102H4.94095H4.94088H4.9408H4.94073H4.94066H4.94058H4.94051H4.94043H4.94035H4.94027H4.94019H4.94011H4.94003H4.93995H4.93987H4.93979H4.93971H4.93962H4.93954H4.93945H4.93937H4.93928H4.93919H4.93911H4.93902H4.93893H4.93884H4.93875H4.93866H4.93856H4.93847H4.93838H4.93828H4.93819H4.93809H4.93799H4.9379H4.9378H4.9377H4.9376H4.9375H4.9374H4.93729H4.93719H4.93709H4.93698H4.93688H4.93677H4.93666H4.93655H4.93644H4.93634H4.93622H4.93611H4.936H4.93589H4.93577H4.93566H4.93554H4.93543H4.93531H4.93519H4.93507H4.93496H4.93483H4.93471H4.93459H4.93447H4.93434H4.93422H4.93409H4.93397H4.93384H4.93371H4.93358H4.93345H4.93332H4.93319H4.93306H4.93292H4.93279H4.93265H4.93252H4.93238H4.93224H4.9321H4.93196H4.93182H4.93168H4.93154H4.93139H4.93125H4.9311H4.93095H4.93081H4.93066H4.93051H4.93036H4.93021H4.93005H4.9299H4.92975H4.92959H4.92944H4.92928H4.92912H4.92896H4.9288H4.92864H4.92848H4.92831H4.92815H4.92799H4.92782H4.92765H4.92748H4.92731H4.92714H4.92697H4.9268H4.92663H4.92645H4.92628H4.9261H4.92592H4.92575H4.92557H4.92539H4.9252H4.92502H4.92484H4.92465H4.92447H4.92428H4.92409H4.9239H4.92371H4.92352H4.92333H4.92314H4.92294H4.92275H4.92255H4.92235H4.92216H4.92196H4.92175H4.92155H4.92135H4.92114H4.92094H4.92073H4.92053H4.92032H4.92011H4.9199H4.91968H4.91947H4.91926H4.91904H4.91882H4.91861H4.91839H4.91817H4.91795H4.91772H4.9175H4.91727H4.91705H4.91682H4.91659H4.91636H4.91613H4.9159H4.91567H4.91543H4.9152H4.91496H4.91472H4.91448H4.91424H4.914H4.91376H4.91352H4.91327H4.91302H4.91278H4.91253H4.91228H4.91203H4.91177H4.91152H4.91126H4.91101H4.91075H4.91049H4.91023H4.90997H4.90971H4.90944H4.90918H4.90891H4.90865H4.90838H4.90811H4.90784H4.90756H4.90729H4.90701H4.90674H4.90646H4.90618H4.9059H4.90562H4.90533H4.90505H4.90476H4.90448H4.90419H4.9039H4.90361H4.90331H4.90302H4.90273H4.90243H4.90213H4.90183H4.90153H4.90123H4.90093H4.90062H4.90032H4.90001H4.8997H4.89939H4.89908H4.89877H4.89845H4.89814H4.89782H4.8975H4.89718H4.89686H4.89654H4.89621H4.89589H4.89556H4.89523H4.8949H4.89457H4.89424H4.89391H4.89357H4.89324H4.8929H4.89256H4.89222H4.89187H4.89153H4.89119H4.89084H4.89049H4.89014H4.88979H4.88944H4.88908H4.88873H4.88837H4.88801H4.88765H4.88729H4.88693H4.88656H4.8862H4.88583H4.88546H4.88509H4.88472H4.88435H4.88397H4.88359H4.88322H4.88284H4.88246H4.88207H4.88169H4.8813H4.88092H4.88053H4.88014H4.87975H4.87935H4.87896H4.87856H4.87816Z" fill="#192646" stroke="#192646" stroke-width="0.3"/>
</svg>
