<svg width="43" height="43" viewBox="0 0 43 43" fill="none" xmlns="http://www.w3.org/2000/svg">
<path d="M16.8775 21.6294H16.9231V21.4794C16.9231 19.7113 17.8944 18.1216 19.4388 17.3266C19.439 17.3265 19.4392 17.3263 19.4395 17.3262L20.1671 16.9622L20.3119 16.8897L20.2287 16.7509L19.8185 16.0669L19.8185 16.0669L19.8173 16.0649C17.9217 13.0117 14.638 11.1603 11.0307 11.1603C6.17624 11.1603 1.92114 14.537 0.903297 19.2589L0.903243 19.2589L0.902495 19.2629C0.758885 20.0293 0.901666 20.8065 1.43635 21.439C1.92007 22.0196 2.64545 22.359 3.37422 22.359H16.7275H16.8775V22.209V21.6294ZM18.9374 16.4909C17.109 17.4719 15.9611 19.3521 15.9398 21.4206H3.37422C2.91665 21.4206 2.46007 21.212 2.17099 20.8401C1.87951 20.4651 1.75201 19.9622 1.8353 19.4558C2.77869 15.1943 6.63624 12.0987 10.9851 12.0987C14.2391 12.0987 17.1829 13.738 18.9374 16.4909ZM11.1997 31.9677C11.1997 36.7743 14.6124 41.0263 19.2757 42.0515C19.4838 42.1501 19.6882 42.15 19.8202 42.15H19.8266C20.407 42.15 20.9871 41.9563 21.4698 41.5699L21.4699 41.5699L21.4722 41.568C22.0526 41.084 22.392 40.358 22.392 39.6287V26.2219V26.0719H22.242H21.5128C19.746 26.0719 18.1573 25.1001 17.3627 23.5549C17.3625 23.5546 17.3624 23.5543 17.3622 23.5541L16.9984 22.826L16.926 22.681L16.787 22.7644L16.1034 23.1748L16.1034 23.1748L16.1014 23.176C13.05 25.0728 11.1997 28.3584 11.1997 31.9677ZM12.1378 32.0133C12.1378 28.7707 13.7626 25.8361 16.4934 24.078C17.4769 25.8948 19.3493 27.0343 21.4084 27.0556V39.6287V39.7787H21.4465C21.4064 40.1846 21.2048 40.5752 20.8738 40.8328C20.4991 41.1244 19.9965 41.252 19.4905 41.1687C15.2316 40.2247 12.1378 36.365 12.1378 32.0133ZM41.5933 21.5248L41.5934 21.5247L41.5897 21.5202C41.1059 20.9394 40.3804 20.5998 39.6514 20.5998H26.2526H26.1026V20.7498V21.4794C26.1026 23.2474 25.1312 24.8372 23.5869 25.6322C23.5867 25.6323 23.5864 25.6324 23.5862 25.6325L22.8585 25.9966L22.7137 26.069L22.797 26.2079L23.2072 26.8919L23.2071 26.8919L23.2084 26.8939C25.104 29.9471 28.3876 31.7985 31.9949 31.7985C36.8041 31.7985 41.0577 28.3762 42.0762 23.7023C42.2698 22.9248 42.0737 22.1496 41.5933 21.5248ZM41.1466 23.4951L41.1465 23.4951L41.1453 23.5006C40.2486 27.7625 36.391 30.8601 32.0405 30.8601C28.7999 30.8601 25.8669 29.2342 24.1099 26.5017C25.9258 25.5176 27.0646 23.644 27.0859 21.5838H39.6514C40.109 21.5838 40.5656 21.7924 40.8546 22.1643L40.8545 22.1644L40.8602 22.1709C41.1449 22.4965 41.2721 22.9925 41.1466 23.4951ZM23.7281 0.902531C22.9621 0.758821 22.1852 0.90171 21.5531 1.43673C20.9728 1.92075 20.6336 2.64652 20.6336 3.37563V16.7368V16.8868H20.7836H21.5128C23.2797 16.8868 24.8684 17.8586 25.663 19.4039C25.6631 19.4041 25.6633 19.4044 25.6634 19.4047L26.0272 20.1328L26.0997 20.2778L26.2386 20.1943L26.9222 19.7839L26.9222 19.7839L26.9242 19.7827C29.9757 17.886 31.8259 14.6004 31.8259 10.9911C31.8259 6.17842 28.4047 1.92174 23.7323 0.903399L23.7323 0.903337L23.7281 0.902531ZM26.4984 18.9024C25.518 17.0731 23.639 15.9245 21.5717 15.9031V3.33003C21.5717 2.87209 21.7802 2.4152 22.1518 2.12596C22.5266 1.83432 23.0292 1.70677 23.5352 1.7901C27.794 2.73402 30.8879 6.59381 30.8879 10.9455C30.8879 14.2014 29.2496 17.1469 26.4984 18.9024ZM21.5128 17.6357C19.3791 17.6357 17.6713 19.3446 17.6713 21.4794C17.6713 23.6142 19.3791 25.3231 21.5128 25.3231C23.6466 25.3231 25.3543 23.6142 25.3543 21.4794C25.3543 19.3446 23.6466 17.6357 21.5128 17.6357ZM21.5128 24.3847C19.9095 24.3847 18.6093 23.0839 18.6093 21.4794C18.6093 19.8749 19.9095 18.5741 21.5128 18.5741C23.1161 18.5741 24.4163 19.8749 24.4163 21.4794C24.4163 23.0839 23.1161 24.3847 21.5128 24.3847Z" fill="#192646" stroke="#192646" stroke-width="0.3"/>
</svg>
