<svg width="58" height="42" viewBox="0 0 58 42" fill="none" xmlns="http://www.w3.org/2000/svg">
<mask id="path-1-outside-1_35_1835" maskUnits="userSpaceOnUse" x="0" y="0" width="58" height="42" fill="black">
<rect fill="white" width="58" height="42"/>
<path d="M43.8759 33.4999C43.679 33.349 43.3947 33.3705 43.2416 33.5646C43.0885 33.7479 43.1103 34.0283 43.2963 34.1793L46.1836 36.5515L36.9967 36.4545L37.0295 34.9988C37.0295 34.7508 36.8326 34.5459 36.5811 34.5459C36.3295 34.5459 36.1327 34.74 36.1217 34.9772L36.0889 36.4329L24.8569 36.3143L24.8897 34.7508C24.9006 34.5027 24.7038 34.2979 24.4522 34.2871C24.2007 34.2763 23.9929 34.4704 23.982 34.7184V34.7292L23.9492 36.3035L11.2297 36.1741L11.2625 34.4812C11.2625 34.2332 11.0657 34.0391 10.8141 34.0283C10.5735 34.0283 10.3657 34.2224 10.3548 34.4596L10.322 36.1525L5.06139 36.0986L5.01764 29.5318L6.84408 29.4994C7.09562 29.4994 7.29248 29.2946 7.29248 29.0466C7.28155 28.7985 7.07375 28.6152 6.83314 28.6045L5.01764 28.6368L4.96296 21.0132L7.01906 20.9701C7.27061 20.9701 7.46747 20.7652 7.46747 20.5172C7.45653 20.2692 7.25967 20.0751 7.00813 20.0751L4.96296 20.1182L4.89733 9.55091L6.80033 9.56169C7.05187 9.56169 7.24874 9.35682 7.24874 9.10881C7.2378 8.8608 7.04094 8.66671 6.78939 8.66671L4.90827 8.69905L4.86452 2.67136L7.52215 5.79843C7.68621 5.98174 7.97056 6.01409 8.15649 5.85234C8.34241 5.6906 8.37522 5.41024 8.21117 5.22693L4.76609 1.16174C4.6786 1.05391 4.54736 1 4.40518 1C4.263 1 4.1427 1.07548 4.05521 1.18331L1.09135 5.12988C0.938232 5.32398 0.981979 5.60434 1.18978 5.7553C1.38664 5.90626 1.67099 5.86313 1.82411 5.65825L3.95677 2.80076L4.17551 36.5731C4.17551 36.8103 4.37237 37.0152 4.62392 37.0152L46.457 37.4357L43.8978 40.2609C43.7337 40.4442 43.7447 40.7245 43.9306 40.8863C44.1165 41.048 44.4009 41.0372 44.5649 40.8539L47.7803 37.2955C47.9444 37.1122 47.9334 36.8319 47.7475 36.6701L47.7366 36.6593L43.8759 33.4999Z"/>
<path d="M10.6063 21.1211L12.7062 21.0348C12.9577 21.024 13.1436 20.8084 13.1327 20.5711C13.1218 20.3339 12.914 20.1398 12.6624 20.1506L10.5626 20.2369C10.311 20.2476 10.1251 20.4525 10.136 20.7005C10.147 20.9377 10.3438 21.1211 10.5735 21.1211C10.5844 21.1211 10.5954 21.1211 10.6063 21.1211Z"/>
<path d="M17.2777 21.2505L19.3776 21.1642C19.6291 21.1534 19.8151 20.9377 19.8041 20.7005C19.7932 20.4633 19.5854 20.2692 19.3338 20.28L17.234 20.3662C16.9824 20.377 16.7965 20.5819 16.8075 20.8299C16.8184 21.0671 17.0153 21.2505 17.2449 21.2505C17.2559 21.2505 17.2668 21.2505 17.2777 21.2505Z"/>
<path d="M23.9601 21.3799L26.0599 21.2936C26.3115 21.2828 26.4974 21.0671 26.4865 20.8299C26.4755 20.5927 26.2677 20.3986 26.0162 20.4094L23.9163 20.4956C23.6648 20.4956 23.4679 20.7005 23.4679 20.9485C23.4679 21.1965 23.6757 21.3906 23.9273 21.3906C23.9382 21.3798 23.9491 21.3799 23.9601 21.3799Z"/>
<path d="M30.5987 21.5092C30.6096 21.5092 30.6206 21.5092 30.6315 21.5092L32.7314 21.423C32.9829 21.4122 33.1688 21.1965 33.1579 20.9593C33.147 20.7113 32.9392 20.528 32.6876 20.5388L30.5878 20.625C30.3362 20.6358 30.1503 20.8407 30.1612 21.0887C30.1722 21.3152 30.369 21.4985 30.5987 21.5092Z"/>
<path d="M37.281 21.6386C37.292 21.6386 37.3029 21.6386 37.3139 21.6386L39.4137 21.5524C39.6653 21.5416 39.8512 21.3259 39.8402 21.0887C39.8293 20.8407 39.6215 20.6574 39.37 20.6682L37.2701 20.7544C37.0186 20.7652 36.8326 20.9701 36.8436 21.2181C36.8545 21.4445 37.0404 21.6279 37.281 21.6386Z"/>
<path d="M43.9525 21.768C43.9634 21.768 43.9743 21.768 43.9853 21.768L46.0851 21.6818C46.3367 21.671 46.5226 21.4553 46.5117 21.2181C46.5007 20.9701 46.2929 20.7868 46.0414 20.7976L43.9415 20.8838C43.69 20.8946 43.5041 21.0995 43.515 21.3475C43.5259 21.5739 43.7228 21.7573 43.9525 21.768Z"/>
<path d="M57 20.8946C57 20.8407 56.9781 20.776 56.9563 20.7329C56.9563 20.7221 56.9453 20.7221 56.9453 20.7221C56.9234 20.679 56.8906 20.6358 56.8578 20.6035L53.6424 17.5735C53.4565 17.4009 53.1721 17.4117 53.0081 17.5842C52.8331 17.7675 52.844 18.0479 53.019 18.2097L55.4689 20.5172L51.2801 20.6897C51.0285 20.7005 50.8426 20.9054 50.8535 21.1534C50.8645 21.3906 51.0613 21.5739 51.291 21.5739C51.302 21.5739 51.3129 21.5739 51.3238 21.5739L55.5673 21.3906L53.3799 24.054C53.2268 24.2481 53.2596 24.5285 53.4674 24.6794C53.6534 24.8196 53.9268 24.7981 54.0908 24.6147L56.9125 21.1858C56.9344 21.1426 56.9672 21.0995 56.9891 21.0456C56.9781 21.0024 56.9891 20.9485 57 20.8946Z"/>
<path d="M51.4004 12.5378C51.1816 12.43 50.9082 12.5162 50.7879 12.7319C49.8911 14.4572 49.1802 16.2903 48.4912 18.0587C48.0319 19.234 47.5616 20.4525 47.0366 21.6171C45.4508 25.1647 43.679 27.5154 41.4479 29.025C39.1403 30.5885 35.564 31.3972 32.7751 29.6612C31.3424 28.7662 30.1722 27.1811 29.3956 25.0892C28.9144 23.7845 28.5973 22.3827 28.302 21.0348C28.1707 20.4525 28.0395 19.8594 27.8973 19.2772C26.8474 15.0179 25.1959 11.9124 22.8445 9.78814C19.8479 7.07082 15.5497 6.2621 12.3999 7.80407C9.03142 9.45386 7.47841 13.174 6.18787 16.8294C6.10038 17.0559 6.22068 17.3147 6.45035 17.4009C6.68002 17.4872 6.94251 17.3686 7.03 17.1421C7.03 17.1314 7.03 17.1314 7.04094 17.1206C8.27679 13.6377 9.74231 10.1008 12.8046 8.60201C15.6263 7.22179 19.5088 7.97659 22.2321 10.4459C24.4413 12.4515 26.0053 15.4061 27.0224 19.4928C27.1645 20.0643 27.2958 20.6466 27.4161 21.2289C27.7223 22.6091 28.0395 24.0432 28.5426 25.4019C29.3847 27.6771 30.6862 29.4132 32.2829 30.416C33.4422 31.1277 34.7765 31.5159 36.1436 31.5266C38.2653 31.5698 40.3761 30.8257 41.9401 29.7582C44.3134 28.1516 46.1836 25.6823 47.835 21.9729C48.3709 20.7868 48.8412 19.5575 49.3005 18.3714C49.9786 16.6246 50.6786 14.813 51.5535 13.1416C51.7066 12.926 51.6191 12.6564 51.4004 12.5378Z"/>
</mask>
<path d="M43.8759 33.4999C43.679 33.349 43.3947 33.3705 43.2416 33.5646C43.0885 33.7479 43.1103 34.0283 43.2963 34.1793L46.1836 36.5515L36.9967 36.4545L37.0295 34.9988C37.0295 34.7508 36.8326 34.5459 36.5811 34.5459C36.3295 34.5459 36.1327 34.74 36.1217 34.9772L36.0889 36.4329L24.8569 36.3143L24.8897 34.7508C24.9006 34.5027 24.7038 34.2979 24.4522 34.2871C24.2007 34.2763 23.9929 34.4704 23.982 34.7184V34.7292L23.9492 36.3035L11.2297 36.1741L11.2625 34.4812C11.2625 34.2332 11.0657 34.0391 10.8141 34.0283C10.5735 34.0283 10.3657 34.2224 10.3548 34.4596L10.322 36.1525L5.06139 36.0986L5.01764 29.5318L6.84408 29.4994C7.09562 29.4994 7.29248 29.2946 7.29248 29.0466C7.28155 28.7985 7.07375 28.6152 6.83314 28.6045L5.01764 28.6368L4.96296 21.0132L7.01906 20.9701C7.27061 20.9701 7.46747 20.7652 7.46747 20.5172C7.45653 20.2692 7.25967 20.0751 7.00813 20.0751L4.96296 20.1182L4.89733 9.55091L6.80033 9.56169C7.05187 9.56169 7.24874 9.35682 7.24874 9.10881C7.2378 8.8608 7.04094 8.66671 6.78939 8.66671L4.90827 8.69905L4.86452 2.67136L7.52215 5.79843C7.68621 5.98174 7.97056 6.01409 8.15649 5.85234C8.34241 5.6906 8.37522 5.41024 8.21117 5.22693L4.76609 1.16174C4.6786 1.05391 4.54736 1 4.40518 1C4.263 1 4.1427 1.07548 4.05521 1.18331L1.09135 5.12988C0.938232 5.32398 0.981979 5.60434 1.18978 5.7553C1.38664 5.90626 1.67099 5.86313 1.82411 5.65825L3.95677 2.80076L4.17551 36.5731C4.17551 36.8103 4.37237 37.0152 4.62392 37.0152L46.457 37.4357L43.8978 40.2609C43.7337 40.4442 43.7447 40.7245 43.9306 40.8863C44.1165 41.048 44.4009 41.0372 44.5649 40.8539L47.7803 37.2955C47.9444 37.1122 47.9334 36.8319 47.7475 36.6701L47.7366 36.6593L43.8759 33.4999Z" fill="#192646"/>
<path d="M10.6063 21.1211L12.7062 21.0348C12.9577 21.024 13.1436 20.8084 13.1327 20.5711C13.1218 20.3339 12.914 20.1398 12.6624 20.1506L10.5626 20.2369C10.311 20.2476 10.1251 20.4525 10.136 20.7005C10.147 20.9377 10.3438 21.1211 10.5735 21.1211C10.5844 21.1211 10.5954 21.1211 10.6063 21.1211Z" fill="#192646"/>
<path d="M17.2777 21.2505L19.3776 21.1642C19.6291 21.1534 19.8151 20.9377 19.8041 20.7005C19.7932 20.4633 19.5854 20.2692 19.3338 20.28L17.234 20.3662C16.9824 20.377 16.7965 20.5819 16.8075 20.8299C16.8184 21.0671 17.0153 21.2505 17.2449 21.2505C17.2559 21.2505 17.2668 21.2505 17.2777 21.2505Z" fill="#192646"/>
<path d="M23.9601 21.3799L26.0599 21.2936C26.3115 21.2828 26.4974 21.0671 26.4865 20.8299C26.4755 20.5927 26.2677 20.3986 26.0162 20.4094L23.9163 20.4956C23.6648 20.4956 23.4679 20.7005 23.4679 20.9485C23.4679 21.1965 23.6757 21.3906 23.9273 21.3906C23.9382 21.3798 23.9491 21.3799 23.9601 21.3799Z" fill="#192646"/>
<path d="M30.5987 21.5092C30.6096 21.5092 30.6206 21.5092 30.6315 21.5092L32.7314 21.423C32.9829 21.4122 33.1688 21.1965 33.1579 20.9593C33.147 20.7113 32.9392 20.528 32.6876 20.5388L30.5878 20.625C30.3362 20.6358 30.1503 20.8407 30.1612 21.0887C30.1722 21.3152 30.369 21.4985 30.5987 21.5092Z" fill="#192646"/>
<path d="M37.281 21.6386C37.292 21.6386 37.3029 21.6386 37.3139 21.6386L39.4137 21.5524C39.6653 21.5416 39.8512 21.3259 39.8402 21.0887C39.8293 20.8407 39.6215 20.6574 39.37 20.6682L37.2701 20.7544C37.0186 20.7652 36.8326 20.9701 36.8436 21.2181C36.8545 21.4445 37.0404 21.6279 37.281 21.6386Z" fill="#192646"/>
<path d="M43.9525 21.768C43.9634 21.768 43.9743 21.768 43.9853 21.768L46.0851 21.6818C46.3367 21.671 46.5226 21.4553 46.5117 21.2181C46.5007 20.9701 46.2929 20.7868 46.0414 20.7976L43.9415 20.8838C43.69 20.8946 43.5041 21.0995 43.515 21.3475C43.5259 21.5739 43.7228 21.7573 43.9525 21.768Z" fill="#192646"/>
<path d="M57 20.8946C57 20.8407 56.9781 20.776 56.9563 20.7329C56.9563 20.7221 56.9453 20.7221 56.9453 20.7221C56.9234 20.679 56.8906 20.6358 56.8578 20.6035L53.6424 17.5735C53.4565 17.4009 53.1721 17.4117 53.0081 17.5842C52.8331 17.7675 52.844 18.0479 53.019 18.2097L55.4689 20.5172L51.2801 20.6897C51.0285 20.7005 50.8426 20.9054 50.8535 21.1534C50.8645 21.3906 51.0613 21.5739 51.291 21.5739C51.302 21.5739 51.3129 21.5739 51.3238 21.5739L55.5673 21.3906L53.3799 24.054C53.2268 24.2481 53.2596 24.5285 53.4674 24.6794C53.6534 24.8196 53.9268 24.7981 54.0908 24.6147L56.9125 21.1858C56.9344 21.1426 56.9672 21.0995 56.9891 21.0456C56.9781 21.0024 56.9891 20.9485 57 20.8946Z" fill="#192646"/>
<path d="M51.4004 12.5378C51.1816 12.43 50.9082 12.5162 50.7879 12.7319C49.8911 14.4572 49.1802 16.2903 48.4912 18.0587C48.0319 19.234 47.5616 20.4525 47.0366 21.6171C45.4508 25.1647 43.679 27.5154 41.4479 29.025C39.1403 30.5885 35.564 31.3972 32.7751 29.6612C31.3424 28.7662 30.1722 27.1811 29.3956 25.0892C28.9144 23.7845 28.5973 22.3827 28.302 21.0348C28.1707 20.4525 28.0395 19.8594 27.8973 19.2772C26.8474 15.0179 25.1959 11.9124 22.8445 9.78814C19.8479 7.07082 15.5497 6.2621 12.3999 7.80407C9.03142 9.45386 7.47841 13.174 6.18787 16.8294C6.10038 17.0559 6.22068 17.3147 6.45035 17.4009C6.68002 17.4872 6.94251 17.3686 7.03 17.1421C7.03 17.1314 7.03 17.1314 7.04094 17.1206C8.27679 13.6377 9.74231 10.1008 12.8046 8.60201C15.6263 7.22179 19.5088 7.97659 22.2321 10.4459C24.4413 12.4515 26.0053 15.4061 27.0224 19.4928C27.1645 20.0643 27.2958 20.6466 27.4161 21.2289C27.7223 22.6091 28.0395 24.0432 28.5426 25.4019C29.3847 27.6771 30.6862 29.4132 32.2829 30.416C33.4422 31.1277 34.7765 31.5159 36.1436 31.5266C38.2653 31.5698 40.3761 30.8257 41.9401 29.7582C44.3134 28.1516 46.1836 25.6823 47.835 21.9729C48.3709 20.7868 48.8412 19.5575 49.3005 18.3714C49.9786 16.6246 50.6786 14.813 51.5535 13.1416C51.7066 12.926 51.6191 12.6564 51.4004 12.5378Z" fill="#192646"/>
<path d="M43.8759 33.4999C43.679 33.349 43.3947 33.3705 43.2416 33.5646C43.0885 33.7479 43.1103 34.0283 43.2963 34.1793L46.1836 36.5515L36.9967 36.4545L37.0295 34.9988C37.0295 34.7508 36.8326 34.5459 36.5811 34.5459C36.3295 34.5459 36.1327 34.74 36.1217 34.9772L36.0889 36.4329L24.8569 36.3143L24.8897 34.7508C24.9006 34.5027 24.7038 34.2979 24.4522 34.2871C24.2007 34.2763 23.9929 34.4704 23.982 34.7184V34.7292L23.9492 36.3035L11.2297 36.1741L11.2625 34.4812C11.2625 34.2332 11.0657 34.0391 10.8141 34.0283C10.5735 34.0283 10.3657 34.2224 10.3548 34.4596L10.322 36.1525L5.06139 36.0986L5.01764 29.5318L6.84408 29.4994C7.09562 29.4994 7.29248 29.2946 7.29248 29.0466C7.28155 28.7985 7.07375 28.6152 6.83314 28.6045L5.01764 28.6368L4.96296 21.0132L7.01906 20.9701C7.27061 20.9701 7.46747 20.7652 7.46747 20.5172C7.45653 20.2692 7.25967 20.0751 7.00813 20.0751L4.96296 20.1182L4.89733 9.55091L6.80033 9.56169C7.05187 9.56169 7.24874 9.35682 7.24874 9.10881C7.2378 8.8608 7.04094 8.66671 6.78939 8.66671L4.90827 8.69905L4.86452 2.67136L7.52215 5.79843C7.68621 5.98174 7.97056 6.01409 8.15649 5.85234C8.34241 5.6906 8.37522 5.41024 8.21117 5.22693L4.76609 1.16174C4.6786 1.05391 4.54736 1 4.40518 1C4.263 1 4.1427 1.07548 4.05521 1.18331L1.09135 5.12988C0.938232 5.32398 0.981979 5.60434 1.18978 5.7553C1.38664 5.90626 1.67099 5.86313 1.82411 5.65825L3.95677 2.80076L4.17551 36.5731C4.17551 36.8103 4.37237 37.0152 4.62392 37.0152L46.457 37.4357L43.8978 40.2609C43.7337 40.4442 43.7447 40.7245 43.9306 40.8863C44.1165 41.048 44.4009 41.0372 44.5649 40.8539L47.7803 37.2955C47.9444 37.1122 47.9334 36.8319 47.7475 36.6701L47.7366 36.6593L43.8759 33.4999Z" stroke="#192646" stroke-width="0.6" mask="url(#path-1-outside-1_35_1835)"/>
<path d="M10.6063 21.1211L12.7062 21.0348C12.9577 21.024 13.1436 20.8084 13.1327 20.5711C13.1218 20.3339 12.914 20.1398 12.6624 20.1506L10.5626 20.2369C10.311 20.2476 10.1251 20.4525 10.136 20.7005C10.147 20.9377 10.3438 21.1211 10.5735 21.1211C10.5844 21.1211 10.5954 21.1211 10.6063 21.1211Z" stroke="#192646" stroke-width="0.6" mask="url(#path-1-outside-1_35_1835)"/>
<path d="M17.2777 21.2505L19.3776 21.1642C19.6291 21.1534 19.8151 20.9377 19.8041 20.7005C19.7932 20.4633 19.5854 20.2692 19.3338 20.28L17.234 20.3662C16.9824 20.377 16.7965 20.5819 16.8075 20.8299C16.8184 21.0671 17.0153 21.2505 17.2449 21.2505C17.2559 21.2505 17.2668 21.2505 17.2777 21.2505Z" stroke="#192646" stroke-width="0.6" mask="url(#path-1-outside-1_35_1835)"/>
<path d="M23.9601 21.3799L26.0599 21.2936C26.3115 21.2828 26.4974 21.0671 26.4865 20.8299C26.4755 20.5927 26.2677 20.3986 26.0162 20.4094L23.9163 20.4956C23.6648 20.4956 23.4679 20.7005 23.4679 20.9485C23.4679 21.1965 23.6757 21.3906 23.9273 21.3906C23.9382 21.3798 23.9491 21.3799 23.9601 21.3799Z" stroke="#192646" stroke-width="0.6" mask="url(#path-1-outside-1_35_1835)"/>
<path d="M30.5987 21.5092C30.6096 21.5092 30.6206 21.5092 30.6315 21.5092L32.7314 21.423C32.9829 21.4122 33.1688 21.1965 33.1579 20.9593C33.147 20.7113 32.9392 20.528 32.6876 20.5388L30.5878 20.625C30.3362 20.6358 30.1503 20.8407 30.1612 21.0887C30.1722 21.3152 30.369 21.4985 30.5987 21.5092Z" stroke="#192646" stroke-width="0.6" mask="url(#path-1-outside-1_35_1835)"/>
<path d="M37.281 21.6386C37.292 21.6386 37.3029 21.6386 37.3139 21.6386L39.4137 21.5524C39.6653 21.5416 39.8512 21.3259 39.8402 21.0887C39.8293 20.8407 39.6215 20.6574 39.37 20.6682L37.2701 20.7544C37.0186 20.7652 36.8326 20.9701 36.8436 21.2181C36.8545 21.4445 37.0404 21.6279 37.281 21.6386Z" stroke="#192646" stroke-width="0.6" mask="url(#path-1-outside-1_35_1835)"/>
<path d="M43.9525 21.768C43.9634 21.768 43.9743 21.768 43.9853 21.768L46.0851 21.6818C46.3367 21.671 46.5226 21.4553 46.5117 21.2181C46.5007 20.9701 46.2929 20.7868 46.0414 20.7976L43.9415 20.8838C43.69 20.8946 43.5041 21.0995 43.515 21.3475C43.5259 21.5739 43.7228 21.7573 43.9525 21.768Z" stroke="#192646" stroke-width="0.6" mask="url(#path-1-outside-1_35_1835)"/>
<path d="M57 20.8946C57 20.8407 56.9781 20.776 56.9563 20.7329C56.9563 20.7221 56.9453 20.7221 56.9453 20.7221C56.9234 20.679 56.8906 20.6358 56.8578 20.6035L53.6424 17.5735C53.4565 17.4009 53.1721 17.4117 53.0081 17.5842C52.8331 17.7675 52.844 18.0479 53.019 18.2097L55.4689 20.5172L51.2801 20.6897C51.0285 20.7005 50.8426 20.9054 50.8535 21.1534C50.8645 21.3906 51.0613 21.5739 51.291 21.5739C51.302 21.5739 51.3129 21.5739 51.3238 21.5739L55.5673 21.3906L53.3799 24.054C53.2268 24.2481 53.2596 24.5285 53.4674 24.6794C53.6534 24.8196 53.9268 24.7981 54.0908 24.6147L56.9125 21.1858C56.9344 21.1426 56.9672 21.0995 56.9891 21.0456C56.9781 21.0024 56.9891 20.9485 57 20.8946Z" stroke="#192646" stroke-width="0.6" mask="url(#path-1-outside-1_35_1835)"/>
<path d="M51.4004 12.5378C51.1816 12.43 50.9082 12.5162 50.7879 12.7319C49.8911 14.4572 49.1802 16.2903 48.4912 18.0587C48.0319 19.234 47.5616 20.4525 47.0366 21.6171C45.4508 25.1647 43.679 27.5154 41.4479 29.025C39.1403 30.5885 35.564 31.3972 32.7751 29.6612C31.3424 28.7662 30.1722 27.1811 29.3956 25.0892C28.9144 23.7845 28.5973 22.3827 28.302 21.0348C28.1707 20.4525 28.0395 19.8594 27.8973 19.2772C26.8474 15.0179 25.1959 11.9124 22.8445 9.78814C19.8479 7.07082 15.5497 6.2621 12.3999 7.80407C9.03142 9.45386 7.47841 13.174 6.18787 16.8294C6.10038 17.0559 6.22068 17.3147 6.45035 17.4009C6.68002 17.4872 6.94251 17.3686 7.03 17.1421C7.03 17.1314 7.03 17.1314 7.04094 17.1206C8.27679 13.6377 9.74231 10.1008 12.8046 8.60201C15.6263 7.22179 19.5088 7.97659 22.2321 10.4459C24.4413 12.4515 26.0053 15.4061 27.0224 19.4928C27.1645 20.0643 27.2958 20.6466 27.4161 21.2289C27.7223 22.6091 28.0395 24.0432 28.5426 25.4019C29.3847 27.6771 30.6862 29.4132 32.2829 30.416C33.4422 31.1277 34.7765 31.5159 36.1436 31.5266C38.2653 31.5698 40.3761 30.8257 41.9401 29.7582C44.3134 28.1516 46.1836 25.6823 47.835 21.9729C48.3709 20.7868 48.8412 19.5575 49.3005 18.3714C49.9786 16.6246 50.6786 14.813 51.5535 13.1416C51.7066 12.926 51.6191 12.6564 51.4004 12.5378Z" stroke="#192646" stroke-width="0.6" mask="url(#path-1-outside-1_35_1835)"/>
</svg>
