<svg width="39" height="37" viewBox="0 0 39 37" fill="none" xmlns="http://www.w3.org/2000/svg">
<path d="M27.6039 0C26.0844 0 25.0714 1.27586 25.0714 2.55172V5.10345H0.75974C0.253247 5.10345 0 5.35862 0 5.86897C0 6.12414 0.253247 6.63448 0.75974 6.63448H25.0714V9.18621C25.0714 10.7172 26.3377 11.7379 27.6039 11.7379H32.1623C33.6818 11.7379 34.6948 10.4621 34.6948 9.18621V6.63448H38.2403C38.4935 6.63448 39 6.37931 39 5.86897C39 5.61379 38.7468 5.10345 38.2403 5.10345H34.6948V2.55172C34.6948 1.02069 33.6818 0 32.1623 0H27.6039ZM27.6039 1.27586H32.1623C32.9221 1.27586 33.4286 1.78621 33.4286 2.55172V8.93103C33.4286 9.69655 32.9221 10.2069 32.1623 10.2069H27.6039C26.8442 10.2069 26.3377 9.69655 26.3377 8.93103V2.55172C26.3377 1.78621 26.8442 1.27586 27.6039 1.27586ZM10.6364 13.7793C9.11688 13.7793 8.1039 15.0552 8.1039 16.331V18.8828H0.506494C0.253247 18.8828 0 19.3931 0 19.6483C0 20.1586 0.253247 20.4138 0.75974 20.4138H8.35714V22.9655C8.35714 24.4965 9.62338 25.5172 10.8896 25.5172H15.1948C16.7143 25.5172 17.7273 24.2414 17.7273 22.9655V20.4138H38.2403C38.4935 20.4138 39 20.1586 39 19.6483C39 19.3931 38.7468 18.8828 38.2403 18.8828H17.7273V16.331C17.7273 14.8 16.461 13.7793 15.1948 13.7793H10.6364ZM10.6364 15.3103H15.1948C15.9545 15.3103 16.461 15.8207 16.461 16.5862V22.9655C16.461 23.731 15.9545 24.2414 15.1948 24.2414H10.6364C10.1299 23.9862 9.62338 23.4759 9.62338 22.9655V16.5862C9.62338 15.8207 10.1299 15.3103 10.6364 15.3103ZM27.6039 25.2621C26.0844 25.2621 25.0714 26.5379 25.0714 27.8138V30.3655H0.75974C0.253247 30.3655 0 30.6207 0 31.131C0 31.3862 0.253247 31.8965 0.75974 31.8965H25.0714V34.4483C25.0714 35.9793 26.3377 37 27.6039 37H32.1623C33.6818 37 34.6948 35.7241 34.6948 34.4483V31.8965H38.2403C38.4935 31.8965 39 31.6414 39 31.131C39 30.8759 38.7468 30.3655 38.2403 30.3655H34.6948V27.8138C34.6948 26.2828 33.6818 25.2621 32.1623 25.2621H27.6039ZM27.6039 26.5379H32.1623C32.9221 26.5379 33.4286 27.0483 33.4286 27.8138V34.1931C33.4286 34.9586 32.9221 35.469 32.1623 35.469H27.6039C26.8442 35.469 26.3377 34.9586 26.3377 34.1931V27.8138C26.3377 27.0483 26.8442 26.5379 27.6039 26.5379Z" fill="#192646"/>
</svg>
