<!-- Generated by IcoMoon.io -->
<svg version="1.1" xmlns="http://www.w3.org/2000/svg" width="1024" height="1024" viewBox="0 0 1024 1024">
<g id="icomoon-ignore">
</g>
<path fill="#000" d="M593.211 872.141v32.12c0 20.126 16.803 36.592 37.339 36.592h147.488c20.537 0 37.339-16.467 37.339-36.592v-32.12c0-20.126-16.801-36.592-37.339-36.592h-147.488c-20.535 0-37.339 16.467-37.339 36.592zM790.483 872.141v32.12c0 6.709-5.6 12.197-12.446 12.197h-147.488c-6.845 0-12.446-5.488-12.446-12.197v-32.12c0-6.709 5.6-12.197 12.446-12.197h147.488c7.052 0 12.446 5.488 12.446 12.197z"></path>
<path fill="#000" d="M461.282 474.906c65.963 4.88 110.149-66.68 75.506-121.771v-180.118c0-37.812-31.323-68.51-69.906-68.51s-69.906 30.697-69.906 68.51v180.321c-32.154 50.011 3.94 118.112 64.305 121.568zM423.528 365.535c1.66-2.44 2.489-5.285 2.489-8.131v-184.387c0-21.956 18.255-40.049 40.865-40.049s40.865 17.89 40.865 40.049v184.59c0 2.846 0.829 5.693 2.489 8.131 14.935 20.33 11.616 50.418-7.261 67.291-47.504 40.659-113.883-15.653-79.449-67.493z"></path>
<path fill="#000" d="M466.883 413.716c8.090 0 14.521-6.304 14.521-14.232v-219.149c0-7.929-6.432-14.23-14.521-14.23s-14.521 6.302-14.521 14.23v219.149c0 7.928 6.432 14.232 14.521 14.232z"></path>
<path fill="#000" d="M572.054 156.753h27.173c8.090 0 14.521-6.302 14.521-14.23s-6.432-14.231-14.521-14.231h-27.173c-19.086 0.61-19.086 27.851 0 28.461z"></path>
<path fill="#000" d="M572.054 224.857h52.273c8.090 0 14.521-6.304 14.521-14.232s-6.432-14.23-14.521-14.23h-52.066c-19.293 0.611-19.293 27.648-0.207 28.461z"></path>
<path fill="#000" d="M572.054 292.959h27.173c8.090 0 14.521-6.302 14.521-14.23s-6.432-14.23-14.521-14.23h-27.173c-19.086 0.608-19.086 27.646 0 28.459z"></path>
<path fill="#000" d="M572.054 360.86h52.273c8.090 0 14.521-6.304 14.521-14.232s-6.432-14.23-14.521-14.23h-52.066c-19.293 0.813-19.293 27.851-0.207 28.461z"></path>
<path fill="#000" d="M907.685 445.023h-146.243c125.29-188.249-18.67-447.244-249.547-445.008-231.499-1.423-374.629 255.946-249.545 445.008h-146.243c-20.536 0-37.339 16.467-37.339 36.592v61.395c0 20.328 17.217 37 37.961 36.592v407.806c0 20.126 16.802 36.592 37.339 36.592h715.863c20.537 0 37.339-16.467 37.339-36.592v-407.806c20.744 0.408 37.961-16.264 37.961-36.592v-61.395c-0.207-20.126-17.010-36.592-37.545-36.592zM511.896 646.689c-2.28 0-4.563 0.608-6.43 1.829l-53.933 32.323-53.933-32.323c-3.942-2.44-8.921-2.44-12.861 0l-41.488 24.8v-145.558c99.984 68.917 237.722 68.917 337.705 0v145.558l-41.486-24.8c-3.942-2.44-8.921-2.44-12.861 0l-53.933 32.323-53.933-32.323c-2.282-1.221-4.565-1.829-6.847-1.829zM511.896 24.41c149.354 0 270.913 119.129 270.913 265.501 0.622 138.848-110.771 253.099-246.642 264.281-15.972 1.422-32.36 1.422-48.333 0-135.871-11.181-247.264-125.432-246.642-264.281 0-146.371 121.349-265.501 270.704-265.501zM103.662 543.009v-61.395c0-6.709 5.601-12.197 12.446-12.197h163.667c11.41 14.23 24.271 27.445 38.376 39.235v46.555h-202.043c-6.845 0-12.446-5.488-12.446-12.197zM882.17 987.408c0 6.707-5.6 12.197-12.446 12.197h-715.656c-6.845 0-12.446-5.49-12.446-12.197v-407.806h176.529v115.267c0 4.472 2.489 8.539 6.43 10.571 3.942 2.237 8.714 2.034 12.654-0.203l53.933-32.323 53.933 32.323c2.076 1.221 4.149 1.829 6.432 1.829 2.28 0 4.563-0.608 6.43-1.829l53.933-32.323 53.933 32.323c2.076 1.221 4.149 1.829 6.432 1.829s4.563-0.608 6.43-1.829l53.933-32.323 53.935 32.323c3.94 2.237 8.712 2.44 12.652 0.203 3.942-2.235 6.432-6.302 6.432-10.571v-115.267h176.528v407.806zM920.131 543.009c0 6.709-5.6 12.197-12.446 12.197h-202.043v-46.555c13.897-11.79 26.758-25.005 38.374-39.235h163.669c6.845 0 12.446 5.488 12.446 12.197v61.395z"></path>
</svg>
