<svg width="60" height="52" viewBox="0 0 60 52" fill="none" xmlns="http://www.w3.org/2000/svg">
<path d="M39.9939 16.5189L39.9834 16.5294L39.9752 16.5418C39.7408 16.8933 39.7369 17.474 40.0939 17.8311C40.202 17.9392 40.2965 18.0069 40.4026 18.0423C40.501 18.0751 40.5978 18.0751 40.6893 18.075L40.7 18.075C40.9424 18.075 41.1798 17.9573 41.3061 17.8311C42.4329 16.7042 43.15 15.0665 43.15 13.425C43.15 11.7853 42.5343 10.2471 41.3061 9.01893C40.9475 8.66036 40.3525 8.66036 39.9939 9.01893C39.6354 9.37751 39.6354 9.97249 39.9939 10.3311C40.8634 11.2005 41.25 12.2612 41.25 13.425C41.25 14.5862 40.7651 15.7477 39.9939 16.5189ZM54.1 49.075H35.75V35.025C35.75 32.5422 33.7828 30.575 31.3 30.575H28.85V19.8556C31.9586 19.391 34.35 16.758 34.35 13.525C34.35 9.94216 31.4828 7.075 27.9 7.075C24.3156 7.075 21.55 9.94374 21.55 13.425C21.55 16.6525 23.9361 19.3876 27.05 19.7596V30.575H24.6C22.1172 30.575 20.15 32.5422 20.15 35.025V48.975H1.8C1.32971 48.975 0.85 49.3301 0.85 49.925C0.85 50.2051 0.934612 50.4467 1.10643 50.6186C1.27826 50.7904 1.51992 50.875 1.8 50.875H54C54.4703 50.875 54.95 50.5199 54.95 49.925C54.95 49.6442 54.8647 49.4239 54.7003 49.276C54.5388 49.1306 54.3229 49.075 54.1 49.075ZM23.35 13.425C23.35 10.9058 25.3849 8.775 28 8.775C30.611 8.775 32.55 10.9016 32.55 13.425C32.55 15.9442 30.5151 18.075 27.9 18.075C25.287 18.075 23.35 16.0463 23.35 13.425ZM21.95 35.025C21.95 33.6078 23.1828 32.375 24.6 32.375H31.2C32.6172 32.375 33.85 33.6078 33.85 35.025V48.975H21.95V35.025ZM46.4939 21.2311C46.6202 21.3573 46.8576 21.475 47.1 21.475C47.3424 21.475 47.5798 21.3573 47.7061 21.2311C49.7336 19.2036 50.95 16.3657 50.95 13.425C50.95 10.4864 49.835 7.7479 47.8061 5.71893C47.4475 5.36036 46.8525 5.36036 46.4939 5.71893C46.1354 6.07751 46.1354 6.67249 46.4939 7.03107C48.2645 8.80167 49.15 11.063 49.15 13.525C49.15 15.9781 48.1712 18.2376 46.5018 20.0105C46.3113 20.1457 46.225 20.3678 46.225 20.5875C46.225 20.8134 46.3148 21.052 46.4939 21.2311ZM52.8939 25.9311C53.0202 26.0573 53.2576 26.175 53.5 26.175C53.7424 26.175 53.9798 26.0573 54.1061 25.9311C57.4343 22.6028 59.25 18.1646 59.25 13.525C59.25 8.78495 57.434 4.44687 54.1061 1.11893C53.7475 0.760355 53.1525 0.760355 52.7939 1.11893C52.6105 1.30232 52.5448 1.52447 52.5765 1.74621C52.6073 1.96182 52.7279 2.16501 52.8939 2.33107C55.8663 5.30347 57.55 9.26553 57.55 13.525C57.55 17.7781 55.8712 21.6375 52.9026 24.7099C52.7115 24.8451 52.625 25.0675 52.625 25.2875C52.625 25.5134 52.7148 25.752 52.8939 25.9311Z" fill="#192646" stroke="#192646" stroke-width="0.3"/>
</svg>
