<svg width="52" height="56" viewBox="0 0 52 56" fill="none" xmlns="http://www.w3.org/2000/svg">
<mask id="path-1-outside-1_115_1040" maskUnits="userSpaceOnUse" x="0" y="0" width="52" height="56" fill="black">
<rect fill="white" width="52" height="56"/>
<path d="M25.7487 49.2049C25.3489 49.2049 25.0824 49.4683 25.0824 49.8634V52.1683C25.0824 52.5634 25.3489 52.8268 25.7487 52.8268C26.1484 52.8268 26.4149 52.5634 26.4149 52.1683V49.8634C26.4149 49.4683 26.0818 49.2049 25.7487 49.2049Z"/>
<path d="M25.7487 11.8C26.1484 11.8 26.4149 11.5366 26.4149 11.1415V9.16585C26.4149 8.77073 26.1484 8.50732 25.7487 8.50732C25.3489 8.50732 25.0824 8.77073 25.0824 9.16585V11.1415C25.0824 11.4707 25.3489 11.8 25.7487 11.8Z"/>
<path d="M40.0067 43.8049C39.7402 43.5415 39.2738 43.6073 39.0739 43.8707C38.874 44.1341 38.874 44.4634 39.0739 44.7268L40.6729 46.3073C40.9395 46.5707 41.4058 46.5049 41.6057 46.2415C41.8056 45.9781 41.8056 45.6488 41.6057 45.3854L40.0067 43.8049Z"/>
<path d="M11.3574 17.3976C11.6239 17.661 12.0903 17.5951 12.2902 17.3317C12.4901 17.0683 12.4901 16.739 12.2902 16.4756L10.8244 15.0268C10.5579 14.7634 10.0915 14.8293 9.89165 15.0927C9.69178 15.3561 9.69178 15.6854 9.89165 15.9488L11.3574 17.3976Z"/>
<path d="M44.7371 30.6341C44.7371 31.0293 45.0036 31.2927 45.4034 31.2927H47.5354C47.9352 31.2927 48.2017 31.0293 48.2017 30.6341C48.2017 30.239 47.9352 29.9756 47.5354 29.9756H45.4034C45.0036 29.9756 44.7371 30.239 44.7371 30.6341Z"/>
<path d="M6.89348 30.6341C6.89348 30.239 6.62697 29.9756 6.22722 29.9756H3.96193C3.56217 29.9756 3.29566 30.239 3.29566 30.6341C3.29566 31.0293 3.56217 31.2927 3.96193 31.2927H6.22722C6.56035 31.2927 6.82685 31.0293 6.89348 30.6341Z"/>
<path d="M40.6063 14.961L39.2072 16.3439C38.9407 16.6073 38.874 17.0024 39.1405 17.2659C39.4071 17.5293 39.8068 17.5951 40.0733 17.3317L41.5391 15.8829C41.8056 15.6195 41.739 15.1585 41.4725 14.961C41.2726 14.7634 40.9395 14.7634 40.6063 14.961Z"/>
<path d="M11.4907 43.739L9.82503 45.3854C9.55852 45.6488 9.4919 46.0439 9.7584 46.3073C10.0249 46.5707 10.4247 46.6366 10.6912 46.3732L12.4235 44.661C12.69 44.3976 12.6233 43.9366 12.3568 43.739C12.1569 43.5415 11.7572 43.5415 11.4907 43.739Z"/>
<path d="M18.4864 47.7561C18.1533 47.6244 17.7535 47.7561 17.6203 48.0854L16.6875 50.2585C16.5543 50.5878 16.6875 50.9829 17.0207 51.1146C17.3538 51.2463 17.7535 51.1146 17.8868 50.7854L18.8196 48.6122C18.9528 48.2829 18.8196 47.8878 18.4864 47.7561Z"/>
<path d="M33.0776 13.1829C33.4107 13.3146 33.8105 13.1829 33.9437 12.8537L34.6766 11.0756C34.8098 10.7463 34.6766 10.3512 34.3435 10.2195C34.0103 10.0878 33.6106 10.2195 33.4773 10.5488L32.7444 12.3268C32.6112 12.6561 32.7444 13.0512 33.0776 13.1829Z"/>
<path d="M33.7438 48.2171C33.6106 47.8878 33.2108 47.6902 32.8777 47.8878C32.5446 48.0854 32.3447 48.4146 32.5446 48.7439L33.4107 50.8512C33.5439 51.1805 33.8771 51.378 34.2102 51.3122C34.5433 51.1805 34.7432 50.8512 34.6766 50.5219C34.6766 50.4561 34.6766 50.4561 34.61 50.3902L33.7438 48.2171Z"/>
<path d="M18.0867 10.4829C17.9534 10.1537 17.5537 9.9561 17.2205 10.1537C16.8874 10.3512 16.6875 10.6805 16.8874 11.0098L17.6869 12.8537C17.8202 13.1829 18.2199 13.3805 18.5531 13.1829C18.8862 13.0512 19.0861 12.6561 18.8862 12.3268L18.0867 10.4829Z"/>
<path d="M43.5379 38.7341L45.5367 39.5244C45.8698 39.6561 46.2695 39.5244 46.4028 39.1951C46.536 38.8659 46.4028 38.4707 46.0697 38.339L44.0709 37.5488C43.7377 37.4171 43.338 37.5488 43.2047 37.8781C43.0715 38.2073 43.2047 38.6024 43.5379 38.7341Z"/>
<path d="M5.36108 22.9293L7.35986 23.7195C7.69299 23.8512 8.09275 23.7195 8.226 23.3902C8.35925 23.061 8.226 22.6659 7.89287 22.5341L5.89408 21.7439C5.56095 21.6122 5.1612 21.7439 5.02794 22.0732C4.89469 22.4024 5.09457 22.7976 5.36108 22.9293Z"/>
<path d="M43.9376 23.9171C44.0043 23.9171 44.1375 23.9171 44.2041 23.8512L46.0697 23.061C46.4028 22.9293 46.6027 22.5341 46.4028 22.2049C46.2029 21.8756 45.8698 21.6781 45.5367 21.8756L43.6711 22.6659C43.338 22.7976 43.1381 23.1927 43.2714 23.522C43.4712 23.7195 43.6711 23.9171 43.9376 23.9171Z"/>
<path d="M7.42649 37.3512L5.29445 38.2073C4.96132 38.339 4.82807 38.7341 4.96132 39.0634C5.09457 39.3268 5.29445 39.4585 5.56095 39.4585C5.62758 39.4585 5.76083 39.4585 5.82746 39.3927L7.89287 38.5366C8.226 38.4049 8.42588 38.0098 8.226 37.6805C8.15937 37.3512 7.75962 37.1537 7.42649 37.3512Z"/>
<path d="M48.0018 16.0805C48.2683 16.3439 48.6681 16.3439 48.9346 16.0805L50.8001 14.1707C51.0666 13.9073 51.0666 13.5122 50.8001 13.2488L44.8038 7.32195C44.5373 7.05854 44.1375 7.05854 43.871 7.32195L41.9388 9.16585C41.6723 9.42927 41.6723 9.82439 41.9388 10.0878L43.4046 11.5366L42.3386 12.6561C38.341 9.03415 33.2774 6.86098 27.9473 6.4V4.95122H30.0128C30.4125 4.95122 30.679 4.6878 30.679 4.29268V1.65854C30.679 1.26341 30.4125 1 30.0128 1H21.4846C21.0849 1 20.8183 1.26341 20.8183 1.65854V4.29268C20.8183 4.6878 21.0849 4.95122 21.4846 4.95122H23.55V6.4C9.95828 7.58537 -0.102271 19.3732 1.097 32.8073C1.63001 38.6683 4.29506 44.1341 8.55913 48.2171C13.223 52.5634 19.3526 55 25.6821 55H26.1484C39.7402 54.7366 50.6002 43.6073 50.3337 30.1732C50.2671 24.9707 48.4682 19.9659 45.2702 15.8171L46.536 14.5659L48.0018 16.0805ZM22.1509 2.31707H29.3465V3.63415H22.1509V2.31707ZM24.8159 4.95122H26.5482V6.26829C26.0818 6.26829 25.6821 6.26829 25.2157 6.26829H24.8159V4.95122ZM42.5385 46.6366C33.6106 55.7902 18.8196 56.0537 9.55852 47.2293C0.297486 38.4049 0.0309812 23.7854 8.95889 14.6317C13.223 10.2195 19.0861 7.71707 25.2823 7.58537H25.6821C38.5409 7.58537 49.0012 17.8585 49.0012 30.6341C49.0678 36.561 46.7359 42.3561 42.5385 46.6366ZM44.4706 14.8293C44.0709 14.3683 43.6711 13.9732 43.2714 13.578L44.404 12.5244L45.6033 13.7756L44.4706 14.8293ZM44.3374 8.70488L49.401 13.7098L48.4682 14.6317L43.4046 9.62683L44.3374 8.70488Z"/>
<path d="M36.3422 19.1756L27.7475 27.7366C26.0818 26.6171 23.8832 27.0122 22.7505 28.5927C21.6179 30.239 22.0176 32.4122 23.6166 33.5317C25.2823 34.6512 27.481 34.2561 28.6136 32.6756C29.4798 31.4902 29.4797 29.9098 28.6802 28.6585L37.275 20.0976C37.5415 19.8341 37.6081 19.439 37.3416 19.1756C37.0751 18.9122 36.6754 18.8463 36.4089 19.1098C36.4089 19.1098 36.4089 19.1756 36.3422 19.1756ZM25.6821 32.8732C24.4162 32.8732 23.4168 31.8854 23.4168 30.6341C23.4168 29.3829 24.4162 28.3951 25.6821 28.3951C26.2817 28.3951 26.8813 28.6585 27.2811 29.0537C28.1472 29.9098 28.1472 31.3585 27.2811 32.2146C26.8813 32.6098 26.2817 32.8732 25.6821 32.8732Z"/>
</mask>
<path d="M25.7487 49.2049C25.3489 49.2049 25.0824 49.4683 25.0824 49.8634V52.1683C25.0824 52.5634 25.3489 52.8268 25.7487 52.8268C26.1484 52.8268 26.4149 52.5634 26.4149 52.1683V49.8634C26.4149 49.4683 26.0818 49.2049 25.7487 49.2049Z" fill="#192646"/>
<path d="M25.7487 11.8C26.1484 11.8 26.4149 11.5366 26.4149 11.1415V9.16585C26.4149 8.77073 26.1484 8.50732 25.7487 8.50732C25.3489 8.50732 25.0824 8.77073 25.0824 9.16585V11.1415C25.0824 11.4707 25.3489 11.8 25.7487 11.8Z" fill="#192646"/>
<path d="M40.0067 43.8049C39.7402 43.5415 39.2738 43.6073 39.0739 43.8707C38.874 44.1341 38.874 44.4634 39.0739 44.7268L40.6729 46.3073C40.9395 46.5707 41.4058 46.5049 41.6057 46.2415C41.8056 45.9781 41.8056 45.6488 41.6057 45.3854L40.0067 43.8049Z" fill="#192646"/>
<path d="M11.3574 17.3976C11.6239 17.661 12.0903 17.5951 12.2902 17.3317C12.4901 17.0683 12.4901 16.739 12.2902 16.4756L10.8244 15.0268C10.5579 14.7634 10.0915 14.8293 9.89165 15.0927C9.69178 15.3561 9.69178 15.6854 9.89165 15.9488L11.3574 17.3976Z" fill="#192646"/>
<path d="M44.7371 30.6341C44.7371 31.0293 45.0036 31.2927 45.4034 31.2927H47.5354C47.9352 31.2927 48.2017 31.0293 48.2017 30.6341C48.2017 30.239 47.9352 29.9756 47.5354 29.9756H45.4034C45.0036 29.9756 44.7371 30.239 44.7371 30.6341Z" fill="#192646"/>
<path d="M6.89348 30.6341C6.89348 30.239 6.62697 29.9756 6.22722 29.9756H3.96193C3.56217 29.9756 3.29566 30.239 3.29566 30.6341C3.29566 31.0293 3.56217 31.2927 3.96193 31.2927H6.22722C6.56035 31.2927 6.82685 31.0293 6.89348 30.6341Z" fill="#192646"/>
<path d="M40.6063 14.961L39.2072 16.3439C38.9407 16.6073 38.874 17.0024 39.1405 17.2659C39.4071 17.5293 39.8068 17.5951 40.0733 17.3317L41.5391 15.8829C41.8056 15.6195 41.739 15.1585 41.4725 14.961C41.2726 14.7634 40.9395 14.7634 40.6063 14.961Z" fill="#192646"/>
<path d="M11.4907 43.739L9.82503 45.3854C9.55852 45.6488 9.4919 46.0439 9.7584 46.3073C10.0249 46.5707 10.4247 46.6366 10.6912 46.3732L12.4235 44.661C12.69 44.3976 12.6233 43.9366 12.3568 43.739C12.1569 43.5415 11.7572 43.5415 11.4907 43.739Z" fill="#192646"/>
<path d="M18.4864 47.7561C18.1533 47.6244 17.7535 47.7561 17.6203 48.0854L16.6875 50.2585C16.5543 50.5878 16.6875 50.9829 17.0207 51.1146C17.3538 51.2463 17.7535 51.1146 17.8868 50.7854L18.8196 48.6122C18.9528 48.2829 18.8196 47.8878 18.4864 47.7561Z" fill="#192646"/>
<path d="M33.0776 13.1829C33.4107 13.3146 33.8105 13.1829 33.9437 12.8537L34.6766 11.0756C34.8098 10.7463 34.6766 10.3512 34.3435 10.2195C34.0103 10.0878 33.6106 10.2195 33.4773 10.5488L32.7444 12.3268C32.6112 12.6561 32.7444 13.0512 33.0776 13.1829Z" fill="#192646"/>
<path d="M33.7438 48.2171C33.6106 47.8878 33.2108 47.6902 32.8777 47.8878C32.5446 48.0854 32.3447 48.4146 32.5446 48.7439L33.4107 50.8512C33.5439 51.1805 33.8771 51.378 34.2102 51.3122C34.5433 51.1805 34.7432 50.8512 34.6766 50.5219C34.6766 50.4561 34.6766 50.4561 34.61 50.3902L33.7438 48.2171Z" fill="#192646"/>
<path d="M18.0867 10.4829C17.9534 10.1537 17.5537 9.9561 17.2205 10.1537C16.8874 10.3512 16.6875 10.6805 16.8874 11.0098L17.6869 12.8537C17.8202 13.1829 18.2199 13.3805 18.5531 13.1829C18.8862 13.0512 19.0861 12.6561 18.8862 12.3268L18.0867 10.4829Z" fill="#192646"/>
<path d="M43.5379 38.7341L45.5367 39.5244C45.8698 39.6561 46.2695 39.5244 46.4028 39.1951C46.536 38.8659 46.4028 38.4707 46.0697 38.339L44.0709 37.5488C43.7377 37.4171 43.338 37.5488 43.2047 37.8781C43.0715 38.2073 43.2047 38.6024 43.5379 38.7341Z" fill="#192646"/>
<path d="M5.36108 22.9293L7.35986 23.7195C7.69299 23.8512 8.09275 23.7195 8.226 23.3902C8.35925 23.061 8.226 22.6659 7.89287 22.5341L5.89408 21.7439C5.56095 21.6122 5.1612 21.7439 5.02794 22.0732C4.89469 22.4024 5.09457 22.7976 5.36108 22.9293Z" fill="#192646"/>
<path d="M43.9376 23.9171C44.0043 23.9171 44.1375 23.9171 44.2041 23.8512L46.0697 23.061C46.4028 22.9293 46.6027 22.5341 46.4028 22.2049C46.2029 21.8756 45.8698 21.6781 45.5367 21.8756L43.6711 22.6659C43.338 22.7976 43.1381 23.1927 43.2714 23.522C43.4712 23.7195 43.6711 23.9171 43.9376 23.9171Z" fill="#192646"/>
<path d="M7.42649 37.3512L5.29445 38.2073C4.96132 38.339 4.82807 38.7341 4.96132 39.0634C5.09457 39.3268 5.29445 39.4585 5.56095 39.4585C5.62758 39.4585 5.76083 39.4585 5.82746 39.3927L7.89287 38.5366C8.226 38.4049 8.42588 38.0098 8.226 37.6805C8.15937 37.3512 7.75962 37.1537 7.42649 37.3512Z" fill="#192646"/>
<path d="M48.0018 16.0805C48.2683 16.3439 48.6681 16.3439 48.9346 16.0805L50.8001 14.1707C51.0666 13.9073 51.0666 13.5122 50.8001 13.2488L44.8038 7.32195C44.5373 7.05854 44.1375 7.05854 43.871 7.32195L41.9388 9.16585C41.6723 9.42927 41.6723 9.82439 41.9388 10.0878L43.4046 11.5366L42.3386 12.6561C38.341 9.03415 33.2774 6.86098 27.9473 6.4V4.95122H30.0128C30.4125 4.95122 30.679 4.6878 30.679 4.29268V1.65854C30.679 1.26341 30.4125 1 30.0128 1H21.4846C21.0849 1 20.8183 1.26341 20.8183 1.65854V4.29268C20.8183 4.6878 21.0849 4.95122 21.4846 4.95122H23.55V6.4C9.95828 7.58537 -0.102271 19.3732 1.097 32.8073C1.63001 38.6683 4.29506 44.1341 8.55913 48.2171C13.223 52.5634 19.3526 55 25.6821 55H26.1484C39.7402 54.7366 50.6002 43.6073 50.3337 30.1732C50.2671 24.9707 48.4682 19.9659 45.2702 15.8171L46.536 14.5659L48.0018 16.0805ZM22.1509 2.31707H29.3465V3.63415H22.1509V2.31707ZM24.8159 4.95122H26.5482V6.26829C26.0818 6.26829 25.6821 6.26829 25.2157 6.26829H24.8159V4.95122ZM42.5385 46.6366C33.6106 55.7902 18.8196 56.0537 9.55852 47.2293C0.297486 38.4049 0.0309812 23.7854 8.95889 14.6317C13.223 10.2195 19.0861 7.71707 25.2823 7.58537H25.6821C38.5409 7.58537 49.0012 17.8585 49.0012 30.6341C49.0678 36.561 46.7359 42.3561 42.5385 46.6366ZM44.4706 14.8293C44.0709 14.3683 43.6711 13.9732 43.2714 13.578L44.404 12.5244L45.6033 13.7756L44.4706 14.8293ZM44.3374 8.70488L49.401 13.7098L48.4682 14.6317L43.4046 9.62683L44.3374 8.70488Z" fill="#192646"/>
<path d="M36.3422 19.1756L27.7475 27.7366C26.0818 26.6171 23.8832 27.0122 22.7505 28.5927C21.6179 30.239 22.0176 32.4122 23.6166 33.5317C25.2823 34.6512 27.481 34.2561 28.6136 32.6756C29.4798 31.4902 29.4797 29.9098 28.6802 28.6585L37.275 20.0976C37.5415 19.8341 37.6081 19.439 37.3416 19.1756C37.0751 18.9122 36.6754 18.8463 36.4089 19.1098C36.4089 19.1098 36.4089 19.1756 36.3422 19.1756ZM25.6821 32.8732C24.4162 32.8732 23.4168 31.8854 23.4168 30.6341C23.4168 29.3829 24.4162 28.3951 25.6821 28.3951C26.2817 28.3951 26.8813 28.6585 27.2811 29.0537C28.1472 29.9098 28.1472 31.3585 27.2811 32.2146C26.8813 32.6098 26.2817 32.8732 25.6821 32.8732Z" fill="#192646"/>
<path d="M25.7487 49.2049C25.3489 49.2049 25.0824 49.4683 25.0824 49.8634V52.1683C25.0824 52.5634 25.3489 52.8268 25.7487 52.8268C26.1484 52.8268 26.4149 52.5634 26.4149 52.1683V49.8634C26.4149 49.4683 26.0818 49.2049 25.7487 49.2049Z" stroke="#192646" stroke-width="0.6" mask="url(#path-1-outside-1_115_1040)"/>
<path d="M25.7487 11.8C26.1484 11.8 26.4149 11.5366 26.4149 11.1415V9.16585C26.4149 8.77073 26.1484 8.50732 25.7487 8.50732C25.3489 8.50732 25.0824 8.77073 25.0824 9.16585V11.1415C25.0824 11.4707 25.3489 11.8 25.7487 11.8Z" stroke="#192646" stroke-width="0.6" mask="url(#path-1-outside-1_115_1040)"/>
<path d="M40.0067 43.8049C39.7402 43.5415 39.2738 43.6073 39.0739 43.8707C38.874 44.1341 38.874 44.4634 39.0739 44.7268L40.6729 46.3073C40.9395 46.5707 41.4058 46.5049 41.6057 46.2415C41.8056 45.9781 41.8056 45.6488 41.6057 45.3854L40.0067 43.8049Z" stroke="#192646" stroke-width="0.6" mask="url(#path-1-outside-1_115_1040)"/>
<path d="M11.3574 17.3976C11.6239 17.661 12.0903 17.5951 12.2902 17.3317C12.4901 17.0683 12.4901 16.739 12.2902 16.4756L10.8244 15.0268C10.5579 14.7634 10.0915 14.8293 9.89165 15.0927C9.69178 15.3561 9.69178 15.6854 9.89165 15.9488L11.3574 17.3976Z" stroke="#192646" stroke-width="0.6" mask="url(#path-1-outside-1_115_1040)"/>
<path d="M44.7371 30.6341C44.7371 31.0293 45.0036 31.2927 45.4034 31.2927H47.5354C47.9352 31.2927 48.2017 31.0293 48.2017 30.6341C48.2017 30.239 47.9352 29.9756 47.5354 29.9756H45.4034C45.0036 29.9756 44.7371 30.239 44.7371 30.6341Z" stroke="#192646" stroke-width="0.6" mask="url(#path-1-outside-1_115_1040)"/>
<path d="M6.89348 30.6341C6.89348 30.239 6.62697 29.9756 6.22722 29.9756H3.96193C3.56217 29.9756 3.29566 30.239 3.29566 30.6341C3.29566 31.0293 3.56217 31.2927 3.96193 31.2927H6.22722C6.56035 31.2927 6.82685 31.0293 6.89348 30.6341Z" stroke="#192646" stroke-width="0.6" mask="url(#path-1-outside-1_115_1040)"/>
<path d="M40.6063 14.961L39.2072 16.3439C38.9407 16.6073 38.874 17.0024 39.1405 17.2659C39.4071 17.5293 39.8068 17.5951 40.0733 17.3317L41.5391 15.8829C41.8056 15.6195 41.739 15.1585 41.4725 14.961C41.2726 14.7634 40.9395 14.7634 40.6063 14.961Z" stroke="#192646" stroke-width="0.6" mask="url(#path-1-outside-1_115_1040)"/>
<path d="M11.4907 43.739L9.82503 45.3854C9.55852 45.6488 9.4919 46.0439 9.7584 46.3073C10.0249 46.5707 10.4247 46.6366 10.6912 46.3732L12.4235 44.661C12.69 44.3976 12.6233 43.9366 12.3568 43.739C12.1569 43.5415 11.7572 43.5415 11.4907 43.739Z" stroke="#192646" stroke-width="0.6" mask="url(#path-1-outside-1_115_1040)"/>
<path d="M18.4864 47.7561C18.1533 47.6244 17.7535 47.7561 17.6203 48.0854L16.6875 50.2585C16.5543 50.5878 16.6875 50.9829 17.0207 51.1146C17.3538 51.2463 17.7535 51.1146 17.8868 50.7854L18.8196 48.6122C18.9528 48.2829 18.8196 47.8878 18.4864 47.7561Z" stroke="#192646" stroke-width="0.6" mask="url(#path-1-outside-1_115_1040)"/>
<path d="M33.0776 13.1829C33.4107 13.3146 33.8105 13.1829 33.9437 12.8537L34.6766 11.0756C34.8098 10.7463 34.6766 10.3512 34.3435 10.2195C34.0103 10.0878 33.6106 10.2195 33.4773 10.5488L32.7444 12.3268C32.6112 12.6561 32.7444 13.0512 33.0776 13.1829Z" stroke="#192646" stroke-width="0.6" mask="url(#path-1-outside-1_115_1040)"/>
<path d="M33.7438 48.2171C33.6106 47.8878 33.2108 47.6902 32.8777 47.8878C32.5446 48.0854 32.3447 48.4146 32.5446 48.7439L33.4107 50.8512C33.5439 51.1805 33.8771 51.378 34.2102 51.3122C34.5433 51.1805 34.7432 50.8512 34.6766 50.5219C34.6766 50.4561 34.6766 50.4561 34.61 50.3902L33.7438 48.2171Z" stroke="#192646" stroke-width="0.6" mask="url(#path-1-outside-1_115_1040)"/>
<path d="M18.0867 10.4829C17.9534 10.1537 17.5537 9.9561 17.2205 10.1537C16.8874 10.3512 16.6875 10.6805 16.8874 11.0098L17.6869 12.8537C17.8202 13.1829 18.2199 13.3805 18.5531 13.1829C18.8862 13.0512 19.0861 12.6561 18.8862 12.3268L18.0867 10.4829Z" stroke="#192646" stroke-width="0.6" mask="url(#path-1-outside-1_115_1040)"/>
<path d="M43.5379 38.7341L45.5367 39.5244C45.8698 39.6561 46.2695 39.5244 46.4028 39.1951C46.536 38.8659 46.4028 38.4707 46.0697 38.339L44.0709 37.5488C43.7377 37.4171 43.338 37.5488 43.2047 37.8781C43.0715 38.2073 43.2047 38.6024 43.5379 38.7341Z" stroke="#192646" stroke-width="0.6" mask="url(#path-1-outside-1_115_1040)"/>
<path d="M5.36108 22.9293L7.35986 23.7195C7.69299 23.8512 8.09275 23.7195 8.226 23.3902C8.35925 23.061 8.226 22.6659 7.89287 22.5341L5.89408 21.7439C5.56095 21.6122 5.1612 21.7439 5.02794 22.0732C4.89469 22.4024 5.09457 22.7976 5.36108 22.9293Z" stroke="#192646" stroke-width="0.6" mask="url(#path-1-outside-1_115_1040)"/>
<path d="M43.9376 23.9171C44.0043 23.9171 44.1375 23.9171 44.2041 23.8512L46.0697 23.061C46.4028 22.9293 46.6027 22.5341 46.4028 22.2049C46.2029 21.8756 45.8698 21.6781 45.5367 21.8756L43.6711 22.6659C43.338 22.7976 43.1381 23.1927 43.2714 23.522C43.4712 23.7195 43.6711 23.9171 43.9376 23.9171Z" stroke="#192646" stroke-width="0.6" mask="url(#path-1-outside-1_115_1040)"/>
<path d="M7.42649 37.3512L5.29445 38.2073C4.96132 38.339 4.82807 38.7341 4.96132 39.0634C5.09457 39.3268 5.29445 39.4585 5.56095 39.4585C5.62758 39.4585 5.76083 39.4585 5.82746 39.3927L7.89287 38.5366C8.226 38.4049 8.42588 38.0098 8.226 37.6805C8.15937 37.3512 7.75962 37.1537 7.42649 37.3512Z" stroke="#192646" stroke-width="0.6" mask="url(#path-1-outside-1_115_1040)"/>
<path d="M48.0018 16.0805C48.2683 16.3439 48.6681 16.3439 48.9346 16.0805L50.8001 14.1707C51.0666 13.9073 51.0666 13.5122 50.8001 13.2488L44.8038 7.32195C44.5373 7.05854 44.1375 7.05854 43.871 7.32195L41.9388 9.16585C41.6723 9.42927 41.6723 9.82439 41.9388 10.0878L43.4046 11.5366L42.3386 12.6561C38.341 9.03415 33.2774 6.86098 27.9473 6.4V4.95122H30.0128C30.4125 4.95122 30.679 4.6878 30.679 4.29268V1.65854C30.679 1.26341 30.4125 1 30.0128 1H21.4846C21.0849 1 20.8183 1.26341 20.8183 1.65854V4.29268C20.8183 4.6878 21.0849 4.95122 21.4846 4.95122H23.55V6.4C9.95828 7.58537 -0.102271 19.3732 1.097 32.8073C1.63001 38.6683 4.29506 44.1341 8.55913 48.2171C13.223 52.5634 19.3526 55 25.6821 55H26.1484C39.7402 54.7366 50.6002 43.6073 50.3337 30.1732C50.2671 24.9707 48.4682 19.9659 45.2702 15.8171L46.536 14.5659L48.0018 16.0805ZM22.1509 2.31707H29.3465V3.63415H22.1509V2.31707ZM24.8159 4.95122H26.5482V6.26829C26.0818 6.26829 25.6821 6.26829 25.2157 6.26829H24.8159V4.95122ZM42.5385 46.6366C33.6106 55.7902 18.8196 56.0537 9.55852 47.2293C0.297486 38.4049 0.0309812 23.7854 8.95889 14.6317C13.223 10.2195 19.0861 7.71707 25.2823 7.58537H25.6821C38.5409 7.58537 49.0012 17.8585 49.0012 30.6341C49.0678 36.561 46.7359 42.3561 42.5385 46.6366ZM44.4706 14.8293C44.0709 14.3683 43.6711 13.9732 43.2714 13.578L44.404 12.5244L45.6033 13.7756L44.4706 14.8293ZM44.3374 8.70488L49.401 13.7098L48.4682 14.6317L43.4046 9.62683L44.3374 8.70488Z" stroke="#192646" stroke-width="0.6" mask="url(#path-1-outside-1_115_1040)"/>
<path d="M36.3422 19.1756L27.7475 27.7366C26.0818 26.6171 23.8832 27.0122 22.7505 28.5927C21.6179 30.239 22.0176 32.4122 23.6166 33.5317C25.2823 34.6512 27.481 34.2561 28.6136 32.6756C29.4798 31.4902 29.4797 29.9098 28.6802 28.6585L37.275 20.0976C37.5415 19.8341 37.6081 19.439 37.3416 19.1756C37.0751 18.9122 36.6754 18.8463 36.4089 19.1098C36.4089 19.1098 36.4089 19.1756 36.3422 19.1756ZM25.6821 32.8732C24.4162 32.8732 23.4168 31.8854 23.4168 30.6341C23.4168 29.3829 24.4162 28.3951 25.6821 28.3951C26.2817 28.3951 26.8813 28.6585 27.2811 29.0537C28.1472 29.9098 28.1472 31.3585 27.2811 32.2146C26.8813 32.6098 26.2817 32.8732 25.6821 32.8732Z" stroke="#192646" stroke-width="0.6" mask="url(#path-1-outside-1_115_1040)"/>
</svg>
