<svg width="46" height="51" viewBox="0 0 46 51" fill="none" xmlns="http://www.w3.org/2000/svg">
<g filter="url(#filter0_d_108_331)">
<path d="M35.8505 26.9811C35.545 26.9811 35.2396 27.24 35.2396 27.5853C35.2396 32.3758 31.2687 36.3032 26.4252 36.3032C26.0761 36.3032 25.8143 36.5621 25.8143 36.9074C25.8143 37.2526 26.0761 37.5116 26.4252 37.5116C31.9233 37.5116 36.4177 33.0663 36.4177 27.6284C36.4614 27.24 36.1996 26.9811 35.8505 26.9811Z" fill="#192646"/>
<path d="M35.3705 12.5663C32.4469 7.43053 29.3487 3.02842 28.6942 2.16526C28.1706 1.43158 27.3415 1 26.4252 1C25.5088 1 24.6797 1.43158 24.1561 2.16526C23.7634 2.72632 22.4543 4.5821 20.8398 7.12842C19.4434 6.48105 17.8725 6.13579 16.258 6.13579C10.0617 6.13579 5 11.1421 5 17.2705C5 21.8453 7.83632 25.8158 11.8508 27.4989C11.8508 27.5421 11.8508 27.5421 11.8508 27.5853C11.8508 35.5263 18.3962 42 26.4252 42C34.4541 42 40.9995 35.5263 40.9995 27.5853C41.0431 23.6147 38.2504 17.7021 35.3705 12.5663ZM6.17817 17.2705C6.17817 11.7895 10.6726 7.30105 16.258 7.30105C21.7998 7.30105 26.3379 11.7463 26.3379 17.2705C26.3379 22.7947 21.7998 27.1968 16.258 27.1968C10.7163 27.1968 6.17817 22.7516 6.17817 17.2705ZM26.4688 40.8347C19.1816 40.8347 13.2472 35.0516 13.0726 27.9305C14.0762 28.2326 15.1671 28.4053 16.258 28.4053C22.4543 28.4053 27.516 23.3989 27.516 17.2705C27.516 13.1705 25.247 9.58842 21.9307 7.68947C23.5016 5.18632 24.767 3.37368 25.1597 2.85579C25.4652 2.42421 25.9452 2.20842 26.4688 2.20842C26.9924 2.20842 27.4724 2.46737 27.7779 2.85579C28.9997 4.58211 39.865 20.0326 39.865 27.5853C39.865 34.8789 33.8432 40.8347 26.4688 40.8347Z" fill="#192646"/>
<path d="M21.4507 12.0916C21.2325 11.8758 20.8398 11.8758 20.6216 12.0916L11.0654 21.5863C10.8472 21.8021 10.8472 22.1905 11.0654 22.4063C11.1963 22.5358 11.3272 22.5789 11.5017 22.5789C11.6326 22.5789 11.8072 22.5358 11.9381 22.4063L21.4943 12.9547C21.7125 12.6958 21.7125 12.3505 21.4507 12.0916Z" fill="#192646"/>
<path d="M12.8108 16.0621C14.0326 16.0621 15.0362 15.0695 15.0362 13.8611C15.0362 12.6526 14.0326 11.66 12.8108 11.66C11.589 11.66 10.5854 12.6526 10.5854 13.8611C10.5854 15.0695 11.589 16.0621 12.8108 16.0621ZM12.8108 12.8253C13.3781 12.8253 13.8581 13.3 13.8581 13.8611C13.8581 14.4221 13.3781 14.8968 12.8108 14.8968C12.2435 14.8968 11.7635 14.4221 11.7635 13.8611C11.7635 13.2568 12.2435 12.8253 12.8108 12.8253Z" fill="#192646"/>
<path d="M19.7052 18.4358C18.4834 18.4358 17.4798 19.4284 17.4798 20.6368C17.4798 21.8453 18.4834 22.8379 19.7052 22.8379C20.927 22.8379 21.9307 21.8453 21.9307 20.6368C21.9307 19.4284 20.927 18.4358 19.7052 18.4358ZM19.7052 21.7158C19.138 21.7158 18.658 21.2411 18.658 20.68C18.658 20.1189 19.138 19.6442 19.7052 19.6442C20.2725 19.6442 20.7525 20.1189 20.7525 20.68C20.7525 21.2411 20.2725 21.7158 19.7052 21.7158Z" fill="#192646"/>
<path d="M35.4574 12.5168L35.4577 12.5174C36.8987 15.0871 38.3191 17.8534 39.3741 20.4754C40.4281 23.0951 41.1214 25.5806 41.0995 27.586C41.0995 27.5861 41.0995 27.5862 41.0995 27.5864L40.9995 27.5853C40.9995 35.5263 34.4541 42 26.4252 42C18.3962 42 11.8508 35.5263 11.8508 27.5853L35.4574 12.5168ZM35.4574 12.5168C32.5329 7.37947 29.4338 2.97532 28.7748 2.10599C28.2324 1.34678 27.3734 0.9 26.4252 0.9C25.4764 0.9 24.6171 1.34724 24.0747 2.10717L24.0742 2.10792C24.0552 2.13503 24.0341 2.16517 24.0109 2.19826C23.5587 2.84361 22.3186 4.61318 20.8021 7.00114C19.4123 6.37108 17.856 6.03579 16.258 6.03579C10.0076 6.03579 4.9 11.0858 4.9 17.2705C4.9 21.8641 7.73339 25.8527 11.7508 27.5652L35.4574 12.5168ZM20.5511 12.0206L20.5513 12.0205C20.8084 11.7662 21.2639 11.7662 21.521 12.0205C21.6683 12.1662 21.746 12.3407 21.7524 12.5195C21.7589 12.6979 21.6942 12.8727 21.5708 13.0192L21.5649 13.0261L21.5646 13.0258L12.0084 22.4774C11.8539 22.6302 11.6513 22.6789 11.5017 22.6789C11.3048 22.6789 11.1473 22.628 10.995 22.4774C10.7374 22.2225 10.7373 21.7703 10.9949 21.5154L20.5511 12.0206ZM20.5511 12.0206L10.995 21.5152L20.5511 12.0206ZM26.4688 40.7347C19.2819 40.7347 13.4222 35.0682 13.1767 28.0654C14.1522 28.3459 15.2048 28.5053 16.258 28.5053C22.5085 28.5053 27.616 23.4552 27.616 17.2705C27.616 13.17 25.3672 9.58363 22.0705 7.65487C23.615 5.19842 24.8538 3.42478 25.2394 2.91621L25.2394 2.91624L25.2413 2.91356C25.5257 2.5118 25.9733 2.30842 26.4688 2.30842C26.9584 2.30842 27.4096 2.55045 27.6977 2.91565C28.3114 3.7828 31.3284 8.07103 34.1928 13.0853C35.6261 15.5945 37.0202 18.2836 38.0556 20.8156C39.092 23.35 39.765 25.7171 39.765 27.5853C39.765 34.8227 33.789 40.7347 26.4688 40.7347ZM35.8505 26.8811C35.4955 26.8811 35.1396 27.1792 35.1396 27.5853C35.1396 32.3195 31.2145 36.2032 26.4252 36.2032C26.0219 36.2032 25.7143 36.5058 25.7143 36.9074C25.7143 37.3089 26.0219 37.6116 26.4252 37.6116C31.9756 37.6116 36.5147 33.1255 36.5177 27.6339C36.5407 27.4165 36.4792 27.2272 36.3552 27.0916C36.2306 26.9554 36.05 26.8811 35.8505 26.8811ZM6.27817 17.2705C6.27817 11.8455 10.7271 7.40105 16.258 7.40105C21.7459 7.40105 26.2379 11.8029 26.2379 17.2705C26.2379 22.7376 21.7464 27.0968 16.258 27.0968C10.7699 27.0968 6.27817 22.6948 6.27817 17.2705ZM12.8108 16.1621C14.0868 16.1621 15.1362 15.1257 15.1362 13.8611C15.1362 12.5964 14.0868 11.56 12.8108 11.56C11.5348 11.56 10.4854 12.5964 10.4854 13.8611C10.4854 15.1257 11.5348 16.1621 12.8108 16.1621ZM12.8108 12.9253C13.3239 12.9253 13.7581 13.3563 13.7581 13.8611C13.7581 14.3658 13.3239 14.7968 12.8108 14.7968C12.2977 14.7968 11.8635 14.3658 11.8635 13.8611C11.8635 13.3158 12.295 12.9253 12.8108 12.9253ZM19.7052 18.3358C18.4293 18.3358 17.3798 19.3722 17.3798 20.6368C17.3798 21.9015 18.4293 22.9379 19.7052 22.9379C20.9812 22.9379 22.0307 21.9015 22.0307 20.6368C22.0307 19.3722 20.9812 18.3358 19.7052 18.3358ZM19.7052 21.6158C19.1922 21.6158 18.758 21.1848 18.758 20.68C18.758 20.1752 19.1922 19.7442 19.7052 19.7442C20.2183 19.7442 20.6525 20.1752 20.6525 20.68C20.6525 21.1848 20.2183 21.6158 19.7052 21.6158Z" stroke="#192646" stroke-width="0.2"/>
</g>
<defs>
<filter id="filter0_d_108_331" x="0.800781" y="0.800003" width="44.3984" height="49.4" filterUnits="userSpaceOnUse" color-interpolation-filters="sRGB">
<feFlood flood-opacity="0" result="BackgroundImageFix"/>
<feColorMatrix in="SourceAlpha" type="matrix" values="0 0 0 0 0 0 0 0 0 0 0 0 0 0 0 0 0 0 127 0" result="hardAlpha"/>
<feOffset dy="4"/>
<feGaussianBlur stdDeviation="2"/>
<feComposite in2="hardAlpha" operator="out"/>
<feColorMatrix type="matrix" values="0 0 0 0 0 0 0 0 0 0 0 0 0 0 0 0 0 0 0.25 0"/>
<feBlend mode="normal" in2="BackgroundImageFix" result="effect1_dropShadow_108_331"/>
<feBlend mode="normal" in="SourceGraphic" in2="effect1_dropShadow_108_331" result="shape"/>
</filter>
</defs>
</svg>
