<svg width="42" height="52" viewBox="0 0 42 52" fill="none" xmlns="http://www.w3.org/2000/svg">
<mask id="path-1-outside-1_108_329" maskUnits="userSpaceOnUse" x="0" y="0" width="42" height="52" fill="black">
<rect fill="white" width="42" height="52"/>
<path d="M20.7719 44.2653C18.744 44.2653 17.1217 42.6327 17.1217 40.5918C17.1217 38.551 18.744 36.9184 20.7719 36.9184C22.7997 36.9184 24.4221 38.551 24.4221 40.5918C24.4221 42.6327 22.7997 44.2653 20.7719 44.2653ZM31.6717 30.0816L33.2433 32.8367C33.3954 33.0918 33.294 33.398 33.0406 33.551C32.9392 33.602 32.8885 33.602 32.7871 33.602C32.5843 33.602 32.4322 33.5 32.3308 33.3469L30.8099 30.5918C30.6578 30.3367 30.7592 30.0306 31.0127 29.8776C31.2155 29.7755 31.5196 29.8265 31.6717 30.0816ZM38.8707 27.6837C38.7693 27.8367 38.6172 27.9388 38.4144 27.9388C38.3131 27.9388 38.2624 27.8878 38.161 27.8878L35.4233 26.3061C35.1698 26.1531 35.1191 25.8469 35.2205 25.5918C35.3726 25.3367 35.6768 25.2857 35.9303 25.3878L38.6679 27.0204C38.9214 27.1735 39.0228 27.4796 38.8707 27.6837ZM41 19.7245C41 20.0306 40.7972 20.2347 40.493 20.2347H37.3498C37.0456 20.2347 36.8428 20.0306 36.8428 19.7245C36.8428 19.4184 37.0456 19.2143 37.3498 19.2143H40.493C40.7972 19.2143 41 19.4694 41 19.7245ZM35.2712 13.8571C35.1191 13.602 35.2205 13.2959 35.474 13.1429L38.2117 11.5612C38.4651 11.4082 38.7693 11.5102 38.9214 11.7653C39.0735 12.0204 38.9721 12.3265 38.7186 12.4796L35.981 14.0612C35.8796 14.1122 35.8289 14.1122 35.7275 14.1122C35.5247 14.1122 35.3219 14.0102 35.2712 13.8571ZM30.962 9.57143C30.7085 9.41837 30.6578 9.11224 30.7592 8.85714L32.3308 6.10204C32.4829 5.84694 32.7871 5.79592 33.0406 5.89796C33.294 6.05102 33.3447 6.35714 33.2433 6.61224L31.6717 9.36735C31.5196 9.62245 31.2155 9.67347 30.962 9.57143ZM38.0089 49.9796H25.2332C30.4043 47.5306 32.5843 41.3061 30.1508 36.1531C29.3397 34.4184 28.0215 32.9388 26.3992 31.8673V28.551C31.2155 28.2959 34.9164 24.1633 34.6629 19.2653C34.4094 14.7755 30.8606 11.2041 26.3485 10.949V6.61224C26.3485 3.5 23.8644 1 20.7719 1C17.6793 1 15.1952 3.5 15.1952 6.61224V31.8163C10.379 34.9286 9.01014 41.3571 12.1027 46.2041C13.1673 47.8367 14.6375 49.1633 16.3612 49.9796H3.53485C3.23067 49.9796 3.02788 50.1837 3.02788 50.4898C3.02788 50.7959 3.23067 51 3.53485 51H38.0089C38.3131 51 38.5158 50.7959 38.5158 50.4898C38.5158 50.1837 38.3131 49.9796 38.0089 49.9796ZM33.5982 19.7245C33.5982 23.8571 30.455 27.2245 26.3485 27.5306V11.9694C30.455 12.2245 33.5982 15.6429 33.5982 19.7245ZM11.4436 40.5918C11.4436 37.3265 13.1166 34.2653 15.9049 32.5816C16.057 32.4796 16.1584 32.3265 16.1584 32.1224V29.9796H17.5779C17.8821 29.9796 18.0849 29.7755 18.0849 29.4694C18.0849 29.1633 17.8821 28.9592 17.5779 28.9592H16.2091V26.5612H18.1863C18.4905 26.5612 18.6933 26.3571 18.6933 26.051C18.6933 25.7449 18.4905 25.5408 18.1863 25.5408H16.2091V23.1429H17.6286C17.9328 23.1429 18.1356 22.9388 18.1356 22.6327C18.1356 22.3265 17.9328 22.1224 17.6286 22.1224H16.2091V19.7245H18.1863C18.4905 19.7245 18.6933 19.5204 18.6933 19.2143C18.6933 18.9082 18.4905 18.7041 18.1863 18.7041H16.2091V16.3061H17.6286C17.9328 16.3061 18.1356 16.102 18.1356 15.7959C18.1356 15.4898 17.9328 15.2857 17.6286 15.2857H16.2091V12.8878H18.1863C18.4905 12.8878 18.6933 12.6837 18.6933 12.3776C18.6933 12.0714 18.4905 11.8673 18.1863 11.8673H16.2091V9.46939H17.6286C17.9328 9.46939 18.1356 9.26531 18.1356 8.95918C18.1356 8.65306 17.9328 8.44898 17.6286 8.44898H16.2091V6.61224C16.2091 4.06122 18.237 2.02041 20.7719 2.02041C23.3067 2.02041 25.3346 4.06122 25.3346 6.61224V32.1224C25.3346 32.3265 25.436 32.4796 25.5881 32.5816C29.9987 35.2857 31.4182 41.051 28.7313 45.4898C26.0444 49.9286 20.3156 51.3571 15.9049 48.6531C13.1673 46.9184 11.4436 43.8571 11.4436 40.5918ZM40.5437 50.4898C40.5437 50.7959 40.3409 51 40.0368 51H39.5805C39.2763 51 39.0735 50.7959 39.0735 50.4898C39.0735 50.1837 39.2763 49.9796 39.5805 49.9796H40.0368C40.3409 49.9796 40.5437 50.1837 40.5437 50.4898ZM2.47022 50.4898C2.47022 50.7959 2.26743 51 1.96324 51H1.50697C1.20279 51 1 50.7959 1 50.4898C1 50.1837 1.20279 49.9796 1.50697 49.9796H1.96324C2.26743 49.9796 2.47022 50.1837 2.47022 50.4898Z"/>
</mask>
<path d="M20.7719 44.2653C18.744 44.2653 17.1217 42.6327 17.1217 40.5918C17.1217 38.551 18.744 36.9184 20.7719 36.9184C22.7997 36.9184 24.4221 38.551 24.4221 40.5918C24.4221 42.6327 22.7997 44.2653 20.7719 44.2653ZM31.6717 30.0816L33.2433 32.8367C33.3954 33.0918 33.294 33.398 33.0406 33.551C32.9392 33.602 32.8885 33.602 32.7871 33.602C32.5843 33.602 32.4322 33.5 32.3308 33.3469L30.8099 30.5918C30.6578 30.3367 30.7592 30.0306 31.0127 29.8776C31.2155 29.7755 31.5196 29.8265 31.6717 30.0816ZM38.8707 27.6837C38.7693 27.8367 38.6172 27.9388 38.4144 27.9388C38.3131 27.9388 38.2624 27.8878 38.161 27.8878L35.4233 26.3061C35.1698 26.1531 35.1191 25.8469 35.2205 25.5918C35.3726 25.3367 35.6768 25.2857 35.9303 25.3878L38.6679 27.0204C38.9214 27.1735 39.0228 27.4796 38.8707 27.6837ZM41 19.7245C41 20.0306 40.7972 20.2347 40.493 20.2347H37.3498C37.0456 20.2347 36.8428 20.0306 36.8428 19.7245C36.8428 19.4184 37.0456 19.2143 37.3498 19.2143H40.493C40.7972 19.2143 41 19.4694 41 19.7245ZM35.2712 13.8571C35.1191 13.602 35.2205 13.2959 35.474 13.1429L38.2117 11.5612C38.4651 11.4082 38.7693 11.5102 38.9214 11.7653C39.0735 12.0204 38.9721 12.3265 38.7186 12.4796L35.981 14.0612C35.8796 14.1122 35.8289 14.1122 35.7275 14.1122C35.5247 14.1122 35.3219 14.0102 35.2712 13.8571ZM30.962 9.57143C30.7085 9.41837 30.6578 9.11224 30.7592 8.85714L32.3308 6.10204C32.4829 5.84694 32.7871 5.79592 33.0406 5.89796C33.294 6.05102 33.3447 6.35714 33.2433 6.61224L31.6717 9.36735C31.5196 9.62245 31.2155 9.67347 30.962 9.57143ZM38.0089 49.9796H25.2332C30.4043 47.5306 32.5843 41.3061 30.1508 36.1531C29.3397 34.4184 28.0215 32.9388 26.3992 31.8673V28.551C31.2155 28.2959 34.9164 24.1633 34.6629 19.2653C34.4094 14.7755 30.8606 11.2041 26.3485 10.949V6.61224C26.3485 3.5 23.8644 1 20.7719 1C17.6793 1 15.1952 3.5 15.1952 6.61224V31.8163C10.379 34.9286 9.01014 41.3571 12.1027 46.2041C13.1673 47.8367 14.6375 49.1633 16.3612 49.9796H3.53485C3.23067 49.9796 3.02788 50.1837 3.02788 50.4898C3.02788 50.7959 3.23067 51 3.53485 51H38.0089C38.3131 51 38.5158 50.7959 38.5158 50.4898C38.5158 50.1837 38.3131 49.9796 38.0089 49.9796ZM33.5982 19.7245C33.5982 23.8571 30.455 27.2245 26.3485 27.5306V11.9694C30.455 12.2245 33.5982 15.6429 33.5982 19.7245ZM11.4436 40.5918C11.4436 37.3265 13.1166 34.2653 15.9049 32.5816C16.057 32.4796 16.1584 32.3265 16.1584 32.1224V29.9796H17.5779C17.8821 29.9796 18.0849 29.7755 18.0849 29.4694C18.0849 29.1633 17.8821 28.9592 17.5779 28.9592H16.2091V26.5612H18.1863C18.4905 26.5612 18.6933 26.3571 18.6933 26.051C18.6933 25.7449 18.4905 25.5408 18.1863 25.5408H16.2091V23.1429H17.6286C17.9328 23.1429 18.1356 22.9388 18.1356 22.6327C18.1356 22.3265 17.9328 22.1224 17.6286 22.1224H16.2091V19.7245H18.1863C18.4905 19.7245 18.6933 19.5204 18.6933 19.2143C18.6933 18.9082 18.4905 18.7041 18.1863 18.7041H16.2091V16.3061H17.6286C17.9328 16.3061 18.1356 16.102 18.1356 15.7959C18.1356 15.4898 17.9328 15.2857 17.6286 15.2857H16.2091V12.8878H18.1863C18.4905 12.8878 18.6933 12.6837 18.6933 12.3776C18.6933 12.0714 18.4905 11.8673 18.1863 11.8673H16.2091V9.46939H17.6286C17.9328 9.46939 18.1356 9.26531 18.1356 8.95918C18.1356 8.65306 17.9328 8.44898 17.6286 8.44898H16.2091V6.61224C16.2091 4.06122 18.237 2.02041 20.7719 2.02041C23.3067 2.02041 25.3346 4.06122 25.3346 6.61224V32.1224C25.3346 32.3265 25.436 32.4796 25.5881 32.5816C29.9987 35.2857 31.4182 41.051 28.7313 45.4898C26.0444 49.9286 20.3156 51.3571 15.9049 48.6531C13.1673 46.9184 11.4436 43.8571 11.4436 40.5918ZM40.5437 50.4898C40.5437 50.7959 40.3409 51 40.0368 51H39.5805C39.2763 51 39.0735 50.7959 39.0735 50.4898C39.0735 50.1837 39.2763 49.9796 39.5805 49.9796H40.0368C40.3409 49.9796 40.5437 50.1837 40.5437 50.4898ZM2.47022 50.4898C2.47022 50.7959 2.26743 51 1.96324 51H1.50697C1.20279 51 1 50.7959 1 50.4898C1 50.1837 1.20279 49.9796 1.50697 49.9796H1.96324C2.26743 49.9796 2.47022 50.1837 2.47022 50.4898Z" fill="#192646"/>
<path d="M25.436 40.1327L25.6351 40.1133L25.6347 40.1102L25.436 40.1327ZM20.2414 35.7504C17.546 36.0695 15.6448 38.4638 15.9087 41.1725L16.3068 41.1337C16.0637 38.6382 17.8126 36.4407 20.2884 36.1476L20.2414 35.7504ZM15.9087 41.1725C16.1733 43.8888 18.6072 45.8013 21.2985 45.5358L21.2592 45.1377C18.7793 45.3824 16.5491 43.6214 16.3068 41.1337L15.9087 41.1725ZM21.2985 45.5358C24.0004 45.2692 25.8986 42.8185 25.6351 40.1133L25.2369 40.152C25.4804 42.6509 23.7283 44.8941 21.2592 45.1377L21.2985 45.5358ZM25.6347 40.1102C25.371 37.7748 23.5762 35.9654 21.3021 35.6993L21.2556 36.0966C23.3414 36.3407 24.994 38.0007 25.2373 40.1551L25.6347 40.1102ZM31.6717 30.0816L32.0192 29.8834L32.0153 29.8768L31.6717 30.0816ZM33.2433 32.8367L32.8958 33.035L32.8998 33.0416L33.2433 32.8367ZM33.0406 33.551L33.2204 33.9083L33.2341 33.9014L33.2473 33.8934L33.0406 33.551ZM32.3308 33.3469L31.9806 33.5403L31.9884 33.5544L31.9973 33.5678L32.3308 33.3469ZM30.8099 30.5918L31.1603 30.3984L31.1535 30.387L30.8099 30.5918ZM31.0127 29.8776L30.8329 29.5202L30.8191 29.5272L30.8059 29.5351L31.0127 29.8776ZM38.8707 27.6837L38.55 27.4446L38.5434 27.4535L38.5373 27.4628L38.8707 27.6837ZM38.161 27.8878L37.9609 28.2341L38.0537 28.2878H38.161V27.8878ZM35.4233 26.3061L35.2165 26.6486L35.2232 26.6525L35.4233 26.3061ZM35.2205 25.5918L34.877 25.387L34.8606 25.4144L34.8488 25.4441L35.2205 25.5918ZM35.9303 25.3878L36.1352 25.0442L36.1085 25.0283L36.0797 25.0167L35.9303 25.3878ZM38.6679 27.0204L38.8747 26.678L38.8728 26.6769L38.6679 27.0204ZM35.2712 13.8571L35.6509 13.7314L35.6372 13.6899L35.6148 13.6523L35.2712 13.8571ZM35.474 13.1429L35.2739 12.7964L35.2673 12.8004L35.474 13.1429ZM38.2117 11.5612L38.4118 11.9076L38.4184 11.9036L38.2117 11.5612ZM38.7186 12.4796L38.9188 12.826L38.9254 12.822L38.7186 12.4796ZM35.981 14.0612L36.1608 14.4185L36.1711 14.4134L36.1811 14.4076L35.981 14.0612ZM30.962 9.57143L30.7552 9.91385L30.7828 9.93048L30.8126 9.94249L30.962 9.57143ZM30.7592 8.85714L30.4117 8.65895L30.3978 8.68332L30.3875 8.7094L30.7592 8.85714ZM32.3308 6.10204L31.9872 5.89717L31.9834 5.90385L32.3308 6.10204ZM33.0406 5.89796L33.2473 5.55554L33.2198 5.53891L33.1899 5.5269L33.0406 5.89796ZM33.2433 6.61224L33.5908 6.81044L33.6047 6.78607L33.6151 6.75999L33.2433 6.61224ZM31.6717 9.36735L32.0154 9.57222L32.0192 9.56554L31.6717 9.36735ZM25.2332 49.9796L25.062 49.6181L25.2332 50.3796V49.9796ZM30.1508 36.1531L29.7885 36.3225L29.7891 36.3239L30.1508 36.1531ZM26.3992 31.8673H25.9992V32.0825L26.1788 32.2011L26.3992 31.8673ZM26.3992 28.551L26.3781 28.1516L25.9992 28.1716V28.551H26.3992ZM34.6629 19.2653L35.0623 19.2446L35.0622 19.2428L34.6629 19.2653ZM26.3485 10.949H25.9485V11.327L26.326 11.3483L26.3485 10.949ZM15.1952 31.8163L15.4123 32.1523L15.5952 32.0341V31.8163H15.1952ZM12.1027 46.2041L11.7654 46.4192L11.7676 46.4226L12.1027 46.2041ZM16.3612 49.9796V50.3796L16.5324 49.6181L16.3612 49.9796ZM26.3485 27.5306H25.9485V27.9615L26.3783 27.9295L26.3485 27.5306ZM26.3485 11.9694L26.3733 11.5702L25.9485 11.5438V11.9694H26.3485ZM15.9049 32.5816L16.1117 32.9241L16.1199 32.9191L16.1278 32.9138L15.9049 32.5816ZM16.1584 29.9796V29.5796H15.7584V29.9796H16.1584ZM16.2091 28.9592H15.8091V29.3592H16.2091V28.9592ZM16.2091 26.5612V26.1612H15.8091V26.5612H16.2091ZM16.2091 25.5408H15.8091V25.9408H16.2091V25.5408ZM16.2091 23.1429V22.7429H15.8091V23.1429H16.2091ZM16.2091 22.1224H15.8091V22.5224H16.2091V22.1224ZM16.2091 19.7245V19.3245H15.8091V19.7245H16.2091ZM16.2091 18.7041H15.8091V19.1041H16.2091V18.7041ZM16.2091 16.3061V15.9061H15.8091V16.3061H16.2091ZM16.2091 15.2857H15.8091V15.6857H16.2091V15.2857ZM16.2091 12.8878V12.4878H15.8091V12.8878H16.2091ZM16.2091 11.8673H15.8091V12.2673H16.2091V11.8673ZM16.2091 9.46939V9.06939H15.8091V9.46939H16.2091ZM16.2091 8.44898H15.8091V8.84898H16.2091V8.44898ZM25.5881 32.5816L25.3652 32.9138L25.372 32.9184L25.379 32.9226L25.5881 32.5816ZM15.9049 48.6531L15.6908 48.991L15.6959 48.9941L15.9049 48.6531ZM20.7719 43.8653C18.9673 43.8653 17.5217 42.4141 17.5217 40.5918H16.7217C16.7217 42.8512 18.5207 44.6653 20.7719 44.6653V43.8653ZM17.5217 40.5918C17.5217 38.7695 18.9673 37.3184 20.7719 37.3184V36.5184C18.5207 36.5184 16.7217 38.3325 16.7217 40.5918H17.5217ZM20.7719 37.3184C22.5764 37.3184 24.0221 38.7695 24.0221 40.5918H24.8221C24.8221 38.3325 23.0231 36.5184 20.7719 36.5184V37.3184ZM24.0221 40.5918C24.0221 42.4141 22.5764 43.8653 20.7719 43.8653V44.6653C23.0231 44.6653 24.8221 42.8512 24.8221 40.5918H24.0221ZM31.3243 30.2798L32.8959 33.0349L33.5908 32.6385L32.0192 29.8834L31.3243 30.2798ZM32.8998 33.0416C32.9167 33.0699 32.9178 33.0941 32.9107 33.1179C32.9026 33.145 32.88 33.1807 32.8338 33.2086L33.2473 33.8934C33.6597 33.6444 33.8685 33.1042 33.5869 32.6319L32.8998 33.0416ZM32.8608 33.1937C32.8472 33.2005 32.8413 33.2026 32.8408 33.2028C32.8407 33.2028 32.8415 33.2026 32.8431 33.2022C32.8447 33.2017 32.8463 33.2014 32.8476 33.2012C32.8504 33.2007 32.8493 33.2012 32.8397 33.2015C32.8284 33.202 32.8144 33.202 32.7871 33.202V34.002C32.8299 34.002 32.9029 34.0031 32.98 33.9902C33.067 33.9756 33.1436 33.947 33.2204 33.9083L32.8608 33.1937ZM32.7871 33.202C32.7557 33.202 32.7371 33.1949 32.7234 33.1869C32.7079 33.1778 32.6869 33.1601 32.6643 33.126L31.9973 33.5678C32.1597 33.8129 32.4279 34.002 32.7871 34.002V33.202ZM32.681 33.1536L31.1601 30.3985L30.4597 30.7852L31.9806 33.5403L32.681 33.1536ZM31.1535 30.387C31.1366 30.3587 31.1354 30.3345 31.1425 30.3107C31.1506 30.2836 31.1732 30.2479 31.2194 30.22L30.8059 29.5351C30.3935 29.7842 30.1847 30.3243 30.4663 30.7967L31.1535 30.387ZM31.1925 30.2349C31.2015 30.2303 31.2273 30.224 31.2588 30.2323C31.2847 30.2392 31.309 30.2543 31.3282 30.2865L32.0153 29.8768C31.7467 29.4263 31.2069 29.332 30.8329 29.5202L31.1925 30.2349ZM38.5373 27.4628C38.5147 27.4969 38.4936 27.5146 38.4781 27.5237C38.4645 27.5317 38.4458 27.5388 38.4144 27.5388V28.3388C38.7736 28.3388 39.0419 28.1496 39.2042 27.9046L38.5373 27.4628ZM38.4144 27.5388C38.4356 27.5388 38.4528 27.5467 38.4149 27.534C38.3768 27.5212 38.2835 27.4878 38.161 27.4878V28.2878C38.1399 28.2878 38.1226 28.2798 38.1605 28.2925C38.1986 28.3053 38.292 28.3388 38.4144 28.3388V27.5388ZM38.3611 27.5414L35.6234 25.9598L35.2232 26.6525L37.9609 28.2341L38.3611 27.5414ZM35.6301 25.9637C35.6009 25.9461 35.5852 25.9236 35.577 25.8908C35.5675 25.8524 35.5692 25.7976 35.5922 25.7396L34.8488 25.4441C34.6971 25.8258 34.7495 26.3665 35.2166 26.6485L35.6301 25.9637ZM35.5641 25.7967C35.5821 25.7665 35.6043 25.7515 35.635 25.7438C35.6714 25.7346 35.7244 25.736 35.7809 25.7588L36.0797 25.0167C35.6969 24.8626 35.157 24.9174 34.877 25.387L35.5641 25.7967ZM35.7254 25.7313L38.4631 27.364L38.8728 26.6769L36.1352 25.0442L35.7254 25.7313ZM38.4612 27.3628C38.5091 27.3918 38.5325 27.4296 38.5398 27.4527C38.5431 27.4633 38.5418 27.4666 38.5423 27.4629C38.543 27.4581 38.5455 27.4506 38.55 27.4446L39.1915 27.9227C39.5344 27.4625 39.2517 26.9057 38.8747 26.678L38.4612 27.3628ZM40.6 19.7245C40.6 19.7874 40.5808 19.8084 40.5768 19.8124C40.5731 19.8162 40.5535 19.8347 40.493 19.8347V20.6347C40.7368 20.6347 40.9706 20.5511 41.1443 20.3763C41.3178 20.2018 41.4 19.9677 41.4 19.7245H40.6ZM40.493 19.8347H37.3498V20.6347H40.493V19.8347ZM37.3498 19.8347C37.2894 19.8347 37.2698 19.8162 37.266 19.8124C37.262 19.8084 37.2428 19.7874 37.2428 19.7245H36.4428C36.4428 19.9677 36.5251 20.2018 36.6985 20.3763C36.8722 20.5511 37.106 20.6347 37.3498 20.6347V19.8347ZM37.2428 19.7245C37.2428 19.6616 37.262 19.6406 37.266 19.6365C37.2698 19.6327 37.2894 19.6143 37.3498 19.6143V18.8143C37.1061 18.8143 36.8722 18.8979 36.6985 19.0726C36.5251 19.2472 36.4428 19.4813 36.4428 19.7245H37.2428ZM37.3498 19.6143H40.493V18.8143H37.3498V19.6143ZM40.493 19.6143C40.5266 19.6143 40.5492 19.6262 40.5673 19.6457C40.5892 19.6693 40.6 19.7003 40.6 19.7245H41.4C41.4 19.2774 41.046 18.8143 40.493 18.8143V19.6143ZM35.6148 13.6523C35.5979 13.624 35.5968 13.5998 35.6039 13.576C35.6119 13.5489 35.6346 13.5132 35.6808 13.4853L35.2673 12.8004C34.8549 13.0495 34.646 13.5896 34.9277 14.062L35.6148 13.6523ZM35.6741 13.4892L38.4118 11.9076L38.0116 11.2149L35.2739 12.7965L35.6741 13.4892ZM38.4184 11.9036C38.4454 11.8873 38.4673 11.8866 38.4889 11.8931C38.5142 11.9008 38.5496 11.9228 38.5778 11.9701L39.265 11.5605C39.0184 11.1469 38.4787 10.9327 38.0049 11.2188L38.4184 11.9036ZM38.5778 11.9701C38.5947 11.9985 38.5959 12.0227 38.5888 12.0464C38.5807 12.0735 38.5581 12.1093 38.5119 12.1372L38.9254 12.822C39.3378 12.573 39.5466 12.0328 39.265 11.5605L38.5778 11.9701ZM38.5185 12.1332L35.7809 13.7149L36.1811 14.4076L38.9187 12.8259L38.5185 12.1332ZM35.8012 13.7039C35.7876 13.7107 35.7818 13.7128 35.7813 13.713C35.7811 13.713 35.7819 13.7128 35.7835 13.7124C35.7851 13.7119 35.7867 13.7116 35.7881 13.7114C35.7908 13.7109 35.7897 13.7114 35.7802 13.7117C35.7688 13.7122 35.7548 13.7122 35.7275 13.7122V14.5122C35.7703 14.5122 35.8433 14.5133 35.9204 14.5004C36.0074 14.4858 36.084 14.4572 36.1608 14.4185L35.8012 13.7039ZM35.7275 13.7122C35.7099 13.7122 35.6915 13.71 35.6739 13.7056C35.6561 13.7012 35.6422 13.6955 35.6329 13.6904C35.6233 13.6852 35.6224 13.6829 35.6264 13.6872C35.6308 13.6918 35.6426 13.7061 35.6509 13.7314L34.8915 13.9829C34.9587 14.1857 35.1118 14.3179 35.2518 14.3938C35.3954 14.4716 35.5627 14.5122 35.7275 14.5122V13.7122ZM31.1687 9.22901C31.1395 9.21136 31.1239 9.18894 31.1157 9.15612C31.1062 9.11775 31.1079 9.06287 31.1309 9.00489L30.3875 8.7094C30.2358 9.09107 30.2881 9.63181 30.7552 9.91385L31.1687 9.22901ZM31.1066 9.05534L32.6782 6.30024L31.9834 5.90385L30.4117 8.65895L31.1066 9.05534ZM32.6744 6.30688C32.6924 6.27666 32.7145 6.26172 32.7453 6.25398C32.7817 6.24481 32.8346 6.24625 32.8912 6.26902L33.1899 5.5269C32.8072 5.37283 32.2672 5.42756 31.9872 5.8972L32.6744 6.30688ZM32.8338 6.24038C32.863 6.25802 32.8787 6.28045 32.8868 6.31327C32.8964 6.35164 32.8947 6.40652 32.8716 6.4645L33.6151 6.75999C33.7668 6.37832 33.7144 5.83758 33.2473 5.55554L32.8338 6.24038ZM32.8959 6.41405L31.3243 9.16915L32.0192 9.56554L33.5908 6.81044L32.8959 6.41405ZM31.3282 9.16251C31.3101 9.19273 31.288 9.20767 31.2573 9.21541C31.2208 9.22458 31.1679 9.22313 31.1113 9.20037L30.8126 9.94249C31.1953 10.0966 31.7353 10.0418 32.0153 9.57218L31.3282 9.16251ZM38.0089 49.5796H25.2332V50.3796H38.0089V49.5796ZM25.4044 50.3411C30.7774 47.7965 33.0391 41.3326 30.5125 35.9823L29.7891 36.3239C32.1294 41.2797 30.0313 47.2647 25.062 49.6181L25.4044 50.3411ZM30.5132 35.9836C29.6687 34.1777 28.2993 32.6428 26.6197 31.5336L26.1788 32.2011C27.7438 33.2347 29.0107 34.6591 29.7885 36.3225L30.5132 35.9836ZM26.7992 31.8673V28.551H25.9992V31.8673H26.7992ZM26.4204 28.9505C31.4607 28.6835 35.327 24.3593 35.0623 19.2446L34.2634 19.286C34.5057 23.9672 30.9702 27.9083 26.3781 28.1516L26.4204 28.9505ZM35.0622 19.2428C34.7973 14.5505 31.087 10.8162 26.3711 10.5496L26.326 11.3483C30.6341 11.5919 34.0214 15.0005 34.2635 19.2879L35.0622 19.2428ZM26.7485 10.949V6.61224H25.9485V10.949H26.7485ZM26.7485 6.61224C26.7485 3.28149 24.0877 0.6 20.7719 0.6V1.4C23.6411 1.4 25.9485 3.71851 25.9485 6.61224H26.7485ZM20.7719 0.6C17.456 0.6 14.7952 3.28149 14.7952 6.61224H15.5952C15.5952 3.71851 17.9026 1.4 20.7719 1.4V0.6ZM14.7952 6.61224V31.8163H15.5952V6.61224H14.7952ZM14.9781 31.4804C9.97489 34.7134 8.55599 41.389 11.7655 46.4192L12.4399 45.9889C9.46428 41.3253 10.783 35.1437 15.4123 32.1523L14.9781 31.4804ZM11.7676 46.4226C12.8695 48.1124 14.3946 49.4908 16.19 50.3411L16.5324 49.6181C14.8804 48.8357 13.4651 47.5611 12.4377 45.9856L11.7676 46.4226ZM16.3612 49.5796H3.53485V50.3796H16.3612V49.5796ZM3.53485 49.5796C3.2911 49.5796 3.05723 49.6632 2.88356 49.838C2.71011 50.0125 2.62788 50.2466 2.62788 50.4898H3.42788C3.42788 50.4269 3.44705 50.4059 3.45104 50.4018C3.45481 50.398 3.47443 50.3796 3.53485 50.3796V49.5796ZM2.62788 50.4898C2.62788 50.733 2.71011 50.9671 2.88356 51.1416C3.05723 51.3164 3.2911 51.4 3.53485 51.4V50.6C3.47443 50.6 3.45481 50.5815 3.45104 50.5778C3.44705 50.5737 3.42788 50.5527 3.42788 50.4898H2.62788ZM3.53485 51.4H38.0089V50.6H3.53485V51.4ZM38.0089 51.4C38.2526 51.4 38.4865 51.3164 38.6602 51.1416C38.8336 50.9671 38.9158 50.733 38.9158 50.4898H38.1158C38.1158 50.5527 38.0967 50.5737 38.0927 50.5778C38.0889 50.5815 38.0693 50.6 38.0089 50.6V51.4ZM38.9158 50.4898C38.9158 50.2466 38.8336 50.0125 38.6602 49.838C38.4865 49.6632 38.2526 49.5796 38.0089 49.5796V50.3796C38.0693 50.3796 38.0889 50.398 38.0927 50.4018C38.0967 50.4059 38.1158 50.4269 38.1158 50.4898H38.9158ZM33.1982 19.7245C33.1982 23.647 30.2172 26.8411 26.3188 27.1317L26.3783 27.9295C30.6928 27.6079 33.9982 24.0673 33.9982 19.7245H33.1982ZM26.7485 27.5306V11.9694H25.9485V27.5306H26.7485ZM26.3237 12.3686C30.2156 12.6104 33.1982 15.8504 33.1982 19.7245H33.9982C33.9982 15.4354 30.6944 11.8386 26.3733 11.5702L26.3237 12.3686ZM11.8436 40.5918C11.8436 37.4618 13.4474 34.5328 16.1117 32.9241L15.6982 32.2392C12.7858 33.9978 11.0436 37.1912 11.0436 40.5918H11.8436ZM16.1278 32.9138C16.3723 32.7498 16.5584 32.4805 16.5584 32.1224H15.7584C15.7584 32.1554 15.751 32.1753 15.7427 32.1897C15.7333 32.2058 15.7156 32.227 15.6821 32.2495L16.1278 32.9138ZM16.5584 32.1224V29.9796H15.7584V32.1224H16.5584ZM16.1584 30.3796H17.5779V29.5796H16.1584V30.3796ZM17.5779 30.3796C17.8217 30.3796 18.0556 30.296 18.2292 30.1212C18.4027 29.9467 18.4849 29.7126 18.4849 29.4694H17.6849C17.6849 29.5323 17.6658 29.5533 17.6618 29.5573C17.658 29.5611 17.6384 29.5796 17.5779 29.5796V30.3796ZM18.4849 29.4694C18.4849 29.2262 18.4027 28.9921 18.2292 28.8175C18.0556 28.6428 17.8217 28.5592 17.5779 28.5592V29.3592C17.6384 29.3592 17.658 29.3776 17.6618 29.3814C17.6658 29.3855 17.6849 29.4065 17.6849 29.4694H18.4849ZM17.5779 28.5592H16.2091V29.3592H17.5779V28.5592ZM16.6091 28.9592V26.5612H15.8091V28.9592H16.6091ZM16.2091 26.9612H18.1863V26.1612H16.2091V26.9612ZM18.1863 26.9612C18.4301 26.9612 18.6639 26.8776 18.8376 26.7029C19.0111 26.5283 19.0933 26.2942 19.0933 26.051H18.2933C18.2933 26.1139 18.2741 26.135 18.2701 26.139C18.2664 26.1428 18.2467 26.1612 18.1863 26.1612V26.9612ZM19.0933 26.051C19.0933 25.8078 19.0111 25.5737 18.8376 25.3992C18.6639 25.2244 18.4301 25.1408 18.1863 25.1408V25.9408C18.2467 25.9408 18.2664 25.9593 18.2701 25.9631C18.2741 25.9671 18.2933 25.9881 18.2933 26.051H19.0933ZM18.1863 25.1408H16.2091V25.9408H18.1863V25.1408ZM16.6091 25.5408V23.1429H15.8091V25.5408H16.6091ZM16.2091 23.5429H17.6286V22.7429H16.2091V23.5429ZM17.6286 23.5429C17.8724 23.5429 18.1063 23.4593 18.2799 23.2845C18.4534 23.1099 18.5356 22.8759 18.5356 22.6327H17.7356C17.7356 22.6956 17.7164 22.7166 17.7125 22.7206C17.7087 22.7244 17.6891 22.7429 17.6286 22.7429V23.5429ZM18.5356 22.6327C18.5356 22.3895 18.4534 22.1554 18.2799 21.9808C18.1063 21.806 17.8724 21.7225 17.6286 21.7225V22.5224C17.6891 22.5224 17.7087 22.5409 17.7125 22.5447C17.7164 22.5487 17.7356 22.5697 17.7356 22.6327H18.5356ZM17.6286 21.7225H16.2091V22.5224H17.6286V21.7225ZM16.6091 22.1224V19.7245H15.8091V22.1224H16.6091ZM16.2091 20.1245H18.1863V19.3245H16.2091V20.1245ZM18.1863 20.1245C18.4301 20.1245 18.6639 20.0409 18.8376 19.8661C19.0111 19.6916 19.0933 19.4575 19.0933 19.2143H18.2933C18.2933 19.2772 18.2741 19.2982 18.2701 19.3022C18.2664 19.306 18.2467 19.3245 18.1863 19.3245V20.1245ZM19.0933 19.2143C19.0933 18.9711 19.0111 18.737 18.8376 18.5624C18.6639 18.3877 18.4301 18.3041 18.1863 18.3041V19.1041C18.2467 19.1041 18.2664 19.1225 18.2701 19.1263C18.2741 19.1304 18.2933 19.1514 18.2933 19.2143H19.0933ZM18.1863 18.3041H16.2091V19.1041H18.1863V18.3041ZM16.6091 18.7041V16.3061H15.8091V18.7041H16.6091ZM16.2091 16.7061H17.6286V15.9061H16.2091V16.7061ZM17.6286 16.7061C17.8724 16.7061 18.1063 16.6225 18.2799 16.4478C18.4534 16.2732 18.5356 16.0391 18.5356 15.7959H17.7356C17.7356 15.8588 17.7164 15.8799 17.7125 15.8839C17.7087 15.8877 17.6891 15.9061 17.6286 15.9061V16.7061ZM18.5356 15.7959C18.5356 15.5527 18.4534 15.3186 18.2799 15.1441C18.1063 14.9693 17.8724 14.8857 17.6286 14.8857V15.6857C17.6891 15.6857 17.7087 15.7042 17.7125 15.708C17.7164 15.712 17.7356 15.733 17.7356 15.7959H18.5356ZM17.6286 14.8857H16.2091V15.6857H17.6286V14.8857ZM16.6091 15.2857V12.8878H15.8091V15.2857H16.6091ZM16.2091 13.2878H18.1863V12.4878H16.2091V13.2878ZM18.1863 13.2878C18.4301 13.2878 18.6639 13.2042 18.8376 13.0294C19.0111 12.8548 19.0933 12.6207 19.0933 12.3776H18.2933C18.2933 12.4405 18.2741 12.4615 18.2701 12.4655C18.2664 12.4693 18.2467 12.4878 18.1863 12.4878V13.2878ZM19.0933 12.3776C19.0933 12.1344 19.0111 11.9003 18.8376 11.7257C18.6639 11.5509 18.4301 11.4673 18.1863 11.4673V12.2673C18.2467 12.2673 18.2664 12.2858 18.2701 12.2896C18.2741 12.2936 18.2933 12.3146 18.2933 12.3776H19.0933ZM18.1863 11.4673H16.2091V12.2673H18.1863V11.4673ZM16.6091 11.8673V9.46939H15.8091V11.8673H16.6091ZM16.2091 9.86939H17.6286V9.06939H16.2091V9.86939ZM17.6286 9.86939C17.8724 9.86939 18.1063 9.7858 18.2799 9.61102C18.4534 9.43647 18.5356 9.20238 18.5356 8.95918H17.7356C17.7356 9.02211 17.7164 9.04312 17.7125 9.04714C17.7087 9.05093 17.6891 9.06939 17.6286 9.06939V9.86939ZM18.5356 8.95918C18.5356 8.71598 18.4534 8.4819 18.2799 8.30734C18.1063 8.13257 17.8724 8.04898 17.6286 8.04898V8.84898C17.6891 8.84898 17.7087 8.86743 17.7125 8.87123C17.7164 8.87525 17.7356 8.89626 17.7356 8.95918H18.5356ZM17.6286 8.04898H16.2091V8.84898H17.6286V8.04898ZM16.6091 8.44898V6.61224H15.8091V8.44898H16.6091ZM16.6091 6.61224C16.6091 4.27974 18.4603 2.42041 20.7719 2.42041V1.62041C18.0137 1.62041 15.8091 3.84271 15.8091 6.61224H16.6091ZM20.7719 2.42041C23.0834 2.42041 24.9346 4.27974 24.9346 6.61224H25.7346C25.7346 3.84271 23.53 1.62041 20.7719 1.62041V2.42041ZM24.9346 6.61224V32.1224H25.7346V6.61224H24.9346ZM24.9346 32.1224C24.9346 32.4805 25.1208 32.7498 25.3652 32.9138L25.8109 32.2495C25.7774 32.227 25.7597 32.2058 25.7504 32.1897C25.742 32.1753 25.7346 32.1554 25.7346 32.1224H24.9346ZM25.379 32.9226C29.603 35.5123 30.9616 41.033 28.3891 45.2827L29.0735 45.6969C31.8749 41.069 30.3945 35.0592 25.7972 32.2406L25.379 32.9226ZM28.3891 45.2827C25.8153 49.5345 20.3328 50.8985 16.114 48.312L15.6959 48.9941C20.2984 51.8158 26.2734 50.3226 29.0735 45.6969L28.3891 45.2827ZM16.119 48.3152C13.4948 46.6524 11.8436 43.7174 11.8436 40.5918H11.0436C11.0436 43.9969 12.8398 47.1844 15.6908 48.9909L16.119 48.3152ZM40.1437 50.4898C40.1437 50.5527 40.1246 50.5737 40.1206 50.5778C40.1168 50.5815 40.0972 50.6 40.0368 50.6V51.4C40.2805 51.4 40.5144 51.3164 40.688 51.1416C40.8615 50.9671 40.9437 50.733 40.9437 50.4898H40.1437ZM40.0368 50.6H39.5805V51.4H40.0368V50.6ZM39.5805 50.6C39.5201 50.6 39.5004 50.5815 39.4967 50.5778C39.4927 50.5737 39.4735 50.5527 39.4735 50.4898H38.6735C38.6735 50.733 38.7557 50.9671 38.9292 51.1416C39.1029 51.3164 39.3367 51.4 39.5805 51.4V50.6ZM39.4735 50.4898C39.4735 50.4269 39.4927 50.4059 39.4967 50.4018C39.5004 50.398 39.5201 50.3796 39.5805 50.3796V49.5796C39.3367 49.5796 39.1029 49.6632 38.9292 49.838C38.7557 50.0125 38.6735 50.2466 38.6735 50.4898H39.4735ZM39.5805 50.3796H40.0368V49.5796H39.5805V50.3796ZM40.0368 50.3796C40.0972 50.3796 40.1168 50.398 40.1206 50.4018C40.1246 50.4059 40.1437 50.4269 40.1437 50.4898H40.9437C40.9437 50.2466 40.8615 50.0125 40.688 49.838C40.5144 49.6632 40.2805 49.5796 40.0368 49.5796V50.3796ZM2.07022 50.4898C2.07022 50.5527 2.05105 50.5737 2.04706 50.5778C2.04329 50.5815 2.02367 50.6 1.96324 50.6V51.4C2.207 51.4 2.44087 51.3164 2.61454 51.1416C2.78798 50.9671 2.87022 50.733 2.87022 50.4898H2.07022ZM1.96324 50.6H1.50697V51.4H1.96324V50.6ZM1.50697 50.6C1.44655 50.6 1.42693 50.5815 1.42316 50.5778C1.41916 50.5737 1.4 50.5527 1.4 50.4898H0.6C0.6 50.733 0.68223 50.9671 0.855677 51.1416C1.02935 51.3164 1.26321 51.4 1.50697 51.4V50.6ZM1.4 50.4898C1.4 50.4269 1.41916 50.4059 1.42316 50.4018C1.42693 50.398 1.44655 50.3796 1.50697 50.3796V49.5796C1.26321 49.5796 1.02935 49.6632 0.855677 49.838C0.68223 50.0125 0.6 50.2466 0.6 50.4898H1.4ZM1.50697 50.3796H1.96324V49.5796H1.50697V50.3796ZM1.96324 50.3796C2.02367 50.3796 2.04329 50.398 2.04706 50.4018C2.05105 50.4059 2.07022 50.4269 2.07022 50.4898H2.87022C2.87022 50.2466 2.78798 50.0125 2.61454 49.838C2.44087 49.6632 2.207 49.5796 1.96324 49.5796V50.3796Z" fill="#192646" mask="url(#path-1-outside-1_108_329)"/>
</svg>
