<svg width="39" height="37" viewBox="0 0 39 37" fill="none" xmlns="http://www.w3.org/2000/svg">
<path d="M12.0349 28.877L12.0352 28.8769C12.309 28.8499 12.4997 28.6065 12.4725 28.338C12.445 28.066 12.1978 27.8792 11.928 27.9056C10.2905 28.0579 7.5528 28.386 5.2233 28.9931C4.05907 29.2966 2.99236 29.6708 2.21532 30.13C1.44136 30.5874 0.935455 31.1412 0.935455 31.8094C0.935455 32.5398 1.54887 33.1632 2.56699 33.687C3.59018 34.2134 5.04668 34.6523 6.78624 35.0039C10.2665 35.7074 14.8961 36.0645 19.5 36.0645C24.1038 36.0645 28.7394 35.7074 32.2226 35.0039C33.9636 34.6523 35.4209 34.2134 36.443 33.687C37.46 33.1632 38.0708 32.5396 38.0645 31.8088C38.0642 31.1409 37.56 30.5874 36.788 30.13C36.0128 29.6708 34.9483 29.2966 33.7856 28.9931C31.4592 28.3861 28.7217 28.0579 27.0722 27.9057C26.8023 27.8791 26.555 28.0659 26.5274 28.338C26.5002 28.6065 26.691 28.8499 26.9648 28.8769L26.9651 28.877C30.6978 29.2279 33.236 29.7715 34.8391 30.3281C35.641 30.6065 36.2061 30.8872 36.5694 31.1467C36.751 31.2765 36.8801 31.3995 36.9634 31.5124C37.0467 31.6255 37.0816 31.725 37.0816 31.8094C37.0816 31.9584 36.9921 32.1264 36.7928 32.3089C36.5945 32.4904 36.296 32.6783 35.8988 32.8668C35.105 33.2435 33.9296 33.6168 32.4096 33.947C29.3703 34.6071 24.9635 35.0926 19.5 35.0926C14.0364 35.0926 9.62963 34.6071 6.59038 33.947C5.07031 33.6168 3.89496 33.2435 3.10114 32.8668C2.70398 32.6783 2.40545 32.4904 2.2072 32.3089C2.00785 32.1264 1.91839 31.9584 1.91839 31.8094C1.91839 31.725 1.95327 31.6255 2.03658 31.5124C2.11981 31.3995 2.24896 31.2765 2.43058 31.1467C2.79385 30.8872 3.35895 30.6065 4.16083 30.3281C5.76398 29.7715 8.30211 29.2279 12.0349 28.877ZM12.7816 24.8687L12.7816 24.8687C13.7787 26.3567 15.1262 28.2083 16.3853 29.6886C17.0147 30.4285 17.6233 31.0773 18.156 31.5416C18.4223 31.7737 18.6712 31.9611 18.8953 32.0907C19.1181 32.2196 19.323 32.2953 19.5 32.2953C19.6769 32.2953 19.8822 32.2196 20.1056 32.0907C20.3303 31.9611 20.5799 31.7738 20.8472 31.5417C21.3817 31.0774 21.9926 30.4286 22.6235 29.6886C23.8856 28.2083 25.2332 26.3566 26.2185 24.8684C27.0019 23.6851 28.3022 21.6222 29.4068 19.3683C30.5102 17.1168 31.4235 14.6647 31.4235 12.7057C31.4235 6.20771 26.081 0.935455 19.5 0.935455C12.9189 0.935455 7.57647 6.23121 7.57647 12.7057C7.57647 14.6764 8.48971 17.1343 9.59315 19.3858C10.6978 21.6398 11.9981 23.6968 12.7816 24.8687ZM8.58313 12.7291C8.58313 6.77213 13.4869 1.93077 19.5 1.93077C25.5369 1.93077 30.4405 6.77222 30.4405 12.7291C30.4405 13.9921 29.9939 15.6681 29.1502 17.6288C28.3071 19.588 27.0699 21.8262 25.4942 24.2118C24.0963 26.3167 22.7342 28.0821 21.651 29.3323C21.1094 29.9576 20.6381 30.4532 20.2676 30.7978C20.0823 30.9703 19.9231 31.104 19.7935 31.1971C19.669 31.2866 19.5793 31.333 19.5234 31.3457C19.4646 31.3329 19.3723 31.2863 19.2456 31.1968C19.1139 31.1037 18.9528 30.97 18.7659 30.7977C18.3921 30.4531 17.9187 29.9575 17.3755 29.3323C16.2895 28.0821 14.9274 26.3168 13.5294 24.2118C11.9537 21.8262 10.7165 19.588 9.87346 17.6288C9.02981 15.6681 8.58313 13.9921 8.58313 12.7291ZM13.6245 12.7291C13.6245 15.9261 16.2632 18.5294 19.5 18.5294C22.7606 18.5294 25.3754 15.9259 25.3754 12.7291C25.3754 9.53212 22.7367 6.92877 19.5 6.92877C16.2632 6.92877 13.6245 9.53212 13.6245 12.7291ZM14.6075 12.7291C14.6075 10.0496 16.8075 7.87725 19.5 7.87725C22.2164 7.87725 24.4162 10.0498 24.4162 12.7291C24.4162 15.3848 22.2166 17.5575 19.5 17.5575C16.8073 17.5575 14.6075 15.385 14.6075 12.7291Z" fill="white" stroke="white" stroke-width="0.129091"/>
</svg>
