<svg width="29" height="29" viewBox="0 0 29 29" fill="none" xmlns="http://www.w3.org/2000/svg">
<path d="M14.5 0C10.4077 0 7.07322 3.32292 7.07322 7.40104C7.07322 9.81771 8.23524 11.9826 10.0541 13.342L11.014 14.0469L9.90249 14.3993C8.18472 14.9531 6.56799 15.8594 5.15336 17.0174C2.52618 19.1319 0.757889 22.1024 0.050572 25.3247C-0.151519 26.2309 0.101095 27.0868 0.656844 27.7917C1.21259 28.4965 2.07148 28.8993 2.98089 28.8993H13.3885C13.6917 28.8993 13.9443 28.6476 13.9443 28.3455C13.9443 28.0434 13.6917 27.7917 13.3885 27.7917H2.98089C2.22305 27.7917 1.76834 27.3889 1.56625 27.1372C1.21259 26.684 1.06102 26.1302 1.21259 25.5764C2.47566 19.434 7.9321 14.9531 14.2474 14.8021H14.298C14.399 14.8021 14.5 14.8021 14.6011 14.8021C14.7021 14.8021 14.8032 14.8021 14.9042 14.8021H14.9548C18.1377 14.9028 21.2196 16.0608 23.5941 18.1753C23.8467 18.3767 24.2004 18.3767 24.4025 18.125C24.6046 17.8733 24.6046 17.5208 24.352 17.3194C22.8363 16.0104 21.1185 15.0538 19.2492 14.4497L18.1377 14.0972L19.0976 13.3924C20.9164 12.033 22.0784 9.9184 22.0784 7.45139C21.9269 3.32292 18.5924 0 14.5 0ZM14.5 1.10764C17.9861 1.10764 20.8154 3.92708 20.8154 7.40104C20.8154 10.724 18.1377 13.4931 14.8537 13.6441C14.7527 13.6441 14.6516 13.6441 14.6011 13.6441C14.5506 13.6441 14.399 13.6441 14.3485 13.6441C11.2666 13.4931 8.79099 11.026 8.48785 8.00521H8.38681V7.40104C8.23524 3.92708 11.0645 1.10764 14.5 1.10764ZM28.3433 19.0312C28.1917 19.0312 28.0906 19.1319 27.9896 19.283L22.129 27.3889C21.8258 27.7413 21.4722 27.842 21.2196 27.842C21.0175 27.842 20.6133 27.842 20.2596 27.4896L16.4704 23.8142C16.2178 23.6128 15.9147 23.6128 15.6621 23.8142C15.46 24.066 15.46 24.3681 15.6621 24.6198L19.4513 28.2951C19.906 28.6979 20.5122 28.9497 21.1185 28.9497C21.169 28.9497 21.2196 28.9497 21.2701 28.9497C21.9269 28.8993 22.5837 28.5972 22.9879 28.0434L28.8485 19.8872C29.0506 19.6354 29 19.283 28.6969 19.0816C28.6464 19.0312 28.4948 18.9809 28.3433 19.0312Z" fill="#192646"/>
</svg>
