<svg width="24" height="17" viewBox="0 0 24 17" fill="none" xmlns="http://www.w3.org/2000/svg">
<path d="M9.44955 16.1557L9.45042 16.1548L23.1489 2.5557C23.1491 2.55553 23.1493 2.55535 23.1495 2.55518C23.617 2.0927 23.6168 1.30653 23.1489 0.844297C22.6842 0.385234 21.8986 0.385234 21.4339 0.844297L8.55828 13.5638L2.56612 7.6443L2.21472 8L2.56611 7.6443C2.10142 7.18523 1.31576 7.18523 0.851063 7.6443L1.20245 8L0.851063 7.6443C0.383346 8.10635 0.382979 8.89206 0.849964 9.35462C0.85033 9.35498 0.850696 9.35534 0.851063 9.3557L7.66526 16.154L7.66701 16.1557C7.91727 16.4029 8.2583 16.5 8.55828 16.5C8.85827 16.5 9.1993 16.4029 9.44955 16.1557Z" fill="white" stroke="white"/>
</svg>
