<svg width="129" height="124" viewBox="0 0 129 124" fill="none" xmlns="http://www.w3.org/2000/svg">
<path d="M97.7578 25.3935C106.425 25.3935 114.185 28.9204 119.829 34.5634C125.473 40.2064 129 48.0663 129 56.6315C129 65.2976 125.473 73.0567 119.829 78.6997C114.185 84.3427 106.324 87.8696 97.7578 87.8696H26.8078C19.4508 87.8696 12.6984 84.8465 7.86093 80.0097C3.02343 75.1728 0 68.4214 0 61.0653C0 53.7093 3.02343 46.9578 7.86093 42.121C11.993 37.9895 17.3344 35.2688 23.3813 34.4626C23.3813 33.7572 23.2805 33.1526 23.2805 32.548C23.2805 23.5797 26.9086 15.4175 32.8547 9.57295C38.7 3.72841 46.8633 0 55.8328 0C64.8023 0 72.9656 3.62764 78.8109 9.47218C83.4469 14.1075 86.6719 20.1536 87.8813 26.905C88.5867 26.7035 89.2922 26.5019 89.9976 26.3004C92.5172 25.7966 95.1375 25.3935 97.7578 25.3935Z" fill="#192646"/>
<path d="M62.5846 123.229C61.3701 123.229 60.3892 122.248 60.3892 121.033V36.8107C60.3892 35.5962 61.3701 34.6152 62.5846 34.6152C63.7992 34.6152 64.7801 35.5962 64.7801 36.8107V121.033C64.7801 122.248 63.7992 123.229 62.5846 123.229Z" fill="white"/>
<path d="M62.5845 61.0312C62.024 61.0312 61.4634 60.821 61.043 60.4005L47.9401 47.2977C47.0759 46.4335 47.0759 45.0555 47.9401 44.1913C48.8043 43.3271 50.1823 43.3271 51.0465 44.1913L62.6079 55.7526L74.1692 44.1913C75.0334 43.3271 76.4114 43.3271 77.2756 44.1913C78.1398 45.0555 78.1398 46.4335 77.2756 47.2977L64.1727 60.4005C63.7056 60.821 63.1451 61.0312 62.5845 61.0312Z" fill="white"/>
<path d="M75.6873 114.283C75.1267 114.283 74.5662 114.073 74.1458 113.653L62.5844 102.091L51.0231 113.653C50.1589 114.517 48.7809 114.517 47.9167 113.653C47.0525 112.789 47.0525 111.411 47.9167 110.546L61.0196 97.4436C61.837 96.6261 63.2851 96.6261 64.1259 97.4436L77.2288 110.546C78.093 111.411 78.093 112.789 77.2288 113.653C76.8084 114.05 76.2478 114.283 75.6873 114.283Z" fill="white"/>
<path d="M26.1255 102.162C25.3781 102.162 24.6307 101.765 24.2336 101.064C23.6264 100.013 23.9767 98.6815 25.0277 98.0742L97.9693 55.9629C99.0204 55.3556 100.352 55.7059 100.959 56.757C101.566 57.808 101.216 59.1393 100.165 59.7466L27.2232 101.858C26.8729 102.068 26.4992 102.162 26.1255 102.162Z" fill="white"/>
<path d="M40.4197 109.028C40.2328 109.028 40.0459 109.005 39.8591 108.958C38.6913 108.655 37.9906 107.44 38.3176 106.272L42.5451 90.4834L26.7562 86.2559C25.5884 85.9523 24.8877 84.7378 25.2147 83.57C25.5184 82.4022 26.7329 81.7015 27.9007 82.0284L45.7916 86.8165C46.3521 86.9566 46.8426 87.3303 47.1229 87.8441C47.4032 88.358 47.4966 88.9419 47.3331 89.5025L42.5451 107.393C42.2881 108.398 41.4006 109.028 40.4197 109.028Z" fill="white"/>
<path d="M97.8757 75.8624C97.6888 75.8624 97.502 75.839 97.3151 75.7923L79.4242 71.0043C78.2564 70.7007 77.5557 69.4861 77.8827 68.3183L82.6707 50.4274C82.9744 49.2596 84.1889 48.5589 85.3567 48.8859C86.5245 49.1896 87.2252 50.4041 86.8982 51.5719L82.6707 67.3607L98.4596 71.5882C99.6274 71.8918 100.328 73.1064 100.001 74.2742C99.7208 75.2084 98.8333 75.8624 97.8757 75.8624Z" fill="white"/>
<path d="M99.0671 102.162C98.6934 102.162 98.3197 102.068 97.9693 101.858L25.0277 59.7466C23.9767 59.1393 23.6264 57.808 24.2336 56.757C24.8409 55.7059 26.1722 55.3556 27.2232 55.9629L100.165 98.0742C101.216 98.6815 101.566 100.013 100.959 101.064C100.562 101.765 99.8145 102.162 99.0671 102.162Z" fill="white"/>
<path d="M84.7731 109.028C83.8155 109.028 82.9279 108.374 82.6477 107.393L77.8596 89.5025C77.7195 88.9419 77.7896 88.3347 78.0698 87.8442C78.3501 87.3303 78.8406 86.98 79.4011 86.8165L97.292 82.0285C98.4598 81.7248 99.651 82.4022 99.978 83.57C100.282 84.7378 99.6043 85.929 98.4365 86.256L82.6477 90.4834L86.8751 106.272C87.1788 107.44 86.5014 108.631 85.3336 108.958C85.1468 109.005 84.9599 109.028 84.7731 109.028Z" fill="white"/>
<path d="M27.3165 75.8624C26.3589 75.8624 25.4713 75.2084 25.1911 74.2275C24.8874 73.0596 25.5648 71.8685 26.7326 71.5415L42.5214 67.314L38.2939 51.5252C37.9903 50.3574 38.6676 49.1662 39.8355 48.8392C41.0033 48.5356 42.1944 49.2129 42.5214 50.3807L47.3095 68.2716C47.4496 68.8322 47.3795 69.4394 47.0992 69.9299C46.819 70.4437 46.3285 70.7941 45.7679 70.9576L27.877 75.7456C27.6902 75.839 27.5033 75.8624 27.3165 75.8624Z" fill="white"/>
</svg>
