<svg width="43" height="43" viewBox="0 0 43 43" fill="none" xmlns="http://www.w3.org/2000/svg">
<path d="M17.6737 13.1228C17.6737 13.3084 17.8559 13.494 18.0381 13.6795C18.2203 13.8651 18.4025 13.8651 18.5847 13.8651C18.5847 13.8651 19.3136 13.6795 20.2246 13.6795C22.411 13.6795 25.3263 14.4218 26.6017 18.5044C26.6017 18.69 26.7839 18.8756 26.9661 18.8756H27.1483C27.3305 18.8756 27.3305 18.8756 27.5127 18.8756C27.6949 18.69 32.0678 16.4631 32.6144 9.78253C32.6144 9.59696 32.6144 5.88551 29.8814 2.91635C26.9661 -0.0528131 22.411 -0.795103 15.6695 0.875049C15.4873 0.875049 13.8475 1.61734 13.1186 2.91635C13.1186 3.10192 12.572 4.77207 14.3941 6.81337C15.6695 8.11238 17.4915 11.4527 17.6737 13.1228ZM14.5763 3.47306C14.7585 2.91635 15.6695 2.35963 16.2161 2.17406C22.0466 0.689477 26.4195 1.24619 28.9703 3.84421C31.339 6.25665 31.1568 9.59695 31.339 9.59695C30.9746 13.8651 28.9703 16.092 27.8771 17.0199C26.0551 12.7517 22.411 12.195 20.4068 12.195C19.8602 12.195 19.4958 12.195 19.1314 12.195C18.7669 10.1537 16.9449 7.18451 15.8517 5.88551C14.3941 4.40093 14.5763 3.47306 14.5763 3.47306Z" fill="#192646"/>
<path d="M12.0254 33.1647L16.9449 25.3706C17.1271 24.9995 17.1271 24.6283 16.7627 24.4428C16.7627 24.4428 14.0297 22.0303 14.5763 18.8756C14.5763 18.8756 15.1229 16.4631 16.3983 15.1641C16.5805 14.9786 16.5805 14.793 16.5805 14.4218C16.5805 14.0507 16.3983 14.0507 16.2161 13.8651C16.0339 13.8651 13.8475 12.7517 11.1144 12.7517C7.65254 12.7517 4.73729 14.4218 2.55085 17.5766C2.55085 17.5766 -1.09322 26.484 7.28814 33.3502C7.47034 33.5358 8.56356 34.6492 9.83898 34.6492C10.5678 34.6492 11.4788 34.2781 12.0254 33.1647ZM3.82627 18.3189C5.6483 15.7208 8.01695 14.2363 11.1144 14.2363C12.572 14.2363 14.0297 14.6074 14.7585 14.793C13.6653 16.4631 13.3008 18.3189 13.3008 18.5044C12.7542 21.6592 14.5763 24.0716 15.4873 24.9995L10.9322 32.4224C10.5678 33.1647 10.2034 33.1647 10.0212 33.1647C9.47458 33.1647 8.74576 32.6079 8.56356 32.2368C0.54661 26.1129 3.82627 18.5044 3.82627 18.3189Z" fill="#192646"/>
<path d="M36.9873 23.3293C31.8856 23.1437 27.5127 20.9169 27.3305 20.9169C27.1483 20.7313 26.9661 20.7313 26.7839 20.9169C26.6017 20.9169 26.4195 21.1024 26.4195 21.288C25.3263 24.0716 23.5042 25.5562 20.9534 25.5562C19.678 25.5562 18.5847 25.185 18.5847 25.185C18.4025 25.185 18.0381 25.185 17.8559 25.185C17.6737 25.3706 17.4915 25.5562 17.4915 25.7418C17.3093 29.2676 18.0381 32.2368 19.8602 34.2781C22.411 37.2473 26.2373 37.4328 26.4195 37.4328C34.4364 37.0617 37.7161 29.4532 37.7161 29.0821C38.8093 27.0408 39.1737 25.3706 38.6271 24.2572C38.2627 23.5149 37.1695 23.3293 36.9873 23.3293ZM36.6229 28.7109C36.4407 29.0821 33.7076 35.9482 26.6017 36.1338C26.2373 36.1338 23.322 35.7627 21.1356 33.3502C19.678 31.6801 19.1314 29.6388 19.1314 26.8552C19.678 27.0408 20.2246 27.0408 20.9534 27.0408C22.7754 27.0408 25.6907 26.484 27.5127 22.587C28.9703 23.3293 32.7966 24.6283 36.9873 24.8139C36.9873 24.8139 37.3517 24.8139 37.5339 25.185C37.7161 25.3706 37.8983 26.2985 36.6229 28.7109Z" fill="#192646"/>
<path d="M17.4915 19.4323C17.4915 21.288 18.9492 22.587 20.589 22.587C22.2288 22.587 23.6864 21.1024 23.6864 19.4323C23.6864 17.7621 22.2288 16.2776 20.589 16.2776C18.9492 16.092 17.4915 17.5766 17.4915 19.4323ZM22.411 19.4323C22.411 20.3602 21.6822 21.1024 20.7712 21.1024C19.8602 21.1024 19.1314 20.3602 19.1314 19.4323C19.1314 18.5044 19.8602 17.7621 20.7712 17.7621C21.6822 17.7621 22.411 18.5044 22.411 19.4323Z" fill="#192646"/>
<path d="M10.5678 1.43177C10.9322 1.43177 11.1144 0.875049 10.9322 0.503904C10.75 0.13276 10.3856 -0.052813 10.0212 0.132759C4.91949 2.17406 1.09322 6.81337 0 12.195C0 12.5661 0.182203 12.9373 0.54661 13.1228H0.728814C1.09322 13.1228 1.45763 12.9373 1.45763 12.5661C2.36864 7.55566 5.83051 3.28749 10.5678 1.43177Z" fill="#192646"/>
<path d="M23.8686 40.5876C19.3136 42.0721 13.8475 41.1443 10.0212 37.9895C9.65678 37.804 9.29237 37.804 8.92797 38.1751C8.74576 38.5463 8.74576 38.9174 9.11017 39.2886C12.0254 41.701 15.4873 43 19.3136 43C20.9534 43 22.7754 42.8144 24.2331 42.2577C24.5975 42.0721 24.7797 41.701 24.7797 41.3298C24.7797 40.5876 24.2331 40.402 23.8686 40.5876Z" fill="#192646"/>
<path d="M42.6356 14.2363C41.7246 9.78253 39.3559 5.88551 35.7119 3.28749C35.3475 3.10192 34.9831 3.10192 34.6186 3.47306C34.4364 3.84421 34.4364 4.21535 34.8008 4.5865C38.0805 6.99894 40.2669 10.7104 41.178 14.6074C41.3602 15.7208 41.5424 16.8343 41.5424 17.9477C41.5424 19.6179 41.3602 21.288 40.8136 22.7726C40.6314 23.1437 40.9958 23.5149 41.3602 23.7005H41.5424C41.9068 23.7005 42.089 23.5149 42.2712 23.1437C42.8178 21.4736 43 19.6179 43 17.7621C43 16.6487 42.8178 15.3497 42.6356 14.2363Z" fill="#192646"/>
<path d="M10.3856 3.47306C6.37712 4.95764 3.64407 8.66909 3.09746 12.9373C3.09746 13.3084 3.27966 13.6796 3.82627 13.6796C4.19068 13.6796 4.55508 13.3084 4.55508 12.9373C4.91949 9.22581 7.47034 6.07108 10.9322 4.77207C11.2966 4.5865 11.4788 4.21535 11.2966 3.84421C11.1144 3.47306 10.75 3.28749 10.3856 3.47306Z" fill="#192646"/>
<path d="M12.9364 37.2473C12.7542 37.6184 12.7542 37.9895 13.1186 38.1751C14.9407 39.4741 17.1271 40.0308 19.3136 40.0308C20.4068 40.0308 21.3178 39.8453 22.411 39.6597C22.7754 39.4741 22.9576 39.103 22.9576 38.7318C22.9576 38.3607 22.411 38.1751 22.0466 38.1751C19.3136 38.9174 16.3983 38.5463 14.0297 36.8761C13.6653 36.6905 13.1186 36.8761 12.9364 37.2473Z" fill="#192646"/>
<path d="M34.6186 7.55566C34.2542 7.9268 34.2542 8.29795 34.6186 8.66909C37.5339 11.8238 38.6271 16.092 38.0805 20.1746C38.0805 20.7313 37.8983 21.1024 37.7161 21.4736C37.5339 21.8447 37.8983 22.2159 38.2627 22.4015H38.4449C38.8093 22.4015 38.9915 22.2159 39.1737 21.8447C39.3559 21.288 39.3559 20.9169 39.5381 20.3602C40.267 15.7208 38.9915 11.0815 35.7119 7.55566C35.3475 7.18451 34.8008 7.18451 34.6186 7.55566Z" fill="#192646"/>
</svg>
