<!-- Generated by IcoMoon.io -->
<svg version="1.1" xmlns="http://www.w3.org/2000/svg" width="1024" height="1024" viewBox="0 0 1024 1024">
<g id="icomoon-ignore">
</g>
<path fill="#000" d="M522.594 327.21h28.249v423.723h-28.249v-423.723zM470.805 327.21h30.603v423.723h-30.603v-423.723zM992.632 61.204c13.262 7.334 10.276 15.675 10.189 35.304l-0.163 894.379c-2.51 14.578-13.080 14.51-30.407 14.321l-449.657-0.039v-233.048c14.486 0 36.646 2.653 47.080-2.354 4.597-4.596 4.597-456.791 0-461.388-10.784-5.174-32.336-1.638-47.080-2.855-4.066-5.45-3.677-228.043-1.364-245.683 19.812-4.39 91.509-1.226 116.712-1.226l354.691 2.59zM451.974 308.378c-0.238 10.645-2.355 9.354-2.355 21.186v421.37c0 27.135 11.52 21.186 51.789 21.186v233.048h-463.742c-7.934 0-16.479-4.159-16.479-11.77v-918.068c0-6.358 1.124-6.492 2.354-11.77 5.28-1.231 5.412-2.355 11.77-2.355h466.096v244.819c-12.988 0-39.377-1.549-49.434 2.354zM44.728 21.187h932.193v16.479h-932.193v-16.479zM23.542 42.373c-11.513 2.683-23.541 14.56-23.541 28.248v925.132c0 12.685 12.68 28.249 25.894 28.249h969.858c18.159 0 28.249-20.648 28.249-40.018v-906.298c0-24.34-13.81-31.271-25.894-37.664 0-13.809 4.809-40.018-9.417-40.018h-953.379c-15.33 0-11.77 26.544-11.77 42.373z"></path>
<path fill="#000" d="M263.65 517.885c0 20.979-15.015 28.249-32.955 28.249-38.234 0-29.66-69.889 14.845-52.677 9.157 3.541 18.11 13.929 18.11 24.43zM223.633 383.705c-14.213-9.517-23.427-26.424-31.091-27.597-6.532-1.002-11.281 2.612-11.281 11.118 0 7.959 28.336 31.873 34.842 38.133 10.543 10.145 7.704 10.899 7.55 30.114-0.101 12.55-0.018 25.131-0.018 37.683-12.668 1.054-15.632 6.475-23.541 11.77-10.66-9.265-43.847-26.218-48.408-33.982-8.546-14.548-6.214-62.533-22.212-62.533-17.917 0-3.423 34.239-2.354 47.082-22.879-12.106-39.314-30.18-47.185-18.794-9.769 14.133 27.11 25.228 35.414 37.626-14.759 0-35.766 3.816-44.727 14.124 7.079 13.379 8.029 11.791 26.858 8.093 44.806-8.798 34.777-13.317 63.065 5.563 7.492 5.001 19.613 14.766 27.778 16.947-5.839 39.75-0.436 20.42 0 40.017-11.191 2.989-38.881 26.616-46.195 28.917-9.851 3.098-48.842-9.738-64.443-10.084-11.957 17.854-3.794 22.444 37.664 25.893-5.139 7.675-12.024 9.755-24.535 17.839-22.24 14.372-11.65 22.179-1.359 22.179 6.623 0 25.354-18.319 37.665-21.186-1.068 12.842-15.563 47.082 2.354 47.082 17.705 0 11.67-54.786 24.909-66.898l19.817-13.14c8.608-5.737 16.517-11.515 25.894-16.479 7.077 4.739 13.974 9.542 23.541 11.77 0 26.426 4.263 56.101-6.306 66.669-8.331 8.327-59.526 48.678-24.297 48.678 8.343 0 23.255-20.974 30.603-25.894v42.373c5.076 3.399 6.926 5.385 14.123 7.062 10.638-15.884 7.063-22.575 7.063-49.435 6.629 4.44 11.235 9.867 17.027 15.928 8.697 9.104 6.3 9.966 22.99 9.966 4.14-17.768-4.419-20.235-30.022-45.307-18.118-17.743-12.35-17.301-12.35-70.040 11.417-0.95 17.208-7.174 25.893-11.77 58.683 39.296 46.944 20.851 56.688 68.075 1.978 9.582 3.262 28.44 13.933 28.44 17.247 0 6.391-29.748 2.354-47.082 15.024 3.5 28.138 21.186 40.017 21.186 5.325 0 19.1-7.473-2.275-21.258-6.776-4.371-21.665-12.882-25.973-18.76 13.863-0.309 38.058-4.165 44.727-14.124l-2.642-9.325c-20.985-5.129-51.305 9.886-65.603 8.128-7.72-0.95-36.598-25.972-49.457-29.406 0-21.306 5.345-0.83-0.403-39.95 13.563-3.582 40.277-28.807 50.024-29.859 11.958-1.291 49.256 12.441 65.726 8.604l2.642-9.325c-7.737-11.102-29.599-14.216-45.015-14.216 10.394-15.521 42.981-21.343 36.288-36.114-7.607-16.786-35.113 13.826-48.057 17.283 1.323-15.9 16.323-47.082-2.354-47.082-17.435 0-11.389 54.798-24.882 66.927l-45.739 29.589c-7.908-5.296-10.872-10.716-23.54-11.77 0-26.426-4.265-56.1 6.306-66.668 10.737-10.733 36.066-29.39 36.066-41.617 0-28.258-39.363 16.817-42.372 18.832 0-17.62 1-32.682-2.354-47.080l-9.325-2.642c-13.965 9.579-9.508 27.196-9.508 49.722z"></path>
<path fill="#000" d="M743.871 520.24c0-36.991 56.496-42.328 56.496 2.354 0 23.372-34.913 32.277-49.905 14.595-3.072-3.621-6.591-10.69-6.591-16.948zM772.119 386.060c-28.925-13.064-30.807-29.248-47.080-30.602-14.151 12.821-1.57 18.979 25.313 45.305 12.056 11.806 12.697 7.427 12.424 29.948-0.172 14.145-0.074 28.298-0.074 42.446-10.777 0.897-18.647 5.093-23.54 11.77-23.873-15.985-48.746-25.718-52.203-39.603-0.238-0.956-1.233-7.105-1.4-8.016-1.432-7.881-1.928-9.872-3.48-17.706-1.236-6.244-4.429-31.19-11.183-31.19-14.542 0-13.887 8.060-11.758 18.566 1.152 5.699 5.096 24.441 7.051 28.515-7.533-2.012-18.878-10.086-25.419-14.614-5.59-3.866-24.015-17.502-24.015 2.844 0 9.65 29.258 19.129 37.665 30.602-10.063 0-44.727 2.676-44.727 14.124 0 16.148 13.733 10.28 28.421 7.251 33.691-6.947 35.631-10.65 49.787-0.744l39.494 26.45c-4.743 9.885-2.319 25.359 0 35.311-61.174 40.963-38.251 33.735-86.784 25.577-10.122-1.7-30.918-10.313-30.918 5.025 0 9.282 10.12 10.443 18.544 12.060 7.655 1.467 17.52 4.225 26.182 4.419-9.105 12.427-37.665 17.349-37.665 32.956 0 18.027 26.825-2.186 29.18-3.778 7.487-5.064 13.395-8.108 20.254-12.701-3.269 14.035-6.146 28.337-9.417 42.373 5.913 3.959 5.869 8.048 13.248 6.288 10.134-2.414 12.115-33.412 16.609-54.117 3.105-14.303 1.395-9.112 23.343-23.737 7.794-5.193 21.169-15.747 29.192-17.89 10.389 6.958 8.177 8.192 23.54 11.77 0 39.81 5.422 53.078-8.754 66.576-10.543 10.038-32.236 27.711-35.973 41.71l6.806 7.319c0.313 0.276 1.033 0.842 1.292 1.063 0.259 0.218 0.897 0.669 1.318 1.035 27.379-14.488 20.314-30.602 44.726-30.602 14.51 0 10.953-0.055 29.979 19.47 3.003 3.082 7.302 8.347 11.484 9.525 6.406 1.803 10.326-1.546 10.326-10.163 0-7.958-28.335-31.873-34.84-38.132-12.516-12.044-7.531-34.652-7.531-67.799 12.47-2.905 14.527-5.734 23.541-11.77l49.441 32.95c9.132 14.916 4.68 52.517 21.18 63.567l9.325-2.643c4.050-16.701-4.616-24.537-4.616-44.437 7.793 4.122 11.849 6.19 19.303 11.3 7.625 5.224 27.777 20.204 27.777 0.471 0-8.935-24.327-19.009-37.665-30.603 10.903-0.243 44.727-3.806 44.727-16.479 0-15.176-19.871-6.941-28.892-5.357-45.509 7.989-27.644 15.715-88.809-25.245 2.318-9.952 4.743-25.426 0-35.311 8.546-5.723 16.456-10.969 25.425-16.947 28.443-18.961 17.316-18.141 61.881-9.148 15.91 3.21 30.396 9.561 30.396-6.861 0-8.678-9.107-9.018-17.762-10.488-9.387-1.592-17.676-3.636-26.965-3.636 9.774-13.339 37.665-18.644 37.665-32.955 0-22.637-29.308 4.721-47.082 14.124 0-12.59 12.505-47.082 0-47.082-22.976 0-12.801 33.914-23.949 60.796-3.073 7.41-4.158 6.007-11.178 10.008l-32.647 21.495c-0.392 0.291-0.97 0.727-1.341 1.013-4.284 3.289-1.613 1.254-3.858 3.203-8.017-5.369-13.376-10.728-25.894-11.77 0-71.981-7.762-52.366 28.838-88.864 2.493-2.486 13.169-12.554 14.133-14.465 4.033-8.017-2.745-16.022-11.097-13.32-6.215 2.010-23.993 24.273-31.873 29.55h-9.417z"></path>
<path fill="#000" d="M965.149 670.897v296.607h-303.669c-12.773 0-12.773 21.186 0 21.186h296.609c18.2 0 28.248-10.048 28.248-28.249v-284.837c0-20.719-21.186-16.114-21.186-4.708z"></path>
<path fill="#000" d="M522.594 305.522v-244.317h470.039l-354.691-2.59c-25.203 0-96.9-3.164-116.712 1.226-2.313 17.64-2.702 240.233 1.364 245.683z"></path>
<path fill="#000" d="M965.149 623.816c0 22.593-3.427 32.955 11.77 32.955 12.483 0 9.417-21.54 9.417-35.31 0-11.403-21.186-18.68-21.186 2.354z"></path>
</svg>
