<!-- Generated by IcoMoon.io -->
<svg version="1.1" xmlns="http://www.w3.org/2000/svg" width="1024" height="1024" viewBox="0 0 1024 1024">
<g id="icomoon-ignore">
</g>
<path fill="#000" d="M523.18 326.822l26.829-0.209c5.775 4.472 2.438 89.94 2.438 102.662 0 44.367 2.048 300.348-0.755 321.403l-29.791 0.166c-2.237-15.431-1.944-354.98-0.898-413.399 0.14-7.789-0.788-5.839 2.178-10.622zM471.756 326.429h29.066v422.568h-29.066v-422.568zM523.18 60.368h462.812c10.437 0 15.651 5.213 15.651 15.65v912.21c0 10.438-5.213 15.653-15.651 15.653h-462.812v-232.526c37.618 0 49.187 5.018 49.187-13.413v-442.691c0-13.577-23.6-8.943-49.187-8.943v-245.938zM451.634 315.249v447.163c0 13.577 23.6 8.941 49.188 8.941v232.526h-462.813c-7.534 0-15.651-3.952-15.651-11.18v-921.154c0-7.228 8.117-11.179 15.651-11.179h462.813v245.938c-25.588 0-49.188-4.634-49.188 8.943zM46.953 22.359h930.097v15.65h-930.097v-15.65zM24.596 42.481c-15.917 3.708-24.595 18.053-24.595 38.009v907.737c0 16.867 13.16 35.773 29.066 35.773h965.87c17.173 0 29.066-20.51 29.066-42.48v-898.795c0-10.764-2.675-20.321-6.668-26.87-5.76-9.455-10.696-10.601-20.162-15.612 0-8.43 0.622-18.963 0.233-27.060-0.498-10.332-3.613-13.183-13.647-13.183h-943.511c-20.784 0-15.651 21.781-15.651 42.482z"></path>
<path fill="#000" d="M152.035 608.14c0-23.448 18.579-58.011 35.772-62.602 4.087 15.302 22.118 20.892 38.009 24.594l0.227 100.84c-0.211 14.731-5.073 16.834-16.131 13.742-31.035-8.679-57.877-37.833-57.877-76.575zM321.957 596.961c-24.772 0-60.043-17.816-64.839-35.773 15.303-4.084 20.892-22.116 24.595-38.008 21.613 0 43.225 0 64.838 0 11.254 0 22.486-0.129 33.721-0.181 15.365-0.070 18.58 2.364 16.196 14.038-6.288 30.795-38.922 59.924-74.511 59.924zM207.931 518.708c0-30.787 44.717-27.717 44.717 0 0 28.834-44.717 28.834-44.717 0zM206.701 490.871c3.848-5.212-1.285-0.901 5.664-6.172 1.079-0.817 2.869-1.76 4.385-2.398 9.683-4.074 27.291-1.54 36.191 7.637-22.306-8.102-21.797-11.256-46.241 0.933zM178.865 514.235c-21.614 0-43.226 0-64.839 0-34.226 0-53.994 5.506-50.378-14.318 5.38-29.497 38.392-59.464 77.206-59.464 23.616 0 57.983 18.471 62.603 35.773-15.303 4.088-20.893 22.119-24.594 38.009zM272.77 491.877c-4.087-15.302-22.118-20.892-38.010-24.593l-0.075-93.978c-0.084-5.805-1.752-22.284 9.019-22.284 16.536 0 35.152 15.987 44.216 25.093 41.304 41.5 10.199 108.995-15.151 115.762zM219.109 469.521c-3.961-2.901-9.162-10.321-13.95-15.116-5.416-5.423-9.033-9.361-15.473-13.592-32.518-21.367-83.849-18.315-112.029 10.223-8.455 8.562-12.281 10.57-18.093 22.154-8.012 15.963-21.139 43.189 5.496 54.24 11.4 4.731 99.67 2.458 116.041 2.458-12.125 16.547-42.481 22.624-42.481 84.96 0 61.416 86.862 113.353 101.094 67.557 3.349-10.781 1.754-99.025 1.754-114.509 11.204 8.207 26.536 42.48 80.489 42.48 26.357 0 46.495-11.35 60.924-24.035 17.695-15.558 47.58-65.722 11.104-77.057-10.78-3.349-99.025-1.754-114.509-1.754 8.889-13.274 42.481-23.308 42.481-84.96 0-62.039-85.235-110.948-100.518-69.218-3.505 9.569-2.332 25.026-2.329 37.915 0.007 26.084 0 52.17 0 78.255z"></path>
<path fill="#000" d="M715.459 610.376c0-27.086 17.829-60.045 35.773-64.838 4.085 15.302 22.117 20.892 38.009 24.594 0 21.614 0 43.226 0 64.838 0 11.255 0.122 22.483 0.181 33.72 0.069 13.224-1.653 19.348-14.373 16.531-30.597-6.775-59.591-38.575-59.591-74.844zM885.381 596.961c-24.772 0-60.043-17.816-64.839-35.773 11.24-3 18.814-17.44 21.603-27.584 1.809-6.581-0.166-10.423 7.464-10.423 25.725 0 88.33-2.708 109.554 2.235 0 38.87-32.865 71.545-73.782 71.545zM791.477 541.066c-23.418 0-29.52-44.715 2.235-44.715 27.87 0 30.898 44.715-2.235 44.715zM742.289 514.235l-109.050-0.502c-14.55-4.815-2.928-24.258 1.656-33.109 11.141-21.516 38.748-40.171 69.385-40.171 23.448 0 58.012 18.58 62.603 35.773-15.303 4.088-20.892 22.119-24.594 38.009zM836.194 491.877c-7.342-13.874-20.879-22.981-40.245-24.593 0-22.357 0-44.715 0-67.074 0-21.516-6.042-52.172 16.561-48.136 59.711 10.661 84.984 107.369 23.684 139.803zM782.534 469.521c-7.225-5.293-10.092-14.92-29.916-28.217-86.765-58.19-178.829 66.269-124.262 86.254 9.572 3.505 25.026 2.332 37.916 2.329 26.084-0.006 52.17 0 78.254 0-12.125 16.547-42.481 22.624-42.481 84.96 0 60.39 85.918 114.251 100.748 67.209 3.844-12.197 2.099-97.463 2.099-114.161 11.624 8.517 26.437 42.48 80.489 42.48 69.674 0 115.784-87.496 72.029-101.093-11.012-3.421-100.827-1.754-116.744-1.754 2.948-2.564-1.332 0.731 3.683-3.024 11.103-8.311 18.316-12.837 26.729-26.93 56.472-94.626-67.749-174.644-86.216-124.224-3.505 9.569-2.332 25.026-2.329 37.915 0.006 26.084 0 52.17 0 78.255z"></path>
<path fill="#000" d="M963.633 679.687v286.183h-301.834c-4.545 0-6.143 1.919-8.415 5.323-5.196 7.787 0.221 17.034 17.359 17.034h286.185c18.127 0 29.066-10.938 29.066-29.065v-283.948c0-17.46-22.358-21.353-22.358 4.472z"></path>
<path fill="#000" d="M550.009 326.613v422.384h-26.829v-422.175c-2.965 4.783-2.037 2.833-2.178 10.622-1.045 58.419-1.339 397.968 0.898 413.399l29.791-0.166c2.804-21.055 0.755-277.035 0.755-321.403 0-12.723 3.337-98.191-2.438-102.662z"></path>
<path fill="#000" d="M963.633 626.028c0 9.35-2.412 31.299 11.179 31.299 16.927 0 11.307-34.57 8.943-44.717-2.178-0.52-20.122-8.822-20.122 13.417z"></path>
<path fill="#000" d="M206.701 490.871c24.444-12.189 23.935-9.036 46.241-0.933-8.901-9.177-26.509-11.709-36.191-7.637-1.516 0.638-3.306 1.581-4.385 2.398-6.95 5.271-1.818 0.96-5.664 6.172z"></path>
</svg>
