<svg width="43" height="51" viewBox="0 0 43 51" fill="none" xmlns="http://www.w3.org/2000/svg">
<mask id="path-1-outside-1_52_467" maskUnits="userSpaceOnUse" x="0" y="0" width="43" height="51" fill="black">
<rect fill="white" width="43" height="51"/>
<path d="M32.752 33.1322C28.4216 33.1322 25.6751 32.0857 24.3571 29.9257C21.821 25.7839 25.4425 18.5581 28.6431 12.1895C30.1936 9.0943 31.6555 6.17723 32.2204 4.00613C32.2868 3.76119 32.5083 3.58305 32.752 3.58305C32.9956 3.58305 33.2282 3.75006 33.2836 4.00613C33.8373 6.17723 35.3103 9.0943 36.8608 12.1895C40.0614 18.5581 43.683 25.7839 41.1468 29.9257C39.8289 32.0857 37.0823 33.1322 32.752 33.1322ZM32.752 5.94342C32.0099 7.92524 30.8471 10.2522 29.6288 12.6794C26.561 18.7919 23.0835 25.7171 25.2985 29.3356C26.3839 31.1059 28.8979 32.0077 32.752 32.0077C36.6061 32.0077 39.1201 31.1059 40.2054 29.3356C42.4204 25.7282 38.9429 18.7919 35.8751 12.6794C34.6569 10.2522 33.494 7.93638 32.752 5.94342Z"/>
<path d="M33.0178 28.1777C32.9181 28.1777 32.8295 28.1554 32.7409 28.0997C32.5194 27.9661 32.4086 27.6989 32.4862 27.454C33.7487 23.3679 33.5161 20.7292 33.3611 19.7828C33.3168 19.5267 33.2171 19.2372 33.1174 18.9255C32.8627 18.1795 32.5858 17.3333 33.051 16.6876C33.3832 16.2311 33.9924 16.0195 34.9227 16.0195C35.5096 16.0195 35.9748 16.2088 36.307 16.5651C37.0048 17.2999 36.9605 18.5358 36.9051 19.7382C36.9051 19.8607 36.894 19.9721 36.894 20.0945C36.75 24.2586 33.5494 27.8548 33.4165 28.0107C33.3168 28.1109 33.1728 28.1777 33.0178 28.1777ZM34.8894 17.1218C34.1363 17.1218 33.9813 17.2999 33.9481 17.3333C33.8152 17.5226 34.0145 18.1238 34.1696 18.5692C34.2803 18.9032 34.4021 19.2595 34.4575 19.5935C34.6126 20.5399 34.7455 22.299 34.2803 24.8487C35.0223 23.546 35.7422 21.8314 35.7976 20.0389C35.7976 19.9164 35.8087 19.805 35.8087 19.6826C35.8419 18.7585 35.8862 17.7119 35.5096 17.3222C35.4653 17.2777 35.3214 17.1218 34.9116 17.1218C34.9116 17.1218 34.9005 17.1218 34.8894 17.1218Z"/>
<path d="M16.6157 50C12.1857 50 8.57529 46.3815 8.57529 41.9168C8.57529 39.4451 9.66063 37.1627 11.5766 35.6151V6.05476C11.5766 3.2713 13.8359 1 16.6157 1C19.3955 1 21.6438 3.2713 21.6438 6.05476V35.6262C23.5597 37.1738 24.6451 39.4451 24.6451 41.928C24.6451 46.3704 21.0457 50 16.6157 50ZM16.6157 2.11338C14.4561 2.11338 12.6952 3.88366 12.6952 6.05476V35.8934C12.6952 36.0716 12.6177 36.2386 12.4737 36.3388C10.7017 37.6637 9.69386 39.7012 9.69386 41.9168C9.69386 45.758 12.8059 48.8866 16.6268 48.8866C20.4477 48.8866 23.5597 45.758 23.5597 41.9168C23.5597 39.7012 22.5519 37.6637 20.7799 36.3388C20.6359 36.2386 20.5584 36.0716 20.5584 35.8934V6.05476C20.5363 3.88366 18.7753 2.11338 16.6157 2.11338Z"/>
<path d="M16.6157 47.2165C13.7141 47.2165 11.344 44.8339 11.344 41.9168C11.344 40.2356 12.1193 38.6769 13.4594 37.6748L14.3453 37.0068V6.05476C14.3453 4.79664 15.3642 3.77232 16.6157 3.77232C17.8672 3.77232 18.8861 4.79664 18.8861 6.05476V37.0068L19.7721 37.6748C21.1122 38.688 21.8874 40.2356 21.8874 41.9168C21.8874 44.845 19.5174 47.2165 16.6157 47.2165ZM16.6157 4.88571C15.9844 4.88571 15.4528 5.42013 15.4528 6.05476V37.2852C15.4528 37.4633 15.3753 37.6303 15.2313 37.7305L14.1238 38.5656C13.0607 39.3672 12.4515 40.5919 12.4515 41.9168C12.4515 44.2215 14.3232 46.1032 16.6157 46.1032C18.9082 46.1032 20.7799 44.2215 20.7799 41.9168C20.7799 40.5808 20.1708 39.3561 19.1076 38.5656L18.0001 37.7305C17.8561 37.6303 17.7786 37.4633 17.7786 37.2852V6.05476C17.7786 5.43127 17.247 4.88571 16.6157 4.88571Z"/>
<path d="M18.3323 32.3529H14.8991C14.589 32.3529 14.3453 32.1079 14.3453 31.7962C14.3453 31.4844 14.589 31.2395 14.8991 31.2395H18.3323C18.6424 31.2395 18.8861 31.4844 18.8861 31.7962C18.8861 32.1079 18.6314 32.3529 18.3323 32.3529Z"/>
<path d="M18.3323 27.8993H14.8991C14.589 27.8993 14.3453 27.6544 14.3453 27.3426C14.3453 27.0309 14.589 26.786 14.8991 26.786H18.3323C18.6424 26.786 18.8861 27.0309 18.8861 27.3426C18.8861 27.6544 18.6314 27.8993 18.3323 27.8993Z"/>
<path d="M18.3323 23.4458H14.8991C14.589 23.4458 14.3453 23.2009 14.3453 22.8891C14.3453 22.5774 14.589 22.3324 14.8991 22.3324H18.3323C18.6424 22.3324 18.8861 22.5774 18.8861 22.8891C18.8861 23.2009 18.6314 23.4458 18.3323 23.4458Z"/>
<path d="M18.3323 18.9811H14.8991C14.589 18.9811 14.3453 18.7362 14.3453 18.4244C14.3453 18.1127 14.589 17.8678 14.8991 17.8678H18.3323C18.6424 17.8678 18.8861 18.1127 18.8861 18.4244C18.8861 18.7362 18.6314 18.9811 18.3323 18.9811Z"/>
<path d="M18.3323 14.5276H14.8991C14.589 14.5276 14.3453 14.2827 14.3453 13.9709C14.3453 13.6592 14.589 13.4142 14.8991 13.4142H18.3323C18.6424 13.4142 18.8861 13.6592 18.8861 13.9709C18.8861 14.2827 18.6314 14.5276 18.3323 14.5276Z"/>
<path d="M18.3323 10.0741H14.8991C14.589 10.0741 14.3453 9.82913 14.3453 9.51738C14.3453 9.20564 14.589 8.96069 14.8991 8.96069H18.3323C18.6424 8.96069 18.8861 9.20564 18.8861 9.51738C18.8861 9.82913 18.6314 10.0741 18.3323 10.0741Z"/>
<path d="M6.48211 34.3904C6.17201 34.3904 5.92837 34.1454 5.92837 33.8337V2.88162C5.92837 2.56987 6.17201 2.32493 6.48211 2.32493C6.79221 2.32493 7.03586 2.56987 7.03586 2.88162V33.8337C7.03586 34.1343 6.79221 34.3904 6.48211 34.3904Z"/>
<path d="M6.48211 6.33311H1.55375C1.24365 6.33311 1 6.08816 1 5.77641C1 5.46467 1.24365 5.21972 1.55375 5.21972H6.48211C6.79221 5.21972 7.03586 5.46467 7.03586 5.77641C7.03586 6.08816 6.79221 6.33311 6.48211 6.33311Z"/>
<path d="M6.48211 9.50625H4.01239C3.70229 9.50625 3.45865 9.2613 3.45865 8.94956C3.45865 8.63781 3.70229 8.39287 4.01239 8.39287H6.47104C6.78114 8.39287 7.02479 8.63781 7.02479 8.94956C7.03586 9.25017 6.79221 9.50625 6.48211 9.50625Z"/>
<path d="M6.48211 12.6794H1.55375C1.24365 12.6794 1 12.4344 1 12.1227C1 11.811 1.24365 11.566 1.55375 11.566H6.48211C6.79221 11.566 7.03586 11.811 7.03586 12.1227C7.03586 12.4233 6.79221 12.6794 6.48211 12.6794Z"/>
<path d="M6.48211 15.8525H4.01239C3.70229 15.8525 3.45865 15.6076 3.45865 15.2958C3.45865 14.9841 3.70229 14.7392 4.01239 14.7392H6.47104C6.78114 14.7392 7.02479 14.9841 7.02479 15.2958C7.02479 15.6076 6.79221 15.8525 6.48211 15.8525Z"/>
<path d="M6.48211 19.0257H1.55375C1.24365 19.0257 1 18.7807 1 18.469C1 18.1572 1.24365 17.9123 1.55375 17.9123H6.48211C6.79221 17.9123 7.03586 18.1572 7.03586 18.469C7.03586 18.7807 6.79221 19.0257 6.48211 19.0257Z"/>
<path d="M6.48211 22.1988H4.01239C3.70229 22.1988 3.45865 21.9539 3.45865 21.6421C3.45865 21.3304 3.70229 21.0854 4.01239 21.0854H6.47104C6.78114 21.0854 7.02479 21.3304 7.02479 21.6421C7.02479 21.9539 6.79221 22.1988 6.48211 22.1988Z"/>
<path d="M6.48211 25.372H1.55375C1.24365 25.372 1 25.127 1 24.8153C1 24.5035 1.24365 24.2586 1.55375 24.2586H6.48211C6.79221 24.2586 7.03586 24.5035 7.03586 24.8153C7.03586 25.127 6.79221 25.372 6.48211 25.372Z"/>
<path d="M6.48211 28.5451H4.01239C3.70229 28.5451 3.45865 28.3002 3.45865 27.9884C3.45865 27.6767 3.70229 27.4317 4.01239 27.4317H6.47104C6.78114 27.4317 7.02479 27.6767 7.02479 27.9884C7.02479 28.3002 6.79221 28.5451 6.48211 28.5451Z"/>
<path d="M6.48211 31.7182H1.55375C1.24365 31.7182 1 31.4733 1 31.1616C1 30.8498 1.24365 30.6049 1.55375 30.6049H6.48211C6.79221 30.6049 7.03586 30.8498 7.03586 31.1616C7.03586 31.4733 6.79221 31.7182 6.48211 31.7182Z"/>
</mask>
<path d="M32.752 33.1322C28.4216 33.1322 25.6751 32.0857 24.3571 29.9257C21.821 25.7839 25.4425 18.5581 28.6431 12.1895C30.1936 9.0943 31.6555 6.17723 32.2204 4.00613C32.2868 3.76119 32.5083 3.58305 32.752 3.58305C32.9956 3.58305 33.2282 3.75006 33.2836 4.00613C33.8373 6.17723 35.3103 9.0943 36.8608 12.1895C40.0614 18.5581 43.683 25.7839 41.1468 29.9257C39.8289 32.0857 37.0823 33.1322 32.752 33.1322ZM32.752 5.94342C32.0099 7.92524 30.8471 10.2522 29.6288 12.6794C26.561 18.7919 23.0835 25.7171 25.2985 29.3356C26.3839 31.1059 28.8979 32.0077 32.752 32.0077C36.6061 32.0077 39.1201 31.1059 40.2054 29.3356C42.4204 25.7282 38.9429 18.7919 35.8751 12.6794C34.6569 10.2522 33.494 7.93638 32.752 5.94342Z" fill="#192646"/>
<path d="M33.0178 28.1777C32.9181 28.1777 32.8295 28.1554 32.7409 28.0997C32.5194 27.9661 32.4086 27.6989 32.4862 27.454C33.7487 23.3679 33.5161 20.7292 33.3611 19.7828C33.3168 19.5267 33.2171 19.2372 33.1174 18.9255C32.8627 18.1795 32.5858 17.3333 33.051 16.6876C33.3832 16.2311 33.9924 16.0195 34.9227 16.0195C35.5096 16.0195 35.9748 16.2088 36.307 16.5651C37.0048 17.2999 36.9605 18.5358 36.9051 19.7382C36.9051 19.8607 36.894 19.9721 36.894 20.0945C36.75 24.2586 33.5494 27.8548 33.4165 28.0107C33.3168 28.1109 33.1728 28.1777 33.0178 28.1777ZM34.8894 17.1218C34.1363 17.1218 33.9813 17.2999 33.9481 17.3333C33.8152 17.5226 34.0145 18.1238 34.1696 18.5692C34.2803 18.9032 34.4021 19.2595 34.4575 19.5935C34.6126 20.5399 34.7455 22.299 34.2803 24.8487C35.0223 23.546 35.7422 21.8314 35.7976 20.0389C35.7976 19.9164 35.8087 19.805 35.8087 19.6826C35.8419 18.7585 35.8862 17.7119 35.5096 17.3222C35.4653 17.2777 35.3214 17.1218 34.9116 17.1218C34.9116 17.1218 34.9005 17.1218 34.8894 17.1218Z" fill="#192646"/>
<path d="M16.6157 50C12.1857 50 8.57529 46.3815 8.57529 41.9168C8.57529 39.4451 9.66063 37.1627 11.5766 35.6151V6.05476C11.5766 3.2713 13.8359 1 16.6157 1C19.3955 1 21.6438 3.2713 21.6438 6.05476V35.6262C23.5597 37.1738 24.6451 39.4451 24.6451 41.928C24.6451 46.3704 21.0457 50 16.6157 50ZM16.6157 2.11338C14.4561 2.11338 12.6952 3.88366 12.6952 6.05476V35.8934C12.6952 36.0716 12.6177 36.2386 12.4737 36.3388C10.7017 37.6637 9.69386 39.7012 9.69386 41.9168C9.69386 45.758 12.8059 48.8866 16.6268 48.8866C20.4477 48.8866 23.5597 45.758 23.5597 41.9168C23.5597 39.7012 22.5519 37.6637 20.7799 36.3388C20.6359 36.2386 20.5584 36.0716 20.5584 35.8934V6.05476C20.5363 3.88366 18.7753 2.11338 16.6157 2.11338Z" fill="#192646"/>
<path d="M16.6157 47.2165C13.7141 47.2165 11.344 44.8339 11.344 41.9168C11.344 40.2356 12.1193 38.6769 13.4594 37.6748L14.3453 37.0068V6.05476C14.3453 4.79664 15.3642 3.77232 16.6157 3.77232C17.8672 3.77232 18.8861 4.79664 18.8861 6.05476V37.0068L19.7721 37.6748C21.1122 38.688 21.8874 40.2356 21.8874 41.9168C21.8874 44.845 19.5174 47.2165 16.6157 47.2165ZM16.6157 4.88571C15.9844 4.88571 15.4528 5.42013 15.4528 6.05476V37.2852C15.4528 37.4633 15.3753 37.6303 15.2313 37.7305L14.1238 38.5656C13.0607 39.3672 12.4515 40.5919 12.4515 41.9168C12.4515 44.2215 14.3232 46.1032 16.6157 46.1032C18.9082 46.1032 20.7799 44.2215 20.7799 41.9168C20.7799 40.5808 20.1708 39.3561 19.1076 38.5656L18.0001 37.7305C17.8561 37.6303 17.7786 37.4633 17.7786 37.2852V6.05476C17.7786 5.43127 17.247 4.88571 16.6157 4.88571Z" fill="#192646"/>
<path d="M18.3323 32.3529H14.8991C14.589 32.3529 14.3453 32.1079 14.3453 31.7962C14.3453 31.4844 14.589 31.2395 14.8991 31.2395H18.3323C18.6424 31.2395 18.8861 31.4844 18.8861 31.7962C18.8861 32.1079 18.6314 32.3529 18.3323 32.3529Z" fill="#192646"/>
<path d="M18.3323 27.8993H14.8991C14.589 27.8993 14.3453 27.6544 14.3453 27.3426C14.3453 27.0309 14.589 26.786 14.8991 26.786H18.3323C18.6424 26.786 18.8861 27.0309 18.8861 27.3426C18.8861 27.6544 18.6314 27.8993 18.3323 27.8993Z" fill="#192646"/>
<path d="M18.3323 23.4458H14.8991C14.589 23.4458 14.3453 23.2009 14.3453 22.8891C14.3453 22.5774 14.589 22.3324 14.8991 22.3324H18.3323C18.6424 22.3324 18.8861 22.5774 18.8861 22.8891C18.8861 23.2009 18.6314 23.4458 18.3323 23.4458Z" fill="#192646"/>
<path d="M18.3323 18.9811H14.8991C14.589 18.9811 14.3453 18.7362 14.3453 18.4244C14.3453 18.1127 14.589 17.8678 14.8991 17.8678H18.3323C18.6424 17.8678 18.8861 18.1127 18.8861 18.4244C18.8861 18.7362 18.6314 18.9811 18.3323 18.9811Z" fill="#192646"/>
<path d="M18.3323 14.5276H14.8991C14.589 14.5276 14.3453 14.2827 14.3453 13.9709C14.3453 13.6592 14.589 13.4142 14.8991 13.4142H18.3323C18.6424 13.4142 18.8861 13.6592 18.8861 13.9709C18.8861 14.2827 18.6314 14.5276 18.3323 14.5276Z" fill="#192646"/>
<path d="M18.3323 10.0741H14.8991C14.589 10.0741 14.3453 9.82913 14.3453 9.51738C14.3453 9.20564 14.589 8.96069 14.8991 8.96069H18.3323C18.6424 8.96069 18.8861 9.20564 18.8861 9.51738C18.8861 9.82913 18.6314 10.0741 18.3323 10.0741Z" fill="#192646"/>
<path d="M6.48211 34.3904C6.17201 34.3904 5.92837 34.1454 5.92837 33.8337V2.88162C5.92837 2.56987 6.17201 2.32493 6.48211 2.32493C6.79221 2.32493 7.03586 2.56987 7.03586 2.88162V33.8337C7.03586 34.1343 6.79221 34.3904 6.48211 34.3904Z" fill="#192646"/>
<path d="M6.48211 6.33311H1.55375C1.24365 6.33311 1 6.08816 1 5.77641C1 5.46467 1.24365 5.21972 1.55375 5.21972H6.48211C6.79221 5.21972 7.03586 5.46467 7.03586 5.77641C7.03586 6.08816 6.79221 6.33311 6.48211 6.33311Z" fill="#192646"/>
<path d="M6.48211 9.50625H4.01239C3.70229 9.50625 3.45865 9.2613 3.45865 8.94956C3.45865 8.63781 3.70229 8.39287 4.01239 8.39287H6.47104C6.78114 8.39287 7.02479 8.63781 7.02479 8.94956C7.03586 9.25017 6.79221 9.50625 6.48211 9.50625Z" fill="#192646"/>
<path d="M6.48211 12.6794H1.55375C1.24365 12.6794 1 12.4344 1 12.1227C1 11.811 1.24365 11.566 1.55375 11.566H6.48211C6.79221 11.566 7.03586 11.811 7.03586 12.1227C7.03586 12.4233 6.79221 12.6794 6.48211 12.6794Z" fill="#192646"/>
<path d="M6.48211 15.8525H4.01239C3.70229 15.8525 3.45865 15.6076 3.45865 15.2958C3.45865 14.9841 3.70229 14.7392 4.01239 14.7392H6.47104C6.78114 14.7392 7.02479 14.9841 7.02479 15.2958C7.02479 15.6076 6.79221 15.8525 6.48211 15.8525Z" fill="#192646"/>
<path d="M6.48211 19.0257H1.55375C1.24365 19.0257 1 18.7807 1 18.469C1 18.1572 1.24365 17.9123 1.55375 17.9123H6.48211C6.79221 17.9123 7.03586 18.1572 7.03586 18.469C7.03586 18.7807 6.79221 19.0257 6.48211 19.0257Z" fill="#192646"/>
<path d="M6.48211 22.1988H4.01239C3.70229 22.1988 3.45865 21.9539 3.45865 21.6421C3.45865 21.3304 3.70229 21.0854 4.01239 21.0854H6.47104C6.78114 21.0854 7.02479 21.3304 7.02479 21.6421C7.02479 21.9539 6.79221 22.1988 6.48211 22.1988Z" fill="#192646"/>
<path d="M6.48211 25.372H1.55375C1.24365 25.372 1 25.127 1 24.8153C1 24.5035 1.24365 24.2586 1.55375 24.2586H6.48211C6.79221 24.2586 7.03586 24.5035 7.03586 24.8153C7.03586 25.127 6.79221 25.372 6.48211 25.372Z" fill="#192646"/>
<path d="M6.48211 28.5451H4.01239C3.70229 28.5451 3.45865 28.3002 3.45865 27.9884C3.45865 27.6767 3.70229 27.4317 4.01239 27.4317H6.47104C6.78114 27.4317 7.02479 27.6767 7.02479 27.9884C7.02479 28.3002 6.79221 28.5451 6.48211 28.5451Z" fill="#192646"/>
<path d="M6.48211 31.7182H1.55375C1.24365 31.7182 1 31.4733 1 31.1616C1 30.8498 1.24365 30.6049 1.55375 30.6049H6.48211C6.79221 30.6049 7.03586 30.8498 7.03586 31.1616C7.03586 31.4733 6.79221 31.7182 6.48211 31.7182Z" fill="#192646"/>
<path d="M32.752 33.1322C28.4216 33.1322 25.6751 32.0857 24.3571 29.9257C21.821 25.7839 25.4425 18.5581 28.6431 12.1895C30.1936 9.0943 31.6555 6.17723 32.2204 4.00613C32.2868 3.76119 32.5083 3.58305 32.752 3.58305C32.9956 3.58305 33.2282 3.75006 33.2836 4.00613C33.8373 6.17723 35.3103 9.0943 36.8608 12.1895C40.0614 18.5581 43.683 25.7839 41.1468 29.9257C39.8289 32.0857 37.0823 33.1322 32.752 33.1322ZM32.752 5.94342C32.0099 7.92524 30.8471 10.2522 29.6288 12.6794C26.561 18.7919 23.0835 25.7171 25.2985 29.3356C26.3839 31.1059 28.8979 32.0077 32.752 32.0077C36.6061 32.0077 39.1201 31.1059 40.2054 29.3356C42.4204 25.7282 38.9429 18.7919 35.8751 12.6794C34.6569 10.2522 33.494 7.93638 32.752 5.94342Z" stroke="#192646" stroke-width="0.2" mask="url(#path-1-outside-1_52_467)"/>
<path d="M33.0178 28.1777C32.9181 28.1777 32.8295 28.1554 32.7409 28.0997C32.5194 27.9661 32.4086 27.6989 32.4862 27.454C33.7487 23.3679 33.5161 20.7292 33.3611 19.7828C33.3168 19.5267 33.2171 19.2372 33.1174 18.9255C32.8627 18.1795 32.5858 17.3333 33.051 16.6876C33.3832 16.2311 33.9924 16.0195 34.9227 16.0195C35.5096 16.0195 35.9748 16.2088 36.307 16.5651C37.0048 17.2999 36.9605 18.5358 36.9051 19.7382C36.9051 19.8607 36.894 19.9721 36.894 20.0945C36.75 24.2586 33.5494 27.8548 33.4165 28.0107C33.3168 28.1109 33.1728 28.1777 33.0178 28.1777ZM34.8894 17.1218C34.1363 17.1218 33.9813 17.2999 33.9481 17.3333C33.8152 17.5226 34.0145 18.1238 34.1696 18.5692C34.2803 18.9032 34.4021 19.2595 34.4575 19.5935C34.6126 20.5399 34.7455 22.299 34.2803 24.8487C35.0223 23.546 35.7422 21.8314 35.7976 20.0389C35.7976 19.9164 35.8087 19.805 35.8087 19.6826C35.8419 18.7585 35.8862 17.7119 35.5096 17.3222C35.4653 17.2777 35.3214 17.1218 34.9116 17.1218C34.9116 17.1218 34.9005 17.1218 34.8894 17.1218Z" stroke="#192646" stroke-width="0.2" mask="url(#path-1-outside-1_52_467)"/>
<path d="M16.6157 50C12.1857 50 8.57529 46.3815 8.57529 41.9168C8.57529 39.4451 9.66063 37.1627 11.5766 35.6151V6.05476C11.5766 3.2713 13.8359 1 16.6157 1C19.3955 1 21.6438 3.2713 21.6438 6.05476V35.6262C23.5597 37.1738 24.6451 39.4451 24.6451 41.928C24.6451 46.3704 21.0457 50 16.6157 50ZM16.6157 2.11338C14.4561 2.11338 12.6952 3.88366 12.6952 6.05476V35.8934C12.6952 36.0716 12.6177 36.2386 12.4737 36.3388C10.7017 37.6637 9.69386 39.7012 9.69386 41.9168C9.69386 45.758 12.8059 48.8866 16.6268 48.8866C20.4477 48.8866 23.5597 45.758 23.5597 41.9168C23.5597 39.7012 22.5519 37.6637 20.7799 36.3388C20.6359 36.2386 20.5584 36.0716 20.5584 35.8934V6.05476C20.5363 3.88366 18.7753 2.11338 16.6157 2.11338Z" stroke="#192646" stroke-width="0.2" mask="url(#path-1-outside-1_52_467)"/>
<path d="M16.6157 47.2165C13.7141 47.2165 11.344 44.8339 11.344 41.9168C11.344 40.2356 12.1193 38.6769 13.4594 37.6748L14.3453 37.0068V6.05476C14.3453 4.79664 15.3642 3.77232 16.6157 3.77232C17.8672 3.77232 18.8861 4.79664 18.8861 6.05476V37.0068L19.7721 37.6748C21.1122 38.688 21.8874 40.2356 21.8874 41.9168C21.8874 44.845 19.5174 47.2165 16.6157 47.2165ZM16.6157 4.88571C15.9844 4.88571 15.4528 5.42013 15.4528 6.05476V37.2852C15.4528 37.4633 15.3753 37.6303 15.2313 37.7305L14.1238 38.5656C13.0607 39.3672 12.4515 40.5919 12.4515 41.9168C12.4515 44.2215 14.3232 46.1032 16.6157 46.1032C18.9082 46.1032 20.7799 44.2215 20.7799 41.9168C20.7799 40.5808 20.1708 39.3561 19.1076 38.5656L18.0001 37.7305C17.8561 37.6303 17.7786 37.4633 17.7786 37.2852V6.05476C17.7786 5.43127 17.247 4.88571 16.6157 4.88571Z" stroke="#192646" stroke-width="0.2" mask="url(#path-1-outside-1_52_467)"/>
<path d="M18.3323 32.3529H14.8991C14.589 32.3529 14.3453 32.1079 14.3453 31.7962C14.3453 31.4844 14.589 31.2395 14.8991 31.2395H18.3323C18.6424 31.2395 18.8861 31.4844 18.8861 31.7962C18.8861 32.1079 18.6314 32.3529 18.3323 32.3529Z" stroke="#192646" stroke-width="0.2" mask="url(#path-1-outside-1_52_467)"/>
<path d="M18.3323 27.8993H14.8991C14.589 27.8993 14.3453 27.6544 14.3453 27.3426C14.3453 27.0309 14.589 26.786 14.8991 26.786H18.3323C18.6424 26.786 18.8861 27.0309 18.8861 27.3426C18.8861 27.6544 18.6314 27.8993 18.3323 27.8993Z" stroke="#192646" stroke-width="0.2" mask="url(#path-1-outside-1_52_467)"/>
<path d="M18.3323 23.4458H14.8991C14.589 23.4458 14.3453 23.2009 14.3453 22.8891C14.3453 22.5774 14.589 22.3324 14.8991 22.3324H18.3323C18.6424 22.3324 18.8861 22.5774 18.8861 22.8891C18.8861 23.2009 18.6314 23.4458 18.3323 23.4458Z" stroke="#192646" stroke-width="0.2" mask="url(#path-1-outside-1_52_467)"/>
<path d="M18.3323 18.9811H14.8991C14.589 18.9811 14.3453 18.7362 14.3453 18.4244C14.3453 18.1127 14.589 17.8678 14.8991 17.8678H18.3323C18.6424 17.8678 18.8861 18.1127 18.8861 18.4244C18.8861 18.7362 18.6314 18.9811 18.3323 18.9811Z" stroke="#192646" stroke-width="0.2" mask="url(#path-1-outside-1_52_467)"/>
<path d="M18.3323 14.5276H14.8991C14.589 14.5276 14.3453 14.2827 14.3453 13.9709C14.3453 13.6592 14.589 13.4142 14.8991 13.4142H18.3323C18.6424 13.4142 18.8861 13.6592 18.8861 13.9709C18.8861 14.2827 18.6314 14.5276 18.3323 14.5276Z" stroke="#192646" stroke-width="0.2" mask="url(#path-1-outside-1_52_467)"/>
<path d="M18.3323 10.0741H14.8991C14.589 10.0741 14.3453 9.82913 14.3453 9.51738C14.3453 9.20564 14.589 8.96069 14.8991 8.96069H18.3323C18.6424 8.96069 18.8861 9.20564 18.8861 9.51738C18.8861 9.82913 18.6314 10.0741 18.3323 10.0741Z" stroke="#192646" stroke-width="0.2" mask="url(#path-1-outside-1_52_467)"/>
<path d="M6.48211 34.3904C6.17201 34.3904 5.92837 34.1454 5.92837 33.8337V2.88162C5.92837 2.56987 6.17201 2.32493 6.48211 2.32493C6.79221 2.32493 7.03586 2.56987 7.03586 2.88162V33.8337C7.03586 34.1343 6.79221 34.3904 6.48211 34.3904Z" stroke="#192646" stroke-width="0.2" mask="url(#path-1-outside-1_52_467)"/>
<path d="M6.48211 6.33311H1.55375C1.24365 6.33311 1 6.08816 1 5.77641C1 5.46467 1.24365 5.21972 1.55375 5.21972H6.48211C6.79221 5.21972 7.03586 5.46467 7.03586 5.77641C7.03586 6.08816 6.79221 6.33311 6.48211 6.33311Z" stroke="#192646" stroke-width="0.2" mask="url(#path-1-outside-1_52_467)"/>
<path d="M6.48211 9.50625H4.01239C3.70229 9.50625 3.45865 9.2613 3.45865 8.94956C3.45865 8.63781 3.70229 8.39287 4.01239 8.39287H6.47104C6.78114 8.39287 7.02479 8.63781 7.02479 8.94956C7.03586 9.25017 6.79221 9.50625 6.48211 9.50625Z" stroke="#192646" stroke-width="0.2" mask="url(#path-1-outside-1_52_467)"/>
<path d="M6.48211 12.6794H1.55375C1.24365 12.6794 1 12.4344 1 12.1227C1 11.811 1.24365 11.566 1.55375 11.566H6.48211C6.79221 11.566 7.03586 11.811 7.03586 12.1227C7.03586 12.4233 6.79221 12.6794 6.48211 12.6794Z" stroke="#192646" stroke-width="0.2" mask="url(#path-1-outside-1_52_467)"/>
<path d="M6.48211 15.8525H4.01239C3.70229 15.8525 3.45865 15.6076 3.45865 15.2958C3.45865 14.9841 3.70229 14.7392 4.01239 14.7392H6.47104C6.78114 14.7392 7.02479 14.9841 7.02479 15.2958C7.02479 15.6076 6.79221 15.8525 6.48211 15.8525Z" stroke="#192646" stroke-width="0.2" mask="url(#path-1-outside-1_52_467)"/>
<path d="M6.48211 19.0257H1.55375C1.24365 19.0257 1 18.7807 1 18.469C1 18.1572 1.24365 17.9123 1.55375 17.9123H6.48211C6.79221 17.9123 7.03586 18.1572 7.03586 18.469C7.03586 18.7807 6.79221 19.0257 6.48211 19.0257Z" stroke="#192646" stroke-width="0.2" mask="url(#path-1-outside-1_52_467)"/>
<path d="M6.48211 22.1988H4.01239C3.70229 22.1988 3.45865 21.9539 3.45865 21.6421C3.45865 21.3304 3.70229 21.0854 4.01239 21.0854H6.47104C6.78114 21.0854 7.02479 21.3304 7.02479 21.6421C7.02479 21.9539 6.79221 22.1988 6.48211 22.1988Z" stroke="#192646" stroke-width="0.2" mask="url(#path-1-outside-1_52_467)"/>
<path d="M6.48211 25.372H1.55375C1.24365 25.372 1 25.127 1 24.8153C1 24.5035 1.24365 24.2586 1.55375 24.2586H6.48211C6.79221 24.2586 7.03586 24.5035 7.03586 24.8153C7.03586 25.127 6.79221 25.372 6.48211 25.372Z" stroke="#192646" stroke-width="0.2" mask="url(#path-1-outside-1_52_467)"/>
<path d="M6.48211 28.5451H4.01239C3.70229 28.5451 3.45865 28.3002 3.45865 27.9884C3.45865 27.6767 3.70229 27.4317 4.01239 27.4317H6.47104C6.78114 27.4317 7.02479 27.6767 7.02479 27.9884C7.02479 28.3002 6.79221 28.5451 6.48211 28.5451Z" stroke="#192646" stroke-width="0.2" mask="url(#path-1-outside-1_52_467)"/>
<path d="M6.48211 31.7182H1.55375C1.24365 31.7182 1 31.4733 1 31.1616C1 30.8498 1.24365 30.6049 1.55375 30.6049H6.48211C6.79221 30.6049 7.03586 30.8498 7.03586 31.1616C7.03586 31.4733 6.79221 31.7182 6.48211 31.7182Z" stroke="#192646" stroke-width="0.2" mask="url(#path-1-outside-1_52_467)"/>
<path d="M33 33L27.2265 43H38.7735L33 33ZM34 50V42H32V50H34Z" fill="#192646"/>
</svg>
