<svg width="56" height="52" viewBox="0 0 56 52" fill="none" xmlns="http://www.w3.org/2000/svg">
<mask id="path-1-outside-1_52_416" maskUnits="userSpaceOnUse" x="0" y="0" width="56" height="52" fill="black">
<rect fill="white" width="56" height="52"/>
<path d="M35.3416 20.3525C35.3416 25.7715 39.7708 30.1067 45.1708 30.1067C50.5708 30.1067 55 25.7113 55 20.3525C55 14.9335 50.5708 10.5982 45.1708 10.5982C39.7101 10.538 35.3416 14.9335 35.3416 20.3525ZM53.7865 20.3525C53.7865 25.1092 49.9034 28.9025 45.1708 28.9025C40.3775 28.9025 36.5551 25.0489 36.5551 20.3525C36.5551 15.5958 40.4382 11.8025 45.1708 11.8025C49.9034 11.7423 53.7865 15.5958 53.7865 20.3525Z"/>
<path d="M40.9236 24.507C41.1663 24.7479 41.5303 24.7479 41.773 24.507L49.3573 16.9806C49.6 16.7398 49.6 16.3785 49.3573 16.1377C49.1146 15.8968 48.7506 15.8968 48.5079 16.1377L40.9236 23.6641C40.6809 23.9049 40.6809 24.2662 40.9236 24.507Z"/>
<path d="M42.8652 15.0539C41.5303 15.0539 40.4382 16.1377 40.4382 17.4623C40.4382 18.787 41.5303 19.8708 42.8652 19.8708C44.2 19.8708 45.2921 18.787 45.2921 17.4623C45.2921 16.1377 44.2 15.0539 42.8652 15.0539ZM42.8652 18.6666C42.1978 18.6666 41.6517 18.1247 41.6517 17.4623C41.6517 16.8 42.1978 16.2581 42.8652 16.2581C43.5326 16.2581 44.0787 16.8 44.0787 17.4623C44.0787 18.1247 43.5326 18.6666 42.8652 18.6666Z"/>
<path d="M47.4157 20.774C46.0809 20.774 44.9888 21.8578 44.9888 23.1824C44.9888 24.507 46.0809 25.5909 47.4157 25.5909C48.7506 25.5909 49.8427 24.507 49.8427 23.1824C49.8427 21.8578 48.7506 20.774 47.4157 20.774ZM47.4157 24.3866C46.7483 24.3866 46.2022 23.8447 46.2022 23.1824C46.2022 22.5201 46.7483 21.9782 47.4157 21.9782C48.0832 21.9782 48.6292 22.5201 48.6292 23.1824C48.6292 23.8447 48.0832 24.3866 47.4157 24.3866Z"/>
<path d="M15.5011 51C23.4494 51 29.9416 44.5574 29.9416 36.6095C29.9416 34.5021 28.9708 30.8894 26.9685 25.6511C26.7865 25.1092 26.5438 24.5673 26.3618 24.0254H29.3348C29.5775 24.0254 29.8202 23.8447 29.9416 23.6039L34.4921 7.28663H45.1708C45.5348 7.28663 45.7775 7.04578 45.7775 6.68452C45.7775 6.32325 45.5348 6.0824 45.1708 6.0824H34.0067C33.764 6.0824 33.5213 6.26304 33.4 6.50388L28.9101 22.8813H19.5663C19.2022 22.8813 18.9596 23.1222 18.9596 23.4835C18.9596 23.8447 19.2022 24.0856 19.5663 24.0856H25.0876C25.3303 24.7479 25.6337 25.4704 25.8764 26.1328C27.818 31.1905 28.7888 34.743 28.7888 36.6697C28.7888 43.9553 22.8427 49.856 15.5011 49.856C8.15955 49.856 2.21348 43.8951 2.21348 36.6095C2.21348 30.1067 12.8921 8.12959 15.5011 2.95142C16.8966 5.78135 20.7798 13.669 23.9348 21.2556C24.0562 21.5567 24.4202 21.7373 24.7236 21.6169C25.027 21.4965 25.209 21.1352 25.0876 20.8342C21.0831 11.381 16.0472 1.44614 15.9865 1.32572C15.8045 1.02466 15.4404 0.904236 15.1371 1.08487C15.0764 1.14508 14.9551 1.2655 14.9551 1.32572C14.3483 2.46973 1 28.9627 1 36.6095C1 44.5574 7.49213 51 15.5011 51Z"/>
<path d="M11.618 37.9342C11.618 36.4289 10.4045 35.2247 8.88764 35.2247C7.37079 35.2247 6.1573 36.4289 6.1573 37.9342C6.1573 39.4394 7.37079 40.6437 8.88764 40.6437C10.3438 40.6437 11.618 39.4394 11.618 37.9342ZM8.82697 39.4394C7.97753 39.4394 7.31011 38.7771 7.31011 37.9342C7.31011 37.0912 7.97753 36.4289 8.82697 36.4289C9.6764 36.4289 10.3438 37.0912 10.3438 37.9342C10.4045 38.7771 9.6764 39.4394 8.82697 39.4394Z"/>
<path d="M25.7551 35.1042C25.7551 33.5989 24.5416 32.3947 23.0247 32.3947C21.5079 32.3947 20.2944 33.5989 20.2944 35.1042C20.2944 36.6095 21.5079 37.8137 23.0247 37.8137C24.5416 37.8137 25.7551 36.6095 25.7551 35.1042ZM23.0247 36.6095C22.1753 36.6095 21.5079 35.9472 21.5079 35.1042C21.5079 34.2613 22.1753 33.5989 23.0247 33.5989C23.8742 33.5989 24.5416 34.2613 24.5416 35.1042C24.5416 35.887 23.8742 36.6095 23.0247 36.6095Z"/>
<path d="M20.173 19.2687C20.173 17.7634 18.9596 16.5592 17.4427 16.5592C15.9258 16.5592 14.7124 17.7634 14.7124 19.2687C14.7124 20.774 15.9258 21.9782 17.4427 21.9782C18.9596 21.9782 20.173 20.774 20.173 19.2687ZM17.4427 20.774C16.5933 20.774 15.9258 20.1116 15.9258 19.2687C15.9258 18.4257 16.5933 17.7634 17.4427 17.7634C18.2921 17.7634 18.9596 18.4257 18.9596 19.2687C18.9596 20.1116 18.2315 20.774 17.4427 20.774Z"/>
<path d="M15.5011 33.5387C16.7753 33.5387 17.8674 32.5151 17.8674 31.1905C17.8674 29.8658 16.836 28.8423 15.5011 28.8423C14.1663 28.8423 13.1348 29.9261 13.1348 31.2507C13.1348 32.5151 14.1663 33.5387 15.5011 33.5387ZM15.5011 30.1067C16.1079 30.1067 16.6539 30.5884 16.6539 31.2507C16.6539 31.913 16.1079 32.3345 15.5011 32.3345C14.8944 32.3345 14.3483 31.8528 14.3483 31.2507C14.3483 30.5884 14.8337 30.1067 15.5011 30.1067Z"/>
<path d="M19.4449 41.2458C19.4449 40.162 18.5348 39.2588 17.4427 39.2588C16.3506 39.2588 15.4405 40.162 15.4405 41.2458C15.4405 42.3296 16.3506 43.2327 17.4427 43.2327C18.5348 43.2327 19.4449 42.3296 19.4449 41.2458ZM16.5933 41.2458C16.5933 40.8243 16.9573 40.463 17.382 40.463C17.8067 40.463 18.1708 40.8243 18.1708 41.2458C18.1708 41.6673 17.8067 42.0285 17.382 42.0285C16.9573 42.0285 16.5933 41.6673 16.5933 41.2458Z"/>
<path d="M7.18876 31.9732C7.55281 31.9732 7.79551 31.7324 7.79551 31.3711C7.79551 31.0099 7.55281 30.769 7.18876 30.769H6.70337C6.33933 30.769 6.09663 31.0099 6.09663 31.3711C6.09663 31.7324 6.33933 31.9732 6.70337 31.9732H7.18876Z"/>
<path d="M21.0831 27.638H20.5978C20.2337 27.638 19.991 27.8789 19.991 28.2401C19.991 28.6014 20.2337 28.8423 20.5978 28.8423H21.0831C21.4472 28.8423 21.6899 28.6014 21.6899 28.2401C21.6899 27.8789 21.4472 27.638 21.0831 27.638Z"/>
<path d="M12.4067 26.8553H12.8921C13.2562 26.8553 13.4989 26.6144 13.4989 26.2532C13.4989 25.8919 13.2562 25.6511 12.8921 25.6511H12.4067C12.0427 25.6511 11.8 25.8919 11.8 26.2532C11.8 26.6144 12.1034 26.8553 12.4067 26.8553Z"/>
<path d="M11.8607 20.3525C11.8607 19.9912 11.618 19.7504 11.2539 19.7504H10.7685C10.4045 19.7504 10.1618 19.9912 10.1618 20.3525C10.1618 20.7137 10.4045 20.9546 10.7685 20.9546H11.2539C11.5573 20.9546 11.8607 20.6535 11.8607 20.3525Z"/>
<path d="M13.9236 13.2475H14.409C14.773 13.2475 15.0157 13.0067 15.0157 12.6454C15.0157 12.2842 14.773 12.0433 14.409 12.0433H13.9236C13.5596 12.0433 13.3169 12.2842 13.3169 12.6454C13.3169 13.0067 13.5596 13.2475 13.9236 13.2475Z"/>
<path d="M15.7438 35.7666C15.3798 35.7666 15.1371 36.0074 15.1371 36.3687C15.1371 36.7299 15.3798 36.9708 15.7438 36.9708H16.2292C16.5933 36.9708 16.836 36.7299 16.836 36.3687C16.836 36.0074 16.5933 35.7666 16.2292 35.7666H15.7438Z"/>
<path d="M9.55506 43.8951C9.19101 43.8951 8.94832 44.1359 8.94832 44.4972C8.94832 44.8584 9.19101 45.0993 9.55506 45.0993H10.0405C10.4045 45.0993 10.6472 44.8584 10.6472 44.4972C10.6472 44.1359 10.4045 43.8951 10.0405 43.8951H9.55506Z"/>
<path d="M15.2584 47.2669H15.7438C16.1079 47.2669 16.3506 47.0261 16.3506 46.6648C16.3506 46.3035 16.1079 46.0627 15.7438 46.0627H15.2584C14.8944 46.0627 14.6517 46.3035 14.6517 46.6648C14.6517 47.0261 14.8944 47.2669 15.2584 47.2669Z"/>
<path d="M23.3281 42.3296C22.964 42.3296 22.7214 42.5704 22.7214 42.9317C22.7214 43.293 22.964 43.5338 23.3281 43.5338H23.8135C24.1775 43.5338 24.4202 43.293 24.4202 42.9317C24.4202 42.5704 24.1775 42.3296 23.8135 42.3296H23.3281Z"/>
</mask>
<path d="M35.3416 20.3525C35.3416 25.7715 39.7708 30.1067 45.1708 30.1067C50.5708 30.1067 55 25.7113 55 20.3525C55 14.9335 50.5708 10.5982 45.1708 10.5982C39.7101 10.538 35.3416 14.9335 35.3416 20.3525ZM53.7865 20.3525C53.7865 25.1092 49.9034 28.9025 45.1708 28.9025C40.3775 28.9025 36.5551 25.0489 36.5551 20.3525C36.5551 15.5958 40.4382 11.8025 45.1708 11.8025C49.9034 11.7423 53.7865 15.5958 53.7865 20.3525Z" fill="#192646"/>
<path d="M40.9236 24.507C41.1663 24.7479 41.5303 24.7479 41.773 24.507L49.3573 16.9806C49.6 16.7398 49.6 16.3785 49.3573 16.1377C49.1146 15.8968 48.7506 15.8968 48.5079 16.1377L40.9236 23.6641C40.6809 23.9049 40.6809 24.2662 40.9236 24.507Z" fill="#192646"/>
<path d="M42.8652 15.0539C41.5303 15.0539 40.4382 16.1377 40.4382 17.4623C40.4382 18.787 41.5303 19.8708 42.8652 19.8708C44.2 19.8708 45.2921 18.787 45.2921 17.4623C45.2921 16.1377 44.2 15.0539 42.8652 15.0539ZM42.8652 18.6666C42.1978 18.6666 41.6517 18.1247 41.6517 17.4623C41.6517 16.8 42.1978 16.2581 42.8652 16.2581C43.5326 16.2581 44.0787 16.8 44.0787 17.4623C44.0787 18.1247 43.5326 18.6666 42.8652 18.6666Z" fill="#192646"/>
<path d="M47.4157 20.774C46.0809 20.774 44.9888 21.8578 44.9888 23.1824C44.9888 24.507 46.0809 25.5909 47.4157 25.5909C48.7506 25.5909 49.8427 24.507 49.8427 23.1824C49.8427 21.8578 48.7506 20.774 47.4157 20.774ZM47.4157 24.3866C46.7483 24.3866 46.2022 23.8447 46.2022 23.1824C46.2022 22.5201 46.7483 21.9782 47.4157 21.9782C48.0832 21.9782 48.6292 22.5201 48.6292 23.1824C48.6292 23.8447 48.0832 24.3866 47.4157 24.3866Z" fill="#192646"/>
<path d="M15.5011 51C23.4494 51 29.9416 44.5574 29.9416 36.6095C29.9416 34.5021 28.9708 30.8894 26.9685 25.6511C26.7865 25.1092 26.5438 24.5673 26.3618 24.0254H29.3348C29.5775 24.0254 29.8202 23.8447 29.9416 23.6039L34.4921 7.28663H45.1708C45.5348 7.28663 45.7775 7.04578 45.7775 6.68452C45.7775 6.32325 45.5348 6.0824 45.1708 6.0824H34.0067C33.764 6.0824 33.5213 6.26304 33.4 6.50388L28.9101 22.8813H19.5663C19.2022 22.8813 18.9596 23.1222 18.9596 23.4835C18.9596 23.8447 19.2022 24.0856 19.5663 24.0856H25.0876C25.3303 24.7479 25.6337 25.4704 25.8764 26.1328C27.818 31.1905 28.7888 34.743 28.7888 36.6697C28.7888 43.9553 22.8427 49.856 15.5011 49.856C8.15955 49.856 2.21348 43.8951 2.21348 36.6095C2.21348 30.1067 12.8921 8.12959 15.5011 2.95142C16.8966 5.78135 20.7798 13.669 23.9348 21.2556C24.0562 21.5567 24.4202 21.7373 24.7236 21.6169C25.027 21.4965 25.209 21.1352 25.0876 20.8342C21.0831 11.381 16.0472 1.44614 15.9865 1.32572C15.8045 1.02466 15.4404 0.904236 15.1371 1.08487C15.0764 1.14508 14.9551 1.2655 14.9551 1.32572C14.3483 2.46973 1 28.9627 1 36.6095C1 44.5574 7.49213 51 15.5011 51Z" fill="#192646"/>
<path d="M11.618 37.9342C11.618 36.4289 10.4045 35.2247 8.88764 35.2247C7.37079 35.2247 6.1573 36.4289 6.1573 37.9342C6.1573 39.4394 7.37079 40.6437 8.88764 40.6437C10.3438 40.6437 11.618 39.4394 11.618 37.9342ZM8.82697 39.4394C7.97753 39.4394 7.31011 38.7771 7.31011 37.9342C7.31011 37.0912 7.97753 36.4289 8.82697 36.4289C9.6764 36.4289 10.3438 37.0912 10.3438 37.9342C10.4045 38.7771 9.6764 39.4394 8.82697 39.4394Z" fill="#192646"/>
<path d="M25.7551 35.1042C25.7551 33.5989 24.5416 32.3947 23.0247 32.3947C21.5079 32.3947 20.2944 33.5989 20.2944 35.1042C20.2944 36.6095 21.5079 37.8137 23.0247 37.8137C24.5416 37.8137 25.7551 36.6095 25.7551 35.1042ZM23.0247 36.6095C22.1753 36.6095 21.5079 35.9472 21.5079 35.1042C21.5079 34.2613 22.1753 33.5989 23.0247 33.5989C23.8742 33.5989 24.5416 34.2613 24.5416 35.1042C24.5416 35.887 23.8742 36.6095 23.0247 36.6095Z" fill="#192646"/>
<path d="M20.173 19.2687C20.173 17.7634 18.9596 16.5592 17.4427 16.5592C15.9258 16.5592 14.7124 17.7634 14.7124 19.2687C14.7124 20.774 15.9258 21.9782 17.4427 21.9782C18.9596 21.9782 20.173 20.774 20.173 19.2687ZM17.4427 20.774C16.5933 20.774 15.9258 20.1116 15.9258 19.2687C15.9258 18.4257 16.5933 17.7634 17.4427 17.7634C18.2921 17.7634 18.9596 18.4257 18.9596 19.2687C18.9596 20.1116 18.2315 20.774 17.4427 20.774Z" fill="#192646"/>
<path d="M15.5011 33.5387C16.7753 33.5387 17.8674 32.5151 17.8674 31.1905C17.8674 29.8658 16.836 28.8423 15.5011 28.8423C14.1663 28.8423 13.1348 29.9261 13.1348 31.2507C13.1348 32.5151 14.1663 33.5387 15.5011 33.5387ZM15.5011 30.1067C16.1079 30.1067 16.6539 30.5884 16.6539 31.2507C16.6539 31.913 16.1079 32.3345 15.5011 32.3345C14.8944 32.3345 14.3483 31.8528 14.3483 31.2507C14.3483 30.5884 14.8337 30.1067 15.5011 30.1067Z" fill="#192646"/>
<path d="M19.4449 41.2458C19.4449 40.162 18.5348 39.2588 17.4427 39.2588C16.3506 39.2588 15.4405 40.162 15.4405 41.2458C15.4405 42.3296 16.3506 43.2327 17.4427 43.2327C18.5348 43.2327 19.4449 42.3296 19.4449 41.2458ZM16.5933 41.2458C16.5933 40.8243 16.9573 40.463 17.382 40.463C17.8067 40.463 18.1708 40.8243 18.1708 41.2458C18.1708 41.6673 17.8067 42.0285 17.382 42.0285C16.9573 42.0285 16.5933 41.6673 16.5933 41.2458Z" fill="#192646"/>
<path d="M7.18876 31.9732C7.55281 31.9732 7.79551 31.7324 7.79551 31.3711C7.79551 31.0099 7.55281 30.769 7.18876 30.769H6.70337C6.33933 30.769 6.09663 31.0099 6.09663 31.3711C6.09663 31.7324 6.33933 31.9732 6.70337 31.9732H7.18876Z" fill="#192646"/>
<path d="M21.0831 27.638H20.5978C20.2337 27.638 19.991 27.8789 19.991 28.2401C19.991 28.6014 20.2337 28.8423 20.5978 28.8423H21.0831C21.4472 28.8423 21.6899 28.6014 21.6899 28.2401C21.6899 27.8789 21.4472 27.638 21.0831 27.638Z" fill="#192646"/>
<path d="M12.4067 26.8553H12.8921C13.2562 26.8553 13.4989 26.6144 13.4989 26.2532C13.4989 25.8919 13.2562 25.6511 12.8921 25.6511H12.4067C12.0427 25.6511 11.8 25.8919 11.8 26.2532C11.8 26.6144 12.1034 26.8553 12.4067 26.8553Z" fill="#192646"/>
<path d="M11.8607 20.3525C11.8607 19.9912 11.618 19.7504 11.2539 19.7504H10.7685C10.4045 19.7504 10.1618 19.9912 10.1618 20.3525C10.1618 20.7137 10.4045 20.9546 10.7685 20.9546H11.2539C11.5573 20.9546 11.8607 20.6535 11.8607 20.3525Z" fill="#192646"/>
<path d="M13.9236 13.2475H14.409C14.773 13.2475 15.0157 13.0067 15.0157 12.6454C15.0157 12.2842 14.773 12.0433 14.409 12.0433H13.9236C13.5596 12.0433 13.3169 12.2842 13.3169 12.6454C13.3169 13.0067 13.5596 13.2475 13.9236 13.2475Z" fill="#192646"/>
<path d="M15.7438 35.7666C15.3798 35.7666 15.1371 36.0074 15.1371 36.3687C15.1371 36.7299 15.3798 36.9708 15.7438 36.9708H16.2292C16.5933 36.9708 16.836 36.7299 16.836 36.3687C16.836 36.0074 16.5933 35.7666 16.2292 35.7666H15.7438Z" fill="#192646"/>
<path d="M9.55506 43.8951C9.19101 43.8951 8.94832 44.1359 8.94832 44.4972C8.94832 44.8584 9.19101 45.0993 9.55506 45.0993H10.0405C10.4045 45.0993 10.6472 44.8584 10.6472 44.4972C10.6472 44.1359 10.4045 43.8951 10.0405 43.8951H9.55506Z" fill="#192646"/>
<path d="M15.2584 47.2669H15.7438C16.1079 47.2669 16.3506 47.0261 16.3506 46.6648C16.3506 46.3035 16.1079 46.0627 15.7438 46.0627H15.2584C14.8944 46.0627 14.6517 46.3035 14.6517 46.6648C14.6517 47.0261 14.8944 47.2669 15.2584 47.2669Z" fill="#192646"/>
<path d="M23.3281 42.3296C22.964 42.3296 22.7214 42.5704 22.7214 42.9317C22.7214 43.293 22.964 43.5338 23.3281 43.5338H23.8135C24.1775 43.5338 24.4202 43.293 24.4202 42.9317C24.4202 42.5704 24.1775 42.3296 23.8135 42.3296H23.3281Z" fill="#192646"/>
<path d="M35.3416 20.3525C35.3416 25.7715 39.7708 30.1067 45.1708 30.1067C50.5708 30.1067 55 25.7113 55 20.3525C55 14.9335 50.5708 10.5982 45.1708 10.5982C39.7101 10.538 35.3416 14.9335 35.3416 20.3525ZM53.7865 20.3525C53.7865 25.1092 49.9034 28.9025 45.1708 28.9025C40.3775 28.9025 36.5551 25.0489 36.5551 20.3525C36.5551 15.5958 40.4382 11.8025 45.1708 11.8025C49.9034 11.7423 53.7865 15.5958 53.7865 20.3525Z" stroke="#192646" stroke-width="0.2" mask="url(#path-1-outside-1_52_416)"/>
<path d="M40.9236 24.507C41.1663 24.7479 41.5303 24.7479 41.773 24.507L49.3573 16.9806C49.6 16.7398 49.6 16.3785 49.3573 16.1377C49.1146 15.8968 48.7506 15.8968 48.5079 16.1377L40.9236 23.6641C40.6809 23.9049 40.6809 24.2662 40.9236 24.507Z" stroke="#192646" stroke-width="0.2" mask="url(#path-1-outside-1_52_416)"/>
<path d="M42.8652 15.0539C41.5303 15.0539 40.4382 16.1377 40.4382 17.4623C40.4382 18.787 41.5303 19.8708 42.8652 19.8708C44.2 19.8708 45.2921 18.787 45.2921 17.4623C45.2921 16.1377 44.2 15.0539 42.8652 15.0539ZM42.8652 18.6666C42.1978 18.6666 41.6517 18.1247 41.6517 17.4623C41.6517 16.8 42.1978 16.2581 42.8652 16.2581C43.5326 16.2581 44.0787 16.8 44.0787 17.4623C44.0787 18.1247 43.5326 18.6666 42.8652 18.6666Z" stroke="#192646" stroke-width="0.2" mask="url(#path-1-outside-1_52_416)"/>
<path d="M47.4157 20.774C46.0809 20.774 44.9888 21.8578 44.9888 23.1824C44.9888 24.507 46.0809 25.5909 47.4157 25.5909C48.7506 25.5909 49.8427 24.507 49.8427 23.1824C49.8427 21.8578 48.7506 20.774 47.4157 20.774ZM47.4157 24.3866C46.7483 24.3866 46.2022 23.8447 46.2022 23.1824C46.2022 22.5201 46.7483 21.9782 47.4157 21.9782C48.0832 21.9782 48.6292 22.5201 48.6292 23.1824C48.6292 23.8447 48.0832 24.3866 47.4157 24.3866Z" stroke="#192646" stroke-width="0.2" mask="url(#path-1-outside-1_52_416)"/>
<path d="M15.5011 51C23.4494 51 29.9416 44.5574 29.9416 36.6095C29.9416 34.5021 28.9708 30.8894 26.9685 25.6511C26.7865 25.1092 26.5438 24.5673 26.3618 24.0254H29.3348C29.5775 24.0254 29.8202 23.8447 29.9416 23.6039L34.4921 7.28663H45.1708C45.5348 7.28663 45.7775 7.04578 45.7775 6.68452C45.7775 6.32325 45.5348 6.0824 45.1708 6.0824H34.0067C33.764 6.0824 33.5213 6.26304 33.4 6.50388L28.9101 22.8813H19.5663C19.2022 22.8813 18.9596 23.1222 18.9596 23.4835C18.9596 23.8447 19.2022 24.0856 19.5663 24.0856H25.0876C25.3303 24.7479 25.6337 25.4704 25.8764 26.1328C27.818 31.1905 28.7888 34.743 28.7888 36.6697C28.7888 43.9553 22.8427 49.856 15.5011 49.856C8.15955 49.856 2.21348 43.8951 2.21348 36.6095C2.21348 30.1067 12.8921 8.12959 15.5011 2.95142C16.8966 5.78135 20.7798 13.669 23.9348 21.2556C24.0562 21.5567 24.4202 21.7373 24.7236 21.6169C25.027 21.4965 25.209 21.1352 25.0876 20.8342C21.0831 11.381 16.0472 1.44614 15.9865 1.32572C15.8045 1.02466 15.4404 0.904236 15.1371 1.08487C15.0764 1.14508 14.9551 1.2655 14.9551 1.32572C14.3483 2.46973 1 28.9627 1 36.6095C1 44.5574 7.49213 51 15.5011 51Z" stroke="#192646" stroke-width="0.2" mask="url(#path-1-outside-1_52_416)"/>
<path d="M11.618 37.9342C11.618 36.4289 10.4045 35.2247 8.88764 35.2247C7.37079 35.2247 6.1573 36.4289 6.1573 37.9342C6.1573 39.4394 7.37079 40.6437 8.88764 40.6437C10.3438 40.6437 11.618 39.4394 11.618 37.9342ZM8.82697 39.4394C7.97753 39.4394 7.31011 38.7771 7.31011 37.9342C7.31011 37.0912 7.97753 36.4289 8.82697 36.4289C9.6764 36.4289 10.3438 37.0912 10.3438 37.9342C10.4045 38.7771 9.6764 39.4394 8.82697 39.4394Z" stroke="#192646" stroke-width="0.2" mask="url(#path-1-outside-1_52_416)"/>
<path d="M25.7551 35.1042C25.7551 33.5989 24.5416 32.3947 23.0247 32.3947C21.5079 32.3947 20.2944 33.5989 20.2944 35.1042C20.2944 36.6095 21.5079 37.8137 23.0247 37.8137C24.5416 37.8137 25.7551 36.6095 25.7551 35.1042ZM23.0247 36.6095C22.1753 36.6095 21.5079 35.9472 21.5079 35.1042C21.5079 34.2613 22.1753 33.5989 23.0247 33.5989C23.8742 33.5989 24.5416 34.2613 24.5416 35.1042C24.5416 35.887 23.8742 36.6095 23.0247 36.6095Z" stroke="#192646" stroke-width="0.2" mask="url(#path-1-outside-1_52_416)"/>
<path d="M20.173 19.2687C20.173 17.7634 18.9596 16.5592 17.4427 16.5592C15.9258 16.5592 14.7124 17.7634 14.7124 19.2687C14.7124 20.774 15.9258 21.9782 17.4427 21.9782C18.9596 21.9782 20.173 20.774 20.173 19.2687ZM17.4427 20.774C16.5933 20.774 15.9258 20.1116 15.9258 19.2687C15.9258 18.4257 16.5933 17.7634 17.4427 17.7634C18.2921 17.7634 18.9596 18.4257 18.9596 19.2687C18.9596 20.1116 18.2315 20.774 17.4427 20.774Z" stroke="#192646" stroke-width="0.2" mask="url(#path-1-outside-1_52_416)"/>
<path d="M15.5011 33.5387C16.7753 33.5387 17.8674 32.5151 17.8674 31.1905C17.8674 29.8658 16.836 28.8423 15.5011 28.8423C14.1663 28.8423 13.1348 29.9261 13.1348 31.2507C13.1348 32.5151 14.1663 33.5387 15.5011 33.5387ZM15.5011 30.1067C16.1079 30.1067 16.6539 30.5884 16.6539 31.2507C16.6539 31.913 16.1079 32.3345 15.5011 32.3345C14.8944 32.3345 14.3483 31.8528 14.3483 31.2507C14.3483 30.5884 14.8337 30.1067 15.5011 30.1067Z" stroke="#192646" stroke-width="0.2" mask="url(#path-1-outside-1_52_416)"/>
<path d="M19.4449 41.2458C19.4449 40.162 18.5348 39.2588 17.4427 39.2588C16.3506 39.2588 15.4405 40.162 15.4405 41.2458C15.4405 42.3296 16.3506 43.2327 17.4427 43.2327C18.5348 43.2327 19.4449 42.3296 19.4449 41.2458ZM16.5933 41.2458C16.5933 40.8243 16.9573 40.463 17.382 40.463C17.8067 40.463 18.1708 40.8243 18.1708 41.2458C18.1708 41.6673 17.8067 42.0285 17.382 42.0285C16.9573 42.0285 16.5933 41.6673 16.5933 41.2458Z" stroke="#192646" stroke-width="0.2" mask="url(#path-1-outside-1_52_416)"/>
<path d="M7.18876 31.9732C7.55281 31.9732 7.79551 31.7324 7.79551 31.3711C7.79551 31.0099 7.55281 30.769 7.18876 30.769H6.70337C6.33933 30.769 6.09663 31.0099 6.09663 31.3711C6.09663 31.7324 6.33933 31.9732 6.70337 31.9732H7.18876Z" stroke="#192646" stroke-width="0.2" mask="url(#path-1-outside-1_52_416)"/>
<path d="M21.0831 27.638H20.5978C20.2337 27.638 19.991 27.8789 19.991 28.2401C19.991 28.6014 20.2337 28.8423 20.5978 28.8423H21.0831C21.4472 28.8423 21.6899 28.6014 21.6899 28.2401C21.6899 27.8789 21.4472 27.638 21.0831 27.638Z" stroke="#192646" stroke-width="0.2" mask="url(#path-1-outside-1_52_416)"/>
<path d="M12.4067 26.8553H12.8921C13.2562 26.8553 13.4989 26.6144 13.4989 26.2532C13.4989 25.8919 13.2562 25.6511 12.8921 25.6511H12.4067C12.0427 25.6511 11.8 25.8919 11.8 26.2532C11.8 26.6144 12.1034 26.8553 12.4067 26.8553Z" stroke="#192646" stroke-width="0.2" mask="url(#path-1-outside-1_52_416)"/>
<path d="M11.8607 20.3525C11.8607 19.9912 11.618 19.7504 11.2539 19.7504H10.7685C10.4045 19.7504 10.1618 19.9912 10.1618 20.3525C10.1618 20.7137 10.4045 20.9546 10.7685 20.9546H11.2539C11.5573 20.9546 11.8607 20.6535 11.8607 20.3525Z" stroke="#192646" stroke-width="0.2" mask="url(#path-1-outside-1_52_416)"/>
<path d="M13.9236 13.2475H14.409C14.773 13.2475 15.0157 13.0067 15.0157 12.6454C15.0157 12.2842 14.773 12.0433 14.409 12.0433H13.9236C13.5596 12.0433 13.3169 12.2842 13.3169 12.6454C13.3169 13.0067 13.5596 13.2475 13.9236 13.2475Z" stroke="#192646" stroke-width="0.2" mask="url(#path-1-outside-1_52_416)"/>
<path d="M15.7438 35.7666C15.3798 35.7666 15.1371 36.0074 15.1371 36.3687C15.1371 36.7299 15.3798 36.9708 15.7438 36.9708H16.2292C16.5933 36.9708 16.836 36.7299 16.836 36.3687C16.836 36.0074 16.5933 35.7666 16.2292 35.7666H15.7438Z" stroke="#192646" stroke-width="0.2" mask="url(#path-1-outside-1_52_416)"/>
<path d="M9.55506 43.8951C9.19101 43.8951 8.94832 44.1359 8.94832 44.4972C8.94832 44.8584 9.19101 45.0993 9.55506 45.0993H10.0405C10.4045 45.0993 10.6472 44.8584 10.6472 44.4972C10.6472 44.1359 10.4045 43.8951 10.0405 43.8951H9.55506Z" stroke="#192646" stroke-width="0.2" mask="url(#path-1-outside-1_52_416)"/>
<path d="M15.2584 47.2669H15.7438C16.1079 47.2669 16.3506 47.0261 16.3506 46.6648C16.3506 46.3035 16.1079 46.0627 15.7438 46.0627H15.2584C14.8944 46.0627 14.6517 46.3035 14.6517 46.6648C14.6517 47.0261 14.8944 47.2669 15.2584 47.2669Z" stroke="#192646" stroke-width="0.2" mask="url(#path-1-outside-1_52_416)"/>
<path d="M23.3281 42.3296C22.964 42.3296 22.7214 42.5704 22.7214 42.9317C22.7214 43.293 22.964 43.5338 23.3281 43.5338H23.8135C24.1775 43.5338 24.4202 43.293 24.4202 42.9317C24.4202 42.5704 24.1775 42.3296 23.8135 42.3296H23.3281Z" stroke="#192646" stroke-width="0.2" mask="url(#path-1-outside-1_52_416)"/>
<path d="M45 50L50.7735 40H39.2265L45 50ZM44 33V41H46V33H44Z" fill="#192646"/>
</svg>
