<!-- Generated by IcoMoon.io -->
<svg version="1.1" xmlns="http://www.w3.org/2000/svg" width="1024" height="1024" viewBox="0 0 1024 1024">
<g id="icomoon-ignore">
</g>
<path fill="#000" d="M365.462 572.882v-444.625c0-70.541-58.024-128.257-128.943-128.257s-128.943 57.716-128.943 128.257v444.625c-109.601 70.54-140.763 215.898-68.77 324.917 71.993 109.017 217.053 140.014 326.656 69.472 109.601-70.54 140.761-216.968 68.768-324.917-17.192-28.857-40.831-51.302-68.768-69.472zM236.519 961.926c-106.378 0-193.415-86.572-193.415-192.384 0-68.403 36.534-132.533 96.707-166.734l2.149-1.068 1.075-1.068c1.074-1.070 1.074-1.070 1.074-2.139 0 0 1.075-1.068 1.075-2.137 0 0 1.074-1.068 1.074-2.139l2.149-4.274c0-1.068 0-1.068 1.075-2.139 0 0 0-1.068 1.074-2.137 0-1.068 0-1.068 0-2.137 0 0 0 0 0-1.070v-454.243c0-47.027 38.683-85.505 85.962-85.505s85.962 38.477 85.962 85.505v456.381c0 0 0 0 0 1.068s0 2.137 0 2.137c0 1.070 0 1.070 0 2.139s0 1.068 1.074 2.137l2.148 4.276c0 1.068 1.074 1.068 1.074 2.137s1.074 1.068 1.074 2.139c0 1.068 1.076 1.068 1.076 1.068l1.074 1.068c1.074 0 1.074 1.068 2.148 1.068 92.409 53.441 124.644 171.010 70.919 262.926-34.385 57.717-97.782 95.124-166.551 95.124z"></path>
<path fill="#000" d="M268.752 668.005v-219.107c0-18.169-13.969-32.063-32.235-32.063-18.268 0-32.237 13.894-32.237 32.063v219.107c-56.949 18.169-88.111 78.023-69.844 133.601 18.267 56.647 78.44 87.641 134.315 69.472 56.95-18.169 88.11-78.023 69.845-133.601-9.67-33.133-36.534-59.854-69.845-69.472z"></path>
<path fill="#000" d="M1004.799 288.579c0-8.549-7.522-16.032-16.117-16.032h-20.416l32.237-32.063c6.447-6.413 6.447-16.032 0-22.445-6.447-6.414-16.117-6.414-22.565 0l-54.801 54.508h-13.969l32.237-32.063c6.447-6.413 6.447-16.032 0-22.445-6.447-6.414-16.119-6.414-22.567 0l-54.799 54.508h-60.174l19.342-56.647h48.354c8.596 0 16.117-7.481 16.117-16.032 0-8.55-7.522-16.031-16.117-16.031h-22.565l27.938-27.789h52.651c8.596 0 16.117-7.482 16.117-16.032s-7.522-16.032-16.117-16.032h-21.49l32.235-32.064c6.447-6.413 6.447-16.032 1.076-22.445-6.447-6.413-16.119-6.413-22.567-1.069 0 0-1.074 0-1.074 1.069l-32.235 32.064v-20.307c0-8.55-7.522-16.032-16.117-16.032-8.598 0-16.119 7.482-16.119 16.032v52.372l-27.938 26.72v-20.307c0-8.55-7.522-16.032-16.117-16.032s-16.117 7.482-16.117 16.032v48.097l-56.95 19.239v-59.854l54.801-54.509c6.447-6.413 6.447-16.032 0-22.445s-16.119-6.413-22.565 0l-48.354 47.027-48.354-48.096c-6.447-6.413-16.117-6.413-22.565 0s-6.447 16.032 0 22.445l54.801 54.509v59.854l-56.95-19.239v-48.096c0-8.551-7.522-16.032-16.119-16.032s-16.117 7.482-16.117 16.032v20.307l-27.938-27.789v-50.234c0-8.55-7.522-16.032-16.117-16.032s-16.117 7.482-16.117 16.032v20.307l-32.237-32.064c-6.447-6.413-16.117-5.344-22.565 1.069-5.373 6.413-5.373 16.032 0 21.376l32.237 32.064h-20.416c-8.596 0-16.119 7.482-16.119 16.032s7.524 16.032 16.119 16.032h52.651l27.938 27.789h-20.416c-8.596 0-16.117 7.482-16.117 16.031 0 8.551 7.522 16.032 16.117 16.032h48.354l19.342 56.647h-60.174l-54.799-54.508c-6.447-6.414-16.119-6.414-22.567 0s-6.447 16.032 0 22.445l32.237 32.063h-13.969l-54.801-54.508c-6.447-6.414-16.117-6.414-22.565 0s-6.447 16.032 0 22.445l32.237 32.063h-23.641c-8.596 0-16.117 7.483-16.117 16.032 0 8.551 7.522 16.032 16.117 16.032h20.416l-32.235 32.065c-6.447 6.413-6.447 16.032 0 22.445s16.117 6.413 22.565 0l54.799-54.51h13.969l-32.235 32.065c-6.447 6.413-6.447 16.032 0 22.445 3.223 3.205 7.522 4.276 11.82 4.276s8.596-2.139 11.819-4.276l54.801-54.51h60.173l-19.34 56.647h-48.354c-8.596 0-16.117 7.483-16.117 16.032 0 8.551 7.522 16.032 16.117 16.032h20.416l-27.938 27.789h-52.653c-8.596 0-16.117 7.481-16.117 16.032 0 8.549 7.522 16.032 16.117 16.032h20.416l-32.235 32.065c-6.447 6.413-6.447 16.030 0 22.445 3.223 3.205 7.522 4.274 11.819 4.274 4.299 0 8.598-2.137 11.82-4.274l32.237-32.065v20.306c0 8.551 7.522 16.032 16.117 16.032s16.117-7.481 16.117-16.032v-52.371l27.938-26.721v20.308c0 8.549 7.522 16.032 16.117 16.032s16.117-7.483 16.117-16.032v-48.097l56.95-19.238v59.854l-54.799 54.508c-6.447 6.413-6.447 16.032 0 22.445s16.117 6.413 22.565 0l49.428-47.027 48.354 48.097c3.223 3.205 7.522 4.274 11.819 4.274 4.299 0 8.596-2.137 11.82-4.274 6.447-6.414 6.447-16.032 0-22.445l-54.801-54.51v-59.854l56.95 19.238v48.097c0 8.551 7.522 16.032 16.117 16.032 8.598 0 16.119-7.481 16.119-16.032v-21.376l27.936 27.789v52.373c0 8.549 7.524 16.030 16.119 16.030s16.117-7.481 16.117-16.030v-21.376l32.235 32.065c3.225 3.205 7.524 4.274 11.82 4.274 4.299 0 8.596-2.137 11.82-4.274 6.447-6.414 6.447-16.032 0-22.445l-32.237-32.065h20.416c8.596 0 16.117-7.483 16.117-16.032 0-8.551-7.522-16.032-16.117-16.032h-52.651l-29.012-27.789h20.416c8.596 0 16.117-7.481 16.117-16.032 0-8.549-7.522-16.032-16.117-16.032h-48.354l-19.342-56.647h60.174l54.799 54.51c3.225 3.205 7.522 4.276 11.82 4.276 8.596 0 16.117-7.483 16.117-16.032 0-4.276-2.148-8.551-4.299-11.757l-32.235-32.065h13.969l54.801 54.51c6.445 6.413 16.117 6.413 22.565 0s6.447-16.032 0-22.445l-32.237-32.065h21.49c8.596 1.068 16.117-6.413 16.117-14.964zM784.523 224.451l-16.117 48.095h-32.237v-32.063l48.354-16.032zM655.58 224.451l48.354 16.032v32.063h-32.237l-16.117-48.095zM655.58 352.708l16.117-48.097h32.237v32.065l-48.354 16.032zM784.523 352.708l-48.354-16.032v-32.065h32.237l16.117 48.097z"></path>
<path fill="#000" d="M731.87 485.239c-6.447-6.413-16.117-6.413-22.565 0l-60.173 59.854c-6.447 6.413-6.447 16.032 0 22.445s16.117 6.413 22.565 0l48.354-48.097 48.352 48.097c3.225 3.205 7.522 4.276 11.82 4.276s8.596-2.139 11.82-4.276c6.447-6.413 6.447-16.032 0-22.445l-60.174-59.854z"></path>
<path fill="#000" d="M708.231 91.917c6.447 6.413 16.117 6.413 22.565 0l60.174-59.853c6.445-6.413 6.445-16.032 0-22.445-6.447-6.413-16.119-6.413-22.567 0l-48.352 48.096-48.354-48.096c-6.447-6.413-16.117-6.413-22.565 0s-6.447 16.032 0 22.445l59.098 59.853z"></path>
</svg>
