<!-- Generated by IcoMoon.io -->
<svg version="1.1" xmlns="http://www.w3.org/2000/svg" width="1024" height="1024" viewBox="0 0 1024 1024">
<g id="icomoon-ignore">
</g>
<path fill="#000" d="M523.549 327.217h28.872v423.46h-28.872v-423.46zM471.579 327.217h30.798v423.46h-30.798v-423.46zM523.549 59.669h461.956c9.309 0 17.323 5.466 17.323 15.398v914.287c0 9.31-6.088 15.398-15.398 15.398h-463.881v-232.902c17.728 0 31.4 1.522 46.196-1.925 2.233-4.655 3.85-8.42 3.85-15.398v-435.008c0-18.733-16.85-13.474-50.046-13.474v-246.375zM452.331 313.744v446.556c0 5.199 0.918 5.307 1.925 9.625 14.885 3.468 30.245 1.925 48.12 1.925v232.902h-463.881c-10.48 0-17.323-6.843-17.323-17.323v-910.437c0-9.514 7.809-17.323 17.323-17.323h463.881v246.375c-25.443 0-50.046-4.539-50.046 7.7zM46.196 21.172h931.61v17.324h-931.61v-17.324zM25.023 42.346c-15.839 1.318-25.023 20.643-25.023 38.496v904.663c0 17.098 11.31 38.496 26.948 38.496h970.105c13.776 0 26.948-16.908 26.948-36.571v-912.362c0-15.428-10.844-31.542-25.023-32.721 0-14.407 0.819-26.723-1.925-38.497-4.654-2.232-8.42-3.849-15.398-3.849h-943.158c-18.074 0-13.473 22.154-13.473 42.346z"></path>
<path fill="#000" d="M234.827 490.827c38.604 0 38.604 55.819 0 55.819-37.906 0-36.702-55.819 0-55.819zM225.202 340.692v44.271c-9.759-6.537-24.357-28.872-34.646-28.872-8.005 0-7.7 7.132-7.7 11.549 0 9.523 42.346 38.6 42.346 48.12 0 64.854 4.095 53.434-12.225 60.917-7.318 3.357-7.404 4.765-12.797 8.376-6.047-8.252-42.753-26.254-47.443-33.4-2.231-3.4-6.89-27.753-7.909-32.512-4.176-19.522-2.093-30.328-15.867-30.328-16.578 0-1.522 29.824 0 48.119-8.303-5.56-34.146-23.111-42.346-25.023-25.009 21.739 24.327 25.326 28.872 42.346-8.732 0-16.003 2.242-23.285 3.663-22.080 4.308-20.441 5.252-17.137 19.436 19.373 4.513 56.114-11.021 66.674-8.42 4.35 1.072 40.026 26.867 48.814 31.517-5.289 22.706-5.4 13.393 0 36.572l-38.495 25.035c-15.311 10.456-11.413 7.498-48.302 0.168-27.022-5.371-33.576-7.668-28.692 13.293 10.314 2.404 31.196 7.699 42.346 7.699-6.22 9.288-32.792 21.249-36.607 27.174-2.021 3.14-3.806 13.248 7.734 13.248 8.656 0 31.664-18.465 40.421-23.098-2.091 25.126-21.093 53.352 9.623 46.196l10.363-47.382c1.34-6.153 1.286-12.011 5.251-15.922 0.816-0.806 9.739-6.21 11.723-7.526l36.183-23.486c6.977 6.066 10.951 10.539 23.097 11.55l0.147 54.041c-1.126 20.89-42.492 35.206-42.492 55.672 0 4.735 6.159 14.529 21.688-1.407 6.906-7.087 12.757-14.475 20.657-19.766 0 16.184-1.134 34.988 1.925 48.12 12.043 2.883 17.734 5.829 17.388-17.258-0.153-10.284-0.064-20.577-0.064-30.863 20.349 13.626 30.73 44.837 44.271 19.248-9.524-17.996-44.271-40.797-44.271-50.044v-57.744c11.338-0.253 17.77-6.693 25.022-11.55l36.966 24.629c4.471 2.918 9.027 4.523 11.706 9.467 9.992 18.443 4.812 62.145 22.546 62.145 4.627 0 5.658-3.119 9.625-5.775-1.124-13.494-7.397-28.753-7.7-42.346 9.759 6.534 48.12 39.254 48.12 13.473 0-6.439-10.877-11.77-15.781-15.017-6.352-4.204-13.27-10.178-20.792-11.931v-3.85c4.672 0 44.271-4.403 44.271-13.473 0-5.199-0.919-5.307-1.925-9.623-20.503-4.777-54.739 10.416-67.056 8.352-3.617-0.607-42.525-27.494-48.432-31.45 0.256-11.503 5.523-21.050-1.925-36.572 9.596-2.561 40.195-27.534 48.004-30.735 9.011-3.694 46.126 9.562 65.56 9.562 2.225-3.322 17.597-16.317-11.754-20.968-9.42-1.491-17.211-4.054-26.743-4.054v-3.849c3.457-0.924 36.572-20.023 36.572-26.948 0-20.208-17.925-6.735-22.717-3.474-8.804 5.988-16.883 11.243-25.403 16.947 0-13.994 6.537-28.377 7.7-42.346-16.53-11.069-17.632-9.419-23.897 22.299-8.343 42.234-3.11 32.273-32.696 51.997-9.783 6.523-15.921 10.743-26.176 16.17-11.086-16.557-23.097-6.496-23.097-17.323v-50.046c0-9.542 44.271-39.569 44.271-51.969 0-4.409-0.653-2.238-1.925-7.7-22.848-5.471-20.994 12.649-42.346 26.948 0-9.626-0.080-19.284 0.031-28.905 0.272-23.58-3.167-26.562-19.28-15.366z"></path>
<path fill="#000" d="M702.556 610.165c0-28.374 17.72-54.109 34.647-65.444 7.409 14.002 20.819 23.392 40.421 25.023 0 29.389 3.504 90.263-1.925 113.564-29.629 6.902-56.902-19.985-66.884-44.755-2.454-6.084-6.259-20.796-6.259-28.388zM750.797 539.275c0.375 0.222 0.91 0.538 1.11 0.689l8.995 9.207c-5.984-2.913-7.92-4.334-10.105-9.896zM871.94 596.692c-28.173 0-51.823-15.255-63.519-32.721 4.454-6.652 3.969-3.503 8.962-8.362 6.352-6.18 10.14-14.008 12.398-22.249 1.662-6.067 0.647-11.735 7.512-11.735h96.241c29.897 0 4.553 39.678-3.364 48.605-12.36 13.934-32.625 26.462-58.231 26.462zM750.797 539.275c-5.433-4.088-7.903-9.178-7.907-15.78-0.008-12.734 1.878-14.433 4.708-17.801-2.347 22.385 1.693 17.279 3.2 33.58zM779.55 496.6c33.725 0 27.001 44.271 3.849 44.271-13.319 0-22.741-7.659-24.44-19.969-1.65-11.948 9.345-24.302 20.591-24.302zM810.113 541.105c6.958-19.2 10.787-18.396-0.33-45.067l7.208 9.643c2.422 6.222 1.453 7.289 1.046 14.074-0.631 10.539-2.416 15.568-7.924 21.35zM750.105 499.098c3.805-7.767 5.461-8.863 13.427-12.843l-13.427 12.843zM729.504 515.85c-21.173 0-42.346 0-63.519 0-17.163 0-51.97 5.889-51.97-11.55 0-14.679 16.181-37.709 24.956-44.339 18.021-13.615 28.263-19.18 55.887-19.18 25.265 0 50.872 18.023 59.669 34.647-17.215 9.108-21.007 23.187-25.023 40.421zM825.744 490.827l-16.183-14.613c-6.528-4.307-15.085-7.723-24.237-8.485l-0.015-92.407c-0.152-18.119-2.232-23.082 11.564-23.082 25.326 0 61.594 34.596 61.594 69.294 0 21.058 0.725 25.75-10.912 46.832-5.714 10.352-11.813 17.172-21.81 22.461zM769.925 469.654c-19.869-14.557-21.071-42.346-86.617-42.346-21.272 0-43.868 12.939-55.368 23.549-22.875 21.106-43.679 68.681-9.299 77.69 7.815 2.048 102.088 0.776 114.713 0.776-0.996 1.36-84.475 56.273-21.221 140.56 13.492 17.98 63.886 48.31 77.203 15.513 3.807-9.375 1.762-104.796 1.762-119.502 9.358 6.857 22.903 44.271 84.692 44.271 64.031 0 111.605-83.854 71.369-100.241-9.693-3.947-104.51-1.774-119.489-1.774l7.703-5.771c34.432-24.856 46.1-68.003 30.563-109.486-15.294-40.839-83.732-80.005-94.646-35.439-3.977 16.238-1.363 88.046-1.363 112.201z"></path>
<path fill="#000" d="M654.436 968.181c-2.637 11.019-3.107 3.984 0 17.323 21.143 4.926 267.175 1.925 309.895 1.925 11.246 0 21.173-9.926 21.173-21.173v-296.422c0-8.004-7.133-7.699-11.549-7.699-11.418 0-7.708 19.728-7.7 30.797 0.028 40.413 1.906 267.991-1.713 271.611-8.573 8.573-272.953-5.018-310.107 3.639z"></path>
<path fill="#000" d="M968.181 612.090c-3.311 14.208-1.925 19.621-1.925 36.572 0 11.332 19.248 11.665 19.248 0 0-16.952 1.386-22.364-1.925-36.572-4.881-1.169-6.168-3.583-15.398 0z"></path>
<path fill="#000" d="M750.797 539.275c-1.506-16.302-5.547-11.195-3.2-33.58-2.83 3.368-4.715 5.067-4.708 17.801 0.005 6.601 2.474 11.692 7.907 15.78z"></path>
<path fill="#000" d="M810.113 541.105c5.507-5.781 7.293-10.811 7.924-21.35 0.407-6.785 1.376-7.852-1.046-14.074l-7.208-9.643c11.117 26.671 7.288 25.867 0.33 45.067z"></path>
<path fill="#000" d="M750.105 499.099l13.427-12.843c-7.967 3.981-9.622 5.077-13.427 12.843z"></path>
<path fill="#000" d="M750.797 539.275c2.185 5.562 4.12 6.984 10.105 9.896l-8.995-9.207c-0.199-0.151-0.735-0.468-1.11-0.689z"></path>
</svg>
