<svg width="32" height="61" viewBox="0 0 32 61" fill="none" xmlns="http://www.w3.org/2000/svg">
<path d="M7.30313 40.2563L7.30325 40.2565L7.3071 40.2536L7.59907 40.0378L7.61934 40.0228V39.9976V7.33171C7.61934 4.62632 9.85857 2.48902 12.5328 2.48902C15.2071 2.48902 17.4464 4.62632 17.4464 7.33171V39.9976V40.0261L17.4709 40.0406L17.8356 40.2563C17.8356 40.2563 17.8357 40.2564 17.8358 40.2564C20.8136 42.0464 22.6287 45.1959 22.6288 48.6313C22.5561 54.0719 18.0531 58.511 12.5328 58.511C7.01234 58.511 2.50985 54.0717 2.50985 48.6317C2.50985 45.196 4.32509 42.0462 7.30313 40.2563ZM29.7842 27.9385L29.7431 27.9146L29.7172 27.9545L26.2552 33.2866L23.0856 28.4579L23.0596 28.4184L23.0187 28.4421L21.7778 29.1616L21.7321 29.1882L21.7612 29.2324L26.2137 35.9958L26.2556 36.0595L26.2973 35.9956L31.0419 28.7286L31.0707 28.6844L31.0251 28.658L29.7842 27.9385ZM27.1814 16.1817V16.1317H27.1314H25.6715H25.6215V16.1817V30.572V30.622H25.6715H27.1314H27.1814V30.572V16.1817ZM11.7529 33.2341V43.4079C9.19538 43.789 7.15438 45.9578 7.15438 48.6317C7.15438 51.538 9.5862 53.9341 12.5328 53.9341C15.4795 53.9341 17.9113 51.538 17.9113 48.6317C17.9113 45.9578 15.8703 43.789 13.3128 43.4079V33.2341V33.1841H13.2628H11.8029H11.7529V33.2341ZM18.9332 39.1787V7.33171C18.9332 3.85013 16.0638 0.95 12.4599 0.95C8.85553 0.95 6.05949 3.77855 6.05949 7.33171V39.179C2.84732 41.2767 0.95 44.8105 0.95 48.6317C0.95 54.9198 6.15555 60.05 12.5328 60.05C18.9101 60.05 24.1157 54.9198 24.1157 48.6317C24.1157 44.8103 22.2182 41.2764 18.9332 39.1787ZM12.5328 52.3951C10.443 52.3951 8.71423 50.69 8.71423 48.6317C8.71423 46.5734 10.443 44.8683 12.5328 44.8683C14.6227 44.8683 16.3515 46.5734 16.3515 48.6317C16.3515 50.69 14.6227 52.3951 12.5328 52.3951Z" fill="#192646" stroke="#192646" stroke-width="0.1"/>
</svg>
