<svg width="54" height="54" viewBox="0 0 54 54" fill="none" xmlns="http://www.w3.org/2000/svg">
<path d="M19.0525 26.4541L19.0505 26.4522C18.0226 25.4529 16.509 23.6232 16.0082 21.2957C15.5112 18.9856 16.0042 16.1497 19.0525 13.1014C19.3617 12.7922 19.3617 12.3189 19.0525 12.0097C18.7433 11.7005 18.27 11.7005 17.9607 12.0097C14.3892 15.5813 13.9183 19.0032 14.5929 21.768C15.2629 24.5145 17.0554 26.5827 17.9607 27.4881C18.9609 28.4882 20.4607 30.3183 20.9616 32.6465C21.4589 34.9575 20.9794 37.7936 17.9602 40.8413C17.6515 41.1505 17.6517 41.6235 17.9607 41.9325C18.0303 42.0021 18.1078 42.0623 18.2015 42.1039C18.296 42.1459 18.3966 42.1644 18.5066 42.1644C18.6716 42.1644 18.897 42.088 19.0525 41.9325C22.624 38.361 23.0949 34.9391 22.4203 32.1743C21.7503 29.4278 19.9578 27.3595 19.0525 26.4541ZM27 0.8C12.5607 0.8 0.8 12.5607 0.8 27C0.8 41.4393 12.5607 53.2 27 53.2C41.4393 53.2 53.2 41.4393 53.2 27C53.2 12.5607 41.4393 0.8 27 0.8ZM27 51.6444C13.4171 51.6444 2.35556 40.5829 2.35556 27C2.35556 13.4171 13.4171 2.35556 27 2.35556C40.5829 2.35556 51.6444 13.4171 51.6444 27C51.6444 40.5829 40.5829 51.6444 27 51.6444ZM27.6617 13.1011C27.9707 12.7919 27.9706 12.3188 27.6614 12.0097C27.3522 11.7005 26.8789 11.7005 26.5697 12.0097C22.9981 15.5813 22.5273 19.0032 23.2018 21.768C23.8719 24.5145 25.6644 26.5827 26.5697 27.4881C27.5698 28.4882 29.0697 30.3183 29.5706 32.6465C30.0678 34.9576 29.5884 37.7937 26.569 40.8415C26.2605 41.1507 26.2607 41.6235 26.5697 41.9325C26.6393 42.0021 26.7168 42.0623 26.8105 42.1039C26.905 42.1459 27.0056 42.1644 27.1156 42.1644C27.2806 42.1644 27.5059 42.088 27.6614 41.9325C31.233 38.361 31.7038 34.9391 31.0293 32.1743C30.3593 29.4278 28.5668 27.3595 27.6614 26.4541C26.6613 25.454 25.1615 23.6239 24.6605 21.2957C24.1633 18.9847 24.6428 16.1488 27.6617 13.1011ZM36.2708 13.1009C36.5795 12.7917 36.5793 12.3187 36.2703 12.0097C35.9611 11.7005 35.4878 11.7005 35.1785 12.0097C31.607 15.5813 31.1361 19.0032 31.8107 21.768C32.4807 24.5145 34.2732 26.5827 35.1785 27.4881C36.1787 28.4882 37.6785 30.3183 38.1794 32.6465C38.6767 34.9576 38.1972 37.7937 35.1779 40.8415C34.8693 41.1507 34.8695 41.6235 35.1785 41.9325C35.2481 42.0021 35.3257 42.0623 35.4193 42.1039C35.5138 42.1459 35.6144 42.1644 35.7244 42.1644C35.8894 42.1644 36.1148 42.088 36.2703 41.9325C39.8419 38.361 40.3127 34.9391 39.6382 32.1743C38.9681 29.4278 37.1756 27.3595 36.2703 26.4541C35.2701 25.454 33.7703 23.6239 33.2694 21.2957C32.7722 18.9847 33.2516 16.1487 36.2708 13.1009Z" fill="#192646" stroke="#192646" stroke-width="0.4"/>
</svg>
