<svg width="37" height="37" viewBox="0 0 37 37" fill="none" xmlns="http://www.w3.org/2000/svg">
<path d="M18.4156 3.64191L18.4155 3.64174L18.4087 3.64343C18.262 3.67963 18.139 3.76823 18.0531 3.87006C17.969 3.96966 17.907 4.09842 17.907 4.22656V7.17969C17.907 7.33852 17.9858 7.48431 18.09 7.5872C18.1943 7.6902 18.3411 7.76719 18.5 7.76719C18.6589 7.76719 18.8057 7.6902 18.91 7.5872C19.0142 7.48431 19.093 7.33852 19.093 7.17969V4.22656C19.093 3.87509 18.8007 3.56585 18.4156 3.64191ZM18.4446 9.49063H18.4264L18.4087 9.495C18.262 9.5312 18.139 9.61979 18.0531 9.72162C17.969 9.82122 17.907 9.94998 17.907 10.0781V18.3041C17.8779 18.3779 17.8788 18.4414 17.8883 18.4976C17.893 18.5253 17.8969 18.5425 17.9 18.5558C17.9044 18.5753 17.907 18.5864 17.907 18.6094V18.6094V18.6094V18.6094V18.6094V18.6095V18.6095V18.6095V18.6095V18.6095V18.6095V18.6096V18.6096V18.6096V18.6096V18.6096V18.6096V18.6097V18.6097V18.6097V18.6097V18.6097V18.6098V18.6098V18.6098V18.6098V18.6099V18.6099V18.6099V18.6099V18.61V18.61V18.61V18.61V18.61V18.61V18.6101V18.6101V18.6101V18.6101V18.6101V18.6102V18.6102V18.6102V18.6102V18.6102V18.6103V18.6103V18.6103V18.6103V18.6103V18.6104V18.6104V18.6104V18.6104V18.6104V18.6105V18.6105V18.6105V18.6105V18.6106V18.6106V18.6106V18.6106V18.6107V18.6107V18.6107V18.6108V18.6108V18.6108V18.6108V18.6109V18.6109V18.6109V18.611V18.611V18.611V18.611V18.6111V18.6111V18.6111V18.6112V18.6112V18.6112V18.6113V18.6113V18.6113V18.6114V18.6114V18.6114V18.6115V18.6115V18.6116V18.6116V18.6116V18.6117V18.6117V18.6118V18.6118V18.6118V18.6119V18.6119V18.612V18.612V18.612V18.6121V18.6121V18.6122V18.6122V18.6123V18.6123V18.6124V18.6124V18.6124V18.6125V18.6125V18.6126V18.6126V18.6127V18.6127V18.6128V18.6128V18.6129V18.6129V18.613V18.613V18.6131V18.6131V18.6132V18.6133V18.6133V18.6134V18.6134V18.6135V18.6135V18.6136V18.6137V18.6137V18.6138V18.6138V18.6139V18.614V18.614V18.6141V18.6141V18.6142V18.6143V18.6143V18.6144V18.6145V18.6145V18.6146V18.6147V18.6147V18.6148V18.6149V18.6149V18.615V18.6151V18.6152V18.6152V18.6153V18.6154V18.6154V18.6155V18.6156V18.6157V18.6157V18.6158V18.6159V18.616V18.6161V18.6161V18.6162V18.6163V18.6164V18.6165V18.6165V18.6166V18.6167V18.6168V18.6169V18.617V18.617V18.6171V18.6172V18.6173V18.6174V18.6175V18.6176V18.6177V18.6178V18.6178V18.6179V18.618V18.6181V18.6182V18.6183V18.6184V18.6185V18.6186V18.6187V18.6188V18.6189V18.619V18.6191V18.6192V18.6193V18.6194V18.6195V18.6196V18.6197V18.6198V18.6199V18.6201V18.6202V18.6203V18.6204V18.6205V18.6206V18.6207V18.6208V18.6209V18.621V18.6212V18.6213V18.6214V18.6215V18.6216V18.6217V18.6219V18.622V18.6221V18.6222V18.6224V18.6225V18.6226V18.6227V18.6229V18.623V18.6231V18.6232V18.6234V18.6235V18.6236V18.6238V18.6239V18.624V18.6242V18.6243V18.6244V18.6246V18.6247V18.6248V18.625V18.6251V18.6252V18.6254V18.6255V18.6257V18.6258V18.626V18.6261V18.6263V18.6264V18.6265V18.6267V18.6268V18.627V18.6271V18.6273V18.6275V18.6276V18.6278V18.6279V18.6281V18.6282V18.6284V18.6285V18.6287V18.6289V18.629V18.6292V18.6294V18.6295V18.6297V18.6298V18.63V18.6302V18.6304V18.6305V18.6307V18.6309V18.631V18.6312V18.6314V18.6316V18.6317V18.6319V18.6321V18.6323V18.6324V18.6326V18.6328V18.633V18.6332V18.6334V18.6335V18.6337V18.6339V18.6341V18.6343V18.6345V18.6347V18.6349V18.6351V18.6353V18.6355V18.6356V18.6358V18.636V18.6362V18.6364V18.6366V18.6368V18.637V18.6373V18.6375V18.6377V18.6379V18.6381V18.6383V18.6385V18.6387V18.6389V18.6391V18.6393V18.6396V18.6398V18.64V18.6402V18.6404V18.6407V18.6409V18.6411V18.6413V18.6415V18.6418V18.642V18.6422V18.6425V18.6427V18.6429V18.6431V18.6434V18.6436V18.6438V18.6441V18.6443V18.6446V18.6448V18.645V18.6453V18.6455V18.6458V18.646V18.6463V18.6465V18.6468V18.647V18.6473V18.6475V18.6478V18.648V18.6483V18.6485V18.6488V18.649V18.6493V18.6496V18.6498V18.6501V18.6503V18.6506V18.6509V18.6511V18.6514V18.6517V18.6519V18.6522V18.6525V18.6528V18.653V18.6533V18.6536V18.6539V18.6542V18.6544V18.6547V18.655V18.6553V18.6556V18.6559V18.6561V18.6564V18.6567V18.657V18.6573V18.6576V18.6579V18.6582V18.6585V18.6588V18.6591V18.6594V18.6597V18.66V18.6603V18.6606V18.6609V18.6612V18.6615V18.6618V18.6622V18.6625V18.6628V18.6631V18.6634V18.6637V18.6641C17.907 18.7059 17.9183 18.743 17.9374 18.7744C17.9455 18.7877 17.9546 18.7991 17.9623 18.8079V18.8361L18.0069 18.8802L18.0073 18.8805L18.0076 18.8808L18.0079 18.8811L18.0082 18.8814L18.0086 18.8818L18.0089 18.8821L18.0092 18.8824L18.0095 18.8827L18.0098 18.883L18.0101 18.8833L18.0104 18.8836L18.0107 18.8839L18.0111 18.8842L18.0114 18.8845L18.0117 18.8848L18.012 18.8851L18.0123 18.8854L18.0126 18.8857L18.0129 18.886L18.0132 18.8863L18.0135 18.8866L18.0138 18.8869L18.0141 18.8872L18.0144 18.8875L18.0147 18.8878L18.015 18.8881L18.0153 18.8884L18.0156 18.8887L18.0158 18.889L18.0161 18.8892L18.0164 18.8895L18.0167 18.8898L18.017 18.8901L18.0173 18.8904L18.0176 18.8907L18.0178 18.8909L18.0181 18.8912L18.0184 18.8915L18.0187 18.8918L18.019 18.892L18.0192 18.8923L18.0195 18.8926L18.0198 18.8929L18.0201 18.8931L18.0203 18.8934L18.0206 18.8937L18.0209 18.8939L18.0212 18.8942L18.0214 18.8945L18.0217 18.8947L18.022 18.895L18.0222 18.8953L18.0225 18.8955L18.0228 18.8958L18.023 18.896L18.0233 18.8963L18.0235 18.8966L18.0238 18.8968L18.0241 18.8971L18.0243 18.8973L18.0246 18.8976L18.0248 18.8978L18.0251 18.8981L18.0253 18.8983L18.0256 18.8986L18.0258 18.8988L18.0261 18.8991L18.0263 18.8993L18.0266 18.8996L18.0268 18.8998L18.0271 18.9001L18.0273 18.9003L18.0276 18.9005L18.0278 18.9008L18.0281 18.901L18.0283 18.9013L18.0286 18.9015L18.0288 18.9017L18.029 18.902L18.0293 18.9022L18.0295 18.9025L18.0297 18.9027L18.03 18.9029L18.0302 18.9032L18.0305 18.9034L18.0307 18.9036L18.0309 18.9038L18.0312 18.9041L18.0314 18.9043L18.0316 18.9045L18.0318 18.9048L18.0321 18.905L18.0323 18.9052L18.0325 18.9054L18.0328 18.9057L18.033 18.9059L18.0332 18.9061L18.0334 18.9063L18.0337 18.9065L18.0339 18.9068L18.0341 18.907L18.0343 18.9072L18.0345 18.9074L18.0348 18.9076L18.035 18.9079L18.0352 18.9081L18.0354 18.9083L18.0356 18.9085L18.0359 18.9087L18.0361 18.9089L18.0363 18.9091L18.0365 18.9094L18.0367 18.9096L18.0369 18.9098L18.0371 18.91L18.0373 18.9102L18.0376 18.9104L18.0378 18.9106L18.038 18.9108L18.0382 18.911L18.0384 18.9112L18.0386 18.9114L18.0388 18.9116L18.039 18.9118L18.0392 18.912L18.0394 18.9122L18.0396 18.9124L18.0398 18.9126L18.04 18.9128L18.0402 18.913L18.0404 18.9132L18.0406 18.9134L18.0408 18.9136L18.041 18.9138L18.0412 18.914L18.0414 18.9142L18.0416 18.9144L18.0418 18.9146L18.042 18.9148L18.0422 18.915L18.0424 18.9152L18.0426 18.9154L18.0428 18.9156L18.043 18.9158L18.0432 18.916L18.0434 18.9161L18.0436 18.9163L18.0438 18.9165L18.044 18.9167L18.0441 18.9169L18.0443 18.9171L18.0445 18.9173L18.0447 18.9175L18.0449 18.9176L18.0451 18.9178L18.0453 18.918L18.0455 18.9182L18.0456 18.9184L18.0458 18.9186L18.046 18.9188L18.0462 18.9189L18.0464 18.9191L18.0466 18.9193L18.0468 18.9195L18.0469 18.9197L18.0471 18.9198L18.0473 18.92L18.0475 18.9202L18.0477 18.9204L18.0478 18.9206L18.048 18.9207L18.0482 18.9209L18.0484 18.9211L18.0486 18.9213L18.0487 18.9214L18.0489 18.9216L18.0491 18.9218L18.0493 18.922L18.0495 18.9221L18.0496 18.9223L18.0498 18.9225L18.05 18.9227L18.0502 18.9228L18.0503 18.923L18.0505 18.9232L18.0507 18.9234L18.0509 18.9235L18.051 18.9237L18.0512 18.9239L18.0514 18.924L18.0516 18.9242L18.0517 18.9244L18.0519 18.9246L18.0521 18.9247L18.0522 18.9249L18.0524 18.9251L18.0526 18.9252L18.0528 18.9254L18.0529 18.9256L18.0531 18.9257L18.0533 18.9259L18.0534 18.9261L18.0536 18.9262L18.0538 18.9264L18.0539 18.9266L18.0541 18.9267L18.0543 18.9269L18.0544 18.9271L18.0546 18.9272L18.0548 18.9274L18.0549 18.9276L18.0551 18.9277L18.0553 18.9279L18.0555 18.9281L18.0556 18.9282L18.0558 18.9284L18.056 18.9286L18.0561 18.9287L18.0563 18.9289L18.0564 18.9291L18.0566 18.9292L18.0568 18.9294L18.0569 18.9295L18.0571 18.9297L18.0573 18.9299L18.0574 18.93L18.0576 18.9302L18.0578 18.9304L18.0579 18.9305L18.0581 18.9307L18.0583 18.9308L18.0584 18.931L18.0586 18.9312L18.0587 18.9313L18.0589 18.9315L18.0591 18.9316L18.0592 18.9318L18.0594 18.932L18.0596 18.9321L18.0597 18.9323L18.0599 18.9324L18.0601 18.9326L18.0602 18.9328L18.0604 18.9329L18.0605 18.9331L18.0607 18.9333L18.0609 18.9334L18.061 18.9336L18.0612 18.9337L18.0614 18.9339L18.0615 18.9341L18.0617 18.9342L18.0618 18.9344L18.062 18.9345L18.0622 18.9347L18.0623 18.9349L18.0625 18.935L18.0627 18.9352L18.0628 18.9353L18.063 18.9355L18.0631 18.9357L18.0633 18.9358L18.0635 18.936L18.0636 18.9361L18.0638 18.9363L18.0639 18.9365L18.0641 18.9366L18.0643 18.9368L18.0644 18.9369L18.0646 18.9371L18.0648 18.9373L18.0649 18.9374L18.0651 18.9376L18.0653 18.9377L18.0654 18.9379L18.0656 18.9381L18.0657 18.9382L18.0659 18.9384L18.0661 18.9386L18.0662 18.9387L18.0664 18.9389L18.0666 18.939L18.0667 18.9392L18.0669 18.9394L18.0671 18.9395L18.0672 18.9397L18.0674 18.9398L18.0675 18.94L18.0677 18.9402L18.0679 18.9403L18.068 18.9405L18.0682 18.9407L18.0684 18.9408L18.0685 18.941L18.0687 18.9412L18.0689 18.9413L18.069 18.9415L18.0692 18.9416L18.0694 18.9418L18.0695 18.942L18.0697 18.9421L18.0699 18.9423L18.07 18.9425L18.0702 18.9426L18.0704 18.9428L18.0705 18.943L18.0707 18.9431L18.0709 18.9433L18.071 18.9435L18.0712 18.9436L18.0714 18.9438L18.0716 18.944L18.0717 18.9441L18.0719 18.9443L18.0721 18.9445L18.0722 18.9446L18.0724 18.9448L18.0726 18.945L18.0728 18.9452L18.0729 18.9453L18.0731 18.9455L18.0733 18.9457L18.0734 18.9458L18.0736 18.946L18.0738 18.9462L18.074 18.9464L18.0741 18.9465L18.0743 18.9467L18.0745 18.9469L18.0747 18.947L18.0748 18.9472L18.075 18.9474L18.0752 18.9476L18.0754 18.9477L18.0756 18.9479L18.0757 18.9481L18.0759 18.9483L18.0761 18.9484L18.0763 18.9486L18.0764 18.9488L18.0766 18.949L18.0768 18.9492L18.077 18.9493L18.0772 18.9495L18.0773 18.9497L18.0775 18.9499L18.0777 18.9501L18.0779 18.9502L18.0781 18.9504L18.0783 18.9506L18.0784 18.9508L18.0786 18.951L18.0788 18.9511L18.079 18.9513L18.0792 18.9515L18.0794 18.9517L18.0796 18.9519L18.0798 18.9521L18.0799 18.9522L18.0801 18.9524L18.0803 18.9526L18.0805 18.9528L18.0807 18.953L18.0809 18.9532L18.0811 18.9534L18.0813 18.9536L18.0815 18.9538L18.0817 18.9539L18.0819 18.9541L18.082 18.9543L18.0822 18.9545L18.0824 18.9547L18.0826 18.9549L18.0828 18.9551L18.083 18.9553L18.0832 18.9555L18.0834 18.9557L18.0836 18.9559L18.0838 18.9561L18.084 18.9563L18.0842 18.9565L18.0844 18.9567L18.0846 18.9569L18.0848 18.9571L18.085 18.9573L18.0852 18.9575L18.0854 18.9577L18.0856 18.9579L18.0858 18.9581L18.0861 18.9583L18.0863 18.9585L18.0865 18.9587L18.0867 18.9589L18.0869 18.9591L18.0871 18.9593L18.0873 18.9595L18.0875 18.9597L18.0877 18.9599L18.0879 18.9601L18.0882 18.9604L18.0884 18.9606L18.0886 18.9608L18.0888 18.961L18.089 18.9612L18.0892 18.9614L18.0894 18.9616L18.0897 18.9619L18.0899 18.9621L18.0901 18.9623L18.0903 18.9625L18.0905 18.9627L18.0908 18.9629L18.091 18.9632L18.0912 18.9634L18.0914 18.9636L18.0917 18.9638L18.0919 18.9641L18.0921 18.9643L18.0923 18.9645L18.0926 18.9647L18.0928 18.965L18.093 18.9652L18.0933 18.9654L18.0935 18.9656L18.0937 18.9659L18.094 18.9661L18.0942 18.9663L18.0944 18.9666L18.0947 18.9668L18.0949 18.967L18.0951 18.9673L18.0954 18.9675L18.0956 18.9677L18.0959 18.968L18.0961 18.9682L18.0963 18.9684L18.0966 18.9687L18.0968 18.9689L18.0971 18.9692L18.0973 18.9694L18.0976 18.9697L18.0978 18.9699L18.0981 18.9701L18.0983 18.9704L18.0986 18.9706L18.0988 18.9709L18.0991 18.9711L18.0993 18.9714L18.0996 18.9716L18.0998 18.9719L18.1001 18.9721L18.1003 18.9724L18.1006 18.9726L18.1009 18.9729L18.1011 18.9732L18.1014 18.9734L18.1016 18.9737L18.1019 18.9739L18.1022 18.9742L18.1024 18.9745L18.1027 18.9747L18.103 18.975L18.1032 18.9752L18.1035 18.9755L18.1038 18.9758L18.104 18.976L18.1043 18.9763L18.1046 18.9766L18.1049 18.9769L18.1051 18.9771L18.1054 18.9774L18.1057 18.9777L18.106 18.978L18.1062 18.9782L18.1065 18.9785L18.1068 18.9788L18.1071 18.9791L18.1074 18.9793L18.1077 18.9796L18.1079 18.9799L18.1082 18.9802L18.1085 18.9805L18.1088 18.9808L18.1091 18.981L18.1094 18.9813L18.1097 18.9816L18.11 18.9819L18.1103 18.9822L18.1106 18.9825L18.1109 18.9828L18.1112 18.9831L18.1115 18.9834L18.1118 18.9837L18.1121 18.984L18.1124 18.9843L18.1127 18.9846L18.113 18.9849L18.1133 18.9852L18.1136 18.9855L18.1139 18.9858L18.1142 18.9861L18.1145 18.9864L18.1148 18.9867L18.1152 18.987L18.1155 18.9873L18.1158 18.9876L18.1161 18.988L18.1164 18.9883L18.1167 18.9886L18.1171 18.9889L18.1172 18.989L18.1174 18.9892L18.1177 18.9895L23.9875 24.8406L23.988 24.8411C24.2125 25.0629 24.5834 25.0629 24.8079 24.8411C25.0406 24.6114 25.0218 24.2505 24.822 23.9874L24.8157 23.9792L24.8084 23.9719L19.093 18.2737V10.1328C19.093 9.77476 18.8026 9.49063 18.4446 9.49063ZM29.7421 17.9125H29.7238L29.7061 17.9169C29.5646 17.9518 29.4267 18.0372 29.3305 18.1495C29.2345 18.2616 29.1655 18.4196 29.209 18.5915C29.2418 18.7211 29.3092 18.8596 29.4199 18.9598C29.5324 19.0617 29.6851 19.1186 29.8665 19.0875H32.788C32.9469 19.0875 33.0937 19.0105 33.198 18.9075C33.3022 18.8046 33.381 18.6588 33.381 18.5C33.381 18.3412 33.3022 18.1954 33.198 18.0925C33.0937 17.9895 32.9469 17.9125 32.788 17.9125H29.7975H29.7975H29.7974H29.7974H29.7974H29.7974H29.7974H29.7974H29.7973H29.7973H29.7973H29.7973H29.7973H29.7973H29.7972H29.7972H29.7972H29.7972H29.7972H29.7971H29.7971H29.7971H29.7971H29.7971H29.797H29.797H29.797H29.7969H29.7969H29.7969H29.7969H29.7969H29.7969H29.7968H29.7968H29.7968H29.7968H29.7968H29.7968H29.7967H29.7967H29.7967H29.7967H29.7967H29.7966H29.7966H29.7966H29.7966H29.7966H29.7965H29.7965H29.7965H29.7965H29.7965H29.7964H29.7964H29.7964H29.7964H29.7963H29.7963H29.7963H29.7963H29.7962H29.7962H29.7962H29.7962H29.7961H29.7961H29.7961H29.796H29.796H29.796H29.796H29.7959H29.7959H29.7959H29.7958H29.7958H29.7958H29.7957H29.7957H29.7957H29.7957H29.7956H29.7956H29.7955H29.7955H29.7955H29.7954H29.7954H29.7954H29.7953H29.7953H29.7953H29.7952H29.7952H29.7951H29.7951H29.7951H29.795H29.795H29.7949H29.7949H29.7949H29.7948H29.7948H29.7947H29.7947H29.7946H29.7946H29.7945H29.7945H29.7945H29.7944H29.7944H29.7943H29.7943H29.7942H29.7942H29.7941H29.7941H29.794H29.794H29.7939H29.7939H29.7938H29.7938H29.7937H29.7936H29.7936H29.7935H29.7935H29.7934H29.7934H29.7933H29.7933H29.7932H29.7931H29.7931H29.793H29.793H29.7929H29.7928H29.7928H29.7927H29.7926H29.7926H29.7925H29.7924H29.7924H29.7923H29.7923H29.7922H29.7921H29.792H29.792H29.7919H29.7918H29.7918H29.7917H29.7916H29.7915H29.7915H29.7914H29.7913H29.7913H29.7912H29.7911H29.791H29.7909H29.7909H29.7908H29.7907H29.7906H29.7905H29.7905H29.7904H29.7903H29.7902H29.7901H29.79H29.79H29.7899H29.7898H29.7897H29.7896H29.7895H29.7894H29.7893H29.7893H29.7892H29.7891H29.789H29.7889H29.7888H29.7887H29.7886H29.7885H29.7884H29.7883H29.7882H29.7881H29.788H29.7879H29.7878H29.7877H29.7876H29.7875H29.7874H29.7873H29.7872H29.7871H29.787H29.7869H29.7868H29.7867H29.7866H29.7864H29.7863H29.7862H29.7861H29.786H29.7859H29.7858H29.7856H29.7855H29.7854H29.7853H29.7852H29.7851H29.7849H29.7848H29.7847H29.7846H29.7845H29.7843H29.7842H29.7841H29.7839H29.7838H29.7837H29.7836H29.7834H29.7833H29.7832H29.783H29.7829H29.7828H29.7826H29.7825H29.7824H29.7822H29.7821H29.782H29.7818H29.7817H29.7815H29.7814H29.7813H29.7811H29.781H29.7808H29.7807H29.7805H29.7804H29.7802H29.7801H29.7799H29.7798H29.7796H29.7795H29.7793H29.7792H29.779H29.7789H29.7787H29.7785H29.7784H29.7782H29.7781H29.7779H29.7777H29.7776H29.7774H29.7772H29.7771H29.7769H29.7767H29.7766H29.7764H29.7762H29.7761H29.7759H29.7757H29.7755H29.7754H29.7752H29.775H29.7748H29.7747H29.7745H29.7743H29.7741H29.7739H29.7737H29.7736H29.7734H29.7732H29.773H29.7728H29.7726H29.7724H29.7722H29.772H29.7718H29.7717H29.7715H29.7713H29.7711H29.7709H29.7707H29.7705H29.7703H29.7701H29.7699H29.7697H29.7694H29.7692H29.769H29.7688H29.7686H29.7684H29.7682H29.768H29.7678H29.7676H29.7673H29.7671H29.7669H29.7667H29.7665H29.7662H29.766H29.7658H29.7656H29.7653H29.7651H29.7649H29.7647H29.7644H29.7642H29.764H29.7637H29.7635H29.7633H29.763H29.7628H29.7626H29.7623H29.7621H29.7618H29.7616H29.7614H29.7611H29.7609H29.7606H29.7604H29.7601H29.7599H29.7596H29.7594H29.7591H29.7589H29.7586H29.7583H29.7581H29.7578H29.7576H29.7573H29.757H29.7568H29.7565H29.7563H29.756H29.7557H29.7554H29.7552H29.7549H29.7546H29.7544H29.7541H29.7538H29.7535H29.7533H29.753H29.7527H29.7524H29.7521H29.7518H29.7516H29.7513H29.751H29.7507H29.7504H29.7501H29.7498H29.7495H29.7492H29.7489H29.7486H29.7483H29.748H29.7477H29.7474H29.7471H29.7468H29.7465H29.7462H29.7459H29.7456H29.7453H29.745H29.7446H29.7443H29.744H29.7437H29.7434H29.7431H29.7427H29.7424H29.7421ZM18.4446 29.1781H18.4264L18.4087 29.1825C18.1408 29.2486 17.907 29.4587 17.907 29.7656V32.7188C17.907 32.8776 17.9858 33.0234 18.09 33.1263C18.1943 33.2293 18.3411 33.3063 18.5 33.3063C18.6589 33.3063 18.8057 33.2293 18.91 33.1263C19.0142 33.0234 19.093 32.8776 19.093 32.7188V29.7656C19.093 29.4513 18.791 29.1781 18.4446 29.1781ZM18.5 0.85C8.78133 0.85 0.85 8.73723 0.85 18.5C0.85 28.2078 8.78102 36.15 18.5 36.15C28.2187 36.15 36.15 28.2628 36.15 18.5C36.15 8.73753 28.2744 0.85 18.5 0.85ZM18.5 2.025C27.61 2.025 34.9639 9.39518 34.9639 18.5C34.9639 27.6048 27.61 34.975 18.5 34.975C9.38997 34.975 2.03608 27.6048 2.03608 18.5C2.03608 9.39518 9.38997 2.025 18.5 2.025ZM4.15665 17.9125C3.98615 17.9125 3.83615 18.0143 3.7416 18.1332C3.64696 18.2521 3.58076 18.4224 3.62357 18.5915C3.65638 18.7211 3.72378 18.8596 3.83446 18.9598C3.947 19.0617 4.09969 19.1186 4.28108 19.0875H7.25791C7.41679 19.0875 7.56359 19.0105 7.6679 18.9075C7.77209 18.8046 7.85095 18.6588 7.85095 18.5C7.85095 18.3412 7.77209 18.1954 7.6679 18.0925C7.56359 17.9895 7.41679 17.9125 7.25791 17.9125H4.21203H4.21201H4.21199H4.21198H4.21196H4.21195H4.21193H4.21192H4.2119H4.21188H4.21186H4.21184H4.21183H4.21181H4.2118H4.21178H4.21176H4.21174H4.21172H4.2117H4.21168H4.21166H4.21164H4.21161H4.21159H4.21156H4.21153H4.21151H4.21149H4.21148H4.21146H4.21145H4.21143H4.21141H4.2114H4.21138H4.21136H4.21135H4.21133H4.21131H4.21129H4.21128H4.21126H4.21124H4.21122H4.2112H4.21118H4.21116H4.21114H4.21112H4.2111H4.21108H4.21105H4.21103H4.21101H4.21099H4.21096H4.21094H4.21092H4.21089H4.21087H4.21084H4.21082H4.21079H4.21077H4.21074H4.21071H4.21069H4.21066H4.21063H4.2106H4.21058H4.21055H4.21052H4.21049H4.21046H4.21043H4.2104H4.21037H4.21034H4.2103H4.21027H4.21024H4.21021H4.21017H4.21014H4.2101H4.21007H4.21003H4.21H4.20996H4.20993H4.20989H4.20985H4.20981H4.20978H4.20974H4.2097H4.20966H4.20962H4.20958H4.20954H4.2095H4.20946H4.20941H4.20937H4.20933H4.20928H4.20924H4.2092H4.20915H4.20911H4.20906H4.20901H4.20897H4.20892H4.20887H4.20882H4.20877H4.20872H4.20867H4.20862H4.20857H4.20852H4.20847H4.20842H4.20837H4.20831H4.20826H4.2082H4.20815H4.20809H4.20804H4.20798H4.20792H4.20787H4.20781H4.20775H4.20769H4.20763H4.20757H4.20751H4.20745H4.20739H4.20733H4.20726H4.2072H4.20713H4.20707H4.20701H4.20694H4.20687H4.20681H4.20674H4.20667H4.2066H4.20653H4.20646H4.20639H4.20632H4.20625H4.20618H4.2061H4.20603H4.20596H4.20588H4.20581H4.20573H4.20566H4.20558H4.2055H4.20542H4.20534H4.20526H4.20518H4.2051H4.20502H4.20494H4.20486H4.20477H4.20469H4.2046H4.20452H4.20443H4.20435H4.20426H4.20417H4.20408H4.20399H4.2039H4.20381H4.20372H4.20363H4.20354H4.20344H4.20335H4.20326H4.20316H4.20306H4.20297H4.20287H4.20277H4.20267H4.20257H4.20247H4.20237H4.20227H4.20217H4.20207H4.20196H4.20186H4.20175H4.20165H4.20154H4.20143H4.20132H4.20122H4.20111H4.201H4.20088H4.20077H4.20066H4.20055H4.20043H4.20032H4.2002H4.20009H4.19997H4.19985H4.19973H4.19961H4.19949H4.19937H4.19925H4.19913H4.19901H4.19888H4.19876H4.19863H4.1985H4.19838H4.19825H4.19812H4.19799H4.19786H4.19773H4.1976H4.19747H4.19733H4.1972H4.19706H4.19693H4.19679H4.19665H4.19651H4.19637H4.19623H4.19609H4.19595H4.19581H4.19566H4.19552H4.19537H4.19523H4.19508H4.19493H4.19479H4.19464H4.19449H4.19433H4.19418H4.19403H4.19388H4.19372H4.19357H4.19341H4.19325H4.19309H4.19293H4.19277H4.19261H4.19245H4.19229H4.19213H4.19196H4.1918H4.19163H4.19146H4.19129H4.19113H4.19096H4.19078H4.19061H4.19044H4.19027H4.19009H4.18992H4.18974H4.18956H4.18938H4.18921H4.18903H4.18884H4.18866H4.18848H4.1883H4.18811H4.18792H4.18774H4.18755H4.18736H4.18717H4.18698H4.18679H4.1866H4.1864H4.18621H4.18601H4.18582H4.18562H4.18542H4.18522H4.18502H4.18482H4.18462H4.18441H4.18421H4.184H4.1838H4.18359H4.18338H4.18317H4.18296H4.18275H4.18253H4.18232H4.18211H4.18189H4.18167H4.18146H4.18124H4.18102H4.1808H4.18057H4.18035H4.18013H4.1799H4.17968H4.17945H4.17922H4.17899H4.17876H4.17853H4.1783H4.17806H4.17783H4.17759H4.17735H4.17712H4.17688H4.17664H4.1764H4.17615H4.17591H4.17567H4.17542H4.17517H4.17493H4.17468H4.17443H4.17417H4.17392H4.17367H4.17341H4.17316H4.1729H4.17264H4.17238H4.17212H4.17186H4.1716H4.17134H4.17107H4.17081H4.17054H4.17027H4.17H4.16973H4.16946H4.16919H4.16891H4.16864H4.16836H4.16808H4.1678H4.16753H4.16724H4.16696H4.16668H4.16639H4.16611H4.16582H4.16553H4.16524H4.16495H4.16466H4.16437H4.16407H4.16378H4.16348H4.16318H4.16289H4.16259H4.16228H4.16198H4.16168H4.16137H4.16107H4.16076H4.16045H4.16014H4.15983H4.15951H4.1592H4.15889H4.15857H4.15825H4.15793H4.15761H4.15729H4.15697H4.15665Z" fill="#192646" stroke="#192646" stroke-width="0.3"/>
</svg>
