<svg width="40" height="40" viewBox="0 0 40 40" fill="none" xmlns="http://www.w3.org/2000/svg">
<path d="M39.1899 38.3797H2.73418L10.8354 30.2785L15.2911 34.7342C15.5949 35.038 16.1013 35.038 16.4051 34.7342L31.7975 19.2405V20.8608C31.7975 21.2658 32.2025 21.6709 32.6076 21.6709C33.0127 21.6709 33.4177 21.2658 33.4177 20.8608V17.2152C33.4177 17.1139 33.4177 17.0127 33.3165 16.9114C33.2152 16.7089 33.1139 16.6076 32.9114 16.5063C32.8101 16.5063 32.7089 16.4051 32.6076 16.4051H28.962C28.557 16.4051 28.1519 16.8101 28.1519 17.2152C28.1519 17.6203 28.557 18.0253 28.962 18.0253H30.5823L15.7975 33.0127L11.3418 28.557C11.038 28.2532 10.5316 28.2532 10.2278 28.557L1.62025 37.1646V0.708861C1.62025 0.405063 1.21519 0 0.810127 0C0.405063 0 0 0.405063 0 0.810127V39.1899C0 39.2911 0 39.3924 0.101266 39.4937C0.202532 39.6962 0.303797 39.7975 0.506329 39.8987C0.607595 39.8987 0.708861 40 0.810127 40H39.1899C39.5949 40 40 39.5949 40 39.1899C40 38.7848 39.5949 38.3797 39.1899 38.3797Z" fill="#192646"/>
<path d="M5.16456 21.3671C5.56962 23.1899 6.98734 24.7089 8.81013 25.0127C9.11392 25.1139 9.51899 25.1139 9.82278 25.1139C10.9367 25.1139 11.9494 24.7089 12.7595 24.1013C13.8734 23.1899 14.481 21.8734 14.481 20.4557C14.481 18.9367 13.7722 17.519 12.4557 16.6076V4.55696C12.4557 3.03797 11.2405 1.82278 9.72152 1.82278C8.3038 1.82278 7.08861 3.03797 7.08861 4.55696V16.6076C5.56962 17.6203 4.86076 19.443 5.16456 21.3671ZM8.3038 17.6203C8.50633 17.519 8.70886 17.2152 8.70886 16.9114V4.55696C8.70886 3.94937 9.21519 3.44304 9.82278 3.44304C10.4304 3.44304 10.9367 3.94937 10.9367 4.55696V17.0127C10.9367 17.3165 11.1392 17.519 11.3418 17.7215C12.3544 18.3291 12.962 19.3418 12.962 20.4557C12.962 21.3671 12.557 22.2785 11.8481 22.8861C11.1392 23.4937 10.1266 23.6962 9.21519 23.4937C8 23.2911 7.08861 22.2785 6.88608 21.0633C6.48101 19.6456 7.08861 18.3291 8.3038 17.6203Z" fill="#192646"/>
<path d="M17.519 3.44304H14.7848C14.3797 3.44304 13.9747 3.8481 13.9747 4.25316C13.9747 4.65823 14.3797 5.06329 14.7848 5.06329H17.519C17.9241 5.06329 18.3291 4.65823 18.3291 4.25316C18.3291 3.8481 17.9241 3.44304 17.519 3.44304Z" fill="#192646"/>
<path d="M17.519 7.49367H14.7848C14.3797 7.49367 13.9747 7.89873 13.9747 8.3038C13.9747 8.70886 14.3797 9.11392 14.7848 9.11392H17.519C17.9241 9.11392 18.3291 8.70886 18.3291 8.3038C18.3291 7.89873 17.9241 7.49367 17.519 7.49367Z" fill="#192646"/>
<path d="M17.519 13.1646C17.9241 13.1646 18.3291 12.7595 18.3291 12.3544C18.3291 11.9494 17.9241 11.5443 17.519 11.5443H14.7848C14.3797 11.5443 13.9747 11.9494 13.9747 12.3544C13.9747 12.7595 14.3797 13.1646 14.7848 13.1646H17.519Z" fill="#192646"/>
</svg>
