<!-- Generated by IcoMoon.io -->
<svg version="1.1" xmlns="http://www.w3.org/2000/svg" width="1024" height="1024" viewBox="0 0 1024 1024">
<g id="icomoon-ignore">
</g>
<path fill="#000" d="M1003.261 982.521h-933.266l207.393-207.392 114.064 114.064c7.778 7.778 20.739 7.778 28.517 0l394.047-396.636v41.479c0 10.37 10.367 20.737 20.737 20.737s20.739-10.367 20.739-20.737v-93.327c0-2.592 0-5.186-2.592-7.778-2.592-5.184-5.184-7.778-10.37-10.37-2.592 0-5.184-2.592-7.778-2.592h-93.325c-10.37 0-20.739 10.37-20.739 20.739s10.37 20.739 20.739 20.739h41.479l-378.491 383.675-114.067-114.064c-7.778-7.778-20.739-7.778-28.517 0l-220.354 220.353v-933.265c0-7.777-10.369-18.147-20.739-18.147s-20.739 10.37-20.739 20.739v982.521c0 2.592 0 5.186 2.592 7.778 2.592 5.184 5.185 7.778 10.37 10.37 2.592 0 5.185 2.592 7.777 2.592h982.521c10.37 0 20.739-10.37 20.739-20.739s-10.37-20.739-20.739-20.739z"></path>
<path fill="#000" d="M132.213 546.998c10.369 46.663 46.663 85.55 93.326 93.325 7.778 2.594 18.148 2.594 25.923 2.594 28.517 0 54.44-10.37 75.18-25.925 28.517-23.331 44.071-57.032 44.071-93.325 0-38.887-18.145-75.18-51.846-98.513v-308.495c0-38.886-31.109-69.995-69.996-69.995-36.294 0-67.402 31.109-67.402 69.995v308.495c-38.886 25.925-57.033 72.588-49.256 121.845zM212.577 451.079c5.185-2.592 10.37-10.37 10.37-18.148v-316.273c0-15.554 12.962-28.516 28.516-28.516 15.556 0 28.517 12.962 28.517 28.516v318.865c0 7.778 5.184 12.964 10.37 18.148 25.923 15.556 41.479 41.479 41.479 69.996 0 23.331-10.37 46.663-28.517 62.216-18.148 15.556-44.071 20.739-67.402 15.556-31.109-5.186-54.441-31.109-59.625-62.218-10.37-36.293 5.185-69.994 36.294-88.141z"></path>
<path fill="#000" d="M448.487 88.142h-69.996c-10.37 0-20.739 10.369-20.739 20.739s10.37 20.739 20.739 20.739h69.996c10.37 0 20.739-10.369 20.739-20.739s-10.37-20.739-20.739-20.739z"></path>
<path fill="#000" d="M448.487 191.838h-69.996c-10.37 0-20.739 10.37-20.739 20.739s10.37 20.74 20.739 20.74h69.996c10.37 0 20.739-10.37 20.739-20.74s-10.37-20.739-20.739-20.739z"></path>
<path fill="#000" d="M448.487 337.012c10.37 0 20.739-10.37 20.739-20.739s-10.37-20.739-20.739-20.739h-69.996c-10.37 0-20.739 10.37-20.739 20.739s10.37 20.739 20.739 20.739h69.996z"></path>
</svg>
