<svg width="48" height="41" viewBox="0 0 48 41" fill="none" xmlns="http://www.w3.org/2000/svg">
<path fill-rule="evenodd" clip-rule="evenodd" d="M38.1875 41H4.09376C3.00939 41 1.98125 40.5738 1.20624 39.7993C0.43127 39.0247 0 38.0043 0 36.9249V4.07513C0 2.99569 0.428131 1.97223 1.20624 1.20078C1.98438 0.429307 3.00939 0 4.09376 0H38.1875C40.4281 0 42.25 1.82916 42.25 4.07513V36.9249C42.25 39.1709 40.4281 41 38.1875 41ZM4.09376 0.995467C2.38752 0.995467 1.00002 2.37666 1.00002 4.07513V36.9249C1.00002 38.6234 2.38753 40.0046 4.09376 40.0046H38.1875C39.875 40.0046 41.25 38.6234 41.25 36.9249V4.07513C41.25 2.37665 39.875 0.995467 38.1875 0.995467H4.09376Z" fill="#192646"/>
<path fill-rule="evenodd" clip-rule="evenodd" d="M21.125 37.4226C18.8344 37.4226 16.6094 36.9747 14.5156 36.0943C12.4907 35.242 10.6719 34.0225 9.11249 32.4703C7.55 30.918 6.32188 29.1076 5.46566 27.0917C4.57503 25.0045 4.12501 22.7865 4.12501 20.5C4.12501 18.2136 4.57503 15.9956 5.46252 13.9083C6.31879 11.8925 7.54687 10.0852 9.10936 8.5298C10.6719 6.97751 12.4906 5.75809 14.5125 4.90573C16.6062 4.0254 18.8312 3.57743 21.1219 3.57743C23.4187 3.57743 25.6469 4.0254 27.7438 4.90573C29.7687 5.75809 31.5875 6.97751 33.1469 8.5298C34.7062 10.082 35.9312 11.8925 36.7875 13.9083C37.6719 15.9956 38.1219 18.2136 38.1219 20.5C38.1219 22.7865 37.6719 25.0045 36.7875 27.0918C35.9312 29.1076 34.7062 30.918 33.1469 32.4703C31.5875 34.0226 29.7687 35.242 27.7438 36.0944C25.65 36.9747 23.4219 37.4226 21.125 37.4226ZM21.125 4.57294C12.3032 4.57294 5.12505 11.7184 5.12505 20.5001C5.12505 29.2818 12.3031 36.4272 21.125 36.4272C29.9469 36.4272 37.125 29.2818 37.125 20.5001C37.125 11.7184 29.9469 4.57294 21.125 4.57294Z" fill="#192646"/>
<path fill-rule="evenodd" clip-rule="evenodd" d="M21.125 35.5251C19.0875 35.5251 17.1094 35.1269 15.25 34.343C13.4531 33.587 11.8375 32.5045 10.4532 31.1233C9.06875 29.7421 7.97814 28.1401 7.21879 26.3482C6.43127 24.4942 6.03127 22.5282 6.03127 20.5C6.03127 18.4718 6.43127 16.5026 7.21879 14.6517C7.97814 12.863 9.06566 11.2548 10.4532 9.87672C11.8407 8.49862 13.4531 7.41298 15.25 6.65704C17.1125 5.87315 19.0875 5.47497 21.125 5.47497C23.1625 5.47497 25.1406 5.87314 27 6.65704C28.7969 7.41298 30.4125 8.49554 31.7969 9.87672C33.1813 11.2579 34.2719 12.863 35.0313 14.6517C35.8187 16.5057 36.2187 18.4718 36.2187 20.5C36.2187 22.5282 35.8187 24.4973 35.0313 26.3482C34.2719 28.1369 33.1844 29.7452 31.7969 31.1233C30.4094 32.5014 28.7969 33.587 27 34.3429C25.1406 35.1269 23.1625 35.5251 21.125 35.5251ZM21.125 6.47042C13.3532 6.47042 7.0313 12.7635 7.0313 20.5C7.0313 28.2365 13.3532 34.5295 21.125 34.5295C28.8969 34.5295 35.2187 28.2365 35.2187 20.5C35.2187 12.7635 28.8969 6.47042 21.125 6.47042Z" fill="#192646"/>
<path fill-rule="evenodd" clip-rule="evenodd" d="M19.5938 18.3846C19.3656 18.3846 19.1594 18.2291 19.1063 17.9989C18.1312 13.7931 13.8781 11.121 11.4313 9.90155C11.1844 9.77712 11.0844 9.47849 11.2063 9.23275C11.3313 8.98701 11.6313 8.88749 11.8781 9.0088C14.4812 10.306 19.0125 13.1679 20.0781 17.7718C20.1406 18.0393 19.9719 18.3069 19.7031 18.3691C19.6687 18.3816 19.6313 18.3846 19.5938 18.3846ZM21.4688 17.9803C21.3469 17.9803 21.2281 17.9367 21.1313 17.8496C20.9281 17.663 20.9125 17.3488 21.1 17.1466C22.6156 15.4979 24.5125 11.8956 20.1656 6.27753C19.9969 6.05979 20.0375 5.74871 20.2562 5.58073C20.475 5.41275 20.7875 5.45321 20.9562 5.67095C23.0219 8.33998 23.9938 10.8877 23.8438 13.2426C23.7094 15.3703 22.6781 16.907 21.8344 17.8216C21.7375 17.9274 21.6031 17.9803 21.4688 17.9803Z" fill="#192646"/>
<path fill-rule="evenodd" clip-rule="evenodd" d="M28.9125 23.222C28.7501 23.222 28.5875 23.2157 28.4282 23.2064C26.7438 23.0975 25.1501 22.3976 23.8188 21.1782C23.6157 20.9915 23.6032 20.6773 23.7876 20.4751C23.9719 20.2729 24.2907 20.2605 24.4938 20.444C26.5219 22.298 30.0625 23.645 35.4126 19.545C35.6313 19.377 35.9438 19.4175 36.1126 19.6352C36.2813 19.8529 36.2407 20.164 36.0219 20.332C33.5219 22.2514 31.1344 23.222 28.9125 23.222ZM23.75 19.4735C23.5219 19.4735 23.3157 19.3179 23.2626 19.0877C23.2001 18.8202 23.3688 18.5527 23.6376 18.4905C27.8626 17.5199 30.5469 13.2862 31.772 10.8504C31.897 10.6047 32.1969 10.5051 32.4438 10.6264C32.6907 10.7509 32.7907 11.0495 32.6688 11.2952C31.3657 13.8865 28.4907 18.3972 23.8657 19.4579C23.8251 19.4704 23.7876 19.4735 23.75 19.4735Z" fill="#192646"/>
<path fill-rule="evenodd" clip-rule="evenodd" d="M21.6875 35.5251C21.5376 35.5251 21.3876 35.4566 21.2907 35.3291C19.2376 32.6569 18.2719 30.1092 18.4188 27.7606C18.5532 25.6173 19.597 24.0868 20.4469 23.1784C20.6344 22.9762 20.9532 22.9669 21.1532 23.1535C21.3563 23.3402 21.3657 23.6575 21.1782 23.8566C19.6501 25.4866 17.7376 29.064 22.0844 34.7256C22.2532 34.9434 22.2094 35.2576 21.9907 35.4224C21.9 35.4909 21.7938 35.5251 21.6875 35.5251ZM30.625 32.041C30.55 32.041 30.475 32.0254 30.4031 31.9881C27.8 30.6909 23.2688 27.829 22.2032 23.225C22.1406 22.9575 22.3094 22.69 22.5781 22.6278C22.8469 22.5655 23.1157 22.7336 23.1782 23.001C24.1532 27.2068 28.4063 29.879 30.8532 31.0984C31.1 31.2229 31.2 31.5215 31.0782 31.7672C30.9844 31.9414 30.8094 32.041 30.625 32.041Z" fill="#192646"/>
<path fill-rule="evenodd" clip-rule="evenodd" d="M10.0313 30.4234C9.9563 30.4234 9.88129 30.4078 9.80941 30.3705C9.56254 30.2461 9.46253 29.9474 9.5844 29.7017C10.8875 27.1104 13.7626 22.5998 18.3875 21.539C18.6563 21.4768 18.925 21.6448 18.9875 21.9123C19.05 22.1799 18.8813 22.4474 18.6125 22.5096C14.3875 23.4802 11.7031 27.7139 10.4782 30.1496C10.3907 30.3238 10.2157 30.4234 10.0313 30.4234ZM6.56253 21.5577C6.41254 21.5577 6.26568 21.4924 6.16567 21.3648C5.99692 21.1471 6.03753 20.836 6.25627 20.668C12.4531 15.893 16.5656 18.0892 18.4625 19.825C18.6656 20.0116 18.6781 20.3258 18.4938 20.5281C18.3063 20.7303 17.9906 20.7427 17.7875 20.5591C15.75 18.6958 12.2063 17.3426 6.86883 21.455C6.77819 21.5235 6.66882 21.5577 6.56253 21.5577Z" fill="#192646"/>
<path fill-rule="evenodd" clip-rule="evenodd" d="M21.125 24.0152C19.1782 24.0152 17.5938 22.438 17.5938 20.5C17.5938 18.562 19.1782 16.9849 21.125 16.9849C22.075 16.9849 22.9625 17.3488 23.6281 18.0083C24.2938 18.6678 24.6562 19.5544 24.6562 20.5C24.6562 21.4457 24.2906 22.3292 23.6281 22.9918C22.9656 23.6543 22.075 24.0152 21.125 24.0152ZM21.125 17.9803C19.7281 17.9803 18.5938 19.1095 18.5938 20.5C18.5938 21.8905 19.7282 23.0197 21.125 23.0197C22.5438 23.0197 23.6563 21.9123 23.6563 20.5C23.6563 19.0877 22.5438 17.9803 21.125 17.9803Z" fill="#192646"/>
<path fill-rule="evenodd" clip-rule="evenodd" d="M5.21882 6.03497C4.94378 6.03497 4.71877 5.81098 4.71877 5.5372V3.60856C4.71877 3.33478 4.94378 3.11079 5.21882 3.11079C5.49381 3.11079 5.71882 3.33478 5.71882 3.60856V5.5372C5.71879 5.81098 5.49381 6.03497 5.21882 6.03497Z" fill="#192646"/>
<path fill-rule="evenodd" clip-rule="evenodd" d="M6.18755 5.07055H4.25006C3.97503 5.07055 3.75001 4.84656 3.75001 4.57282C3.75001 4.29903 3.97503 4.07505 4.25006 4.07505L6.18755 4.07508C6.46255 4.07508 6.68756 4.29907 6.68756 4.57282C6.68756 4.8466 6.46255 5.07055 6.18755 5.07055Z" fill="#192646"/>
<path fill-rule="evenodd" clip-rule="evenodd" d="M5.21882 7.31032C4.48128 7.31032 3.79067 7.02727 3.27195 6.51084C2.75318 5.99444 2.46881 5.307 2.46881 4.57287C2.46881 3.0797 3.70318 1.8665 5.21882 1.8665C6.73443 1.8665 7.96879 3.0797 7.96879 4.57287C7.96879 5.30704 7.68446 5.99451 7.16566 6.51087C6.6469 7.02727 5.95631 7.31032 5.21882 7.31032ZM5.21882 2.86193C4.25317 2.86193 3.46879 3.63032 3.46879 4.57286C3.46879 5.54966 4.23755 6.31492 5.21882 6.31492C6.20004 6.31492 6.96881 5.54966 6.96881 4.57286C6.96881 3.63032 6.18443 2.86193 5.21882 2.86193Z" fill="#192646"/>
<path fill-rule="evenodd" clip-rule="evenodd" d="M37.0312 6.03497C36.7562 6.03497 36.5312 5.81098 36.5312 5.5372V3.60856C36.5312 3.33478 36.7562 3.11079 37.0312 3.11079C37.3063 3.11079 37.5312 3.33478 37.5312 3.60856V5.5372C37.5312 5.81098 37.3063 6.03497 37.0312 6.03497Z" fill="#192646"/>
<path fill-rule="evenodd" clip-rule="evenodd" d="M38 5.07055H36.0625C35.7875 5.07055 35.5625 4.84656 35.5625 4.57282C35.5625 4.29903 35.7875 4.07505 36.0625 4.07505L38 4.07508C38.275 4.07508 38.5 4.29907 38.5 4.57282C38.5 4.8466 38.275 5.07055 38 5.07055Z" fill="#192646"/>
<path fill-rule="evenodd" clip-rule="evenodd" d="M37.0312 7.31032C35.5312 7.31032 34.3125 6.08157 34.3125 4.57286C34.3125 3.07966 35.5312 1.86646 37.0312 1.86646C38.5469 1.86646 39.7812 3.07966 39.7812 4.57286C39.7812 5.307 39.4969 5.99447 38.9781 6.51083C38.4625 7.02727 37.7687 7.31032 37.0312 7.31032ZM37.0312 2.86193C36.0844 2.86193 35.3125 3.63032 35.3125 4.57286C35.3125 5.53411 36.0844 6.31492 37.0312 6.31492C38.0125 6.31492 38.7812 5.54966 38.7812 4.57286C38.7812 3.63032 37.9969 2.86193 37.0312 2.86193Z" fill="#192646"/>
<path fill-rule="evenodd" clip-rule="evenodd" d="M5.21882 37.8892C4.94378 37.8892 4.71877 37.6653 4.71877 37.3915V35.4628C4.71877 35.1891 4.94378 34.9651 5.21882 34.9651C5.49381 34.9651 5.71882 35.1891 5.71882 35.4628V37.3915C5.71879 37.6653 5.49381 37.8892 5.21882 37.8892Z" fill="#192646"/>
<path fill-rule="evenodd" clip-rule="evenodd" d="M6.18755 36.9249H4.25006C3.97503 36.9249 3.75001 36.7009 3.75001 36.4272C3.75001 36.1534 3.97503 35.9294 4.25006 35.9294L6.18755 35.9295C6.46255 35.9295 6.68756 36.1534 6.68756 36.4272C6.68756 36.701 6.46255 36.9249 6.18755 36.9249Z" fill="#192646"/>
<path fill-rule="evenodd" clip-rule="evenodd" d="M5.21882 39.1335C3.70317 39.1335 2.46881 37.9203 2.46881 36.4272C2.46881 35.693 2.75314 35.0024 3.27194 34.4891C3.79067 33.9727 4.48128 33.6897 5.21881 33.6897C5.95631 33.6897 6.64692 33.9727 7.16565 34.4891C7.68441 35.0055 7.96878 35.693 7.96878 36.4272C7.96878 37.9203 6.73442 39.1335 5.21882 39.1335ZM5.21882 34.6851C4.23755 34.6851 3.46879 35.4504 3.46879 36.4272C3.46879 37.3697 4.25317 38.1381 5.21882 38.1381C6.18442 38.1381 6.96881 37.3697 6.96881 36.4272C6.96881 35.4504 6.20004 34.6851 5.21882 34.6851Z" fill="#192646"/>
<path fill-rule="evenodd" clip-rule="evenodd" d="M37.0312 37.8892C36.7562 37.8892 36.5312 37.6653 36.5312 37.3915V35.4628C36.5312 35.1891 36.7562 34.9651 37.0312 34.9651C37.3063 34.9651 37.5312 35.1891 37.5312 35.4628V37.3915C37.5312 37.6653 37.3063 37.8892 37.0312 37.8892Z" fill="#192646"/>
<path fill-rule="evenodd" clip-rule="evenodd" d="M38 36.9249H36.0625C35.7875 36.9249 35.5625 36.7009 35.5625 36.4272C35.5625 36.1534 35.7875 35.9294 36.0625 35.9294L38 35.9295C38.275 35.9295 38.5 36.1534 38.5 36.4272C38.5 36.701 38.275 36.9249 38 36.9249Z" fill="#192646"/>
<path fill-rule="evenodd" clip-rule="evenodd" d="M37.0312 39.1335C35.5312 39.1335 34.3125 37.9203 34.3125 36.4272C34.3125 34.9184 35.5312 33.6897 37.0312 33.6897C37.7687 33.6897 38.4625 33.9727 38.9781 34.4891C39.4969 35.0055 39.7812 35.693 39.7812 36.4271C39.7812 37.9203 38.5469 39.1335 37.0312 39.1335ZM37.0312 34.6851C36.0844 34.6851 35.3125 35.4659 35.3125 36.4272C35.3125 37.3697 36.0844 38.1381 37.0312 38.1381C37.9969 38.1381 38.7812 37.3697 38.7812 36.4272C38.7812 35.4504 38.0125 34.6851 37.0312 34.6851Z" fill="#192646"/>
<path fill-rule="evenodd" clip-rule="evenodd" d="M28.875 13.6562C28.7438 13.6562 28.6157 13.6065 28.5157 13.5038C27.4875 12.4493 26.2719 11.6281 24.9032 11.065C24.6469 10.9592 24.5251 10.6699 24.6313 10.4148C24.7375 10.1597 25.0282 10.0384 25.2844 10.1442C26.7782 10.7601 28.1094 11.656 29.2344 12.807C29.4282 13.003 29.4219 13.3203 29.225 13.5101C29.1251 13.6096 29.0001 13.6562 28.875 13.6562Z" fill="#192646"/>
<path fill-rule="evenodd" clip-rule="evenodd" d="M26.8438 14.5273C26.725 14.5273 26.6062 14.4869 26.5125 14.4029C25.9594 13.9114 25.3656 13.507 24.7469 13.2021C24.5 13.0777 24.4 12.7791 24.5219 12.5333C24.6469 12.2876 24.9469 12.1881 25.1938 12.3094C25.8906 12.6547 26.5594 13.1088 27.1781 13.6594C27.3844 13.843 27.4032 14.1572 27.2188 14.3625C27.1187 14.4714 26.9812 14.5273 26.8438 14.5273Z" fill="#192646"/>
<path fill-rule="evenodd" clip-rule="evenodd" d="M28.5 28.7124C28.3688 28.7124 28.2344 28.6595 28.1375 28.5568C27.9469 28.3578 27.9563 28.0405 28.1563 27.8538C29.2094 26.8646 30.0531 25.6234 30.5969 24.2671C30.7001 24.012 30.9907 23.8876 31.2469 23.9902C31.5032 24.0929 31.6282 24.3822 31.525 24.6373C30.925 26.1273 29.9969 27.4899 28.8406 28.5786C28.7469 28.6689 28.6219 28.7124 28.5 28.7124Z" fill="#192646"/>
<path fill-rule="evenodd" clip-rule="evenodd" d="M27.625 26.6904C27.5062 26.6904 27.3875 26.6499 27.2937 26.5659C27.0875 26.3824 27.0687 26.0682 27.2531 25.8629C27.7156 25.3465 28.1312 24.7275 28.4593 24.0742C28.5843 23.8285 28.8843 23.7289 29.1312 23.8502C29.3781 23.9747 29.4781 24.2733 29.3562 24.519C28.9906 25.2501 28.5218 25.9438 27.9999 26.5255C27.9 26.6344 27.7625 26.6904 27.625 26.6904Z" fill="#192646"/>
<path fill-rule="evenodd" clip-rule="evenodd" d="M17.1875 30.89C17.125 30.89 17.0594 30.8776 16.9969 30.8527C15.5031 30.2367 14.1719 29.3408 13.0469 28.1899C12.8532 27.9939 12.8594 27.6766 13.0563 27.4868C13.2532 27.2939 13.5719 27.3002 13.7626 27.4961C14.7907 28.5507 16.0063 29.3719 17.375 29.935C17.6313 30.0408 17.7532 30.3301 17.6469 30.5851C17.5688 30.7749 17.3844 30.89 17.1875 30.89Z" fill="#192646"/>
<path fill-rule="evenodd" clip-rule="evenodd" d="M17.3125 28.7436C17.2375 28.7436 17.1625 28.728 17.0907 28.6907C16.4188 28.3547 15.7625 27.9161 15.0844 27.3499C14.8719 27.1726 14.8469 26.8585 15.025 26.65C15.2031 26.4416 15.5187 26.4136 15.7281 26.5909C16.3437 27.1073 16.9343 27.5024 17.5344 27.801C17.7812 27.9255 17.8812 28.2241 17.7594 28.4698C17.6719 28.644 17.4969 28.7436 17.3125 28.7436Z" fill="#192646"/>
<path fill-rule="evenodd" clip-rule="evenodd" d="M11.2188 17.047C11.1562 17.047 11.0937 17.0346 11.0344 17.0128C10.7781 16.9102 10.6532 16.6209 10.7563 16.3658C11.3469 14.8944 12.2625 13.5319 13.4031 12.4307C13.6 12.2378 13.9188 12.244 14.1094 12.44C14.3032 12.636 14.2969 12.9533 14.1 13.143C13.0594 14.1478 12.225 15.3921 11.6844 16.736C11.6063 16.9288 11.4156 17.047 11.2188 17.047Z" fill="#192646"/>
<path fill-rule="evenodd" clip-rule="evenodd" d="M13.375 17.2025C13.3 17.2025 13.225 17.187 13.1532 17.1497C12.9063 17.0252 12.8063 16.7266 12.9281 16.4809C13.3313 15.6752 13.7656 15.0188 14.2531 14.4744C14.4375 14.2691 14.7531 14.2504 14.9594 14.434C15.1657 14.6175 15.1844 14.9317 15 15.137C14.5719 15.6161 14.1875 16.2009 13.825 16.9257C13.7344 17.103 13.5594 17.2025 13.375 17.2025Z" fill="#192646"/>
<path fill-rule="evenodd" clip-rule="evenodd" d="M47.5 28.4946H41.75C41.475 28.4946 41.25 28.2706 41.25 27.9969C41.25 27.7232 41.475 27.4992 41.75 27.4992L47 27.4992V13.5007H41.75C41.475 13.5007 41.25 13.2768 41.25 13.003C41.25 12.7292 41.475 12.5053 41.75 12.5053L47.5 12.5053C47.775 12.5053 48 12.7293 48 13.003V27.9969C48 28.2706 47.775 28.4946 47.5 28.4946Z" fill="#192646"/>
<path fill-rule="evenodd" clip-rule="evenodd" d="M44.625 19.069C43.625 19.069 42.8125 18.2602 42.8125 17.2648C42.8125 16.2538 43.625 15.4294 44.625 15.4294C45.1219 15.4294 45.5844 15.6192 45.9313 15.9645C46.2782 16.3098 46.4688 16.7701 46.4688 17.2648C46.4688 18.2603 45.6406 19.069 44.625 19.069ZM44.625 16.4249C44.1781 16.4249 43.8125 16.8013 43.8125 17.2647C43.8125 17.7034 44.1844 18.0736 44.625 18.0736C45.0906 18.0736 45.4688 17.7096 45.4688 17.2647C45.4688 16.7951 45.0969 16.4249 44.625 16.4249Z" fill="#192646"/>
<path fill-rule="evenodd" clip-rule="evenodd" d="M44.625 25.5706C43.625 25.5706 42.8125 24.7462 42.8125 23.7352C42.8125 22.7397 43.625 21.9309 44.625 21.9309C45.6406 21.9309 46.4688 22.7397 46.4688 23.7352C46.4688 24.2298 46.2782 24.6902 45.9313 25.0355C45.5844 25.3808 45.1219 25.5706 44.625 25.5706ZM44.625 22.9264C44.1844 22.9264 43.8125 23.2966 43.8125 23.7352C43.8125 24.1987 44.1781 24.5751 44.625 24.5751C45.0969 24.5751 45.4688 24.2049 45.4688 23.7352C45.4688 23.2903 45.0906 22.9264 44.625 22.9264Z" fill="#192646"/>
</svg>
