<!-- Generated by IcoMoon.io -->
<svg version="1.1" xmlns="http://www.w3.org/2000/svg" width="1024" height="1024" viewBox="0 0 1024 1024">
<g id="icomoon-ignore">
</g>
<path fill="#000" d="M288.402 236.308c-4.328 0-7.769 3.53-7.769 7.809v260.034h-272.819c-4.329 0-7.815 3.564-7.815 7.855 0 4.324 3.486 7.763 7.815 7.763h272.819v260.116c0 4.324 3.44 7.808 7.769 7.808s7.814-3.529 7.814-7.808v-535.768c0-4.325-3.486-7.809-7.814-7.809zM356.1 236.308c-4.328 0-7.814 3.53-7.814 7.809v535.768c0 4.324 3.486 7.808 7.814 7.808h660.086c4.328 0 7.814-3.529 7.814-7.808v-535.768c0-4.325-3.486-7.809-7.814-7.809h-660.086zM363.916 251.925h644.454v520.149h-644.454v-520.149zM883.371 256.389c-1.824 0.127-3.612 0.934-4.998 2.364l-155.808 162.302c-10.848-4.152-22.508-6.69-34.79-6.69-53.906 0-97.711 43.773-97.711 97.64 0 13.83 2.991 27.002 8.172 38.906l-149.92 156.142c-3.082 3.080-3.035 7.901 0 10.935l42.386 42.39c1.479 1.477 3.44 2.272 5.494 2.272l0.313-0.221 0.356-0.045c2.101-0.047 4.11-0.935 5.541-2.458l150.762-156.985c10.805 4.153 22.416 6.644 34.698 6.644 53.906 0 97.759-43.819 97.759-97.638 0-13.842-2.989-26.957-8.172-38.873l160.54-167.25c1.522-1.603 2.505-3.749 2.146-5.986-0.311-2.226-1.247-4.279-3.082-5.617l-48.181-36.368c-1.558-1.2-3.531-1.696-5.354-1.511l-0.152 0.046zM884.931 274.418l35.586 26.91-151.073 157.342c-8.22-12.491-19.336-22.711-32.24-30.393l147.728-153.859zM687.718 429.984c45.282 0 82.129 36.771 82.129 82.022 0 45.204-36.846 82.022-82.129 82.022s-82.081-36.819-82.081-82.022c0-45.251 36.799-82.022 82.081-82.022zM687.718 474.207c-20.811 0-37.734 16.91-37.734 37.752 0 20.797 16.924 37.754 37.734 37.754 20.813 0 37.78-16.957 37.78-37.754 0-20.842-16.967-37.752-37.78-37.752zM687.718 489.824c12.235 0 22.152 9.954 22.152 22.134 0 12.227-9.962 22.136-22.152 22.136-12.235 0-22.105-9.954-22.105-22.136 0-12.225 9.87-22.134 22.105-22.134zM606.041 565.376c8.22 12.493 19.334 22.758 32.24 30.393l-141.922 147.85-31.303-31.421 140.985-146.822z"></path>
</svg>
