<!-- Generated by IcoMoon.io -->
<svg version="1.1" xmlns="http://www.w3.org/2000/svg" width="1024" height="1024" viewBox="0 0 1024 1024">
<g id="icomoon-ignore">
</g>
<path fill="#000" d="M598.399 1024h-172.799c-8 0-16.001-6.399-16.001-16.001v-81.6c-43.2-11.199-83.199-27.199-120-49.601l-59.2 57.601c-6.401 6.401-16 6.401-22.4 0l-121.6-121.601c-6.4-6.399-6.4-15.998 0-22.399l57.6-57.599c-22.4-36.801-40-78.401-49.6-120h-78.4c-8 0-16-6.401-16-16.001v-171.2c0-8 6.4-16.001 16-16.001h81.6c9.6-41.601 27.2-81.6 49.6-120l-57.6-57.601c-6.4-6.399-6.4-15.999 0-22.399l121.6-121.6c6.4-6.4 15.999-6.4 22.401 0l59.2 57.6c36.799-22.4 76.8-40 120-49.6v-80c0-8 6.399-16 15.998-16h171.202c7.998 0 15.998 6.4 15.998 16v81.6c43.202 11.2 83.201 27.2 120 49.6l57.601-57.6c6.399-6.4 16.001-6.4 22.399 0l121.601 121.6c6.399 6.4 6.399 15.999 0 22.401l-57.601 57.599c22.399 36.801 40.001 76.8 49.601 120h78.399c8 0 16.001 6.401 16.001 16.001v171.2c0 8-6.399 16.001-16.001 16.001h-81.6c-11.199 43.2-27.199 83.201-49.601 120l57.601 57.601c6.401 6.399 6.401 15.998 0 22.399l-121.601 121.599c-3.198 3.201-6.399 4.8-11.199 4.8s-8-1.599-11.201-4.8l-57.599-57.599c-36.801 22.399-76.8 39.999-120 49.601v79.998c0 9.602-6.401 16.001-14.401 16.001zM441.601 993.6h140.8v-78.399c0-8 4.8-12.8 12.8-16.001 47.999-9.599 92.798-28.801 132.8-54.401 6.399-3.201 14.399-3.201 19.199 1.599l56 56.002 99.202-99.202-56.002-56c-4.8-4.8-6.399-12.8-1.599-19.199 25.6-40.001 44.801-84.8 54.401-132.8 1.599-8 8-12.8 16.001-12.8h76.798v-140.8h-78.399c-8 0-12.8-4.802-16.001-12.802-9.599-47.999-28.798-92.798-54.398-132.8-3.201-6.399-3.201-14.399 1.599-19.199l56-56-99.199-99.201-56 56c-4.8 4.8-12.8 6.4-19.201 1.6-39.999-25.6-84.8-44.8-132.8-54.4-8-1.6-12.8-8-12.8-14.4v-80h-140.8v78.4c0 8-4.8 12.8-12.8 14.4-47.999 9.6-92.801 28.8-132.8 54.4-6.401 3.2-14.399 3.2-19.199-1.6l-56.002-56-99.199 99.199 56 56.002c4.8 4.8 6.4 12.798 1.6 19.199-27.2 41.601-44.8 86.399-54.4 132.8-1.6 8-8 12.8-14.4 12.8h-78.4v140.8h78.4c8 0 14.4 4.8 14.4 12.8 9.6 46.4 28.8 91.201 54.4 132.8 3.2 6.401 3.2 14.401-1.6 19.201l-56 56 99.199 99.199 56.002-56c4.8-4.8 12.798-6.399 19.199-1.599 39.999 25.6 84.8 44.799 132.8 54.398 8 1.601 12.8 8 12.8 16.001l1.601 80.001z"></path>
<path fill="#000" d="M512 753.601c-132.8 0-241.601-108.801-241.601-241.601s108.801-241.601 241.601-241.601c132.8 0 241.601 108.801 241.601 241.601s-108.801 241.601-241.601 241.601zM512 300.799c-115.2 0-211.201 94.402-211.201 211.201s96.001 211.201 211.201 211.201c115.2 0 211.201-96.001 211.201-211.201s-96.001-211.201-211.201-211.201z"></path>
</svg>
