<svg width="234" height="63" viewBox="0 0 234 63" fill="none" xmlns="http://www.w3.org/2000/svg">
<path d="M54.0786 40.8484V32.1097H77.2844V40.8484H54.0786ZM60.2123 13.7177C65.017 13.7177 69.3106 14.7339 73.0931 16.6645C76.8755 18.5952 79.7379 21.3387 81.8847 24.6919C84.0315 28.0452 85.0537 32.1097 85.0537 36.5806C85.0537 41.0516 84.0315 44.9129 81.8847 48.4694C79.7379 51.9242 76.7733 54.6677 73.0931 56.5984C69.3106 58.529 65.017 59.5452 60.2123 59.5452C56.021 59.5452 52.1363 58.8339 48.6606 57.4113C45.1848 55.9887 42.4246 54.0581 40.0734 51.4161L47.4338 44.5065C49.0695 46.1323 50.9096 47.4532 52.9541 48.3677C54.9987 49.2823 57.2477 49.6887 59.7012 49.6887C62.3591 49.6887 64.7104 49.1806 66.7549 48.0629C68.7995 46.9452 70.3329 45.421 71.4574 43.4903C72.5819 41.5597 73.1953 39.2226 73.1953 36.6823C73.1953 34.0403 72.5819 31.8048 71.4574 29.7726C70.3329 27.7403 68.6973 26.3177 66.7549 25.2C64.7104 24.0823 62.3591 23.5742 59.7012 23.5742C57.2477 23.5742 54.9987 23.9806 52.9541 24.8952C50.9096 25.8097 49.0695 27.1306 47.4338 28.7565L40.0734 21.9484C42.3224 19.3065 45.1848 17.2742 48.6606 15.8516C52.1363 14.429 56.021 13.7177 60.2123 13.7177ZM93.9476 58.7323V14.6323H106.726V31.8048H126.047V14.6323H138.928V58.7323H126.047V42.1694H106.726V58.6306C106.726 58.7323 93.9476 58.7323 93.9476 58.7323ZM160.6 58.7323V22.1516L163.463 25.0984H145.573V14.6323H188.406V25.0984H170.516L173.379 22.1516V58.7323H160.6ZM221.835 58.7323V50.0952L221.017 48.1645V32.821C221.017 30.0774 220.199 27.9435 218.461 26.4194C216.826 24.8952 214.168 24.0823 210.794 24.0823C208.443 24.0823 206.092 24.4887 203.843 25.2C201.594 25.9113 199.651 26.9274 198.016 28.1468L193.415 19.2048C195.869 17.4774 198.731 16.1565 202.207 15.2419C205.683 14.3274 209.056 13.8194 212.634 13.8194C219.381 13.8194 224.697 15.4452 228.377 18.5952C232.16 21.7452 234 26.7242 234 33.4306V58.6306L221.835 58.7323ZM208.341 59.3419C204.865 59.3419 201.9 58.7323 199.447 57.6145C196.993 56.3952 195.051 54.871 193.722 52.8387C192.393 50.8064 191.78 48.571 191.78 46.0306C191.78 43.3887 192.393 41.1532 193.722 39.121C195.051 37.1903 197.096 35.5645 199.856 34.4468C202.616 33.329 206.296 32.7194 210.794 32.7194H222.55V40.1371H212.123C209.056 40.1371 207.012 40.6452 205.887 41.6613C204.763 42.6774 204.149 43.8968 204.149 45.3194C204.149 46.9452 204.763 48.2661 206.092 49.1806C207.421 50.0952 209.159 50.6032 211.408 50.6032C213.554 50.6032 215.497 50.0952 217.132 49.079C218.87 48.0629 220.097 46.5387 220.813 44.6081L222.755 50.5016C221.835 53.3468 220.097 55.4806 217.644 57.0048C215.395 58.6306 212.225 59.3419 208.341 59.3419Z" fill="#192646"/>
<path d="M42.9358 10.771L48.0472 0H12.4718C8.99607 0 5.62254 1.82903 3.78244 4.87742L0 10.771H42.9358Z" fill="#192646"/>
<path d="M30.3617 55.1758V10.771L24.3303 14.8355C20.2412 17.579 17.7877 22.1516 17.7877 27.029V63L30.3617 55.1758Z" fill="#192646"/>
</svg>
