<svg width="40" height="34" viewBox="0 0 40 34" fill="none" xmlns="http://www.w3.org/2000/svg">
<path d="M39.6007 7.49879L20.1664 0.0494426C20.0333 -0.0164809 19.9002 -0.0164809 19.8336 0.0494426L0.332779 7.49879C0.133111 7.56471 0 7.76248 0 7.96025V33.4726C0 33.7363 0.199667 33.9341 0.532446 34H3.06156C3.32779 34 3.52745 33.8022 3.59401 33.4726V10.6631H36.406V33.4726C36.406 33.7363 36.6057 33.9341 36.9384 34H39.4676C39.7338 34 39.9334 33.8022 40 33.4726V7.96025C39.9334 7.76248 39.8003 7.56471 39.6007 7.49879ZM38.9351 32.9452H37.4043V10.2016C37.4043 9.93795 37.2047 9.74018 36.8719 9.67426H3.06156C2.79534 9.67426 2.59567 9.87203 2.52912 10.2016V32.9452H0.998336V8.28987L19.9667 1.03829L38.9351 8.35579V32.9452Z" fill="white"/>
<path d="M15.8403 6.24624V8.15802C15.8403 8.42172 16.0399 8.61949 16.3727 8.68541H23.6273C23.8935 8.68541 24.0932 8.48764 24.1597 8.15802V6.24624C24.1597 5.98255 23.9601 5.78478 23.6273 5.71886H16.3062C16.0399 5.71886 15.8403 5.98255 15.8403 6.24624ZM16.8386 6.70771H23.0948V7.63064H16.8386V6.70771Z" fill="white"/>
<path d="M28.8186 25.5618H21.8303V18.6398C21.8303 18.3762 21.6306 18.1784 21.2978 18.1125H6.38935C6.12313 18.1125 5.92346 18.3102 5.85691 18.6398V33.4067C5.85691 33.6704 6.05657 33.8682 6.38935 33.9341H28.7521C29.0183 33.9341 29.218 33.7363 29.2845 33.4067V26.0892C29.2845 25.7596 29.0849 25.5618 28.8186 25.5618ZM25.3577 26.5507V27.2758H24.7587V26.5507H25.3577ZM14.376 25.5618V19.1672H16.3062V20.4198C16.3062 20.6835 16.5058 20.8812 16.8386 20.9472H18.4359C18.7022 20.9472 18.9018 20.7494 18.9684 20.4198V19.1672H20.8985V25.5618H14.376ZM17.3045 26.5507H17.9035V27.2758H17.3045V26.5507ZM17.8369 19.1672V19.8924H17.3045V19.1672H17.8369ZM10.3827 19.1672V19.8924H9.78369V19.1672H10.3827ZM6.85524 19.1672H8.78536V20.4198C8.78536 20.6835 8.98503 20.8812 9.3178 20.9472H10.9151C11.1814 20.9472 11.381 20.7494 11.4476 20.4198V19.1672H13.3777V25.5618H6.9218L6.85524 19.1672ZM9.85025 26.5507H10.4493V27.2758H9.85025V26.5507ZM6.85524 26.5507H8.78536V27.8032C8.78536 28.0669 8.98503 28.2647 9.3178 28.3306H10.9151C11.1814 28.3306 11.381 28.1328 11.4476 27.8032V26.5507H13.3777V32.9452H6.9218L6.85524 26.5507ZM14.376 32.9452V26.5507H16.3062V27.8032C16.3062 28.0669 16.5058 28.2647 16.8386 28.3306H18.4359C18.7022 28.3306 18.9018 28.1328 18.9684 27.8032V26.5507H20.8985V32.9452H14.376ZM21.8303 32.9452V26.5507H23.7604V27.8032C23.7604 28.0669 23.9601 28.2647 24.2928 28.3306H25.8902C26.1564 28.3306 26.3561 28.1328 26.4226 27.8032V26.5507H28.3527V32.9452H21.8303Z" fill="white"/>
</svg>
