<svg width="29" height="39" viewBox="0 0 29 39" fill="none" xmlns="http://www.w3.org/2000/svg">
<path d="M1.40909 0.9C1.10158 0.9 0.9 1.15742 0.9 1.41111V37.5889C0.9 37.724 0.966237 37.8509 1.05696 37.9421C1.14765 38.0332 1.27412 38.1 1.40909 38.1H21.8636C21.9367 38.1 22.0021 38.0876 22.0629 38.0605C22.1233 38.0335 22.1741 37.9942 22.2209 37.9472L27.9482 32.1916C27.995 32.1446 28.034 32.0936 28.0608 32.0331C28.0877 31.9721 28.1 31.9066 28.1 31.8333V1.41111C28.1 1.27598 28.0338 1.1491 27.943 1.05794C27.8524 0.966799 27.7259 0.9 27.5909 0.9H1.40909ZM1.91818 1.92222H27.0818V31.3222H21.8636C21.5561 31.3222 21.3545 31.5796 21.3545 31.8333V37.0778H1.91818V1.92222ZM5.5 7.06667C5.31866 7.06667 5.18924 7.15929 5.10849 7.26542C5.03059 7.36779 4.99091 7.4914 4.99091 7.57778V10.0444C4.99091 10.1796 5.05715 10.3065 5.14787 10.3976C5.23855 10.4888 5.36503 10.5556 5.5 10.5556H7.95455C8.08952 10.5556 8.21599 10.4888 8.30668 10.3976C8.3974 10.3065 8.46364 10.1796 8.46364 10.0444V7.57778C8.46364 7.44265 8.3974 7.31577 8.30668 7.2246C8.21599 7.13347 8.08952 7.06667 7.95455 7.06667H5.5ZM6.00909 8.08889H7.44545V9.53333H6.00909V8.08889ZM12.4545 8.3C12.3089 8.3 12.1799 8.34922 12.0871 8.44252C11.9943 8.53577 11.9455 8.6652 11.9455 8.81111C11.9455 8.95702 11.9943 9.08645 12.0871 9.1797C12.1799 9.273 12.3089 9.32222 12.4545 9.32222H23.5C23.6456 9.32222 23.7746 9.273 23.8675 9.1797C23.9603 9.08645 24.0091 8.95702 24.0091 8.81111C24.0091 8.6652 23.9603 8.53577 23.8675 8.44252C23.7746 8.34922 23.6456 8.3 23.5 8.3H12.4545ZM5.5 13.6444C5.31866 13.6444 5.18924 13.7371 5.10849 13.8432C5.03059 13.9456 4.99091 14.0692 4.99091 14.1556V16.6222C4.99091 16.7573 5.05715 16.8842 5.14787 16.9754C5.23855 17.0665 5.36503 17.1333 5.5 17.1333H7.95455C8.08952 17.1333 8.21599 17.0665 8.30668 16.9754C8.3974 16.8842 8.46364 16.7573 8.46364 16.6222V14.1556C8.46364 14.0204 8.3974 13.8935 8.30668 13.8024C8.21599 13.7112 8.08952 13.6444 7.95455 13.6444H5.5ZM6.00909 14.6667H7.44545V16.1111H6.00909V14.6667ZM12.4545 14.8778C12.3089 14.8778 12.1799 14.927 12.0871 15.0203C11.9943 15.1135 11.9455 15.243 11.9455 15.3889C11.9455 15.5348 11.9943 15.6642 12.0871 15.7575C12.1799 15.8508 12.3089 15.9 12.4545 15.9H23.5C23.6456 15.9 23.7746 15.8508 23.8675 15.7575C23.9603 15.6642 24.0091 15.5348 24.0091 15.3889C24.0091 15.243 23.9603 15.1136 23.8675 15.0203C23.7746 14.927 23.6456 14.8778 23.5 14.8778H12.4545ZM5.5 20.2222C5.31866 20.2222 5.18924 20.3148 5.10849 20.421C5.03059 20.5233 4.99091 20.647 4.99091 20.7333V23.2C4.99091 23.3351 5.05715 23.462 5.14787 23.5532C5.23855 23.6443 5.36503 23.7111 5.5 23.7111H7.95455C8.08952 23.7111 8.21599 23.6443 8.30668 23.5532C8.3974 23.462 8.46364 23.3351 8.46364 23.2V20.7333C8.46364 20.5982 8.3974 20.4713 8.30668 20.3802C8.21599 20.289 8.08952 20.2222 7.95455 20.2222H5.5ZM6.00909 21.2444H7.44545V22.6889H6.00909V21.2444ZM12.4545 21.4556C12.3089 21.4556 12.1799 21.5048 12.0871 21.5981C11.9943 21.6913 11.9455 21.8208 11.9455 21.9667C11.9455 22.1126 11.9943 22.242 12.0871 22.3353C12.1799 22.4286 12.3089 22.4778 12.4545 22.4778H23.5C23.6456 22.4778 23.7746 22.4286 23.8675 22.3353C23.9603 22.242 24.0091 22.1126 24.0091 21.9667C24.0091 21.8208 23.9603 21.6913 23.8675 21.5981C23.7746 21.5048 23.6456 21.4556 23.5 21.4556H12.4545ZM5.5 26.8C5.31866 26.8 5.18924 26.8926 5.10849 26.9987C5.03059 27.1011 4.99091 27.2247 4.99091 27.3111V29.7778C4.99091 29.9129 5.05715 30.0398 5.14787 30.131C5.23855 30.2221 5.36503 30.2889 5.5 30.2889H7.95455C8.08952 30.2889 8.21599 30.2221 8.30668 30.131C8.3974 30.0398 8.46364 29.9129 8.46364 29.7778V27.3111C8.46364 27.176 8.3974 27.0491 8.30668 26.9579C8.21599 26.8668 8.08952 26.8 7.95455 26.8H5.5ZM6.00909 27.8222H7.44545V29.2667H6.00909V27.8222ZM12.4545 28.0333C12.3089 28.0333 12.1799 28.0826 12.0871 28.1759C11.9943 28.2691 11.9455 28.3985 11.9455 28.5444C11.9455 28.6904 11.9943 28.8198 12.0871 28.913C12.1799 29.0063 12.3089 29.0556 12.4545 29.0556H23.5C23.6456 29.0556 23.7746 29.0063 23.8675 28.913C23.9603 28.8198 24.0091 28.6904 24.0091 28.5444C24.0091 28.3985 23.9603 28.2691 23.8675 28.1759C23.7746 28.0826 23.6456 28.0333 23.5 28.0333H12.4545ZM22.3727 32.3444H26.3669L22.3727 36.3205V32.3444Z" fill="white" stroke="white" stroke-width="0.2"/>
</svg>
