<svg width="43" height="34" viewBox="0 0 43 34" fill="none" xmlns="http://www.w3.org/2000/svg">
<path d="M35.1132 2.26585L35.1131 2.26591L35.116 2.26923C42.257 10.3744 42.2577 23.6222 35.1182 31.7284C34.7761 32.0709 34.8765 32.5706 35.1938 32.8858C35.5382 33.2278 36.0417 33.1289 36.3598 32.8131L36.3599 32.8133L36.3646 32.8079C44.0118 24.0448 44.0118 9.95522 36.3646 1.19212L36.3648 1.19195L36.3598 1.18691C36.0444 0.873747 35.5467 0.773878 35.2026 1.10561C34.9982 1.23162 34.8914 1.42243 34.8807 1.63457C34.87 1.84652 34.9553 2.06986 35.1132 2.26585ZM29.6144 12.4345L29.6188 12.4417L29.6243 12.4481C31.7875 14.9546 31.7883 19.0414 29.6267 21.5491C29.2851 21.8916 29.3855 22.3911 29.7027 22.7061C30.0471 23.0481 30.5507 22.9493 30.8687 22.6334L30.8688 22.6336L30.873 22.6288C33.6155 19.5371 33.6155 14.4629 30.873 11.3712L30.8732 11.371L30.8687 11.3666C30.5522 11.0523 30.052 10.9528 29.7078 11.2889C29.3606 11.5531 29.3837 12.0527 29.6144 12.4345ZM23.6964 17.7908C23.9386 17.7908 24.1483 17.7102 24.2977 17.5618C24.4472 17.4133 24.5286 17.2047 24.5286 16.9636C24.5286 16.7226 24.4472 16.514 24.2977 16.3655C24.1483 16.2171 23.9386 16.1365 23.6964 16.1365H15.7429V10.4196C15.7429 7.52793 13.4278 5.22973 10.5179 5.22973L1.73214 5.22973C1.48998 5.22973 1.28032 5.31032 1.13087 5.45874C0.981365 5.60722 0.900002 5.81578 0.900002 6.05685V27.8704C0.900002 28.1115 0.981365 28.3201 1.13087 28.4685C1.28032 28.617 1.48998 28.6976 1.73214 28.6976H10.5179C13.4278 28.6976 15.7429 26.3994 15.7429 23.5077V17.7908H23.6964ZM14.0786 23.5077C14.0786 25.4878 12.5133 27.0433 10.5179 27.0433H2.56429V6.88397L10.5179 6.88397C12.5133 6.88397 14.0786 8.43951 14.0786 10.4196V23.5077Z" fill="white" stroke="white" stroke-width="0.2"/>
</svg>
