<svg width="38" height="38" viewBox="0 0 38 38" fill="none" xmlns="http://www.w3.org/2000/svg">
<mask id="path-1-outside-1_1_1116" maskUnits="userSpaceOnUse" x="0" y="0" width="38" height="38" fill="black">
<rect fill="white" width="38" height="38"/>
<path d="M16.0698 1C15.4 1 14.814 1.54419 14.814 2.25581V5.43721C13.9767 5.68837 13.1395 6.02326 12.386 6.44186L10.1256 4.1814C9.87442 3.93023 9.53953 3.80465 9.24651 3.80465C8.95349 3.80465 8.6186 3.93023 8.36744 4.1814L4.22326 8.32558C3.76279 8.78605 3.76279 9.62326 4.22326 10.0837L6.48372 12.3442C6.02326 13.1395 5.68837 13.9767 5.43721 14.814H2.25581C1.58605 14.814 1 15.3581 1 16.0698V21.9302C1 22.6 1.54419 23.186 2.25581 23.186H5.43721C5.68837 24.0233 6.02326 24.8605 6.44186 25.614L4.1814 27.8744C3.72093 28.3349 3.72093 29.1721 4.1814 29.6326L8.32558 33.7767C8.78605 34.2372 9.62326 34.2372 10.0837 33.7767L12.3442 31.5163C13.1395 31.9349 13.9349 32.2698 14.7721 32.5209V35.7442C14.7721 36.414 15.3163 37 16.0279 37H21.9302C22.6 37 23.186 36.4558 23.186 35.7442V32.5628C24.0233 32.3116 24.8605 31.9767 25.614 31.5581L27.8744 33.8186C28.3349 34.2791 29.1721 34.2791 29.6326 33.8186L33.7767 29.6744C34.2372 29.214 34.2372 28.3767 33.7767 27.9163L31.5581 25.614C31.9767 24.8186 32.3116 24.0233 32.5628 23.186H35.7442C36.414 23.186 37 22.6419 37 21.9302V16.0698C37 15.4 36.4558 14.814 35.7442 14.814H32.5628C32.3116 13.9767 31.9767 13.1395 31.5581 12.386L33.8186 10.1256C34.2791 9.66512 34.2791 8.82791 33.8186 8.36744L29.6744 4.22326C29.4233 3.97209 29.1302 3.84651 28.7953 3.84651C28.4605 3.84651 28.1256 3.93023 27.8744 4.1814L25.614 6.44186C24.8605 6.02326 24.0233 5.68837 23.186 5.43721V2.25581C23.186 1.58605 22.6419 1 21.9302 1H16.0698ZM16.0698 1.83721H21.9302C22.1814 1.83721 22.3488 2.00465 22.3488 2.25581V5.73023C22.3488 5.89767 22.4744 6.06512 22.6419 6.14884C23.6465 6.44186 24.6093 6.8186 25.5302 7.32093C25.6977 7.40465 25.907 7.40465 26.0326 7.23721L28.4605 4.8093C28.5442 4.72558 28.6698 4.68372 28.7535 4.68372C28.8372 4.68372 28.9209 4.72558 29.0465 4.8093L33.1907 8.95349C33.3581 9.12093 33.3581 9.33023 33.1907 9.49767L30.7628 11.9256C30.6372 12.0512 30.5953 12.2605 30.6791 12.4279C31.1814 13.3488 31.6 14.3116 31.8512 15.3163C31.893 15.4837 32.0605 15.6093 32.2698 15.6093H35.7442C35.9953 15.6093 36.1628 15.7767 36.1628 16.0279V21.9302C36.1628 22.1814 35.9953 22.3488 35.7442 22.3488H32.2698C32.1023 22.3488 31.9349 22.4744 31.8512 22.6419C31.5581 23.6465 31.1814 24.6093 30.6791 25.5302C30.5953 25.6977 30.5953 25.907 30.7628 26.0326L33.1907 28.4605C33.3581 28.6279 33.3581 28.8372 33.1907 29.0047L29.0465 33.1907C28.8791 33.3581 28.6698 33.3581 28.5023 33.1907L26.0744 30.7628C25.9488 30.6372 25.7395 30.5953 25.5721 30.6791C24.6512 31.1814 23.6884 31.6 22.6837 31.8512C22.5163 31.893 22.3907 32.0605 22.3907 32.2698V35.7442C22.3907 35.9953 22.2233 36.1628 21.9721 36.1628H16.0698C15.8186 36.1628 15.6512 35.9953 15.6512 35.7442V32.2698C15.6512 32.1023 15.5256 31.9349 15.3581 31.8512C14.3535 31.5581 13.3907 31.1814 12.4698 30.6791C12.3023 30.5953 12.093 30.5953 11.9674 30.7628L9.53953 33.1907C9.37209 33.3581 9.16279 33.3581 8.99535 33.1907L4.8093 29.0465C4.64186 28.8791 4.64186 28.6698 4.8093 28.5023L7.23721 26.0744C7.36279 25.9488 7.40465 25.7395 7.32093 25.5721C6.8186 24.6512 6.4 23.6884 6.14884 22.6837C6.10698 22.5163 5.93953 22.3907 5.73023 22.3907H2.25581C2.00465 22.3907 1.83721 22.2233 1.83721 21.9721V16.0698C1.83721 15.8186 2.00465 15.6512 2.25581 15.6512H5.73023C5.89767 15.6512 6.06512 15.5256 6.14884 15.3581C6.44186 14.3535 6.8186 13.3907 7.32093 12.4698C7.40465 12.3023 7.40465 12.093 7.23721 11.9674L4.8093 9.53953C4.64186 9.37209 4.64186 9.16279 4.8093 8.99535L8.95349 4.8093C9.03721 4.72558 9.12093 4.68372 9.24651 4.68372C9.37209 4.68372 9.45581 4.72558 9.53953 4.8093L11.9674 7.23721C12.093 7.36279 12.3023 7.40465 12.4698 7.32093C13.3907 6.8186 14.3535 6.4 15.3581 6.14884C15.5256 6.10698 15.6512 5.93953 15.6512 5.73023V2.25581C15.6512 2.00465 15.8186 1.83721 16.0698 1.83721ZM19 10.6279C14.3953 10.6279 10.6279 14.3953 10.6279 19C10.6279 23.6047 14.3953 27.3721 19 27.3721C23.6047 27.3721 27.3721 23.6047 27.3721 19C27.3721 14.3953 23.6047 10.6279 19 10.6279ZM19 11.4651C23.186 11.4651 26.5349 14.814 26.5349 19C26.5349 23.186 23.186 26.5349 19 26.5349C14.814 26.5349 11.4651 23.186 11.4651 19C11.4651 14.814 14.814 11.4651 19 11.4651Z"/>
</mask>
<path d="M16.0698 1C15.4 1 14.814 1.54419 14.814 2.25581V5.43721C13.9767 5.68837 13.1395 6.02326 12.386 6.44186L10.1256 4.1814C9.87442 3.93023 9.53953 3.80465 9.24651 3.80465C8.95349 3.80465 8.6186 3.93023 8.36744 4.1814L4.22326 8.32558C3.76279 8.78605 3.76279 9.62326 4.22326 10.0837L6.48372 12.3442C6.02326 13.1395 5.68837 13.9767 5.43721 14.814H2.25581C1.58605 14.814 1 15.3581 1 16.0698V21.9302C1 22.6 1.54419 23.186 2.25581 23.186H5.43721C5.68837 24.0233 6.02326 24.8605 6.44186 25.614L4.1814 27.8744C3.72093 28.3349 3.72093 29.1721 4.1814 29.6326L8.32558 33.7767C8.78605 34.2372 9.62326 34.2372 10.0837 33.7767L12.3442 31.5163C13.1395 31.9349 13.9349 32.2698 14.7721 32.5209V35.7442C14.7721 36.414 15.3163 37 16.0279 37H21.9302C22.6 37 23.186 36.4558 23.186 35.7442V32.5628C24.0233 32.3116 24.8605 31.9767 25.614 31.5581L27.8744 33.8186C28.3349 34.2791 29.1721 34.2791 29.6326 33.8186L33.7767 29.6744C34.2372 29.214 34.2372 28.3767 33.7767 27.9163L31.5581 25.614C31.9767 24.8186 32.3116 24.0233 32.5628 23.186H35.7442C36.414 23.186 37 22.6419 37 21.9302V16.0698C37 15.4 36.4558 14.814 35.7442 14.814H32.5628C32.3116 13.9767 31.9767 13.1395 31.5581 12.386L33.8186 10.1256C34.2791 9.66512 34.2791 8.82791 33.8186 8.36744L29.6744 4.22326C29.4233 3.97209 29.1302 3.84651 28.7953 3.84651C28.4605 3.84651 28.1256 3.93023 27.8744 4.1814L25.614 6.44186C24.8605 6.02326 24.0233 5.68837 23.186 5.43721V2.25581C23.186 1.58605 22.6419 1 21.9302 1H16.0698ZM16.0698 1.83721H21.9302C22.1814 1.83721 22.3488 2.00465 22.3488 2.25581V5.73023C22.3488 5.89767 22.4744 6.06512 22.6419 6.14884C23.6465 6.44186 24.6093 6.8186 25.5302 7.32093C25.6977 7.40465 25.907 7.40465 26.0326 7.23721L28.4605 4.8093C28.5442 4.72558 28.6698 4.68372 28.7535 4.68372C28.8372 4.68372 28.9209 4.72558 29.0465 4.8093L33.1907 8.95349C33.3581 9.12093 33.3581 9.33023 33.1907 9.49767L30.7628 11.9256C30.6372 12.0512 30.5953 12.2605 30.6791 12.4279C31.1814 13.3488 31.6 14.3116 31.8512 15.3163C31.893 15.4837 32.0605 15.6093 32.2698 15.6093H35.7442C35.9953 15.6093 36.1628 15.7767 36.1628 16.0279V21.9302C36.1628 22.1814 35.9953 22.3488 35.7442 22.3488H32.2698C32.1023 22.3488 31.9349 22.4744 31.8512 22.6419C31.5581 23.6465 31.1814 24.6093 30.6791 25.5302C30.5953 25.6977 30.5953 25.907 30.7628 26.0326L33.1907 28.4605C33.3581 28.6279 33.3581 28.8372 33.1907 29.0047L29.0465 33.1907C28.8791 33.3581 28.6698 33.3581 28.5023 33.1907L26.0744 30.7628C25.9488 30.6372 25.7395 30.5953 25.5721 30.6791C24.6512 31.1814 23.6884 31.6 22.6837 31.8512C22.5163 31.893 22.3907 32.0605 22.3907 32.2698V35.7442C22.3907 35.9953 22.2233 36.1628 21.9721 36.1628H16.0698C15.8186 36.1628 15.6512 35.9953 15.6512 35.7442V32.2698C15.6512 32.1023 15.5256 31.9349 15.3581 31.8512C14.3535 31.5581 13.3907 31.1814 12.4698 30.6791C12.3023 30.5953 12.093 30.5953 11.9674 30.7628L9.53953 33.1907C9.37209 33.3581 9.16279 33.3581 8.99535 33.1907L4.8093 29.0465C4.64186 28.8791 4.64186 28.6698 4.8093 28.5023L7.23721 26.0744C7.36279 25.9488 7.40465 25.7395 7.32093 25.5721C6.8186 24.6512 6.4 23.6884 6.14884 22.6837C6.10698 22.5163 5.93953 22.3907 5.73023 22.3907H2.25581C2.00465 22.3907 1.83721 22.2233 1.83721 21.9721V16.0698C1.83721 15.8186 2.00465 15.6512 2.25581 15.6512H5.73023C5.89767 15.6512 6.06512 15.5256 6.14884 15.3581C6.44186 14.3535 6.8186 13.3907 7.32093 12.4698C7.40465 12.3023 7.40465 12.093 7.23721 11.9674L4.8093 9.53953C4.64186 9.37209 4.64186 9.16279 4.8093 8.99535L8.95349 4.8093C9.03721 4.72558 9.12093 4.68372 9.24651 4.68372C9.37209 4.68372 9.45581 4.72558 9.53953 4.8093L11.9674 7.23721C12.093 7.36279 12.3023 7.40465 12.4698 7.32093C13.3907 6.8186 14.3535 6.4 15.3581 6.14884C15.5256 6.10698 15.6512 5.93953 15.6512 5.73023V2.25581C15.6512 2.00465 15.8186 1.83721 16.0698 1.83721ZM19 10.6279C14.3953 10.6279 10.6279 14.3953 10.6279 19C10.6279 23.6047 14.3953 27.3721 19 27.3721C23.6047 27.3721 27.3721 23.6047 27.3721 19C27.3721 14.3953 23.6047 10.6279 19 10.6279ZM19 11.4651C23.186 11.4651 26.5349 14.814 26.5349 19C26.5349 23.186 23.186 26.5349 19 26.5349C14.814 26.5349 11.4651 23.186 11.4651 19C11.4651 14.814 14.814 11.4651 19 11.4651Z" fill="white"/>
<path d="M16.0698 1C15.4 1 14.814 1.54419 14.814 2.25581V5.43721C13.9767 5.68837 13.1395 6.02326 12.386 6.44186L10.1256 4.1814C9.87442 3.93023 9.53953 3.80465 9.24651 3.80465C8.95349 3.80465 8.6186 3.93023 8.36744 4.1814L4.22326 8.32558C3.76279 8.78605 3.76279 9.62326 4.22326 10.0837L6.48372 12.3442C6.02326 13.1395 5.68837 13.9767 5.43721 14.814H2.25581C1.58605 14.814 1 15.3581 1 16.0698V21.9302C1 22.6 1.54419 23.186 2.25581 23.186H5.43721C5.68837 24.0233 6.02326 24.8605 6.44186 25.614L4.1814 27.8744C3.72093 28.3349 3.72093 29.1721 4.1814 29.6326L8.32558 33.7767C8.78605 34.2372 9.62326 34.2372 10.0837 33.7767L12.3442 31.5163C13.1395 31.9349 13.9349 32.2698 14.7721 32.5209V35.7442C14.7721 36.414 15.3163 37 16.0279 37H21.9302C22.6 37 23.186 36.4558 23.186 35.7442V32.5628C24.0233 32.3116 24.8605 31.9767 25.614 31.5581L27.8744 33.8186C28.3349 34.2791 29.1721 34.2791 29.6326 33.8186L33.7767 29.6744C34.2372 29.214 34.2372 28.3767 33.7767 27.9163L31.5581 25.614C31.9767 24.8186 32.3116 24.0233 32.5628 23.186H35.7442C36.414 23.186 37 22.6419 37 21.9302V16.0698C37 15.4 36.4558 14.814 35.7442 14.814H32.5628C32.3116 13.9767 31.9767 13.1395 31.5581 12.386L33.8186 10.1256C34.2791 9.66512 34.2791 8.82791 33.8186 8.36744L29.6744 4.22326C29.4233 3.97209 29.1302 3.84651 28.7953 3.84651C28.4605 3.84651 28.1256 3.93023 27.8744 4.1814L25.614 6.44186C24.8605 6.02326 24.0233 5.68837 23.186 5.43721V2.25581C23.186 1.58605 22.6419 1 21.9302 1H16.0698ZM16.0698 1.83721H21.9302C22.1814 1.83721 22.3488 2.00465 22.3488 2.25581V5.73023C22.3488 5.89767 22.4744 6.06512 22.6419 6.14884C23.6465 6.44186 24.6093 6.8186 25.5302 7.32093C25.6977 7.40465 25.907 7.40465 26.0326 7.23721L28.4605 4.8093C28.5442 4.72558 28.6698 4.68372 28.7535 4.68372C28.8372 4.68372 28.9209 4.72558 29.0465 4.8093L33.1907 8.95349C33.3581 9.12093 33.3581 9.33023 33.1907 9.49767L30.7628 11.9256C30.6372 12.0512 30.5953 12.2605 30.6791 12.4279C31.1814 13.3488 31.6 14.3116 31.8512 15.3163C31.893 15.4837 32.0605 15.6093 32.2698 15.6093H35.7442C35.9953 15.6093 36.1628 15.7767 36.1628 16.0279V21.9302C36.1628 22.1814 35.9953 22.3488 35.7442 22.3488H32.2698C32.1023 22.3488 31.9349 22.4744 31.8512 22.6419C31.5581 23.6465 31.1814 24.6093 30.6791 25.5302C30.5953 25.6977 30.5953 25.907 30.7628 26.0326L33.1907 28.4605C33.3581 28.6279 33.3581 28.8372 33.1907 29.0047L29.0465 33.1907C28.8791 33.3581 28.6698 33.3581 28.5023 33.1907L26.0744 30.7628C25.9488 30.6372 25.7395 30.5953 25.5721 30.6791C24.6512 31.1814 23.6884 31.6 22.6837 31.8512C22.5163 31.893 22.3907 32.0605 22.3907 32.2698V35.7442C22.3907 35.9953 22.2233 36.1628 21.9721 36.1628H16.0698C15.8186 36.1628 15.6512 35.9953 15.6512 35.7442V32.2698C15.6512 32.1023 15.5256 31.9349 15.3581 31.8512C14.3535 31.5581 13.3907 31.1814 12.4698 30.6791C12.3023 30.5953 12.093 30.5953 11.9674 30.7628L9.53953 33.1907C9.37209 33.3581 9.16279 33.3581 8.99535 33.1907L4.8093 29.0465C4.64186 28.8791 4.64186 28.6698 4.8093 28.5023L7.23721 26.0744C7.36279 25.9488 7.40465 25.7395 7.32093 25.5721C6.8186 24.6512 6.4 23.6884 6.14884 22.6837C6.10698 22.5163 5.93953 22.3907 5.73023 22.3907H2.25581C2.00465 22.3907 1.83721 22.2233 1.83721 21.9721V16.0698C1.83721 15.8186 2.00465 15.6512 2.25581 15.6512H5.73023C5.89767 15.6512 6.06512 15.5256 6.14884 15.3581C6.44186 14.3535 6.8186 13.3907 7.32093 12.4698C7.40465 12.3023 7.40465 12.093 7.23721 11.9674L4.8093 9.53953C4.64186 9.37209 4.64186 9.16279 4.8093 8.99535L8.95349 4.8093C9.03721 4.72558 9.12093 4.68372 9.24651 4.68372C9.37209 4.68372 9.45581 4.72558 9.53953 4.8093L11.9674 7.23721C12.093 7.36279 12.3023 7.40465 12.4698 7.32093C13.3907 6.8186 14.3535 6.4 15.3581 6.14884C15.5256 6.10698 15.6512 5.93953 15.6512 5.73023V2.25581C15.6512 2.00465 15.8186 1.83721 16.0698 1.83721ZM19 10.6279C14.3953 10.6279 10.6279 14.3953 10.6279 19C10.6279 23.6047 14.3953 27.3721 19 27.3721C23.6047 27.3721 27.3721 23.6047 27.3721 19C27.3721 14.3953 23.6047 10.6279 19 10.6279ZM19 11.4651C23.186 11.4651 26.5349 14.814 26.5349 19C26.5349 23.186 23.186 26.5349 19 26.5349C14.814 26.5349 11.4651 23.186 11.4651 19C11.4651 14.814 14.814 11.4651 19 11.4651Z" stroke="white" stroke-width="0.4" mask="url(#path-1-outside-1_1_1116)"/>
</svg>
