<!-- Generated by IcoMoon.io -->
<svg version="1.1" xmlns="http://www.w3.org/2000/svg" width="1024" height="1024" viewBox="0 0 1024 1024">
<g id="icomoon-ignore">
</g>
<path fill="#000" d="M838.386 256.725l40.616-40.61 20.308 20.304c1.451 1.451 4.353 2.902 5.802 2.902 2.902 0 4.353-1.451 5.804-2.902 2.9-2.9 2.9-8.702 0-13.053l-53.673-53.666c-2.9-2.901-8.704-2.901-13.055 0-2.902 2.901-2.902 8.702 0 13.054l20.308 20.306-40.616 40.612c-68.179-65.269-156.666-110.232-255.306-123.286v-102.98h58.024c4.353 0 8.704-4.351 8.704-8.703s-2.902-8.703-8.704-8.703h-230.645c-4.351 0-8.704 4.351-8.704 8.703s4.353 8.703 8.704 8.703h58.024v102.98c-223.392 29.008-396.014 219.015-396.014 449.631 0 249.473 203.084 453.984 454.038 453.984s454.038-203.059 454.038-453.984c-1.451-121.835-49.32-232.067-127.652-313.292zM471.384 17.405h79.783v101.53c-13.057-1.45-26.112-2.901-39.167-2.901s-27.561 0-40.616 1.45c0 1.45 0-100.079 0-100.079zM512 1005.145c-240.8 0-435.18-195.808-435.18-435.129s195.831-435.127 435.18-435.127c240.8 0 435.181 195.806 435.181 435.127 0 240.771-195.831 435.129-435.181 435.129z"></path>
<path fill="#000" d="M271.2 317.643c-2.9-2.9-8.702-2.9-13.055 0-2.9 2.902-2.9 8.702 0 13.053l246.602 246.573c1.451 1.451 4.351 2.9 5.802 2.9 2.902 0 4.353-1.449 5.802-2.9 2.902-2.902 2.902-8.702 0-13.053l-245.151-246.573z"></path>
<path fill="#000" d="M511.637 811.472c-90.307 0-163.863-73.191-163.863-163.774 0-65.219 83.023-205.805 132.546-282.618 10.924-17.393 34.229-22.464 51.708-11.594 4.368 2.898 8.739 7.247 11.652 11.594 49.523 77.54 132.546 217.399 132.546 282.618-1.457 90.583-74.284 163.774-164.59 163.774zM511.637 377.398c-2.185 0-5.099 1.449-5.827 3.625-80.11 125.367-127.449 225.369-127.449 266.675 0 73.191 59.72 133.338 133.276 133.338 73.554 0 134.003-59.423 134.003-133.338 0-42.030-47.34-141.308-127.449-266.675-1.457-2.176-5.099-3.625-6.554-3.625z"></path>
</svg>
