<!-- Generated by IcoMoon.io -->
<svg version="1.1" xmlns="http://www.w3.org/2000/svg" width="1024" height="1024" viewBox="0 0 1024 1024">
<g id="icomoon-ignore">
</g>
<path fill="#000" d="M605.089 0c-3.58 1.19-5.967 2.381-8.353 5.952l-477.389 833.342c-1.193 2.379-1.193 3.568-1.193 5.951v166.668c0 7.144 5.967 11.906 11.935 11.906 1.193 0 3.58 0 4.774-1.193l167.086-71.428c5.967-2.379 9.548-8.334 8.354-15.474-2.387-5.955-8.354-9.527-15.515-8.334-1.193 0-1.193 1.189-2.387 1.189l-150.378 65.477v-145.239l390.268-682.149 145.601 84.525-355.654 622.622c-3.58 4.766-2.387 13.095 2.387 16.668s13.128 2.383 16.709-2.379c0-1.193 1.193-1.193 1.193-2.383l442.779-772.625c3.58-5.952 1.193-13.095-4.773-16.667l-167.085-95.239c-2.387-1.19-4.777-1.19-8.357-1.19zM612.254 28.572l145.601 83.334-68.025 119.049-145.605-84.525 68.029-117.858zM438.005 1000.007c-7.161 1.193-11.935 5.955-10.741 13.095 1.194 7.144 5.968 11.906 13.128 10.717h453.521c7.16 0 11.934-4.762 11.934-11.906s-4.773-11.906-11.934-11.906h-453.521c0 0-1.193 0-2.387 0z"></path>
</svg>
