<!-- Generated by IcoMoon.io -->
<svg version="1.1" xmlns="http://www.w3.org/2000/svg" width="1024" height="1024" viewBox="0 0 1024 1024">
<g id="icomoon-ignore">
</g>
<path fill="#000" d="M629.067 536.203v-297.341c6.534 3.133 17.586 3.906 26.399 6.638 23.528 7.288 46.919 24.035 63.235 40.96 24.237 25.135 38.883 64.597 39.858 99.943 0.412 14.995-5.595 41.987-11.436 56.922-12.326 31.528-36.192 58.609-65.514 74.262-35.57 18.989-39.478 12.348-52.544 18.615zM423.214 124.503c0-92.336 117.264-117.832 158.457-41.55 13.928 25.799 9.275 72.229 9.275 110.168l-0.052 444.792c1.569 15.869 16.701 18.017 43.892 45.057 113.967 113.337 29.715 308.144-130.248 308.144-50.871 0-91.507-21.699-123.891-54.004-81.135-80.927-67.373-209.688 20.757-275.317 24.218-18.036 21.814-10.244 21.814-59.51 13.642 0 38.122 3.922 38.122-17.79 0-21.39-20.577-20.331-38.122-20.331v-30.496c18.484 0 50.83 4.716 50.83-17.79 0-24.824-27.311-20.329-50.83-20.329v-30.496c20.127 0 38.122 3.253 38.122-20.331 0-21.494-18.126-17.79-38.122-17.79v-30.496c18.486 0 50.83 4.031 50.83-17.79 0-26.254-25.771-20.331-50.83-20.331v-30.493c31.765 0 38.122-1.78 38.122-25.416 0-17.078-27.603-12.705-38.122-12.705v-33.037c19.996 0 50.83 5.505 50.83-17.79 0-22.971-27.109-17.79-50.83-17.79v-33.037c32.933 0 38.122 1.649 38.122-22.873 0-16.33-26.858-15.249-38.122-15.249v-25.414zM385.095 627.694c-7.776 5.21-10.006 6.944-17.225 13.273-7.159 6.269-11.139 7.571-17.627 15.41-45.156 54.553-59.179 87.025-59.179 164.464 0 63.683 33.569 116.918 76.806 154.455 6.302 5.47 13.262 9.902 17.223 15.814l-218.687-0.128c-20.67-0.18-13.549-0.106-25.285 7.752-2.145-5.931 0.958-2.609-4.474-5.691-5.876-3.33-12.176-1.932-23.478-1.932-17.984 0-18.317 35.578 0 35.578 29.521 0 17.681 0.958 30.496-7.623 2.65 3.958 3.368 7.623 10.167 7.623h706.5c6.111 0 7.47-4.116 12.705-7.623 6.493 9.695 4.828 7.623 27.955 7.623 18.374 0 18.374-35.578 0-35.578-37.126 0-14.403 0.958-27.166 3.229-8.887 1.58-6.919-3.253-43.99-3.229l-198.227 0.003c5.432-8.115 9.984-9.217 17.184-15.852 79.65-73.43 101.958-184.239 46.501-276.559-9.853-16.407-18.612-26.331-30.234-40.925-5.636-7.077-11.988-10.634-18.86-16.718-21.063-18.637-17.133-2.508-17.133-61.647 0-11.524 8.546-4.828 31.446-11.758 13.328-4.034 21.47-7.028 32.963-12.779 127.794-63.95 145.421-249.906 4.749-331.8-14.414-8.39-47.063-19.788-69.161-19.788 0-62.509 7.801-122.622-33.616-164.612-72.922-73.932-176.228-30.862-200.574 37.158-15.812 44.17-9.782 118.825-9.782 178.28 0 124.524 0 249.054 0 373.582z"></path>
<path fill="#000" d="M425.758 803.051c0 26.050 4.916 50.707 26.391 67.641 35.466 27.96 75.649 28.88 111.298-1.111 43.502-36.596 35.401-142.771-61.448-142.771-39.446 0-76.241 36.643-76.241 76.241z"></path>
<path fill="#000" d="M845.084 406.597c52.427 0 78.782 7.757 78.782-22.873 0-22.608-49.594-15.249-81.323-15.249-26.617 0-25.872 38.122 2.541 38.122z"></path>
<path fill="#000" d="M809.506 282.067c10.448 0 31.593-15.427 40.66-20.329 19.136-10.35 33.037-14.698 33.037-30.499 0-35.010-39.689-9.436-47.781-4.577-8.65 5.191-17.577 10.263-25.962 14.701-8.273 4.378-17.848 9.236-19.223 21.068-1.288 11.079 6.854 19.635 19.267 19.635z"></path>
<path fill="#000" d="M789.175 510.792c0 17.217 22.258 23.765 33.184 30.351 8.966 5.407 31.205 20.476 43.057 20.476 8.614 0 17.79-9.176 17.79-17.79 0-13.527-21.287-23.203-31.596-29.399-12.823-7.708-30.81-21.429-44.645-21.429-10.806 0-17.79 7.899-17.79 17.79z"></path>
<path fill="#000" d="M700.226 167.709c0 24.273 8.499 22.87 22.873 22.87 13.126 0 45.745-71.159 45.745-71.159 0-18.336-12.52-20.329-22.873-20.329-14.127 0-45.745 68.61-45.745 68.618z"></path>
<path fill="#000" d="M700.226 602.28c0 2.279 30.774 73.7 48.286 73.7 10.877 0 20.331-7.833 20.331-17.788 0-5.429-30.826-71.213-47.123-74.863-11.775-2.639-21.494 5.827-21.494 18.95z"></path>
</svg>
