<svg width="20" height="40" viewBox="0 0 20 40" fill="none" xmlns="http://www.w3.org/2000/svg">
<path d="M15.35 19.583V34.6032C15.0734 41.7989 4.90642 41.7989 4.62977 34.6032V26.9184C4.62977 26.0103 6.01302 26.0103 6.01302 26.9184V34.6032C6.01302 36.8388 7.81126 38.6552 10.0245 38.6552C12.2377 38.6552 13.9668 36.8388 13.9668 34.6032V19.1638C13.9668 18.8844 14.1051 18.6748 14.3126 18.5351C21.9205 14.0639 18.8081 2.32723 10.0245 2.25737C5.25223 2.32723 1.37911 6.23947 1.37911 11.0599C1.37911 14.1338 3.03902 17.068 5.73637 18.6049C5.94386 18.7447 6.08219 18.9542 6.08219 19.2337V23.2857C6.08219 24.1939 4.69893 24.1939 4.69893 23.2857V19.583C-3.8081 14.1338 -0.00414467 0.93 10.0245 0.93C19.9839 0.93 23.7879 14.1338 15.35 19.583Z" fill="#192646"/>
<path d="M11.5461 21.3295C11.961 21.3295 12.2377 21.609 12.2377 22.0282V34.4635C12.2377 34.8827 11.961 35.1621 11.5461 35.1621H8.43372C8.01875 35.1621 7.74209 34.8827 7.74209 34.4635V17.6269C4.97558 16.6488 3.03902 13.9941 3.03902 11.0599C3.38484 1.76834 16.4566 1.76834 16.8716 11.0599C16.8716 14.064 15.0042 16.7187 12.1685 17.6269V18.5351C12.1685 19.4433 10.7853 19.4433 10.7853 18.5351V17.068C10.7853 16.7187 10.9927 16.4392 11.2694 16.3694C17.4941 14.6228 16.3183 5.471 9.88614 5.40114C6.84298 5.40114 4.35312 7.91615 4.35312 10.99C4.35312 13.5051 6.08219 15.7406 8.50288 16.3694C8.77954 16.4392 9.05619 16.7187 9.05619 17.068V33.7649H10.7853V22.0282C10.8544 21.609 11.2002 21.3295 11.5461 21.3295Z" fill="#192646"/>
</svg>
