<svg width="45" height="45" viewBox="0 0 45 45" fill="none" xmlns="http://www.w3.org/2000/svg">
<circle cx="22.5378" cy="22.6423" r="21.1509" stroke="#192646" stroke-width="1.43396"/>
<path d="M8.13997 23.5628V23.5617L8.12738 23.5638C7.88282 23.6052 7.76435 23.8135 7.76435 24.0107C7.76435 24.1263 7.83221 24.2223 7.91443 24.2862C7.99694 24.3502 8.10461 24.3909 8.20667 24.3909H31.1834C33.7084 24.3909 35.7766 26.489 35.7766 29.0555C35.7766 31.6222 33.7414 33.72 31.1834 33.72C28.6254 33.72 26.5902 31.6222 26.5902 29.0555C26.5902 28.9371 26.551 28.8324 26.4768 28.757C26.4024 28.6815 26.2987 28.6414 26.1812 28.6414C26.0636 28.6414 25.96 28.6815 25.8856 28.757C25.8114 28.8324 25.7722 28.9371 25.7722 29.0555C25.7722 32.0755 28.206 34.5481 31.1834 34.5481C34.1608 34.5481 36.5945 32.0755 36.5945 29.0555C36.5945 26.0354 34.1608 23.5628 31.1834 23.5628H8.20667H8.20666H8.20665H8.20664H8.20663H8.20662H8.20662H8.20661H8.2066H8.20659H8.20657H8.20656H8.20655H8.20653H8.20652H8.2065H8.20649H8.20647H8.20645H8.20644H8.20642H8.2064H8.20638H8.20636H8.20633H8.20631H8.20629H8.20626H8.20624H8.20621H8.20619H8.20616H8.20613H8.20611H8.20608H8.20605H8.20602H8.20598H8.20595H8.20592H8.20589H8.20585H8.20582H8.20578H8.20575H8.20571H8.20567H8.20564H8.2056H8.20556H8.20552H8.20548H8.20544H8.20539H8.20535H8.20531H8.20526H8.20522H8.20517H8.20513H8.20508H8.20503H8.20498H8.20494H8.20489H8.20484H8.20479H8.20473H8.20468H8.20463H8.20458H8.20452H8.20447H8.20441H8.20436H8.2043H8.20424H8.20418H8.20413H8.20407H8.20401H8.20395H8.20388H8.20382H8.20376H8.2037H8.20363H8.20357H8.2035H8.20344H8.20337H8.20331H8.20324H8.20317H8.2031H8.20303H8.20296H8.20289H8.20282H8.20275H8.20268H8.20261H8.20253H8.20246H8.20238H8.20231H8.20223H8.20216H8.20208H8.202H8.20192H8.20184H8.20177H8.20169H8.2016H8.20152H8.20144H8.20136H8.20128H8.20119H8.20111H8.20102H8.20094H8.20085H8.20077H8.20068H8.20059H8.2005H8.20042H8.20033H8.20024H8.20015H8.20006H8.19996H8.19987H8.19978H8.19969H8.19959H8.1995H8.1994H8.19931H8.19921H8.19912H8.19902H8.19892H8.19882H8.19873H8.19863H8.19853H8.19843H8.19833H8.19823H8.19812H8.19802H8.19792H8.19782H8.19771H8.19761H8.1975H8.1974H8.19729H8.19718H8.19708H8.19697H8.19686H8.19675H8.19664H8.19654H8.19643H8.19631H8.1962H8.19609H8.19598H8.19587H8.19575H8.19564H8.19553H8.19541H8.1953H8.19518H8.19507H8.19495H8.19483H8.19472H8.1946H8.19448H8.19436H8.19424H8.19412H8.194H8.19388H8.19376H8.19364H8.19352H8.19339H8.19327H8.19315H8.19302H8.1929H8.19277H8.19265H8.19252H8.1924H8.19227H8.19214H8.19201H8.19189H8.19176H8.19163H8.1915H8.19137H8.19124H8.19111H8.19098H8.19085H8.19071H8.19058H8.19045H8.19031H8.19018H8.19005H8.18991H8.18978H8.18964H8.18951H8.18937H8.18923H8.18909H8.18896H8.18882H8.18868H8.18854H8.1884H8.18826H8.18812H8.18798H8.18784H8.1877H8.18756H8.18742H8.18727H8.18713H8.18699H8.18684H8.1867H8.18656H8.18641H8.18627H8.18612H8.18597H8.18583H8.18568H8.18553H8.18539H8.18524H8.18509H8.18494H8.18479H8.18464H8.18449H8.18434H8.18419H8.18404H8.18389H8.18374H8.18359H8.18344H8.18328H8.18313H8.18298H8.18282H8.18267H8.18251H8.18236H8.1822H8.18205H8.18189H8.18174H8.18158H8.18142H8.18127H8.18111H8.18095H8.18079H8.18063H8.18048H8.18032H8.18016H8.18H8.17984H8.17968H8.17952H8.17936H8.17919H8.17903H8.17887H8.17871H8.17854H8.17838H8.17822H8.17805H8.17789H8.17773H8.17756H8.1774H8.17723H8.17707H8.1769H8.17674H8.17657H8.1764H8.17624H8.17607H8.1759H8.17573H8.17556H8.1754H8.17523H8.17506H8.17489H8.17472H8.17455H8.17438H8.17421H8.17404H8.17387H8.1737H8.17353H8.17335H8.17318H8.17301H8.17284H8.17267H8.17249H8.17232H8.17215H8.17197H8.1718H8.17162H8.17145H8.17127H8.1711H8.17092H8.17075H8.17057H8.1704H8.17022H8.17004H8.16987H8.16969H8.16951H8.16934H8.16916H8.16898H8.1688H8.16862H8.16845H8.16827H8.16809H8.16791H8.16773H8.16755H8.16737H8.16719H8.16701H8.16683H8.16665H8.16647H8.16629H8.16611H8.16592H8.16574H8.16556H8.16538H8.1652H8.16501H8.16483H8.16465H8.16446H8.16428H8.1641H8.16391H8.16373H8.16355H8.16336H8.16318H8.16299H8.16281H8.16262H8.16244H8.16225H8.16207H8.16188H8.1617H8.16151H8.16132H8.16114H8.16095H8.16076H8.16058H8.16039H8.1602H8.16002H8.15983H8.15964H8.15945H8.15927H8.15908H8.15889H8.1587H8.15851H8.15832H8.15814H8.15795H8.15776H8.15757H8.15738H8.15719H8.157H8.15681H8.15662H8.15643H8.15624H8.15605H8.15586H8.15567H8.15548H8.15529H8.1551H8.15491H8.15472H8.15452H8.15433H8.15414H8.15395H8.15376H8.15357H8.15338H8.15318H8.15299H8.1528H8.15261H8.15242H8.15222H8.15203H8.15184H8.15165H8.15145H8.15126H8.15107H8.15087H8.15068H8.15049H8.15029H8.1501H8.14991H8.14971H8.14952H8.14933H8.14913H8.14894H8.14875H8.14855H8.14836H8.14816H8.14797H8.14777H8.14758H8.14739H8.14719H8.147H8.1468H8.14661H8.14641H8.14622H8.14602H8.14583H8.14564H8.14544H8.14525H8.14505H8.14486H8.14466H8.14447H8.14427H8.14408H8.14388H8.14369H8.14349H8.1433H8.1431H8.14291H8.14271H8.14251H8.14232H8.14212H8.14193H8.14173H8.14154H8.14134H8.14115H8.14095H8.14076H8.14056H8.14037H8.14017H8.13997ZM9.47389 26.2714V26.2703L9.4613 26.2724C9.21674 26.3138 9.09827 26.5221 9.09827 26.7193H9.09726L9.09926 26.7315C9.1397 26.9779 9.34412 27.0995 9.54059 27.0995H18.878C20.3723 27.0995 21.5704 28.2865 21.5704 29.6987C21.5704 31.1442 20.3729 32.298 18.878 32.298C17.3837 32.298 16.1856 31.111 16.1856 29.6987C16.1856 29.5803 16.1465 29.4757 16.0722 29.4003C15.9979 29.3248 15.8942 29.2847 15.7766 29.2847C15.6591 29.2847 15.5554 29.3248 15.4811 29.4003C15.4068 29.4757 15.3677 29.5803 15.3677 29.6987C15.3677 31.6049 16.9712 33.1261 18.878 33.1261C20.7848 33.1261 22.3883 31.6049 22.3883 29.6987C22.3883 27.7926 20.7848 26.2714 18.878 26.2714H9.54059H9.54057H9.54055H9.54053H9.54051H9.54049H9.54046H9.54044H9.54042H9.54041H9.54039H9.54037H9.54035H9.54033H9.54031H9.54029H9.54027H9.54025H9.54023H9.5402H9.54018H9.54016H9.54013H9.5401H9.54008H9.54005H9.54002H9.53999H9.53996H9.53993H9.5399H9.53987H9.53984H9.5398H9.53977H9.53974H9.5397H9.53966H9.53963H9.53959H9.53955H9.53951H9.53947H9.53943H9.53939H9.53935H9.53931H9.53927H9.53922H9.53918H9.53913H9.53909H9.53904H9.539H9.53895H9.5389H9.53885H9.5388H9.53875H9.5387H9.53865H9.5386H9.53855H9.53849H9.53844H9.53838H9.53833H9.53827H9.53822H9.53816H9.5381H9.53804H9.53798H9.53792H9.53786H9.5378H9.53774H9.53768H9.53761H9.53755H9.53749H9.53742H9.53736H9.53729H9.53722H9.53716H9.53709H9.53702H9.53695H9.53688H9.53681H9.53674H9.53667H9.5366H9.53652H9.53645H9.53637H9.5363H9.53622H9.53615H9.53607H9.536H9.53592H9.53584H9.53576H9.53568H9.5356H9.53552H9.53544H9.53536H9.53528H9.53519H9.53511H9.53503H9.53494H9.53486H9.53477H9.53468H9.5346H9.53451H9.53442H9.53433H9.53424H9.53415H9.53406H9.53397H9.53388H9.53379H9.5337H9.5336H9.53351H9.53342H9.53332H9.53323H9.53313H9.53303H9.53294H9.53284H9.53274H9.53264H9.53254H9.53244H9.53234H9.53224H9.53214H9.53204H9.53194H9.53183H9.53173H9.53163H9.53152H9.53142H9.53131H9.53121H9.5311H9.53099H9.53089H9.53078H9.53067H9.53056H9.53045H9.53034H9.53023H9.53012H9.53001H9.5299H9.52978H9.52967H9.52956H9.52944H9.52933H9.52921H9.5291H9.52898H9.52887H9.52875H9.52863H9.52851H9.5284H9.52828H9.52816H9.52804H9.52792H9.5278H9.52768H9.52755H9.52743H9.52731H9.52719H9.52706H9.52694H9.52681H9.52669H9.52656H9.52644H9.52631H9.52619H9.52606H9.52593H9.5258H9.52567H9.52554H9.52542H9.52529H9.52516H9.52502H9.52489H9.52476H9.52463H9.5245H9.52436H9.52423H9.5241H9.52396H9.52383H9.52369H9.52356H9.52342H9.52329H9.52315H9.52301H9.52287H9.52274H9.5226H9.52246H9.52232H9.52218H9.52204H9.5219H9.52176H9.52162H9.52148H9.52133H9.52119H9.52105H9.5209H9.52076H9.52062H9.52047H9.52033H9.52018H9.52004H9.51989H9.51974H9.5196H9.51945H9.5193H9.51916H9.51901H9.51886H9.51871H9.51856H9.51841H9.51826H9.51811H9.51796H9.51781H9.51766H9.5175H9.51735H9.5172H9.51705H9.51689H9.51674H9.51659H9.51643H9.51628H9.51612H9.51597H9.51581H9.51565H9.5155H9.51534H9.51518H9.51503H9.51487H9.51471H9.51455H9.51439H9.51423H9.51407H9.51391H9.51375H9.51359H9.51343H9.51327H9.51311H9.51295H9.51279H9.51262H9.51246H9.5123H9.51214H9.51197H9.51181H9.51164H9.51148H9.51131H9.51115H9.51098H9.51082H9.51065H9.51049H9.51032H9.51015H9.50998H9.50982H9.50965H9.50948H9.50931H9.50914H9.50898H9.50881H9.50864H9.50847H9.5083H9.50813H9.50796H9.50779H9.50761H9.50744H9.50727H9.5071H9.50693H9.50675H9.50658H9.50641H9.50624H9.50606H9.50589H9.50571H9.50554H9.50537H9.50519H9.50502H9.50484H9.50467H9.50449H9.50431H9.50414H9.50396H9.50378H9.50361H9.50343H9.50325H9.50308H9.5029H9.50272H9.50254H9.50236H9.50218H9.502H9.50183H9.50165H9.50147H9.50129H9.50111H9.50093H9.50075H9.50057H9.50038H9.5002H9.50002H9.49984H9.49966H9.49948H9.49929H9.49911H9.49893H9.49875H9.49856H9.49838H9.4982H9.49801H9.49783H9.49765H9.49746H9.49728H9.49709H9.49691H9.49673H9.49654H9.49636H9.49617H9.49598H9.4958H9.49561H9.49543H9.49524H9.49505H9.49487H9.49468H9.49449H9.49431H9.49412H9.49393H9.49375H9.49356H9.49337H9.49318H9.49299H9.49281H9.49262H9.49243H9.49224H9.49205H9.49186H9.49167H9.49149H9.4913H9.49111H9.49092H9.49073H9.49054H9.49035H9.49016H9.48997H9.48978H9.48959H9.4894H9.48921H9.48901H9.48882H9.48863H9.48844H9.48825H9.48806H9.48787H9.48768H9.48748H9.48729H9.4871H9.48691H9.48672H9.48652H9.48633H9.48614H9.48595H9.48575H9.48556H9.48537H9.48518H9.48498H9.48479H9.4846H9.4844H9.48421H9.48402H9.48382H9.48363H9.48344H9.48324H9.48305H9.48286H9.48266H9.48247H9.48227H9.48208H9.48189H9.48169H9.4815H9.4813H9.48111H9.48091H9.48072H9.48053H9.48033H9.48014H9.47994H9.47975H9.47955H9.47936H9.47916H9.47897H9.47877H9.47858H9.47838H9.47819H9.47799H9.4778H9.4776H9.47741H9.47721H9.47702H9.47682H9.47663H9.47643H9.47624H9.47604H9.47585H9.47565H9.47545H9.47526H9.47506H9.47487H9.47467H9.47448H9.47428H9.47409H9.47389ZM22.2128 10.0198C19.2354 10.0198 16.8016 12.4924 16.8016 15.5125C16.8016 15.6309 16.8408 15.7356 16.915 15.8109C16.9894 15.8864 17.0931 15.9266 17.2106 15.9266C17.3282 15.9266 17.4318 15.8864 17.5062 15.8109C17.5804 15.7356 17.6196 15.6309 17.6196 15.5125C17.6196 12.9457 19.6548 10.848 22.2128 10.848C24.7708 10.848 26.806 12.9457 26.806 15.5125C26.806 18.0793 24.7708 20.177 22.2128 20.177H9.54059C9.42304 20.177 9.31938 20.2172 9.24503 20.2927C9.17078 20.368 9.13162 20.4727 9.13162 20.5911C9.13162 20.7095 9.17078 20.8142 9.24503 20.8895C9.31938 20.965 9.42304 21.0052 9.54059 21.0052H22.1794C25.1568 21.0052 27.5906 18.5326 27.5906 15.5125C27.5906 12.4931 25.1908 10.0198 22.2128 10.0198Z" fill="#192646" stroke="#192646" stroke-width="0.150985"/>
</svg>
