<!-- Generated by IcoMoon.io -->
<svg version="1.1" xmlns="http://www.w3.org/2000/svg" width="1024" height="1024" viewBox="0 0 1024 1024">
<g id="icomoon-ignore">
</g>
<path fill="#000" d="M1016.705 199.058c-62.755-44.162-162.026-48.811-267 16.271 5.705-13.946 9.127-27.892 12.549-41.838 11.412-45.325-1.14-94.136-33.089-127.839-6.847-6.973-18.257-6.973-25.104 0-3.422 3.487-5.705 8.135-5.705 12.784s2.282 9.297 5.705 12.784c22.822 26.73 30.809 62.757 21.682 96.46-4.565 22.081-12.552 44.163-22.822 63.919-7.987-30.216-23.962-56.946-45.641-79.028-3.425-3.486-7.987-5.811-12.552-5.811s-9.127 2.324-12.552 5.811c-6.845 6.973-6.845 18.595 0 25.568 29.666 30.216 43.361 68.568 35.374 92.974l-49.066-51.136c-31.949-32.541-75.307-49.973-119.808-46.487-41.079 3.486-78.732 24.406-103.834 58.108l-367.414 509.031c-42.218 61.596-35.372 145.273 18.257 197.57 29.667 29.055 69.603 46.487 110.68 45.325 30.808 0 60.475-9.3 85.578-27.893l3.423-3.487c3.423-1.161 5.705-2.323 7.987-4.648 1.141-1.161 1.141-2.323 2.282-3.487l484.939-362.596c33.091-25.57 53.628-63.922 57.053-105.76 3.422-45.323-13.692-90.648-45.643-122.026l-47.923-48.812c77.592-32.541 141.49-29.054 205.387 13.945 2.282 2.326 5.705 2.326 9.127 2.326 7.987 0 14.835-5.81 17.117-12.784 2.282-8.135-1.143-16.271-7.987-20.919-49.066-33.703-109.541-47.649-167.734-38.351 94.707-60.433 183.708-58.109 236.196-22.081 3.422 2.324 9.127 3.487 13.692 3.487 4.562-1.162 9.127-3.487 11.41-8.135s3.422-9.297 2.282-13.946c1.14-2.324-2.282-6.973-6.847-9.297zM761.115 473.331c-2.282 31.378-17.117 60.432-42.218 79.029l-173.436 130.161-103.836-105.758c-3.422-3.484-7.987-5.81-12.549-5.81-4.565 0-9.13 2.326-12.552 5.81-6.847 6.974-6.847 18.596 0 25.568l100.411 102.273-277.272 206.867-70.744-72.055c-6.846-6.974-18.257-6.974-25.103 0-6.846 6.971-6.846 18.594 0 25.568l67.321 68.568c-45.641 26.729-102.693 18.594-139.206-19.758-41.077-39.513-46.782-103.432-14.833-151.083l107.257-147.596 84.436 86.003c3.423 3.487 7.987 5.81 12.552 5.81s9.129-2.323 12.551-5.81c6.847-6.974 6.847-18.596 0-25.568l-89-90.651 203.104-281.245 115.246 118.542c6.845 6.971 18.257 6.971 25.101 0 6.847-6.974 6.847-18.596 0-25.568l-119.808-122.029 14.832-20.919c18.257-25.568 46.783-40.676 77.592-43 34.231-2.324 68.462 10.46 92.424 36.027l132.36 133.65c25.101 24.406 37.654 58.109 35.371 92.974z"></path>
</svg>
