<svg width="47" height="59" viewBox="0 0 47 59" fill="none" xmlns="http://www.w3.org/2000/svg">
<mask id="path-1-outside-1_1_1123" maskUnits="userSpaceOnUse" x="0" y="0" width="47" height="59" fill="black">
<rect fill="white" width="47" height="59"/>
<path d="M45.916 31.1528C45.916 31.0721 45.916 31.0721 45.916 30.9915C45.916 30.5884 45.8321 30.1047 45.7481 29.7016V29.6209C44.6567 23.0099 39.8713 17.2857 33.0709 14.4639C29.3769 12.8515 26.9422 7.93352 26.7743 4.22489C26.7743 4.06365 26.7743 1.88685 26.7743 1.56436C26.7743 1.24187 26.5224 1 26.1866 1H21.0653C20.5616 1 20.3097 1.24187 20.3097 1.56436C20.3097 1.88685 20.3097 4.06365 20.3097 4.22489C20.1418 7.93352 17.6231 12.9321 13.9291 14.4639C13.4254 14.6252 13.0056 14.867 12.5019 15.1089C5.8694 18.4144 1.58769 24.2999 1.08396 31.0721C1 31.5559 1 32.0396 1 32.5233C1 43.1655 10.403 51.8727 22.2407 52.4371L19.0504 56.1457L19.9739 56.8713L22.9123 53.4851V58H24.1716V53.5658L27.0261 56.8713L27.9496 56.1457L24.7593 52.4371C28.1175 52.2758 31.3078 51.4696 34.0784 50.099C41.1306 46.7129 46 40.1018 46 32.5233C45.916 32.0396 45.916 31.6365 45.916 31.1528ZM35.2537 48.0835C35.4216 47.8416 35.5896 47.5997 35.6735 47.2772C35.7575 47.0354 35.9254 46.8741 36.0093 46.6322C36.2612 46.0679 36.597 45.5035 36.8489 45.0198C37.1847 44.2136 37.5205 43.4074 37.8563 42.6818C37.9403 42.3593 38.1082 42.1174 38.1922 41.7949L37.0168 41.3112C36.9328 41.6337 36.8489 41.8755 36.681 42.198C36.4291 42.9236 36.0933 43.7298 35.7575 44.4554C35.5056 45.0198 35.2537 45.5035 35.0019 46.0679C34.9179 46.3098 34.75 46.471 34.666 46.7129C34.2463 47.5191 33.7425 48.3253 33.2388 49.1315C31.3918 50.0184 29.2929 50.5827 27.1101 50.9052C27.278 50.4215 27.5299 49.9378 27.6978 49.5347C27.8657 49.1315 28.0336 48.7284 28.2015 48.2447L28.3694 47.761C28.4534 47.5191 28.5373 47.2772 28.6213 47.116L27.4459 46.7935C27.3619 47.0354 27.278 47.1966 27.194 47.4385L27.0261 47.8416C26.8582 48.2447 26.6903 48.6478 26.6063 49.0509C26.3545 49.6153 26.1026 50.2603 25.8507 50.8246L26.1866 50.9859C25.347 51.0665 24.4235 51.1471 23.5 51.1471C22.7444 51.1471 22.0728 51.1471 21.4011 51.0665L21.9049 50.8246C21.653 50.2603 21.4011 49.6153 21.1493 49.0509C20.8974 48.2447 20.5616 47.5191 20.3097 46.7129L19.1343 47.0354C19.3862 47.8416 19.6381 48.6478 19.9739 49.3734C20.1418 49.8571 20.3937 50.3409 20.5616 50.9052C18.3787 50.6634 16.2799 50.099 14.4328 49.2928C13.5093 47.9222 12.7537 46.5516 12.0821 45.181C11.7463 44.5361 11.4944 43.8911 11.1586 43.2461C10.7388 42.3593 10.403 41.3918 10.1511 40.505C9.98321 39.9406 9.8153 39.3762 9.64739 38.7313C9.47948 37.925 9.22761 37.0382 9.14366 36.232C9.0597 35.7482 8.97575 35.3451 8.97575 34.8614L7.71642 35.1839C7.80037 35.6676 7.80037 36.1513 7.88433 36.6351C8.05224 37.5219 8.22015 38.3282 8.38806 39.215C8.55597 39.7794 8.72388 40.4243 8.89179 40.9887C9.22761 41.9562 9.56343 42.9236 9.98321 43.8105C10.2351 44.4554 10.5709 45.181 10.9067 45.826C11.3265 46.7129 11.8302 47.5997 12.334 48.4866C6.28918 45.181 2.25933 39.2956 2.25933 32.5233C2.25933 32.0396 2.25933 31.6365 2.34328 31.1528C2.84702 25.1867 6.54104 19.785 12.25 16.6407C11.4104 17.9307 10.2351 19.9463 9.31157 22.5262C9.0597 23.1711 8.89179 23.8161 8.63993 24.5417L9.8153 24.8642C9.98321 24.2192 10.2351 23.5743 10.403 22.9293C11.9981 18.4951 14.3489 15.8345 14.3489 15.7539L14.181 15.6733C14.181 15.6733 14.2649 15.6733 14.2649 15.5926C14.6847 15.4314 15.1045 15.2702 15.5243 15.1089C15.944 14.9477 16.4478 14.7864 16.8675 14.7058C17.5392 14.4639 18.2948 14.3027 19.0504 14.2221L19.3022 14.1414C19.5541 14.0608 19.8899 14.0608 20.1418 13.9802H20.2257L20.0578 12.7709H19.8899C19.5541 12.7709 19.3022 12.8515 19.0504 12.9321L18.7985 13.0127C18.3787 13.0934 17.875 13.174 17.4552 13.3352C19.806 10.8359 21.2332 7.28854 21.4011 4.38614C21.4011 4.22489 21.4011 3.01556 21.4011 2.28996H25.347C25.347 3.01556 25.347 4.22489 25.347 4.38614C25.5149 7.28854 26.9422 10.9165 29.2929 13.3352C28.9571 13.2546 28.6213 13.174 28.2015 13.0934C27.6978 13.0127 27.278 12.9321 26.7743 12.8515L26.6063 14.0608C27.0261 14.1414 27.5299 14.2221 27.9496 14.3027C28.2854 14.3833 28.6213 14.4639 28.9571 14.5446C30.1325 14.867 31.3078 15.1895 32.3993 15.6733H32.4832C32.6511 15.7539 32.819 15.8345 32.9869 15.9151C33.1549 16.157 34.0784 17.2857 35.0858 19.0594C35.5056 19.8656 35.9254 20.5912 36.2612 21.4781C36.5131 21.9618 36.681 22.5262 36.8489 23.0099L38.0243 22.6068C37.8563 22.0424 37.6045 21.5587 37.3526 20.9943C37.0168 20.1075 36.597 19.3013 36.0933 18.4951C35.8414 18.0113 35.5056 17.5276 35.3377 17.1245C40.2071 20.1075 43.4813 24.703 44.3209 29.8628V29.9434C44.4049 30.3465 44.4049 30.7496 44.4888 31.1528C44.4888 31.2334 44.4888 31.2334 44.4888 31.314C44.4888 31.7171 44.5728 32.1202 44.5728 32.5233C44.6567 38.9731 40.9627 44.6973 35.2537 48.0835Z"/>
<path d="M28.7892 41.3918C28.7052 41.6337 28.7052 41.9562 28.6213 42.198C28.5373 42.4399 28.5373 42.6818 28.4534 43.0042L29.6287 43.2461C29.7127 43.0042 29.7966 42.6818 29.7966 42.4399C29.8806 42.198 29.8806 41.8755 29.9646 41.6337C30.0485 41.3918 30.0485 41.1499 30.1325 40.9081L28.8731 40.6662C28.8731 40.9081 28.7892 41.1499 28.7892 41.3918Z"/>
<path d="M30.4683 24.7836C30.1325 22.768 29.7127 20.7525 29.125 18.8982L27.9496 19.2207C28.5373 21.075 28.9571 23.0099 29.209 24.9448C29.3769 26.1542 29.5448 27.3635 29.6287 28.5728C29.7127 29.9434 29.7966 31.2334 29.7127 32.604H30.972C30.972 31.2334 30.972 29.8628 30.8881 28.4922C30.8041 27.2023 30.6362 25.9929 30.4683 24.7836Z"/>
<path d="M38.3601 35.9095C38.3601 36.232 38.2761 36.4738 38.1922 36.7963L39.4515 36.9576C39.5354 36.6351 39.5354 36.3126 39.6194 36.0707C39.7034 35.3451 39.7873 34.5389 39.8713 33.7327L38.6119 33.6521C38.528 34.4583 38.444 35.1839 38.3601 35.9095Z"/>
<path d="M7.54851 30.9915L8.80784 31.0721C8.80784 30.5078 8.89179 29.9434 8.97575 29.2984L7.71642 29.2178C7.63246 29.7822 7.63246 30.4272 7.54851 30.9915Z"/>
<path d="M18.7985 41.0693L17.6231 41.3112L17.7071 41.7143C17.791 42.1174 17.875 42.6011 17.959 43.0042L19.1343 42.7624C19.0504 42.3593 18.9664 41.8755 18.8825 41.4724L18.7985 41.0693Z"/>
<path d="M17.959 34.3777C17.875 33.4908 17.875 32.604 17.875 31.7171C17.875 30.8303 17.875 30.024 17.959 29.1372C18.0429 28.331 18.0429 27.6054 18.1269 26.7992C18.2108 25.9123 18.3787 25.0255 18.4627 24.2192L17.2034 24.058C17.0354 24.9448 16.9515 25.8317 16.7836 26.7185C16.6996 27.5248 16.6157 28.331 16.6157 29.0566C16.5317 29.9434 16.5317 30.8303 16.5317 31.6365C16.5317 32.5233 16.5317 33.4908 16.6157 34.3777C16.6996 35.2645 16.6996 36.0707 16.7836 36.9576L18.0429 36.7963C18.0429 35.9901 17.959 35.1839 17.959 34.3777Z"/>
<path d="M18.2948 19.6238L19.4701 19.9463C19.6381 19.2207 19.8899 18.5757 20.1418 17.8501L18.9664 17.447C18.7146 18.1726 18.5466 18.8982 18.2948 19.6238Z"/>
</mask>
<path d="M45.916 31.1528C45.916 31.0721 45.916 31.0721 45.916 30.9915C45.916 30.5884 45.8321 30.1047 45.7481 29.7016V29.6209C44.6567 23.0099 39.8713 17.2857 33.0709 14.4639C29.3769 12.8515 26.9422 7.93352 26.7743 4.22489C26.7743 4.06365 26.7743 1.88685 26.7743 1.56436C26.7743 1.24187 26.5224 1 26.1866 1H21.0653C20.5616 1 20.3097 1.24187 20.3097 1.56436C20.3097 1.88685 20.3097 4.06365 20.3097 4.22489C20.1418 7.93352 17.6231 12.9321 13.9291 14.4639C13.4254 14.6252 13.0056 14.867 12.5019 15.1089C5.8694 18.4144 1.58769 24.2999 1.08396 31.0721C1 31.5559 1 32.0396 1 32.5233C1 43.1655 10.403 51.8727 22.2407 52.4371L19.0504 56.1457L19.9739 56.8713L22.9123 53.4851V58H24.1716V53.5658L27.0261 56.8713L27.9496 56.1457L24.7593 52.4371C28.1175 52.2758 31.3078 51.4696 34.0784 50.099C41.1306 46.7129 46 40.1018 46 32.5233C45.916 32.0396 45.916 31.6365 45.916 31.1528ZM35.2537 48.0835C35.4216 47.8416 35.5896 47.5997 35.6735 47.2772C35.7575 47.0354 35.9254 46.8741 36.0093 46.6322C36.2612 46.0679 36.597 45.5035 36.8489 45.0198C37.1847 44.2136 37.5205 43.4074 37.8563 42.6818C37.9403 42.3593 38.1082 42.1174 38.1922 41.7949L37.0168 41.3112C36.9328 41.6337 36.8489 41.8755 36.681 42.198C36.4291 42.9236 36.0933 43.7298 35.7575 44.4554C35.5056 45.0198 35.2537 45.5035 35.0019 46.0679C34.9179 46.3098 34.75 46.471 34.666 46.7129C34.2463 47.5191 33.7425 48.3253 33.2388 49.1315C31.3918 50.0184 29.2929 50.5827 27.1101 50.9052C27.278 50.4215 27.5299 49.9378 27.6978 49.5347C27.8657 49.1315 28.0336 48.7284 28.2015 48.2447L28.3694 47.761C28.4534 47.5191 28.5373 47.2772 28.6213 47.116L27.4459 46.7935C27.3619 47.0354 27.278 47.1966 27.194 47.4385L27.0261 47.8416C26.8582 48.2447 26.6903 48.6478 26.6063 49.0509C26.3545 49.6153 26.1026 50.2603 25.8507 50.8246L26.1866 50.9859C25.347 51.0665 24.4235 51.1471 23.5 51.1471C22.7444 51.1471 22.0728 51.1471 21.4011 51.0665L21.9049 50.8246C21.653 50.2603 21.4011 49.6153 21.1493 49.0509C20.8974 48.2447 20.5616 47.5191 20.3097 46.7129L19.1343 47.0354C19.3862 47.8416 19.6381 48.6478 19.9739 49.3734C20.1418 49.8571 20.3937 50.3409 20.5616 50.9052C18.3787 50.6634 16.2799 50.099 14.4328 49.2928C13.5093 47.9222 12.7537 46.5516 12.0821 45.181C11.7463 44.5361 11.4944 43.8911 11.1586 43.2461C10.7388 42.3593 10.403 41.3918 10.1511 40.505C9.98321 39.9406 9.8153 39.3762 9.64739 38.7313C9.47948 37.925 9.22761 37.0382 9.14366 36.232C9.0597 35.7482 8.97575 35.3451 8.97575 34.8614L7.71642 35.1839C7.80037 35.6676 7.80037 36.1513 7.88433 36.6351C8.05224 37.5219 8.22015 38.3282 8.38806 39.215C8.55597 39.7794 8.72388 40.4243 8.89179 40.9887C9.22761 41.9562 9.56343 42.9236 9.98321 43.8105C10.2351 44.4554 10.5709 45.181 10.9067 45.826C11.3265 46.7129 11.8302 47.5997 12.334 48.4866C6.28918 45.181 2.25933 39.2956 2.25933 32.5233C2.25933 32.0396 2.25933 31.6365 2.34328 31.1528C2.84702 25.1867 6.54104 19.785 12.25 16.6407C11.4104 17.9307 10.2351 19.9463 9.31157 22.5262C9.0597 23.1711 8.89179 23.8161 8.63993 24.5417L9.8153 24.8642C9.98321 24.2192 10.2351 23.5743 10.403 22.9293C11.9981 18.4951 14.3489 15.8345 14.3489 15.7539L14.181 15.6733C14.181 15.6733 14.2649 15.6733 14.2649 15.5926C14.6847 15.4314 15.1045 15.2702 15.5243 15.1089C15.944 14.9477 16.4478 14.7864 16.8675 14.7058C17.5392 14.4639 18.2948 14.3027 19.0504 14.2221L19.3022 14.1414C19.5541 14.0608 19.8899 14.0608 20.1418 13.9802H20.2257L20.0578 12.7709H19.8899C19.5541 12.7709 19.3022 12.8515 19.0504 12.9321L18.7985 13.0127C18.3787 13.0934 17.875 13.174 17.4552 13.3352C19.806 10.8359 21.2332 7.28854 21.4011 4.38614C21.4011 4.22489 21.4011 3.01556 21.4011 2.28996H25.347C25.347 3.01556 25.347 4.22489 25.347 4.38614C25.5149 7.28854 26.9422 10.9165 29.2929 13.3352C28.9571 13.2546 28.6213 13.174 28.2015 13.0934C27.6978 13.0127 27.278 12.9321 26.7743 12.8515L26.6063 14.0608C27.0261 14.1414 27.5299 14.2221 27.9496 14.3027C28.2854 14.3833 28.6213 14.4639 28.9571 14.5446C30.1325 14.867 31.3078 15.1895 32.3993 15.6733H32.4832C32.6511 15.7539 32.819 15.8345 32.9869 15.9151C33.1549 16.157 34.0784 17.2857 35.0858 19.0594C35.5056 19.8656 35.9254 20.5912 36.2612 21.4781C36.5131 21.9618 36.681 22.5262 36.8489 23.0099L38.0243 22.6068C37.8563 22.0424 37.6045 21.5587 37.3526 20.9943C37.0168 20.1075 36.597 19.3013 36.0933 18.4951C35.8414 18.0113 35.5056 17.5276 35.3377 17.1245C40.2071 20.1075 43.4813 24.703 44.3209 29.8628V29.9434C44.4049 30.3465 44.4049 30.7496 44.4888 31.1528C44.4888 31.2334 44.4888 31.2334 44.4888 31.314C44.4888 31.7171 44.5728 32.1202 44.5728 32.5233C44.6567 38.9731 40.9627 44.6973 35.2537 48.0835Z" fill="#192646"/>
<path d="M28.7892 41.3918C28.7052 41.6337 28.7052 41.9562 28.6213 42.198C28.5373 42.4399 28.5373 42.6818 28.4534 43.0042L29.6287 43.2461C29.7127 43.0042 29.7966 42.6818 29.7966 42.4399C29.8806 42.198 29.8806 41.8755 29.9646 41.6337C30.0485 41.3918 30.0485 41.1499 30.1325 40.9081L28.8731 40.6662C28.8731 40.9081 28.7892 41.1499 28.7892 41.3918Z" fill="#192646"/>
<path d="M30.4683 24.7836C30.1325 22.768 29.7127 20.7525 29.125 18.8982L27.9496 19.2207C28.5373 21.075 28.9571 23.0099 29.209 24.9448C29.3769 26.1542 29.5448 27.3635 29.6287 28.5728C29.7127 29.9434 29.7966 31.2334 29.7127 32.604H30.972C30.972 31.2334 30.972 29.8628 30.8881 28.4922C30.8041 27.2023 30.6362 25.9929 30.4683 24.7836Z" fill="#192646"/>
<path d="M38.3601 35.9095C38.3601 36.232 38.2761 36.4738 38.1922 36.7963L39.4515 36.9576C39.5354 36.6351 39.5354 36.3126 39.6194 36.0707C39.7034 35.3451 39.7873 34.5389 39.8713 33.7327L38.6119 33.6521C38.528 34.4583 38.444 35.1839 38.3601 35.9095Z" fill="#192646"/>
<path d="M7.54851 30.9915L8.80784 31.0721C8.80784 30.5078 8.89179 29.9434 8.97575 29.2984L7.71642 29.2178C7.63246 29.7822 7.63246 30.4272 7.54851 30.9915Z" fill="#192646"/>
<path d="M18.7985 41.0693L17.6231 41.3112L17.7071 41.7143C17.791 42.1174 17.875 42.6011 17.959 43.0042L19.1343 42.7624C19.0504 42.3593 18.9664 41.8755 18.8825 41.4724L18.7985 41.0693Z" fill="#192646"/>
<path d="M17.959 34.3777C17.875 33.4908 17.875 32.604 17.875 31.7171C17.875 30.8303 17.875 30.024 17.959 29.1372C18.0429 28.331 18.0429 27.6054 18.1269 26.7992C18.2108 25.9123 18.3787 25.0255 18.4627 24.2192L17.2034 24.058C17.0354 24.9448 16.9515 25.8317 16.7836 26.7185C16.6996 27.5248 16.6157 28.331 16.6157 29.0566C16.5317 29.9434 16.5317 30.8303 16.5317 31.6365C16.5317 32.5233 16.5317 33.4908 16.6157 34.3777C16.6996 35.2645 16.6996 36.0707 16.7836 36.9576L18.0429 36.7963C18.0429 35.9901 17.959 35.1839 17.959 34.3777Z" fill="#192646"/>
<path d="M18.2948 19.6238L19.4701 19.9463C19.6381 19.2207 19.8899 18.5757 20.1418 17.8501L18.9664 17.447C18.7146 18.1726 18.5466 18.8982 18.2948 19.6238Z" fill="#192646"/>
<path d="M45.916 31.1528C45.916 31.0721 45.916 31.0721 45.916 30.9915C45.916 30.5884 45.8321 30.1047 45.7481 29.7016V29.6209C44.6567 23.0099 39.8713 17.2857 33.0709 14.4639C29.3769 12.8515 26.9422 7.93352 26.7743 4.22489C26.7743 4.06365 26.7743 1.88685 26.7743 1.56436C26.7743 1.24187 26.5224 1 26.1866 1H21.0653C20.5616 1 20.3097 1.24187 20.3097 1.56436C20.3097 1.88685 20.3097 4.06365 20.3097 4.22489C20.1418 7.93352 17.6231 12.9321 13.9291 14.4639C13.4254 14.6252 13.0056 14.867 12.5019 15.1089C5.8694 18.4144 1.58769 24.2999 1.08396 31.0721C1 31.5559 1 32.0396 1 32.5233C1 43.1655 10.403 51.8727 22.2407 52.4371L19.0504 56.1457L19.9739 56.8713L22.9123 53.4851V58H24.1716V53.5658L27.0261 56.8713L27.9496 56.1457L24.7593 52.4371C28.1175 52.2758 31.3078 51.4696 34.0784 50.099C41.1306 46.7129 46 40.1018 46 32.5233C45.916 32.0396 45.916 31.6365 45.916 31.1528ZM35.2537 48.0835C35.4216 47.8416 35.5896 47.5997 35.6735 47.2772C35.7575 47.0354 35.9254 46.8741 36.0093 46.6322C36.2612 46.0679 36.597 45.5035 36.8489 45.0198C37.1847 44.2136 37.5205 43.4074 37.8563 42.6818C37.9403 42.3593 38.1082 42.1174 38.1922 41.7949L37.0168 41.3112C36.9328 41.6337 36.8489 41.8755 36.681 42.198C36.4291 42.9236 36.0933 43.7298 35.7575 44.4554C35.5056 45.0198 35.2537 45.5035 35.0019 46.0679C34.9179 46.3098 34.75 46.471 34.666 46.7129C34.2463 47.5191 33.7425 48.3253 33.2388 49.1315C31.3918 50.0184 29.2929 50.5827 27.1101 50.9052C27.278 50.4215 27.5299 49.9378 27.6978 49.5347C27.8657 49.1315 28.0336 48.7284 28.2015 48.2447L28.3694 47.761C28.4534 47.5191 28.5373 47.2772 28.6213 47.116L27.4459 46.7935C27.3619 47.0354 27.278 47.1966 27.194 47.4385L27.0261 47.8416C26.8582 48.2447 26.6903 48.6478 26.6063 49.0509C26.3545 49.6153 26.1026 50.2603 25.8507 50.8246L26.1866 50.9859C25.347 51.0665 24.4235 51.1471 23.5 51.1471C22.7444 51.1471 22.0728 51.1471 21.4011 51.0665L21.9049 50.8246C21.653 50.2603 21.4011 49.6153 21.1493 49.0509C20.8974 48.2447 20.5616 47.5191 20.3097 46.7129L19.1343 47.0354C19.3862 47.8416 19.6381 48.6478 19.9739 49.3734C20.1418 49.8571 20.3937 50.3409 20.5616 50.9052C18.3787 50.6634 16.2799 50.099 14.4328 49.2928C13.5093 47.9222 12.7537 46.5516 12.0821 45.181C11.7463 44.5361 11.4944 43.8911 11.1586 43.2461C10.7388 42.3593 10.403 41.3918 10.1511 40.505C9.98321 39.9406 9.8153 39.3762 9.64739 38.7313C9.47948 37.925 9.22761 37.0382 9.14366 36.232C9.0597 35.7482 8.97575 35.3451 8.97575 34.8614L7.71642 35.1839C7.80037 35.6676 7.80037 36.1513 7.88433 36.6351C8.05224 37.5219 8.22015 38.3282 8.38806 39.215C8.55597 39.7794 8.72388 40.4243 8.89179 40.9887C9.22761 41.9562 9.56343 42.9236 9.98321 43.8105C10.2351 44.4554 10.5709 45.181 10.9067 45.826C11.3265 46.7129 11.8302 47.5997 12.334 48.4866C6.28918 45.181 2.25933 39.2956 2.25933 32.5233C2.25933 32.0396 2.25933 31.6365 2.34328 31.1528C2.84702 25.1867 6.54104 19.785 12.25 16.6407C11.4104 17.9307 10.2351 19.9463 9.31157 22.5262C9.0597 23.1711 8.89179 23.8161 8.63993 24.5417L9.8153 24.8642C9.98321 24.2192 10.2351 23.5743 10.403 22.9293C11.9981 18.4951 14.3489 15.8345 14.3489 15.7539L14.181 15.6733C14.181 15.6733 14.2649 15.6733 14.2649 15.5926C14.6847 15.4314 15.1045 15.2702 15.5243 15.1089C15.944 14.9477 16.4478 14.7864 16.8675 14.7058C17.5392 14.4639 18.2948 14.3027 19.0504 14.2221L19.3022 14.1414C19.5541 14.0608 19.8899 14.0608 20.1418 13.9802H20.2257L20.0578 12.7709H19.8899C19.5541 12.7709 19.3022 12.8515 19.0504 12.9321L18.7985 13.0127C18.3787 13.0934 17.875 13.174 17.4552 13.3352C19.806 10.8359 21.2332 7.28854 21.4011 4.38614C21.4011 4.22489 21.4011 3.01556 21.4011 2.28996H25.347C25.347 3.01556 25.347 4.22489 25.347 4.38614C25.5149 7.28854 26.9422 10.9165 29.2929 13.3352C28.9571 13.2546 28.6213 13.174 28.2015 13.0934C27.6978 13.0127 27.278 12.9321 26.7743 12.8515L26.6063 14.0608C27.0261 14.1414 27.5299 14.2221 27.9496 14.3027C28.2854 14.3833 28.6213 14.4639 28.9571 14.5446C30.1325 14.867 31.3078 15.1895 32.3993 15.6733H32.4832C32.6511 15.7539 32.819 15.8345 32.9869 15.9151C33.1549 16.157 34.0784 17.2857 35.0858 19.0594C35.5056 19.8656 35.9254 20.5912 36.2612 21.4781C36.5131 21.9618 36.681 22.5262 36.8489 23.0099L38.0243 22.6068C37.8563 22.0424 37.6045 21.5587 37.3526 20.9943C37.0168 20.1075 36.597 19.3013 36.0933 18.4951C35.8414 18.0113 35.5056 17.5276 35.3377 17.1245C40.2071 20.1075 43.4813 24.703 44.3209 29.8628V29.9434C44.4049 30.3465 44.4049 30.7496 44.4888 31.1528C44.4888 31.2334 44.4888 31.2334 44.4888 31.314C44.4888 31.7171 44.5728 32.1202 44.5728 32.5233C44.6567 38.9731 40.9627 44.6973 35.2537 48.0835Z" stroke="#65A7EE" stroke-width="0.2" mask="url(#path-1-outside-1_1_1123)"/>
<path d="M28.7892 41.3918C28.7052 41.6337 28.7052 41.9562 28.6213 42.198C28.5373 42.4399 28.5373 42.6818 28.4534 43.0042L29.6287 43.2461C29.7127 43.0042 29.7966 42.6818 29.7966 42.4399C29.8806 42.198 29.8806 41.8755 29.9646 41.6337C30.0485 41.3918 30.0485 41.1499 30.1325 40.9081L28.8731 40.6662C28.8731 40.9081 28.7892 41.1499 28.7892 41.3918Z" stroke="#65A7EE" stroke-width="0.2" mask="url(#path-1-outside-1_1_1123)"/>
<path d="M30.4683 24.7836C30.1325 22.768 29.7127 20.7525 29.125 18.8982L27.9496 19.2207C28.5373 21.075 28.9571 23.0099 29.209 24.9448C29.3769 26.1542 29.5448 27.3635 29.6287 28.5728C29.7127 29.9434 29.7966 31.2334 29.7127 32.604H30.972C30.972 31.2334 30.972 29.8628 30.8881 28.4922C30.8041 27.2023 30.6362 25.9929 30.4683 24.7836Z" stroke="#65A7EE" stroke-width="0.2" mask="url(#path-1-outside-1_1_1123)"/>
<path d="M38.3601 35.9095C38.3601 36.232 38.2761 36.4738 38.1922 36.7963L39.4515 36.9576C39.5354 36.6351 39.5354 36.3126 39.6194 36.0707C39.7034 35.3451 39.7873 34.5389 39.8713 33.7327L38.6119 33.6521C38.528 34.4583 38.444 35.1839 38.3601 35.9095Z" stroke="#65A7EE" stroke-width="0.2" mask="url(#path-1-outside-1_1_1123)"/>
<path d="M7.54851 30.9915L8.80784 31.0721C8.80784 30.5078 8.89179 29.9434 8.97575 29.2984L7.71642 29.2178C7.63246 29.7822 7.63246 30.4272 7.54851 30.9915Z" stroke="#65A7EE" stroke-width="0.2" mask="url(#path-1-outside-1_1_1123)"/>
<path d="M18.7985 41.0693L17.6231 41.3112L17.7071 41.7143C17.791 42.1174 17.875 42.6011 17.959 43.0042L19.1343 42.7624C19.0504 42.3593 18.9664 41.8755 18.8825 41.4724L18.7985 41.0693Z" stroke="#65A7EE" stroke-width="0.2" mask="url(#path-1-outside-1_1_1123)"/>
<path d="M17.959 34.3777C17.875 33.4908 17.875 32.604 17.875 31.7171C17.875 30.8303 17.875 30.024 17.959 29.1372C18.0429 28.331 18.0429 27.6054 18.1269 26.7992C18.2108 25.9123 18.3787 25.0255 18.4627 24.2192L17.2034 24.058C17.0354 24.9448 16.9515 25.8317 16.7836 26.7185C16.6996 27.5248 16.6157 28.331 16.6157 29.0566C16.5317 29.9434 16.5317 30.8303 16.5317 31.6365C16.5317 32.5233 16.5317 33.4908 16.6157 34.3777C16.6996 35.2645 16.6996 36.0707 16.7836 36.9576L18.0429 36.7963C18.0429 35.9901 17.959 35.1839 17.959 34.3777Z" stroke="#65A7EE" stroke-width="0.2" mask="url(#path-1-outside-1_1_1123)"/>
<path d="M18.2948 19.6238L19.4701 19.9463C19.6381 19.2207 19.8899 18.5757 20.1418 17.8501L18.9664 17.447C18.7146 18.1726 18.5466 18.8982 18.2948 19.6238Z" stroke="#65A7EE" stroke-width="0.2" mask="url(#path-1-outside-1_1_1123)"/>
</svg>
