<!-- Generated by IcoMoon.io -->
<svg version="1.1" xmlns="http://www.w3.org/2000/svg" width="1024" height="1024" viewBox="0 0 1024 1024">
<g id="icomoon-ignore">
</g>
<path fill="#000" d="M175.068 836.062c327.627 150.351 390.767 150.351 557.993 153.767 1.707 0 3.413 0 5.12 0 150.163 0 232.069-104.219 249.132-206.732 15.36-104.219-32.42-228.943-177.466-273.364-97.263-29.044-112.62-29.044-252.546-32.461h-46.073c-255.96-3.417-409.535 29.044-459.021 100.803-29.009 42.711-15.358 93.969 0 134.973 18.771 52.965 63.137 95.676 122.861 123.013zM738.181 1024c-1.707 0-3.413 0-5.12 0-184.293-3.417-250.842-10.25-571.644-155.477-68.256-30.751-117.742-82.009-141.631-141.807-17.064-44.421-35.834-111.053 3.413-167.434 56.311-82.009 215.006-119.596 486.323-116.18h46.073c141.633 3.417 160.403 3.417 262.786 34.171 165.519 49.545 220.126 191.355 201.356 310.951-18.77 117.886-112.623 235.776-281.556 235.776z"></path>
<path fill="#000" d="M255.269 699.378c-29.009 0-51.192-22.211-51.192-51.255s22.183-51.255 51.192-51.255c10.239 0 17.064 6.833 17.064 17.084s-6.825 17.087-17.064 17.087c-10.238 0-17.064 6.833-17.064 17.084s6.826 17.087 17.064 17.087c10.239 0 17.064 6.833 17.064 17.084 0 8.544-8.532 17.084-17.064 17.084z"></path>
<path fill="#000" d="M715.998 938.575c-37.543 0-68.256-30.754-68.256-68.342 0-10.25 6.827-17.084 17.063-17.084 10.24 0 17.063 6.833 17.063 17.084 0 18.794 15.36 34.171 34.13 34.171 10.237 0 17.063 6.833 17.063 17.084 0 8.544-6.827 17.087-17.063 17.087z"></path>
<path fill="#000" d="M715.998 648.124c-10.24 0-17.067-6.833-17.067-17.084 0-37.588 30.717-68.342 68.256-68.342 10.24 0 17.067 6.833 17.067 17.084 0 10.254-6.827 17.087-17.067 17.087-18.77 0-34.127 15.377-34.127 34.171 0 8.54-8.533 17.084-17.063 17.084z"></path>
<path fill="#000" d="M494.165 596.869c-37.54 0-68.256-30.754-68.256-68.342 0-10.25 6.827-17.084 17.063-17.084 10.24 0 17.063 6.833 17.063 17.084 0 18.794 15.36 34.171 34.13 34.171 10.237 0 17.063 6.833 17.063 17.084 0 8.544-8.533 17.087-17.063 17.087z"></path>
<path fill="#000" d="M340.589 870.233c-37.541 0-68.256-30.754-68.256-68.342 0-10.25 6.826-17.084 17.064-17.084s17.064 6.833 17.064 17.084c0 18.794 15.358 34.171 34.128 34.171 10.237 0 17.064 6.833 17.064 17.087 0 8.54-8.53 17.084-17.064 17.084z"></path>
<path fill="#000" d="M460.035 784.807c-37.54 0-68.253-30.754-68.253-68.342 0-10.25 6.823-17.087 17.063-17.087 10.237 0 17.063 6.837 17.063 17.087 0 18.794 15.357 34.171 34.127 34.171 10.24 0 17.067 6.833 17.067 17.084 0 8.544-8.533 17.087-17.067 17.087z"></path>
<path fill="#000" d="M664.805 767.72c-37.54 0-68.256-30.754-68.256-68.342 0-10.25 6.827-17.084 17.063-17.084 10.24 0 17.067 6.833 17.067 17.084 0 18.794 15.357 34.171 34.127 34.171 10.24 0 17.063 6.837 17.063 17.087 0 8.544-8.53 17.084-17.063 17.084z"></path>
<path fill="#000" d="M852.507 272.248c-10.237 0-17.063-6.834-17.063-17.085s-6.823-17.085-17.063-17.085c-10.24 0-17.063 6.834-17.063 17.085s-6.827 17.085-17.063 17.085c-10.24 0-17.067-6.834-17.067-17.085 0-29.045 22.183-51.256 51.193-51.256s51.193 22.211 51.193 51.256c0 8.543-6.827 17.085-17.067 17.085z"></path>
<path fill="#000" d="M886.637 784.807c-10.24 0-17.063-6.833-17.063-17.087 0-18.794-15.36-34.171-34.13-34.171-10.237 0-17.063-6.833-17.063-17.084s6.827-17.087 17.063-17.087c37.54 0 68.256 30.754 68.256 68.342 0 8.544-6.827 17.087-17.063 17.087z"></path>
<path fill="#000" d="M886.637 511.444c-10.24 0-17.063-6.837-17.063-17.087 0-37.588 30.713-68.342 68.256-68.342 10.237 0 17.063 6.833 17.063 17.087 0 10.25-6.827 17.084-17.063 17.084-18.773 0-34.13 15.377-34.13 34.171 0 8.544-6.827 17.087-17.063 17.087z"></path>
<path fill="#000" d="M613.612 357.673c-10.237 0-17.063-6.833-17.063-17.084 0-37.587 30.717-68.341 68.256-68.341 10.24 0 17.063 6.834 17.063 17.085s-6.823 17.085-17.063 17.085c-18.77 0-34.127 15.377-34.127 34.171 0 8.544-6.827 17.084-17.067 17.084z"></path>
<path fill="#000" d="M698.931 477.273c-10.237 0-17.063-6.837-17.063-17.087 0-37.588 30.717-68.342 68.256-68.342 10.24 0 17.063 6.837 17.063 17.087s-6.823 17.084-17.063 17.084c-18.77 0-34.127 15.377-34.127 34.171 0 8.544-6.827 17.087-17.067 17.087z"></path>
<path fill="#000" d="M1000.967 707.922c-1.707 0-1.707 0 0 0-10.24-1.707-18.773-8.544-17.067-18.794 1.707-25.627 3.413-54.671 3.413-100.803 0-22.211 0-47.838 1.707-78.592 6.827-254.57-23.89-408.338-92.146-457.885-40.953-30.753-93.85-18.794-145.043 0-68.256 23.92-105.796 87.135-122.86 124.723-61.43 133.265-95.56 220.4-117.743 290.448-3.413 8.544-11.943 13.67-22.183 11.96-8.533-3.417-13.65-11.96-11.943-22.211 22.183-71.759 58.016-158.893 119.446-293.866 34.13-73.467 85.32-123.014 145.046-143.516 56.31-18.794 121.153-34.171 175.756 5.126 78.496 58.090 112.623 211.857 105.8 486.932 0 30.751-1.707 56.378-1.707 78.592 0 46.128-1.707 76.882-3.413 104.219-1.707 6.833-8.533 13.667-17.063 13.667z"></path>
</svg>
