<svg width="54" height="46" viewBox="0 0 54 46" fill="none" xmlns="http://www.w3.org/2000/svg">
<path d="M33.4213 29.5158C33.0904 29.5158 32.7595 29.8 32.7595 30.1789C32.7595 35.4368 28.4578 39.7474 23.2106 39.7474C22.8324 39.7474 22.5488 40.0316 22.5488 40.4105C22.5488 40.7895 22.8324 41.0737 23.2106 41.0737C29.1669 41.0737 34.0359 36.1947 34.0359 30.2263C34.0832 29.8 33.7995 29.5158 33.4213 29.5158Z" fill="#192646"/>
<path d="M32.9014 13.6947C29.7341 8.05789 26.3778 3.22632 25.6687 2.27895C25.1015 1.47368 24.2033 1 23.2106 1C22.2179 1 21.3197 1.47368 20.7524 2.27895C20.327 2.89474 18.9088 4.93158 17.1598 7.72632C15.6471 7.01579 13.9453 6.63684 12.1962 6.63684C5.48356 6.63684 0 12.1316 0 18.8579C0 23.8789 3.07268 28.2368 7.42171 30.0842C7.42171 30.1316 7.42171 30.1316 7.42171 30.1789C7.42171 38.8947 14.5125 46 23.2106 46C31.9086 46 38.9995 38.8947 38.9995 30.1789C39.0467 25.8211 36.0213 19.3316 32.9014 13.6947ZM1.27635 18.8579C1.27635 12.8421 6.14537 7.91579 12.1962 7.91579C18.1997 7.91579 23.116 12.7947 23.116 18.8579C23.116 24.9211 18.1997 29.7526 12.1962 29.7526C6.19264 29.7526 1.27635 24.8737 1.27635 18.8579ZM23.2579 44.7211C15.3634 44.7211 8.93442 38.3737 8.74533 30.5579C9.83259 30.8895 11.0144 31.0789 12.1962 31.0789C18.9088 31.0789 24.3924 25.5842 24.3924 18.8579C24.3924 14.3579 21.9342 10.4263 18.3416 8.34211C20.0434 5.59474 21.4142 3.60526 21.8397 3.03684C22.1706 2.56316 22.6906 2.32632 23.2579 2.32632C23.8251 2.32632 24.3451 2.61053 24.676 3.03684C25.9996 4.93158 37.7704 21.8895 37.7704 30.1789C37.7704 38.1842 31.2468 44.7211 23.2579 44.7211Z" fill="#192646"/>
<path d="M17.8216 13.1737C17.5852 12.9368 17.1598 12.9368 16.9234 13.1737L6.57082 23.5947C6.33446 23.8316 6.33446 24.2579 6.57082 24.4947C6.71263 24.6368 6.85445 24.6842 7.04354 24.6842C7.18535 24.6842 7.37444 24.6368 7.51626 24.4947L17.8688 14.1211C18.1052 13.8368 18.1052 13.4579 17.8216 13.1737Z" fill="#192646"/>
<path d="M8.4617 17.5316C9.78532 17.5316 10.8726 16.4421 10.8726 15.1158C10.8726 13.7895 9.78532 12.7 8.4617 12.7C7.13808 12.7 6.05082 13.7895 6.05082 15.1158C6.05082 16.4421 7.13808 17.5316 8.4617 17.5316ZM8.4617 13.9789C9.07624 13.9789 9.59623 14.5 9.59623 15.1158C9.59623 15.7316 9.07624 16.2526 8.4617 16.2526C7.84716 16.2526 7.32717 15.7316 7.32717 15.1158C7.32717 14.4526 7.84716 13.9789 8.4617 13.9789Z" fill="#192646"/>
<path d="M15.9307 20.1368C14.6071 20.1368 13.5198 21.2263 13.5198 22.5526C13.5198 23.8789 14.6071 24.9684 15.9307 24.9684C17.2543 24.9684 18.3416 23.8789 18.3416 22.5526C18.3416 21.2263 17.2543 20.1368 15.9307 20.1368ZM15.9307 23.7368C15.3161 23.7368 14.7962 23.2158 14.7962 22.6C14.7962 21.9842 15.3161 21.4632 15.9307 21.4632C16.5452 21.4632 17.0652 21.9842 17.0652 22.6C17.0652 23.2158 16.5452 23.7368 15.9307 23.7368Z" fill="#192646"/>
<path d="M45 0L36.3397 15H53.6603L45 0ZM46.5 43.5V13.5H43.5V43.5H46.5Z" fill="#192646"/>
</svg>
