<svg width="43" height="43" viewBox="0 0 43 43" fill="none" xmlns="http://www.w3.org/2000/svg">
<!-- <rect x="0.528571" y="0.528571" width="41.5744" height="41.5744" rx="20.7872" stroke="#192646" stroke-width="1.05714"/> -->
<path d="M30.896 34.9893H14.6954C14.1684 35.0466 13.6442 34.8717 13.2497 34.5098C12.8551 34.148 12.6313 33.6323 12.6313 33.0895C12.6313 32.5467 12.8551 32.0311 13.2497 31.6692C13.6442 31.3073 14.1684 31.1324 14.6954 31.1897H27.3066C27.6394 31.1897 27.8867 30.9847 27.8867 30.7977C27.8867 30.6107 27.6394 30.4057 27.3066 30.4057H14.6954C14.1684 30.463 13.6442 30.2881 13.2497 29.9262C12.8551 29.5643 12.6313 29.0487 12.6313 28.5059C12.6313 27.9631 12.8551 27.4474 13.2497 27.0856C13.6442 26.7237 14.1684 26.5488 14.6954 26.6061H30.896C31.158 26.6061 31.4024 26.7508 31.532 26.983C31.6645 27.2152 31.6645 27.5017 31.532 27.7369C31.3995 27.9691 31.158 28.1139 30.896 28.1139H14.6954C14.3627 28.1139 14.1154 28.3249 14.1154 28.5089C14.1154 28.6928 14.3627 28.9009 14.6954 28.9009H27.3066C27.8337 28.8436 28.3578 29.0185 28.7524 29.3804C29.1469 29.7423 29.3707 30.2579 29.3707 30.8007C29.3707 31.3435 29.1469 31.8592 28.7524 32.221C28.3578 32.5829 27.8337 32.7578 27.3066 32.7005H14.6954C14.3627 32.7005 14.1154 32.9056 14.1154 33.0925C14.1154 33.2795 14.3627 33.4846 14.6954 33.4846H30.896C31.1462 33.5026 31.373 33.6504 31.4937 33.8766C31.6144 34.1027 31.6144 34.3772 31.4937 34.6033C31.373 34.8295 31.1462 34.9712 30.896 34.9893Z" fill="#192646"/>
<path d="M16.4091 25.3968C16.2442 25.3968 16.0941 25.3154 15.9998 25.1767C15.9086 25.038 15.8909 24.8631 15.9527 24.7063C16.0146 24.5525 16.1471 24.4379 16.3061 24.4017C16.3826 24.4017 18.2671 23.9192 18.2671 21.5068C18.2671 20.1317 17.3072 18.835 16.3767 17.5836C15.4934 16.3924 14.6601 15.2706 14.61 14.0523C14.5482 12.4752 15.2873 10.9765 16.5622 10.0899C16.7095 10.0025 16.892 10.0025 17.0392 10.0869C17.1894 10.1713 17.2836 10.3281 17.2954 10.5C17.3042 10.6749 17.2247 10.8408 17.0863 10.9403C16.1117 11.6278 15.5434 12.7737 15.5817 13.986C15.6288 14.8967 16.3738 15.9009 17.16 16.9654C18.1434 18.2832 19.2505 19.7819 19.2505 21.4947C19.2505 24.0941 17.4603 25.1707 16.5122 25.3787L16.4091 25.3968Z" fill="#192646"/>
<path d="M21.6238 25.3968C21.4589 25.3968 21.3087 25.3154 21.2145 25.1767C21.1232 25.038 21.1056 24.8631 21.1674 24.7063C21.2292 24.5525 21.3617 24.4379 21.5207 24.4017C21.5973 24.4017 23.4847 23.9192 23.4847 21.5068C23.4847 20.1317 22.5248 18.835 21.5914 17.5836C20.711 16.3924 19.8777 15.2706 19.8247 14.0523C19.7658 12.4752 20.5049 10.9765 21.7828 10.0899C21.8917 10.0115 22.0301 9.98135 22.1597 10.0115C22.2922 10.0386 22.407 10.1201 22.4777 10.2377C22.5484 10.3553 22.5719 10.494 22.5395 10.6267C22.5071 10.7594 22.4217 10.874 22.3069 10.9403C21.3323 11.6278 20.764 12.7737 20.8023 13.986C20.8494 14.8967 21.5943 15.9009 22.3864 16.9654C23.364 18.2832 24.4741 19.7819 24.4741 21.4947C24.4741 24.0941 22.6838 25.1707 21.7357 25.3788L21.6238 25.3968Z" fill="#192646"/>
<path d="M26.8385 25.3968C26.6647 25.418 26.491 25.3395 26.388 25.1948C26.2849 25.0501 26.2613 24.8601 26.332 24.6942C26.4027 24.5284 26.5529 24.4138 26.7295 24.3957C26.8061 24.3957 28.6935 23.9132 28.6935 21.5008C28.6935 20.1257 27.7336 18.829 26.8031 17.5775C25.9198 16.3864 25.0865 15.2646 25.0364 14.0463C24.9776 12.4722 25.7166 10.9765 26.9916 10.0899C27.1035 10.0206 27.236 9.99643 27.3626 10.0266C27.4892 10.0567 27.6011 10.1351 27.6688 10.2497C27.7365 10.3613 27.7601 10.497 27.7306 10.6267C27.7012 10.7563 27.6246 10.8679 27.5157 10.9403C26.5411 11.6278 25.9787 12.7768 26.0199 13.986C26.07 14.8967 26.8149 15.9009 27.604 16.9654C28.5816 18.2832 29.6946 19.7819 29.6946 21.4947C29.6946 24.0941 27.8985 25.1707 26.9533 25.3788L26.8385 25.3968Z" fill="#192646"/>
</svg>
