<svg width="36" height="46" viewBox="0 0 36 46" fill="none" xmlns="http://www.w3.org/2000/svg">
<path d="M36 29.2727C36 38.5424 28.8667 46 20 46C11.1333 46 4 38.5424 4 29.2727C4 20.003 20 0 20 0C20 0 36 20.003 36 29.2727ZM20 44.6061C28.0667 44.6061 34.6667 37.7061 34.6667 29.2727C34.6667 22.6515 24.8667 8.57273 20 2.2303C15.1333 8.57273 5.33333 22.6515 5.33333 29.2727C5.33333 37.7061 11.9333 44.6061 20 44.6061ZM29.3333 29.9697H30.6667C30.6667 34.5 25.8667 40.4242 20 40.4242C20 39.6576 20 39.5879 20 39.0303C24.8667 39.0303 28.8667 34.9182 29.3333 29.9697Z" fill="#192646"/>
<path d="M4.35291 14.4706L5.47055 18.3824H6.5882L8.82349 17.8236H11.0588L15.5294 18.9412L16.0882 16.7059V11.6765L15.5294 11.1177L8.26467 10.5589L5.47055 11.1177L4.91173 11.6765L4.35291 14.4706Z" fill="#EDEDED"/>
<path d="M16.0882 19.5L12.7353 17.8236L10.5 17.2647L7.14707 18.3824L4.91178 19.5L2.67649 22.2942L1.55884 25.6471L2.11766 27.8824L2.67649 31.2353L5.4706 33.4706H14.9706L16.0882 32.9118L18.3235 30.1177L19.4412 27.3236V25.0883L18.8824 23.4118L17.7647 21.1765L16.0882 19.5Z" fill="#EDEDED"/>
<path d="M3.58077 18.9313L2.63077 13.3628C2.375 11.808 3.43462 10.2893 5.04231 10.0362C5.18846 10 5.33462 10 5.51731 10H13.4827C15.0904 10 16.4058 11.3017 16.4058 12.8927C16.4058 13.0374 16.4058 13.2182 16.3692 13.3628L15.4192 18.9313C17.6115 20.667 19 23.3066 19 26.2716C19 29.7429 17.1 32.8526 14.1038 34.4798C13.9942 34.5521 13.8846 34.5882 13.7385 34.5882H5.26154C5.15192 34.5882 5.00577 34.5521 4.89615 34.4798C1.9 32.8526 0 29.7429 0 26.2716C0 23.3066 1.38846 20.667 3.58077 18.9313ZM14.9442 13.1458C14.9442 13.0735 14.9808 13.0012 14.9808 12.8927C14.9808 12.0972 14.3231 11.4464 13.5192 11.4464H5.51731C5.44423 11.4464 5.37115 11.4464 5.26154 11.4825C4.45769 11.6272 3.90962 12.3503 4.05577 13.1458L4.89615 18.0635C6.28462 17.268 7.85577 16.8702 9.5 16.8702C11.1442 16.8702 12.7154 17.268 14.1038 18.0635L14.9442 13.1458ZM13.5558 33.1419C16.0038 31.7317 17.5385 29.1282 17.5385 26.2716C17.5385 21.8602 13.9577 18.3166 9.5 18.3166C5.04231 18.3166 1.46154 21.8602 1.46154 26.2716C1.46154 29.1282 2.99615 31.7317 5.44423 33.1419H13.5558Z" fill="#192646"/>
<path d="M28.4571 22.2857V23.6023H23.6434V32.5714H22.2857V22.2857H28.4571Z" fill="#192646"/>
</svg>
