<!-- Generated by IcoMoon.io -->
<svg version="1.1" xmlns="http://www.w3.org/2000/svg" width="819" height="1024" viewBox="0 0 819 1024">
<g id="icomoon-ignore">
</g>
<path fill="#ededed" d="M208.402 408.091c37.366 0 52.773 0.756 89.369 17.351 19.646 9.052 33.513 20.367 49.308 33.567 23.499 19.235 52.005 77.318 52.005 113.15 0 55.443-8.86 86.37-42.373 126.726-5.394 6.412-7.32 10.185-14.254 15.464-8.86 7.166-26.964 23.761-38.136 23.761h-175.659c-16.949 0-49.693-34.699-62.020-50.541-45.070-58.46-44.3-148.601 2.696-209.324 3.467-4.526 5.393-5.659 8.86-10.185 24.654-30.55 78.199-59.97 130.204-59.97zM322.040 401.68c-27.736-6.412-28.891-25.27-115.95-25.27-52.389 0-80.895 22.252-94.378 25.27-0.77-8.675-3.852-18.481-5.393-28.289-1.926-10.936-3.467-18.479-5.393-28.664-4.623-27.91-25.039-90.52 25.81-90.52h182.592c48.923 0 27.736 60.346 23.114 87.503l-10.402 59.97zM455.324 50.54c9.247 6.035 65.487 83.353 76.274 96.554 84.361 119.183 160.635 231.579 221.114 363.964 16.564 36.583 37.751 97.307 37.751 139.551 0 90.896-36.596 171.608-80.126 220.262-28.506 32.436-43.143 47.145-79.739 71.285-67.412 44.128-164.872 62.233-246.153 42.996-34.284-8.296-53.93-16.595-83.591-31.681-8.090-4.149-15.794-9.808-23.499-14.711-58.552-38.093-94.762-82.221-123.268-142.191-4.623-9.429-9.63-15.086-10.016-27.91h171.422c5.777 0 38.521-23.007 44.298-27.91 38.138-31.304 71.651-90.896 71.651-144.454 0-42.619-1.157-61.854-20.031-102.212-14.639-31.304-31.973-46.012-53.545-67.135-6.55-6.41-6.935-6.033-5.007-18.479 4.237-24.893 20.802-108.247 20.802-124.842 0-15.464-7.32-26.78-14.254-36.585-6.162-9.052-19.259-17.349-30.816-19.988 0.77-9.429 7.318-16.218 12.327-23.385l31.971-44.883c5.394-7.92 10.402-14.332 16.179-21.876 6.164-7.92 59.709-81.467 66.257-86.371zM291.994 222.904c-48.538 0-97.46 0-145.997 0-27.35 0-44.685 0.754-60.479 12.069-30.047 21.875-27.35 55.067-20.802 86.37l16.949 101.081c-47.767 31.681-81.666 102.21-81.666 159.916 0 81.091 38.907 135.025 99.386 178.022 15.409 10.936 9.245 7.543 20.802 36.207 18.105 44.505 54.7 100.704 91.68 133.14l30.433 24.891c11.172 8.675 22.342 14.711 34.669 22.63 48.538 30.927 121.344 46.768 184.134 46.768 67.412 0 130.202-22.254 172.577-47.522 12.327-7.168 21.187-12.825 32.358-21.121l57.782-52.804c5.392-6.035 7.703-7.922 12.712-14.711 20.031-26.401 37.751-52.425 51.233-84.484 22.344-53.18 37.751-122.2 28.891-182.546-5.392-36.585-12.712-55.82-23.499-86.37-5.007-13.578-8.86-25.27-15.022-38.095-6.55-13.199-10.787-24.515-17.334-37.716l-38.523-71.662c-28.891-47.522-45.84-82.221-82.051-135.025-60.862-89.387-93.221-135.024-160.25-221.772-5.777-7.543-18.874-26.024-24.654-30.173l-41.603 53.934c-14.637 19.235-28.506 36.585-41.988 55.443-3.082 4.526-6.547 8.298-10.015 13.201-9.245 11.692-67.414 91.651-69.724 100.326z"></path>
<path fill="#ededed" d="M508.869 725.287h30.048c0-32.813 1.54-122.579-1.927-151.62-1.925-18.481 1.927-32.815 1.927-47.901h109.4v-29.42h-139.448v228.94z"></path>
<path fill="#ededed" d="M455.324 870.494v29.42c40.448 0 70.109-9.808 99.387-24.517 16.949-8.296 38.906-22.63 52.388-34.699 27.736-25.27 46.612-44.882 65.102-81.467 13.097-25.647 25.809-52.048 25.809-90.52h-30.046c0 25.27-13.097 61.479-22.342 79.204-10.787 21.5-27.351 44.128-43.915 59.97-28.891 28.287-59.707 46.014-99.77 55.82-15.409 3.772-31.973 3.396-46.612 6.789z"></path>
</svg>
