<svg width="51" height="46" viewBox="0 0 51 46" fill="none" xmlns="http://www.w3.org/2000/svg">
<path d="M45.7841 19.7892C44.9148 -6.59639 6.02727 -6.59639 5.21591 19.7892C2.31818 19.7892 0 22.119 0 25.0313V32.0209C0 34.9332 2.31818 37.2631 5.21591 37.2631H8.69318C9.67841 37.2631 10.4318 36.5059 10.4318 35.5157V21.5366C10.4318 20.5464 9.67841 19.7892 8.69318 19.7892C9.33068 -1.93669 41.6693 -1.93669 42.3068 19.7892C41.3216 19.7892 40.5682 20.5464 40.5682 21.5366V35.5157C40.5682 36.3894 41.2636 37.1466 42.1329 37.2631C40.9739 40.7578 37.7284 43.0877 34.0193 43.0877H31.817C31.5852 42.0975 30.658 41.3403 29.5568 41.3403H27.2386C24.167 41.4568 24.167 45.8835 27.2386 46H29.5568C30.658 46 31.5273 45.2428 31.817 44.2526H34.0193C38.3659 44.2526 42.133 41.3985 43.35 37.2631H45.7841C48.6818 37.2631 51 34.9332 51 32.0209V25.0313C51 22.119 48.6818 19.7892 45.7841 19.7892ZM29.5568 44.8351H27.2386C26.6011 44.8351 26.0795 44.3109 26.0795 43.6701C26.0795 43.0294 26.6011 42.5052 27.2386 42.5052H29.5568C31.0636 42.5052 31.0636 44.7768 29.5568 44.8351ZM9.27273 21.5366V35.5157C9.27273 35.8651 9.04091 36.0981 8.69318 36.0981H5.21591C2.95568 36.0981 1.15909 34.2925 1.15909 32.0209V25.0313C1.15909 22.7597 2.95568 20.9541 5.21591 20.9541H8.69318C9.04091 20.9541 9.27273 21.1871 9.27273 21.5366ZM26.0795 2.31529C16.1114 1.73283 7.47614 9.65432 7.53409 19.7892H6.375C7.18636 -5.08199 43.8716 -5.02374 44.625 19.7892H43.4659C43.4659 10.1203 35.642 2.31529 26.0795 2.31529ZM49.8409 32.0209C49.8409 34.2925 48.0443 36.0981 45.7841 36.0981H42.3068C41.9591 36.0981 41.7273 35.8651 41.7273 35.5157V21.5366C41.7273 21.1871 41.9591 20.9541 42.3068 20.9541H45.7841C48.0443 20.9541 49.8409 22.7597 49.8409 25.0313V32.0209Z" fill="white"/>
<path d="M32.8023 34.176C33.15 34.5255 33.7875 34.2342 33.7875 33.7683V30.6812C35.2943 30.5647 36.5114 29.2833 36.5114 27.7689V18.566C36.5114 16.9351 35.2364 15.6537 33.6136 15.6537H17.3864C15.7636 15.6537 14.4886 16.9351 14.4886 18.566V27.7689C14.4886 29.3998 15.7636 30.6812 17.3864 30.6812H29.0352L32.8023 34.176ZM15.6477 27.7689V18.566C15.6477 17.5758 16.4591 16.8186 17.3864 16.8186H33.6136C34.5989 16.8186 35.3523 17.6341 35.3523 18.566V27.7689C35.3523 28.7591 34.5409 29.5163 33.6136 29.5163H33.208C32.8602 29.5163 32.6284 29.7493 32.6284 30.0988V32.4286L29.6727 29.691C29.5568 29.5745 29.4409 29.5163 29.267 29.5163H17.3864C16.4591 29.5163 15.6477 28.7591 15.6477 27.7689Z" fill="white"/>
<path d="M18.5455 20.8959H32.4545C33.208 20.8959 33.208 19.7309 32.4545 19.7309H18.5455C17.792 19.7309 17.792 20.8959 18.5455 20.8959Z" fill="white"/>
<path d="M18.5455 23.8082H32.4545C33.208 23.8082 33.208 22.6432 32.4545 22.6432H18.5455C17.792 22.6432 17.792 23.8082 18.5455 23.8082Z" fill="white"/>
<path d="M27.8182 25.5556H18.5455C17.792 25.5556 17.792 26.7205 18.5455 26.7205H27.8182C28.5716 26.7205 28.5716 25.5556 27.8182 25.5556Z" fill="white"/>
</svg>
