<svg width="24" height="44" viewBox="0 0 24 44" fill="none" xmlns="http://www.w3.org/2000/svg">
<mask id="path-1-outside-1_1_902" maskUnits="userSpaceOnUse" x="0.0449219" y="-0.600395" width="24" height="44" fill="black">
<rect fill="white" x="0.0449219" y="-0.600395" width="24" height="44"/>
<path d="M22.1726 33.6H21.4564V18.5213C21.4564 16.5229 19.845 14.8879 17.8755 14.8879C17.1593 14.8879 16.4431 15.1604 15.8164 15.5237C15.5478 15.342 15.2793 15.1604 15.0107 15.0695C14.1155 14.7062 13.1307 14.797 12.2355 15.2512C12.0564 15.342 11.9669 15.4329 11.7878 15.5237C11.5193 15.342 11.2507 15.1604 10.9821 15.0695C10.0869 14.797 9.1021 14.8879 8.20686 15.342C8.02781 15.4329 7.93829 15.5237 7.75924 15.6145C7.49067 15.4329 7.22209 15.2512 6.95352 15.1604C5.07351 14.5245 3.01446 15.5237 2.38779 17.4313C2.29826 17.7946 2.20874 18.2488 2.20874 18.6121V33.6908H1.49254C1.22397 33.6908 1.04492 33.8725 1.04492 34.145V39.3226C1.04492 39.5951 1.22397 39.7768 1.49254 39.7768H6.32685V42.6835C6.32685 42.956 6.5059 43.1377 6.77447 43.1377C7.04305 43.1377 7.2221 42.956 7.2221 42.6835V39.7768H16.7117V42.6835C16.7117 42.956 16.8907 43.1377 17.1593 43.1377C17.4279 43.1377 17.6069 42.956 17.6069 42.6835V39.7768H22.4412C22.7098 39.7768 22.8888 39.5951 22.8888 39.3226V34.145C22.6203 33.7816 22.4412 33.6 22.1726 33.6ZM15.8164 16.7046C16.4431 17.4313 16.7117 18.4304 16.3536 19.4296C16.264 19.6113 16.1745 19.7021 15.9955 19.793C15.7269 19.8838 15.3688 19.7021 15.2793 19.4296C15.1898 19.1571 15.1002 18.7938 15.1002 18.5213C15.1002 17.8854 15.3688 17.2496 15.8164 16.7046ZM11.1612 17.6129C11.2507 17.2496 11.4297 16.9771 11.6983 16.7046C12.325 17.4313 12.5935 18.4304 12.2355 19.4296C12.1459 19.6113 12.0564 19.7021 11.8774 19.793C11.6088 19.8838 11.2507 19.7021 11.1612 19.4296C10.9821 18.8846 10.9821 18.3396 11.1612 17.6129ZM7.13257 17.6129C7.2221 17.2496 7.40114 16.9771 7.66972 16.7046C8.29639 17.4313 8.56496 18.4304 8.20686 19.4296C8.11734 19.6113 8.02781 19.7021 7.84876 19.793C7.58019 19.8838 7.2221 19.7021 7.13257 19.4296C6.95352 18.8846 6.95352 18.3396 7.13257 17.6129ZM2.92493 18.5213C2.92493 18.2488 3.01446 17.8854 3.10398 17.6129C3.64112 16.1596 5.16304 15.4329 6.59543 15.8871C6.77447 15.9779 6.864 15.9779 7.04305 16.0687C6.77447 16.4321 6.5059 16.7954 6.32685 17.2496C6.05828 18.0671 6.05828 18.8846 6.32685 19.7021C6.59543 20.5197 7.40114 20.883 8.20686 20.6105C8.65448 20.4288 8.92306 20.1563 9.1021 19.7021C9.54973 18.4304 9.19163 17.0679 8.38591 16.0687C9.01258 15.7054 9.8183 15.6145 10.624 15.8871C10.8031 15.9779 10.8926 15.9779 11.0716 16.0687C10.8031 16.4321 10.5345 16.7954 10.3554 17.2496C10.0869 18.0671 10.0869 18.8846 10.3554 19.7021C10.624 20.5197 11.4297 20.883 12.2355 20.6105C12.6831 20.4288 12.9516 20.1563 13.1307 19.7021C13.4888 18.7938 13.3993 17.7946 12.9516 16.8862C12.7726 16.6137 12.5935 16.3412 12.4145 16.0687C13.0412 15.7054 13.8469 15.6145 14.6526 15.8871C14.8317 15.9779 14.9212 15.9779 15.1002 16.0687C14.5631 16.7046 14.205 17.5221 14.205 18.4304C14.205 18.8846 14.2945 19.248 14.384 19.6113C14.6526 20.4288 15.4583 20.7922 16.264 20.5197C16.7117 20.338 16.9802 20.0655 17.1593 19.6113C17.6069 18.3396 17.2488 16.9771 16.4431 15.9779C16.8012 15.7962 17.2488 15.6145 17.786 15.6145C19.3079 15.6145 20.4717 16.8862 20.4717 18.3396V33.4183H2.92493V18.5213ZM21.725 38.7776H1.76112V34.5083H21.8145L21.725 38.7776Z"/>
<path d="M11.1612 9.25606C10.8926 9.3469 10.8031 9.61941 10.8926 9.80108C10.9821 9.98275 11.1612 10.0736 11.3402 10.0736C11.4297 10.0736 11.4297 10.0736 11.5193 10.0736C12.2355 9.80108 12.8621 9.3469 13.2202 8.62022C13.5783 7.89353 13.6678 7.16685 13.3993 6.34933C13.3097 5.98599 13.0412 5.62264 12.7726 5.2593C11.6983 4.07844 11.6983 2.35257 12.7726 1.17171C12.9516 0.990035 12.9516 0.717529 12.7726 0.535858C12.5935 0.354187 12.325 0.354187 12.1459 0.535858C10.8031 2.08006 10.8031 4.35095 12.1459 5.80432C12.325 5.98599 12.504 6.25849 12.5935 6.531C12.7726 7.07601 12.6831 7.62103 12.504 8.0752C12.325 8.52938 11.6983 9.07439 11.1612 9.25606Z"/>
<path d="M16.5326 9.25607C16.264 9.3469 16.1745 9.61941 16.264 9.80108C16.3536 9.98275 16.5326 10.0736 16.7117 10.0736C16.8012 10.0736 16.8012 10.0736 16.8907 10.0736C18.4126 9.61941 19.2183 7.89353 18.7707 6.44016C18.6812 6.07682 18.4126 5.71348 18.1441 5.35014C17.0698 4.16928 17.0698 2.4434 18.1441 1.26254C18.3231 1.08087 18.3231 0.808364 18.1441 0.626694C17.965 0.445023 17.6964 0.445023 17.5174 0.626694C16.1745 2.1709 16.1745 4.44178 17.5174 5.89515C17.6964 6.07682 17.8755 6.34933 17.965 6.62184C18.1441 7.8027 17.6069 8.89272 16.5326 9.25607Z"/>
<path d="M5.78971 9.25607C5.52113 9.3469 5.43161 9.52857 5.52113 9.80108C5.61066 9.98275 5.78971 10.0736 5.96876 10.0736C6.05828 10.0736 6.05828 10.0736 6.1478 10.0736C7.66972 9.61941 8.47543 7.89353 8.02781 6.44016C7.93829 5.98599 7.66972 5.62264 7.40114 5.35014C6.32685 4.16928 6.32685 2.4434 7.40114 1.26254C7.58019 1.08087 7.58019 0.808364 7.40114 0.626694C7.22209 0.445023 6.95352 0.445023 6.77447 0.626694C5.43161 2.1709 5.43161 4.44178 6.77447 5.89515C6.95352 6.07682 7.13257 6.34933 7.2221 6.62184C7.40114 7.8027 6.864 8.89272 5.78971 9.25607Z"/>
</mask>
<path d="M22.1726 33.6H21.4564V18.5213C21.4564 16.5229 19.845 14.8879 17.8755 14.8879C17.1593 14.8879 16.4431 15.1604 15.8164 15.5237C15.5478 15.342 15.2793 15.1604 15.0107 15.0695C14.1155 14.7062 13.1307 14.797 12.2355 15.2512C12.0564 15.342 11.9669 15.4329 11.7878 15.5237C11.5193 15.342 11.2507 15.1604 10.9821 15.0695C10.0869 14.797 9.1021 14.8879 8.20686 15.342C8.02781 15.4329 7.93829 15.5237 7.75924 15.6145C7.49067 15.4329 7.22209 15.2512 6.95352 15.1604C5.07351 14.5245 3.01446 15.5237 2.38779 17.4313C2.29826 17.7946 2.20874 18.2488 2.20874 18.6121V33.6908H1.49254C1.22397 33.6908 1.04492 33.8725 1.04492 34.145V39.3226C1.04492 39.5951 1.22397 39.7768 1.49254 39.7768H6.32685V42.6835C6.32685 42.956 6.5059 43.1377 6.77447 43.1377C7.04305 43.1377 7.2221 42.956 7.2221 42.6835V39.7768H16.7117V42.6835C16.7117 42.956 16.8907 43.1377 17.1593 43.1377C17.4279 43.1377 17.6069 42.956 17.6069 42.6835V39.7768H22.4412C22.7098 39.7768 22.8888 39.5951 22.8888 39.3226V34.145C22.6203 33.7816 22.4412 33.6 22.1726 33.6ZM15.8164 16.7046C16.4431 17.4313 16.7117 18.4304 16.3536 19.4296C16.264 19.6113 16.1745 19.7021 15.9955 19.793C15.7269 19.8838 15.3688 19.7021 15.2793 19.4296C15.1898 19.1571 15.1002 18.7938 15.1002 18.5213C15.1002 17.8854 15.3688 17.2496 15.8164 16.7046ZM11.1612 17.6129C11.2507 17.2496 11.4297 16.9771 11.6983 16.7046C12.325 17.4313 12.5935 18.4304 12.2355 19.4296C12.1459 19.6113 12.0564 19.7021 11.8774 19.793C11.6088 19.8838 11.2507 19.7021 11.1612 19.4296C10.9821 18.8846 10.9821 18.3396 11.1612 17.6129ZM7.13257 17.6129C7.2221 17.2496 7.40114 16.9771 7.66972 16.7046C8.29639 17.4313 8.56496 18.4304 8.20686 19.4296C8.11734 19.6113 8.02781 19.7021 7.84876 19.793C7.58019 19.8838 7.2221 19.7021 7.13257 19.4296C6.95352 18.8846 6.95352 18.3396 7.13257 17.6129ZM2.92493 18.5213C2.92493 18.2488 3.01446 17.8854 3.10398 17.6129C3.64112 16.1596 5.16304 15.4329 6.59543 15.8871C6.77447 15.9779 6.864 15.9779 7.04305 16.0687C6.77447 16.4321 6.5059 16.7954 6.32685 17.2496C6.05828 18.0671 6.05828 18.8846 6.32685 19.7021C6.59543 20.5197 7.40114 20.883 8.20686 20.6105C8.65448 20.4288 8.92306 20.1563 9.1021 19.7021C9.54973 18.4304 9.19163 17.0679 8.38591 16.0687C9.01258 15.7054 9.8183 15.6145 10.624 15.8871C10.8031 15.9779 10.8926 15.9779 11.0716 16.0687C10.8031 16.4321 10.5345 16.7954 10.3554 17.2496C10.0869 18.0671 10.0869 18.8846 10.3554 19.7021C10.624 20.5197 11.4297 20.883 12.2355 20.6105C12.6831 20.4288 12.9516 20.1563 13.1307 19.7021C13.4888 18.7938 13.3993 17.7946 12.9516 16.8862C12.7726 16.6137 12.5935 16.3412 12.4145 16.0687C13.0412 15.7054 13.8469 15.6145 14.6526 15.8871C14.8317 15.9779 14.9212 15.9779 15.1002 16.0687C14.5631 16.7046 14.205 17.5221 14.205 18.4304C14.205 18.8846 14.2945 19.248 14.384 19.6113C14.6526 20.4288 15.4583 20.7922 16.264 20.5197C16.7117 20.338 16.9802 20.0655 17.1593 19.6113C17.6069 18.3396 17.2488 16.9771 16.4431 15.9779C16.8012 15.7962 17.2488 15.6145 17.786 15.6145C19.3079 15.6145 20.4717 16.8862 20.4717 18.3396V33.4183H2.92493V18.5213ZM21.725 38.7776H1.76112V34.5083H21.8145L21.725 38.7776Z" fill="white"/>
<path d="M11.1612 9.25606C10.8926 9.3469 10.8031 9.61941 10.8926 9.80108C10.9821 9.98275 11.1612 10.0736 11.3402 10.0736C11.4297 10.0736 11.4297 10.0736 11.5193 10.0736C12.2355 9.80108 12.8621 9.3469 13.2202 8.62022C13.5783 7.89353 13.6678 7.16685 13.3993 6.34933C13.3097 5.98599 13.0412 5.62264 12.7726 5.2593C11.6983 4.07844 11.6983 2.35257 12.7726 1.17171C12.9516 0.990035 12.9516 0.717529 12.7726 0.535858C12.5935 0.354187 12.325 0.354187 12.1459 0.535858C10.8031 2.08006 10.8031 4.35095 12.1459 5.80432C12.325 5.98599 12.504 6.25849 12.5935 6.531C12.7726 7.07601 12.6831 7.62103 12.504 8.0752C12.325 8.52938 11.6983 9.07439 11.1612 9.25606Z" fill="white"/>
<path d="M16.5326 9.25607C16.264 9.3469 16.1745 9.61941 16.264 9.80108C16.3536 9.98275 16.5326 10.0736 16.7117 10.0736C16.8012 10.0736 16.8012 10.0736 16.8907 10.0736C18.4126 9.61941 19.2183 7.89353 18.7707 6.44016C18.6812 6.07682 18.4126 5.71348 18.1441 5.35014C17.0698 4.16928 17.0698 2.4434 18.1441 1.26254C18.3231 1.08087 18.3231 0.808364 18.1441 0.626694C17.965 0.445023 17.6964 0.445023 17.5174 0.626694C16.1745 2.1709 16.1745 4.44178 17.5174 5.89515C17.6964 6.07682 17.8755 6.34933 17.965 6.62184C18.1441 7.8027 17.6069 8.89272 16.5326 9.25607Z" fill="white"/>
<path d="M5.78971 9.25607C5.52113 9.3469 5.43161 9.52857 5.52113 9.80108C5.61066 9.98275 5.78971 10.0736 5.96876 10.0736C6.05828 10.0736 6.05828 10.0736 6.1478 10.0736C7.66972 9.61941 8.47543 7.89353 8.02781 6.44016C7.93829 5.98599 7.66972 5.62264 7.40114 5.35014C6.32685 4.16928 6.32685 2.4434 7.40114 1.26254C7.58019 1.08087 7.58019 0.808364 7.40114 0.626694C7.22209 0.445023 6.95352 0.445023 6.77447 0.626694C5.43161 2.1709 5.43161 4.44178 6.77447 5.89515C6.95352 6.07682 7.13257 6.34933 7.2221 6.62184C7.40114 7.8027 6.864 8.89272 5.78971 9.25607Z" fill="white"/>
<path d="M22.1726 33.6H21.4564V18.5213C21.4564 16.5229 19.845 14.8879 17.8755 14.8879C17.1593 14.8879 16.4431 15.1604 15.8164 15.5237C15.5478 15.342 15.2793 15.1604 15.0107 15.0695C14.1155 14.7062 13.1307 14.797 12.2355 15.2512C12.0564 15.342 11.9669 15.4329 11.7878 15.5237C11.5193 15.342 11.2507 15.1604 10.9821 15.0695C10.0869 14.797 9.1021 14.8879 8.20686 15.342C8.02781 15.4329 7.93829 15.5237 7.75924 15.6145C7.49067 15.4329 7.22209 15.2512 6.95352 15.1604C5.07351 14.5245 3.01446 15.5237 2.38779 17.4313C2.29826 17.7946 2.20874 18.2488 2.20874 18.6121V33.6908H1.49254C1.22397 33.6908 1.04492 33.8725 1.04492 34.145V39.3226C1.04492 39.5951 1.22397 39.7768 1.49254 39.7768H6.32685V42.6835C6.32685 42.956 6.5059 43.1377 6.77447 43.1377C7.04305 43.1377 7.2221 42.956 7.2221 42.6835V39.7768H16.7117V42.6835C16.7117 42.956 16.8907 43.1377 17.1593 43.1377C17.4279 43.1377 17.6069 42.956 17.6069 42.6835V39.7768H22.4412C22.7098 39.7768 22.8888 39.5951 22.8888 39.3226V34.145C22.6203 33.7816 22.4412 33.6 22.1726 33.6ZM15.8164 16.7046C16.4431 17.4313 16.7117 18.4304 16.3536 19.4296C16.264 19.6113 16.1745 19.7021 15.9955 19.793C15.7269 19.8838 15.3688 19.7021 15.2793 19.4296C15.1898 19.1571 15.1002 18.7938 15.1002 18.5213C15.1002 17.8854 15.3688 17.2496 15.8164 16.7046ZM11.1612 17.6129C11.2507 17.2496 11.4297 16.9771 11.6983 16.7046C12.325 17.4313 12.5935 18.4304 12.2355 19.4296C12.1459 19.6113 12.0564 19.7021 11.8774 19.793C11.6088 19.8838 11.2507 19.7021 11.1612 19.4296C10.9821 18.8846 10.9821 18.3396 11.1612 17.6129ZM7.13257 17.6129C7.2221 17.2496 7.40114 16.9771 7.66972 16.7046C8.29639 17.4313 8.56496 18.4304 8.20686 19.4296C8.11734 19.6113 8.02781 19.7021 7.84876 19.793C7.58019 19.8838 7.2221 19.7021 7.13257 19.4296C6.95352 18.8846 6.95352 18.3396 7.13257 17.6129ZM2.92493 18.5213C2.92493 18.2488 3.01446 17.8854 3.10398 17.6129C3.64112 16.1596 5.16304 15.4329 6.59543 15.8871C6.77447 15.9779 6.864 15.9779 7.04305 16.0687C6.77447 16.4321 6.5059 16.7954 6.32685 17.2496C6.05828 18.0671 6.05828 18.8846 6.32685 19.7021C6.59543 20.5197 7.40114 20.883 8.20686 20.6105C8.65448 20.4288 8.92306 20.1563 9.1021 19.7021C9.54973 18.4304 9.19163 17.0679 8.38591 16.0687C9.01258 15.7054 9.8183 15.6145 10.624 15.8871C10.8031 15.9779 10.8926 15.9779 11.0716 16.0687C10.8031 16.4321 10.5345 16.7954 10.3554 17.2496C10.0869 18.0671 10.0869 18.8846 10.3554 19.7021C10.624 20.5197 11.4297 20.883 12.2355 20.6105C12.6831 20.4288 12.9516 20.1563 13.1307 19.7021C13.4888 18.7938 13.3993 17.7946 12.9516 16.8862C12.7726 16.6137 12.5935 16.3412 12.4145 16.0687C13.0412 15.7054 13.8469 15.6145 14.6526 15.8871C14.8317 15.9779 14.9212 15.9779 15.1002 16.0687C14.5631 16.7046 14.205 17.5221 14.205 18.4304C14.205 18.8846 14.2945 19.248 14.384 19.6113C14.6526 20.4288 15.4583 20.7922 16.264 20.5197C16.7117 20.338 16.9802 20.0655 17.1593 19.6113C17.6069 18.3396 17.2488 16.9771 16.4431 15.9779C16.8012 15.7962 17.2488 15.6145 17.786 15.6145C19.3079 15.6145 20.4717 16.8862 20.4717 18.3396V33.4183H2.92493V18.5213ZM21.725 38.7776H1.76112V34.5083H21.8145L21.725 38.7776Z" stroke="white" stroke-width="0.379894" mask="url(#path-1-outside-1_1_902)"/>
<path d="M11.1612 9.25606C10.8926 9.3469 10.8031 9.61941 10.8926 9.80108C10.9821 9.98275 11.1612 10.0736 11.3402 10.0736C11.4297 10.0736 11.4297 10.0736 11.5193 10.0736C12.2355 9.80108 12.8621 9.3469 13.2202 8.62022C13.5783 7.89353 13.6678 7.16685 13.3993 6.34933C13.3097 5.98599 13.0412 5.62264 12.7726 5.2593C11.6983 4.07844 11.6983 2.35257 12.7726 1.17171C12.9516 0.990035 12.9516 0.717529 12.7726 0.535858C12.5935 0.354187 12.325 0.354187 12.1459 0.535858C10.8031 2.08006 10.8031 4.35095 12.1459 5.80432C12.325 5.98599 12.504 6.25849 12.5935 6.531C12.7726 7.07601 12.6831 7.62103 12.504 8.0752C12.325 8.52938 11.6983 9.07439 11.1612 9.25606Z" stroke="white" stroke-width="0.379894" mask="url(#path-1-outside-1_1_902)"/>
<path d="M16.5326 9.25607C16.264 9.3469 16.1745 9.61941 16.264 9.80108C16.3536 9.98275 16.5326 10.0736 16.7117 10.0736C16.8012 10.0736 16.8012 10.0736 16.8907 10.0736C18.4126 9.61941 19.2183 7.89353 18.7707 6.44016C18.6812 6.07682 18.4126 5.71348 18.1441 5.35014C17.0698 4.16928 17.0698 2.4434 18.1441 1.26254C18.3231 1.08087 18.3231 0.808364 18.1441 0.626694C17.965 0.445023 17.6964 0.445023 17.5174 0.626694C16.1745 2.1709 16.1745 4.44178 17.5174 5.89515C17.6964 6.07682 17.8755 6.34933 17.965 6.62184C18.1441 7.8027 17.6069 8.89272 16.5326 9.25607Z" stroke="white" stroke-width="0.379894" mask="url(#path-1-outside-1_1_902)"/>
<path d="M5.78971 9.25607C5.52113 9.3469 5.43161 9.52857 5.52113 9.80108C5.61066 9.98275 5.78971 10.0736 5.96876 10.0736C6.05828 10.0736 6.05828 10.0736 6.1478 10.0736C7.66972 9.61941 8.47543 7.89353 8.02781 6.44016C7.93829 5.98599 7.66972 5.62264 7.40114 5.35014C6.32685 4.16928 6.32685 2.4434 7.40114 1.26254C7.58019 1.08087 7.58019 0.808364 7.40114 0.626694C7.22209 0.445023 6.95352 0.445023 6.77447 0.626694C5.43161 2.1709 5.43161 4.44178 6.77447 5.89515C6.95352 6.07682 7.13257 6.34933 7.2221 6.62184C7.40114 7.8027 6.864 8.89272 5.78971 9.25607Z" stroke="white" stroke-width="0.379894" mask="url(#path-1-outside-1_1_902)"/>
</svg>
