<svg width="38" height="35" viewBox="0 0 38 35" fill="none" xmlns="http://www.w3.org/2000/svg">
<path d="M18.924 0.513501H18.9147L18.9056 0.515313C18.6567 0.56463 18.4414 0.766208 18.4414 1.03519V5.30229C18.4414 5.45215 18.4923 5.58429 18.588 5.67912C18.6836 5.77387 18.8166 5.82397 18.9671 5.82397C19.1176 5.82397 19.2506 5.77387 19.3462 5.67912C19.4419 5.58429 19.4928 5.45215 19.4928 5.30229V1.03519C19.4928 0.885322 19.4419 0.753178 19.3462 0.658352C19.2506 0.563604 19.1176 0.513501 18.9671 0.513501H18.924ZM11.216 3.08349L11.221 3.09337L11.2281 3.10184L13.3815 5.6621L13.3812 5.66235L13.3874 5.66843C13.5836 5.8628 13.9029 5.93023 14.124 5.71112C14.3194 5.51757 14.3884 5.20177 14.1703 4.98197L12.0299 2.43729C11.9953 2.35296 11.9249 2.28913 11.849 2.25154C11.7693 2.21207 11.6703 2.19493 11.5784 2.22325C11.4563 2.24849 11.3321 2.30963 11.2424 2.40487C11.1507 2.50217 11.0957 2.63526 11.1197 2.79282C11.1222 2.89814 11.1727 2.99801 11.2116 3.07476C11.213 3.0777 11.2145 3.08062 11.216 3.08349ZM25.8775 2.41852L25.8772 2.41824L25.8717 2.42485L23.7208 4.98201C23.6136 5.09031 23.5758 5.23586 23.5887 5.37004C23.6016 5.5045 23.6664 5.63746 23.7773 5.71988C23.8833 5.79866 24.0241 5.83542 24.1561 5.82919C24.2869 5.82301 24.4243 5.77333 24.5111 5.66035L26.6604 3.10497C26.8729 2.89089 26.8129 2.58577 26.6291 2.3912C26.5964 2.31235 26.5372 2.2561 26.4639 2.22702C26.3904 2.1979 26.3082 2.19797 26.2305 2.22065C26.0703 2.2271 25.9632 2.33343 25.8854 2.41071L25.8775 2.41852ZM13.3874 28.8319L13.3871 28.8316L13.3815 28.8382L11.2307 31.3954C11.1235 31.5037 11.0856 31.6492 11.0985 31.7834C11.1113 31.9157 11.1742 32.0465 11.2818 32.1292C11.3908 32.2341 11.5364 32.2709 11.6704 32.2582C11.8045 32.2456 11.9376 32.1825 12.021 32.0737L14.1703 29.5183C14.3847 29.3023 14.3217 28.9935 14.1339 28.7992C14.0967 28.7366 14.0349 28.6966 13.9737 28.6724C13.9067 28.6458 13.8299 28.6337 13.7557 28.6337C13.587 28.6337 13.4755 28.7443 13.3953 28.8241L13.3874 28.8319ZM18.924 28.6337H18.9147L18.9056 28.6355C18.6567 28.6848 18.4414 28.8864 18.4414 29.1554V33.4225C18.4414 33.5724 18.4923 33.7045 18.588 33.7993C18.6836 33.8941 18.8166 33.9442 18.9671 33.9442C19.1176 33.9442 19.2506 33.8941 19.3462 33.7993C19.4419 33.7045 19.4928 33.5724 19.4928 33.4225V29.1554C19.4928 29.0055 19.4419 28.8734 19.3462 28.7785C19.2506 28.6838 19.1176 28.6337 18.9671 28.6337H18.924ZM24.0924 28.6337H24.083L24.0739 28.6355C23.9501 28.66 23.8236 28.7216 23.7325 28.8182C23.6409 28.9155 23.5858 29.0486 23.6099 29.2062C23.6124 29.3115 23.6629 29.4114 23.7017 29.4882L23.7061 29.4969L23.7111 29.5067L23.7182 29.5152L25.8717 32.0755L25.8714 32.0757L25.8775 32.0818C26.0737 32.2762 26.393 32.3436 26.6142 32.1245C26.8095 31.9309 26.8785 31.6151 26.6604 31.3953L24.52 28.8506C24.483 28.7619 24.4068 28.7086 24.3332 28.6782C24.2542 28.6456 24.1658 28.6337 24.0924 28.6337ZM2.60074 9.90113C1.34317 9.90113 0.352292 10.8816 0.352292 12.1297V22.3707C0.352292 23.6188 1.34317 24.5992 2.60074 24.5992H35.3335C36.591 24.5992 37.5819 23.6188 37.5819 22.3707V12.1297C37.5819 10.8816 36.591 9.90113 35.3335 9.90113H2.60074ZM2.60074 10.9445H10.6889V23.5559H2.60074C1.92017 23.5559 1.40363 23.0428 1.40363 22.3707V12.1297C1.40363 11.4575 1.92017 10.9445 2.60074 10.9445ZM11.7403 10.9445H26.1939V23.5559H11.7403V10.9445ZM27.2453 10.9445H35.3335C36.014 10.9445 36.5306 11.4575 36.5306 12.1297V22.3707C36.5306 23.0428 36.014 23.5559 35.3335 23.5559H27.2453V10.9445ZM18.9671 13.7415C18.4417 13.7415 18.0107 14.1673 18.0107 14.6899V16.3018H16.3829C15.8576 16.3018 15.4266 16.7275 15.4266 17.2502C15.4266 17.7728 15.8576 18.1986 16.3829 18.1986H18.0107V19.8104C18.0107 20.3331 18.4417 20.7588 18.9671 20.7588C19.4925 20.7588 19.9235 20.3331 19.9235 19.8104V18.1986H21.5513C22.0767 18.1986 22.5076 17.7728 22.5076 17.2502C22.5076 16.7275 22.0767 16.3018 21.5513 16.3018H19.9235V14.6899C19.9235 14.1673 19.4925 13.7415 18.9671 13.7415Z" fill="white" stroke="white" stroke-width="0.189947"/>
</svg>
