<svg width="39" height="40" viewBox="0 0 39 40" fill="none" xmlns="http://www.w3.org/2000/svg">
<path d="M13.5996 19.5711L13.5987 19.5702C12.8447 18.8371 11.7307 17.4918 11.3618 15.7771C10.9946 14.0707 11.3617 11.9817 13.5996 9.74376C13.8056 9.53783 13.8056 9.22443 13.5996 9.0185C13.3937 8.81257 13.0803 8.81257 12.8744 9.0185C10.2771 11.6157 9.93906 14.0975 10.4274 16.0993C10.9137 18.0923 12.2154 19.5953 12.8744 20.2542C13.6078 20.9876 14.7116 22.3331 15.0805 24.0481C15.4478 25.755 15.0908 27.8441 12.8742 30.0817C12.6684 30.2876 12.6685 30.6009 12.8744 30.8068C12.9222 30.8546 12.9738 30.8942 13.0349 30.9214C13.0963 30.9487 13.1626 30.9612 13.237 30.9612C13.3449 30.9612 13.4962 30.9102 13.5996 30.8068C16.1968 28.2096 16.5349 25.7277 16.0466 23.726C15.5603 21.733 14.2585 20.23 13.5996 19.5711ZM19.442 0.844068C8.92133 0.844068 0.352292 9.4131 0.352292 19.9338C0.352292 30.4544 8.92133 39.0234 19.442 39.0234C29.9626 39.0234 38.5317 30.4544 38.5317 19.9338C38.5317 9.4131 29.9626 0.844068 19.442 0.844068ZM19.442 37.9893C9.49055 37.9893 1.38645 29.8852 1.38645 19.9338C1.38645 9.98232 9.49055 1.87822 19.442 1.87822C29.3934 1.87822 37.4975 9.98232 37.4975 19.9338C37.4975 29.8852 29.3934 37.9893 19.442 37.9893ZM19.8892 9.74361C20.095 9.53767 20.0949 9.22438 19.889 9.0185C19.6831 8.81257 19.3697 8.81257 19.1638 9.01851C16.5666 11.6157 16.2285 14.0975 16.7168 16.0993C17.2031 18.0923 18.5049 19.5953 19.1638 20.2542C19.8972 20.9876 21.001 22.3331 21.37 24.0481C21.7372 25.755 21.3802 27.8442 19.1635 30.0818C18.9578 30.2878 18.958 30.601 19.1638 30.8068C19.2116 30.8546 19.2632 30.8942 19.3243 30.9214C19.3858 30.9487 19.452 30.9612 19.5264 30.9612C19.6343 30.9612 19.7856 30.9102 19.889 30.8068C22.4863 28.2096 22.8243 25.7277 22.336 23.726C21.8497 21.733 20.548 20.23 19.889 19.5711C19.1556 18.8377 18.0518 17.4922 17.6829 15.7771C17.3156 14.0703 17.6726 11.9812 19.8892 9.74361ZM26.1785 9.74361C26.3843 9.53767 26.3842 9.22438 26.1784 9.0185C25.9724 8.81257 25.659 8.81257 25.4531 9.01851C22.8559 11.6157 22.5178 14.0975 23.0062 16.0993C23.4924 18.0923 24.7942 19.5953 25.4531 20.2542C26.1866 20.9876 27.2903 22.3331 27.6593 24.0481C28.0265 25.755 27.6696 27.8442 25.4528 30.0818C25.2472 30.2878 25.2473 30.601 25.4531 30.8068C25.5009 30.8546 25.5525 30.8942 25.6136 30.9214C25.6751 30.9487 25.7413 30.9612 25.8157 30.9612C25.9236 30.9612 26.075 30.9102 26.1784 30.8068C28.7756 28.2096 29.1137 25.7277 28.6253 23.726C28.1391 21.733 26.8373 20.23 26.1784 19.5711C25.4449 18.8377 24.3412 17.4922 23.9722 15.7771C23.6049 14.0703 23.9619 11.9812 26.1785 9.74361Z" fill="white" stroke="white" stroke-width="0.189947"/>
</svg>
