<svg width="39" height="50" viewBox="0 0 39 50" fill="none" xmlns="http://www.w3.org/2000/svg">
<path d="M0 4.2389L0 45.7611C0 48.0973 1.9254 50 4.28936 50H34.7106C37.0853 50 39 48.0973 39 45.7611V4.2389C39 1.89218 37.0746 0 34.7106 0H4.28936C1.9254 0 0 1.89218 0 4.2389ZM34.7106 1.2685C36.3686 1.2685 37.7164 2.60042 37.7164 4.2389V45.7611C37.7164 47.3996 36.3686 48.7315 34.7106 48.7315H4.28936C2.63138 48.7315 1.2836 47.3996 1.2836 45.7611L1.2836 4.2389C1.2836 2.60042 2.63138 1.2685 4.28936 1.2685H34.7106Z" fill="white"/>
<path d="M16.0236 36.3742C16.0236 36.0254 15.7348 35.74 15.3818 35.74H10.932C10.579 35.74 10.2902 36.0254 10.2902 36.3742C10.2902 36.723 10.579 37.0085 10.932 37.0085H15.3818C15.7348 37.0085 16.0236 36.723 16.0236 36.3742Z" fill="white"/>
<path d="M25.1799 36.3742C25.1799 34.6512 23.768 33.2452 22.0244 33.2452C20.2809 33.2452 18.8582 34.6406 18.8582 36.3742C18.8582 38.1078 20.2702 39.5032 22.0137 39.5032C23.768 39.4926 25.1799 38.0973 25.1799 36.3742ZM20.1418 36.3742C20.1418 35.3488 20.9761 34.5243 22.0137 34.5137C23.0513 34.5032 23.8856 35.3383 23.8856 36.3636C23.8856 37.389 23.0513 38.2135 22.0137 38.2241C20.9868 38.2241 20.1418 37.3996 20.1418 36.3742Z" fill="white"/>
<path d="M16.0236 25C16.0236 24.6512 15.7348 24.3657 15.3818 24.3657H10.932C10.579 24.3657 10.2902 24.6512 10.2902 25C10.2902 25.3488 10.579 25.6342 10.932 25.6342H15.3818C15.7348 25.6342 16.0236 25.3488 16.0236 25Z" fill="white"/>
<path d="M25.1799 25C25.1799 23.277 23.768 21.871 22.0244 21.871C20.2809 21.871 18.8582 23.2664 18.8582 25C18.8582 26.7336 20.2702 28.1184 22.0244 28.1184C23.768 28.1184 25.1799 26.723 25.1799 25ZM20.1418 25C20.1418 23.9746 20.9761 23.1501 22.0137 23.1501C23.0513 23.1501 23.8856 23.9746 23.8856 25C23.8856 26.0254 23.0513 26.8499 22.0137 26.8499C20.9868 26.8499 20.1418 26.0254 20.1418 25Z" fill="white"/>
<path d="M7.54114 10.9091L7.54114 16.3425C7.54114 17.5264 8.12946 18.6469 9.12425 19.3129C8.12946 19.9894 7.54114 21.0994 7.54114 22.2833V27.7167C7.54114 28.9006 8.12946 30.0211 9.12425 30.6871C8.12946 31.3636 7.54114 32.4736 7.54114 33.6575V39.0909C7.54114 41.0782 9.17773 42.6956 11.1887 42.6956H27.8113C29.8223 42.6956 31.4589 41.0782 31.4589 39.0909V33.6575C31.4589 32.4736 30.8705 31.3531 29.8758 30.6871C30.8705 30.0106 31.4589 28.9006 31.4589 27.7167V22.2833C31.4589 21.0994 30.8598 19.9789 29.8758 19.3129C30.8705 18.6364 31.4589 17.5264 31.4589 16.3425V10.9091C31.4589 8.92178 29.8223 7.30444 27.8113 7.30444H11.1994C9.17773 7.30444 7.55184 8.91121 7.54114 10.9091ZM8.82474 16.3319V10.8985C8.82474 9.60888 9.88371 8.56237 11.1887 8.56237H23.8108C25.1157 8.56237 26.1747 9.60888 26.1747 10.8985V16.3319C26.1747 17.6216 25.1157 18.6681 23.8108 18.6681H11.1887C9.88371 18.6681 8.83544 17.6216 8.82474 16.3319ZM8.82474 27.7167V22.2833C8.82474 20.9937 9.88371 19.9471 11.1887 19.9471H23.8108C25.1157 19.9471 26.1747 20.9937 26.1747 22.2833V27.7167C26.1747 29.0063 25.1157 30.0529 23.8108 30.0529H11.1887C9.88371 30.0529 8.83544 29.0063 8.82474 27.7167ZM11.1994 41.4271C9.8944 41.4271 8.83544 40.3805 8.83544 39.0909L8.83544 33.6575C8.83544 32.3679 9.8944 31.3214 11.1994 31.3214H23.8214C25.1264 31.3214 26.1854 32.3679 26.1854 33.6575V39.0909C26.1854 40.3805 25.1264 41.4271 23.8214 41.4271H11.1994ZM30.1753 33.6575V39.0909C30.1753 40.3805 29.1163 41.4271 27.8113 41.4271H26.6026C27.1695 40.7717 27.4797 39.9471 27.4797 39.0909V33.6575C27.4797 32.8013 27.1695 31.9662 26.6026 31.3214H27.8113C29.1163 31.3214 30.1753 32.3679 30.1753 33.6575ZM30.1753 22.2833V27.7167C30.1753 29.0063 29.1163 30.0529 27.8113 30.0529H26.6026C27.1695 29.3975 27.4797 28.5729 27.4797 27.7167V22.2833C27.4797 21.4271 27.1695 20.592 26.6026 19.9471H27.8113C29.1163 19.9471 30.1753 20.9937 30.1753 22.2833ZM30.1753 10.9091V16.3425C30.1753 17.6321 29.1163 18.6786 27.8113 18.6786H26.6026C27.1695 18.0233 27.4797 17.1987 27.4797 16.3425V10.9091C27.4797 10.0529 27.1695 9.21776 26.6026 8.57294H27.8113C29.1163 8.57294 30.1753 9.61945 30.1753 10.9091Z" fill="white"/>
<path d="M16.0236 13.6258C16.0236 13.277 15.7348 12.9915 15.3818 12.9915H10.932C10.579 12.9915 10.2902 13.277 10.2902 13.6258C10.2902 13.9746 10.579 14.26 10.932 14.26H15.3818C15.7348 14.26 16.0236 13.9746 16.0236 13.6258Z" fill="white"/>
<path d="M25.1799 13.6258C25.1799 11.9027 23.768 10.4968 22.0137 10.4968C20.2595 10.4968 18.8475 11.8922 18.8475 13.6258C18.8475 15.3594 20.2595 16.7548 22.0137 16.7548C23.768 16.7442 25.1799 15.3488 25.1799 13.6258ZM20.1418 13.6258C20.1418 12.6004 20.9761 11.7759 22.0137 11.7759C23.0513 11.7759 23.8856 12.6004 23.8856 13.6258C23.8856 14.6512 23.0513 15.4757 22.0137 15.4757C20.9868 15.4757 20.1418 14.6406 20.1418 13.6258Z" fill="white"/>
</svg>
