<svg width="31" height="35" viewBox="0 0 31 35" fill="none" xmlns="http://www.w3.org/2000/svg">
<path d="M13.5488 9.89188L13.5489 9.8918C13.7442 9.69887 14.0918 9.69887 14.2871 9.8918C14.4007 10.0041 14.4596 10.1375 14.4645 10.2729C14.4694 10.4082 14.4203 10.5416 14.3253 10.6543L14.3224 10.6578L14.3222 10.6577L6.62416 18.265C6.50692 18.3809 6.35226 18.4184 6.2375 18.4184C6.08571 18.4184 5.96697 18.3798 5.85085 18.265C5.65531 18.0718 5.65528 17.7273 5.85077 17.534L13.5488 9.89188ZM13.5488 9.89188L5.85085 17.5339L13.5488 9.89188ZM25.5087 10.285L25.5086 10.2847L6.51871 22.3979C6.51871 28.7895 11.7914 34 18.2591 34C24.7269 34 29.9996 28.7895 29.9996 22.3979L30.0496 22.3984C30.0496 22.3984 30.0496 22.3983 30.0496 22.3982C30.0672 20.7902 29.5105 18.7942 28.6619 16.6867C27.8127 14.578 26.6692 12.3527 25.5087 10.285ZM0.95 14.0958C0.95 17.7873 3.23337 20.9922 6.46871 22.3616L20.087 1.93789L20.1277 1.90883C20.1275 1.90862 20.1274 1.90841 20.1272 1.9082C19.696 1.30494 19.0132 0.95 18.2591 0.95C17.5048 0.95 16.8218 1.30518 16.3906 1.90883L16.3903 1.90921C16.3751 1.93103 16.358 1.95529 16.3394 1.98193C15.9737 2.5033 14.9688 3.93619 13.741 5.86895C12.6194 5.35657 11.3613 5.08368 10.069 5.08368C5.05046 5.08368 0.95 9.13499 0.95 14.0958ZM17.2796 2.52391L17.2806 2.52259C17.5161 2.19012 17.8865 2.02263 18.2943 2.02263C18.6991 2.02263 19.0714 2.22261 19.3088 2.52363C19.8023 3.22036 22.2341 6.67368 24.5429 10.7121C25.6979 12.7323 26.8216 14.898 27.6564 16.9376C28.4917 18.9785 29.0357 20.8882 29.0357 22.3979C29.0357 28.2402 24.2078 33.0121 18.2943 33.0121C12.4742 33.0121 7.73114 28.4157 7.55484 22.7433C8.34935 22.9756 9.20902 23.1079 10.069 23.1079C15.0875 23.1079 19.1879 19.0566 19.1879 14.0958C19.1879 10.7955 17.3702 7.9102 14.7086 6.36682C15.9608 4.37548 16.9668 2.93608 17.2796 2.52391ZM25.8518 21.8616C25.581 21.8616 25.3097 22.0896 25.3097 22.3979C25.3097 26.2255 22.1339 29.3647 18.2591 29.3647C17.9509 29.3647 17.717 29.595 17.717 29.9011C17.717 30.2071 17.9509 30.4374 18.2591 30.4374C22.7143 30.4374 26.3572 26.8391 26.3587 22.4354C26.3769 22.2675 26.3295 22.1235 26.2358 22.0211C26.1418 21.9185 26.0048 21.8616 25.8518 21.8616ZM1.99908 14.0958C1.99908 9.71224 5.59683 6.12158 10.069 6.12158C14.5062 6.12158 18.1388 9.67779 18.1388 14.0958C18.1388 18.5135 14.5065 22.0353 10.069 22.0353C5.63155 22.0353 1.99908 18.4789 1.99908 14.0958ZM7.29203 13.1732C8.30331 13.1732 9.13474 12.3524 9.13474 11.3516C9.13474 10.3508 8.30331 9.53 7.29203 9.53C6.28075 9.53 5.44933 10.3508 5.44933 11.3516C5.44933 12.3524 6.28075 13.1732 7.29203 13.1732ZM7.29203 10.5679C7.72194 10.5679 8.08566 10.9282 8.08566 11.3516C8.08566 11.775 7.72194 12.1353 7.29203 12.1353C6.86212 12.1353 6.49841 11.775 6.49841 11.3516C6.49841 10.8948 6.86074 10.5679 7.29203 10.5679ZM12.8459 14.9837C11.8346 14.9837 11.0032 15.8045 11.0032 16.8053C11.0032 17.8061 11.8346 18.6268 12.8459 18.6268C13.8572 18.6268 14.6886 17.8061 14.6886 16.8053C14.6886 15.8045 13.8572 14.9837 12.8459 14.9837ZM12.8459 17.6237C12.416 17.6237 12.0523 17.2634 12.0523 16.84C12.0523 16.4166 12.416 16.0563 12.8459 16.0563C13.2758 16.0563 13.6395 16.4166 13.6395 16.84C13.6395 17.2634 13.2758 17.6237 12.8459 17.6237Z" fill="white" stroke="white" stroke-width="0.1"/>
</svg>
