<svg width="36" height="36" viewBox="0 0 36 36" fill="none" xmlns="http://www.w3.org/2000/svg">
<mask id="path-1-outside-1_1_922" maskUnits="userSpaceOnUse" x="-0.65332" y="-0.650909" width="37" height="37" fill="black">
<rect fill="white" x="-0.65332" y="-0.650909" width="37" height="37"/>
<path d="M19.5082 27.8694H7.67221C7.45029 27.8694 7.26535 28.0544 7.26535 28.2763C7.26535 28.4983 7.45029 28.6832 7.67221 28.6832H19.5082C21.1357 28.6832 22.5042 30.0148 22.5042 31.6794C22.5042 33.3439 21.1727 34.6755 19.5082 34.6755C17.8438 34.6755 16.5123 33.3439 16.5123 31.6794C16.5123 31.4574 16.3273 31.2725 16.1054 31.2725C15.8835 31.2725 15.6985 31.4574 15.6985 31.6794C15.6985 33.7878 17.4 35.4893 19.5082 35.4893C21.6165 35.4893 23.318 33.7878 23.318 31.6794C23.318 29.571 21.6165 27.8694 19.5082 27.8694Z"/>
<path d="M24.5386 20.3975C24.7605 20.3975 24.9454 20.2126 24.9454 19.9906C24.9454 18.3631 26.277 16.9945 27.9414 16.9945C29.5689 16.9945 30.9374 18.3261 30.9374 19.9906C30.9374 21.6552 29.6059 22.9868 27.9414 22.9868H8.78184C8.55992 22.9868 8.37498 23.1717 8.37498 23.3937C8.37498 23.6156 8.55992 23.8006 8.78184 23.8006H27.9414C30.0497 23.8006 31.7511 22.099 31.7511 19.9906C31.7511 17.8822 30.0497 16.1807 27.9414 16.1807C25.8331 16.1807 24.1317 17.8822 24.1317 19.9906C24.1317 20.2495 24.3166 20.3975 24.5386 20.3975Z"/>
<path d="M31.6772 25.3541H4.93513C4.71321 25.3541 4.52827 25.5391 4.52827 25.761C4.52827 25.983 4.71321 26.1679 4.93513 26.1679H31.6772C33.3046 26.1679 34.6732 27.4995 34.6732 29.1641C34.6732 30.7916 33.3416 32.1602 31.6772 32.1602C30.0497 32.1602 28.6812 30.8286 28.6812 29.1641C28.6812 28.9421 28.4962 28.7572 28.2743 28.7572C28.0524 28.7572 27.8674 28.9421 27.8674 29.1641C27.8674 31.2725 29.5689 32.974 31.6772 32.974C33.7855 32.974 35.4869 31.2725 35.4869 29.1641C35.4869 27.0557 33.7855 25.3541 31.6772 25.3541Z"/>
<path d="M5.60091 21.2483H5.6379C10.2613 21.2483 11.9628 17.5493 12.3327 14.6641C12.5176 15.2189 12.4806 15.7368 12.4066 15.9957C12.4066 16.0697 12.3696 16.1067 12.3696 16.1807C12.3696 16.1807 12.3696 16.1807 12.3696 16.2177C12.0368 17.7712 12.4806 19.2878 13.6272 20.2865C14.4779 21.0263 15.6245 21.3592 16.8451 21.2113C18.0287 21.0633 19.1384 20.4345 19.9521 19.4728C20.8028 18.474 21.2467 17.2534 21.2467 16.0327C21.2837 11.335 17.5479 9.59651 14.6629 9.22662C15.2177 9.04167 15.7355 9.07866 15.9944 9.15264C16.0684 9.15264 16.1054 9.18963 16.1424 9.18963H16.1794C17.7698 9.52254 19.2863 9.07866 20.248 7.96897C20.9877 7.11821 21.3206 5.97152 21.1727 4.75086C21.0247 3.56719 20.3959 2.4575 19.4343 1.64373C18.4356 0.792967 17.252 0.349091 15.9944 0.349091H15.9574C11.297 0.349091 9.59557 4.04806 9.22569 6.93326C9.04075 6.37841 9.07774 5.86056 9.15172 5.60163C9.15172 5.52765 9.1887 5.49066 9.1887 5.41668C9.1887 5.41668 9.1887 5.41668 9.1887 5.37969C9.52159 3.82612 9.07774 2.30954 7.93113 1.31082C7.08041 0.571029 5.9338 0.238121 4.75019 0.42307C3.56659 0.608018 2.45696 1.23684 1.64323 2.19858C0.792519 3.16031 0.31168 4.34398 0.348668 5.60163C0.31168 10.2623 4.04743 12.0008 6.93246 12.3707C6.37765 12.5557 5.85982 12.5187 5.60091 12.4447C5.52693 12.4447 5.48994 12.4077 5.45296 12.4077H5.41597C3.8255 12.0748 2.30901 12.5187 1.34733 13.6284C0.607581 14.4792 0.274693 15.6258 0.422643 16.8465C0.570594 18.0302 1.19938 19.1399 2.16106 19.9536C3.12274 20.7674 4.26935 21.2483 5.45296 21.2483C5.52693 21.2483 5.56392 21.2483 5.60091 21.2483ZM20.3959 15.9957C20.4329 17.0314 20.0261 18.0302 19.3233 18.8809C18.6205 19.6947 17.6959 20.2126 16.7342 20.3235C15.7725 20.4715 14.8478 20.2126 14.182 19.6207C13.2943 18.8439 12.9245 17.6233 13.2204 16.3656C13.2204 16.3286 13.2573 16.2547 13.2573 16.1807C13.3683 15.6998 13.4793 14.5531 12.7025 13.5544C13.5902 12.9626 14.145 11.9269 14.145 10.7802C14.145 10.5213 14.1081 10.2253 14.0341 10.0034C15.7725 10.1514 20.4329 11.0021 20.3959 15.9957ZM15.9574 1.19985H15.9944C17.0301 1.19985 18.0287 1.56975 18.8795 2.27255C19.6932 2.97536 20.211 3.9001 20.322 4.86183C20.4699 5.82357 20.211 6.74831 19.6192 7.41412C18.8425 8.30188 17.6219 8.67177 16.3643 8.37585C16.3273 8.37585 16.2533 8.33886 16.1794 8.33886C15.6985 8.2279 14.5519 8.11693 13.5532 8.89371C12.9614 8.00596 11.9258 7.45111 10.7792 7.45111C10.5203 7.45111 10.2244 7.4881 10.0024 7.56208C10.1504 5.82357 11.0011 1.19985 15.9574 1.19985ZM10.7792 8.30188C12.1477 8.30188 13.2943 9.44855 13.2943 10.8172C13.2943 12.1858 12.1477 13.3325 10.7792 13.3325C9.41063 13.3325 8.26401 12.1858 8.26401 10.8172C8.26401 9.41157 9.41063 8.30188 10.7792 8.30188ZM1.1624 5.63862V5.60163C1.12541 4.56592 1.53227 3.56719 2.23504 2.75342C2.9378 1.93965 3.86249 1.42179 4.82417 1.31082C5.78585 1.16286 6.71054 1.42179 7.37631 2.01363C8.26401 2.79041 8.63389 4.01107 8.33799 5.26872C8.33799 5.30571 8.301 5.37969 8.301 5.45367C8.19004 5.93453 8.07908 7.08122 8.85582 8.07994C7.96811 8.67177 7.4133 9.70748 7.4133 10.8542C7.4133 11.1131 7.45029 11.409 7.52426 11.6309C5.82283 11.446 1.1624 10.5952 1.1624 5.63862ZM1.27336 16.7355C1.12541 15.7738 1.38432 14.8491 1.97612 14.1832C2.56792 13.4804 3.45563 13.1105 4.4173 13.1105C4.67622 13.1105 4.97212 13.1475 5.26802 13.1845C5.30501 13.1845 5.37898 13.2215 5.45296 13.2215C5.9338 13.3325 7.08041 13.4434 8.07908 12.6667C8.67088 13.5544 9.70653 14.1093 10.8531 14.1093C11.1121 14.1093 11.408 14.0723 11.6299 13.9983C11.4819 15.7368 10.6312 20.3605 5.67488 20.3605H5.6379C4.60224 20.3975 3.60358 19.9906 2.75286 19.2878C1.90215 18.659 1.38432 17.7342 1.27336 16.7355Z"/>
</mask>
<path d="M19.5082 27.8694H7.67221C7.45029 27.8694 7.26535 28.0544 7.26535 28.2763C7.26535 28.4983 7.45029 28.6832 7.67221 28.6832H19.5082C21.1357 28.6832 22.5042 30.0148 22.5042 31.6794C22.5042 33.3439 21.1727 34.6755 19.5082 34.6755C17.8438 34.6755 16.5123 33.3439 16.5123 31.6794C16.5123 31.4574 16.3273 31.2725 16.1054 31.2725C15.8835 31.2725 15.6985 31.4574 15.6985 31.6794C15.6985 33.7878 17.4 35.4893 19.5082 35.4893C21.6165 35.4893 23.318 33.7878 23.318 31.6794C23.318 29.571 21.6165 27.8694 19.5082 27.8694Z" fill="white"/>
<path d="M24.5386 20.3975C24.7605 20.3975 24.9454 20.2126 24.9454 19.9906C24.9454 18.3631 26.277 16.9945 27.9414 16.9945C29.5689 16.9945 30.9374 18.3261 30.9374 19.9906C30.9374 21.6552 29.6059 22.9868 27.9414 22.9868H8.78184C8.55992 22.9868 8.37498 23.1717 8.37498 23.3937C8.37498 23.6156 8.55992 23.8006 8.78184 23.8006H27.9414C30.0497 23.8006 31.7511 22.099 31.7511 19.9906C31.7511 17.8822 30.0497 16.1807 27.9414 16.1807C25.8331 16.1807 24.1317 17.8822 24.1317 19.9906C24.1317 20.2495 24.3166 20.3975 24.5386 20.3975Z" fill="white"/>
<path d="M31.6772 25.3541H4.93513C4.71321 25.3541 4.52827 25.5391 4.52827 25.761C4.52827 25.983 4.71321 26.1679 4.93513 26.1679H31.6772C33.3046 26.1679 34.6732 27.4995 34.6732 29.1641C34.6732 30.7916 33.3416 32.1602 31.6772 32.1602C30.0497 32.1602 28.6812 30.8286 28.6812 29.1641C28.6812 28.9421 28.4962 28.7572 28.2743 28.7572C28.0524 28.7572 27.8674 28.9421 27.8674 29.1641C27.8674 31.2725 29.5689 32.974 31.6772 32.974C33.7855 32.974 35.4869 31.2725 35.4869 29.1641C35.4869 27.0557 33.7855 25.3541 31.6772 25.3541Z" fill="white"/>
<path d="M5.60091 21.2483H5.6379C10.2613 21.2483 11.9628 17.5493 12.3327 14.6641C12.5176 15.2189 12.4806 15.7368 12.4066 15.9957C12.4066 16.0697 12.3696 16.1067 12.3696 16.1807C12.3696 16.1807 12.3696 16.1807 12.3696 16.2177C12.0368 17.7712 12.4806 19.2878 13.6272 20.2865C14.4779 21.0263 15.6245 21.3592 16.8451 21.2113C18.0287 21.0633 19.1384 20.4345 19.9521 19.4728C20.8028 18.474 21.2467 17.2534 21.2467 16.0327C21.2837 11.335 17.5479 9.59651 14.6629 9.22662C15.2177 9.04167 15.7355 9.07866 15.9944 9.15264C16.0684 9.15264 16.1054 9.18963 16.1424 9.18963H16.1794C17.7698 9.52254 19.2863 9.07866 20.248 7.96897C20.9877 7.11821 21.3206 5.97152 21.1727 4.75086C21.0247 3.56719 20.3959 2.4575 19.4343 1.64373C18.4356 0.792967 17.252 0.349091 15.9944 0.349091H15.9574C11.297 0.349091 9.59557 4.04806 9.22569 6.93326C9.04075 6.37841 9.07774 5.86056 9.15172 5.60163C9.15172 5.52765 9.1887 5.49066 9.1887 5.41668C9.1887 5.41668 9.1887 5.41668 9.1887 5.37969C9.52159 3.82612 9.07774 2.30954 7.93113 1.31082C7.08041 0.571029 5.9338 0.238121 4.75019 0.42307C3.56659 0.608018 2.45696 1.23684 1.64323 2.19858C0.792519 3.16031 0.31168 4.34398 0.348668 5.60163C0.31168 10.2623 4.04743 12.0008 6.93246 12.3707C6.37765 12.5557 5.85982 12.5187 5.60091 12.4447C5.52693 12.4447 5.48994 12.4077 5.45296 12.4077H5.41597C3.8255 12.0748 2.30901 12.5187 1.34733 13.6284C0.607581 14.4792 0.274693 15.6258 0.422643 16.8465C0.570594 18.0302 1.19938 19.1399 2.16106 19.9536C3.12274 20.7674 4.26935 21.2483 5.45296 21.2483C5.52693 21.2483 5.56392 21.2483 5.60091 21.2483ZM20.3959 15.9957C20.4329 17.0314 20.0261 18.0302 19.3233 18.8809C18.6205 19.6947 17.6959 20.2126 16.7342 20.3235C15.7725 20.4715 14.8478 20.2126 14.182 19.6207C13.2943 18.8439 12.9245 17.6233 13.2204 16.3656C13.2204 16.3286 13.2573 16.2547 13.2573 16.1807C13.3683 15.6998 13.4793 14.5531 12.7025 13.5544C13.5902 12.9626 14.145 11.9269 14.145 10.7802C14.145 10.5213 14.1081 10.2253 14.0341 10.0034C15.7725 10.1514 20.4329 11.0021 20.3959 15.9957ZM15.9574 1.19985H15.9944C17.0301 1.19985 18.0287 1.56975 18.8795 2.27255C19.6932 2.97536 20.211 3.9001 20.322 4.86183C20.4699 5.82357 20.211 6.74831 19.6192 7.41412C18.8425 8.30188 17.6219 8.67177 16.3643 8.37585C16.3273 8.37585 16.2533 8.33886 16.1794 8.33886C15.6985 8.2279 14.5519 8.11693 13.5532 8.89371C12.9614 8.00596 11.9258 7.45111 10.7792 7.45111C10.5203 7.45111 10.2244 7.4881 10.0024 7.56208C10.1504 5.82357 11.0011 1.19985 15.9574 1.19985ZM10.7792 8.30188C12.1477 8.30188 13.2943 9.44855 13.2943 10.8172C13.2943 12.1858 12.1477 13.3325 10.7792 13.3325C9.41063 13.3325 8.26401 12.1858 8.26401 10.8172C8.26401 9.41157 9.41063 8.30188 10.7792 8.30188ZM1.1624 5.63862V5.60163C1.12541 4.56592 1.53227 3.56719 2.23504 2.75342C2.9378 1.93965 3.86249 1.42179 4.82417 1.31082C5.78585 1.16286 6.71054 1.42179 7.37631 2.01363C8.26401 2.79041 8.63389 4.01107 8.33799 5.26872C8.33799 5.30571 8.301 5.37969 8.301 5.45367C8.19004 5.93453 8.07908 7.08122 8.85582 8.07994C7.96811 8.67177 7.4133 9.70748 7.4133 10.8542C7.4133 11.1131 7.45029 11.409 7.52426 11.6309C5.82283 11.446 1.1624 10.5952 1.1624 5.63862ZM1.27336 16.7355C1.12541 15.7738 1.38432 14.8491 1.97612 14.1832C2.56792 13.4804 3.45563 13.1105 4.4173 13.1105C4.67622 13.1105 4.97212 13.1475 5.26802 13.1845C5.30501 13.1845 5.37898 13.2215 5.45296 13.2215C5.9338 13.3325 7.08041 13.4434 8.07908 12.6667C8.67088 13.5544 9.70653 14.1093 10.8531 14.1093C11.1121 14.1093 11.408 14.0723 11.6299 13.9983C11.4819 15.7368 10.6312 20.3605 5.67488 20.3605H5.6379C4.60224 20.3975 3.60358 19.9906 2.75286 19.2878C1.90215 18.659 1.38432 17.7342 1.27336 16.7355Z" fill="white"/>
<path d="M19.5082 27.8694H7.67221C7.45029 27.8694 7.26535 28.0544 7.26535 28.2763C7.26535 28.4983 7.45029 28.6832 7.67221 28.6832H19.5082C21.1357 28.6832 22.5042 30.0148 22.5042 31.6794C22.5042 33.3439 21.1727 34.6755 19.5082 34.6755C17.8438 34.6755 16.5123 33.3439 16.5123 31.6794C16.5123 31.4574 16.3273 31.2725 16.1054 31.2725C15.8835 31.2725 15.6985 31.4574 15.6985 31.6794C15.6985 33.7878 17.4 35.4893 19.5082 35.4893C21.6165 35.4893 23.318 33.7878 23.318 31.6794C23.318 29.571 21.6165 27.8694 19.5082 27.8694Z" stroke="white" stroke-width="0.379894" mask="url(#path-1-outside-1_1_922)"/>
<path d="M24.5386 20.3975C24.7605 20.3975 24.9454 20.2126 24.9454 19.9906C24.9454 18.3631 26.277 16.9945 27.9414 16.9945C29.5689 16.9945 30.9374 18.3261 30.9374 19.9906C30.9374 21.6552 29.6059 22.9868 27.9414 22.9868H8.78184C8.55992 22.9868 8.37498 23.1717 8.37498 23.3937C8.37498 23.6156 8.55992 23.8006 8.78184 23.8006H27.9414C30.0497 23.8006 31.7511 22.099 31.7511 19.9906C31.7511 17.8822 30.0497 16.1807 27.9414 16.1807C25.8331 16.1807 24.1317 17.8822 24.1317 19.9906C24.1317 20.2495 24.3166 20.3975 24.5386 20.3975Z" stroke="white" stroke-width="0.379894" mask="url(#path-1-outside-1_1_922)"/>
<path d="M31.6772 25.3541H4.93513C4.71321 25.3541 4.52827 25.5391 4.52827 25.761C4.52827 25.983 4.71321 26.1679 4.93513 26.1679H31.6772C33.3046 26.1679 34.6732 27.4995 34.6732 29.1641C34.6732 30.7916 33.3416 32.1602 31.6772 32.1602C30.0497 32.1602 28.6812 30.8286 28.6812 29.1641C28.6812 28.9421 28.4962 28.7572 28.2743 28.7572C28.0524 28.7572 27.8674 28.9421 27.8674 29.1641C27.8674 31.2725 29.5689 32.974 31.6772 32.974C33.7855 32.974 35.4869 31.2725 35.4869 29.1641C35.4869 27.0557 33.7855 25.3541 31.6772 25.3541Z" stroke="white" stroke-width="0.379894" mask="url(#path-1-outside-1_1_922)"/>
<path d="M5.60091 21.2483H5.6379C10.2613 21.2483 11.9628 17.5493 12.3327 14.6641C12.5176 15.2189 12.4806 15.7368 12.4066 15.9957C12.4066 16.0697 12.3696 16.1067 12.3696 16.1807C12.3696 16.1807 12.3696 16.1807 12.3696 16.2177C12.0368 17.7712 12.4806 19.2878 13.6272 20.2865C14.4779 21.0263 15.6245 21.3592 16.8451 21.2113C18.0287 21.0633 19.1384 20.4345 19.9521 19.4728C20.8028 18.474 21.2467 17.2534 21.2467 16.0327C21.2837 11.335 17.5479 9.59651 14.6629 9.22662C15.2177 9.04167 15.7355 9.07866 15.9944 9.15264C16.0684 9.15264 16.1054 9.18963 16.1424 9.18963H16.1794C17.7698 9.52254 19.2863 9.07866 20.248 7.96897C20.9877 7.11821 21.3206 5.97152 21.1727 4.75086C21.0247 3.56719 20.3959 2.4575 19.4343 1.64373C18.4356 0.792967 17.252 0.349091 15.9944 0.349091H15.9574C11.297 0.349091 9.59557 4.04806 9.22569 6.93326C9.04075 6.37841 9.07774 5.86056 9.15172 5.60163C9.15172 5.52765 9.1887 5.49066 9.1887 5.41668C9.1887 5.41668 9.1887 5.41668 9.1887 5.37969C9.52159 3.82612 9.07774 2.30954 7.93113 1.31082C7.08041 0.571029 5.9338 0.238121 4.75019 0.42307C3.56659 0.608018 2.45696 1.23684 1.64323 2.19858C0.792519 3.16031 0.31168 4.34398 0.348668 5.60163C0.31168 10.2623 4.04743 12.0008 6.93246 12.3707C6.37765 12.5557 5.85982 12.5187 5.60091 12.4447C5.52693 12.4447 5.48994 12.4077 5.45296 12.4077H5.41597C3.8255 12.0748 2.30901 12.5187 1.34733 13.6284C0.607581 14.4792 0.274693 15.6258 0.422643 16.8465C0.570594 18.0302 1.19938 19.1399 2.16106 19.9536C3.12274 20.7674 4.26935 21.2483 5.45296 21.2483C5.52693 21.2483 5.56392 21.2483 5.60091 21.2483ZM20.3959 15.9957C20.4329 17.0314 20.0261 18.0302 19.3233 18.8809C18.6205 19.6947 17.6959 20.2126 16.7342 20.3235C15.7725 20.4715 14.8478 20.2126 14.182 19.6207C13.2943 18.8439 12.9245 17.6233 13.2204 16.3656C13.2204 16.3286 13.2573 16.2547 13.2573 16.1807C13.3683 15.6998 13.4793 14.5531 12.7025 13.5544C13.5902 12.9626 14.145 11.9269 14.145 10.7802C14.145 10.5213 14.1081 10.2253 14.0341 10.0034C15.7725 10.1514 20.4329 11.0021 20.3959 15.9957ZM15.9574 1.19985H15.9944C17.0301 1.19985 18.0287 1.56975 18.8795 2.27255C19.6932 2.97536 20.211 3.9001 20.322 4.86183C20.4699 5.82357 20.211 6.74831 19.6192 7.41412C18.8425 8.30188 17.6219 8.67177 16.3643 8.37585C16.3273 8.37585 16.2533 8.33886 16.1794 8.33886C15.6985 8.2279 14.5519 8.11693 13.5532 8.89371C12.9614 8.00596 11.9258 7.45111 10.7792 7.45111C10.5203 7.45111 10.2244 7.4881 10.0024 7.56208C10.1504 5.82357 11.0011 1.19985 15.9574 1.19985ZM10.7792 8.30188C12.1477 8.30188 13.2943 9.44855 13.2943 10.8172C13.2943 12.1858 12.1477 13.3325 10.7792 13.3325C9.41063 13.3325 8.26401 12.1858 8.26401 10.8172C8.26401 9.41157 9.41063 8.30188 10.7792 8.30188ZM1.1624 5.63862V5.60163C1.12541 4.56592 1.53227 3.56719 2.23504 2.75342C2.9378 1.93965 3.86249 1.42179 4.82417 1.31082C5.78585 1.16286 6.71054 1.42179 7.37631 2.01363C8.26401 2.79041 8.63389 4.01107 8.33799 5.26872C8.33799 5.30571 8.301 5.37969 8.301 5.45367C8.19004 5.93453 8.07908 7.08122 8.85582 8.07994C7.96811 8.67177 7.4133 9.70748 7.4133 10.8542C7.4133 11.1131 7.45029 11.409 7.52426 11.6309C5.82283 11.446 1.1624 10.5952 1.1624 5.63862ZM1.27336 16.7355C1.12541 15.7738 1.38432 14.8491 1.97612 14.1832C2.56792 13.4804 3.45563 13.1105 4.4173 13.1105C4.67622 13.1105 4.97212 13.1475 5.26802 13.1845C5.30501 13.1845 5.37898 13.2215 5.45296 13.2215C5.9338 13.3325 7.08041 13.4434 8.07908 12.6667C8.67088 13.5544 9.70653 14.1093 10.8531 14.1093C11.1121 14.1093 11.408 14.0723 11.6299 13.9983C11.4819 15.7368 10.6312 20.3605 5.67488 20.3605H5.6379C4.60224 20.3975 3.60358 19.9906 2.75286 19.2878C1.90215 18.659 1.38432 17.7342 1.27336 16.7355Z" stroke="white" stroke-width="0.379894" mask="url(#path-1-outside-1_1_922)"/>
</svg>
