<svg width="37" height="38" viewBox="0 0 37 38" fill="none" xmlns="http://www.w3.org/2000/svg">
<mask id="path-1-outside-1_1_893" maskUnits="userSpaceOnUse" x="-0.552734" y="-0.552933" width="38" height="39" fill="black">
<rect fill="white" x="-0.552734" y="-0.552933" width="38" height="39"/>
<path d="M23.6499 0.447067C21.2873 0.447067 19.3542 2.34433 19.3542 4.75902V11.0545C16.8197 14.504 15.2302 16.7031 13.426 19.1178C11.7507 16.9187 9.68869 14.1591 7.28306 10.882C7.28306 10.8389 7.28306 10.8389 7.28306 10.7958C7.5408 9.11409 7.88447 7.21683 8.18517 5.19022C8.22813 4.9315 8.01334 4.67278 7.71264 4.67278C7.49785 4.67278 7.32602 4.84524 7.32602 5.06084C7.06827 6.78562 6.76757 8.38104 6.55278 9.89023C5.65067 8.68288 4.83447 7.56178 3.80349 6.18196C3.71758 6.0526 3.5887 5.96635 3.41687 6.00947C3.11617 6.00947 2.90138 6.44068 3.11617 6.6994C4.06124 7.94986 4.79152 8.98472 5.65067 10.1058C4.31898 9.89023 2.90138 9.67464 1.39786 9.41592C1.18307 9.3728 0.925329 9.54528 0.882371 9.76087C0.839413 9.97647 1.0542 10.2352 1.26899 10.2783C3.07321 10.5802 4.79152 10.8389 6.38095 11.0976C8.78658 14.3315 10.8915 17.1343 12.5668 19.3765H6.25208C5.04926 18.2123 3.88941 17.0912 2.51476 15.6251C2.42885 15.5389 2.29997 15.4958 2.1711 15.4958C1.82744 15.5389 1.65561 16.0132 1.91335 16.2288C3.07321 17.4361 4.01828 18.4279 5.0063 19.3765C3.63166 19.3765 2.21406 19.3765 0.839413 19.3765C0.624625 19.3765 0.409837 19.6353 0.452795 19.8509C0.452795 20.0665 0.710541 20.282 0.925329 20.2389H5.0063C4.01828 21.1875 3.03025 22.1793 1.91335 23.3866C1.74152 23.5591 1.74152 23.861 1.91335 23.9903C2.08519 24.1628 2.34293 24.1628 2.51476 23.9903C3.88941 22.5243 5.04926 21.4031 6.25208 20.2389H12.6098C10.0753 23.6454 8.18517 26.2325 6.85348 28.0004C5.22109 28.3023 3.24504 28.5179 1.26899 28.8628C1.0542 28.8628 0.839413 29.1215 0.882371 29.3803C0.925329 29.639 1.18307 29.7683 1.39786 29.7252C3.03025 29.4665 4.61969 29.2509 6.1232 28.9922C5.04926 30.372 4.19011 31.6656 3.15913 32.8729C2.9873 33.0454 2.9873 33.3473 3.15913 33.4766C3.33096 33.6491 3.63166 33.6491 3.76053 33.4766C4.66264 32.3986 5.90841 30.717 6.63869 29.7252C6.85348 31.105 7.06827 32.5711 7.32602 34.1234C7.36897 34.339 7.58376 34.5115 7.84151 34.4684C8.0563 34.4253 8.22813 34.2096 8.18517 33.9509C7.88447 32.0968 7.62672 30.3289 7.36897 28.6904C8.70066 26.8793 10.7626 24.1628 13.426 20.5408C15.0584 22.7399 16.3901 24.4646 17.2063 25.5857C16.3901 26.75 15.9175 28.1729 15.9175 29.7252C15.9175 33.994 19.3971 37.4868 23.6499 37.4868C26.9577 37.4868 29.8358 35.417 30.9098 32.4417C30.9957 32.2261 30.8668 31.9675 30.652 31.8812C30.4372 31.795 30.1795 31.9243 30.0936 32.1399C29.1055 34.7271 26.571 36.6244 23.6499 36.6244C19.8696 36.6244 16.7767 33.5628 16.7767 29.7252C16.7767 27.2674 18.0654 25.2839 19.9985 24.0334C20.1274 23.9472 20.2133 23.8178 20.2133 23.6885V11.2701C20.2133 11.1838 20.2133 11.1407 20.2133 11.0545V4.67278C20.2133 2.7324 21.7168 1.22321 23.6499 1.22321C25.583 1.22321 27.0865 2.7324 27.0865 4.67278V23.6454C27.0865 23.7747 27.1724 23.9472 27.3013 23.9903C29.2344 25.2408 30.5231 27.2243 30.5231 29.6821C30.5231 29.8977 30.7379 30.1133 30.9527 30.1133C31.1675 30.1133 31.3823 29.8977 31.3823 29.6821C31.3823 27.0087 29.9647 24.8096 27.9457 23.4298V4.67278C27.9457 2.34432 26.0555 0.447067 23.6499 0.447067ZM31.2964 6.915C31.0816 6.915 30.8668 7.1737 30.9098 7.3893C30.9527 7.6049 31.1675 7.82051 31.3823 7.77739H36.1076C36.3224 7.77739 36.5372 7.56179 36.5372 7.34619C36.5372 7.13059 36.3224 6.915 36.1076 6.915C34.5182 6.915 32.8858 6.915 31.2964 6.915ZM31.2964 10.3646C31.0816 10.3646 30.8668 10.6233 30.9098 10.8389C30.9527 11.0545 31.1675 11.2701 31.3823 11.2269H33.5302C33.745 11.2269 33.9598 11.0114 33.9598 10.7958C33.9598 10.5802 33.745 10.3646 33.5302 10.3646C32.7999 10.3646 32.0267 10.3646 31.2964 10.3646ZM19.3542 12.5205V19.3765H14.3281C15.8746 17.3068 17.2922 15.3664 19.3542 12.5205ZM31.2964 14.2453C31.0816 14.2453 30.8668 14.504 30.9098 14.7196C30.9527 14.9352 31.1675 15.1508 31.3823 15.1077H36.1076C36.3224 15.1077 36.5372 14.8921 36.5372 14.6765C36.5372 14.4609 36.3224 14.2453 36.1076 14.2453C34.5182 14.2453 32.8858 14.2453 31.2964 14.2453ZM31.2964 17.6949C31.0816 17.6949 30.8668 17.9536 30.9098 18.1692C30.9527 18.3848 31.1675 18.6004 31.3823 18.5573H33.5302C33.745 18.5573 33.9598 18.3417 33.9598 18.1261C33.9598 17.9105 33.745 17.6949 33.5302 17.6949C32.7999 17.6949 32.0267 17.6949 31.2964 17.6949ZM23.607 19.8077C23.3922 19.8508 23.2203 20.0233 23.2203 20.2389C23.2203 21.9637 23.2203 23.6885 23.2203 25.4564C21.0725 25.672 19.3542 27.5261 19.3542 29.7252C19.3542 32.0968 21.2873 34.0372 23.6499 34.0372C26.0126 34.0372 27.9457 32.0968 27.9457 29.7252C27.9457 27.483 26.2703 25.672 24.0795 25.4564C24.0795 23.7316 24.0795 22.0068 24.0795 20.2389C24.0795 20.0233 23.8647 19.8077 23.607 19.8077ZM14.2852 20.282H19.3542V23.516C18.7527 23.9041 18.2373 24.3784 17.7647 24.8958C16.9915 23.8178 15.7887 22.2224 14.2852 20.282ZM31.2964 21.1444C31.0816 21.1444 30.8668 21.4031 30.9098 21.6187C30.9098 21.8343 31.1675 22.0499 31.3823 22.0068H36.1076C36.3224 22.0068 36.5372 21.7912 36.5372 21.5756C36.5372 21.36 36.3224 21.1444 36.1076 21.1444C34.5182 21.1444 32.8858 21.1444 31.2964 21.1444ZM23.6499 26.3188C25.5401 26.3188 27.0865 27.8711 27.0865 29.7683C27.0865 31.6656 25.5401 33.2179 23.6499 33.2179C21.7598 33.2179 20.2133 31.6656 20.2133 29.7683C20.2133 27.828 21.7598 26.3188 23.6499 26.3188Z"/>
</mask>
<path d="M23.6499 0.447067C21.2873 0.447067 19.3542 2.34433 19.3542 4.75902V11.0545C16.8197 14.504 15.2302 16.7031 13.426 19.1178C11.7507 16.9187 9.68869 14.1591 7.28306 10.882C7.28306 10.8389 7.28306 10.8389 7.28306 10.7958C7.5408 9.11409 7.88447 7.21683 8.18517 5.19022C8.22813 4.9315 8.01334 4.67278 7.71264 4.67278C7.49785 4.67278 7.32602 4.84524 7.32602 5.06084C7.06827 6.78562 6.76757 8.38104 6.55278 9.89023C5.65067 8.68288 4.83447 7.56178 3.80349 6.18196C3.71758 6.0526 3.5887 5.96635 3.41687 6.00947C3.11617 6.00947 2.90138 6.44068 3.11617 6.6994C4.06124 7.94986 4.79152 8.98472 5.65067 10.1058C4.31898 9.89023 2.90138 9.67464 1.39786 9.41592C1.18307 9.3728 0.925329 9.54528 0.882371 9.76087C0.839413 9.97647 1.0542 10.2352 1.26899 10.2783C3.07321 10.5802 4.79152 10.8389 6.38095 11.0976C8.78658 14.3315 10.8915 17.1343 12.5668 19.3765H6.25208C5.04926 18.2123 3.88941 17.0912 2.51476 15.6251C2.42885 15.5389 2.29997 15.4958 2.1711 15.4958C1.82744 15.5389 1.65561 16.0132 1.91335 16.2288C3.07321 17.4361 4.01828 18.4279 5.0063 19.3765C3.63166 19.3765 2.21406 19.3765 0.839413 19.3765C0.624625 19.3765 0.409837 19.6353 0.452795 19.8509C0.452795 20.0665 0.710541 20.282 0.925329 20.2389H5.0063C4.01828 21.1875 3.03025 22.1793 1.91335 23.3866C1.74152 23.5591 1.74152 23.861 1.91335 23.9903C2.08519 24.1628 2.34293 24.1628 2.51476 23.9903C3.88941 22.5243 5.04926 21.4031 6.25208 20.2389H12.6098C10.0753 23.6454 8.18517 26.2325 6.85348 28.0004C5.22109 28.3023 3.24504 28.5179 1.26899 28.8628C1.0542 28.8628 0.839413 29.1215 0.882371 29.3803C0.925329 29.639 1.18307 29.7683 1.39786 29.7252C3.03025 29.4665 4.61969 29.2509 6.1232 28.9922C5.04926 30.372 4.19011 31.6656 3.15913 32.8729C2.9873 33.0454 2.9873 33.3473 3.15913 33.4766C3.33096 33.6491 3.63166 33.6491 3.76053 33.4766C4.66264 32.3986 5.90841 30.717 6.63869 29.7252C6.85348 31.105 7.06827 32.5711 7.32602 34.1234C7.36897 34.339 7.58376 34.5115 7.84151 34.4684C8.0563 34.4253 8.22813 34.2096 8.18517 33.9509C7.88447 32.0968 7.62672 30.3289 7.36897 28.6904C8.70066 26.8793 10.7626 24.1628 13.426 20.5408C15.0584 22.7399 16.3901 24.4646 17.2063 25.5857C16.3901 26.75 15.9175 28.1729 15.9175 29.7252C15.9175 33.994 19.3971 37.4868 23.6499 37.4868C26.9577 37.4868 29.8358 35.417 30.9098 32.4417C30.9957 32.2261 30.8668 31.9675 30.652 31.8812C30.4372 31.795 30.1795 31.9243 30.0936 32.1399C29.1055 34.7271 26.571 36.6244 23.6499 36.6244C19.8696 36.6244 16.7767 33.5628 16.7767 29.7252C16.7767 27.2674 18.0654 25.2839 19.9985 24.0334C20.1274 23.9472 20.2133 23.8178 20.2133 23.6885V11.2701C20.2133 11.1838 20.2133 11.1407 20.2133 11.0545V4.67278C20.2133 2.7324 21.7168 1.22321 23.6499 1.22321C25.583 1.22321 27.0865 2.7324 27.0865 4.67278V23.6454C27.0865 23.7747 27.1724 23.9472 27.3013 23.9903C29.2344 25.2408 30.5231 27.2243 30.5231 29.6821C30.5231 29.8977 30.7379 30.1133 30.9527 30.1133C31.1675 30.1133 31.3823 29.8977 31.3823 29.6821C31.3823 27.0087 29.9647 24.8096 27.9457 23.4298V4.67278C27.9457 2.34432 26.0555 0.447067 23.6499 0.447067ZM31.2964 6.915C31.0816 6.915 30.8668 7.1737 30.9098 7.3893C30.9527 7.6049 31.1675 7.82051 31.3823 7.77739H36.1076C36.3224 7.77739 36.5372 7.56179 36.5372 7.34619C36.5372 7.13059 36.3224 6.915 36.1076 6.915C34.5182 6.915 32.8858 6.915 31.2964 6.915ZM31.2964 10.3646C31.0816 10.3646 30.8668 10.6233 30.9098 10.8389C30.9527 11.0545 31.1675 11.2701 31.3823 11.2269H33.5302C33.745 11.2269 33.9598 11.0114 33.9598 10.7958C33.9598 10.5802 33.745 10.3646 33.5302 10.3646C32.7999 10.3646 32.0267 10.3646 31.2964 10.3646ZM19.3542 12.5205V19.3765H14.3281C15.8746 17.3068 17.2922 15.3664 19.3542 12.5205ZM31.2964 14.2453C31.0816 14.2453 30.8668 14.504 30.9098 14.7196C30.9527 14.9352 31.1675 15.1508 31.3823 15.1077H36.1076C36.3224 15.1077 36.5372 14.8921 36.5372 14.6765C36.5372 14.4609 36.3224 14.2453 36.1076 14.2453C34.5182 14.2453 32.8858 14.2453 31.2964 14.2453ZM31.2964 17.6949C31.0816 17.6949 30.8668 17.9536 30.9098 18.1692C30.9527 18.3848 31.1675 18.6004 31.3823 18.5573H33.5302C33.745 18.5573 33.9598 18.3417 33.9598 18.1261C33.9598 17.9105 33.745 17.6949 33.5302 17.6949C32.7999 17.6949 32.0267 17.6949 31.2964 17.6949ZM23.607 19.8077C23.3922 19.8508 23.2203 20.0233 23.2203 20.2389C23.2203 21.9637 23.2203 23.6885 23.2203 25.4564C21.0725 25.672 19.3542 27.5261 19.3542 29.7252C19.3542 32.0968 21.2873 34.0372 23.6499 34.0372C26.0126 34.0372 27.9457 32.0968 27.9457 29.7252C27.9457 27.483 26.2703 25.672 24.0795 25.4564C24.0795 23.7316 24.0795 22.0068 24.0795 20.2389C24.0795 20.0233 23.8647 19.8077 23.607 19.8077ZM14.2852 20.282H19.3542V23.516C18.7527 23.9041 18.2373 24.3784 17.7647 24.8958C16.9915 23.8178 15.7887 22.2224 14.2852 20.282ZM31.2964 21.1444C31.0816 21.1444 30.8668 21.4031 30.9098 21.6187C30.9098 21.8343 31.1675 22.0499 31.3823 22.0068H36.1076C36.3224 22.0068 36.5372 21.7912 36.5372 21.5756C36.5372 21.36 36.3224 21.1444 36.1076 21.1444C34.5182 21.1444 32.8858 21.1444 31.2964 21.1444ZM23.6499 26.3188C25.5401 26.3188 27.0865 27.8711 27.0865 29.7683C27.0865 31.6656 25.5401 33.2179 23.6499 33.2179C21.7598 33.2179 20.2133 31.6656 20.2133 29.7683C20.2133 27.828 21.7598 26.3188 23.6499 26.3188Z" fill="white"/>
<path d="M23.6499 0.447067C21.2873 0.447067 19.3542 2.34433 19.3542 4.75902V11.0545C16.8197 14.504 15.2302 16.7031 13.426 19.1178C11.7507 16.9187 9.68869 14.1591 7.28306 10.882C7.28306 10.8389 7.28306 10.8389 7.28306 10.7958C7.5408 9.11409 7.88447 7.21683 8.18517 5.19022C8.22813 4.9315 8.01334 4.67278 7.71264 4.67278C7.49785 4.67278 7.32602 4.84524 7.32602 5.06084C7.06827 6.78562 6.76757 8.38104 6.55278 9.89023C5.65067 8.68288 4.83447 7.56178 3.80349 6.18196C3.71758 6.0526 3.5887 5.96635 3.41687 6.00947C3.11617 6.00947 2.90138 6.44068 3.11617 6.6994C4.06124 7.94986 4.79152 8.98472 5.65067 10.1058C4.31898 9.89023 2.90138 9.67464 1.39786 9.41592C1.18307 9.3728 0.925329 9.54528 0.882371 9.76087C0.839413 9.97647 1.0542 10.2352 1.26899 10.2783C3.07321 10.5802 4.79152 10.8389 6.38095 11.0976C8.78658 14.3315 10.8915 17.1343 12.5668 19.3765H6.25208C5.04926 18.2123 3.88941 17.0912 2.51476 15.6251C2.42885 15.5389 2.29997 15.4958 2.1711 15.4958C1.82744 15.5389 1.65561 16.0132 1.91335 16.2288C3.07321 17.4361 4.01828 18.4279 5.0063 19.3765C3.63166 19.3765 2.21406 19.3765 0.839413 19.3765C0.624625 19.3765 0.409837 19.6353 0.452795 19.8509C0.452795 20.0665 0.710541 20.282 0.925329 20.2389H5.0063C4.01828 21.1875 3.03025 22.1793 1.91335 23.3866C1.74152 23.5591 1.74152 23.861 1.91335 23.9903C2.08519 24.1628 2.34293 24.1628 2.51476 23.9903C3.88941 22.5243 5.04926 21.4031 6.25208 20.2389H12.6098C10.0753 23.6454 8.18517 26.2325 6.85348 28.0004C5.22109 28.3023 3.24504 28.5179 1.26899 28.8628C1.0542 28.8628 0.839413 29.1215 0.882371 29.3803C0.925329 29.639 1.18307 29.7683 1.39786 29.7252C3.03025 29.4665 4.61969 29.2509 6.1232 28.9922C5.04926 30.372 4.19011 31.6656 3.15913 32.8729C2.9873 33.0454 2.9873 33.3473 3.15913 33.4766C3.33096 33.6491 3.63166 33.6491 3.76053 33.4766C4.66264 32.3986 5.90841 30.717 6.63869 29.7252C6.85348 31.105 7.06827 32.5711 7.32602 34.1234C7.36897 34.339 7.58376 34.5115 7.84151 34.4684C8.0563 34.4253 8.22813 34.2096 8.18517 33.9509C7.88447 32.0968 7.62672 30.3289 7.36897 28.6904C8.70066 26.8793 10.7626 24.1628 13.426 20.5408C15.0584 22.7399 16.3901 24.4646 17.2063 25.5857C16.3901 26.75 15.9175 28.1729 15.9175 29.7252C15.9175 33.994 19.3971 37.4868 23.6499 37.4868C26.9577 37.4868 29.8358 35.417 30.9098 32.4417C30.9957 32.2261 30.8668 31.9675 30.652 31.8812C30.4372 31.795 30.1795 31.9243 30.0936 32.1399C29.1055 34.7271 26.571 36.6244 23.6499 36.6244C19.8696 36.6244 16.7767 33.5628 16.7767 29.7252C16.7767 27.2674 18.0654 25.2839 19.9985 24.0334C20.1274 23.9472 20.2133 23.8178 20.2133 23.6885V11.2701C20.2133 11.1838 20.2133 11.1407 20.2133 11.0545V4.67278C20.2133 2.7324 21.7168 1.22321 23.6499 1.22321C25.583 1.22321 27.0865 2.7324 27.0865 4.67278V23.6454C27.0865 23.7747 27.1724 23.9472 27.3013 23.9903C29.2344 25.2408 30.5231 27.2243 30.5231 29.6821C30.5231 29.8977 30.7379 30.1133 30.9527 30.1133C31.1675 30.1133 31.3823 29.8977 31.3823 29.6821C31.3823 27.0087 29.9647 24.8096 27.9457 23.4298V4.67278C27.9457 2.34432 26.0555 0.447067 23.6499 0.447067ZM31.2964 6.915C31.0816 6.915 30.8668 7.1737 30.9098 7.3893C30.9527 7.6049 31.1675 7.82051 31.3823 7.77739H36.1076C36.3224 7.77739 36.5372 7.56179 36.5372 7.34619C36.5372 7.13059 36.3224 6.915 36.1076 6.915C34.5182 6.915 32.8858 6.915 31.2964 6.915ZM31.2964 10.3646C31.0816 10.3646 30.8668 10.6233 30.9098 10.8389C30.9527 11.0545 31.1675 11.2701 31.3823 11.2269H33.5302C33.745 11.2269 33.9598 11.0114 33.9598 10.7958C33.9598 10.5802 33.745 10.3646 33.5302 10.3646C32.7999 10.3646 32.0267 10.3646 31.2964 10.3646ZM19.3542 12.5205V19.3765H14.3281C15.8746 17.3068 17.2922 15.3664 19.3542 12.5205ZM31.2964 14.2453C31.0816 14.2453 30.8668 14.504 30.9098 14.7196C30.9527 14.9352 31.1675 15.1508 31.3823 15.1077H36.1076C36.3224 15.1077 36.5372 14.8921 36.5372 14.6765C36.5372 14.4609 36.3224 14.2453 36.1076 14.2453C34.5182 14.2453 32.8858 14.2453 31.2964 14.2453ZM31.2964 17.6949C31.0816 17.6949 30.8668 17.9536 30.9098 18.1692C30.9527 18.3848 31.1675 18.6004 31.3823 18.5573H33.5302C33.745 18.5573 33.9598 18.3417 33.9598 18.1261C33.9598 17.9105 33.745 17.6949 33.5302 17.6949C32.7999 17.6949 32.0267 17.6949 31.2964 17.6949ZM23.607 19.8077C23.3922 19.8508 23.2203 20.0233 23.2203 20.2389C23.2203 21.9637 23.2203 23.6885 23.2203 25.4564C21.0725 25.672 19.3542 27.5261 19.3542 29.7252C19.3542 32.0968 21.2873 34.0372 23.6499 34.0372C26.0126 34.0372 27.9457 32.0968 27.9457 29.7252C27.9457 27.483 26.2703 25.672 24.0795 25.4564C24.0795 23.7316 24.0795 22.0068 24.0795 20.2389C24.0795 20.0233 23.8647 19.8077 23.607 19.8077ZM14.2852 20.282H19.3542V23.516C18.7527 23.9041 18.2373 24.3784 17.7647 24.8958C16.9915 23.8178 15.7887 22.2224 14.2852 20.282ZM31.2964 21.1444C31.0816 21.1444 30.8668 21.4031 30.9098 21.6187C30.9098 21.8343 31.1675 22.0499 31.3823 22.0068H36.1076C36.3224 22.0068 36.5372 21.7912 36.5372 21.5756C36.5372 21.36 36.3224 21.1444 36.1076 21.1444C34.5182 21.1444 32.8858 21.1444 31.2964 21.1444ZM23.6499 26.3188C25.5401 26.3188 27.0865 27.8711 27.0865 29.7683C27.0865 31.6656 25.5401 33.2179 23.6499 33.2179C21.7598 33.2179 20.2133 31.6656 20.2133 29.7683C20.2133 27.828 21.7598 26.3188 23.6499 26.3188Z" stroke="white" stroke-width="0.379894" mask="url(#path-1-outside-1_1_893)"/>
</svg>
