<svg width="41" height="41" viewBox="0 0 41 41" fill="none" xmlns="http://www.w3.org/2000/svg">
<mask id="path-1-outside-1_299_2" maskUnits="userSpaceOnUse" x="0" y="0" width="41" height="41" fill="black">
<rect fill="white" width="41" height="41"/>
<path d="M24.8034 34.145C22.3828 37.0388 18.819 38.654 15.1207 38.654C8.06034 38.654 2.34483 32.9336 2.34483 25.8671C2.34483 13.1475 12.969 4.19672 15.1207 2.51424C16.1293 3.32183 19.0879 5.81191 21.9121 9.51337C22.1138 9.78257 22.5845 9.84987 22.8534 9.64797C23.1224 9.44607 23.1897 8.97498 22.9879 8.70578C19.4241 3.92752 15.6586 1.16825 15.5241 1.10095C15.2552 0.96635 14.9862 0.96635 14.7172 1.10095C14.1793 1.50475 1 11.0613 1 25.8671C1 33.6739 7.32069 40 15.1207 40C19.2224 40 23.1224 38.1829 25.8121 35.0871C26.081 34.8179 26.0138 34.4141 25.7448 34.145C25.4759 33.8758 25.0724 33.8758 24.8034 34.145Z"/>
<path d="M27.2241 11.0613C27.5603 11.0613 27.8966 10.7248 27.8966 10.3883C27.8966 10.0518 27.5603 9.71527 27.2241 9.71527C26.8879 9.71527 26.5517 9.44607 26.5517 9.04228C26.5517 8.70578 26.8879 8.36928 27.2241 8.36928C28.3672 8.36928 29.2414 9.31148 29.2414 10.3883C29.2414 11.4651 28.3672 12.4072 27.2241 12.4072H11.7586C11.4224 12.4072 11.0862 12.7437 11.0862 13.0802C11.0862 13.4167 11.4224 13.7532 11.7586 13.7532H27.2241C29.1069 13.7532 30.5862 12.2726 30.5862 10.3883C30.5862 8.50388 29.1069 7.0233 27.2241 7.0233C26.081 7.0233 25.2069 7.96549 25.2069 9.04228C25.2069 10.1191 26.081 11.0613 27.2241 11.0613Z"/>
<path d="M23.1897 21.1562H18.4828C18.1466 21.1562 17.8103 21.4927 17.8103 21.8292C17.8103 22.1657 18.1466 22.5022 18.4828 22.5022H23.1897C25.0724 22.5022 26.5517 21.0216 26.5517 19.1372C26.5517 17.2528 25.0724 15.7722 23.1897 15.7722C22.0465 15.7722 21.1724 16.7144 21.1724 17.7912C21.1724 18.868 22.0465 19.8102 23.1897 19.8102C23.5259 19.8102 23.8621 19.4737 23.8621 19.1372C23.8621 18.8007 23.5259 18.4642 23.1897 18.4642C22.8534 18.4642 22.5172 18.1277 22.5172 17.7912C22.5172 17.4547 22.8534 17.1182 23.1897 17.1182C24.3328 17.1182 25.2069 18.0604 25.2069 19.1372C25.2069 20.214 24.3328 21.1562 23.1897 21.1562Z"/>
<path d="M28.569 31.2511H15.7931C15.4569 31.2511 15.1207 31.5876 15.1207 31.9241C15.1207 32.2606 15.4569 32.5971 15.7931 32.5971H28.569C29.7121 32.5971 30.5862 33.472 30.5862 34.616C30.5862 35.7601 29.7121 36.635 28.569 36.635C28.2328 36.635 27.8966 36.2985 27.8966 35.962C27.8966 35.6255 28.2328 35.289 28.569 35.289C28.9052 35.289 29.2414 34.9525 29.2414 34.616C29.2414 34.2795 28.9052 33.9431 28.569 33.9431C27.4259 33.9431 26.5517 34.8179 26.5517 35.962C26.5517 37.1061 27.4259 37.981 28.569 37.981C30.4517 37.981 31.931 36.5004 31.931 34.616C31.931 32.7317 30.4517 31.2511 28.569 31.2511Z"/>
<path d="M35.9655 27.8861H26.5517C26.2155 27.8861 25.8793 28.2226 25.8793 28.5591C25.8793 28.8956 26.2155 29.2321 26.5517 29.2321H35.9655C37.1086 29.2321 37.9828 30.107 37.9828 31.2511C37.9828 32.3952 37.1086 33.2701 35.9655 33.2701C35.6293 33.2701 35.2931 32.9336 35.2931 32.5971C35.2931 32.2606 35.6293 31.9241 35.9655 31.9241C36.3017 31.9241 36.6379 31.5876 36.6379 31.2511C36.6379 30.9146 36.3017 30.5781 35.9655 30.5781C34.8224 30.5781 33.9483 31.453 33.9483 32.5971C33.9483 33.7412 34.8224 34.616 35.9655 34.616C37.8483 34.616 39.3276 33.1355 39.3276 31.2511C39.3276 29.3667 37.8483 27.8861 35.9655 27.8861Z"/>
<path d="M28.569 17.1182C28.569 19.7429 30.6534 21.8292 33.2759 21.8292C34.7552 21.8292 35.9655 20.6178 35.9655 19.1372C35.9655 17.6566 34.7552 16.4452 33.2759 16.4452C32.9397 16.4452 32.6034 16.7817 32.6034 17.1182C32.6034 17.4547 32.9397 17.7912 33.2759 17.7912C34.0155 17.7912 34.6207 18.3969 34.6207 19.1372C34.6207 19.8775 34.0155 20.4832 33.2759 20.4832C31.3931 20.4832 29.9138 19.0026 29.9138 17.1182C29.9138 15.2338 31.3931 13.7532 33.2759 13.7532C36.2345 13.7532 38.6552 16.176 38.6552 19.1372C38.6552 22.0984 36.2345 24.5211 33.2759 24.5211H22.5172C22.181 24.5211 21.8448 24.8576 21.8448 25.1941C21.8448 25.5306 22.181 25.8671 22.5172 25.8671H33.2759C36.9741 25.8671 40 22.8387 40 19.1372C40 15.4357 36.9741 12.4072 33.2759 12.4072C30.6534 12.4072 28.569 14.4935 28.569 17.1182Z"/>
<path d="M21.8448 29.2321H24.5345C24.8707 29.2321 25.2069 28.8956 25.2069 28.5591C25.2069 28.2226 24.8707 27.8861 24.5345 27.8861H21.8448C21.5086 27.8861 21.1724 28.2226 21.1724 28.5591C21.1724 28.8956 21.5086 29.2321 21.8448 29.2321Z"/>
<path d="M19.1552 27.8861C18.819 27.8861 18.4828 28.2226 18.4828 28.5591C18.4828 28.8956 18.819 29.2321 19.1552 29.2321H19.8276C20.1638 29.2321 20.5 28.8956 20.5 28.5591C20.5 28.2226 20.1638 27.8861 19.8276 27.8861H19.1552Z"/>
<path d="M16.4655 21.1562H13.7759C13.4397 21.1562 13.1034 21.4927 13.1034 21.8292C13.1034 22.1657 13.4397 22.5022 13.7759 22.5022H16.4655C16.8017 22.5022 17.1379 22.1657 17.1379 21.8292C17.1379 21.4927 16.8017 21.1562 16.4655 21.1562Z"/>
<path d="M21.1724 25.1941C21.1724 24.8576 20.8362 24.5211 20.5 24.5211H18.4828C18.1466 24.5211 17.8103 24.8576 17.8103 25.1941C17.8103 25.5306 18.1466 25.8671 18.4828 25.8671H20.5C20.8362 25.8671 21.1724 25.5306 21.1724 25.1941Z"/>
<path d="M16.4655 24.5211H9.74138C9.33793 24.5211 9.06896 24.8576 9.06896 25.1941C9.06896 25.5306 9.33793 25.8671 9.74138 25.8671H16.4655C16.8017 25.8671 17.1379 25.5306 17.1379 25.1941C17.1379 24.8576 16.8017 24.5211 16.4655 24.5211Z"/>
</mask>
<path d="M24.8034 34.145C22.3828 37.0388 18.819 38.654 15.1207 38.654C8.06034 38.654 2.34483 32.9336 2.34483 25.8671C2.34483 13.1475 12.969 4.19672 15.1207 2.51424C16.1293 3.32183 19.0879 5.81191 21.9121 9.51337C22.1138 9.78257 22.5845 9.84987 22.8534 9.64797C23.1224 9.44607 23.1897 8.97498 22.9879 8.70578C19.4241 3.92752 15.6586 1.16825 15.5241 1.10095C15.2552 0.96635 14.9862 0.96635 14.7172 1.10095C14.1793 1.50475 1 11.0613 1 25.8671C1 33.6739 7.32069 40 15.1207 40C19.2224 40 23.1224 38.1829 25.8121 35.0871C26.081 34.8179 26.0138 34.4141 25.7448 34.145C25.4759 33.8758 25.0724 33.8758 24.8034 34.145Z" fill="white"/>
<path d="M27.2241 11.0613C27.5603 11.0613 27.8966 10.7248 27.8966 10.3883C27.8966 10.0518 27.5603 9.71527 27.2241 9.71527C26.8879 9.71527 26.5517 9.44607 26.5517 9.04228C26.5517 8.70578 26.8879 8.36928 27.2241 8.36928C28.3672 8.36928 29.2414 9.31148 29.2414 10.3883C29.2414 11.4651 28.3672 12.4072 27.2241 12.4072H11.7586C11.4224 12.4072 11.0862 12.7437 11.0862 13.0802C11.0862 13.4167 11.4224 13.7532 11.7586 13.7532H27.2241C29.1069 13.7532 30.5862 12.2726 30.5862 10.3883C30.5862 8.50388 29.1069 7.0233 27.2241 7.0233C26.081 7.0233 25.2069 7.96549 25.2069 9.04228C25.2069 10.1191 26.081 11.0613 27.2241 11.0613Z" fill="white"/>
<path d="M23.1897 21.1562H18.4828C18.1466 21.1562 17.8103 21.4927 17.8103 21.8292C17.8103 22.1657 18.1466 22.5022 18.4828 22.5022H23.1897C25.0724 22.5022 26.5517 21.0216 26.5517 19.1372C26.5517 17.2528 25.0724 15.7722 23.1897 15.7722C22.0465 15.7722 21.1724 16.7144 21.1724 17.7912C21.1724 18.868 22.0465 19.8102 23.1897 19.8102C23.5259 19.8102 23.8621 19.4737 23.8621 19.1372C23.8621 18.8007 23.5259 18.4642 23.1897 18.4642C22.8534 18.4642 22.5172 18.1277 22.5172 17.7912C22.5172 17.4547 22.8534 17.1182 23.1897 17.1182C24.3328 17.1182 25.2069 18.0604 25.2069 19.1372C25.2069 20.214 24.3328 21.1562 23.1897 21.1562Z" fill="white"/>
<path d="M28.569 31.2511H15.7931C15.4569 31.2511 15.1207 31.5876 15.1207 31.9241C15.1207 32.2606 15.4569 32.5971 15.7931 32.5971H28.569C29.7121 32.5971 30.5862 33.472 30.5862 34.616C30.5862 35.7601 29.7121 36.635 28.569 36.635C28.2328 36.635 27.8966 36.2985 27.8966 35.962C27.8966 35.6255 28.2328 35.289 28.569 35.289C28.9052 35.289 29.2414 34.9525 29.2414 34.616C29.2414 34.2795 28.9052 33.9431 28.569 33.9431C27.4259 33.9431 26.5517 34.8179 26.5517 35.962C26.5517 37.1061 27.4259 37.981 28.569 37.981C30.4517 37.981 31.931 36.5004 31.931 34.616C31.931 32.7317 30.4517 31.2511 28.569 31.2511Z" fill="white"/>
<path d="M35.9655 27.8861H26.5517C26.2155 27.8861 25.8793 28.2226 25.8793 28.5591C25.8793 28.8956 26.2155 29.2321 26.5517 29.2321H35.9655C37.1086 29.2321 37.9828 30.107 37.9828 31.2511C37.9828 32.3952 37.1086 33.2701 35.9655 33.2701C35.6293 33.2701 35.2931 32.9336 35.2931 32.5971C35.2931 32.2606 35.6293 31.9241 35.9655 31.9241C36.3017 31.9241 36.6379 31.5876 36.6379 31.2511C36.6379 30.9146 36.3017 30.5781 35.9655 30.5781C34.8224 30.5781 33.9483 31.453 33.9483 32.5971C33.9483 33.7412 34.8224 34.616 35.9655 34.616C37.8483 34.616 39.3276 33.1355 39.3276 31.2511C39.3276 29.3667 37.8483 27.8861 35.9655 27.8861Z" fill="white"/>
<path d="M28.569 17.1182C28.569 19.7429 30.6534 21.8292 33.2759 21.8292C34.7552 21.8292 35.9655 20.6178 35.9655 19.1372C35.9655 17.6566 34.7552 16.4452 33.2759 16.4452C32.9397 16.4452 32.6034 16.7817 32.6034 17.1182C32.6034 17.4547 32.9397 17.7912 33.2759 17.7912C34.0155 17.7912 34.6207 18.3969 34.6207 19.1372C34.6207 19.8775 34.0155 20.4832 33.2759 20.4832C31.3931 20.4832 29.9138 19.0026 29.9138 17.1182C29.9138 15.2338 31.3931 13.7532 33.2759 13.7532C36.2345 13.7532 38.6552 16.176 38.6552 19.1372C38.6552 22.0984 36.2345 24.5211 33.2759 24.5211H22.5172C22.181 24.5211 21.8448 24.8576 21.8448 25.1941C21.8448 25.5306 22.181 25.8671 22.5172 25.8671H33.2759C36.9741 25.8671 40 22.8387 40 19.1372C40 15.4357 36.9741 12.4072 33.2759 12.4072C30.6534 12.4072 28.569 14.4935 28.569 17.1182Z" fill="white"/>
<path d="M21.8448 29.2321H24.5345C24.8707 29.2321 25.2069 28.8956 25.2069 28.5591C25.2069 28.2226 24.8707 27.8861 24.5345 27.8861H21.8448C21.5086 27.8861 21.1724 28.2226 21.1724 28.5591C21.1724 28.8956 21.5086 29.2321 21.8448 29.2321Z" fill="white"/>
<path d="M19.1552 27.8861C18.819 27.8861 18.4828 28.2226 18.4828 28.5591C18.4828 28.8956 18.819 29.2321 19.1552 29.2321H19.8276C20.1638 29.2321 20.5 28.8956 20.5 28.5591C20.5 28.2226 20.1638 27.8861 19.8276 27.8861H19.1552Z" fill="white"/>
<path d="M16.4655 21.1562H13.7759C13.4397 21.1562 13.1034 21.4927 13.1034 21.8292C13.1034 22.1657 13.4397 22.5022 13.7759 22.5022H16.4655C16.8017 22.5022 17.1379 22.1657 17.1379 21.8292C17.1379 21.4927 16.8017 21.1562 16.4655 21.1562Z" fill="white"/>
<path d="M21.1724 25.1941C21.1724 24.8576 20.8362 24.5211 20.5 24.5211H18.4828C18.1466 24.5211 17.8103 24.8576 17.8103 25.1941C17.8103 25.5306 18.1466 25.8671 18.4828 25.8671H20.5C20.8362 25.8671 21.1724 25.5306 21.1724 25.1941Z" fill="white"/>
<path d="M16.4655 24.5211H9.74138C9.33793 24.5211 9.06896 24.8576 9.06896 25.1941C9.06896 25.5306 9.33793 25.8671 9.74138 25.8671H16.4655C16.8017 25.8671 17.1379 25.5306 17.1379 25.1941C17.1379 24.8576 16.8017 24.5211 16.4655 24.5211Z" fill="white"/>
<path d="M24.8034 34.145C22.3828 37.0388 18.819 38.654 15.1207 38.654C8.06034 38.654 2.34483 32.9336 2.34483 25.8671C2.34483 13.1475 12.969 4.19672 15.1207 2.51424C16.1293 3.32183 19.0879 5.81191 21.9121 9.51337C22.1138 9.78257 22.5845 9.84987 22.8534 9.64797C23.1224 9.44607 23.1897 8.97498 22.9879 8.70578C19.4241 3.92752 15.6586 1.16825 15.5241 1.10095C15.2552 0.96635 14.9862 0.96635 14.7172 1.10095C14.1793 1.50475 1 11.0613 1 25.8671C1 33.6739 7.32069 40 15.1207 40C19.2224 40 23.1224 38.1829 25.8121 35.0871C26.081 34.8179 26.0138 34.4141 25.7448 34.145C25.4759 33.8758 25.0724 33.8758 24.8034 34.145Z" stroke="white" stroke-width="0.2" mask="url(#path-1-outside-1_299_2)"/>
<path d="M27.2241 11.0613C27.5603 11.0613 27.8966 10.7248 27.8966 10.3883C27.8966 10.0518 27.5603 9.71527 27.2241 9.71527C26.8879 9.71527 26.5517 9.44607 26.5517 9.04228C26.5517 8.70578 26.8879 8.36928 27.2241 8.36928C28.3672 8.36928 29.2414 9.31148 29.2414 10.3883C29.2414 11.4651 28.3672 12.4072 27.2241 12.4072H11.7586C11.4224 12.4072 11.0862 12.7437 11.0862 13.0802C11.0862 13.4167 11.4224 13.7532 11.7586 13.7532H27.2241C29.1069 13.7532 30.5862 12.2726 30.5862 10.3883C30.5862 8.50388 29.1069 7.0233 27.2241 7.0233C26.081 7.0233 25.2069 7.96549 25.2069 9.04228C25.2069 10.1191 26.081 11.0613 27.2241 11.0613Z" stroke="white" stroke-width="0.2" mask="url(#path-1-outside-1_299_2)"/>
<path d="M23.1897 21.1562H18.4828C18.1466 21.1562 17.8103 21.4927 17.8103 21.8292C17.8103 22.1657 18.1466 22.5022 18.4828 22.5022H23.1897C25.0724 22.5022 26.5517 21.0216 26.5517 19.1372C26.5517 17.2528 25.0724 15.7722 23.1897 15.7722C22.0465 15.7722 21.1724 16.7144 21.1724 17.7912C21.1724 18.868 22.0465 19.8102 23.1897 19.8102C23.5259 19.8102 23.8621 19.4737 23.8621 19.1372C23.8621 18.8007 23.5259 18.4642 23.1897 18.4642C22.8534 18.4642 22.5172 18.1277 22.5172 17.7912C22.5172 17.4547 22.8534 17.1182 23.1897 17.1182C24.3328 17.1182 25.2069 18.0604 25.2069 19.1372C25.2069 20.214 24.3328 21.1562 23.1897 21.1562Z" stroke="white" stroke-width="0.2" mask="url(#path-1-outside-1_299_2)"/>
<path d="M28.569 31.2511H15.7931C15.4569 31.2511 15.1207 31.5876 15.1207 31.9241C15.1207 32.2606 15.4569 32.5971 15.7931 32.5971H28.569C29.7121 32.5971 30.5862 33.472 30.5862 34.616C30.5862 35.7601 29.7121 36.635 28.569 36.635C28.2328 36.635 27.8966 36.2985 27.8966 35.962C27.8966 35.6255 28.2328 35.289 28.569 35.289C28.9052 35.289 29.2414 34.9525 29.2414 34.616C29.2414 34.2795 28.9052 33.9431 28.569 33.9431C27.4259 33.9431 26.5517 34.8179 26.5517 35.962C26.5517 37.1061 27.4259 37.981 28.569 37.981C30.4517 37.981 31.931 36.5004 31.931 34.616C31.931 32.7317 30.4517 31.2511 28.569 31.2511Z" stroke="white" stroke-width="0.2" mask="url(#path-1-outside-1_299_2)"/>
<path d="M35.9655 27.8861H26.5517C26.2155 27.8861 25.8793 28.2226 25.8793 28.5591C25.8793 28.8956 26.2155 29.2321 26.5517 29.2321H35.9655C37.1086 29.2321 37.9828 30.107 37.9828 31.2511C37.9828 32.3952 37.1086 33.2701 35.9655 33.2701C35.6293 33.2701 35.2931 32.9336 35.2931 32.5971C35.2931 32.2606 35.6293 31.9241 35.9655 31.9241C36.3017 31.9241 36.6379 31.5876 36.6379 31.2511C36.6379 30.9146 36.3017 30.5781 35.9655 30.5781C34.8224 30.5781 33.9483 31.453 33.9483 32.5971C33.9483 33.7412 34.8224 34.616 35.9655 34.616C37.8483 34.616 39.3276 33.1355 39.3276 31.2511C39.3276 29.3667 37.8483 27.8861 35.9655 27.8861Z" stroke="white" stroke-width="0.2" mask="url(#path-1-outside-1_299_2)"/>
<path d="M28.569 17.1182C28.569 19.7429 30.6534 21.8292 33.2759 21.8292C34.7552 21.8292 35.9655 20.6178 35.9655 19.1372C35.9655 17.6566 34.7552 16.4452 33.2759 16.4452C32.9397 16.4452 32.6034 16.7817 32.6034 17.1182C32.6034 17.4547 32.9397 17.7912 33.2759 17.7912C34.0155 17.7912 34.6207 18.3969 34.6207 19.1372C34.6207 19.8775 34.0155 20.4832 33.2759 20.4832C31.3931 20.4832 29.9138 19.0026 29.9138 17.1182C29.9138 15.2338 31.3931 13.7532 33.2759 13.7532C36.2345 13.7532 38.6552 16.176 38.6552 19.1372C38.6552 22.0984 36.2345 24.5211 33.2759 24.5211H22.5172C22.181 24.5211 21.8448 24.8576 21.8448 25.1941C21.8448 25.5306 22.181 25.8671 22.5172 25.8671H33.2759C36.9741 25.8671 40 22.8387 40 19.1372C40 15.4357 36.9741 12.4072 33.2759 12.4072C30.6534 12.4072 28.569 14.4935 28.569 17.1182Z" stroke="white" stroke-width="0.2" mask="url(#path-1-outside-1_299_2)"/>
<path d="M21.8448 29.2321H24.5345C24.8707 29.2321 25.2069 28.8956 25.2069 28.5591C25.2069 28.2226 24.8707 27.8861 24.5345 27.8861H21.8448C21.5086 27.8861 21.1724 28.2226 21.1724 28.5591C21.1724 28.8956 21.5086 29.2321 21.8448 29.2321Z" stroke="white" stroke-width="0.2" mask="url(#path-1-outside-1_299_2)"/>
<path d="M19.1552 27.8861C18.819 27.8861 18.4828 28.2226 18.4828 28.5591C18.4828 28.8956 18.819 29.2321 19.1552 29.2321H19.8276C20.1638 29.2321 20.5 28.8956 20.5 28.5591C20.5 28.2226 20.1638 27.8861 19.8276 27.8861H19.1552Z" stroke="white" stroke-width="0.2" mask="url(#path-1-outside-1_299_2)"/>
<path d="M16.4655 21.1562H13.7759C13.4397 21.1562 13.1034 21.4927 13.1034 21.8292C13.1034 22.1657 13.4397 22.5022 13.7759 22.5022H16.4655C16.8017 22.5022 17.1379 22.1657 17.1379 21.8292C17.1379 21.4927 16.8017 21.1562 16.4655 21.1562Z" stroke="white" stroke-width="0.2" mask="url(#path-1-outside-1_299_2)"/>
<path d="M21.1724 25.1941C21.1724 24.8576 20.8362 24.5211 20.5 24.5211H18.4828C18.1466 24.5211 17.8103 24.8576 17.8103 25.1941C17.8103 25.5306 18.1466 25.8671 18.4828 25.8671H20.5C20.8362 25.8671 21.1724 25.5306 21.1724 25.1941Z" stroke="white" stroke-width="0.2" mask="url(#path-1-outside-1_299_2)"/>
<path d="M16.4655 24.5211H9.74138C9.33793 24.5211 9.06896 24.8576 9.06896 25.1941C9.06896 25.5306 9.33793 25.8671 9.74138 25.8671H16.4655C16.8017 25.8671 17.1379 25.5306 17.1379 25.1941C17.1379 24.8576 16.8017 24.5211 16.4655 24.5211Z" stroke="white" stroke-width="0.2" mask="url(#path-1-outside-1_299_2)"/>
</svg>
