<svg width="51" height="51" viewBox="0 0 51 51" fill="none" xmlns="http://www.w3.org/2000/svg">
<path d="M37.0033 29.4667C34.1133 27.8233 30.0333 25.4433 28.73 24.7067C28.6167 23.8 28.1633 23.0067 27.4833 22.44C28.1633 21.08 29.5233 20.1733 31.0533 20.06C31.11 20.06 31.1667 20.06 31.2233 20.06C34.7933 19.72 37.6833 16.7733 37.91 13.2033C38.08 11.05 37.2867 8.95333 35.7567 7.42333C34.2833 5.89333 32.1867 5.1 30.0333 5.27C26.18 5.55333 23.12 8.89667 23.12 12.8633V22.44C22.44 22.95 21.93 23.7433 21.8167 24.65C20.3433 24.7633 18.87 24.0267 17.9633 22.7233C17.9633 22.7233 17.9067 22.6667 17.9067 22.61C15.81 19.6633 11.8433 18.6433 8.61333 20.23C6.68667 21.1933 5.21333 22.8933 4.64667 24.99C4.08 27.0867 4.47667 29.2967 5.66667 31.11C7.08333 33.2067 9.40667 34.34 11.8433 34.34C13.1467 34.34 14.5067 34 15.6967 33.32C17.51 32.3 19.8333 30.94 21.59 29.92C22.61 29.3533 23.46 28.8433 23.97 28.56C24.3667 28.73 24.82 28.8433 25.33 28.8433C25.7833 28.8433 26.18 28.73 26.5767 28.6167C27.4267 29.8633 27.54 31.5067 26.86 32.9233C26.86 32.98 26.8033 33.0367 26.8033 33.0933C25.33 36.3233 26.4067 40.29 29.41 42.33C30.6567 43.18 32.13 43.6333 33.6033 43.6333C34.2267 43.6333 34.85 43.5767 35.4733 43.4067C37.57 42.84 39.3267 41.4233 40.2333 39.4967C41.8767 35.8133 40.5167 31.5067 37.0033 29.4667ZM24.5367 12.8633C24.5367 9.63333 26.9733 6.91333 30.1467 6.68667C31.9033 6.57333 33.6033 7.19667 34.7933 8.44333C36.04 9.69 36.6633 11.39 36.55 13.09C36.3233 15.98 34 18.36 31.11 18.6433H31.0533C28.9567 18.8133 27.2 20.0033 26.2933 21.8167C25.9533 21.7033 25.67 21.6467 25.33 21.6467C25.1033 21.6467 24.82 21.6467 24.5933 21.7033V12.8633H24.5367ZM20.8533 28.6167C19.0967 29.6367 16.7733 30.9967 14.96 32.0167C12.1267 33.66 8.55667 32.8667 6.8 30.26C5.83667 28.7867 5.55333 27.03 6.00667 25.33C6.46 23.63 7.59333 22.27 9.18 21.4767C11.7867 20.23 15.0167 21.0233 16.66 23.4033L16.7167 23.46C17.9067 25.16 19.8333 26.1233 21.8167 26.01C21.93 26.5767 22.2133 27.0867 22.61 27.54C22.1567 27.8233 21.5333 28.1633 20.8533 28.6167ZM23.12 25.2167C23.12 24.0267 24.0833 23.12 25.2167 23.12C26.35 23.12 27.3133 24.0833 27.3133 25.2167C27.3133 26.35 26.35 27.3133 25.2167 27.3133C24.0833 27.3133 23.12 26.35 23.12 25.2167ZM38.8733 38.6467C38.08 40.2333 36.72 41.3667 35.02 41.82C33.32 42.2733 31.5633 41.9333 30.09 40.97C27.71 39.3267 26.8033 36.1533 27.9933 33.49L28.05 33.4333C28.9567 31.5633 28.7867 29.41 27.71 27.71C28.1067 27.3133 28.4467 26.8033 28.6167 26.2367C30.3167 27.2 33.7733 29.1833 36.3233 30.6567C39.1 32.3567 40.2333 35.8133 38.8733 38.6467Z" fill="#192646"/>
<path d="M25.5 0C11.4467 0 0 11.4467 0 25.5C0 39.5533 11.4467 51 25.5 51C39.5533 51 51 39.5533 51 25.5C51 11.4467 39.5533 0 25.5 0ZM25.5 49.5833C12.24 49.5833 1.41667 38.8167 1.41667 25.5C1.41667 12.1833 12.24 1.41667 25.5 1.41667C38.76 1.41667 49.5833 12.1833 49.5833 25.5C49.5833 38.8167 38.76 49.5833 25.5 49.5833Z" fill="#192646"/>
<path d="M25.2733 41.5367C20.57 41.5367 16.0933 39.4967 12.9767 35.9833L11.9 36.89C15.3 40.7433 20.1733 42.9533 25.2733 42.9533C25.5567 42.9533 25.8967 42.9533 26.2367 42.9533L26.18 41.5367C25.84 41.5367 25.5567 41.5367 25.2733 41.5367Z" fill="#192646"/>
<path d="M40.1767 15.5267L38.9867 16.32C40.6867 18.9833 41.5933 22.0433 41.5933 25.2167C41.5933 27.03 41.31 28.7867 40.7433 30.4867L42.1033 30.94C42.7267 29.1267 43.0667 27.2 43.0667 25.2167C43.01 21.76 42.0467 18.4167 40.1767 15.5267Z" fill="#192646"/>
<path d="M22.1 9.18L21.8167 7.76333C16.49 8.78333 11.9 12.2967 9.40667 17.1133L10.71 17.7933C12.9767 13.3733 17.2267 10.1433 22.1 9.18Z" fill="#192646"/>
<path d="M15.1867 36.1533C17.7367 38.4767 21.0233 39.8933 24.48 40.0633L24.5367 38.6467C21.42 38.4767 18.4733 37.23 16.15 35.1333L15.1867 36.1533Z" fill="#192646"/>
<path d="M39.78 28.4467C40.0067 27.4267 40.12 26.2933 40.12 25.2167C40.12 22.8367 39.5533 20.57 38.5333 18.4733L37.23 19.1533C38.1933 21.0233 38.7033 23.12 38.7033 25.2167C38.7033 26.2367 38.59 27.2 38.3633 28.1633L39.78 28.4467Z" fill="#192646"/>
<path d="M20.7967 10.9933C17.51 12.0133 14.6767 14.1667 12.8067 17.0567L13.9967 17.85C15.6967 15.2433 18.2467 13.3167 21.25 12.3533L20.7967 10.9933Z" fill="#192646"/>
<path d="M18.8133 33.6033L17.9633 34.7367C19.6633 36.04 21.7033 36.89 23.8567 37.1167L24.0267 35.7C22.1 35.4733 20.3433 34.7367 18.8133 33.6033Z" fill="#192646"/>
<path d="M37.1733 26.7467C37.23 26.2367 37.2867 25.67 37.2867 25.16C37.2867 23.5167 36.9467 21.93 36.3233 20.4567L35.02 21.0233C35.5867 22.3267 35.87 23.7433 35.87 25.16C35.87 25.6133 35.8133 26.0667 35.7567 26.52L37.1733 26.7467Z" fill="#192646"/>
<path d="M15.64 17.9633L16.7733 18.8133C17.9067 17.2833 19.4367 16.0933 21.1933 15.4133L20.6267 14.11C18.7 14.9033 16.9433 16.2633 15.64 17.9633Z" fill="#192646"/>
</svg>
