<svg width="49" height="49" viewBox="0 0 49 49" fill="none" xmlns="http://www.w3.org/2000/svg">
<path fill-rule="evenodd" clip-rule="evenodd" d="M36.7912 25.0371C35.5539 25.0371 34.1515 25.7808 34.069 27.1029L33.9865 27.8465H35.8013C35.8838 27.2681 36.4613 26.855 36.8737 26.9376C37.2862 26.9376 37.8636 27.3508 37.7811 27.8465C37.7811 28.5076 37.2037 28.8381 36.7088 29.1686C35.8013 29.6644 34.8114 30.1602 34.3165 31.0691C33.904 31.8954 33.904 32.5565 33.904 33.4654H39.7609V31.5649H36.3788C37.2037 30.9039 38.1936 30.5734 38.8535 29.747C39.596 28.8381 39.8434 27.4334 39.1835 26.4418C38.771 25.5329 37.6987 25.0371 36.7912 25.0371Z" fill="#192646"/>
<path fill-rule="evenodd" clip-rule="evenodd" d="M24.665 0C17.3232 0 11.3013 5.78415 10.8889 13.1383C4.45455 15.0388 0 20.8229 0 27.516C0 35.8617 6.76431 42.6374 15.096 42.6374C15.7559 42.6374 16.4983 42.5548 17.1582 42.4722L20.1279 48.9174L21.8603 48.0911L18.3131 40.4064L17.5707 40.5717C16.7458 40.7369 15.9209 40.8196 15.096 40.8196C7.75421 40.8196 1.81481 34.8702 1.81481 27.516C1.81481 21.4013 5.93939 16.113 11.7963 14.6256L12.4562 14.4604V13.7167C12.5387 7.10624 17.9007 1.81788 24.5 1.81788C31.0993 1.81788 36.4613 7.10624 36.5438 13.7167V14.4604L37.2037 14.6256C43.0606 16.113 47.1852 21.4013 47.1852 27.516C47.1852 34.8702 41.2458 40.8196 33.904 40.8196C33.0791 40.8196 32.2542 40.7369 31.4293 40.5717L30.6869 40.4064L27.0572 48.1737L28.7896 49L31.8417 42.4722C32.5017 42.5548 33.2441 42.6374 33.904 42.6374C42.2357 42.6374 49 35.8617 49 27.516C49 20.8229 44.5455 15.0388 38.1111 13.1383C38.0286 5.78415 32.0067 0 24.665 0Z" fill="#192646"/>
<path fill-rule="evenodd" clip-rule="evenodd" d="M16.0859 20.3272C14.931 20.1619 13.7761 20.3272 12.7037 20.8229C10.5589 21.8971 9.32155 24.2934 9.65152 26.6897C9.98148 29.086 11.7138 31.0691 14.1061 31.5649C16.4158 32.0607 18.8081 30.9039 20.0455 28.7555L18.3956 27.8465C17.5707 29.2513 16.0034 29.9949 14.5185 29.6644C12.9512 29.3339 11.7963 28.0118 11.5488 26.3592C11.3013 24.7066 12.2088 23.054 13.6111 22.3929C15.0135 21.6492 16.7458 21.9798 17.8182 23.1366L19.138 21.8145C18.2306 21.0708 17.1582 20.4924 16.0859 20.3272Z" fill="#192646"/>
<path fill-rule="evenodd" clip-rule="evenodd" d="M26.9747 22.0624C29.037 22.0624 30.6869 23.7976 30.6869 25.946C30.6869 28.0944 29.037 29.8297 26.9747 29.8297C24.9125 29.8297 23.2626 28.0944 23.2626 25.946C23.2626 23.7976 24.9949 22.0624 26.9747 22.0624ZM26.9747 20.2445C23.9226 20.2445 21.3653 22.8887 21.3653 26.0287C21.3653 29.1686 23.8401 31.8128 26.9747 31.8128C30.0269 31.8128 32.5842 29.1686 32.5842 26.0287C32.5842 22.8061 30.1094 20.2445 26.9747 20.2445Z" fill="#192646"/>
</svg>
