<svg width="52" height="53" viewBox="0 0 52 53" fill="none" xmlns="http://www.w3.org/2000/svg">
<mask id="path-1-outside-1_1_1280" maskUnits="userSpaceOnUse" x="0" y="0" width="52" height="53" fill="black">
<rect fill="white" width="52" height="53"/>
<path d="M45.8656 10.6238H48.9142C49.2351 10.6238 49.556 10.3837 49.556 9.98352C49.556 9.58337 49.3153 9.34327 48.9142 9.34327H45.8656C45.5447 9.34327 45.2238 9.58337 45.2238 9.98352C45.2238 10.3837 45.5447 10.6238 45.8656 10.6238Z"/>
<path d="M45.8656 14.1452H48.9142C49.2351 14.1452 49.556 13.9051 49.556 13.5849C49.556 13.2648 49.3153 12.9447 48.9944 12.9447H45.9459C45.625 12.9447 45.3041 13.1848 45.3041 13.5849C45.3041 13.825 45.5447 14.1452 45.8656 14.1452Z"/>
<path d="M45.8656 17.6665H48.9142C49.2351 17.6665 49.556 17.4264 49.556 17.0263C49.556 16.6261 49.3153 16.386 48.9142 16.386H45.8656C45.5447 16.386 45.2238 16.6261 45.2238 17.0263C45.2238 17.4264 45.5447 17.6665 45.8656 17.6665Z"/>
<path d="M45.8656 21.1879H48.9142C49.2351 21.1879 49.556 20.9478 49.556 20.5477C49.556 20.1475 49.3153 19.9074 48.9142 19.9074H45.8656C45.5447 19.9074 45.2238 20.1475 45.2238 20.5477C45.2238 20.9478 45.5447 21.1879 45.8656 21.1879Z"/>
<path d="M45.8656 24.7093H48.9142C49.2351 24.7093 49.556 24.4692 49.556 24.069C49.556 23.6689 49.3153 23.4288 48.9142 23.4288H45.8656C45.5447 23.4288 45.2238 23.6689 45.2238 24.069C45.2238 24.4692 45.5447 24.7093 45.8656 24.7093Z"/>
<path d="M43.138 27.1102V6.38211C43.138 3.50098 40.8115 1.18007 37.9234 1.18007C35.0353 1.18007 32.7088 3.50098 32.7088 6.38211V27.1102C27.8953 29.1911 24.8468 33.8329 24.8468 39.0349C24.8468 46.2377 30.7032 52 37.8432 52C42.1753 52 46.1865 49.8392 48.5933 46.3178C48.7537 46.0777 48.7537 45.6775 48.4328 45.5175C48.1921 45.3574 47.791 45.3574 47.6306 45.6775C45.3843 48.8788 41.7742 50.7995 37.8432 50.7995C31.345 50.7995 25.9699 45.5175 25.9699 38.9549C25.9699 34.073 28.9382 29.7513 33.4308 27.9906C33.6715 27.9106 33.8319 27.6705 33.8319 27.4304V6.38211C33.8319 4.22126 35.5969 2.38054 37.8432 2.38054C40.0895 2.38054 41.8544 4.14123 41.8544 6.38211V27.5104C41.8544 27.7505 42.0148 27.9906 42.2555 28.0706C46.8283 29.8313 49.7164 34.153 49.7164 39.0349C49.7164 40.7956 49.3153 42.3962 48.6735 43.9969C48.513 44.317 48.6735 44.6371 48.9944 44.7972C49.3153 44.9572 49.6362 44.7972 49.7966 44.4771C50.5989 42.7964 51 40.9557 51 39.0349C51 33.8329 47.9515 29.1911 43.138 27.1102Z"/>
<path d="M32.3077 34.4731C32.067 34.3131 31.6659 34.3931 31.5054 34.6332C30.6229 35.9137 30.1416 37.4343 30.1416 39.0349C30.1416 43.3566 33.6715 46.878 38.0036 46.878C42.3357 46.878 45.8656 43.3566 45.8656 39.0349C45.8656 35.5936 43.5391 32.5524 40.2499 31.512V16.4661C40.2499 16.1459 40.0092 15.8258 39.6081 15.8258C39.207 15.8258 38.9663 16.0659 38.9663 16.4661V32.0722C38.9663 32.3123 39.1268 32.6324 39.4477 32.6324C42.416 33.2727 44.582 35.9937 44.582 39.0349C44.582 42.6363 41.6137 45.5975 38.0036 45.5975C34.3935 45.5975 31.4252 42.6363 31.4252 39.0349C31.4252 37.6744 31.8263 36.3939 32.5483 35.3535C32.7088 35.0333 32.6286 34.7132 32.3077 34.4731Z"/>
<path d="M33.9122 33.8329C34.7144 33.2727 35.5166 32.7925 36.4793 32.6324C36.72 32.5524 36.9607 32.3123 36.9607 32.0722V16.4661C36.9607 16.1459 36.72 15.8258 36.3189 15.8258C35.9178 15.8258 35.6771 16.0659 35.6771 16.4661V31.592C34.7946 31.8321 33.9924 32.3123 33.1901 32.8725C32.9495 33.0326 32.8692 33.4327 33.1099 33.6728C33.2704 33.8329 33.4308 33.9129 33.5913 33.9129C33.6715 33.9929 33.8319 33.9129 33.9122 33.8329Z"/>
<path d="M28.2964 24.7893C28.6173 24.7893 28.9382 24.5492 28.9382 24.2291C28.9382 23.909 28.6976 23.5889 28.3767 23.5889L24.3654 23.4288L22.7609 21.8282L25.4083 21.9882C25.7292 21.9882 26.0501 21.7481 26.0501 21.428C26.0501 21.1079 25.8095 20.7878 25.4886 20.7878L21.4773 20.6277L18.8299 17.9867C19.0706 17.5865 19.3113 17.1863 19.3915 16.7062H23.0818L26.0501 19.4272C26.1304 19.5073 26.2908 19.5873 26.4513 19.5873C26.6117 19.5873 26.7722 19.5073 26.8524 19.4272C27.0931 19.1871 27.0931 18.787 26.8524 18.5469L24.8468 16.7862H27.0931L30.0614 19.5073C30.1416 19.5873 30.302 19.6673 30.4625 19.6673C30.6229 19.6673 30.7834 19.5873 30.8636 19.5073C31.1043 19.2672 31.1043 18.867 30.8636 18.6269L28.2162 16.226L30.8636 13.825C31.1043 13.5849 31.1043 13.1848 30.8636 12.9447C30.6229 12.7046 30.2218 12.7046 29.9811 12.8647L27.1733 15.4257H24.927L26.9326 13.665C27.1733 13.4249 27.1733 13.0247 26.9326 12.7846C26.6919 12.5445 26.2908 12.5445 26.0501 12.7046L23.1621 15.4257H19.4717C19.3915 14.9455 19.231 14.4653 18.9101 14.1452L21.5576 11.5041L25.5688 11.3441C25.8897 11.3441 26.1304 11.0239 26.1304 10.7038C26.1304 10.3837 25.8095 10.1436 25.4886 10.1436L22.8412 10.3036L24.4456 8.70302L28.4569 8.54296C28.7778 8.54296 29.0185 8.22283 29.0185 7.90271C29.0185 7.58258 28.6976 7.34249 28.3767 7.34249L24.7665 7.42252L24.927 3.90114C24.927 3.58101 24.6863 3.26089 24.3654 3.26089C24.0445 3.26089 23.7236 3.50098 23.7236 3.82111L23.5632 7.82267L21.9587 9.4233L22.1191 6.78227C22.1191 6.46214 21.8785 6.14202 21.5576 6.14202C21.2367 6.14202 20.9158 6.38211 20.9158 6.70224L20.7553 10.7038L18.1079 13.3448C17.7068 13.1047 17.3057 12.8647 16.8243 12.7846V9.02315L19.5519 6.06199C19.7926 5.82189 19.7926 5.42173 19.5519 5.18164C19.3113 4.94155 18.9101 4.94155 18.6695 5.26167L16.9045 7.26246V5.02158L19.6322 2.06042C19.8728 1.82032 19.7926 1.42016 19.5519 1.18007C19.3113 0.939976 18.9101 0.939976 18.6695 1.18007L16.2627 3.82111L13.856 1.18007C13.6153 0.939976 13.2142 0.939976 12.9735 1.18007C12.7329 1.42016 12.7329 1.82032 12.9735 2.06042L15.5407 4.94155V7.18242L13.6955 5.18164C13.4549 4.94155 13.0538 4.94155 12.8131 5.10161C12.5724 5.3417 12.5724 5.74186 12.8131 5.98195L15.5407 8.94311V12.6246C15.0594 12.7046 14.578 12.8647 14.2571 13.1848L11.6097 10.6238L11.4493 6.6222C11.4493 6.30208 11.1284 6.06199 10.8075 6.06199C10.4866 6.06199 10.2459 6.38211 10.2459 6.70224L10.4063 9.34327L8.80185 7.74264L8.6414 3.74108C8.6414 3.42095 8.3205 3.18086 7.9996 3.18086C7.6787 3.18086 7.43803 3.50098 7.43803 3.82111L7.51825 7.42252L3.90814 7.26246C3.58724 7.26246 3.26635 7.50255 3.26635 7.82267C3.26635 8.1428 3.50702 8.46293 3.82792 8.46293L7.83915 8.62299L9.44364 10.2236L6.79623 10.0636C6.47533 10.0636 6.15443 10.3036 6.15443 10.6238C6.15443 10.9439 6.39511 11.264 6.716 11.264L10.7272 11.4241L13.3746 14.0651C13.134 14.4653 12.8933 14.8654 12.8131 15.3456H9.04252L6.07421 12.6246C5.83353 12.3845 5.43241 12.3845 5.19174 12.7046C4.95106 12.9447 4.95106 13.3448 5.27196 13.5849L7.27758 15.4257H5.03129L2.06298 12.7046C1.8223 12.4645 1.42118 12.4645 1.18051 12.7846C0.939832 13.0247 0.939832 13.4249 1.18051 13.665L3.82792 16.0659L1.18051 18.4668C0.939832 18.7069 0.939832 19.1071 1.18051 19.3472C1.34095 19.5073 1.42118 19.5073 1.58163 19.5073C1.74208 19.5073 1.90253 19.4272 1.98275 19.3472L4.95106 16.6261H7.19735L5.19174 18.3868C4.95106 18.6269 4.95106 19.0271 5.11151 19.2672C5.27196 19.4272 5.35219 19.4272 5.59286 19.4272C5.75331 19.4272 5.91376 19.3472 5.99398 19.2672L8.96229 16.5461H12.6526C12.7329 17.0263 12.8933 17.5065 13.2142 17.8266L10.7272 20.6277L6.716 20.7878C6.39511 20.7878 6.15443 21.1079 6.15443 21.428C6.15443 21.7481 6.47533 21.9882 6.79623 21.9882L9.44364 21.8282L7.83915 23.4288L3.82792 23.5889C3.50702 23.5889 3.26635 23.909 3.26635 24.2291C3.26635 24.5492 3.58724 24.7893 3.90814 24.7893L7.51825 24.6293L7.3578 28.2307C7.3578 28.5508 7.59848 28.8709 7.91937 28.8709C8.24027 28.8709 8.48095 28.6308 8.56117 28.3107L8.72162 24.3091L10.3261 22.7085L10.1657 25.3495C10.1657 25.6697 10.4063 25.9898 10.7272 25.9898C11.0481 25.9898 11.2888 25.7497 11.369 25.4296L11.5295 21.428L14.1769 18.787C14.578 19.0271 14.9791 19.2672 15.4605 19.3472V23.0286L12.7329 25.9898C12.4922 26.2299 12.4922 26.6301 12.7329 26.8701C12.9735 27.1102 13.3746 27.1102 13.6153 26.8701L15.4605 24.8694V27.1102L12.7329 30.0714C12.4922 30.3115 12.4922 30.7117 12.7329 30.9517C12.9735 31.1918 13.3746 31.1918 13.6153 30.9517L16.0221 28.3107L18.4288 30.9517C18.509 31.1118 18.7497 31.1118 18.8299 31.1118C18.9904 31.1118 19.1508 31.0318 19.231 30.9517C19.4717 30.7117 19.4717 30.3115 19.231 30.0714L16.5034 27.1102V24.8694L18.2684 26.8701C18.3486 27.0302 18.5892 27.0302 18.6695 27.0302C18.8299 27.0302 18.9904 26.9502 19.0706 26.8701C19.3113 26.6301 19.3113 26.2299 19.0706 25.9898L16.343 23.0286V19.3472C16.8243 19.2672 17.3057 19.1071 17.6266 18.787L20.274 21.428L20.4344 25.4296C20.4344 25.7497 20.7553 25.9898 21.0762 25.9898C21.3971 25.9898 21.6378 25.6697 21.6378 25.3495L21.9587 22.7085L23.5632 24.3091L23.7236 28.3107C23.7236 28.6308 24.0445 28.8709 24.3654 28.8709C24.6863 28.8709 24.927 28.5508 24.927 28.2307L24.7665 24.6293L28.2964 24.7893ZM16.1023 18.2268C14.8989 18.2268 13.9362 17.2664 13.9362 16.0659C13.9362 14.8654 14.8989 13.9051 16.1023 13.9051C17.3057 13.9051 18.2684 14.8654 18.2684 16.0659C18.2684 17.2664 17.3057 18.2268 16.1023 18.2268Z"/>
</mask>
<path d="M45.8656 10.6238H48.9142C49.2351 10.6238 49.556 10.3837 49.556 9.98352C49.556 9.58337 49.3153 9.34327 48.9142 9.34327H45.8656C45.5447 9.34327 45.2238 9.58337 45.2238 9.98352C45.2238 10.3837 45.5447 10.6238 45.8656 10.6238Z" fill="#192646"/>
<path d="M45.8656 14.1452H48.9142C49.2351 14.1452 49.556 13.9051 49.556 13.5849C49.556 13.2648 49.3153 12.9447 48.9944 12.9447H45.9459C45.625 12.9447 45.3041 13.1848 45.3041 13.5849C45.3041 13.825 45.5447 14.1452 45.8656 14.1452Z" fill="#192646"/>
<path d="M45.8656 17.6665H48.9142C49.2351 17.6665 49.556 17.4264 49.556 17.0263C49.556 16.6261 49.3153 16.386 48.9142 16.386H45.8656C45.5447 16.386 45.2238 16.6261 45.2238 17.0263C45.2238 17.4264 45.5447 17.6665 45.8656 17.6665Z" fill="#192646"/>
<path d="M45.8656 21.1879H48.9142C49.2351 21.1879 49.556 20.9478 49.556 20.5477C49.556 20.1475 49.3153 19.9074 48.9142 19.9074H45.8656C45.5447 19.9074 45.2238 20.1475 45.2238 20.5477C45.2238 20.9478 45.5447 21.1879 45.8656 21.1879Z" fill="#192646"/>
<path d="M45.8656 24.7093H48.9142C49.2351 24.7093 49.556 24.4692 49.556 24.069C49.556 23.6689 49.3153 23.4288 48.9142 23.4288H45.8656C45.5447 23.4288 45.2238 23.6689 45.2238 24.069C45.2238 24.4692 45.5447 24.7093 45.8656 24.7093Z" fill="#192646"/>
<path d="M43.138 27.1102V6.38211C43.138 3.50098 40.8115 1.18007 37.9234 1.18007C35.0353 1.18007 32.7088 3.50098 32.7088 6.38211V27.1102C27.8953 29.1911 24.8468 33.8329 24.8468 39.0349C24.8468 46.2377 30.7032 52 37.8432 52C42.1753 52 46.1865 49.8392 48.5933 46.3178C48.7537 46.0777 48.7537 45.6775 48.4328 45.5175C48.1921 45.3574 47.791 45.3574 47.6306 45.6775C45.3843 48.8788 41.7742 50.7995 37.8432 50.7995C31.345 50.7995 25.9699 45.5175 25.9699 38.9549C25.9699 34.073 28.9382 29.7513 33.4308 27.9906C33.6715 27.9106 33.8319 27.6705 33.8319 27.4304V6.38211C33.8319 4.22126 35.5969 2.38054 37.8432 2.38054C40.0895 2.38054 41.8544 4.14123 41.8544 6.38211V27.5104C41.8544 27.7505 42.0148 27.9906 42.2555 28.0706C46.8283 29.8313 49.7164 34.153 49.7164 39.0349C49.7164 40.7956 49.3153 42.3962 48.6735 43.9969C48.513 44.317 48.6735 44.6371 48.9944 44.7972C49.3153 44.9572 49.6362 44.7972 49.7966 44.4771C50.5989 42.7964 51 40.9557 51 39.0349C51 33.8329 47.9515 29.1911 43.138 27.1102Z" fill="#192646"/>
<path d="M32.3077 34.4731C32.067 34.3131 31.6659 34.3931 31.5054 34.6332C30.6229 35.9137 30.1416 37.4343 30.1416 39.0349C30.1416 43.3566 33.6715 46.878 38.0036 46.878C42.3357 46.878 45.8656 43.3566 45.8656 39.0349C45.8656 35.5936 43.5391 32.5524 40.2499 31.512V16.4661C40.2499 16.1459 40.0092 15.8258 39.6081 15.8258C39.207 15.8258 38.9663 16.0659 38.9663 16.4661V32.0722C38.9663 32.3123 39.1268 32.6324 39.4477 32.6324C42.416 33.2727 44.582 35.9937 44.582 39.0349C44.582 42.6363 41.6137 45.5975 38.0036 45.5975C34.3935 45.5975 31.4252 42.6363 31.4252 39.0349C31.4252 37.6744 31.8263 36.3939 32.5483 35.3535C32.7088 35.0333 32.6286 34.7132 32.3077 34.4731Z" fill="#192646"/>
<path d="M33.9122 33.8329C34.7144 33.2727 35.5166 32.7925 36.4793 32.6324C36.72 32.5524 36.9607 32.3123 36.9607 32.0722V16.4661C36.9607 16.1459 36.72 15.8258 36.3189 15.8258C35.9178 15.8258 35.6771 16.0659 35.6771 16.4661V31.592C34.7946 31.8321 33.9924 32.3123 33.1901 32.8725C32.9495 33.0326 32.8692 33.4327 33.1099 33.6728C33.2704 33.8329 33.4308 33.9129 33.5913 33.9129C33.6715 33.9929 33.8319 33.9129 33.9122 33.8329Z" fill="#192646"/>
<path d="M28.2964 24.7893C28.6173 24.7893 28.9382 24.5492 28.9382 24.2291C28.9382 23.909 28.6976 23.5889 28.3767 23.5889L24.3654 23.4288L22.7609 21.8282L25.4083 21.9882C25.7292 21.9882 26.0501 21.7481 26.0501 21.428C26.0501 21.1079 25.8095 20.7878 25.4886 20.7878L21.4773 20.6277L18.8299 17.9867C19.0706 17.5865 19.3113 17.1863 19.3915 16.7062H23.0818L26.0501 19.4272C26.1304 19.5073 26.2908 19.5873 26.4513 19.5873C26.6117 19.5873 26.7722 19.5073 26.8524 19.4272C27.0931 19.1871 27.0931 18.787 26.8524 18.5469L24.8468 16.7862H27.0931L30.0614 19.5073C30.1416 19.5873 30.302 19.6673 30.4625 19.6673C30.6229 19.6673 30.7834 19.5873 30.8636 19.5073C31.1043 19.2672 31.1043 18.867 30.8636 18.6269L28.2162 16.226L30.8636 13.825C31.1043 13.5849 31.1043 13.1848 30.8636 12.9447C30.6229 12.7046 30.2218 12.7046 29.9811 12.8647L27.1733 15.4257H24.927L26.9326 13.665C27.1733 13.4249 27.1733 13.0247 26.9326 12.7846C26.6919 12.5445 26.2908 12.5445 26.0501 12.7046L23.1621 15.4257H19.4717C19.3915 14.9455 19.231 14.4653 18.9101 14.1452L21.5576 11.5041L25.5688 11.3441C25.8897 11.3441 26.1304 11.0239 26.1304 10.7038C26.1304 10.3837 25.8095 10.1436 25.4886 10.1436L22.8412 10.3036L24.4456 8.70302L28.4569 8.54296C28.7778 8.54296 29.0185 8.22283 29.0185 7.90271C29.0185 7.58258 28.6976 7.34249 28.3767 7.34249L24.7665 7.42252L24.927 3.90114C24.927 3.58101 24.6863 3.26089 24.3654 3.26089C24.0445 3.26089 23.7236 3.50098 23.7236 3.82111L23.5632 7.82267L21.9587 9.4233L22.1191 6.78227C22.1191 6.46214 21.8785 6.14202 21.5576 6.14202C21.2367 6.14202 20.9158 6.38211 20.9158 6.70224L20.7553 10.7038L18.1079 13.3448C17.7068 13.1047 17.3057 12.8647 16.8243 12.7846V9.02315L19.5519 6.06199C19.7926 5.82189 19.7926 5.42173 19.5519 5.18164C19.3113 4.94155 18.9101 4.94155 18.6695 5.26167L16.9045 7.26246V5.02158L19.6322 2.06042C19.8728 1.82032 19.7926 1.42016 19.5519 1.18007C19.3113 0.939976 18.9101 0.939976 18.6695 1.18007L16.2627 3.82111L13.856 1.18007C13.6153 0.939976 13.2142 0.939976 12.9735 1.18007C12.7329 1.42016 12.7329 1.82032 12.9735 2.06042L15.5407 4.94155V7.18242L13.6955 5.18164C13.4549 4.94155 13.0538 4.94155 12.8131 5.10161C12.5724 5.3417 12.5724 5.74186 12.8131 5.98195L15.5407 8.94311V12.6246C15.0594 12.7046 14.578 12.8647 14.2571 13.1848L11.6097 10.6238L11.4493 6.6222C11.4493 6.30208 11.1284 6.06199 10.8075 6.06199C10.4866 6.06199 10.2459 6.38211 10.2459 6.70224L10.4063 9.34327L8.80185 7.74264L8.6414 3.74108C8.6414 3.42095 8.3205 3.18086 7.9996 3.18086C7.6787 3.18086 7.43803 3.50098 7.43803 3.82111L7.51825 7.42252L3.90814 7.26246C3.58724 7.26246 3.26635 7.50255 3.26635 7.82267C3.26635 8.1428 3.50702 8.46293 3.82792 8.46293L7.83915 8.62299L9.44364 10.2236L6.79623 10.0636C6.47533 10.0636 6.15443 10.3036 6.15443 10.6238C6.15443 10.9439 6.39511 11.264 6.716 11.264L10.7272 11.4241L13.3746 14.0651C13.134 14.4653 12.8933 14.8654 12.8131 15.3456H9.04252L6.07421 12.6246C5.83353 12.3845 5.43241 12.3845 5.19174 12.7046C4.95106 12.9447 4.95106 13.3448 5.27196 13.5849L7.27758 15.4257H5.03129L2.06298 12.7046C1.8223 12.4645 1.42118 12.4645 1.18051 12.7846C0.939832 13.0247 0.939832 13.4249 1.18051 13.665L3.82792 16.0659L1.18051 18.4668C0.939832 18.7069 0.939832 19.1071 1.18051 19.3472C1.34095 19.5073 1.42118 19.5073 1.58163 19.5073C1.74208 19.5073 1.90253 19.4272 1.98275 19.3472L4.95106 16.6261H7.19735L5.19174 18.3868C4.95106 18.6269 4.95106 19.0271 5.11151 19.2672C5.27196 19.4272 5.35219 19.4272 5.59286 19.4272C5.75331 19.4272 5.91376 19.3472 5.99398 19.2672L8.96229 16.5461H12.6526C12.7329 17.0263 12.8933 17.5065 13.2142 17.8266L10.7272 20.6277L6.716 20.7878C6.39511 20.7878 6.15443 21.1079 6.15443 21.428C6.15443 21.7481 6.47533 21.9882 6.79623 21.9882L9.44364 21.8282L7.83915 23.4288L3.82792 23.5889C3.50702 23.5889 3.26635 23.909 3.26635 24.2291C3.26635 24.5492 3.58724 24.7893 3.90814 24.7893L7.51825 24.6293L7.3578 28.2307C7.3578 28.5508 7.59848 28.8709 7.91937 28.8709C8.24027 28.8709 8.48095 28.6308 8.56117 28.3107L8.72162 24.3091L10.3261 22.7085L10.1657 25.3495C10.1657 25.6697 10.4063 25.9898 10.7272 25.9898C11.0481 25.9898 11.2888 25.7497 11.369 25.4296L11.5295 21.428L14.1769 18.787C14.578 19.0271 14.9791 19.2672 15.4605 19.3472V23.0286L12.7329 25.9898C12.4922 26.2299 12.4922 26.6301 12.7329 26.8701C12.9735 27.1102 13.3746 27.1102 13.6153 26.8701L15.4605 24.8694V27.1102L12.7329 30.0714C12.4922 30.3115 12.4922 30.7117 12.7329 30.9517C12.9735 31.1918 13.3746 31.1918 13.6153 30.9517L16.0221 28.3107L18.4288 30.9517C18.509 31.1118 18.7497 31.1118 18.8299 31.1118C18.9904 31.1118 19.1508 31.0318 19.231 30.9517C19.4717 30.7117 19.4717 30.3115 19.231 30.0714L16.5034 27.1102V24.8694L18.2684 26.8701C18.3486 27.0302 18.5892 27.0302 18.6695 27.0302C18.8299 27.0302 18.9904 26.9502 19.0706 26.8701C19.3113 26.6301 19.3113 26.2299 19.0706 25.9898L16.343 23.0286V19.3472C16.8243 19.2672 17.3057 19.1071 17.6266 18.787L20.274 21.428L20.4344 25.4296C20.4344 25.7497 20.7553 25.9898 21.0762 25.9898C21.3971 25.9898 21.6378 25.6697 21.6378 25.3495L21.9587 22.7085L23.5632 24.3091L23.7236 28.3107C23.7236 28.6308 24.0445 28.8709 24.3654 28.8709C24.6863 28.8709 24.927 28.5508 24.927 28.2307L24.7665 24.6293L28.2964 24.7893ZM16.1023 18.2268C14.8989 18.2268 13.9362 17.2664 13.9362 16.0659C13.9362 14.8654 14.8989 13.9051 16.1023 13.9051C17.3057 13.9051 18.2684 14.8654 18.2684 16.0659C18.2684 17.2664 17.3057 18.2268 16.1023 18.2268Z" fill="#192646"/>
<path d="M45.8656 10.6238H48.9142C49.2351 10.6238 49.556 10.3837 49.556 9.98352C49.556 9.58337 49.3153 9.34327 48.9142 9.34327H45.8656C45.5447 9.34327 45.2238 9.58337 45.2238 9.98352C45.2238 10.3837 45.5447 10.6238 45.8656 10.6238Z" stroke="#192646" stroke-width="0.4" mask="url(#path-1-outside-1_1_1280)"/>
<path d="M45.8656 14.1452H48.9142C49.2351 14.1452 49.556 13.9051 49.556 13.5849C49.556 13.2648 49.3153 12.9447 48.9944 12.9447H45.9459C45.625 12.9447 45.3041 13.1848 45.3041 13.5849C45.3041 13.825 45.5447 14.1452 45.8656 14.1452Z" stroke="#192646" stroke-width="0.4" mask="url(#path-1-outside-1_1_1280)"/>
<path d="M45.8656 17.6665H48.9142C49.2351 17.6665 49.556 17.4264 49.556 17.0263C49.556 16.6261 49.3153 16.386 48.9142 16.386H45.8656C45.5447 16.386 45.2238 16.6261 45.2238 17.0263C45.2238 17.4264 45.5447 17.6665 45.8656 17.6665Z" stroke="#192646" stroke-width="0.4" mask="url(#path-1-outside-1_1_1280)"/>
<path d="M45.8656 21.1879H48.9142C49.2351 21.1879 49.556 20.9478 49.556 20.5477C49.556 20.1475 49.3153 19.9074 48.9142 19.9074H45.8656C45.5447 19.9074 45.2238 20.1475 45.2238 20.5477C45.2238 20.9478 45.5447 21.1879 45.8656 21.1879Z" stroke="#192646" stroke-width="0.4" mask="url(#path-1-outside-1_1_1280)"/>
<path d="M45.8656 24.7093H48.9142C49.2351 24.7093 49.556 24.4692 49.556 24.069C49.556 23.6689 49.3153 23.4288 48.9142 23.4288H45.8656C45.5447 23.4288 45.2238 23.6689 45.2238 24.069C45.2238 24.4692 45.5447 24.7093 45.8656 24.7093Z" stroke="#192646" stroke-width="0.4" mask="url(#path-1-outside-1_1_1280)"/>
<path d="M43.138 27.1102V6.38211C43.138 3.50098 40.8115 1.18007 37.9234 1.18007C35.0353 1.18007 32.7088 3.50098 32.7088 6.38211V27.1102C27.8953 29.1911 24.8468 33.8329 24.8468 39.0349C24.8468 46.2377 30.7032 52 37.8432 52C42.1753 52 46.1865 49.8392 48.5933 46.3178C48.7537 46.0777 48.7537 45.6775 48.4328 45.5175C48.1921 45.3574 47.791 45.3574 47.6306 45.6775C45.3843 48.8788 41.7742 50.7995 37.8432 50.7995C31.345 50.7995 25.9699 45.5175 25.9699 38.9549C25.9699 34.073 28.9382 29.7513 33.4308 27.9906C33.6715 27.9106 33.8319 27.6705 33.8319 27.4304V6.38211C33.8319 4.22126 35.5969 2.38054 37.8432 2.38054C40.0895 2.38054 41.8544 4.14123 41.8544 6.38211V27.5104C41.8544 27.7505 42.0148 27.9906 42.2555 28.0706C46.8283 29.8313 49.7164 34.153 49.7164 39.0349C49.7164 40.7956 49.3153 42.3962 48.6735 43.9969C48.513 44.317 48.6735 44.6371 48.9944 44.7972C49.3153 44.9572 49.6362 44.7972 49.7966 44.4771C50.5989 42.7964 51 40.9557 51 39.0349C51 33.8329 47.9515 29.1911 43.138 27.1102Z" stroke="#192646" stroke-width="0.4" mask="url(#path-1-outside-1_1_1280)"/>
<path d="M32.3077 34.4731C32.067 34.3131 31.6659 34.3931 31.5054 34.6332C30.6229 35.9137 30.1416 37.4343 30.1416 39.0349C30.1416 43.3566 33.6715 46.878 38.0036 46.878C42.3357 46.878 45.8656 43.3566 45.8656 39.0349C45.8656 35.5936 43.5391 32.5524 40.2499 31.512V16.4661C40.2499 16.1459 40.0092 15.8258 39.6081 15.8258C39.207 15.8258 38.9663 16.0659 38.9663 16.4661V32.0722C38.9663 32.3123 39.1268 32.6324 39.4477 32.6324C42.416 33.2727 44.582 35.9937 44.582 39.0349C44.582 42.6363 41.6137 45.5975 38.0036 45.5975C34.3935 45.5975 31.4252 42.6363 31.4252 39.0349C31.4252 37.6744 31.8263 36.3939 32.5483 35.3535C32.7088 35.0333 32.6286 34.7132 32.3077 34.4731Z" stroke="#192646" stroke-width="0.4" mask="url(#path-1-outside-1_1_1280)"/>
<path d="M33.9122 33.8329C34.7144 33.2727 35.5166 32.7925 36.4793 32.6324C36.72 32.5524 36.9607 32.3123 36.9607 32.0722V16.4661C36.9607 16.1459 36.72 15.8258 36.3189 15.8258C35.9178 15.8258 35.6771 16.0659 35.6771 16.4661V31.592C34.7946 31.8321 33.9924 32.3123 33.1901 32.8725C32.9495 33.0326 32.8692 33.4327 33.1099 33.6728C33.2704 33.8329 33.4308 33.9129 33.5913 33.9129C33.6715 33.9929 33.8319 33.9129 33.9122 33.8329Z" stroke="#192646" stroke-width="0.4" mask="url(#path-1-outside-1_1_1280)"/>
<path d="M28.2964 24.7893C28.6173 24.7893 28.9382 24.5492 28.9382 24.2291C28.9382 23.909 28.6976 23.5889 28.3767 23.5889L24.3654 23.4288L22.7609 21.8282L25.4083 21.9882C25.7292 21.9882 26.0501 21.7481 26.0501 21.428C26.0501 21.1079 25.8095 20.7878 25.4886 20.7878L21.4773 20.6277L18.8299 17.9867C19.0706 17.5865 19.3113 17.1863 19.3915 16.7062H23.0818L26.0501 19.4272C26.1304 19.5073 26.2908 19.5873 26.4513 19.5873C26.6117 19.5873 26.7722 19.5073 26.8524 19.4272C27.0931 19.1871 27.0931 18.787 26.8524 18.5469L24.8468 16.7862H27.0931L30.0614 19.5073C30.1416 19.5873 30.302 19.6673 30.4625 19.6673C30.6229 19.6673 30.7834 19.5873 30.8636 19.5073C31.1043 19.2672 31.1043 18.867 30.8636 18.6269L28.2162 16.226L30.8636 13.825C31.1043 13.5849 31.1043 13.1848 30.8636 12.9447C30.6229 12.7046 30.2218 12.7046 29.9811 12.8647L27.1733 15.4257H24.927L26.9326 13.665C27.1733 13.4249 27.1733 13.0247 26.9326 12.7846C26.6919 12.5445 26.2908 12.5445 26.0501 12.7046L23.1621 15.4257H19.4717C19.3915 14.9455 19.231 14.4653 18.9101 14.1452L21.5576 11.5041L25.5688 11.3441C25.8897 11.3441 26.1304 11.0239 26.1304 10.7038C26.1304 10.3837 25.8095 10.1436 25.4886 10.1436L22.8412 10.3036L24.4456 8.70302L28.4569 8.54296C28.7778 8.54296 29.0185 8.22283 29.0185 7.90271C29.0185 7.58258 28.6976 7.34249 28.3767 7.34249L24.7665 7.42252L24.927 3.90114C24.927 3.58101 24.6863 3.26089 24.3654 3.26089C24.0445 3.26089 23.7236 3.50098 23.7236 3.82111L23.5632 7.82267L21.9587 9.4233L22.1191 6.78227C22.1191 6.46214 21.8785 6.14202 21.5576 6.14202C21.2367 6.14202 20.9158 6.38211 20.9158 6.70224L20.7553 10.7038L18.1079 13.3448C17.7068 13.1047 17.3057 12.8647 16.8243 12.7846V9.02315L19.5519 6.06199C19.7926 5.82189 19.7926 5.42173 19.5519 5.18164C19.3113 4.94155 18.9101 4.94155 18.6695 5.26167L16.9045 7.26246V5.02158L19.6322 2.06042C19.8728 1.82032 19.7926 1.42016 19.5519 1.18007C19.3113 0.939976 18.9101 0.939976 18.6695 1.18007L16.2627 3.82111L13.856 1.18007C13.6153 0.939976 13.2142 0.939976 12.9735 1.18007C12.7329 1.42016 12.7329 1.82032 12.9735 2.06042L15.5407 4.94155V7.18242L13.6955 5.18164C13.4549 4.94155 13.0538 4.94155 12.8131 5.10161C12.5724 5.3417 12.5724 5.74186 12.8131 5.98195L15.5407 8.94311V12.6246C15.0594 12.7046 14.578 12.8647 14.2571 13.1848L11.6097 10.6238L11.4493 6.6222C11.4493 6.30208 11.1284 6.06199 10.8075 6.06199C10.4866 6.06199 10.2459 6.38211 10.2459 6.70224L10.4063 9.34327L8.80185 7.74264L8.6414 3.74108C8.6414 3.42095 8.3205 3.18086 7.9996 3.18086C7.6787 3.18086 7.43803 3.50098 7.43803 3.82111L7.51825 7.42252L3.90814 7.26246C3.58724 7.26246 3.26635 7.50255 3.26635 7.82267C3.26635 8.1428 3.50702 8.46293 3.82792 8.46293L7.83915 8.62299L9.44364 10.2236L6.79623 10.0636C6.47533 10.0636 6.15443 10.3036 6.15443 10.6238C6.15443 10.9439 6.39511 11.264 6.716 11.264L10.7272 11.4241L13.3746 14.0651C13.134 14.4653 12.8933 14.8654 12.8131 15.3456H9.04252L6.07421 12.6246C5.83353 12.3845 5.43241 12.3845 5.19174 12.7046C4.95106 12.9447 4.95106 13.3448 5.27196 13.5849L7.27758 15.4257H5.03129L2.06298 12.7046C1.8223 12.4645 1.42118 12.4645 1.18051 12.7846C0.939832 13.0247 0.939832 13.4249 1.18051 13.665L3.82792 16.0659L1.18051 18.4668C0.939832 18.7069 0.939832 19.1071 1.18051 19.3472C1.34095 19.5073 1.42118 19.5073 1.58163 19.5073C1.74208 19.5073 1.90253 19.4272 1.98275 19.3472L4.95106 16.6261H7.19735L5.19174 18.3868C4.95106 18.6269 4.95106 19.0271 5.11151 19.2672C5.27196 19.4272 5.35219 19.4272 5.59286 19.4272C5.75331 19.4272 5.91376 19.3472 5.99398 19.2672L8.96229 16.5461H12.6526C12.7329 17.0263 12.8933 17.5065 13.2142 17.8266L10.7272 20.6277L6.716 20.7878C6.39511 20.7878 6.15443 21.1079 6.15443 21.428C6.15443 21.7481 6.47533 21.9882 6.79623 21.9882L9.44364 21.8282L7.83915 23.4288L3.82792 23.5889C3.50702 23.5889 3.26635 23.909 3.26635 24.2291C3.26635 24.5492 3.58724 24.7893 3.90814 24.7893L7.51825 24.6293L7.3578 28.2307C7.3578 28.5508 7.59848 28.8709 7.91937 28.8709C8.24027 28.8709 8.48095 28.6308 8.56117 28.3107L8.72162 24.3091L10.3261 22.7085L10.1657 25.3495C10.1657 25.6697 10.4063 25.9898 10.7272 25.9898C11.0481 25.9898 11.2888 25.7497 11.369 25.4296L11.5295 21.428L14.1769 18.787C14.578 19.0271 14.9791 19.2672 15.4605 19.3472V23.0286L12.7329 25.9898C12.4922 26.2299 12.4922 26.6301 12.7329 26.8701C12.9735 27.1102 13.3746 27.1102 13.6153 26.8701L15.4605 24.8694V27.1102L12.7329 30.0714C12.4922 30.3115 12.4922 30.7117 12.7329 30.9517C12.9735 31.1918 13.3746 31.1918 13.6153 30.9517L16.0221 28.3107L18.4288 30.9517C18.509 31.1118 18.7497 31.1118 18.8299 31.1118C18.9904 31.1118 19.1508 31.0318 19.231 30.9517C19.4717 30.7117 19.4717 30.3115 19.231 30.0714L16.5034 27.1102V24.8694L18.2684 26.8701C18.3486 27.0302 18.5892 27.0302 18.6695 27.0302C18.8299 27.0302 18.9904 26.9502 19.0706 26.8701C19.3113 26.6301 19.3113 26.2299 19.0706 25.9898L16.343 23.0286V19.3472C16.8243 19.2672 17.3057 19.1071 17.6266 18.787L20.274 21.428L20.4344 25.4296C20.4344 25.7497 20.7553 25.9898 21.0762 25.9898C21.3971 25.9898 21.6378 25.6697 21.6378 25.3495L21.9587 22.7085L23.5632 24.3091L23.7236 28.3107C23.7236 28.6308 24.0445 28.8709 24.3654 28.8709C24.6863 28.8709 24.927 28.5508 24.927 28.2307L24.7665 24.6293L28.2964 24.7893ZM16.1023 18.2268C14.8989 18.2268 13.9362 17.2664 13.9362 16.0659C13.9362 14.8654 14.8989 13.9051 16.1023 13.9051C17.3057 13.9051 18.2684 14.8654 18.2684 16.0659C18.2684 17.2664 17.3057 18.2268 16.1023 18.2268Z" stroke="#192646" stroke-width="0.4" mask="url(#path-1-outside-1_1_1280)"/>
</svg>
