<svg width="52" height="47" viewBox="0 0 52 47" fill="none" xmlns="http://www.w3.org/2000/svg">
<path d="M25.9419 0.9H25.932L25.9224 0.901918C25.5962 0.96674 25.3186 1.23047 25.3186 1.57766V7.3543C25.3186 7.55052 25.3849 7.72171 25.508 7.84404C25.6311 7.96631 25.803 8.03196 26 8.03196C26.197 8.03196 26.3689 7.96631 26.492 7.84404C26.6151 7.72171 26.6814 7.55052 26.6814 7.3543V1.57766C26.6814 1.38145 26.6151 1.21025 26.492 1.08792C26.3689 0.965648 26.197 0.9 26 0.9H25.9419ZM15.5618 4.33761L15.5671 4.348L15.5745 4.35692L18.4815 7.8229L18.4812 7.82316L18.4877 7.82957C18.7454 8.08563 19.1585 8.16962 19.4426 7.88736C19.6994 7.63221 19.7847 7.22282 19.504 6.94008L16.6111 3.4908C16.5682 3.38249 16.4779 3.2992 16.3788 3.24997C16.2757 3.19876 16.1491 3.17743 16.0329 3.21374C15.8724 3.24677 15.7096 3.32721 15.5928 3.45158C15.4739 3.57812 15.4032 3.75031 15.435 3.9546C15.4376 4.09109 15.5035 4.22183 15.5568 4.32763L15.5618 4.33761ZM35.3481 3.47076L35.3478 3.47047L35.342 3.47744L32.4378 6.9401C32.2994 7.07983 32.25 7.26837 32.2667 7.44325C32.2835 7.61844 32.3677 7.79053 32.51 7.89661C32.6472 7.99886 32.8307 8.04723 33.0033 8.03905C33.1747 8.03093 33.3514 7.96573 33.4619 7.82102L36.3645 4.36027C36.6393 4.08345 36.5633 3.68527 36.319 3.42926C36.2781 3.32709 36.203 3.25485 36.1096 3.21772C36.0161 3.18056 35.9103 3.18069 35.8094 3.21092C35.6023 3.2178 35.4639 3.35557 35.3572 3.46177L35.3481 3.47076ZM18.4877 39.2281L18.4874 39.2279L18.4815 39.2348L15.5773 42.6975C15.4389 42.8372 15.3895 43.0257 15.4063 43.2006C15.4228 43.3734 15.505 43.5433 15.6439 43.6497C15.7842 43.7859 15.9728 43.8343 16.1475 43.8177C16.3224 43.8012 16.4945 43.7186 16.6014 43.5784L19.5041 40.1176C19.7808 39.8388 19.7017 39.4368 19.4532 39.1811C19.4075 39.102 19.3294 39.0503 19.2491 39.0184C19.1625 38.984 19.0624 38.968 18.9651 38.968C18.7491 38.968 18.6062 39.1102 18.4967 39.2191L18.4877 39.2281ZM25.9419 38.968H25.932L25.9224 38.9699C25.5962 39.0347 25.3186 39.2985 25.3186 39.6457V45.4223C25.3186 45.6186 25.3849 45.7898 25.508 45.9121C25.6311 46.0344 25.803 46.1 26 46.1C26.197 46.1 26.3689 46.0344 26.492 45.9121C26.6151 45.7898 26.6814 45.6186 26.6814 45.4223V39.6457C26.6814 39.4494 26.6151 39.2783 26.492 39.1559C26.3689 39.0337 26.197 38.968 26 38.968H25.9419ZM32.9186 38.968H32.9088L32.8991 38.9699C32.7367 39.0022 32.5715 39.0831 32.4533 39.209C32.3344 39.3355 32.2637 39.5077 32.2954 39.712C32.2981 39.8485 32.364 39.9792 32.4173 40.085L32.4223 40.095L32.4275 40.1054L32.435 40.1143L35.342 43.5803L35.3417 43.5805L35.3481 43.587C35.6058 43.843 36.019 43.927 36.303 43.6447C36.5598 43.3896 36.6452 42.9802 36.3645 42.6974L33.4715 39.2481C33.4261 39.1352 33.3297 39.0662 33.233 39.0262C33.1306 38.9838 33.0152 38.968 32.9186 38.968ZM3.90698 13.6086C2.22445 13.6086 0.9 14.9236 0.9 16.5969V30.4608C0.9 32.1341 2.22445 33.4492 3.90698 33.4492H48.093C49.7756 33.4492 51.1 32.1341 51.1 30.4608V16.5969C51.1 14.9236 49.7756 13.6086 48.093 13.6086H3.90698ZM3.90698 14.9639H14.8535V32.0938H3.90698C2.97322 32.0938 2.26279 31.387 2.26279 30.4608V16.5969C2.26279 15.6707 2.97322 14.9639 3.90698 14.9639ZM16.2163 14.9639H35.7837V32.0938H16.2163V14.9639ZM37.1465 14.9639H48.093C49.0268 14.9639 49.7372 15.6707 49.7372 16.5969V30.4608C49.7372 31.387 49.0268 32.0938 48.093 32.0938H37.1465V14.9639ZM26 18.8076C25.3058 18.8076 24.7372 19.3716 24.7372 20.0629V22.2736H22.5116C21.8175 22.2736 21.2488 22.8376 21.2488 23.5289C21.2488 24.2201 21.8175 24.7842 22.5116 24.7842H24.7372V26.9949C24.7372 27.6861 25.3058 28.2502 26 28.2502C26.6942 28.2502 27.2628 27.6861 27.2628 26.9949V24.7842H29.4884C30.1825 24.7842 30.7512 24.2201 30.7512 23.5289C30.7512 22.8376 30.1825 22.2736 29.4884 22.2736H27.2628V20.0629C27.2628 19.3716 26.6942 18.8076 26 18.8076Z" fill="#192646" stroke="#192646" stroke-width="0.2"/>
</svg>
