<svg width="34" height="64" viewBox="0 0 34 64" fill="none" xmlns="http://www.w3.org/2000/svg">
<mask id="path-1-outside-1_1_1260" maskUnits="userSpaceOnUse" x="0" y="0" width="34" height="64" fill="black">
<rect fill="white" width="34" height="64"/>
<path d="M31.9508 49.1637H30.9016V27.2891C30.9016 24.39 28.541 22.0181 25.6557 22.0181C24.6066 22.0181 23.5574 22.4134 22.6393 22.9405C22.2459 22.6769 21.8525 22.4134 21.459 22.2816C20.1475 21.7545 18.7049 21.8863 17.3934 22.5452C17.1311 22.6769 17 22.8087 16.7377 22.9405C16.3443 22.6769 15.9508 22.4134 15.5574 22.2816C14.2459 21.8863 12.8033 22.0181 11.4918 22.6769C11.2295 22.8087 11.0984 22.9405 10.8361 23.0723C10.4426 22.8087 10.0492 22.5452 9.65574 22.4134C6.90164 21.491 3.88525 22.9405 2.96721 25.7078C2.83607 26.2349 2.70492 26.8937 2.70492 27.4208V49.2954H1.65574C1.2623 49.2954 1 49.559 1 49.9543V57.4655C1 57.8608 1.2623 58.1243 1.65574 58.1243H8.7377V62.3411C8.7377 62.7365 9 63 9.39344 63C9.78689 63 10.0492 62.7365 10.0492 62.3411V58.1243H23.9508V62.3411C23.9508 62.7365 24.2131 63 24.6066 63C25 63 25.2623 62.7365 25.2623 62.3411V58.1243H32.3443C32.7377 58.1243 33 57.8608 33 57.4655V49.9543C32.6066 49.4272 32.3443 49.1637 31.9508 49.1637ZM22.6393 24.6536C23.5574 25.7078 23.9508 27.1573 23.4262 28.6068C23.2951 28.8704 23.1639 29.0021 22.9016 29.1339C22.5082 29.2657 21.9836 29.0021 21.8525 28.6068C21.7213 28.2115 21.5902 27.6844 21.5902 27.2891C21.5902 26.3666 21.9836 25.4442 22.6393 24.6536ZM15.8197 25.9713C15.9508 25.4442 16.2131 25.0489 16.6066 24.6536C17.5246 25.7078 17.918 27.1573 17.3934 28.6068C17.2623 28.8704 17.1311 29.0021 16.8689 29.1339C16.4754 29.2657 15.9508 29.0021 15.8197 28.6068C15.5574 27.8162 15.5574 27.0255 15.8197 25.9713ZM9.91803 25.9713C10.0492 25.4442 10.3115 25.0489 10.7049 24.6536C11.623 25.7078 12.0164 27.1573 11.4918 28.6068C11.3607 28.8704 11.2295 29.0021 10.9672 29.1339C10.5738 29.2657 10.0492 29.0021 9.91803 28.6068C9.65574 27.8162 9.65574 27.0255 9.91803 25.9713ZM3.7541 27.2891C3.7541 26.8937 3.88525 26.3666 4.01639 25.9713C4.80328 23.8629 7.03279 22.8087 9.13115 23.4676C9.39344 23.5994 9.52459 23.5994 9.78688 23.7311C9.39344 24.2582 9 24.7853 8.7377 25.4442C8.34426 26.6302 8.34426 27.8162 8.7377 29.0021C9.13115 30.1881 10.3115 30.7152 11.4918 30.3199C12.1475 30.0563 12.541 29.661 12.8033 29.0021C13.459 27.1573 12.9344 25.1807 11.7541 23.7311C12.6721 23.204 13.8525 23.0723 15.0328 23.4676C15.2951 23.5994 15.4262 23.5994 15.6885 23.7311C15.2951 24.2582 14.9016 24.7853 14.6393 25.4442C14.2459 26.6302 14.2459 27.8162 14.6393 29.0021C15.0328 30.1881 16.2131 30.7152 17.3934 30.3199C18.0492 30.0563 18.4426 29.661 18.7049 29.0021C19.2295 27.6844 19.0984 26.2349 18.4426 24.9171C18.1803 24.5218 17.918 24.1265 17.6557 23.7311C18.5738 23.204 19.7541 23.0723 20.9344 23.4676C21.1967 23.5994 21.3279 23.5994 21.5902 23.7311C20.8033 24.6536 20.2787 25.8395 20.2787 27.1573C20.2787 27.8162 20.4098 28.3433 20.541 28.8704C20.9344 30.0563 22.1148 30.5834 23.2951 30.1881C23.9508 29.9246 24.3443 29.5292 24.6066 28.8704C25.2623 27.0255 24.7377 25.0489 23.5574 23.5994C24.082 23.3358 24.7377 23.0723 25.5246 23.0723C27.7541 23.0723 29.459 24.9171 29.459 27.0255V48.9001H3.7541V27.2891ZM31.2951 56.6748H2.04918V50.4814H31.4262L31.2951 56.6748Z"/>
<path d="M15.8197 13.848C15.4262 13.9798 15.2951 14.3751 15.4262 14.6387C15.5574 14.9022 15.8197 15.034 16.082 15.034C16.2131 15.034 16.2131 15.034 16.3443 15.034C17.3934 14.6387 18.3115 13.9798 18.8361 12.9256C19.3607 11.8714 19.4918 10.8172 19.0984 9.63124C18.9672 9.10414 18.5738 8.57705 18.1803 8.04995C16.6066 6.33688 16.6066 3.83316 18.1803 2.12009C18.4426 1.85654 18.4426 1.46121 18.1803 1.19766C17.918 0.934113 17.5246 0.934113 17.2623 1.19766C15.2951 3.43783 15.2951 6.7322 17.2623 8.8406C17.5246 9.10414 17.7869 9.49947 17.918 9.89479C18.1803 10.6854 18.0492 11.4761 17.7869 12.135C17.5246 12.7938 16.6066 13.5845 15.8197 13.848Z"/>
<path d="M23.6885 13.848C23.2951 13.9798 23.1639 14.3751 23.2951 14.6387C23.4262 14.9022 23.6885 15.034 23.9508 15.034C24.082 15.034 24.082 15.034 24.2131 15.034C26.4426 14.3751 27.6229 11.8714 26.9672 9.76302C26.8361 9.23592 26.4426 8.70882 26.0492 8.18172C24.4754 6.46865 24.4754 3.96493 26.0492 2.25186C26.3115 1.98831 26.3115 1.59299 26.0492 1.32944C25.7869 1.06589 25.3934 1.06589 25.1311 1.32944C23.1639 3.56961 23.1639 6.86397 25.1311 8.97237C25.3934 9.23592 25.6557 9.63124 25.7869 10.0266C26.0492 11.7396 25.2623 13.3209 23.6885 13.848Z"/>
<path d="M7.95082 13.848C7.55738 13.9798 7.42623 14.2434 7.55738 14.6387C7.68852 14.9022 7.95082 15.034 8.21311 15.034C8.34426 15.034 8.34426 15.034 8.47541 15.034C10.7049 14.3751 11.8852 11.8714 11.2295 9.76302C11.0984 9.10414 10.7049 8.57705 10.3115 8.18172C8.7377 6.46865 8.7377 3.96493 10.3115 2.25186C10.5738 1.98831 10.5738 1.59299 10.3115 1.32944C10.0492 1.06589 9.65574 1.06589 9.39344 1.32944C7.42623 3.56961 7.42623 6.86397 9.39344 8.97237C9.65574 9.23592 9.91803 9.63124 10.0492 10.0266C10.3115 11.7396 9.52459 13.3209 7.95082 13.848Z"/>
</mask>
<path d="M31.9508 49.1637H30.9016V27.2891C30.9016 24.39 28.541 22.0181 25.6557 22.0181C24.6066 22.0181 23.5574 22.4134 22.6393 22.9405C22.2459 22.6769 21.8525 22.4134 21.459 22.2816C20.1475 21.7545 18.7049 21.8863 17.3934 22.5452C17.1311 22.6769 17 22.8087 16.7377 22.9405C16.3443 22.6769 15.9508 22.4134 15.5574 22.2816C14.2459 21.8863 12.8033 22.0181 11.4918 22.6769C11.2295 22.8087 11.0984 22.9405 10.8361 23.0723C10.4426 22.8087 10.0492 22.5452 9.65574 22.4134C6.90164 21.491 3.88525 22.9405 2.96721 25.7078C2.83607 26.2349 2.70492 26.8937 2.70492 27.4208V49.2954H1.65574C1.2623 49.2954 1 49.559 1 49.9543V57.4655C1 57.8608 1.2623 58.1243 1.65574 58.1243H8.7377V62.3411C8.7377 62.7365 9 63 9.39344 63C9.78689 63 10.0492 62.7365 10.0492 62.3411V58.1243H23.9508V62.3411C23.9508 62.7365 24.2131 63 24.6066 63C25 63 25.2623 62.7365 25.2623 62.3411V58.1243H32.3443C32.7377 58.1243 33 57.8608 33 57.4655V49.9543C32.6066 49.4272 32.3443 49.1637 31.9508 49.1637ZM22.6393 24.6536C23.5574 25.7078 23.9508 27.1573 23.4262 28.6068C23.2951 28.8704 23.1639 29.0021 22.9016 29.1339C22.5082 29.2657 21.9836 29.0021 21.8525 28.6068C21.7213 28.2115 21.5902 27.6844 21.5902 27.2891C21.5902 26.3666 21.9836 25.4442 22.6393 24.6536ZM15.8197 25.9713C15.9508 25.4442 16.2131 25.0489 16.6066 24.6536C17.5246 25.7078 17.918 27.1573 17.3934 28.6068C17.2623 28.8704 17.1311 29.0021 16.8689 29.1339C16.4754 29.2657 15.9508 29.0021 15.8197 28.6068C15.5574 27.8162 15.5574 27.0255 15.8197 25.9713ZM9.91803 25.9713C10.0492 25.4442 10.3115 25.0489 10.7049 24.6536C11.623 25.7078 12.0164 27.1573 11.4918 28.6068C11.3607 28.8704 11.2295 29.0021 10.9672 29.1339C10.5738 29.2657 10.0492 29.0021 9.91803 28.6068C9.65574 27.8162 9.65574 27.0255 9.91803 25.9713ZM3.7541 27.2891C3.7541 26.8937 3.88525 26.3666 4.01639 25.9713C4.80328 23.8629 7.03279 22.8087 9.13115 23.4676C9.39344 23.5994 9.52459 23.5994 9.78688 23.7311C9.39344 24.2582 9 24.7853 8.7377 25.4442C8.34426 26.6302 8.34426 27.8162 8.7377 29.0021C9.13115 30.1881 10.3115 30.7152 11.4918 30.3199C12.1475 30.0563 12.541 29.661 12.8033 29.0021C13.459 27.1573 12.9344 25.1807 11.7541 23.7311C12.6721 23.204 13.8525 23.0723 15.0328 23.4676C15.2951 23.5994 15.4262 23.5994 15.6885 23.7311C15.2951 24.2582 14.9016 24.7853 14.6393 25.4442C14.2459 26.6302 14.2459 27.8162 14.6393 29.0021C15.0328 30.1881 16.2131 30.7152 17.3934 30.3199C18.0492 30.0563 18.4426 29.661 18.7049 29.0021C19.2295 27.6844 19.0984 26.2349 18.4426 24.9171C18.1803 24.5218 17.918 24.1265 17.6557 23.7311C18.5738 23.204 19.7541 23.0723 20.9344 23.4676C21.1967 23.5994 21.3279 23.5994 21.5902 23.7311C20.8033 24.6536 20.2787 25.8395 20.2787 27.1573C20.2787 27.8162 20.4098 28.3433 20.541 28.8704C20.9344 30.0563 22.1148 30.5834 23.2951 30.1881C23.9508 29.9246 24.3443 29.5292 24.6066 28.8704C25.2623 27.0255 24.7377 25.0489 23.5574 23.5994C24.082 23.3358 24.7377 23.0723 25.5246 23.0723C27.7541 23.0723 29.459 24.9171 29.459 27.0255V48.9001H3.7541V27.2891ZM31.2951 56.6748H2.04918V50.4814H31.4262L31.2951 56.6748Z" fill="#192646"/>
<path d="M15.8197 13.848C15.4262 13.9798 15.2951 14.3751 15.4262 14.6387C15.5574 14.9022 15.8197 15.034 16.082 15.034C16.2131 15.034 16.2131 15.034 16.3443 15.034C17.3934 14.6387 18.3115 13.9798 18.8361 12.9256C19.3607 11.8714 19.4918 10.8172 19.0984 9.63124C18.9672 9.10414 18.5738 8.57705 18.1803 8.04995C16.6066 6.33688 16.6066 3.83316 18.1803 2.12009C18.4426 1.85654 18.4426 1.46121 18.1803 1.19766C17.918 0.934113 17.5246 0.934113 17.2623 1.19766C15.2951 3.43783 15.2951 6.7322 17.2623 8.8406C17.5246 9.10414 17.7869 9.49947 17.918 9.89479C18.1803 10.6854 18.0492 11.4761 17.7869 12.135C17.5246 12.7938 16.6066 13.5845 15.8197 13.848Z" fill="#192646"/>
<path d="M23.6885 13.848C23.2951 13.9798 23.1639 14.3751 23.2951 14.6387C23.4262 14.9022 23.6885 15.034 23.9508 15.034C24.082 15.034 24.082 15.034 24.2131 15.034C26.4426 14.3751 27.6229 11.8714 26.9672 9.76302C26.8361 9.23592 26.4426 8.70882 26.0492 8.18172C24.4754 6.46865 24.4754 3.96493 26.0492 2.25186C26.3115 1.98831 26.3115 1.59299 26.0492 1.32944C25.7869 1.06589 25.3934 1.06589 25.1311 1.32944C23.1639 3.56961 23.1639 6.86397 25.1311 8.97237C25.3934 9.23592 25.6557 9.63124 25.7869 10.0266C26.0492 11.7396 25.2623 13.3209 23.6885 13.848Z" fill="#192646"/>
<path d="M7.95082 13.848C7.55738 13.9798 7.42623 14.2434 7.55738 14.6387C7.68852 14.9022 7.95082 15.034 8.21311 15.034C8.34426 15.034 8.34426 15.034 8.47541 15.034C10.7049 14.3751 11.8852 11.8714 11.2295 9.76302C11.0984 9.10414 10.7049 8.57705 10.3115 8.18172C8.7377 6.46865 8.7377 3.96493 10.3115 2.25186C10.5738 1.98831 10.5738 1.59299 10.3115 1.32944C10.0492 1.06589 9.65574 1.06589 9.39344 1.32944C7.42623 3.56961 7.42623 6.86397 9.39344 8.97237C9.65574 9.23592 9.91803 9.63124 10.0492 10.0266C10.3115 11.7396 9.52459 13.3209 7.95082 13.848Z" fill="#192646"/>
<path d="M31.9508 49.1637H30.9016V27.2891C30.9016 24.39 28.541 22.0181 25.6557 22.0181C24.6066 22.0181 23.5574 22.4134 22.6393 22.9405C22.2459 22.6769 21.8525 22.4134 21.459 22.2816C20.1475 21.7545 18.7049 21.8863 17.3934 22.5452C17.1311 22.6769 17 22.8087 16.7377 22.9405C16.3443 22.6769 15.9508 22.4134 15.5574 22.2816C14.2459 21.8863 12.8033 22.0181 11.4918 22.6769C11.2295 22.8087 11.0984 22.9405 10.8361 23.0723C10.4426 22.8087 10.0492 22.5452 9.65574 22.4134C6.90164 21.491 3.88525 22.9405 2.96721 25.7078C2.83607 26.2349 2.70492 26.8937 2.70492 27.4208V49.2954H1.65574C1.2623 49.2954 1 49.559 1 49.9543V57.4655C1 57.8608 1.2623 58.1243 1.65574 58.1243H8.7377V62.3411C8.7377 62.7365 9 63 9.39344 63C9.78689 63 10.0492 62.7365 10.0492 62.3411V58.1243H23.9508V62.3411C23.9508 62.7365 24.2131 63 24.6066 63C25 63 25.2623 62.7365 25.2623 62.3411V58.1243H32.3443C32.7377 58.1243 33 57.8608 33 57.4655V49.9543C32.6066 49.4272 32.3443 49.1637 31.9508 49.1637ZM22.6393 24.6536C23.5574 25.7078 23.9508 27.1573 23.4262 28.6068C23.2951 28.8704 23.1639 29.0021 22.9016 29.1339C22.5082 29.2657 21.9836 29.0021 21.8525 28.6068C21.7213 28.2115 21.5902 27.6844 21.5902 27.2891C21.5902 26.3666 21.9836 25.4442 22.6393 24.6536ZM15.8197 25.9713C15.9508 25.4442 16.2131 25.0489 16.6066 24.6536C17.5246 25.7078 17.918 27.1573 17.3934 28.6068C17.2623 28.8704 17.1311 29.0021 16.8689 29.1339C16.4754 29.2657 15.9508 29.0021 15.8197 28.6068C15.5574 27.8162 15.5574 27.0255 15.8197 25.9713ZM9.91803 25.9713C10.0492 25.4442 10.3115 25.0489 10.7049 24.6536C11.623 25.7078 12.0164 27.1573 11.4918 28.6068C11.3607 28.8704 11.2295 29.0021 10.9672 29.1339C10.5738 29.2657 10.0492 29.0021 9.91803 28.6068C9.65574 27.8162 9.65574 27.0255 9.91803 25.9713ZM3.7541 27.2891C3.7541 26.8937 3.88525 26.3666 4.01639 25.9713C4.80328 23.8629 7.03279 22.8087 9.13115 23.4676C9.39344 23.5994 9.52459 23.5994 9.78688 23.7311C9.39344 24.2582 9 24.7853 8.7377 25.4442C8.34426 26.6302 8.34426 27.8162 8.7377 29.0021C9.13115 30.1881 10.3115 30.7152 11.4918 30.3199C12.1475 30.0563 12.541 29.661 12.8033 29.0021C13.459 27.1573 12.9344 25.1807 11.7541 23.7311C12.6721 23.204 13.8525 23.0723 15.0328 23.4676C15.2951 23.5994 15.4262 23.5994 15.6885 23.7311C15.2951 24.2582 14.9016 24.7853 14.6393 25.4442C14.2459 26.6302 14.2459 27.8162 14.6393 29.0021C15.0328 30.1881 16.2131 30.7152 17.3934 30.3199C18.0492 30.0563 18.4426 29.661 18.7049 29.0021C19.2295 27.6844 19.0984 26.2349 18.4426 24.9171C18.1803 24.5218 17.918 24.1265 17.6557 23.7311C18.5738 23.204 19.7541 23.0723 20.9344 23.4676C21.1967 23.5994 21.3279 23.5994 21.5902 23.7311C20.8033 24.6536 20.2787 25.8395 20.2787 27.1573C20.2787 27.8162 20.4098 28.3433 20.541 28.8704C20.9344 30.0563 22.1148 30.5834 23.2951 30.1881C23.9508 29.9246 24.3443 29.5292 24.6066 28.8704C25.2623 27.0255 24.7377 25.0489 23.5574 23.5994C24.082 23.3358 24.7377 23.0723 25.5246 23.0723C27.7541 23.0723 29.459 24.9171 29.459 27.0255V48.9001H3.7541V27.2891ZM31.2951 56.6748H2.04918V50.4814H31.4262L31.2951 56.6748Z" stroke="#192646" stroke-width="0.4" mask="url(#path-1-outside-1_1_1260)"/>
<path d="M15.8197 13.848C15.4262 13.9798 15.2951 14.3751 15.4262 14.6387C15.5574 14.9022 15.8197 15.034 16.082 15.034C16.2131 15.034 16.2131 15.034 16.3443 15.034C17.3934 14.6387 18.3115 13.9798 18.8361 12.9256C19.3607 11.8714 19.4918 10.8172 19.0984 9.63124C18.9672 9.10414 18.5738 8.57705 18.1803 8.04995C16.6066 6.33688 16.6066 3.83316 18.1803 2.12009C18.4426 1.85654 18.4426 1.46121 18.1803 1.19766C17.918 0.934113 17.5246 0.934113 17.2623 1.19766C15.2951 3.43783 15.2951 6.7322 17.2623 8.8406C17.5246 9.10414 17.7869 9.49947 17.918 9.89479C18.1803 10.6854 18.0492 11.4761 17.7869 12.135C17.5246 12.7938 16.6066 13.5845 15.8197 13.848Z" stroke="#192646" stroke-width="0.4" mask="url(#path-1-outside-1_1_1260)"/>
<path d="M23.6885 13.848C23.2951 13.9798 23.1639 14.3751 23.2951 14.6387C23.4262 14.9022 23.6885 15.034 23.9508 15.034C24.082 15.034 24.082 15.034 24.2131 15.034C26.4426 14.3751 27.6229 11.8714 26.9672 9.76302C26.8361 9.23592 26.4426 8.70882 26.0492 8.18172C24.4754 6.46865 24.4754 3.96493 26.0492 2.25186C26.3115 1.98831 26.3115 1.59299 26.0492 1.32944C25.7869 1.06589 25.3934 1.06589 25.1311 1.32944C23.1639 3.56961 23.1639 6.86397 25.1311 8.97237C25.3934 9.23592 25.6557 9.63124 25.7869 10.0266C26.0492 11.7396 25.2623 13.3209 23.6885 13.848Z" stroke="#192646" stroke-width="0.4" mask="url(#path-1-outside-1_1_1260)"/>
<path d="M7.95082 13.848C7.55738 13.9798 7.42623 14.2434 7.55738 14.6387C7.68852 14.9022 7.95082 15.034 8.21311 15.034C8.34426 15.034 8.34426 15.034 8.47541 15.034C10.7049 14.3751 11.8852 11.8714 11.2295 9.76302C11.0984 9.10414 10.7049 8.57705 10.3115 8.18172C8.7377 6.46865 8.7377 3.96493 10.3115 2.25186C10.5738 1.98831 10.5738 1.59299 10.3115 1.32944C10.0492 1.06589 9.65574 1.06589 9.39344 1.32944C7.42623 3.56961 7.42623 6.86397 9.39344 8.97237C9.65574 9.23592 9.91803 9.63124 10.0492 10.0266C10.3115 11.7396 9.52459 13.3209 7.95082 13.848Z" stroke="#192646" stroke-width="0.4" mask="url(#path-1-outside-1_1_1260)"/>
</svg>
