<svg width="54" height="50" viewBox="0 0 54 50" fill="none" xmlns="http://www.w3.org/2000/svg">
<path d="M40.9291 11.0731C40.9291 10.9589 40.9291 10.9589 40.9291 11.0731C37.2935 7.42009 32.4081 5.25114 26.9547 5.25114C21.5013 5.25114 16.6159 7.42009 13.0939 11.0731C9.5719 14.6119 7.29964 19.6347 7.29964 25C7.29964 30.4795 9.45829 35.3881 13.0939 38.9269C16.6159 42.4658 21.6149 44.7489 26.9547 44.7489C32.4081 44.7489 37.2935 42.5799 40.9291 38.9269C44.4511 35.3881 46.7234 30.3653 46.7234 25C46.7234 19.6347 44.5647 14.6119 40.9291 11.0731ZM43.7694 25.9132H45.0192C44.792 30.2511 43.0878 34.2466 40.361 37.2146L39.5658 36.4155C39.2249 36.0731 38.6569 36.0731 38.316 36.4155C37.9752 36.758 37.9752 37.3288 38.316 37.6712L39.1113 38.4703C36.1574 41.21 32.1809 42.9224 27.8636 43.1507V41.895C27.8636 41.4384 27.5228 40.9817 26.9547 40.9817C26.3866 40.9817 26.1594 41.4384 26.1594 41.895V43.1507C21.8421 42.9224 17.8657 41.21 14.9117 38.4703L15.707 37.6712C16.0478 37.3288 16.0478 36.758 15.707 36.4155C15.3662 36.0731 14.7981 36.0731 14.4573 36.4155L13.662 37.2146C10.9353 34.2466 9.23106 30.2511 9.00384 25.9132H10.2536C10.708 25.9132 11.1625 25.5708 11.1625 25C11.1625 24.4292 10.708 24.2009 10.2536 24.2009H9.00384C9.23106 19.863 10.9353 15.8676 13.662 12.8995L14.4573 13.6986C14.5709 13.8128 14.7981 13.9269 15.0253 13.9269C15.2526 13.9269 15.4798 13.8128 15.5934 13.6986C15.9342 13.3562 15.9342 12.7854 15.5934 12.4429L14.7981 11.6438C17.752 8.90411 21.7285 7.19178 26.0458 6.96347V8.21918C26.0458 8.6758 26.3866 9.13242 26.9547 9.13242C27.5228 9.13242 27.8636 8.78995 27.8636 8.21918V6.96347C32.1809 7.19178 36.1574 8.90411 39.1113 11.6438L38.316 12.5571C37.9752 12.8995 37.9752 13.4703 38.316 13.8128C38.4296 13.9269 38.6569 14.0411 38.8841 14.0411C39.1113 14.0411 39.3385 13.9269 39.4521 13.8128L40.2474 13.0137C42.9742 15.9817 44.6783 19.9772 44.9056 24.3151H43.6558C43.2014 24.3151 42.7469 24.6575 42.7469 25.2283C42.7469 25.7991 43.315 25.9132 43.7694 25.9132Z" fill="#192646"/>
<path d="M27.0683 48.2877C14.23 48.2877 3.89125 37.7854 3.89125 25C3.89125 24.5434 3.55041 24.0868 2.98234 24.0868C2.41428 24.0868 2.07344 24.4292 2.07344 25C2.07344 38.8128 13.2075 50 26.9547 50C27.4092 50 27.8636 49.6575 27.8636 49.0868C27.8636 48.516 27.5228 48.2877 27.0683 48.2877Z" fill="#192646"/>
<path d="M4.45931 22.6027C4.57293 22.7169 4.80015 22.8311 5.02738 22.8311C5.25461 22.8311 5.48183 22.7169 5.59544 22.6027C5.93628 22.2603 5.93628 21.6895 5.59544 21.347L3.55041 19.2922C3.20957 18.9498 2.6415 18.9498 2.30066 19.2922L0.255629 21.347C-0.0852098 21.6895 -0.0852098 22.2603 0.255629 22.6027C0.596469 22.9452 1.16453 22.9452 1.50537 22.6027L2.98234 21.1187L4.45931 22.6027Z" fill="#192646"/>
<path d="M27.0683 1.71233C39.9066 1.71233 50.2454 12.2146 50.2454 25C50.2454 25.4566 50.5862 25.9132 51.1543 25.9132C51.7224 25.9132 52.0632 25.5708 52.0632 25C51.9496 11.1872 40.7019 0 27.0683 0C26.5002 0 26.1594 0.342466 26.1594 0.913242C26.1594 1.48402 26.5002 1.71233 27.0683 1.71233Z" fill="#192646"/>
<path d="M53.7674 27.3973C53.4266 27.0548 52.8585 27.0548 52.5177 27.3973L51.0407 28.8813L49.5637 27.3973C49.2229 27.0548 48.6548 27.0548 48.314 27.3973C47.9731 27.7397 47.9731 28.3105 48.314 28.653L50.359 30.7078C50.4726 30.8219 50.6998 30.9361 50.9271 30.9361C51.1543 30.9361 51.3815 30.8219 51.4951 30.7078L53.5402 28.653C54.1082 28.1963 54.1082 27.7397 53.7674 27.3973Z" fill="#192646"/>
<path d="M33.317 16.7808L28.0908 22.3744C27.75 22.2603 27.4092 22.1461 27.0683 22.1461C25.4777 22.1461 24.228 23.4018 24.228 25C24.228 26.2557 25.0233 27.2831 26.273 27.7397V33.2192C26.273 33.6758 26.6139 34.1324 27.1819 34.1324C27.75 34.1324 28.0908 33.79 28.0908 33.2192V27.7397C29.227 27.3973 30.1359 26.2557 30.1359 25C30.1359 24.4292 29.9086 23.8584 29.6814 23.4018L34.794 17.9224C35.1348 17.5799 35.1348 17.0091 34.794 16.6667C34.1123 16.4384 33.6579 16.4384 33.317 16.7808ZM27.0683 26.1416C26.3866 26.1416 25.9322 25.6849 25.9322 25C25.9322 24.3151 26.5002 23.8584 27.0683 23.8584C27.6364 23.8584 28.2044 24.4292 28.2044 25C28.2044 25.6849 27.6364 26.1416 27.0683 26.1416Z" fill="#192646"/>
</svg>
