<svg width="32" height="41" viewBox="0 0 32 41" fill="none" xmlns="http://www.w3.org/2000/svg">
<path d="M0 3.4759L0 37.5241C0 39.4397 1.57981 41 3.51947 41H28.4805C30.429 41 32 39.4397 32 37.5241V3.4759C32 1.55159 30.4202 0 28.4805 0H3.51947C1.57981 0 0 1.55159 0 3.4759ZM28.4805 1.04017C29.8409 1.04017 30.9468 2.13235 30.9468 3.4759L30.9468 37.5241C30.9468 38.8677 29.8409 39.9598 28.4805 39.9598H3.51947C2.15908 39.9598 1.05321 38.8677 1.05321 37.5241L1.05321 3.4759C1.05321 2.13235 2.15908 1.04017 3.51947 1.04017H28.4805Z" fill="#192646"/>
<path d="M13.1476 29.8268C13.1476 29.5408 12.9106 29.3068 12.621 29.3068H8.96983C8.6802 29.3068 8.44322 29.5408 8.44322 29.8268C8.44322 30.1129 8.6802 30.3469 8.96983 30.3469H12.621C12.9106 30.3469 13.1476 30.1129 13.1476 29.8268Z" fill="#192646"/>
<path d="M20.6604 29.8268C20.6604 28.414 19.5019 27.2611 18.0713 27.2611C16.6407 27.2611 15.4734 28.4053 15.4734 29.8268C15.4734 31.2484 16.6319 32.3926 18.0625 32.3926C19.5019 32.3839 20.6604 31.2397 20.6604 29.8268ZM16.5266 29.8268C16.5266 28.986 17.2112 28.3099 18.0625 28.3013C18.9139 28.2926 19.5985 28.9774 19.5985 29.8182C19.5985 30.659 18.9139 31.3351 18.0625 31.3438C17.22 31.3438 16.5266 30.6677 16.5266 29.8268Z" fill="#192646"/>
<path d="M13.1476 20.5C13.1476 20.214 12.9106 19.9799 12.621 19.9799H8.96983C8.6802 19.9799 8.44322 20.214 8.44322 20.5C8.44322 20.786 8.6802 21.0201 8.96983 21.0201H12.621C12.9106 21.0201 13.1476 20.786 13.1476 20.5Z" fill="#192646"/>
<path d="M20.6604 20.5C20.6604 19.0871 19.5019 17.9342 18.0713 17.9342C16.6407 17.9342 15.4734 19.0784 15.4734 20.5C15.4734 21.9216 16.6319 23.0571 18.0713 23.0571C19.5019 23.0571 20.6604 21.9129 20.6604 20.5ZM16.5266 20.5C16.5266 19.6592 17.2112 18.9831 18.0625 18.9831C18.9139 18.9831 19.5985 19.6592 19.5985 20.5C19.5985 21.3408 18.9139 22.0169 18.0625 22.0169C17.22 22.0169 16.5266 21.3408 16.5266 20.5Z" fill="#192646"/>
<path d="M6.1876 8.94545V13.4008C6.1876 14.3717 6.67032 15.2905 7.48656 15.8366C6.67032 16.3913 6.1876 17.3015 6.1876 18.2723L6.1876 22.7277C6.1876 23.6985 6.67032 24.6173 7.48656 25.1634C6.67032 25.7182 6.1876 26.6283 6.1876 27.5992V32.0545C6.1876 33.6841 7.53044 35.0104 9.18047 35.0104H22.8195C24.4696 35.0104 25.8124 33.6841 25.8124 32.0545V27.5992C25.8124 26.6283 25.3297 25.7095 24.5134 25.1634C25.3297 24.6087 25.8124 23.6985 25.8124 22.7277V18.2723C25.8124 17.3015 25.3209 16.3827 24.5134 15.8366C25.3297 15.2818 25.8124 14.3717 25.8124 13.4008L25.8124 8.94545C25.8124 7.31586 24.4696 5.98964 22.8195 5.98964H9.18925C7.53044 5.98964 6.19638 7.30719 6.1876 8.94545ZM7.24081 13.3922V8.93679C7.24081 7.87928 8.10971 7.02114 9.18047 7.02114H19.537C20.6078 7.02114 21.4767 7.87928 21.4767 8.93679L21.4767 13.3922C21.4767 14.4497 20.6078 15.3078 19.537 15.3078H9.18047C8.10971 15.3078 7.24959 14.4497 7.24081 13.3922ZM7.24081 22.7277L7.24081 18.2723C7.24081 17.2148 8.10971 16.3567 9.18047 16.3567H19.537C20.6078 16.3567 21.4767 17.2148 21.4767 18.2723V22.7277C21.4767 23.7852 20.6078 24.6433 19.537 24.6433H9.18047C8.10971 24.6433 7.24959 23.7852 7.24081 22.7277ZM9.18925 33.9702C8.11849 33.9702 7.24959 33.1121 7.24959 32.0545V27.5992C7.24959 26.5416 8.11849 25.6835 9.18925 25.6835H19.5458C20.6166 25.6835 21.4855 26.5416 21.4855 27.5992V32.0545C21.4855 33.1121 20.6166 33.9702 19.5458 33.9702H9.18925ZM24.7592 27.5992V32.0545C24.7592 33.1121 23.8903 33.9702 22.8195 33.9702H21.8278C22.2929 33.4328 22.5474 32.7567 22.5474 32.0545V27.5992C22.5474 26.897 22.2929 26.2123 21.8278 25.6835H22.8195C23.8903 25.6835 24.7592 26.5416 24.7592 27.5992ZM24.7592 18.2723V22.7277C24.7592 23.7852 23.8903 24.6433 22.8195 24.6433H21.8278C22.2929 24.1059 22.5474 23.4298 22.5474 22.7277V18.2723C22.5474 17.5702 22.2929 16.8854 21.8278 16.3567H22.8195C23.8903 16.3567 24.7592 17.2148 24.7592 18.2723ZM24.7592 8.94545L24.7592 13.4008C24.7592 14.4584 23.8903 15.3165 22.8195 15.3165H21.8278C22.2929 14.7791 22.5474 14.103 22.5474 13.4008L22.5474 8.94545C22.5474 8.24334 22.2929 7.55856 21.8278 7.02981H22.8195C23.8903 7.02981 24.7592 7.88795 24.7592 8.94545Z" fill="#192646"/>
<path d="M13.1476 11.1731C13.1476 10.8871 12.9106 10.6531 12.621 10.6531H8.96983C8.6802 10.6531 8.44322 10.8871 8.44322 11.1731C8.44322 11.4592 8.6802 11.6932 8.96983 11.6932H12.621C12.9106 11.6932 13.1476 11.4592 13.1476 11.1731Z" fill="#192646"/>
<path d="M20.6604 11.1731C20.6604 9.76025 19.5019 8.6074 18.0625 8.6074C16.6231 8.6074 15.4646 9.75159 15.4646 11.1731C15.4646 12.5947 16.6231 13.7389 18.0625 13.7389C19.5019 13.7302 20.6604 12.586 20.6604 11.1731ZM16.5266 11.1731C16.5266 10.3323 17.2112 9.65624 18.0625 9.65624C18.9139 9.65624 19.5985 10.3323 19.5985 11.1731C19.5985 12.014 18.9139 12.6901 18.0625 12.6901C17.22 12.6901 16.5266 12.0053 16.5266 11.1731Z" fill="#192646"/>
</svg>
