<svg width="45" height="52" viewBox="0 0 45 52" fill="none" xmlns="http://www.w3.org/2000/svg">
<path d="M38.5631 32.9516C38.1813 32.9516 37.7995 33.28 37.7995 33.7179C37.7995 39.7937 32.8359 44.7747 26.7814 44.7747C26.3451 44.7747 26.0178 45.1032 26.0178 45.541C26.0178 45.9789 26.3451 46.3074 26.7814 46.3074C33.6541 46.3074 39.2722 40.6695 39.2722 33.7726C39.3267 33.28 38.9995 32.9516 38.5631 32.9516Z" fill="#192646"/>
<path d="M37.9631 14.6695C34.3086 8.15579 30.4359 2.57263 29.6178 1.47789C28.9632 0.547368 27.9269 0 26.7814 0C25.636 0 24.5997 0.547368 23.9451 1.47789C23.4542 2.18947 21.8179 4.54316 19.7997 7.77263C18.0543 6.95158 16.0907 6.51368 14.0725 6.51368C6.32718 6.51368 0 12.8632 0 20.6358C0 26.4379 3.5454 31.4737 8.56352 33.6084C8.56352 33.6632 8.56352 33.6632 8.56352 33.7179C8.56352 43.7895 16.7452 52 26.7814 52C36.8177 52 44.9994 43.7895 44.9994 33.7179C45.0539 28.6821 41.563 21.1832 37.9631 14.6695ZM1.47271 20.6358C1.47271 13.6842 7.09081 7.99158 14.0725 7.99158C20.9997 7.99158 26.6724 13.6295 26.6724 20.6358C26.6724 27.6421 20.9997 33.2253 14.0725 33.2253C7.14535 33.2253 1.47271 27.5874 1.47271 20.6358ZM26.836 50.5221C17.727 50.5221 10.3089 43.1874 10.0908 34.1558C11.3453 34.5389 12.7089 34.7579 14.0725 34.7579C21.8179 34.7579 28.1451 28.4084 28.1451 20.6358C28.1451 15.4358 25.3087 10.8926 21.1633 8.48421C23.1269 5.30947 24.7087 3.01053 25.1996 2.35368C25.5815 1.80632 26.1814 1.53263 26.836 1.53263C27.4905 1.53263 28.0905 1.86105 28.4723 2.35368C29.9996 4.54316 43.5812 24.1389 43.5812 33.7179C43.5812 42.9684 36.054 50.5221 26.836 50.5221Z" fill="#192646"/>
<path d="M20.5633 14.0674C20.2906 13.7937 19.7997 13.7937 19.527 14.0674L7.58171 26.1095C7.30899 26.3832 7.30899 26.8758 7.58171 27.1495C7.74535 27.3137 7.90898 27.3684 8.12716 27.3684C8.29079 27.3684 8.50897 27.3137 8.67261 27.1495L20.6179 15.1621C20.8906 14.8337 20.8906 14.3958 20.5633 14.0674Z" fill="#192646"/>
<path d="M9.7635 19.1032C11.2908 19.1032 12.5453 17.8442 12.5453 16.3116C12.5453 14.7789 11.2908 13.52 9.7635 13.52C8.23625 13.52 6.98172 14.7789 6.98172 16.3116C6.98172 17.8442 8.23625 19.1032 9.7635 19.1032ZM9.7635 14.9979C10.4726 14.9979 11.0726 15.6 11.0726 16.3116C11.0726 17.0232 10.4726 17.6253 9.7635 17.6253C9.05442 17.6253 8.45443 17.0232 8.45443 16.3116C8.45443 15.5453 9.05442 14.9979 9.7635 14.9979Z" fill="#192646"/>
<path d="M18.3816 22.1137C16.8543 22.1137 15.5998 23.3726 15.5998 24.9053C15.5998 26.4379 16.8543 27.6968 18.3816 27.6968C19.9088 27.6968 21.1633 26.4379 21.1633 24.9053C21.1633 23.3726 19.9088 22.1137 18.3816 22.1137ZM18.3816 26.2737C17.6725 26.2737 17.0725 25.6716 17.0725 24.96C17.0725 24.2484 17.6725 23.6463 18.3816 23.6463C19.0906 23.6463 19.6906 24.2484 19.6906 24.96C19.6906 25.6716 19.0906 26.2737 18.3816 26.2737Z" fill="#192646"/>
</svg>
