<svg width="54" height="30" viewBox="0 0 54 30" fill="none" xmlns="http://www.w3.org/2000/svg">
<path d="M45.5331 2.07028L45.5328 2.07059L37.6664 10.265C37.1233 10.0643 36.5403 9.94203 35.9261 9.94203C33.1336 9.94203 30.8642 12.2096 30.8642 15.0003C30.8642 15.6934 31.0091 16.3543 31.2613 16.9545L23.6954 24.8344C23.6952 24.8347 23.6949 24.8349 23.6946 24.8352C23.4995 25.0311 23.5029 25.3387 23.6954 25.5311C23.6954 25.5311 23.6954 25.5311 23.6954 25.5311L25.8478 27.6837L25.8478 27.6837C25.9418 27.7776 26.067 27.8284 26.1975 27.8284H26.2292L26.2492 27.8143C26.3766 27.8075 26.4976 27.7521 26.5853 27.6591C26.5854 27.659 26.5856 27.6588 26.5858 27.6586L34.1952 19.7351C34.7362 19.9357 35.317 20.0556 35.9308 20.0556C38.7234 20.0556 40.9951 17.7857 40.9951 14.9974C40.9951 14.3036 40.8502 13.6454 40.598 13.045L48.7046 4.59949L48.705 4.59913C48.7964 4.50294 48.8645 4.36448 48.8404 4.2113C48.8219 4.08082 48.7651 3.94889 48.6445 3.86065C48.6443 3.86049 48.6441 3.86034 48.6439 3.86018L46.1993 2.01492C46.1992 2.01485 46.1991 2.01478 46.1991 2.0147C46.0986 1.93747 45.9727 1.90615 45.8563 1.91793L45.8464 1.91893L45.8397 1.92101C45.7265 1.9318 45.6174 1.98321 45.5331 2.07028ZM15.6454 0.9C15.3692 0.9 15.1509 1.1251 15.1509 1.39654V14.5014H1.39683C1.12081 14.5014 0.9 14.7282 0.9 15.0003C0.9 15.276 1.12264 15.4945 1.39683 15.4945H15.1509V28.6035C15.1509 28.8776 15.3696 29.1 15.6454 29.1C15.9207 29.1 16.1422 28.8757 16.1422 28.6035V1.39654C16.1422 1.1216 15.9203 0.9 15.6454 0.9ZM19.0832 0.9C18.8079 0.9 18.5864 1.12432 18.5864 1.39654V28.6035C18.5864 28.8784 18.8083 29.1 19.0832 29.1H52.6032C52.8785 29.1 53.1 28.8757 53.1 28.6035V1.39654C53.1 1.12159 52.8781 0.9 52.6032 0.9H19.0832ZM19.5801 1.89309H52.1063V28.1069H19.5801V1.89309ZM38.5944 10.7279L45.9484 3.06865L47.595 4.3137L40.0868 12.1334C39.6921 11.5665 39.1808 11.0949 38.5944 10.7279ZM35.9232 10.9351C38.1677 10.9351 39.9938 12.7578 39.9938 15.0003C39.9938 17.2405 38.1676 19.0655 35.9232 19.0655C33.6789 19.0655 31.855 17.2405 31.855 15.0003C31.855 12.7577 33.6788 10.9351 35.9232 10.9351ZM35.9232 12.9808C34.8111 12.9808 33.907 13.8843 33.907 14.9979C33.907 16.1092 34.811 17.0151 35.9232 17.0151C37.0352 17.0151 37.9417 16.1093 37.9417 14.9979C37.9417 13.8841 37.0351 12.9808 35.9232 12.9808ZM35.9232 13.9739C36.4893 13.9739 36.9481 14.4346 36.9481 14.9979C36.9481 15.5634 36.4872 16.022 35.9232 16.022C35.3574 16.022 34.9007 15.5616 34.9007 14.9979C34.9007 14.4321 35.3573 13.9739 35.9232 13.9739ZM24.7559 25.1651L31.762 17.8689C32.1565 18.4358 32.6677 18.9092 33.2542 19.2746L26.2044 26.6189L24.7559 25.1651Z" fill="#192646" stroke="#192646" stroke-width="0.2"/>
</svg>
