<svg width="50" height="50" viewBox="0 0 50 50" fill="none" xmlns="http://www.w3.org/2000/svg">
<mask id="path-1-outside-1_1_1315" maskUnits="userSpaceOnUse" x="0" y="0" width="50" height="50" fill="black">
<rect fill="white" width="50" height="50"/>
<path d="M7.82341 48.902H5.72541C5.21561 48.902 4.79405 48.6278 4.55876 48.1282C4.46072 47.9225 4.4019 47.7069 4.37249 47.4914L4.03916 45.5518C3.99014 45.2873 4.17642 45.0327 4.44112 44.9837C4.70582 44.9347 4.96072 45.1208 5.00974 45.3853L5.34306 47.3445C5.34306 47.3543 5.34306 47.3739 5.34306 47.3837C5.34306 47.3935 5.41169 47.9127 5.72541 47.9127H7.82341C8.14694 47.9127 8.19596 47.3935 8.19596 47.3739C8.19596 47.3543 8.19595 47.3445 8.20576 47.3347L8.53909 45.3853C8.58811 45.1208 8.843 44.9445 9.1077 44.9837C9.37241 45.0229 9.54887 45.2873 9.50966 45.5518L9.17633 47.4816C9.12731 47.991 8.78418 48.902 7.82341 48.902Z"/>
<path d="M28.5387 49H26.4407C25.9309 49 25.5094 48.7257 25.2741 48.2261C25.1761 48.0204 25.1172 47.8049 25.0878 47.5894L24.7545 45.6498C24.7153 45.3853 24.9016 45.1306 25.1761 45.1012C25.431 45.062 25.6662 45.2384 25.7251 45.4833L26.0584 47.4424C26.0584 47.4522 26.0584 47.4718 26.0584 47.4816C26.0584 47.4914 26.1172 48.0204 26.4407 48.0204H28.5387C28.8623 48.0204 28.9211 47.4914 28.9211 47.4816C28.9211 47.4718 28.9211 47.4522 28.9211 47.4424L29.2544 45.4931C29.3034 45.2286 29.5583 45.0522 29.823 45.0914C30.0877 45.1306 30.2642 45.3951 30.225 45.6596L29.8917 47.5894C29.8426 48.089 29.4995 49 28.5387 49Z"/>
<path d="M29.5975 45.8653H4.6568C2.63723 45.8653 1 44.2294 1 42.2114V4.65388C1 2.63592 2.63723 1 4.6568 1H29.5975C31.6171 1 33.2543 2.63592 33.2543 4.65388V42.2114C33.2543 44.2294 31.6171 45.8653 29.5975 45.8653ZM4.6568 1.97959C3.17643 1.97959 1.98038 3.17469 1.98038 4.65388V42.2114C1.98038 43.6906 3.17643 44.8857 4.6568 44.8857H29.5975C31.0779 44.8857 32.274 43.6906 32.274 42.2114V4.65388C32.274 3.17469 31.0779 1.97959 29.5975 1.97959H4.6568Z"/>
<path d="M17.3723 41.2612H16.784C15.4311 41.2612 14.3331 40.1641 14.3331 38.8122V31.3673C14.3331 30.0155 15.4311 28.9184 16.784 28.9184H17.3723C18.7252 28.9184 19.8232 30.0155 19.8232 31.3673V38.8122C19.8232 40.1641 18.7252 41.2612 17.3723 41.2612ZM16.784 29.898C15.9703 29.898 15.3135 30.5543 15.3135 31.3673V38.8122C15.3135 39.6253 15.9703 40.2816 16.784 40.2816H17.3723C18.186 40.2816 18.8428 39.6253 18.8428 38.8122V31.3673C18.8428 30.5543 18.186 29.898 17.3723 29.898H16.784Z"/>
<path d="M42.264 40.4971H42.0777C40.117 40.4971 38.5092 39.2824 38.166 37.5486C37.7935 35.6482 38.8719 34.1788 39.8327 32.8759C40.1856 32.4155 40.5091 31.9355 40.8032 31.4359C41.166 30.7992 41.4503 30.1135 41.6366 29.3984C41.6856 29.1829 41.8915 29.0261 42.1169 29.0261H42.2542C42.4797 29.0261 42.6758 29.1829 42.7346 29.3984C42.9307 30.1135 43.2052 30.7894 43.5679 31.4359C43.862 31.9355 44.1855 32.4155 44.5385 32.8759C45.4894 34.1788 46.5776 35.6678 46.2051 37.5584C45.8522 39.2825 44.2346 40.4971 42.264 40.4971ZM42.1758 30.8286C42.0189 31.2008 41.8424 31.5535 41.6562 31.9061C41.3424 32.4449 40.9993 32.9543 40.617 33.4539C39.7052 34.698 38.8425 35.8735 39.1268 37.3624C39.4111 38.8514 40.8228 39.5176 42.0777 39.5176H42.264C44.0189 39.5176 45.009 38.44 45.2247 37.3624C45.5188 35.8833 44.6463 34.698 43.7346 33.4441C43.362 32.9543 43.0091 32.4351 42.7052 31.8963C42.5091 31.5437 42.3326 31.191 42.1758 30.8286Z"/>
<path d="M42.2248 6.12327C41.3817 6.12327 40.6562 5.76082 39.8817 4.98694C39.2444 4.3502 38.4111 4.16408 37.3817 4.41878C36.8621 4.55592 36.3621 4.77143 35.9112 5.06531C35.6857 5.21224 35.3818 5.14367 35.2347 4.90857C35.0975 4.69306 35.1465 4.40898 35.3524 4.25224C36.4112 3.51755 38.8621 2.57714 40.5679 4.28163C41.3915 5.10449 41.9895 5.29061 42.9601 5.02612C43.4306 4.89878 43.7542 4.58531 44.1071 4.26204C44.46 3.93878 44.8326 3.58612 45.3522 3.4C46.5875 2.95918 47.8619 3.26286 48.8325 4.25224C49.0384 4.42857 49.058 4.74204 48.8717 4.94776C48.6953 5.15347 48.3815 5.17306 48.1757 4.98694C48.1561 4.97714 48.1463 4.95755 48.1266 4.93796C47.4208 4.22286 46.5482 4.00735 45.6757 4.32082C45.3424 4.43837 45.0777 4.69306 44.764 4.97714C44.362 5.34939 43.9012 5.78041 43.2052 5.97633C42.9012 6.06449 42.5679 6.11347 42.2248 6.12327Z"/>
<path d="M42.2248 11.2171C41.3817 11.2171 40.6562 10.8547 39.8817 10.0808C38.3229 8.52326 35.9406 10.1494 35.921 10.169C35.7053 10.3257 35.3916 10.2767 35.2347 10.0612C35.0778 9.84571 35.1269 9.53224 35.3425 9.37551C35.3524 9.37551 35.3524 9.36571 35.3622 9.36571C36.421 8.63102 38.8719 7.69061 40.5778 9.3951C41.4013 10.218 41.9993 10.4041 42.9601 10.1396C43.4306 10.0122 43.7542 9.69878 44.1071 9.37551C44.46 9.05225 44.8326 8.69959 45.3522 8.51347C46.5875 8.07265 47.8619 8.37633 48.8325 9.36571C49.009 9.57143 48.9894 9.8849 48.7835 10.0612C48.5972 10.218 48.3227 10.218 48.1364 10.0514C47.4306 9.33633 46.558 9.12082 45.6855 9.43429C45.3522 9.55184 45.0875 9.80653 44.7738 10.0906C44.3718 10.4629 43.911 10.8939 43.215 11.0898C42.9012 11.1584 42.5679 11.2073 42.2248 11.2171Z"/>
<path d="M42.2248 16.3012C41.3817 16.3012 40.6562 15.9388 39.8817 15.1649C39.2444 14.5282 38.4111 14.342 37.3817 14.5967C36.8621 14.7339 36.3621 14.9494 35.9112 15.2433C35.6857 15.4 35.3818 15.3412 35.2347 15.1159C35.0877 14.8906 35.1367 14.5967 35.3622 14.44C36.421 13.7053 38.8719 12.7649 40.5778 14.4694C41.4013 15.2922 41.9993 15.4784 42.9601 15.2139C43.4306 15.0865 43.7542 14.7731 44.1071 14.4498C44.46 14.1265 44.8326 13.7739 45.3522 13.5878C46.5875 13.1371 47.8619 13.4506 48.8325 14.44C49.009 14.6457 48.9894 14.9592 48.7835 15.1355C48.5972 15.2922 48.3227 15.2922 48.1364 15.1257C47.4306 14.4106 46.558 14.1951 45.6855 14.5086C45.3522 14.6261 45.0875 14.8808 44.7738 15.1649C44.3718 15.5371 43.911 15.9682 43.215 16.1543C42.9012 16.2522 42.5679 16.3012 42.2248 16.3012Z"/>
<path d="M42.2248 21.4931C41.3817 21.4931 40.6562 21.1306 39.8817 20.3567C39.2444 19.72 38.4111 19.5339 37.3817 19.7886C36.8621 19.9257 36.3621 20.1412 35.9112 20.4351C35.6857 20.5918 35.3818 20.5331 35.2347 20.3078C35.0877 20.0824 35.1367 19.7886 35.3622 19.6318C36.421 18.8971 38.8719 17.9567 40.5778 19.6612C41.4013 20.4841 41.9993 20.6702 42.9601 20.4057C43.4306 20.2784 43.7542 19.9649 44.1071 19.6416C44.46 19.3184 44.8326 18.9657 45.3522 18.7796C46.5875 18.329 47.8619 18.6424 48.8325 19.6318C49.009 19.8376 48.9894 20.151 48.7835 20.3273C48.5972 20.4841 48.3227 20.4841 48.1364 20.3176C47.4306 19.6024 46.558 19.3869 45.6855 19.7004C45.3522 19.818 45.0875 20.0727 44.7738 20.3567C44.3718 20.729 43.911 21.16 43.215 21.3461C42.9012 21.4441 42.5679 21.4931 42.2248 21.4931Z"/>
<path d="M42.2248 26.6849C41.3817 26.6849 40.6562 26.3224 39.8817 25.5486C39.2444 24.9118 38.4111 24.7257 37.3817 24.9804C36.8621 25.1176 36.3621 25.3331 35.9112 25.6269C35.6857 25.7837 35.3818 25.7249 35.2347 25.4996C35.0877 25.2743 35.1367 24.9804 35.3622 24.8237C36.421 24.089 38.8719 23.1486 40.5778 24.8531C41.4013 25.6759 41.9993 25.862 42.9601 25.5976C43.4306 25.4702 43.7542 25.1567 44.1071 24.8335C44.46 24.5102 44.8326 24.1576 45.3522 23.9714C46.5875 23.5208 47.8619 23.8343 48.8325 24.8237C49.009 25.0294 48.9894 25.3429 48.7835 25.5192C48.5972 25.6759 48.3227 25.6759 48.1364 25.5094C47.4306 24.7943 46.558 24.5788 45.6855 24.8922C45.3522 25.0098 45.0875 25.2645 44.7738 25.5486C44.3718 25.9208 43.911 26.3518 43.215 26.538C42.9012 26.6359 42.5679 26.6849 42.2248 26.6849Z"/>
<path d="M26.9799 21.4735H7.2744C6.9999 21.4735 6.78421 21.258 6.78421 20.9837C6.78421 20.7094 6.9999 20.4939 7.2744 20.4939H26.9799C27.2545 20.4939 27.4701 20.7094 27.4701 20.9837C27.4701 21.258 27.2545 21.4735 26.9799 21.4735Z"/>
<path d="M26.9799 18.7894H7.2744C6.9999 18.7894 6.78421 18.5739 6.78421 18.2996C6.78421 18.0253 6.9999 17.8098 7.2744 17.8098H26.9799C27.2545 17.8098 27.4701 18.0253 27.4701 18.2996C27.4701 18.5739 27.2545 18.7894 26.9799 18.7894Z"/>
<path d="M26.9799 16.2131H7.2744C6.9999 16.2131 6.78421 15.9976 6.78421 15.7233C6.78421 15.449 6.9999 15.2335 7.2744 15.2335H26.9799C27.2545 15.2335 27.4701 15.449 27.4701 15.7233C27.4701 15.9976 27.2545 16.2131 26.9799 16.2131Z"/>
<path d="M26.9799 13.6367H7.2744C6.9999 13.6367 6.78421 13.4212 6.78421 13.1469C6.78421 12.8727 6.9999 12.6571 7.2744 12.6571H26.9799C27.2545 12.6571 27.4701 12.8727 27.4701 13.1469C27.4701 13.4212 27.2545 13.6367 26.9799 13.6367Z"/>
<path d="M26.9799 11.0604H7.2744C6.9999 11.0604 6.78421 10.8449 6.78421 10.5706C6.78421 10.2963 6.9999 10.0808 7.2744 10.0808H26.9799C27.2545 10.0808 27.4701 10.2963 27.4701 10.5706C27.4701 10.8449 27.2545 11.0604 26.9799 11.0604Z"/>
<path d="M26.9799 8.48408H7.2744C6.9999 8.48408 6.78421 8.26857 6.78421 7.99429C6.78421 7.72 6.9999 7.50449 7.2744 7.50449H26.9799C27.2545 7.50449 27.4701 7.72 27.4701 7.99429C27.4701 8.26857 27.2545 8.48408 26.9799 8.48408Z"/>
<path d="M26.9799 5.8H7.2744C6.9999 5.8 6.78421 5.58449 6.78421 5.3102C6.78421 5.03592 6.9999 4.82041 7.2744 4.82041H26.9799C27.2545 4.82041 27.4701 5.03592 27.4701 5.3102C27.4701 5.58449 27.2545 5.8 26.9799 5.8Z"/>
<path d="M30.4113 25.9796C30.4113 25.7053 30.6269 25.4898 30.9014 25.4898C31.176 25.4898 31.3916 25.7053 31.3916 25.9796C31.3916 26.2539 31.176 26.4694 30.9014 26.4694C30.6269 26.4694 30.4113 26.2539 30.4113 25.9796ZM28.4505 25.9796C28.4505 25.7053 28.6662 25.4898 28.9407 25.4898C29.2152 25.4898 29.4309 25.7053 29.4309 25.9796C29.4309 26.2539 29.2152 26.4694 28.9407 26.4694C28.6662 26.4694 28.4505 26.2539 28.4505 25.9796ZM26.4898 25.9796C26.4898 25.7053 26.7054 25.4898 26.9799 25.4898C27.2545 25.4898 27.4701 25.7053 27.4701 25.9796C27.4701 26.2539 27.2545 26.4694 26.9799 26.4694C26.7054 26.4694 26.4898 26.2539 26.4898 25.9796ZM24.529 25.9796C24.529 25.7053 24.7447 25.4898 25.0192 25.4898C25.2937 25.4898 25.5094 25.7053 25.5094 25.9796C25.5094 26.2539 25.2937 26.4694 25.0192 26.4694C24.7447 26.4694 24.529 26.2539 24.529 25.9796ZM22.5683 25.9796C22.5683 25.7053 22.7839 25.4898 23.0584 25.4898C23.333 25.4898 23.5486 25.7053 23.5486 25.9796C23.5486 26.2539 23.333 26.4694 23.0584 26.4694C22.7839 26.4694 22.5683 26.2539 22.5683 25.9796ZM20.6075 25.9796C20.6075 25.7053 20.8232 25.4898 21.0977 25.4898C21.3722 25.4898 21.5879 25.7053 21.5879 25.9796C21.5879 26.2539 21.3722 26.4694 21.0977 26.4694C20.8232 26.4694 20.6075 26.2539 20.6075 25.9796ZM18.6468 25.9796C18.6468 25.7053 18.8624 25.4898 19.1369 25.4898C19.4114 25.4898 19.6271 25.7053 19.6271 25.9796C19.6271 26.2539 19.4114 26.4694 19.1369 26.4694C18.8624 26.4694 18.6468 26.2539 18.6468 25.9796ZM16.686 25.9796C16.686 25.7053 16.9017 25.4898 17.1762 25.4898C17.4507 25.4898 17.6664 25.7053 17.6664 25.9796C17.6664 26.2539 17.4507 26.4694 17.1762 26.4694C16.9017 26.4694 16.686 26.2539 16.686 25.9796ZM14.7253 25.9796C14.7253 25.7053 14.9409 25.4898 15.2154 25.4898C15.4899 25.4898 15.7056 25.7053 15.7056 25.9796C15.7056 26.2539 15.4899 26.4694 15.2154 26.4694C14.9409 26.4694 14.7253 26.2539 14.7253 25.9796ZM12.7645 25.9796C12.7645 25.7053 12.9802 25.4898 13.2547 25.4898C13.5292 25.4898 13.7449 25.7053 13.7449 25.9796C13.7449 26.2539 13.5292 26.4694 13.2547 26.4694C12.9802 26.4694 12.7645 26.2539 12.7645 25.9796ZM10.8038 25.9796C10.8038 25.7053 11.0194 25.4898 11.2939 25.4898C11.5684 25.4898 11.7841 25.7053 11.7841 25.9796C11.7841 26.2539 11.5684 26.4694 11.2939 26.4694C11.0194 26.4694 10.8038 26.2539 10.8038 25.9796ZM8.843 25.9796C8.843 25.7053 9.05869 25.4898 9.33319 25.4898C9.6077 25.4898 9.82338 25.7053 9.82338 25.9796C9.82338 26.2539 9.6077 26.4694 9.33319 26.4694C9.05869 26.4694 8.843 26.2539 8.843 25.9796ZM6.88225 25.9796C6.88225 25.7053 7.09793 25.4898 7.37244 25.4898C7.64694 25.4898 7.86263 25.7053 7.86263 25.9796C7.86263 26.2539 7.64694 26.4694 7.37244 26.4694C7.09793 26.4694 6.88225 26.2539 6.88225 25.9796ZM4.9215 25.9796C4.9215 25.7053 5.13718 25.4898 5.41169 25.4898C5.68619 25.4898 5.90188 25.7053 5.90188 25.9796C5.90188 26.2539 5.68619 26.4694 5.41169 26.4694C5.13718 26.4694 4.9215 26.2539 4.9215 25.9796ZM2.96075 25.9796C2.96075 25.7053 3.17643 25.4898 3.45094 25.4898C3.72544 25.4898 3.94113 25.7053 3.94113 25.9796C3.94113 26.2539 3.72544 26.4694 3.45094 26.4694C3.17643 26.4694 2.96075 26.2539 2.96075 25.9796ZM1 25.9796C1 25.7053 1.21568 25.4898 1.49019 25.4898C1.76469 25.4898 1.98038 25.7053 1.98038 25.9796C1.98038 26.2539 1.76469 26.4694 1.49019 26.4694C1.21568 26.4694 1 26.2539 1 25.9796Z"/>
</mask>
<path d="M7.82341 48.902H5.72541C5.21561 48.902 4.79405 48.6278 4.55876 48.1282C4.46072 47.9225 4.4019 47.7069 4.37249 47.4914L4.03916 45.5518C3.99014 45.2873 4.17642 45.0327 4.44112 44.9837C4.70582 44.9347 4.96072 45.1208 5.00974 45.3853L5.34306 47.3445C5.34306 47.3543 5.34306 47.3739 5.34306 47.3837C5.34306 47.3935 5.41169 47.9127 5.72541 47.9127H7.82341C8.14694 47.9127 8.19596 47.3935 8.19596 47.3739C8.19596 47.3543 8.19595 47.3445 8.20576 47.3347L8.53909 45.3853C8.58811 45.1208 8.843 44.9445 9.1077 44.9837C9.37241 45.0229 9.54887 45.2873 9.50966 45.5518L9.17633 47.4816C9.12731 47.991 8.78418 48.902 7.82341 48.902Z" fill="#192646"/>
<path d="M28.5387 49H26.4407C25.9309 49 25.5094 48.7257 25.2741 48.2261C25.1761 48.0204 25.1172 47.8049 25.0878 47.5894L24.7545 45.6498C24.7153 45.3853 24.9016 45.1306 25.1761 45.1012C25.431 45.062 25.6662 45.2384 25.7251 45.4833L26.0584 47.4424C26.0584 47.4522 26.0584 47.4718 26.0584 47.4816C26.0584 47.4914 26.1172 48.0204 26.4407 48.0204H28.5387C28.8623 48.0204 28.9211 47.4914 28.9211 47.4816C28.9211 47.4718 28.9211 47.4522 28.9211 47.4424L29.2544 45.4931C29.3034 45.2286 29.5583 45.0522 29.823 45.0914C30.0877 45.1306 30.2642 45.3951 30.225 45.6596L29.8917 47.5894C29.8426 48.089 29.4995 49 28.5387 49Z" fill="#192646"/>
<path d="M29.5975 45.8653H4.6568C2.63723 45.8653 1 44.2294 1 42.2114V4.65388C1 2.63592 2.63723 1 4.6568 1H29.5975C31.6171 1 33.2543 2.63592 33.2543 4.65388V42.2114C33.2543 44.2294 31.6171 45.8653 29.5975 45.8653ZM4.6568 1.97959C3.17643 1.97959 1.98038 3.17469 1.98038 4.65388V42.2114C1.98038 43.6906 3.17643 44.8857 4.6568 44.8857H29.5975C31.0779 44.8857 32.274 43.6906 32.274 42.2114V4.65388C32.274 3.17469 31.0779 1.97959 29.5975 1.97959H4.6568Z" fill="#192646"/>
<path d="M17.3723 41.2612H16.784C15.4311 41.2612 14.3331 40.1641 14.3331 38.8122V31.3673C14.3331 30.0155 15.4311 28.9184 16.784 28.9184H17.3723C18.7252 28.9184 19.8232 30.0155 19.8232 31.3673V38.8122C19.8232 40.1641 18.7252 41.2612 17.3723 41.2612ZM16.784 29.898C15.9703 29.898 15.3135 30.5543 15.3135 31.3673V38.8122C15.3135 39.6253 15.9703 40.2816 16.784 40.2816H17.3723C18.186 40.2816 18.8428 39.6253 18.8428 38.8122V31.3673C18.8428 30.5543 18.186 29.898 17.3723 29.898H16.784Z" fill="#192646"/>
<path d="M42.264 40.4971H42.0777C40.117 40.4971 38.5092 39.2824 38.166 37.5486C37.7935 35.6482 38.8719 34.1788 39.8327 32.8759C40.1856 32.4155 40.5091 31.9355 40.8032 31.4359C41.166 30.7992 41.4503 30.1135 41.6366 29.3984C41.6856 29.1829 41.8915 29.0261 42.1169 29.0261H42.2542C42.4797 29.0261 42.6758 29.1829 42.7346 29.3984C42.9307 30.1135 43.2052 30.7894 43.5679 31.4359C43.862 31.9355 44.1855 32.4155 44.5385 32.8759C45.4894 34.1788 46.5776 35.6678 46.2051 37.5584C45.8522 39.2825 44.2346 40.4971 42.264 40.4971ZM42.1758 30.8286C42.0189 31.2008 41.8424 31.5535 41.6562 31.9061C41.3424 32.4449 40.9993 32.9543 40.617 33.4539C39.7052 34.698 38.8425 35.8735 39.1268 37.3624C39.4111 38.8514 40.8228 39.5176 42.0777 39.5176H42.264C44.0189 39.5176 45.009 38.44 45.2247 37.3624C45.5188 35.8833 44.6463 34.698 43.7346 33.4441C43.362 32.9543 43.0091 32.4351 42.7052 31.8963C42.5091 31.5437 42.3326 31.191 42.1758 30.8286Z" fill="#192646"/>
<path d="M42.2248 6.12327C41.3817 6.12327 40.6562 5.76082 39.8817 4.98694C39.2444 4.3502 38.4111 4.16408 37.3817 4.41878C36.8621 4.55592 36.3621 4.77143 35.9112 5.06531C35.6857 5.21224 35.3818 5.14367 35.2347 4.90857C35.0975 4.69306 35.1465 4.40898 35.3524 4.25224C36.4112 3.51755 38.8621 2.57714 40.5679 4.28163C41.3915 5.10449 41.9895 5.29061 42.9601 5.02612C43.4306 4.89878 43.7542 4.58531 44.1071 4.26204C44.46 3.93878 44.8326 3.58612 45.3522 3.4C46.5875 2.95918 47.8619 3.26286 48.8325 4.25224C49.0384 4.42857 49.058 4.74204 48.8717 4.94776C48.6953 5.15347 48.3815 5.17306 48.1757 4.98694C48.1561 4.97714 48.1463 4.95755 48.1266 4.93796C47.4208 4.22286 46.5482 4.00735 45.6757 4.32082C45.3424 4.43837 45.0777 4.69306 44.764 4.97714C44.362 5.34939 43.9012 5.78041 43.2052 5.97633C42.9012 6.06449 42.5679 6.11347 42.2248 6.12327Z" fill="#192646"/>
<path d="M42.2248 11.2171C41.3817 11.2171 40.6562 10.8547 39.8817 10.0808C38.3229 8.52326 35.9406 10.1494 35.921 10.169C35.7053 10.3257 35.3916 10.2767 35.2347 10.0612C35.0778 9.84571 35.1269 9.53224 35.3425 9.37551C35.3524 9.37551 35.3524 9.36571 35.3622 9.36571C36.421 8.63102 38.8719 7.69061 40.5778 9.3951C41.4013 10.218 41.9993 10.4041 42.9601 10.1396C43.4306 10.0122 43.7542 9.69878 44.1071 9.37551C44.46 9.05225 44.8326 8.69959 45.3522 8.51347C46.5875 8.07265 47.8619 8.37633 48.8325 9.36571C49.009 9.57143 48.9894 9.8849 48.7835 10.0612C48.5972 10.218 48.3227 10.218 48.1364 10.0514C47.4306 9.33633 46.558 9.12082 45.6855 9.43429C45.3522 9.55184 45.0875 9.80653 44.7738 10.0906C44.3718 10.4629 43.911 10.8939 43.215 11.0898C42.9012 11.1584 42.5679 11.2073 42.2248 11.2171Z" fill="#192646"/>
<path d="M42.2248 16.3012C41.3817 16.3012 40.6562 15.9388 39.8817 15.1649C39.2444 14.5282 38.4111 14.342 37.3817 14.5967C36.8621 14.7339 36.3621 14.9494 35.9112 15.2433C35.6857 15.4 35.3818 15.3412 35.2347 15.1159C35.0877 14.8906 35.1367 14.5967 35.3622 14.44C36.421 13.7053 38.8719 12.7649 40.5778 14.4694C41.4013 15.2922 41.9993 15.4784 42.9601 15.2139C43.4306 15.0865 43.7542 14.7731 44.1071 14.4498C44.46 14.1265 44.8326 13.7739 45.3522 13.5878C46.5875 13.1371 47.8619 13.4506 48.8325 14.44C49.009 14.6457 48.9894 14.9592 48.7835 15.1355C48.5972 15.2922 48.3227 15.2922 48.1364 15.1257C47.4306 14.4106 46.558 14.1951 45.6855 14.5086C45.3522 14.6261 45.0875 14.8808 44.7738 15.1649C44.3718 15.5371 43.911 15.9682 43.215 16.1543C42.9012 16.2522 42.5679 16.3012 42.2248 16.3012Z" fill="#192646"/>
<path d="M42.2248 21.4931C41.3817 21.4931 40.6562 21.1306 39.8817 20.3567C39.2444 19.72 38.4111 19.5339 37.3817 19.7886C36.8621 19.9257 36.3621 20.1412 35.9112 20.4351C35.6857 20.5918 35.3818 20.5331 35.2347 20.3078C35.0877 20.0824 35.1367 19.7886 35.3622 19.6318C36.421 18.8971 38.8719 17.9567 40.5778 19.6612C41.4013 20.4841 41.9993 20.6702 42.9601 20.4057C43.4306 20.2784 43.7542 19.9649 44.1071 19.6416C44.46 19.3184 44.8326 18.9657 45.3522 18.7796C46.5875 18.329 47.8619 18.6424 48.8325 19.6318C49.009 19.8376 48.9894 20.151 48.7835 20.3273C48.5972 20.4841 48.3227 20.4841 48.1364 20.3176C47.4306 19.6024 46.558 19.3869 45.6855 19.7004C45.3522 19.818 45.0875 20.0727 44.7738 20.3567C44.3718 20.729 43.911 21.16 43.215 21.3461C42.9012 21.4441 42.5679 21.4931 42.2248 21.4931Z" fill="#192646"/>
<path d="M42.2248 26.6849C41.3817 26.6849 40.6562 26.3224 39.8817 25.5486C39.2444 24.9118 38.4111 24.7257 37.3817 24.9804C36.8621 25.1176 36.3621 25.3331 35.9112 25.6269C35.6857 25.7837 35.3818 25.7249 35.2347 25.4996C35.0877 25.2743 35.1367 24.9804 35.3622 24.8237C36.421 24.089 38.8719 23.1486 40.5778 24.8531C41.4013 25.6759 41.9993 25.862 42.9601 25.5976C43.4306 25.4702 43.7542 25.1567 44.1071 24.8335C44.46 24.5102 44.8326 24.1576 45.3522 23.9714C46.5875 23.5208 47.8619 23.8343 48.8325 24.8237C49.009 25.0294 48.9894 25.3429 48.7835 25.5192C48.5972 25.6759 48.3227 25.6759 48.1364 25.5094C47.4306 24.7943 46.558 24.5788 45.6855 24.8922C45.3522 25.0098 45.0875 25.2645 44.7738 25.5486C44.3718 25.9208 43.911 26.3518 43.215 26.538C42.9012 26.6359 42.5679 26.6849 42.2248 26.6849Z" fill="#192646"/>
<path d="M26.9799 21.4735H7.2744C6.9999 21.4735 6.78421 21.258 6.78421 20.9837C6.78421 20.7094 6.9999 20.4939 7.2744 20.4939H26.9799C27.2545 20.4939 27.4701 20.7094 27.4701 20.9837C27.4701 21.258 27.2545 21.4735 26.9799 21.4735Z" fill="#192646"/>
<path d="M26.9799 18.7894H7.2744C6.9999 18.7894 6.78421 18.5739 6.78421 18.2996C6.78421 18.0253 6.9999 17.8098 7.2744 17.8098H26.9799C27.2545 17.8098 27.4701 18.0253 27.4701 18.2996C27.4701 18.5739 27.2545 18.7894 26.9799 18.7894Z" fill="#192646"/>
<path d="M26.9799 16.2131H7.2744C6.9999 16.2131 6.78421 15.9976 6.78421 15.7233C6.78421 15.449 6.9999 15.2335 7.2744 15.2335H26.9799C27.2545 15.2335 27.4701 15.449 27.4701 15.7233C27.4701 15.9976 27.2545 16.2131 26.9799 16.2131Z" fill="#192646"/>
<path d="M26.9799 13.6367H7.2744C6.9999 13.6367 6.78421 13.4212 6.78421 13.1469C6.78421 12.8727 6.9999 12.6571 7.2744 12.6571H26.9799C27.2545 12.6571 27.4701 12.8727 27.4701 13.1469C27.4701 13.4212 27.2545 13.6367 26.9799 13.6367Z" fill="#192646"/>
<path d="M26.9799 11.0604H7.2744C6.9999 11.0604 6.78421 10.8449 6.78421 10.5706C6.78421 10.2963 6.9999 10.0808 7.2744 10.0808H26.9799C27.2545 10.0808 27.4701 10.2963 27.4701 10.5706C27.4701 10.8449 27.2545 11.0604 26.9799 11.0604Z" fill="#192646"/>
<path d="M26.9799 8.48408H7.2744C6.9999 8.48408 6.78421 8.26857 6.78421 7.99429C6.78421 7.72 6.9999 7.50449 7.2744 7.50449H26.9799C27.2545 7.50449 27.4701 7.72 27.4701 7.99429C27.4701 8.26857 27.2545 8.48408 26.9799 8.48408Z" fill="#192646"/>
<path d="M26.9799 5.8H7.2744C6.9999 5.8 6.78421 5.58449 6.78421 5.3102C6.78421 5.03592 6.9999 4.82041 7.2744 4.82041H26.9799C27.2545 4.82041 27.4701 5.03592 27.4701 5.3102C27.4701 5.58449 27.2545 5.8 26.9799 5.8Z" fill="#192646"/>
<path d="M30.4113 25.9796C30.4113 25.7053 30.6269 25.4898 30.9014 25.4898C31.176 25.4898 31.3916 25.7053 31.3916 25.9796C31.3916 26.2539 31.176 26.4694 30.9014 26.4694C30.6269 26.4694 30.4113 26.2539 30.4113 25.9796ZM28.4505 25.9796C28.4505 25.7053 28.6662 25.4898 28.9407 25.4898C29.2152 25.4898 29.4309 25.7053 29.4309 25.9796C29.4309 26.2539 29.2152 26.4694 28.9407 26.4694C28.6662 26.4694 28.4505 26.2539 28.4505 25.9796ZM26.4898 25.9796C26.4898 25.7053 26.7054 25.4898 26.9799 25.4898C27.2545 25.4898 27.4701 25.7053 27.4701 25.9796C27.4701 26.2539 27.2545 26.4694 26.9799 26.4694C26.7054 26.4694 26.4898 26.2539 26.4898 25.9796ZM24.529 25.9796C24.529 25.7053 24.7447 25.4898 25.0192 25.4898C25.2937 25.4898 25.5094 25.7053 25.5094 25.9796C25.5094 26.2539 25.2937 26.4694 25.0192 26.4694C24.7447 26.4694 24.529 26.2539 24.529 25.9796ZM22.5683 25.9796C22.5683 25.7053 22.7839 25.4898 23.0584 25.4898C23.333 25.4898 23.5486 25.7053 23.5486 25.9796C23.5486 26.2539 23.333 26.4694 23.0584 26.4694C22.7839 26.4694 22.5683 26.2539 22.5683 25.9796ZM20.6075 25.9796C20.6075 25.7053 20.8232 25.4898 21.0977 25.4898C21.3722 25.4898 21.5879 25.7053 21.5879 25.9796C21.5879 26.2539 21.3722 26.4694 21.0977 26.4694C20.8232 26.4694 20.6075 26.2539 20.6075 25.9796ZM18.6468 25.9796C18.6468 25.7053 18.8624 25.4898 19.1369 25.4898C19.4114 25.4898 19.6271 25.7053 19.6271 25.9796C19.6271 26.2539 19.4114 26.4694 19.1369 26.4694C18.8624 26.4694 18.6468 26.2539 18.6468 25.9796ZM16.686 25.9796C16.686 25.7053 16.9017 25.4898 17.1762 25.4898C17.4507 25.4898 17.6664 25.7053 17.6664 25.9796C17.6664 26.2539 17.4507 26.4694 17.1762 26.4694C16.9017 26.4694 16.686 26.2539 16.686 25.9796ZM14.7253 25.9796C14.7253 25.7053 14.9409 25.4898 15.2154 25.4898C15.4899 25.4898 15.7056 25.7053 15.7056 25.9796C15.7056 26.2539 15.4899 26.4694 15.2154 26.4694C14.9409 26.4694 14.7253 26.2539 14.7253 25.9796ZM12.7645 25.9796C12.7645 25.7053 12.9802 25.4898 13.2547 25.4898C13.5292 25.4898 13.7449 25.7053 13.7449 25.9796C13.7449 26.2539 13.5292 26.4694 13.2547 26.4694C12.9802 26.4694 12.7645 26.2539 12.7645 25.9796ZM10.8038 25.9796C10.8038 25.7053 11.0194 25.4898 11.2939 25.4898C11.5684 25.4898 11.7841 25.7053 11.7841 25.9796C11.7841 26.2539 11.5684 26.4694 11.2939 26.4694C11.0194 26.4694 10.8038 26.2539 10.8038 25.9796ZM8.843 25.9796C8.843 25.7053 9.05869 25.4898 9.33319 25.4898C9.6077 25.4898 9.82338 25.7053 9.82338 25.9796C9.82338 26.2539 9.6077 26.4694 9.33319 26.4694C9.05869 26.4694 8.843 26.2539 8.843 25.9796ZM6.88225 25.9796C6.88225 25.7053 7.09793 25.4898 7.37244 25.4898C7.64694 25.4898 7.86263 25.7053 7.86263 25.9796C7.86263 26.2539 7.64694 26.4694 7.37244 26.4694C7.09793 26.4694 6.88225 26.2539 6.88225 25.9796ZM4.9215 25.9796C4.9215 25.7053 5.13718 25.4898 5.41169 25.4898C5.68619 25.4898 5.90188 25.7053 5.90188 25.9796C5.90188 26.2539 5.68619 26.4694 5.41169 26.4694C5.13718 26.4694 4.9215 26.2539 4.9215 25.9796ZM2.96075 25.9796C2.96075 25.7053 3.17643 25.4898 3.45094 25.4898C3.72544 25.4898 3.94113 25.7053 3.94113 25.9796C3.94113 26.2539 3.72544 26.4694 3.45094 26.4694C3.17643 26.4694 2.96075 26.2539 2.96075 25.9796ZM1 25.9796C1 25.7053 1.21568 25.4898 1.49019 25.4898C1.76469 25.4898 1.98038 25.7053 1.98038 25.9796C1.98038 26.2539 1.76469 26.4694 1.49019 26.4694C1.21568 26.4694 1 26.2539 1 25.9796Z" fill="#192646"/>
<path d="M7.82341 48.902H5.72541C5.21561 48.902 4.79405 48.6278 4.55876 48.1282C4.46072 47.9225 4.4019 47.7069 4.37249 47.4914L4.03916 45.5518C3.99014 45.2873 4.17642 45.0327 4.44112 44.9837C4.70582 44.9347 4.96072 45.1208 5.00974 45.3853L5.34306 47.3445C5.34306 47.3543 5.34306 47.3739 5.34306 47.3837C5.34306 47.3935 5.41169 47.9127 5.72541 47.9127H7.82341C8.14694 47.9127 8.19596 47.3935 8.19596 47.3739C8.19596 47.3543 8.19595 47.3445 8.20576 47.3347L8.53909 45.3853C8.58811 45.1208 8.843 44.9445 9.1077 44.9837C9.37241 45.0229 9.54887 45.2873 9.50966 45.5518L9.17633 47.4816C9.12731 47.991 8.78418 48.902 7.82341 48.902Z" stroke="#192646" stroke-width="0.6" mask="url(#path-1-outside-1_1_1315)"/>
<path d="M28.5387 49H26.4407C25.9309 49 25.5094 48.7257 25.2741 48.2261C25.1761 48.0204 25.1172 47.8049 25.0878 47.5894L24.7545 45.6498C24.7153 45.3853 24.9016 45.1306 25.1761 45.1012C25.431 45.062 25.6662 45.2384 25.7251 45.4833L26.0584 47.4424C26.0584 47.4522 26.0584 47.4718 26.0584 47.4816C26.0584 47.4914 26.1172 48.0204 26.4407 48.0204H28.5387C28.8623 48.0204 28.9211 47.4914 28.9211 47.4816C28.9211 47.4718 28.9211 47.4522 28.9211 47.4424L29.2544 45.4931C29.3034 45.2286 29.5583 45.0522 29.823 45.0914C30.0877 45.1306 30.2642 45.3951 30.225 45.6596L29.8917 47.5894C29.8426 48.089 29.4995 49 28.5387 49Z" stroke="#192646" stroke-width="0.6" mask="url(#path-1-outside-1_1_1315)"/>
<path d="M29.5975 45.8653H4.6568C2.63723 45.8653 1 44.2294 1 42.2114V4.65388C1 2.63592 2.63723 1 4.6568 1H29.5975C31.6171 1 33.2543 2.63592 33.2543 4.65388V42.2114C33.2543 44.2294 31.6171 45.8653 29.5975 45.8653ZM4.6568 1.97959C3.17643 1.97959 1.98038 3.17469 1.98038 4.65388V42.2114C1.98038 43.6906 3.17643 44.8857 4.6568 44.8857H29.5975C31.0779 44.8857 32.274 43.6906 32.274 42.2114V4.65388C32.274 3.17469 31.0779 1.97959 29.5975 1.97959H4.6568Z" stroke="#192646" stroke-width="0.6" mask="url(#path-1-outside-1_1_1315)"/>
<path d="M17.3723 41.2612H16.784C15.4311 41.2612 14.3331 40.1641 14.3331 38.8122V31.3673C14.3331 30.0155 15.4311 28.9184 16.784 28.9184H17.3723C18.7252 28.9184 19.8232 30.0155 19.8232 31.3673V38.8122C19.8232 40.1641 18.7252 41.2612 17.3723 41.2612ZM16.784 29.898C15.9703 29.898 15.3135 30.5543 15.3135 31.3673V38.8122C15.3135 39.6253 15.9703 40.2816 16.784 40.2816H17.3723C18.186 40.2816 18.8428 39.6253 18.8428 38.8122V31.3673C18.8428 30.5543 18.186 29.898 17.3723 29.898H16.784Z" stroke="#192646" stroke-width="0.6" mask="url(#path-1-outside-1_1_1315)"/>
<path d="M42.264 40.4971H42.0777C40.117 40.4971 38.5092 39.2824 38.166 37.5486C37.7935 35.6482 38.8719 34.1788 39.8327 32.8759C40.1856 32.4155 40.5091 31.9355 40.8032 31.4359C41.166 30.7992 41.4503 30.1135 41.6366 29.3984C41.6856 29.1829 41.8915 29.0261 42.1169 29.0261H42.2542C42.4797 29.0261 42.6758 29.1829 42.7346 29.3984C42.9307 30.1135 43.2052 30.7894 43.5679 31.4359C43.862 31.9355 44.1855 32.4155 44.5385 32.8759C45.4894 34.1788 46.5776 35.6678 46.2051 37.5584C45.8522 39.2825 44.2346 40.4971 42.264 40.4971ZM42.1758 30.8286C42.0189 31.2008 41.8424 31.5535 41.6562 31.9061C41.3424 32.4449 40.9993 32.9543 40.617 33.4539C39.7052 34.698 38.8425 35.8735 39.1268 37.3624C39.4111 38.8514 40.8228 39.5176 42.0777 39.5176H42.264C44.0189 39.5176 45.009 38.44 45.2247 37.3624C45.5188 35.8833 44.6463 34.698 43.7346 33.4441C43.362 32.9543 43.0091 32.4351 42.7052 31.8963C42.5091 31.5437 42.3326 31.191 42.1758 30.8286Z" stroke="#192646" stroke-width="0.6" mask="url(#path-1-outside-1_1_1315)"/>
<path d="M42.2248 6.12327C41.3817 6.12327 40.6562 5.76082 39.8817 4.98694C39.2444 4.3502 38.4111 4.16408 37.3817 4.41878C36.8621 4.55592 36.3621 4.77143 35.9112 5.06531C35.6857 5.21224 35.3818 5.14367 35.2347 4.90857C35.0975 4.69306 35.1465 4.40898 35.3524 4.25224C36.4112 3.51755 38.8621 2.57714 40.5679 4.28163C41.3915 5.10449 41.9895 5.29061 42.9601 5.02612C43.4306 4.89878 43.7542 4.58531 44.1071 4.26204C44.46 3.93878 44.8326 3.58612 45.3522 3.4C46.5875 2.95918 47.8619 3.26286 48.8325 4.25224C49.0384 4.42857 49.058 4.74204 48.8717 4.94776C48.6953 5.15347 48.3815 5.17306 48.1757 4.98694C48.1561 4.97714 48.1463 4.95755 48.1266 4.93796C47.4208 4.22286 46.5482 4.00735 45.6757 4.32082C45.3424 4.43837 45.0777 4.69306 44.764 4.97714C44.362 5.34939 43.9012 5.78041 43.2052 5.97633C42.9012 6.06449 42.5679 6.11347 42.2248 6.12327Z" stroke="#192646" stroke-width="0.6" mask="url(#path-1-outside-1_1_1315)"/>
<path d="M42.2248 11.2171C41.3817 11.2171 40.6562 10.8547 39.8817 10.0808C38.3229 8.52326 35.9406 10.1494 35.921 10.169C35.7053 10.3257 35.3916 10.2767 35.2347 10.0612C35.0778 9.84571 35.1269 9.53224 35.3425 9.37551C35.3524 9.37551 35.3524 9.36571 35.3622 9.36571C36.421 8.63102 38.8719 7.69061 40.5778 9.3951C41.4013 10.218 41.9993 10.4041 42.9601 10.1396C43.4306 10.0122 43.7542 9.69878 44.1071 9.37551C44.46 9.05225 44.8326 8.69959 45.3522 8.51347C46.5875 8.07265 47.8619 8.37633 48.8325 9.36571C49.009 9.57143 48.9894 9.8849 48.7835 10.0612C48.5972 10.218 48.3227 10.218 48.1364 10.0514C47.4306 9.33633 46.558 9.12082 45.6855 9.43429C45.3522 9.55184 45.0875 9.80653 44.7738 10.0906C44.3718 10.4629 43.911 10.8939 43.215 11.0898C42.9012 11.1584 42.5679 11.2073 42.2248 11.2171Z" stroke="#192646" stroke-width="0.6" mask="url(#path-1-outside-1_1_1315)"/>
<path d="M42.2248 16.3012C41.3817 16.3012 40.6562 15.9388 39.8817 15.1649C39.2444 14.5282 38.4111 14.342 37.3817 14.5967C36.8621 14.7339 36.3621 14.9494 35.9112 15.2433C35.6857 15.4 35.3818 15.3412 35.2347 15.1159C35.0877 14.8906 35.1367 14.5967 35.3622 14.44C36.421 13.7053 38.8719 12.7649 40.5778 14.4694C41.4013 15.2922 41.9993 15.4784 42.9601 15.2139C43.4306 15.0865 43.7542 14.7731 44.1071 14.4498C44.46 14.1265 44.8326 13.7739 45.3522 13.5878C46.5875 13.1371 47.8619 13.4506 48.8325 14.44C49.009 14.6457 48.9894 14.9592 48.7835 15.1355C48.5972 15.2922 48.3227 15.2922 48.1364 15.1257C47.4306 14.4106 46.558 14.1951 45.6855 14.5086C45.3522 14.6261 45.0875 14.8808 44.7738 15.1649C44.3718 15.5371 43.911 15.9682 43.215 16.1543C42.9012 16.2522 42.5679 16.3012 42.2248 16.3012Z" stroke="#192646" stroke-width="0.6" mask="url(#path-1-outside-1_1_1315)"/>
<path d="M42.2248 21.4931C41.3817 21.4931 40.6562 21.1306 39.8817 20.3567C39.2444 19.72 38.4111 19.5339 37.3817 19.7886C36.8621 19.9257 36.3621 20.1412 35.9112 20.4351C35.6857 20.5918 35.3818 20.5331 35.2347 20.3078C35.0877 20.0824 35.1367 19.7886 35.3622 19.6318C36.421 18.8971 38.8719 17.9567 40.5778 19.6612C41.4013 20.4841 41.9993 20.6702 42.9601 20.4057C43.4306 20.2784 43.7542 19.9649 44.1071 19.6416C44.46 19.3184 44.8326 18.9657 45.3522 18.7796C46.5875 18.329 47.8619 18.6424 48.8325 19.6318C49.009 19.8376 48.9894 20.151 48.7835 20.3273C48.5972 20.4841 48.3227 20.4841 48.1364 20.3176C47.4306 19.6024 46.558 19.3869 45.6855 19.7004C45.3522 19.818 45.0875 20.0727 44.7738 20.3567C44.3718 20.729 43.911 21.16 43.215 21.3461C42.9012 21.4441 42.5679 21.4931 42.2248 21.4931Z" stroke="#192646" stroke-width="0.6" mask="url(#path-1-outside-1_1_1315)"/>
<path d="M42.2248 26.6849C41.3817 26.6849 40.6562 26.3224 39.8817 25.5486C39.2444 24.9118 38.4111 24.7257 37.3817 24.9804C36.8621 25.1176 36.3621 25.3331 35.9112 25.6269C35.6857 25.7837 35.3818 25.7249 35.2347 25.4996C35.0877 25.2743 35.1367 24.9804 35.3622 24.8237C36.421 24.089 38.8719 23.1486 40.5778 24.8531C41.4013 25.6759 41.9993 25.862 42.9601 25.5976C43.4306 25.4702 43.7542 25.1567 44.1071 24.8335C44.46 24.5102 44.8326 24.1576 45.3522 23.9714C46.5875 23.5208 47.8619 23.8343 48.8325 24.8237C49.009 25.0294 48.9894 25.3429 48.7835 25.5192C48.5972 25.6759 48.3227 25.6759 48.1364 25.5094C47.4306 24.7943 46.558 24.5788 45.6855 24.8922C45.3522 25.0098 45.0875 25.2645 44.7738 25.5486C44.3718 25.9208 43.911 26.3518 43.215 26.538C42.9012 26.6359 42.5679 26.6849 42.2248 26.6849Z" stroke="#192646" stroke-width="0.6" mask="url(#path-1-outside-1_1_1315)"/>
<path d="M26.9799 21.4735H7.2744C6.9999 21.4735 6.78421 21.258 6.78421 20.9837C6.78421 20.7094 6.9999 20.4939 7.2744 20.4939H26.9799C27.2545 20.4939 27.4701 20.7094 27.4701 20.9837C27.4701 21.258 27.2545 21.4735 26.9799 21.4735Z" stroke="#192646" stroke-width="0.6" mask="url(#path-1-outside-1_1_1315)"/>
<path d="M26.9799 18.7894H7.2744C6.9999 18.7894 6.78421 18.5739 6.78421 18.2996C6.78421 18.0253 6.9999 17.8098 7.2744 17.8098H26.9799C27.2545 17.8098 27.4701 18.0253 27.4701 18.2996C27.4701 18.5739 27.2545 18.7894 26.9799 18.7894Z" stroke="#192646" stroke-width="0.6" mask="url(#path-1-outside-1_1_1315)"/>
<path d="M26.9799 16.2131H7.2744C6.9999 16.2131 6.78421 15.9976 6.78421 15.7233C6.78421 15.449 6.9999 15.2335 7.2744 15.2335H26.9799C27.2545 15.2335 27.4701 15.449 27.4701 15.7233C27.4701 15.9976 27.2545 16.2131 26.9799 16.2131Z" stroke="#192646" stroke-width="0.6" mask="url(#path-1-outside-1_1_1315)"/>
<path d="M26.9799 13.6367H7.2744C6.9999 13.6367 6.78421 13.4212 6.78421 13.1469C6.78421 12.8727 6.9999 12.6571 7.2744 12.6571H26.9799C27.2545 12.6571 27.4701 12.8727 27.4701 13.1469C27.4701 13.4212 27.2545 13.6367 26.9799 13.6367Z" stroke="#192646" stroke-width="0.6" mask="url(#path-1-outside-1_1_1315)"/>
<path d="M26.9799 11.0604H7.2744C6.9999 11.0604 6.78421 10.8449 6.78421 10.5706C6.78421 10.2963 6.9999 10.0808 7.2744 10.0808H26.9799C27.2545 10.0808 27.4701 10.2963 27.4701 10.5706C27.4701 10.8449 27.2545 11.0604 26.9799 11.0604Z" stroke="#192646" stroke-width="0.6" mask="url(#path-1-outside-1_1_1315)"/>
<path d="M26.9799 8.48408H7.2744C6.9999 8.48408 6.78421 8.26857 6.78421 7.99429C6.78421 7.72 6.9999 7.50449 7.2744 7.50449H26.9799C27.2545 7.50449 27.4701 7.72 27.4701 7.99429C27.4701 8.26857 27.2545 8.48408 26.9799 8.48408Z" stroke="#192646" stroke-width="0.6" mask="url(#path-1-outside-1_1_1315)"/>
<path d="M26.9799 5.8H7.2744C6.9999 5.8 6.78421 5.58449 6.78421 5.3102C6.78421 5.03592 6.9999 4.82041 7.2744 4.82041H26.9799C27.2545 4.82041 27.4701 5.03592 27.4701 5.3102C27.4701 5.58449 27.2545 5.8 26.9799 5.8Z" stroke="#192646" stroke-width="0.6" mask="url(#path-1-outside-1_1_1315)"/>
<path d="M30.4113 25.9796C30.4113 25.7053 30.6269 25.4898 30.9014 25.4898C31.176 25.4898 31.3916 25.7053 31.3916 25.9796C31.3916 26.2539 31.176 26.4694 30.9014 26.4694C30.6269 26.4694 30.4113 26.2539 30.4113 25.9796ZM28.4505 25.9796C28.4505 25.7053 28.6662 25.4898 28.9407 25.4898C29.2152 25.4898 29.4309 25.7053 29.4309 25.9796C29.4309 26.2539 29.2152 26.4694 28.9407 26.4694C28.6662 26.4694 28.4505 26.2539 28.4505 25.9796ZM26.4898 25.9796C26.4898 25.7053 26.7054 25.4898 26.9799 25.4898C27.2545 25.4898 27.4701 25.7053 27.4701 25.9796C27.4701 26.2539 27.2545 26.4694 26.9799 26.4694C26.7054 26.4694 26.4898 26.2539 26.4898 25.9796ZM24.529 25.9796C24.529 25.7053 24.7447 25.4898 25.0192 25.4898C25.2937 25.4898 25.5094 25.7053 25.5094 25.9796C25.5094 26.2539 25.2937 26.4694 25.0192 26.4694C24.7447 26.4694 24.529 26.2539 24.529 25.9796ZM22.5683 25.9796C22.5683 25.7053 22.7839 25.4898 23.0584 25.4898C23.333 25.4898 23.5486 25.7053 23.5486 25.9796C23.5486 26.2539 23.333 26.4694 23.0584 26.4694C22.7839 26.4694 22.5683 26.2539 22.5683 25.9796ZM20.6075 25.9796C20.6075 25.7053 20.8232 25.4898 21.0977 25.4898C21.3722 25.4898 21.5879 25.7053 21.5879 25.9796C21.5879 26.2539 21.3722 26.4694 21.0977 26.4694C20.8232 26.4694 20.6075 26.2539 20.6075 25.9796ZM18.6468 25.9796C18.6468 25.7053 18.8624 25.4898 19.1369 25.4898C19.4114 25.4898 19.6271 25.7053 19.6271 25.9796C19.6271 26.2539 19.4114 26.4694 19.1369 26.4694C18.8624 26.4694 18.6468 26.2539 18.6468 25.9796ZM16.686 25.9796C16.686 25.7053 16.9017 25.4898 17.1762 25.4898C17.4507 25.4898 17.6664 25.7053 17.6664 25.9796C17.6664 26.2539 17.4507 26.4694 17.1762 26.4694C16.9017 26.4694 16.686 26.2539 16.686 25.9796ZM14.7253 25.9796C14.7253 25.7053 14.9409 25.4898 15.2154 25.4898C15.4899 25.4898 15.7056 25.7053 15.7056 25.9796C15.7056 26.2539 15.4899 26.4694 15.2154 26.4694C14.9409 26.4694 14.7253 26.2539 14.7253 25.9796ZM12.7645 25.9796C12.7645 25.7053 12.9802 25.4898 13.2547 25.4898C13.5292 25.4898 13.7449 25.7053 13.7449 25.9796C13.7449 26.2539 13.5292 26.4694 13.2547 26.4694C12.9802 26.4694 12.7645 26.2539 12.7645 25.9796ZM10.8038 25.9796C10.8038 25.7053 11.0194 25.4898 11.2939 25.4898C11.5684 25.4898 11.7841 25.7053 11.7841 25.9796C11.7841 26.2539 11.5684 26.4694 11.2939 26.4694C11.0194 26.4694 10.8038 26.2539 10.8038 25.9796ZM8.843 25.9796C8.843 25.7053 9.05869 25.4898 9.33319 25.4898C9.6077 25.4898 9.82338 25.7053 9.82338 25.9796C9.82338 26.2539 9.6077 26.4694 9.33319 26.4694C9.05869 26.4694 8.843 26.2539 8.843 25.9796ZM6.88225 25.9796C6.88225 25.7053 7.09793 25.4898 7.37244 25.4898C7.64694 25.4898 7.86263 25.7053 7.86263 25.9796C7.86263 26.2539 7.64694 26.4694 7.37244 26.4694C7.09793 26.4694 6.88225 26.2539 6.88225 25.9796ZM4.9215 25.9796C4.9215 25.7053 5.13718 25.4898 5.41169 25.4898C5.68619 25.4898 5.90188 25.7053 5.90188 25.9796C5.90188 26.2539 5.68619 26.4694 5.41169 26.4694C5.13718 26.4694 4.9215 26.2539 4.9215 25.9796ZM2.96075 25.9796C2.96075 25.7053 3.17643 25.4898 3.45094 25.4898C3.72544 25.4898 3.94113 25.7053 3.94113 25.9796C3.94113 26.2539 3.72544 26.4694 3.45094 26.4694C3.17643 26.4694 2.96075 26.2539 2.96075 25.9796ZM1 25.9796C1 25.7053 1.21568 25.4898 1.49019 25.4898C1.76469 25.4898 1.98038 25.7053 1.98038 25.9796C1.98038 26.2539 1.76469 26.4694 1.49019 26.4694C1.21568 26.4694 1 26.2539 1 25.9796Z" stroke="#192646" stroke-width="0.6" mask="url(#path-1-outside-1_1_1315)"/>
</svg>
