<svg width="47" height="47" viewBox="0 0 47 47" fill="none" xmlns="http://www.w3.org/2000/svg">
<path d="M27.4656 47H19.5344C19.1672 47 18.8 46.7062 18.8 46.2656V42.5203C16.8172 42.0063 14.9812 41.2719 13.2922 40.2437L10.575 42.8875C10.2812 43.1813 9.84062 43.1813 9.54688 42.8875L3.96563 37.3062C3.67188 37.0125 3.67188 36.5719 3.96563 36.2781L6.60938 33.6344C5.58125 31.9453 4.77344 30.0359 4.33281 28.1266H0.734375C0.367188 28.1266 0 27.8328 0 27.3922V19.5344C0 19.1672 0.29375 18.8 0.734375 18.8H4.47969C4.92031 16.8906 5.72813 15.0547 6.75625 13.2922L4.1125 10.6484C3.81875 10.3547 3.81875 9.91406 4.1125 9.62031L9.69375 4.03906C9.9875 3.74531 10.4281 3.74531 10.7219 4.03906L13.4391 6.68281C15.1281 5.65469 16.9641 4.84688 18.9469 4.40625V0.734375C18.9469 0.367188 19.2406 0 19.6812 0H27.5391C27.9062 0 28.2734 0.29375 28.2734 0.734375V4.47969C30.2563 4.99375 32.0922 5.72813 33.7812 6.75625L36.425 4.1125C36.7188 3.81875 37.1594 3.81875 37.4531 4.1125L43.0344 9.69375C43.3281 9.9875 43.3281 10.4281 43.0344 10.7219L40.3906 13.3656C41.4188 15.0547 42.2266 16.8906 42.6672 18.8734H46.2656C46.6328 18.8734 47 19.1672 47 19.6078V27.4656C47 27.8328 46.7062 28.2 46.2656 28.2H42.5203C42.0063 30.1828 41.2719 32.0188 40.2437 33.7078L42.8875 36.3516C43.1813 36.6453 43.1813 37.0859 42.8875 37.3797L37.3062 42.9609C37.1594 43.1078 37.0125 43.1812 36.7922 43.1812C36.5719 43.1812 36.425 43.1078 36.2781 42.9609L33.6344 40.3172C31.9453 41.3453 30.1094 42.1531 28.1266 42.5938V46.2656C28.1266 46.7062 27.8328 47 27.4656 47ZM20.2688 45.6047H26.7313V42.0063C26.7313 41.6391 26.9516 41.4188 27.3188 41.2719C29.5219 40.8312 31.5781 39.95 33.4141 38.775C33.7078 38.6281 34.075 38.6281 34.2953 38.8484L36.8656 41.4188L41.4188 36.8656L38.8484 34.2953C38.6281 34.075 38.5547 33.7078 38.775 33.4141C39.95 31.5781 40.8312 29.5219 41.2719 27.3188C41.3453 26.9516 41.6391 26.7313 42.0063 26.7313H45.5312V20.2688H41.9328C41.5656 20.2688 41.3453 20.0484 41.1984 19.6812C40.7578 17.4781 39.8766 15.4219 38.7016 13.5859C38.5547 13.2922 38.5547 12.925 38.775 12.7047L41.3453 10.1344L36.7922 5.58125L34.2219 8.15156C34.0016 8.37188 33.6344 8.44531 33.3406 8.225C31.5047 7.05 29.4484 6.16875 27.2453 5.72813C26.8781 5.65469 26.6578 5.36094 26.6578 5.06719V1.39531H20.1953V4.99375C20.1953 5.36094 19.975 5.58125 19.6078 5.65469C17.4047 6.09531 15.3484 6.97656 13.5125 8.15156C13.2188 8.29844 12.8516 8.29844 12.6313 8.07812L10.0609 5.50781L5.50781 10.0609L8.07812 12.6313C8.29844 12.8516 8.37188 13.2188 8.15156 13.5125C6.90313 15.4219 6.09531 17.4781 5.65469 19.6078C5.58125 19.975 5.2875 20.1953 4.99375 20.1953H1.39531V26.6578H4.99375C5.36094 26.6578 5.65469 26.8781 5.65469 27.2453C6.09531 29.375 6.97656 31.4313 8.15156 33.3406C8.29844 33.6344 8.29844 34.0016 8.07812 34.2219L5.50781 36.7922L10.0609 41.3453L12.6313 38.775C12.8516 38.5547 13.2188 38.4813 13.5125 38.7016C15.3484 39.8766 17.4047 40.7578 19.6078 41.1984C19.975 41.2719 20.1953 41.5656 20.1953 41.9328L20.2688 45.6047Z" fill="#192646"/>
<path d="M23.5 34.5891C17.4047 34.5891 12.4109 29.5953 12.4109 23.5C12.4109 17.4047 17.4047 12.4109 23.5 12.4109C29.5953 12.4109 34.5891 17.4047 34.5891 23.5C34.5891 29.5953 29.5953 34.5891 23.5 34.5891ZM23.5 13.8062C18.2125 13.8062 13.8062 18.1391 13.8062 23.5C13.8062 28.8609 18.2125 33.1938 23.5 33.1938C28.7875 33.1938 33.1938 28.7875 33.1938 23.5C33.1938 18.2125 28.7875 13.8062 23.5 13.8062Z" fill="#192646"/>
</svg>
