<svg width="44" height="44" viewBox="0 0 44 44" fill="none" xmlns="http://www.w3.org/2000/svg">
<path d="M26.8552 37.3943C24.1241 40.6592 20.1034 42.4814 15.931 42.4814C7.96552 42.4814 1.51724 36.0276 1.51724 28.0552C1.51724 13.7049 13.5034 3.60656 15.931 1.70837C17.069 2.6195 20.4069 5.42882 23.5931 9.60483C23.8207 9.90854 24.3517 9.98447 24.6552 9.75669C24.9586 9.5289 25.0345 8.99741 24.8069 8.6937C20.7862 3.30285 16.5379 0.189819 16.3862 0.113891C16.0828 -0.0379638 15.7793 -0.0379638 15.4759 0.113891C14.869 0.569456 0 11.3512 0 28.0552C0 36.8628 7.13103 44 15.931 44C20.5586 44 24.9586 41.95 27.9931 38.4573C28.2966 38.1536 28.2207 37.698 27.9172 37.3943C27.6138 37.0906 27.1586 37.0906 26.8552 37.3943Z" fill="#192646"/>
<path d="M29.5862 11.3512C29.9655 11.3512 30.3448 10.9715 30.3448 10.5919C30.3448 10.2123 29.9655 9.83261 29.5862 9.83261C29.2069 9.83261 28.8276 9.5289 28.8276 9.07334C28.8276 8.6937 29.2069 8.31406 29.5862 8.31406C30.8759 8.31406 31.8621 9.37705 31.8621 10.5919C31.8621 11.8067 30.8759 12.8697 29.5862 12.8697H12.1379C11.7586 12.8697 11.3793 13.2494 11.3793 13.629C11.3793 14.0086 11.7586 14.3883 12.1379 14.3883H29.5862C31.7103 14.3883 33.3793 12.7179 33.3793 10.5919C33.3793 8.46592 31.7103 6.79551 29.5862 6.79551C28.2966 6.79551 27.3103 7.8585 27.3103 9.07334C27.3103 10.2882 28.2966 11.3512 29.5862 11.3512Z" fill="#192646"/>
<path d="M25.0345 22.7403H19.7241C19.3448 22.7403 18.9655 23.1199 18.9655 23.4996C18.9655 23.8792 19.3448 24.2588 19.7241 24.2588H25.0345C27.1586 24.2588 28.8276 22.5884 28.8276 20.4625C28.8276 18.3365 27.1586 16.6661 25.0345 16.6661C23.7448 16.6661 22.7586 17.7291 22.7586 18.9439C22.7586 20.1588 23.7448 21.2217 25.0345 21.2217C25.4138 21.2217 25.7931 20.8421 25.7931 20.4625C25.7931 20.0828 25.4138 19.7032 25.0345 19.7032C24.6552 19.7032 24.2759 19.3236 24.2759 18.9439C24.2759 18.5643 24.6552 18.1846 25.0345 18.1846C26.3241 18.1846 27.3103 19.2476 27.3103 20.4625C27.3103 21.6773 26.3241 22.7403 25.0345 22.7403Z" fill="#192646"/>
<path d="M31.1034 34.1294H16.6897C16.3103 34.1294 15.931 34.5091 15.931 34.8887C15.931 35.2683 16.3103 35.648 16.6897 35.648H31.1034C32.3931 35.648 33.3793 36.635 33.3793 37.9258C33.3793 39.2166 32.3931 40.2036 31.1034 40.2036C30.7241 40.2036 30.3448 39.824 30.3448 39.4443C30.3448 39.0647 30.7241 38.6851 31.1034 38.6851C31.4828 38.6851 31.8621 38.3054 31.8621 37.9258C31.8621 37.5462 31.4828 37.1665 31.1034 37.1665C29.8138 37.1665 28.8276 38.1536 28.8276 39.4443C28.8276 40.7351 29.8138 41.7222 31.1034 41.7222C33.2276 41.7222 34.8966 40.0518 34.8966 37.9258C34.8966 35.7998 33.2276 34.1294 31.1034 34.1294Z" fill="#192646"/>
<path d="M39.4483 30.333H28.8276C28.4483 30.333 28.069 30.7127 28.069 31.0923C28.069 31.472 28.4483 31.8516 28.8276 31.8516H39.4483C40.7379 31.8516 41.7241 32.8387 41.7241 34.1294C41.7241 35.4202 40.7379 36.4072 39.4483 36.4072C39.069 36.4072 38.6897 36.0276 38.6897 35.648C38.6897 35.2683 39.069 34.8887 39.4483 34.8887C39.8276 34.8887 40.2069 34.5091 40.2069 34.1294C40.2069 33.7498 39.8276 33.3701 39.4483 33.3701C38.1586 33.3701 37.1724 34.3572 37.1724 35.648C37.1724 36.9387 38.1586 37.9258 39.4483 37.9258C41.5724 37.9258 43.2414 36.2554 43.2414 34.1294C43.2414 32.0034 41.5724 30.333 39.4483 30.333Z" fill="#192646"/>
<path d="M31.1034 18.1846C31.1034 21.1458 33.4552 23.4996 36.4138 23.4996C38.0828 23.4996 39.4483 22.1329 39.4483 20.4625C39.4483 18.7921 38.0828 17.4254 36.4138 17.4254C36.0345 17.4254 35.6552 17.805 35.6552 18.1846C35.6552 18.5643 36.0345 18.9439 36.4138 18.9439C37.2483 18.9439 37.931 19.6273 37.931 20.4625C37.931 21.2977 37.2483 21.981 36.4138 21.981C34.2897 21.981 32.6207 20.3106 32.6207 18.1846C32.6207 16.0587 34.2897 14.3883 36.4138 14.3883C39.7517 14.3883 42.4828 17.1217 42.4828 20.4625C42.4828 23.8033 39.7517 26.5367 36.4138 26.5367H24.2759C23.8966 26.5367 23.5172 26.9163 23.5172 27.2959C23.5172 27.6756 23.8966 28.0552 24.2759 28.0552H36.4138C40.5862 28.0552 44 24.6385 44 20.4625C44 16.2865 40.5862 12.8697 36.4138 12.8697C33.4552 12.8697 31.1034 15.2235 31.1034 18.1846Z" fill="#192646"/>
<path d="M23.5172 31.8516H26.5517C26.931 31.8516 27.3103 31.472 27.3103 31.0923C27.3103 30.7127 26.931 30.333 26.5517 30.333H23.5172C23.1379 30.333 22.7586 30.7127 22.7586 31.0923C22.7586 31.472 23.1379 31.8516 23.5172 31.8516Z" fill="#192646"/>
<path d="M20.4828 30.333C20.1034 30.333 19.7241 30.7127 19.7241 31.0923C19.7241 31.472 20.1034 31.8516 20.4828 31.8516H21.2414C21.6207 31.8516 22 31.472 22 31.0923C22 30.7127 21.6207 30.333 21.2414 30.333H20.4828Z" fill="#192646"/>
<path d="M17.4483 22.7403H14.4138C14.0345 22.7403 13.6552 23.1199 13.6552 23.4996C13.6552 23.8792 14.0345 24.2588 14.4138 24.2588H17.4483C17.8276 24.2588 18.2069 23.8792 18.2069 23.4996C18.2069 23.1199 17.8276 22.7403 17.4483 22.7403Z" fill="#192646"/>
<path d="M22.7586 27.2959C22.7586 26.9163 22.3793 26.5367 22 26.5367H19.7241C19.3448 26.5367 18.9655 26.9163 18.9655 27.2959C18.9655 27.6756 19.3448 28.0552 19.7241 28.0552H22C22.3793 28.0552 22.7586 27.6756 22.7586 27.2959Z" fill="#192646"/>
<path d="M17.4483 26.5367H9.86207C9.4069 26.5367 9.10345 26.9163 9.10345 27.2959C9.10345 27.6756 9.4069 28.0552 9.86207 28.0552H17.4483C17.8276 28.0552 18.2069 27.6756 18.2069 27.2959C18.2069 26.9163 17.8276 26.5367 17.4483 26.5367Z" fill="#192646"/>
</svg>
