<!-- Generated by IcoMoon.io -->
<svg version="1.1" xmlns="http://www.w3.org/2000/svg" width="1024" height="1024" viewBox="0 0 1024 1024">
<g id="icomoon-ignore">
</g>
<path fill="#000" d="M742.969 591.645c-58.028-32.995-139.948-80.783-166.115-95.574-2.275-18.205-11.379-34.132-25.033-45.511 13.654-27.306 40.96-45.511 71.68-47.786 1.139 0 2.277 0 3.414 0 71.68-6.828 129.706-65.993 134.259-137.673 3.412-43.235-12.515-85.332-43.235-116.052-29.583-30.72-71.68-46.649-114.917-43.236-77.367 5.689-138.807 72.818-138.807 152.462v192.285c-13.654 10.24-23.894 26.169-26.169 44.374-29.583 2.275-59.165-12.515-77.369-38.685 0 0-1.137-1.139-1.137-2.275-42.099-59.165-121.743-79.645-186.597-47.788-38.684 19.343-68.267 53.475-79.644 95.574s-3.413 86.471 20.48 122.88c28.444 42.099 75.093 64.854 124.017 64.854 26.169 0 53.475-6.828 77.369-20.48 36.409-20.48 83.057-47.788 118.329-68.268 20.48-11.377 37.546-21.617 47.786-27.306 7.965 3.414 17.066 5.689 27.306 5.689 9.103 0 17.068-2.275 25.033-4.551 17.066 25.031 19.341 58.026 5.687 86.471 0 1.137-1.137 2.275-1.137 3.412-29.583 64.854-7.965 144.499 52.337 185.459 25.033 17.066 54.614 26.169 84.195 26.169 12.517 0 25.033-1.139 37.548-4.551 42.097-11.379 77.369-39.823 95.572-78.508 32.997-73.955 5.689-160.426-64.852-201.386zM492.659 258.275c0-64.853 48.923-119.466 112.64-124.017 35.271-2.276 69.403 10.24 93.297 35.271 25.031 25.031 37.546 59.165 35.271 93.297-4.551 58.028-51.2 105.814-109.226 111.503h-1.139c-42.097 3.412-77.367 27.306-95.572 63.715-6.828-2.275-12.515-3.414-19.343-3.414-4.551 0-10.24 0-14.791 1.139v-177.494h-1.137zM418.701 574.579c-35.271 20.48-81.92 47.786-118.327 68.266-56.889 32.995-128.57 17.066-163.841-35.271-19.342-29.583-25.031-64.854-15.929-98.988 9.102-34.132 31.858-61.44 63.716-77.367 52.339-25.033 117.191-9.103 150.186 38.683l1.139 1.139c23.894 34.134 62.577 53.475 102.4 51.2 2.275 11.379 7.965 21.619 15.929 30.72-9.103 5.689-21.619 12.515-35.273 21.619zM464.214 506.311c0-23.892 19.341-42.097 42.097-42.097s42.099 19.341 42.099 42.097c0 22.755-19.343 42.099-42.099 42.099s-42.097-19.343-42.097-42.099zM780.515 775.965c-15.929 31.857-43.235 54.614-77.369 63.715-34.132 9.101-69.405 2.275-98.986-17.066-47.786-32.995-65.991-96.713-42.099-150.188l1.139-1.137c18.205-37.548 14.791-80.783-6.826-114.915 7.965-7.965 14.791-18.205 18.205-29.583 34.132 19.343 103.537 59.165 154.737 88.748 55.751 34.132 78.506 103.537 51.2 160.426z"></path>
<path fill="#000" d="M512 0c-282.169 0-512 229.831-512 512s229.831 512 512 512c282.169 0 512-229.831 512-512s-229.831-512-512-512zM512 995.555c-266.24 0-483.556-216.177-483.556-483.555s217.316-483.556 483.556-483.556c266.24 0 483.555 216.177 483.555 483.556s-217.315 483.555-483.555 483.555z"></path>
<path fill="#000" d="M507.449 833.991c-94.435 0-184.32-40.96-246.899-111.501l-21.617 18.205c68.266 77.367 166.115 121.741 268.515 121.741 5.689 0 12.515 0 19.341 0l-1.137-28.445c-6.828 0-12.515 0-18.205 0z"></path>
<path fill="#000" d="M806.685 311.751l-23.894 15.929c34.134 53.475 52.339 114.915 52.339 178.631 0 36.409-5.689 71.68-17.068 105.814l27.308 9.101c12.515-36.407 19.341-75.092 19.341-114.915-1.137-69.405-20.48-136.532-58.026-194.56z"></path>
<path fill="#000" d="M443.734 184.32l-5.689-28.444c-106.951 20.48-199.111 91.023-249.174 187.734l26.169 13.652c45.511-88.746 130.845-153.599 228.694-172.941z"></path>
<path fill="#000" d="M304.925 725.901c51.2 46.649 117.191 75.094 186.595 78.508l1.139-28.445c-62.579-3.414-121.743-28.445-168.393-70.543l-19.341 20.48z"></path>
<path fill="#000" d="M798.72 571.165c4.551-20.48 6.826-43.235 6.826-64.854 0-47.786-11.377-93.297-31.857-135.395l-26.169 13.654c19.341 37.546 29.581 79.645 29.581 121.741 0 20.48-2.275 39.823-6.826 59.165l28.445 5.689z"></path>
<path fill="#000" d="M417.565 220.729c-65.991 20.48-122.88 63.715-160.426 121.741l23.892 15.929c34.134-52.339 85.334-91.021 145.635-110.365l-9.101-27.306z"></path>
<path fill="#000" d="M377.741 674.701l-17.066 22.757c34.134 26.167 75.094 43.235 118.329 47.786l3.414-28.445c-38.685-4.551-73.957-19.341-104.677-42.099z"></path>
<path fill="#000" d="M746.381 537.031c1.139-10.24 2.277-21.617 2.277-31.857 0-32.995-6.828-64.854-19.343-94.435l-26.169 11.377c11.379 26.169 17.068 54.614 17.068 83.059 0 9.101-1.139 18.205-2.275 27.306l28.443 4.551z"></path>
<path fill="#000" d="M314.026 360.675l22.755 17.066c22.757-30.72 53.477-54.612 88.748-68.266l-11.379-26.169c-38.685 15.929-73.955 43.235-100.125 77.369z"></path>
</svg>
