<!-- Generated by IcoMoon.io -->
<svg version="1.1" xmlns="http://www.w3.org/2000/svg" width="1024" height="1024" viewBox="0 0 1024 1024">
<g id="icomoon-ignore">
</g>
<path fill="#000" d="M194.262 75.656c0.724-13.399 13.367-26.685-15.271-30.186-13.119-1.603-38.467-0.071-52.952-0.127-38.175-0.15-62.701 8.449-74.259 35.818-8.609 20.385-43.671 328.66-50.195 378.057-14.847 112.402 78.541 84.137 120.125 89.259 0 55.553-0.564 90.531 60.498 90.531h662.869c46.014 0 59.556-32.481 54.367-74.776l-26.747 1.342c-9.541 22.899 6.963 42.744-31.128 42.744h-655.854c-32.794 0-34.897-6.609-30.691-59.185 247.553 0 495.107 0 742.659 0 28.875 0 63.99 4.226 89.611-5.861 66.162-26.046 30.036-127.939 18.289-222.737-6.721-54.233-13.709-109.598-20.628-164.411-7.082-56.103-7.725-110.715-73.242-110.715l-680.625 5.431 0.22 20.871c29.429 16.218 661.839-1.636 693.425 7.396 23.145 6.617 21.367 28.534 24.336 52.611 5.643 45.769 11.511 91.856 17.164 136.918 5.765 45.952 11.377 91.883 17.151 137.259 5.673 44.575 29.299 111.236-26.075 111.236h-876.811c-70.535 0-47.326-45.731-38.937-113.124l35.802-286.759c3.843-32.441 6.508-39.532 41.545-39.971 24.816-0.311 52.45 1.684 75.355-1.619z"></path>
<path fill="#000" d="M231.309 306.695c22.879 12.608 420.744 5.594 508.552 5.703 17.307 0.022 52.234 6.968 55.157-13.919 3.536-25.276-36.398-18.119-55.159-18.087-85.715 0.143-488.303-5.48-508.772 5.436l0.222 20.868z"></path>
<path fill="#000" d="M792.898 169.476c18.944-27.54-31.685-24.631-46.017-24.565-78.385 0.362-505.326-6.46-514.211 5.735-21.41 29.383 30.919 26.354 47.736 26.291l220.96-0.008c32.471 0 281.918 6.523 291.532-7.452z"></path>
<path fill="#000" d="M771.423 447.861c31.337 0 35.188-32.003 0-32.003h-515.564c-15.7 0-14.627 0.309-25.603 5.962l1.928 20.562c6.455 3.434 13.371 5.478 23.675 5.478h515.564z"></path>
<path fill="#000" d="M453.784 690.753c-25.853-5.685-22.757-2.105-30.315 17.997-4.849 12.897-14.205 17.911-17.905 34.828-9.927 45.383 35.129 44.927 13.296 76.273-8.678 12.459-14.933 16.922-14.544 37.13 0.478 24.833 8.362 22.247 16.221 35.357 15.411 25.706-33.811 54.268-10.203 76.781 16.916 16.129 24.779-5.895 28.403-16.911 5.39-16.381 13.939-14.924 18.051-34.458 9.741-46.287-35.523-43.292-13.326-76.621 8.403-12.617 14.908-15.305 14.402-36.589-0.507-21.312-8.375-25.007-15.633-36.127-19.085-29.236 26.787-29.402 11.552-77.659z"></path>
<path fill="#000" d="M265.176 860.401c1.732-25.454 39.756-46.654 9.679-85.722-31.414-40.806 24.449-32.115 6.429-83.063-27.387-8.244-23.105-0.356-31.031 19.397-5.833 14.539-15.946 15.514-18.036 37.958-4.277 45.958 38.892 36.221 9.835 76.59-27.829 38.662 8.099 64.052 9.876 77.677 2.273 17.448-11.796 17.477-17.241 37.855-4.857 18.172-2.953 26.841 14.157 32.088 16.506-5.081 12.401-8.949 18.688-23.818 4.4-10.403 12.247-15.181 15.716-26.88 10.355-34.929-10.465-42.609-18.072-62.082z"></path>
<path fill="#000" d="M627.627 692.054c-22.963-7.98-22.747-3.267-29.86 15.952-5.678 15.343-13.924 15.954-18.044 34.505-9.992 45.008 32.993 46.985 13.82 76.651-27.087 41.913-16.058 46.426 1.175 74.385 10.497 17.032-0.442 23.331-7.56 35.073-22.185 36.609 9.459 69.4 25.421 25.235 5.629-15.575 14.442-17.652 18.059-34.583 10-46.815-33.644-47.737-13.832-76.419 8.358-12.099 15.492-17.488 15.043-38.566-0.505-23.676-8.897-24.33-16.586-37.096-17.657-29.32 27.452-27.83 12.362-75.139z"></path>
<path fill="#000" d="M778.001 971.757c9.055-11.832 4.927-13.453 11.98-26.26 19.737-35.842 26.913-30.227-0.011-75.856-13.702-23.22 8.097-28.128 14.264-50.241 8.595-30.821-8.592-38.19-15.9-53.472-10.623-22.215 11.826-26.097 16.171-51.253 4.641-26.861-21.796-38.253-31-13.946-8.058 21.282-21.284 31.741-21.079 54.476 0.282 31.549 17.757 23.542 20.414 52.588-1.332 11.173-40.72 39.388-7.88 80.164 27.032 33.563-24.154 32.162-8.511 83.119l21.551 0.68z"></path>
<path fill="#000" d="M132.243 399.216c32.123-12.132 46.452 37.244 16.771 46.024-33.669 9.961-45.399-35.213-16.771-46.024zM197.002 436.027c8.049-32.012-13.985-62.030-40.789-68.822-35.87-9.088-63.964 12.408-70.552 38.819-19.771 79.249 93.705 100.138 111.341 30.004z"></path>
</svg>
