<!-- Generated by IcoMoon.io -->
<svg version="1.1" xmlns="http://www.w3.org/2000/svg" width="1024" height="1024" viewBox="0 0 1024 1024">
<g id="icomoon-ignore">
</g>
<path fill="#000" d="M505.945 56.889c-5.896 1.168-10.615 5.842-10.615 11.684v116.845c0 7.011 4.72 11.684 11.794 11.684 7.077 0 11.794-4.674 11.794-11.684v-116.845c0-7.011-4.717-11.684-11.794-11.684h-1.179zM305.455 103.627c-5.898 1.168-11.794 5.842-10.615 12.853 0 2.337 1.179 4.674 2.36 7.010l58.966 70.107c4.717 4.674 11.794 5.842 16.511 1.169s5.896-11.685 1.179-16.359l-58.966-70.107c-1.181-3.505-5.898-5.842-9.434-4.674zM706.435 103.627c-3.538 0-5.896 2.337-8.256 4.674l-58.966 70.107c-4.717 4.674-3.538 12.853 1.179 16.359s12.973 3.505 16.511-1.169l58.966-70.107c4.717-4.674 3.538-11.684-1.179-16.358-1.179-3.505-4.717-4.674-8.256-3.505zM58.968 313.947c-33.022 0-58.968 25.707-58.968 58.423v280.428c0 32.718 25.946 58.423 58.968 58.423h896.313c33.021 0 58.966-25.705 58.966-58.423v-280.428c0-32.716-25.946-58.423-58.966-58.423h-896.313zM58.968 337.317h224.077v350.533h-224.077c-20.049 0-35.381-15.189-35.381-35.053v-280.428c0-19.863 15.332-35.053 35.381-35.053zM306.633 337.317h400.98v350.533h-400.98v-350.533zM731.202 337.317h224.079c20.048 0 35.38 15.189 35.38 35.053v280.428c0 19.863-15.333 35.053-35.38 35.053h-224.079v-350.533zM507.123 419.107c-12.973 0-23.586 10.518-23.586 23.37v46.738h-47.175c-12.973 0-23.588 10.515-23.588 23.37 0 12.852 10.615 23.368 23.588 23.368h47.175v46.738c0 12.855 10.613 23.37 23.586 23.37s23.588-10.515 23.588-23.37v-46.738h47.172c12.973 0 23.588-10.515 23.588-23.368 0-12.855-10.615-23.37-23.588-23.37h-47.172v-46.738c0-12.852-10.615-23.37-23.588-23.37zM364.421 826.896c-3.538 0-5.896 2.337-8.256 4.674l-58.966 70.108c-4.717 4.674-3.538 12.852 1.179 16.359 4.717 4.672 12.973 3.504 16.511-1.17l58.966-70.108c4.717-4.672 3.538-11.683-1.179-16.357-1.179-2.337-4.717-3.507-8.256-3.507zM505.945 826.896c-5.896 1.17-10.615 5.844-10.615 11.685v116.845c0 7.011 4.72 11.685 11.794 11.685 7.077 0 11.794-4.674 11.794-11.685v-116.845c0-7.011-4.717-11.685-11.794-11.685h-1.179zM647.468 826.896c-5.898 1.17-11.794 5.844-10.615 12.855 0 2.337 1.179 4.672 2.36 7.009l58.966 70.108c4.717 4.674 11.794 5.841 16.511 1.17 4.717-4.674 5.896-11.685 1.179-16.359l-58.966-70.108c-1.181-3.504-5.898-4.674-9.434-4.674z"></path>
</svg>
