<!-- Generated by IcoMoon.io -->
<svg version="1.1" xmlns="http://www.w3.org/2000/svg" width="1024" height="1024" viewBox="0 0 1024 1024">
<g id="icomoon-ignore">
</g>
<path fill="#000" d="M124.602 993.040h774.796v-216.719c0-9.288 6.199-15.481 15.497-15.481 9.296 0 15.495 6.193 15.495 15.481v216.719h77.48c9.298 0 15.495 6.191 15.495 15.479 0 9.29-6.197 15.481-15.495 15.481h-991.739c-9.298 0-15.496-6.191-15.496-15.481 0-9.288 6.198-15.479 15.496-15.479h77.48v-216.719c0-9.288 6.198-15.481 15.496-15.481s15.496 6.193 15.496 15.481v216.719zM350.843 621.521l-82.129-82.043c-6.197-6.193-6.197-15.481 0-21.674 6.199-6.191 15.495-6.191 21.694 0l108.47 108.36c6.199 6.193 6.199 15.481 0 21.674l-108.47 108.36c-6.199 6.191-15.495 6.191-21.694 0-6.197-6.193-6.197-15.481 0-21.674l82.129-82.043h-334.712c-9.298 0-15.496-6.191-15.496-15.479 0-9.29 6.198-15.481 15.496-15.481h334.712zM1007.87 621.521c9.298 0 15.495 6.191 15.495 15.481 0 9.288-6.197 15.479-15.495 15.479h-334.713l82.129 82.043c6.197 6.193 6.197 15.481 0 21.674-6.199 6.191-15.495 6.191-21.694 0l-108.47-108.36c-6.199-6.193-6.199-15.481 0-21.674l108.47-108.36c6.199-6.191 15.495-6.191 21.694 0 6.197 6.193 6.197 15.481 0 21.674l-82.129 82.043h334.713zM899.398 253.098l-387.398-218.268-387.398 218.268v244.582c0 9.288-6.198 15.481-15.496 15.481s-15.496-6.193-15.496-15.481v-227.555l-69.732 38.701c-7.748 4.643-17.045 1.548-21.694-6.193-4.649-7.739-1.55-17.027 6.198-21.672l495.87-278.639c4.649-3.096 10.846-3.096 15.495 0l495.87 278.639c7.748 4.645 10.846 13.933 6.197 21.672-4.647 7.741-13.945 10.836-21.692 6.193l-69.732-38.701v227.555c0 9.288-6.199 15.481-15.495 15.481-9.298 0-15.497-6.193-15.497-15.481v-244.582z"></path>
</svg>
