<svg width="39" height="43" viewBox="0 0 39 43" fill="none" xmlns="http://www.w3.org/2000/svg">
<path d="M19.5 4.03125C8.74138 4.03125 0 12.7656 0 23.5156C0 34.2656 8.74138 43 19.5 43C30.2586 43 39 34.2656 39 23.5156C39 12.7656 30.2586 4.03125 19.5 4.03125ZM37.6552 24.1875C37.319 33.6609 29.6534 41.3203 20.1724 41.6562V39.6406H18.8276V41.6562C9.34655 41.3203 1.68103 33.6609 1.34483 24.1875H3.36207V22.8438H1.34483C1.68103 13.3703 9.34655 5.71094 18.8276 5.375V7.39062H20.1724V5.375C29.6534 5.71094 37.319 13.3703 37.6552 22.8438H35.6379V24.1875H37.6552Z" fill="#192646"/>
<path d="M30.06 33.1087L29.1091 34.0588L31.011 35.9592L31.9619 35.009L30.06 33.1087Z" fill="#192646"/>
<path d="M7.98822 11.0714L7.03729 12.0215L8.93915 13.9219L9.89008 12.9717L7.98822 11.0714Z" fill="#192646"/>
<path d="M8.94754 33.117L7.04569 35.0174L7.99661 35.9675L9.89847 34.0672L8.94754 33.117Z" fill="#192646"/>
<path d="M31.0025 11.063L29.1007 12.9633L30.0516 13.9135L31.9534 12.0131L31.0025 11.063Z" fill="#192646"/>
<path d="M20.1724 1.34375H23.5345V0H15.4655V1.34375H18.8276V4.03125H19.5H20.1724V1.34375Z" fill="#192646"/>
<path d="M20.1724 20.8953V14.1094H18.8276V20.8953C17.6845 21.1641 16.8103 22.2391 16.8103 23.5156C16.8103 24.9937 18.0207 26.2031 19.5 26.2031C20.9793 26.2031 22.1897 24.9937 22.1897 23.5156C22.1897 22.2391 21.3155 21.2313 20.1724 20.8953ZM19.5 24.8594C18.7603 24.8594 18.1552 24.2547 18.1552 23.5156C18.1552 22.7766 18.7603 22.1719 19.5 22.1719C20.2397 22.1719 20.8448 22.7766 20.8448 23.5156C20.8448 24.2547 20.2397 24.8594 19.5 24.8594Z" fill="#192646"/>
</svg>
