<svg width="56" height="45" viewBox="0 0 56 45" fill="none" xmlns="http://www.w3.org/2000/svg">
<mask id="path-1-outside-1_52_478" maskUnits="userSpaceOnUse" x="0" y="0" width="56" height="45" fill="black">
<rect fill="white" width="56" height="45"/>
<path d="M26.9031 38.3537C21.1656 43.8315 12.1375 43.6629 6.65312 37.9324C4.12187 35.2357 2.6875 31.6962 2.6875 27.9882C2.6875 15.0103 14.4156 4.98187 17.0312 2.95933C19.3094 4.81333 29.0125 12.9878 31.0375 23.9432C31.1219 24.3645 31.5437 24.7016 32.05 24.6173C32.4719 24.5331 32.8094 24.1117 32.725 23.6061C30.2781 10.5438 18.0438 1.5267 17.5375 1.18961C17.2 0.936796 16.8625 0.936796 16.525 1.18961C15.9344 1.61098 1 12.6507 1 27.9882C1 36.8368 8.17188 44 17.0312 44C21.1656 44 25.1312 42.3988 28.0844 39.5336C28.4219 39.1965 28.4219 38.6908 28.0844 38.3537C27.8312 38.0167 27.325 38.0167 26.9031 38.3537Z"/>
<path d="M28.2531 26.5556C27.9156 26.8927 27.9156 27.3983 28.2531 27.7354C28.5906 28.0725 29.0969 28.0725 29.4344 27.7354C30.025 27.1455 31.0375 27.1455 31.6281 27.7354C32.8937 28.9995 34.9188 28.9995 36.1844 27.7354C36.775 27.1455 37.7875 27.1455 38.3781 27.7354C39.6437 28.9995 41.6688 28.9995 42.9344 27.7354C43.525 27.1455 44.5375 27.1455 45.1281 27.7354C46.3937 28.9995 48.4188 28.9995 49.6844 27.7354C50.0219 27.3983 50.0219 26.8927 49.6844 26.5556C49.3469 26.2185 48.8406 26.2185 48.5031 26.5556C47.9125 27.1455 46.9 27.1455 46.3094 26.5556C45.0438 25.2915 43.0187 25.2915 41.7531 26.5556C41.1625 27.1455 40.15 27.1455 39.5594 26.5556C38.2938 25.2915 36.2687 25.2915 35.0031 26.5556C34.4125 27.1455 33.4 27.1455 32.8094 26.5556C31.5438 25.2915 29.5187 25.2915 28.2531 26.5556Z"/>
<path d="M34.4969 36.1627C35.0875 35.5728 36.1 35.5728 36.6906 36.1627C37.9562 37.4268 39.9813 37.4268 41.2469 36.1627C41.5844 35.8256 41.5844 35.3199 41.2469 34.9829C40.9094 34.6458 40.4031 34.6458 40.0656 34.9829C39.475 35.5728 38.4625 35.5728 37.8719 34.9829C36.6063 33.7188 34.5812 33.7188 33.3156 34.9829C32.725 35.5728 31.7125 35.5728 31.1219 34.9829C29.8563 33.7188 27.8312 33.7188 26.5656 34.9829C25.975 35.5728 24.9625 35.5728 24.3719 34.9829C23.1063 33.7188 21.0812 33.7188 19.8156 34.9829C19.4781 35.3199 19.4781 35.8256 19.8156 36.1627C20.1531 36.4998 20.6594 36.4998 20.9969 36.1627C21.5875 35.5728 22.6 35.5728 23.1906 36.1627C24.4562 37.4268 26.4813 37.4268 27.7469 36.1627C28.3375 35.5728 29.35 35.5728 29.9406 36.1627C31.2062 37.4268 33.2313 37.4268 34.4969 36.1627Z"/>
<path d="M54.7469 17.2856C54.4094 16.9486 53.9031 16.9486 53.5656 17.2856C53.4813 17.4542 53.3125 17.4542 53.1437 17.3699L53.0594 17.2856C52.3 16.5272 50.95 16.5272 50.1906 17.2856C50.0219 17.4542 49.8531 17.4542 49.6844 17.2856C48.925 16.5272 47.575 16.5272 46.8156 17.2856C46.6469 17.4542 46.4781 17.4542 46.3094 17.2856C45.55 16.5272 44.2 16.5272 43.4406 17.2856C43.3563 17.4542 43.1875 17.4542 43.0187 17.3699L42.9344 17.2856C42.175 16.5272 40.825 16.5272 40.0656 17.2856C39.7281 17.6227 39.7281 18.1284 40.0656 18.4655C40.4031 18.8025 40.9094 18.8025 41.2469 18.4655C41.3312 18.2969 41.5 18.2969 41.6688 18.3812L41.7531 18.4655C42.5125 19.2239 43.8625 19.2239 44.6219 18.4655C44.7906 18.2969 44.9594 18.2969 45.1281 18.4655C45.8875 19.2239 47.2375 19.2239 47.9969 18.4655C48.1656 18.2969 48.3344 18.2969 48.5031 18.4655C49.2625 19.2239 50.6125 19.2239 51.3719 18.4655C51.4562 18.2969 51.625 18.2969 51.7938 18.3812L51.8781 18.4655C52.6375 19.2239 53.9875 19.2239 54.7469 18.4655C55.0844 18.1284 55.0844 17.6227 54.7469 17.2856Z"/>
<path d="M48.5031 41.7246C48.4188 41.8932 48.25 41.8932 48.0812 41.8089L47.9969 41.7246C47.2375 40.9662 45.8875 40.9662 45.1281 41.7246C45.0438 41.8932 44.875 41.8932 44.7062 41.8089L44.6219 41.7246C43.8625 40.9662 42.5125 40.9662 41.7531 41.7246C41.5844 41.8932 41.4156 41.8932 41.2469 41.7246C40.4875 40.9662 39.1375 40.9662 38.3781 41.7246C38.2094 41.8932 38.0406 41.8932 37.8719 41.7246C37.1125 40.9662 35.7625 40.9662 35.0031 41.7246C34.9188 41.8932 34.75 41.8932 34.5812 41.8089L34.4969 41.7246C33.7375 40.9662 32.3875 40.9662 31.6281 41.7246C31.2906 42.0617 31.2906 42.5674 31.6281 42.9045C31.9656 43.2416 32.4719 43.2416 32.8094 42.9045C32.8938 42.7359 33.0625 42.7359 33.2313 42.8202L33.3156 42.9045C34.075 43.6629 35.425 43.6629 36.1844 42.9045C36.2687 42.7359 36.4375 42.7359 36.6063 42.8202L36.6906 42.9045C37.45 43.6629 38.8 43.6629 39.5594 42.9045C39.7281 42.7359 39.8969 42.7359 40.0656 42.9045C40.825 43.6629 42.175 43.6629 42.9344 42.9045C43.1031 42.7359 43.2719 42.7359 43.4406 42.9045C44.2 43.6629 45.55 43.6629 46.3094 42.9045C46.3937 42.7359 46.5625 42.7359 46.7313 42.8202L46.8156 42.9045C47.575 43.6629 48.925 43.6629 49.6844 42.9045C50.0219 42.5674 50.0219 42.0617 49.6844 41.7246C49.3469 41.3876 48.8406 41.3876 48.5031 41.7246Z"/>
<path d="M52.7219 30.7692C52.6375 30.9378 52.4688 30.9378 52.3 30.8535L52.2156 30.7692C51.4562 30.0108 50.1063 30.0108 49.3469 30.7692C49.1781 30.9378 49.0094 30.9378 48.8406 30.7692C48.0812 30.0108 46.7313 30.0108 45.9719 30.7692C45.8031 30.9378 45.6344 30.9378 45.4656 30.7692C44.7062 30.0108 43.3563 30.0108 42.5969 30.7692C42.5125 30.9378 42.3438 30.9378 42.175 30.8535L42.0906 30.7692C41.3312 30.0108 39.9813 30.0108 39.2219 30.7692C38.8844 31.1063 38.8844 31.612 39.2219 31.949C39.5594 32.2861 40.0656 32.2861 40.4031 31.949C40.4875 31.7805 40.6562 31.7805 40.825 31.8648L40.9094 31.949C41.6688 32.7075 43.0187 32.7075 43.7781 31.949C43.9469 31.7805 44.1156 31.7805 44.2844 31.949C45.0438 32.7075 46.3937 32.7075 47.1531 31.949C47.3219 31.7805 47.4906 31.7805 47.6594 31.949C48.4188 32.7075 49.7687 32.7075 50.5281 31.949C50.6125 31.7805 50.7812 31.7805 50.95 31.8648L51.0344 31.949C51.7938 32.7075 53.1437 32.7075 53.9031 31.949C54.2406 31.612 54.2406 31.1063 53.9031 30.7692C53.5656 30.4321 53.0594 30.4321 52.7219 30.7692Z"/>
</mask>
<path d="M26.9031 38.3537C21.1656 43.8315 12.1375 43.6629 6.65312 37.9324C4.12187 35.2357 2.6875 31.6962 2.6875 27.9882C2.6875 15.0103 14.4156 4.98187 17.0312 2.95933C19.3094 4.81333 29.0125 12.9878 31.0375 23.9432C31.1219 24.3645 31.5437 24.7016 32.05 24.6173C32.4719 24.5331 32.8094 24.1117 32.725 23.6061C30.2781 10.5438 18.0438 1.5267 17.5375 1.18961C17.2 0.936796 16.8625 0.936796 16.525 1.18961C15.9344 1.61098 1 12.6507 1 27.9882C1 36.8368 8.17188 44 17.0312 44C21.1656 44 25.1312 42.3988 28.0844 39.5336C28.4219 39.1965 28.4219 38.6908 28.0844 38.3537C27.8312 38.0167 27.325 38.0167 26.9031 38.3537Z" fill="#192646"/>
<path d="M28.2531 26.5556C27.9156 26.8927 27.9156 27.3983 28.2531 27.7354C28.5906 28.0725 29.0969 28.0725 29.4344 27.7354C30.025 27.1455 31.0375 27.1455 31.6281 27.7354C32.8937 28.9995 34.9188 28.9995 36.1844 27.7354C36.775 27.1455 37.7875 27.1455 38.3781 27.7354C39.6437 28.9995 41.6688 28.9995 42.9344 27.7354C43.525 27.1455 44.5375 27.1455 45.1281 27.7354C46.3937 28.9995 48.4188 28.9995 49.6844 27.7354C50.0219 27.3983 50.0219 26.8927 49.6844 26.5556C49.3469 26.2185 48.8406 26.2185 48.5031 26.5556C47.9125 27.1455 46.9 27.1455 46.3094 26.5556C45.0438 25.2915 43.0187 25.2915 41.7531 26.5556C41.1625 27.1455 40.15 27.1455 39.5594 26.5556C38.2938 25.2915 36.2687 25.2915 35.0031 26.5556C34.4125 27.1455 33.4 27.1455 32.8094 26.5556C31.5438 25.2915 29.5187 25.2915 28.2531 26.5556Z" fill="#192646"/>
<path d="M34.4969 36.1627C35.0875 35.5728 36.1 35.5728 36.6906 36.1627C37.9562 37.4268 39.9813 37.4268 41.2469 36.1627C41.5844 35.8256 41.5844 35.3199 41.2469 34.9829C40.9094 34.6458 40.4031 34.6458 40.0656 34.9829C39.475 35.5728 38.4625 35.5728 37.8719 34.9829C36.6063 33.7188 34.5812 33.7188 33.3156 34.9829C32.725 35.5728 31.7125 35.5728 31.1219 34.9829C29.8563 33.7188 27.8312 33.7188 26.5656 34.9829C25.975 35.5728 24.9625 35.5728 24.3719 34.9829C23.1063 33.7188 21.0812 33.7188 19.8156 34.9829C19.4781 35.3199 19.4781 35.8256 19.8156 36.1627C20.1531 36.4998 20.6594 36.4998 20.9969 36.1627C21.5875 35.5728 22.6 35.5728 23.1906 36.1627C24.4562 37.4268 26.4813 37.4268 27.7469 36.1627C28.3375 35.5728 29.35 35.5728 29.9406 36.1627C31.2062 37.4268 33.2313 37.4268 34.4969 36.1627Z" fill="#192646"/>
<path d="M54.7469 17.2856C54.4094 16.9486 53.9031 16.9486 53.5656 17.2856C53.4813 17.4542 53.3125 17.4542 53.1437 17.3699L53.0594 17.2856C52.3 16.5272 50.95 16.5272 50.1906 17.2856C50.0219 17.4542 49.8531 17.4542 49.6844 17.2856C48.925 16.5272 47.575 16.5272 46.8156 17.2856C46.6469 17.4542 46.4781 17.4542 46.3094 17.2856C45.55 16.5272 44.2 16.5272 43.4406 17.2856C43.3563 17.4542 43.1875 17.4542 43.0187 17.3699L42.9344 17.2856C42.175 16.5272 40.825 16.5272 40.0656 17.2856C39.7281 17.6227 39.7281 18.1284 40.0656 18.4655C40.4031 18.8025 40.9094 18.8025 41.2469 18.4655C41.3312 18.2969 41.5 18.2969 41.6688 18.3812L41.7531 18.4655C42.5125 19.2239 43.8625 19.2239 44.6219 18.4655C44.7906 18.2969 44.9594 18.2969 45.1281 18.4655C45.8875 19.2239 47.2375 19.2239 47.9969 18.4655C48.1656 18.2969 48.3344 18.2969 48.5031 18.4655C49.2625 19.2239 50.6125 19.2239 51.3719 18.4655C51.4562 18.2969 51.625 18.2969 51.7938 18.3812L51.8781 18.4655C52.6375 19.2239 53.9875 19.2239 54.7469 18.4655C55.0844 18.1284 55.0844 17.6227 54.7469 17.2856Z" fill="#192646"/>
<path d="M48.5031 41.7246C48.4188 41.8932 48.25 41.8932 48.0812 41.8089L47.9969 41.7246C47.2375 40.9662 45.8875 40.9662 45.1281 41.7246C45.0438 41.8932 44.875 41.8932 44.7062 41.8089L44.6219 41.7246C43.8625 40.9662 42.5125 40.9662 41.7531 41.7246C41.5844 41.8932 41.4156 41.8932 41.2469 41.7246C40.4875 40.9662 39.1375 40.9662 38.3781 41.7246C38.2094 41.8932 38.0406 41.8932 37.8719 41.7246C37.1125 40.9662 35.7625 40.9662 35.0031 41.7246C34.9188 41.8932 34.75 41.8932 34.5812 41.8089L34.4969 41.7246C33.7375 40.9662 32.3875 40.9662 31.6281 41.7246C31.2906 42.0617 31.2906 42.5674 31.6281 42.9045C31.9656 43.2416 32.4719 43.2416 32.8094 42.9045C32.8938 42.7359 33.0625 42.7359 33.2313 42.8202L33.3156 42.9045C34.075 43.6629 35.425 43.6629 36.1844 42.9045C36.2687 42.7359 36.4375 42.7359 36.6063 42.8202L36.6906 42.9045C37.45 43.6629 38.8 43.6629 39.5594 42.9045C39.7281 42.7359 39.8969 42.7359 40.0656 42.9045C40.825 43.6629 42.175 43.6629 42.9344 42.9045C43.1031 42.7359 43.2719 42.7359 43.4406 42.9045C44.2 43.6629 45.55 43.6629 46.3094 42.9045C46.3937 42.7359 46.5625 42.7359 46.7313 42.8202L46.8156 42.9045C47.575 43.6629 48.925 43.6629 49.6844 42.9045C50.0219 42.5674 50.0219 42.0617 49.6844 41.7246C49.3469 41.3876 48.8406 41.3876 48.5031 41.7246Z" fill="#192646"/>
<path d="M52.7219 30.7692C52.6375 30.9378 52.4688 30.9378 52.3 30.8535L52.2156 30.7692C51.4562 30.0108 50.1063 30.0108 49.3469 30.7692C49.1781 30.9378 49.0094 30.9378 48.8406 30.7692C48.0812 30.0108 46.7313 30.0108 45.9719 30.7692C45.8031 30.9378 45.6344 30.9378 45.4656 30.7692C44.7062 30.0108 43.3563 30.0108 42.5969 30.7692C42.5125 30.9378 42.3438 30.9378 42.175 30.8535L42.0906 30.7692C41.3312 30.0108 39.9813 30.0108 39.2219 30.7692C38.8844 31.1063 38.8844 31.612 39.2219 31.949C39.5594 32.2861 40.0656 32.2861 40.4031 31.949C40.4875 31.7805 40.6562 31.7805 40.825 31.8648L40.9094 31.949C41.6688 32.7075 43.0187 32.7075 43.7781 31.949C43.9469 31.7805 44.1156 31.7805 44.2844 31.949C45.0438 32.7075 46.3937 32.7075 47.1531 31.949C47.3219 31.7805 47.4906 31.7805 47.6594 31.949C48.4188 32.7075 49.7687 32.7075 50.5281 31.949C50.6125 31.7805 50.7812 31.7805 50.95 31.8648L51.0344 31.949C51.7938 32.7075 53.1437 32.7075 53.9031 31.949C54.2406 31.612 54.2406 31.1063 53.9031 30.7692C53.5656 30.4321 53.0594 30.4321 52.7219 30.7692Z" fill="#192646"/>
<path d="M26.9031 38.3537C21.1656 43.8315 12.1375 43.6629 6.65312 37.9324C4.12187 35.2357 2.6875 31.6962 2.6875 27.9882C2.6875 15.0103 14.4156 4.98187 17.0312 2.95933C19.3094 4.81333 29.0125 12.9878 31.0375 23.9432C31.1219 24.3645 31.5437 24.7016 32.05 24.6173C32.4719 24.5331 32.8094 24.1117 32.725 23.6061C30.2781 10.5438 18.0438 1.5267 17.5375 1.18961C17.2 0.936796 16.8625 0.936796 16.525 1.18961C15.9344 1.61098 1 12.6507 1 27.9882C1 36.8368 8.17188 44 17.0312 44C21.1656 44 25.1312 42.3988 28.0844 39.5336C28.4219 39.1965 28.4219 38.6908 28.0844 38.3537C27.8312 38.0167 27.325 38.0167 26.9031 38.3537Z" stroke="#192646" stroke-width="0.2" mask="url(#path-1-outside-1_52_478)"/>
<path d="M28.2531 26.5556C27.9156 26.8927 27.9156 27.3983 28.2531 27.7354C28.5906 28.0725 29.0969 28.0725 29.4344 27.7354C30.025 27.1455 31.0375 27.1455 31.6281 27.7354C32.8937 28.9995 34.9188 28.9995 36.1844 27.7354C36.775 27.1455 37.7875 27.1455 38.3781 27.7354C39.6437 28.9995 41.6688 28.9995 42.9344 27.7354C43.525 27.1455 44.5375 27.1455 45.1281 27.7354C46.3937 28.9995 48.4188 28.9995 49.6844 27.7354C50.0219 27.3983 50.0219 26.8927 49.6844 26.5556C49.3469 26.2185 48.8406 26.2185 48.5031 26.5556C47.9125 27.1455 46.9 27.1455 46.3094 26.5556C45.0438 25.2915 43.0187 25.2915 41.7531 26.5556C41.1625 27.1455 40.15 27.1455 39.5594 26.5556C38.2938 25.2915 36.2687 25.2915 35.0031 26.5556C34.4125 27.1455 33.4 27.1455 32.8094 26.5556C31.5438 25.2915 29.5187 25.2915 28.2531 26.5556Z" stroke="#192646" stroke-width="0.2" mask="url(#path-1-outside-1_52_478)"/>
<path d="M34.4969 36.1627C35.0875 35.5728 36.1 35.5728 36.6906 36.1627C37.9562 37.4268 39.9813 37.4268 41.2469 36.1627C41.5844 35.8256 41.5844 35.3199 41.2469 34.9829C40.9094 34.6458 40.4031 34.6458 40.0656 34.9829C39.475 35.5728 38.4625 35.5728 37.8719 34.9829C36.6063 33.7188 34.5812 33.7188 33.3156 34.9829C32.725 35.5728 31.7125 35.5728 31.1219 34.9829C29.8563 33.7188 27.8312 33.7188 26.5656 34.9829C25.975 35.5728 24.9625 35.5728 24.3719 34.9829C23.1063 33.7188 21.0812 33.7188 19.8156 34.9829C19.4781 35.3199 19.4781 35.8256 19.8156 36.1627C20.1531 36.4998 20.6594 36.4998 20.9969 36.1627C21.5875 35.5728 22.6 35.5728 23.1906 36.1627C24.4562 37.4268 26.4813 37.4268 27.7469 36.1627C28.3375 35.5728 29.35 35.5728 29.9406 36.1627C31.2062 37.4268 33.2313 37.4268 34.4969 36.1627Z" stroke="#192646" stroke-width="0.2" mask="url(#path-1-outside-1_52_478)"/>
<path d="M54.7469 17.2856C54.4094 16.9486 53.9031 16.9486 53.5656 17.2856C53.4813 17.4542 53.3125 17.4542 53.1437 17.3699L53.0594 17.2856C52.3 16.5272 50.95 16.5272 50.1906 17.2856C50.0219 17.4542 49.8531 17.4542 49.6844 17.2856C48.925 16.5272 47.575 16.5272 46.8156 17.2856C46.6469 17.4542 46.4781 17.4542 46.3094 17.2856C45.55 16.5272 44.2 16.5272 43.4406 17.2856C43.3563 17.4542 43.1875 17.4542 43.0187 17.3699L42.9344 17.2856C42.175 16.5272 40.825 16.5272 40.0656 17.2856C39.7281 17.6227 39.7281 18.1284 40.0656 18.4655C40.4031 18.8025 40.9094 18.8025 41.2469 18.4655C41.3312 18.2969 41.5 18.2969 41.6688 18.3812L41.7531 18.4655C42.5125 19.2239 43.8625 19.2239 44.6219 18.4655C44.7906 18.2969 44.9594 18.2969 45.1281 18.4655C45.8875 19.2239 47.2375 19.2239 47.9969 18.4655C48.1656 18.2969 48.3344 18.2969 48.5031 18.4655C49.2625 19.2239 50.6125 19.2239 51.3719 18.4655C51.4562 18.2969 51.625 18.2969 51.7938 18.3812L51.8781 18.4655C52.6375 19.2239 53.9875 19.2239 54.7469 18.4655C55.0844 18.1284 55.0844 17.6227 54.7469 17.2856Z" stroke="#192646" stroke-width="0.2" mask="url(#path-1-outside-1_52_478)"/>
<path d="M48.5031 41.7246C48.4188 41.8932 48.25 41.8932 48.0812 41.8089L47.9969 41.7246C47.2375 40.9662 45.8875 40.9662 45.1281 41.7246C45.0438 41.8932 44.875 41.8932 44.7062 41.8089L44.6219 41.7246C43.8625 40.9662 42.5125 40.9662 41.7531 41.7246C41.5844 41.8932 41.4156 41.8932 41.2469 41.7246C40.4875 40.9662 39.1375 40.9662 38.3781 41.7246C38.2094 41.8932 38.0406 41.8932 37.8719 41.7246C37.1125 40.9662 35.7625 40.9662 35.0031 41.7246C34.9188 41.8932 34.75 41.8932 34.5812 41.8089L34.4969 41.7246C33.7375 40.9662 32.3875 40.9662 31.6281 41.7246C31.2906 42.0617 31.2906 42.5674 31.6281 42.9045C31.9656 43.2416 32.4719 43.2416 32.8094 42.9045C32.8938 42.7359 33.0625 42.7359 33.2313 42.8202L33.3156 42.9045C34.075 43.6629 35.425 43.6629 36.1844 42.9045C36.2687 42.7359 36.4375 42.7359 36.6063 42.8202L36.6906 42.9045C37.45 43.6629 38.8 43.6629 39.5594 42.9045C39.7281 42.7359 39.8969 42.7359 40.0656 42.9045C40.825 43.6629 42.175 43.6629 42.9344 42.9045C43.1031 42.7359 43.2719 42.7359 43.4406 42.9045C44.2 43.6629 45.55 43.6629 46.3094 42.9045C46.3937 42.7359 46.5625 42.7359 46.7313 42.8202L46.8156 42.9045C47.575 43.6629 48.925 43.6629 49.6844 42.9045C50.0219 42.5674 50.0219 42.0617 49.6844 41.7246C49.3469 41.3876 48.8406 41.3876 48.5031 41.7246Z" stroke="#192646" stroke-width="0.2" mask="url(#path-1-outside-1_52_478)"/>
<path d="M52.7219 30.7692C52.6375 30.9378 52.4688 30.9378 52.3 30.8535L52.2156 30.7692C51.4562 30.0108 50.1063 30.0108 49.3469 30.7692C49.1781 30.9378 49.0094 30.9378 48.8406 30.7692C48.0812 30.0108 46.7313 30.0108 45.9719 30.7692C45.8031 30.9378 45.6344 30.9378 45.4656 30.7692C44.7062 30.0108 43.3563 30.0108 42.5969 30.7692C42.5125 30.9378 42.3438 30.9378 42.175 30.8535L42.0906 30.7692C41.3312 30.0108 39.9813 30.0108 39.2219 30.7692C38.8844 31.1063 38.8844 31.612 39.2219 31.949C39.5594 32.2861 40.0656 32.2861 40.4031 31.949C40.4875 31.7805 40.6562 31.7805 40.825 31.8648L40.9094 31.949C41.6688 32.7075 43.0187 32.7075 43.7781 31.949C43.9469 31.7805 44.1156 31.7805 44.2844 31.949C45.0438 32.7075 46.3937 32.7075 47.1531 31.949C47.3219 31.7805 47.4906 31.7805 47.6594 31.949C48.4188 32.7075 49.7687 32.7075 50.5281 31.949C50.6125 31.7805 50.7812 31.7805 50.95 31.8648L51.0344 31.949C51.7938 32.7075 53.1437 32.7075 53.9031 31.949C54.2406 31.612 54.2406 31.1063 53.9031 30.7692C53.5656 30.4321 53.0594 30.4321 52.7219 30.7692Z" stroke="#192646" stroke-width="0.2" mask="url(#path-1-outside-1_52_478)"/>
</svg>
