<svg width="52" height="46" viewBox="0 0 52 46" fill="none" xmlns="http://www.w3.org/2000/svg">
<path d="M1 1V0.25C0.585786 0.25 0.25 0.585786 0.25 1L1 1ZM51 1H51.75C51.75 0.585786 51.4142 0.25 51 0.25V1ZM51 37.4773V38.2273C51.4142 38.2273 51.75 37.8915 51.75 37.4773H51ZM1 37.4773H0.25C0.25 37.8915 0.585786 38.2273 1 38.2273L1 37.4773ZM22.6154 8.2213L22.9193 7.53564L22.6154 8.2213ZM12.8448 30.2301L13.1488 29.5445L12.8448 30.2301ZM31.1448 32.4139V33.1639H31.1822L31.2193 33.1601L31.1448 32.4139ZM36.1086 4.77173V4.02173C35.6944 4.02173 35.3586 4.35752 35.3586 4.77173H36.1086ZM48.3113 4.77173H49.0613C49.0613 4.35752 48.7255 4.02173 48.3113 4.02173V4.77173ZM48.3113 18.1536V18.9036C48.7255 18.9036 49.0613 18.5678 49.0613 18.1536H48.3113ZM36.1086 18.1536H35.3586C35.3586 18.5678 35.6944 18.9036 36.1086 18.9036V18.1536ZM11.8583 37.4773H12.6083V36.7273H11.8583V37.4773ZM6.99793 37.4773V36.7273H6.24793V37.4773H6.99793ZM4.72285 40.9907V40.2407H3.97285V40.9907H4.72285ZM4.72285 44.4524H3.97285V45.2024H4.72285V44.4524ZM14.1334 44.4524V45.2024H14.8834V44.4524H14.1334ZM14.1334 40.9907H14.8834V40.2407H14.1334V40.9907ZM40.1417 37.4773V36.7273H39.3917V37.4773H40.1417ZM45.0021 37.4773H45.7521V36.7273H45.0021V37.4773ZM47.2771 40.9907H48.0271V40.2407H47.2771V40.9907ZM47.2771 44.4524V45.2024H48.0271V44.4524H47.2771ZM37.8666 44.4524H37.1166V45.2024H37.8666V44.4524ZM37.8666 40.9907V40.2407H37.1166V40.9907H37.8666ZM1 1.75H51V0.25H1V1.75ZM50.25 1V37.4773H51.75V1H50.25ZM51 36.7273H1V38.2273H51V36.7273ZM1.75 37.4773V1H0.25V37.4773H1.75ZM22.3115 8.90696C28.0151 11.4352 30.5871 18.1045 28.0573 23.803L29.4283 24.4117C32.2946 17.955 29.38 10.3995 22.9193 7.53564L22.3115 8.90696ZM28.0573 23.803C25.5274 29.5018 18.8527 32.0729 13.1488 29.5445L12.5409 30.9158C19.0012 33.7795 26.5621 30.868 29.4283 24.4117L28.0573 23.803ZM13.1488 29.5445C7.44511 27.0162 4.87312 20.3469 7.40291 14.6484L6.03194 14.0398C3.16559 20.4964 6.08025 28.052 12.5409 30.9158L13.1488 29.5445ZM7.40291 14.6484C9.93284 8.9496 16.6075 6.37856 22.3115 8.90696L22.9193 7.53564C16.459 4.67195 8.89816 7.58345 6.03194 14.0398L7.40291 14.6484ZM4.90357 4.77173C4.90357 4.89986 4.80048 5.00341 4.67115 5.00341V6.50341C5.57594 6.50341 6.40357 5.78028 6.40357 4.77173H4.90357ZM4.67115 5.00341C4.60656 5.00341 4.52456 4.97457 4.4617 4.91804C4.40459 4.86668 4.38702 4.81604 4.38702 4.77173H2.88702C2.88702 5.82716 3.81671 6.50341 4.67115 6.50341V5.00341ZM4.38702 4.77173C4.38702 4.6436 4.49011 4.54005 4.61944 4.54005V3.04005C3.71465 3.04005 2.88702 3.76318 2.88702 4.77173H4.38702ZM4.61944 4.54005C4.68403 4.54005 4.76603 4.56888 4.82889 4.62542C4.886 4.67678 4.90357 4.72742 4.90357 4.77173H6.40357C6.40357 3.7163 5.47388 3.04005 4.61944 3.04005V4.54005ZM31.3772 4.77173C31.3772 4.89986 31.2741 5.00341 31.1448 5.00341V6.50341C32.0496 6.50341 32.8772 5.78028 32.8772 4.77173H31.3772ZM31.1448 5.00341C31.0152 5.00341 30.9124 4.89959 30.9124 4.77173H29.4124C29.4124 5.67721 30.1368 6.50341 31.1448 6.50341V5.00341ZM30.9124 4.77173C30.9124 4.64359 31.0154 4.54005 31.1448 4.54005V3.04005C30.24 3.04005 29.4124 3.76318 29.4124 4.77173H30.9124ZM31.1448 4.54005C31.2741 4.54005 31.3772 4.6436 31.3772 4.77173H32.8772C32.8772 3.76318 32.0496 3.04005 31.1448 3.04005V4.54005ZM4.90357 33.3955C4.90357 33.523 4.80004 33.6272 4.67115 33.6272V35.1272C5.62741 35.1272 6.40357 34.3524 6.40357 33.3955H4.90357ZM4.67115 33.6272C4.54226 33.6272 4.43873 33.523 4.43873 33.3955H2.93873C2.93873 34.3524 3.71489 35.1272 4.67115 35.1272V33.6272ZM4.43873 33.3955C4.43873 33.2681 4.54225 33.1639 4.67115 33.1639V31.6639C3.71489 31.6639 2.93873 32.4386 2.93873 33.3955H4.43873ZM4.67115 33.1639C4.80004 33.1639 4.90357 33.2681 4.90357 33.3955H6.40357C6.40357 32.4386 5.6274 31.6639 4.67115 31.6639V33.1639ZM31.3772 33.3955C31.3772 33.5237 31.2741 33.6272 31.1448 33.6272V35.1272C32.0496 35.1272 32.8772 34.4041 32.8772 33.3955H31.3772ZM31.1448 33.6272C31.0152 33.6272 30.9124 33.5234 30.9124 33.3955H29.4124C29.4124 34.301 30.1368 35.1272 31.1448 35.1272V33.6272ZM30.9124 33.3955C30.9124 33.2674 31.0154 33.1639 31.1448 33.1639V31.6639C30.24 31.6639 29.4124 32.387 29.4124 33.3955H30.9124ZM31.2193 33.1601C31.2243 33.1596 31.2553 33.1583 31.2998 33.2027C31.3445 33.2474 31.3772 33.3167 31.3772 33.3955H32.8772C32.8772 32.4588 32.1004 31.5646 31.0702 31.6676L31.2193 33.1601ZM36.1086 5.52173H48.3113V4.02173H36.1086V5.52173ZM47.5613 4.77173V18.1536H49.0613V4.77173H47.5613ZM48.3113 17.4036H36.1086V18.9036H48.3113V17.4036ZM36.8586 18.1536V4.77173H35.3586V18.1536H36.8586ZM45.726 8.72511H48.3113V7.22511H45.726V8.72511ZM36.1086 8.72511H44.6401V7.22511H36.1086V8.72511ZM36.1086 12.2385H48.3113V10.7385H36.1086V12.2385ZM39.5729 15.7002H48.3113V14.2002H39.5729V15.7002ZM36.1086 15.7002H38.4871V14.2002H36.1086V15.7002ZM38.2547 33.6022V21.1503H36.7547V33.6022H38.2547ZM42.8048 33.6022V21.1503H41.3048V33.6022H42.8048ZM47.4067 30.0371V21.1503H45.9067V30.0371H47.4067ZM47.4067 33.6022V31.2772H45.9067V33.6022H47.4067ZM12.6083 40.9907V37.4773H11.1083V40.9907H12.6083ZM11.8583 36.7273H6.99793V38.2273H11.8583V36.7273ZM6.24793 37.4773V40.9907H7.74793V37.4773H6.24793ZM6.99793 40.2407H4.72285V41.7407H6.99793V40.2407ZM3.97285 40.9907V44.4524H5.47285V40.9907H3.97285ZM4.72285 45.2024H14.1334V43.7024H4.72285V45.2024ZM14.8834 44.4524V40.9907H13.3834V44.4524H14.8834ZM14.1334 40.2407H11.8583V41.7407H14.1334V40.2407ZM40.8917 40.9907V37.4773H39.3917V40.9907H40.8917ZM40.1417 38.2273H45.0021V36.7273H40.1417V38.2273ZM44.2521 37.4773V40.9907H45.7521V37.4773H44.2521ZM45.0021 41.7407H47.2771V40.2407H45.0021V41.7407ZM46.5271 40.9907V44.4524H48.0271V40.9907H46.5271ZM47.2771 43.7024H37.8666V45.2024H47.2771V43.7024ZM38.6166 44.4524V40.9907H37.1166V44.4524H38.6166ZM37.8666 41.7407H40.1417V40.2407H37.8666V41.7407ZM6.99793 41.7407H11.8583V40.2407H6.99793V41.7407ZM45.0021 40.2407H40.1417V41.7407H45.0021V40.2407Z" fill="#192646"/>
</svg>
