<!-- Generated by IcoMoon.io -->
<svg version="1.1" xmlns="http://www.w3.org/2000/svg" width="32" height="32" viewBox="0 0 32 32">
<path d="M31.51 13.050h-22.641c-0.212 0-0.424-0.212-0.424-0.425s0.212-0.425 0.424-0.425h22.641c0.212 0 0.424 0.212 0.424 0.425s-0.159 0.425-0.424 0.425z"></path>
<path d="M3.142 13.050h-2.704c-0.212 0-0.424-0.212-0.424-0.425v-2.601c0-0.212 0.212-0.425 0.424-0.425h26.353c0.212 0 0.424 0.212 0.424 0.425s-0.212 0.425-0.424 0.425h-25.929v1.751h2.28c0.212 0 0.424 0.212 0.424 0.425s-0.212 0.425-0.424 0.425z"></path>
<path d="M17.617 17.136c-0.636 0-1.273-0.212-1.909-0.902-1.007-1.061-1.962-0.637-3.394 0.106-1.273 0.637-2.863 1.433-4.401-0.106-1.008-1.061-1.962-0.637-3.394 0.106-1.273 0.637-2.863 1.433-4.401-0.106-0.159-0.159-0.159-0.425 0-0.584s0.424-0.159 0.583 0c1.007 1.061 1.962 0.637 3.394-0.106 1.273-0.637 2.863-1.433 4.401 0.106 1.008 1.061 1.962 0.637 3.394-0.106 1.273-0.637 2.863-1.433 4.401 0.106 1.007 1.061 1.962 0.637 3.394-0.106 1.273-0.637 2.863-1.433 4.401 0.106 1.008 1.061 1.962 0.637 3.394-0.106 1.273-0.637 2.863-1.433 4.401 0.106 0.159 0.159 0.159 0.425 0 0.584s-0.424 0.159-0.583 0c-1.007-1.061-1.962-0.637-3.394 0.106-1.273 0.637-2.863 1.433-4.401-0.106-1.008-1.061-1.962-0.637-3.394 0.106-0.795 0.318-1.644 0.796-2.492 0.796z"></path>
<path d="M17.617 19.684c-0.636 0-1.273-0.212-1.909-0.902-1.007-1.061-1.962-0.637-3.394 0.106-1.273 0.637-2.863 1.433-4.401-0.106-1.008-1.061-1.962-0.637-3.394 0.106-1.273 0.637-2.863 1.433-4.401-0.106-0.159-0.159-0.159-0.425 0-0.584s0.424-0.159 0.583 0c1.007 1.061 1.962 0.637 3.394-0.106 1.273-0.637 2.863-1.433 4.401 0.106 1.008 1.061 1.962 0.637 3.394-0.106 1.273-0.637 2.863-1.433 4.401 0.106 1.007 1.061 1.962 0.637 3.394-0.106 1.273-0.637 2.863-1.433 4.401 0.106 1.008 1.061 1.962 0.637 3.394-0.106 1.273-0.637 2.863-1.433 4.401 0.106 0.159 0.159 0.159 0.425 0 0.584s-0.424 0.159-0.583 0c-1.007-1.061-1.962-0.637-3.394 0.106-1.273 0.637-2.863 1.433-4.401-0.106-1.008-1.061-1.962-0.637-3.394 0.106-0.795 0.372-1.644 0.796-2.492 0.796z"></path>
<path d="M17.617 22.232c-0.636 0-1.273-0.212-1.909-0.902-1.007-1.061-1.962-0.637-3.394 0.106-1.273 0.637-2.863 1.433-4.401-0.106-1.008-1.061-1.962-0.637-3.394 0.106-1.273 0.637-2.863 1.433-4.401-0.106-0.159-0.159-0.159-0.425 0-0.584s0.424-0.159 0.583 0c1.007 1.061 1.962 0.637 3.394-0.106 1.273-0.637 2.863-1.433 4.401 0.106 1.008 1.061 1.962 0.637 3.394-0.106 1.273-0.637 2.863-1.433 4.401 0.106 1.007 1.061 1.962 0.637 3.394-0.106 1.273-0.637 2.863-1.433 4.401 0.106 1.008 1.061 1.962 0.637 3.394-0.106 1.273-0.637 2.863-1.433 4.401 0.106 0.159 0.159 0.159 0.425 0 0.584s-0.424 0.159-0.583 0c-1.007-1.061-1.962-0.637-3.394 0.106-1.273 0.637-2.863 1.433-4.401-0.106-1.008-1.061-1.962-0.637-3.394 0.106-0.795 0.372-1.644 0.796-2.492 0.796z"></path>
</svg>
