<!-- Generated by IcoMoon.io -->
<svg version="1.1" xmlns="http://www.w3.org/2000/svg" width="32" height="32" viewBox="0 0 32 32">
<path d="M16.142 11.022c-0.213 0.284-0.782 1.138-1.351 2.133-0.284 0.498-0.569 0.996-0.711 1.493-0.213 0.498-0.356 0.996-0.356 1.422 0 1.707 1.422 3.058 3.129 3.058s3.129-1.422 3.129-3.058c0-0.427-0.142-0.924-0.356-1.422s-0.427-0.996-0.711-1.493c-0.569-0.996-1.138-1.849-1.351-2.133-0.142-0.213-0.427-0.356-0.711-0.356s-0.498 0.071-0.711 0.356zM15.431 13.796c0.427-0.853 0.996-1.707 1.422-2.276 0.427 0.569 0.996 1.422 1.422 2.276 0.213 0.427 0.427 0.853 0.569 1.209s0.213 0.711 0.213 0.996c0 1.209-0.996 2.204-2.204 2.204s-2.204-0.996-2.204-2.204c0-0.284 0.071-0.569 0.213-0.996 0.142-0.356 0.356-0.782 0.569-1.209zM10.951 18.631c-0.142 0.213-0.64 0.924-1.067 1.707-0.213 0.427-0.427 0.853-0.569 1.209-0.142 0.427-0.284 0.782-0.284 1.138 0 1.422 1.138 2.56 2.56 2.56s2.56-1.138 2.56-2.56c0-0.356-0.142-0.711-0.284-1.138s-0.356-0.853-0.569-1.209-0.924-1.493-1.067-1.707c-0.142-0.213-0.356-0.284-0.569-0.284-0.284 0-0.569 0.071-0.711 0.284zM10.453 20.978c0.356-0.64 0.782-1.351 1.138-1.778 0.356 0.498 0.782 1.138 1.138 1.778 0.213 0.356 0.356 0.711 0.427 0.996 0.142 0.284 0.213 0.569 0.213 0.782 0 0.996-0.782 1.778-1.778 1.778-0.924 0-1.778-0.782-1.778-1.778 0-0.213 0.071-0.498 0.213-0.782 0.071-0.356 0.213-0.64 0.427-0.996zM20.409 19.2c-0.284 0.427-1.209 1.707-2.062 3.129-0.427 0.711-0.782 1.493-1.067 2.204s-0.498 1.422-0.498 2.062c0 2.489 2.062 4.48 4.622 4.48s4.622-2.062 4.622-4.48c0-0.569-0.213-1.28-0.498-2.062-0.284-0.711-0.711-1.493-1.067-2.204-0.853-1.422-1.707-2.702-2.062-3.129-0.213-0.356-0.64-0.498-0.996-0.498s-0.782 0.213-0.996 0.498zM21.333 19.84c0.711 0.853 1.564 2.133 2.276 3.413 0.356 0.64 0.64 1.28 0.853 1.849s0.356 1.067 0.356 1.493c0 1.849-1.564 3.342-3.413 3.342-1.92 0-3.413-1.493-3.413-3.342 0-0.356 0.142-0.924 0.356-1.493s0.498-1.209 0.853-1.849 1.493-2.56 2.133-3.413zM22.756 7.182c0.356-0.142 0.711-0.142 1.067-0.142 2.133 0 3.84 1.707 3.84 3.911 0 0.356-0.071 0.711-0.142 1.067 0 0.142 0 0.284 0.071 0.427s0.142 0.213 0.284 0.284c1.493 0.498 2.489 1.92 2.489 3.484 0 1.991-1.636 3.698-3.627 3.698-0.142 0-0.284 0.071-0.427 0.142-0.071 0.071-0.142 0.213-0.142 0.427s0.071 0.284 0.142 0.427c0.071 0.071 0.213 0.142 0.427 0.142 2.631 0 4.764-2.133 4.764-4.764 0-1.92-1.067-3.556-2.773-4.338 0.071-0.284 0.071-0.569 0.071-0.924 0-2.773-2.204-5.049-4.978-5.049-0.284 0-0.569 0-0.853 0.071-1.564-3.2-4.622-5.12-8.036-5.12s-6.471 1.991-7.964 5.12c-3.627 0.498-6.471 3.698-6.471 7.467 0 3.484 2.347 6.542 5.689 7.324 0.356 0.142 0.64-0.142 0.711-0.427 0-0.142 0-0.284-0.071-0.427s-0.213-0.213-0.356-0.284c-2.844-0.64-4.836-3.271-4.836-6.258 0-3.271 2.56-6.116 5.76-6.4 0.213 0 0.427-0.213 0.427-0.356 1.209-2.844 3.982-4.693 7.111-4.693s5.902 1.92 7.111 4.836c0.142 0.356 0.427 0.427 0.711 0.356zM17.92 15.573c-0.284 0-0.427 0.213-0.427 0.427 0 0.356-0.284 0.64-0.64 0.64-0.284 0-0.427 0.213-0.427 0.427 0 0.284 0.213 0.427 0.427 0.427 0.853 0 1.564-0.711 1.564-1.564 0-0.142-0.213-0.356-0.498-0.356zM12.444 22.329c-0.213 0-0.427 0.142-0.427 0.427s-0.213 0.498-0.498 0.498c-0.213 0-0.427 0.142-0.427 0.427 0 0.213 0.142 0.427 0.427 0.427 0.711 0 1.28-0.569 1.28-1.28 0.071-0.284-0.142-0.498-0.356-0.498zM23.040 26.027c-0.356 0-0.569 0.213-0.569 0.569 0 0.569-0.498 1.067-1.067 1.067-0.356 0-0.569 0.213-0.569 0.569s0.284 0.569 0.569 0.569c1.209 0 2.276-0.996 2.276-2.204-0.071-0.284-0.284-0.569-0.64-0.569z"></path>
<path d="M21.404 31.289c-2.631 0-4.764-2.062-4.764-4.693 0-0.569 0.142-1.28 0.498-2.133 0.284-0.64 0.64-1.422 1.138-2.276 0.782-1.351 1.636-2.631 2.062-3.129l0.142 0.071-0.142-0.142c0.284-0.356 0.711-0.569 1.138-0.569s0.853 0.213 1.138 0.569c0.142 0.142 1.138 1.493 2.062 3.129 0.498 0.853 0.853 1.564 1.138 2.276 0.356 0.853 0.498 1.564 0.498 2.133-0.142 2.631-2.276 4.764-4.907 4.764zM21.404 18.916c-0.356 0-0.64 0.142-0.853 0.427-0.356 0.498-1.28 1.778-1.991 3.129-0.498 0.782-0.853 1.564-1.067 2.204-0.284 0.782-0.498 1.422-0.498 1.991 0 2.347 1.991 4.338 4.409 4.338s4.409-1.991 4.409-4.338c0-0.498-0.142-1.209-0.498-1.991-0.284-0.64-0.64-1.422-1.067-2.204-0.924-1.636-1.92-2.987-1.991-3.129-0.213-0.284-0.498-0.427-0.853-0.427zM21.404 30.080c-1.991 0-3.627-1.564-3.627-3.556 0-0.427 0.142-0.924 0.356-1.564 0.213-0.569 0.498-1.209 0.853-1.849 0.64-1.138 1.422-2.418 2.204-3.413l0.071-0.071h0.284l0.071 0.071c0.356 0.498 1.351 1.92 2.204 3.484 0.356 0.711 0.64 1.351 0.853 1.849 0.213 0.64 0.356 1.138 0.356 1.493 0 1.991-1.636 3.556-3.627 3.556zM21.404 20.124c-0.711 0.996-1.493 2.204-2.062 3.271-0.356 0.711-0.64 1.28-0.853 1.849s-0.356 1.067-0.356 1.422c0 1.778 1.493 3.2 3.271 3.2s3.271-1.422 3.271-3.2c0-0.356-0.142-0.853-0.356-1.422-0.213-0.498-0.498-1.138-0.853-1.849-0.782-1.422-1.636-2.702-2.062-3.271zM21.404 29.013c-0.427 0-0.782-0.356-0.782-0.782s0.356-0.782 0.782-0.782c0.498 0 0.924-0.356 0.924-0.853 0-0.427 0.356-0.782 0.782-0.782s0.782 0.356 0.782 0.782c-0.071 1.351-1.209 2.418-2.489 2.418zM23.040 26.24c-0.213 0-0.427 0.142-0.427 0.427 0 0.711-0.569 1.209-1.28 1.209-0.213 0-0.427 0.142-0.427 0.427 0 0.213 0.142 0.427 0.427 0.427 1.138 0 2.062-0.924 2.062-1.991 0.071-0.356-0.142-0.498-0.356-0.498zM11.591 25.458c-1.493 0-2.702-1.209-2.702-2.702 0-0.356 0.071-0.711 0.284-1.209 0.142-0.356 0.356-0.782 0.569-1.28 0.498-0.924 1.067-1.636 1.067-1.707 0.142-0.213 0.427-0.356 0.711-0.356s0.569 0.142 0.711 0.356c0.071 0.142 0.64 0.853 1.067 1.707 0.284 0.427 0.427 0.853 0.569 1.28 0.213 0.498 0.284 0.853 0.284 1.209 0.142 1.493-1.067 2.702-2.56 2.702zM11.093 18.773c-0.142 0.142-0.569 0.853-1.067 1.707-0.213 0.427-0.427 0.853-0.569 1.209-0.142 0.427-0.284 0.782-0.284 1.067 0 1.28 1.067 2.347 2.347 2.347s2.347-1.067 2.347-2.347c0-0.284-0.071-0.64-0.284-1.067-0.142-0.356-0.356-0.782-0.569-1.209-0.427-0.924-0.924-1.636-0.996-1.707-0.213-0.284-0.711-0.284-0.924 0zM11.591 24.676c-1.067 0-1.92-0.853-1.92-1.92 0-0.213 0.071-0.498 0.213-0.853 0.142-0.284 0.284-0.64 0.498-0.996 0.427-0.853 0.924-1.564 1.138-1.778l0.142-0.213 0.142 0.213c0.213 0.284 0.711 0.996 1.138 1.849 0.213 0.356 0.356 0.711 0.498 0.996 0.142 0.356 0.213 0.64 0.213 0.853-0.142 0.996-0.996 1.849-2.062 1.849zM11.591 19.484c-0.356 0.498-0.711 1.067-0.924 1.564-0.213 0.356-0.356 0.711-0.427 0.996-0.142 0.284-0.142 0.569-0.142 0.711 0 0.853 0.711 1.564 1.564 1.564s1.564-0.711 1.564-1.564c0-0.142-0.071-0.427-0.142-0.711s-0.284-0.64-0.427-0.996c-0.498-0.64-0.853-1.209-1.067-1.564zM11.591 24.178c-0.356 0-0.569-0.284-0.569-0.569s0.284-0.569 0.569-0.569c0.142 0 0.284-0.142 0.284-0.284 0-0.356 0.284-0.569 0.569-0.569s0.569 0.284 0.569 0.569c0 0.782-0.64 1.422-1.422 1.422zM12.444 22.542c-0.142 0-0.213 0.071-0.213 0.213 0 0.356-0.284 0.64-0.64 0.64-0.142 0-0.213 0.071-0.213 0.213s0.071 0.213 0.213 0.213c0.64 0 1.067-0.498 1.067-1.138 0-0.071-0.071-0.142-0.213-0.142zM26.738 21.12c-0.213 0-0.427-0.071-0.498-0.213-0.142-0.142-0.213-0.356-0.213-0.498s0.071-0.427 0.213-0.498c0.142-0.142 0.356-0.213 0.498-0.213 1.92 0 3.413-1.564 3.413-3.484 0-1.493-0.924-2.844-2.347-3.342-0.142-0.071-0.356-0.142-0.427-0.356-0.071-0.142-0.071-0.356-0.071-0.498 0.071-0.284 0.142-0.64 0.142-1.067 0-2.062-1.636-3.698-3.698-3.698-0.427 0-0.711 0.071-0.996 0.142h-0.071c-0.356 0.071-0.711-0.142-0.853-0.427-1.138-2.844-3.911-4.764-6.969-4.764-2.987 0-5.689 1.778-6.898 4.551-0.071 0.213-0.284 0.427-0.64 0.427-3.129 0.284-5.618 3.058-5.618 6.187 0 2.916 1.92 5.404 4.764 6.044 0.213 0.071 0.356 0.142 0.427 0.356 0.071 0.142 0.142 0.356 0.071 0.498-0.071 0.213-0.142 0.356-0.356 0.498 0 0.213-0.213 0.213-0.427 0.142-3.413-0.782-5.831-3.911-5.831-7.467 0-3.84 2.773-7.111 6.542-7.609 1.493-3.129 4.622-5.12 8.036-5.12s6.542 1.92 8.107 5.049c0.213-0.071 0.498-0.071 0.782-0.071 2.844 0 5.12 2.347 5.12 5.191 0 0.284 0 0.569-0.071 0.782 1.707 0.853 2.773 2.56 2.773 4.48 0 2.773-2.204 4.978-4.907 4.978zM23.822 6.898c2.204 0 4.053 1.849 4.053 4.053 0 0.427-0.071 0.782-0.142 1.138 0 0.071 0 0.213 0 0.284s0.071 0.142 0.213 0.142c1.564 0.569 2.631 1.991 2.631 3.627 0 2.133-1.707 3.84-3.769 3.84-0.142 0-0.213 0.071-0.284 0.071-0.071 0.071-0.071 0.213-0.071 0.284s0 0.213 0.071 0.284c0.071 0.071 0.213 0.071 0.284 0.071 2.489 0 4.551-2.062 4.551-4.622 0-1.849-0.996-3.413-2.702-4.196l-0.142-0.071v-0.142c0.071-0.284 0.071-0.569 0.071-0.853 0-2.702-2.133-4.836-4.764-4.836-0.284 0-0.569 0-0.782 0.071h-0.213c-1.564-3.058-4.551-4.978-7.893-4.978-3.271 0-6.329 1.991-7.751 4.978l-0.071 0.071h-0.071c-3.627 0.498-6.329 3.627-6.329 7.324 0 3.413 2.276 6.4 5.547 7.182 0.142 0.071 0.213 0 0.284 0 0.071-0.071 0.142-0.142 0.142-0.213s0-0.213-0.071-0.284c0-0.071-0.071-0.142-0.213-0.142-2.987-0.711-4.978-3.342-4.978-6.4 0-3.342 2.631-6.258 5.973-6.542 0.213 0 0.284-0.142 0.284-0.213 1.28-2.916 4.124-4.836 7.253-4.836 3.2 0 6.044 1.92 7.253 4.978 0.071 0.213 0.284 0.284 0.427 0.213 0.427-0.284 0.782-0.284 1.209-0.284zM16.853 19.271c-1.849 0-3.271-1.493-3.271-3.271 0-0.427 0.142-0.853 0.356-1.422 0.142-0.427 0.427-0.996 0.711-1.564 0.64-1.138 1.28-2.062 1.351-2.133 0.213-0.284 0.498-0.427 0.853-0.427s0.64 0.142 0.853 0.427c0.142 0.142 0.782 1.067 1.351 2.133 0.284 0.569 0.569 1.067 0.711 1.564 0.213 0.569 0.356 1.067 0.356 1.493 0 1.707-1.493 3.2-3.271 3.2zM16.853 10.809c-0.213 0-0.427 0.071-0.569 0.284-0.213 0.356-0.782 1.209-1.351 2.062-0.284 0.569-0.569 1.067-0.711 1.493-0.213 0.498-0.284 0.996-0.284 1.351 0 1.564 1.28 2.916 2.916 2.916s2.916-1.351 2.916-2.916c0-0.356-0.071-0.782-0.284-1.351-0.142-0.427-0.427-0.924-0.711-1.493-0.569-1.067-1.209-1.92-1.351-2.062s-0.356-0.284-0.569-0.284zM16.853 18.347c-1.351 0-2.418-1.067-2.418-2.347 0-0.284 0.071-0.64 0.213-0.996s0.356-0.782 0.569-1.28c0.427-0.711 0.924-1.564 1.422-2.276l0.142-0.213 0.142 0.213c0.213 0.356 0.853 1.28 1.422 2.276 0.284 0.498 0.427 0.853 0.569 1.28s0.213 0.782 0.213 0.996c0.142 1.28-0.996 2.347-2.276 2.347zM15.573 13.867c-0.213 0.427-0.427 0.853-0.569 1.209s-0.213 0.711-0.213 0.924c0 1.138 0.924 1.991 2.062 1.991s2.062-0.924 2.062-1.991c0-0.213-0.071-0.498-0.213-0.924-0.142-0.356-0.356-0.782-0.569-1.209-0.427-0.853-0.996-1.636-1.28-2.062-0.427 0.711-0.924 1.422-1.28 2.062zM16.853 17.707c-0.356 0-0.64-0.284-0.64-0.64s0.284-0.64 0.64-0.64c0.284 0 0.498-0.213 0.498-0.498 0-0.356 0.284-0.64 0.64-0.64s0.64 0.284 0.64 0.64c-0.071 0.996-0.853 1.778-1.778 1.778zM17.92 15.716c-0.142 0-0.284 0.142-0.284 0.284 0 0.427-0.356 0.853-0.853 0.853-0.142 0-0.284 0.142-0.284 0.284s0.142 0.284 0.284 0.284c0.782 0 1.351-0.64 1.351-1.351 0.071-0.213 0-0.356-0.213-0.356z"></path>
</svg>
