<svg width="72" height="30" viewBox="0 0 72 30" fill="none" xmlns="http://www.w3.org/2000/svg">
<path d="M45.9376 1.92096L45.9436 1.91896L45.9546 1.91785C46.0711 1.90608 46.1971 1.93735 46.2978 2.01451C46.2979 2.01459 46.298 2.01468 46.2981 2.01476L48.748 3.85987C48.7483 3.86003 48.7485 3.86019 48.7487 3.86035C48.8695 3.94858 48.9265 4.08056 48.945 4.21113C48.9691 4.36435 48.9008 4.50279 48.8092 4.59891L48.8089 4.59927L40.6846 13.044C40.9372 13.6443 41.0825 14.3025 41.0825 14.9962C41.0825 17.7846 38.8056 20.054 36.0073 20.054C35.3922 20.054 34.8101 19.9341 34.2678 19.7335L26.6416 27.6565C26.6414 27.6566 26.6413 27.6567 26.6412 27.6569C26.5533 27.7499 26.432 27.8053 26.3044 27.8121L26.2843 27.8261H26.2527C26.122 27.8261 25.9967 27.7755 25.9025 27.6816L25.9025 27.6815L23.7454 25.5292L23.7454 25.5291L23.816 25.4583C23.6615 25.3043 23.6591 25.0595 23.816 24.9031L45.9376 1.92096ZM45.9376 1.92096C45.8244 1.93181 45.7153 1.98315 45.6309 2.0701L45.6306 2.07042L37.7468 10.2642C37.2025 10.0635 36.6181 9.94127 36.0026 9.94127C33.2043 9.94127 30.9299 12.2084 30.9299 14.9991C30.9299 15.6921 31.0751 16.353 31.3278 16.9531L23.7454 24.8323C23.7451 24.8325 23.7449 24.8328 23.7446 24.833L45.9376 1.92096ZM56.7727 1.39651C56.7727 1.12292 56.5546 0.901262 56.2797 0.900005V0.9H56.2773V0.900005C56.0028 0.901275 55.782 1.12487 55.782 1.39651V14.9944V14.9945V14.9945V14.9946V14.9946V14.9946V14.9947V14.9947V14.9948V14.9948V14.9948V14.9949V14.9949V14.9949V14.995V14.995V14.995V14.9951V14.9951V14.9951V14.9952V14.9952V14.9952V14.9953V14.9953V14.9953V14.9954V14.9954V14.9954V14.9955V14.9955V14.9955V14.9956V14.9956V14.9956V14.9956V14.9957V14.9957V14.9957V14.9958V14.9958V14.9958V14.9958V14.9959V14.9959V14.9959V14.996V14.996V14.9961V14.9961V14.9961V14.9962V14.9962V14.9962V14.9963V14.9963V14.9964V14.9964V14.9964V14.9965V14.9965V14.9965V14.9966V14.9966V14.9966V14.9967V14.9967V14.9967V14.9968V14.9968V14.9968V14.9969V14.9969V14.9969V14.9969V14.997V14.997V14.997V14.9971V14.9971V14.9971V14.9972V14.9972V14.9972V14.9973V14.9973V14.9973V14.9973V14.9974V14.9974V14.9975V14.9975V14.9975V14.9976V14.9976V14.9976V14.9977V14.9977V14.9977V14.9978V14.9978V14.9978V14.9979V14.9979V14.998V14.998V14.998V14.9981V14.9981V14.9982V14.9982V14.9982V14.9983V14.9983V14.9983V14.9983V14.9984V14.9984V14.9984V14.9985V14.9985V14.9985V14.9986V14.9986V14.9986V14.9987V14.9987V14.9987V14.9988V14.9988V14.9988V14.9989V14.9989V14.9989V14.999V14.999V14.999V14.9991V14.9991V14.9991V14.9992V14.9992V14.9992V14.9993V14.9993V14.9994V14.9994V14.9994V14.9995V14.9995V14.9995V14.9996V14.9996V14.9997V14.9997V14.9997V14.9998V14.9998V14.9999V14.9999V15V15V15V15.0001V15.0001V15.0002V15.0002V15.0003V15.0003V15.0004V15.0004V15.0004V15.0005V15.0005V15.0006V15.0006V15.0007V15.0007V15.0008V15.0008V15.0009V15.0009V15.001V15.001V15.0011V15.0011V15.0012V15.0012V15.0013V15.0014V15.0014V15.0015V15.0015V15.0015V15.0016V15.0016V15.0017V15.0017V15.0017V15.0018V15.0018V15.0019V15.0019V15.0019V15.002V15.002V15.002V15.0021V15.0021V15.0021V15.0022V15.0022V15.0022V15.0023V15.0023V15.0023V15.0024V15.0024V15.0024V15.0025V15.0025V15.0025V15.0025V15.0026V15.0026V15.0026V15.0027V15.0027V15.0027V15.0028V15.0028V15.0028V15.0029V15.0029V15.0029V15.003V15.003V15.003V15.0031V15.0031V15.0031V15.0032V15.0032V15.0032V15.0033V15.0033V15.0034V15.0034V15.0034V15.0035V15.0035V15.0035V15.0036V15.0036V15.0036V15.0037V15.0037V15.0037V15.0038V15.0038V15.0038V15.0039V15.0039V15.004V15.004V15.004V15.0041V15.0041V15.0041V15.0041V15.0042V15.0042V15.0042V15.0043V15.0043V15.0043V15.0044V15.0044V15.0044V15.0044V15.0045V15.0045V15.0045V15.0046V15.0046V15.0046V15.0047V15.0047V15.0047V15.0048V15.0048V15.0048V15.0049V15.0049V15.005V15.005V15.005V15.0051V15.0051V15.0051V15.0052V15.0052V15.0053V15.0053V15.0053V15.0054V15.0054V15.0055V15.0055V15.0055V15.0055V15.0056V15.0056V15.0056V15.0057V15.0057V15.0057V15.0058V15.0058V15.0058V15.0058V15.0059V15.0059V15.0059V15.006V15.006V15.006V15.0061V15.0061V15.0061V15.0062V15.0062V15.0062V15.0063V15.0063V15.0063V15.0064V15.0064V15.0065V15.0065V15.0065V15.0066V15.0066V15.0066V15.0067V15.0067V15.0068V15.0068V15.0068V15.0069V15.0069V15.007V15.007V15.007V15.0071V15.0071V15.0072V15.0072V15.0072V15.0073V15.0073V15.0074V15.0074V15.0075V15.0075V15.0076V15.0076V15.0076V15.0077V15.0077V15.0078V15.0078V15.0079V28.6035C55.782 28.8786 56.0044 29.1 56.2797 29.1C56.554 29.1 56.775 28.8754 56.775 28.6035V15.4956L70.6023 15.4933C70.8768 15.4933 71.1 15.275 71.1 14.9991C71.1 14.7247 70.8783 14.5003 70.6023 14.5003H56.7727V1.39651ZM38.6766 10.7271L46.0465 3.06811L47.6972 4.31344L40.1723 12.1327C39.7768 11.5657 39.2643 11.0941 38.6766 10.7271ZM15.6774 0.9C15.4011 0.9 15.1821 1.12487 15.1821 1.39651V14.5003H1.3977C1.12141 14.5003 0.9 14.7268 0.9 14.9991C0.9 15.275 1.12324 15.4933 1.3977 15.4933H15.1821V28.6011C15.1821 28.8755 15.4014 29.0977 15.6774 29.0977C15.9531 29.0977 16.1752 28.8736 16.1752 28.6011V1.39651C16.1752 1.12137 15.9527 0.9 15.6774 0.9ZM19.1228 0.9C18.8472 0.9 18.6251 1.12409 18.6251 1.39651V28.6011C18.6251 28.8763 18.8476 29.0977 19.1228 29.0977H52.7162C52.9918 29.0977 53.2139 28.8736 53.2139 28.6011V1.39651C53.2139 1.12137 52.9914 0.9 52.7162 0.9H19.1228ZM19.6205 1.89302H52.2185V28.1046H19.6205V1.89302ZM35.9997 10.9343C38.2494 10.9343 40.0794 12.7571 40.0794 14.9991C40.0794 17.2389 38.2494 19.0639 35.9997 19.0639C33.7501 19.0639 31.9223 17.239 31.9223 14.9991C31.9223 12.757 33.7501 10.9343 35.9997 10.9343ZM35.9997 12.9798C34.8855 12.9798 33.9793 13.883 33.9793 14.9968C33.9793 16.1081 34.8854 17.0137 35.9997 17.0137C37.1138 17.0137 38.0224 16.1083 38.0224 14.9968C38.0224 13.8828 37.1137 12.9798 35.9997 12.9798ZM35.9997 13.9728C36.5673 13.9728 37.027 14.4337 37.027 14.9968C37.027 15.562 36.5652 16.0207 35.9997 16.0207C35.4324 16.0207 34.9747 15.5602 34.9747 14.9968C34.9747 14.4312 35.4322 13.9728 35.9997 13.9728ZM24.8078 25.163L31.8294 17.8673C32.2248 18.4343 32.7372 18.9077 33.3249 19.2731L26.2596 26.6169L24.8078 25.163Z" fill="#192646" stroke="#192646" stroke-width="0.2"/>
</svg>
