<svg width="51" height="51" viewBox="0 0 51 51" fill="none" xmlns="http://www.w3.org/2000/svg">
<path d="M19.9463 25.6254H20.0008V25.4754C20.0008 23.3514 21.1678 21.4413 23.0233 20.4862C23.0235 20.486 23.0238 20.4859 23.024 20.4858L23.894 20.0506L24.0388 19.9781L23.9555 19.8393L23.4653 19.0218L23.4653 19.0218L23.4641 19.0198C21.2039 15.3793 17.2888 13.172 12.9879 13.172C7.19973 13.172 2.12651 17.1983 0.913039 22.8278L0.912986 22.8278L0.912238 22.8318C0.74195 23.7405 0.911408 24.6601 1.54391 25.4083C2.11656 26.0956 2.97533 26.4973 3.83748 26.4973H19.7963H19.9463V26.3473V25.6254ZM22.479 19.5245C20.2784 20.6922 18.8989 22.9512 18.8839 25.4344H3.83748C3.2821 25.4344 2.72769 25.1813 2.37637 24.7293C2.02264 24.2742 1.86846 23.6645 1.96954 23.0514C3.09967 17.9445 7.72198 14.235 12.9335 14.235C16.843 14.235 20.379 16.21 22.479 19.5245ZM13.2192 38.0102C13.2192 43.7421 17.2898 48.8127 22.8513 50.0337C23.095 50.1501 23.335 50.15 23.4934 50.15H23.5C24.1872 50.15 24.874 49.9207 25.4457 49.4631L25.4457 49.4631L25.448 49.4612C26.1352 48.8882 26.5368 48.0288 26.5368 47.166V31.1433V30.9933H26.3868H25.5153C23.3927 30.9933 21.4838 29.8257 20.5292 27.9689C20.5291 27.9687 20.529 27.9685 20.5288 27.9682L20.0939 27.0978L20.0214 26.9528L19.8825 27.0362L19.0655 27.5267L19.0655 27.5267L19.0635 27.5279C15.4251 29.7895 13.2192 33.7068 13.2192 38.0102ZM14.2817 38.0647C14.2817 34.1688 16.2394 30.6438 19.5273 28.5394C20.6982 30.726 22.9478 32.0956 25.4198 32.1106V47.166V47.316H25.4681C25.4271 47.8201 25.1806 48.3083 24.7696 48.6281C24.3148 48.9821 23.7056 49.1363 23.0928 49.0352C17.9892 47.9044 14.2817 43.2794 14.2817 38.0647ZM49.4908 25.5474L49.4909 25.5474L49.4871 25.5429C48.9145 24.8553 48.0555 24.4534 47.1932 24.4534H31.1799H31.0299V24.6034V25.4754C31.0299 27.5993 29.8629 29.5094 28.0073 30.4645C28.0071 30.4647 28.0069 30.4648 28.0066 30.4649L27.1367 30.9001L26.9919 30.9726L27.0752 31.1114L27.5654 31.9289L27.5653 31.9289L27.5666 31.9309C29.8267 35.5714 33.7418 37.7787 38.0427 37.7787C43.7768 37.7787 48.8484 33.698 50.0626 28.1254C50.2917 27.2055 50.0601 26.288 49.4908 25.5474ZM49.0084 27.8915L49.0083 27.8914L49.0072 27.8969C47.9326 33.0042 43.3103 36.7157 38.0972 36.7157C34.2036 36.7157 30.6807 34.7569 28.5775 31.4669C30.7631 30.2953 32.1318 28.0443 32.1468 25.5709H47.1932C47.7486 25.5709 48.303 25.8239 48.6543 26.2759L48.6541 26.2761L48.6598 26.2826C49.0067 26.6793 49.1607 27.2821 49.0084 27.8915ZM30.9368 23.8529L31.0092 23.9979L31.1482 23.9145L31.9652 23.424L31.9652 23.424L31.9671 23.4228C35.6055 21.1612 37.8115 17.2439 37.8115 12.9405C37.8115 7.20252 33.7322 2.12724 28.1617 0.913147L28.1617 0.913085L28.1574 0.912279C27.2491 0.741876 26.33 0.911458 25.5822 1.54435C24.8953 2.11735 24.4939 2.97659 24.4939 3.83917V19.8074V19.9574H24.6439H25.5153C27.6379 19.9574 29.5467 21.125 30.5014 22.9816C30.5015 22.9819 30.5017 22.9822 30.5018 22.9825L30.9368 23.8529ZM31.4627 22.4373C30.2957 20.2355 28.0381 18.8551 25.5564 18.8401V3.78467C25.5564 3.22886 25.8094 2.67409 26.2611 2.32257C26.7158 1.96865 27.3251 1.8144 27.9378 1.91552C33.0415 3.04629 36.7489 7.67129 36.7489 12.886C36.7489 16.798 34.7751 20.336 31.4627 22.4373ZM25.5153 20.9109C22.9814 20.9109 20.9535 22.9401 20.9535 25.4754C20.9535 28.0106 22.9814 30.0398 25.5153 30.0398C28.0493 30.0398 30.0771 28.0106 30.0771 25.4754C30.0771 22.9401 28.0493 20.9109 25.5153 20.9109ZM25.5153 28.9768C23.583 28.9768 22.016 27.4091 22.016 25.4754C22.016 23.5416 23.583 21.9739 25.5153 21.9739C27.4477 21.9739 29.0146 23.5416 29.0146 25.4754C29.0146 27.4091 27.4477 28.9768 25.5153 28.9768Z" fill="#192646" stroke="#192646" stroke-width="0.3"/>
<circle cx="25.8111" cy="25.8111" r="14.3111" fill="#192646"/>
<path d="M18.8612 33.34H32.6199C33.1098 33.34 33.4772 32.9871 33.4772 32.5166C33.4772 32.0461 33.1098 31.6933 32.6199 31.6933H18.8612C18.3713 31.6933 18.1263 31.3796 18.0447 31.2228C17.963 31.0659 17.7997 30.713 18.0447 30.2818L25.271 18.2447C25.516 17.8134 25.9243 17.7742 26.0876 17.7742C26.2509 17.7742 26.6591 17.8134 26.9041 18.2447L33.6405 29.4584C33.8855 29.8505 34.4162 29.9681 34.8245 29.772C35.2328 29.5368 35.3553 29.0271 35.1511 28.635L28.4147 17.4606C27.9248 16.6764 27.0674 16.1667 26.0876 16.1667C25.1077 16.1667 24.2504 16.6372 23.7604 17.4606L16.5341 29.4976C16.0441 30.2818 16.0441 31.262 16.5341 32.0461C17.024 32.8695 17.8814 33.34 18.8612 33.34Z" fill="white"/>
<path d="M26.0876 27.4587C26.5775 27.4587 26.9449 27.1059 26.9449 26.6354V21.7735C26.9449 21.303 26.5775 20.9501 26.0876 20.9501C25.5976 20.9501 25.2302 21.303 25.2302 21.7735V26.6354C25.2302 27.1059 25.5976 27.4587 26.0876 27.4587Z" fill="white"/>
<path d="M26.0876 30.5562C26.6287 30.5562 27.0674 30.1349 27.0674 29.6152C27.0674 29.0955 26.6287 28.6742 26.0876 28.6742C25.5464 28.6742 25.1077 29.0955 25.1077 29.6152C25.1077 30.1349 25.5464 30.5562 26.0876 30.5562Z" fill="white"/>
</svg>
