<svg width="39" height="53" viewBox="0 0 39 53" fill="none" xmlns="http://www.w3.org/2000/svg">
<path d="M14.9067 33.9987V4.21562C14.9067 1.91619 13.0502 0 10.7023 0C8.35431 0 6.4978 1.86144 6.4978 4.21562V33.9987C3.2762 35.5864 1.20127 38.8165 1.20127 42.5394C1.20127 47.7953 5.46034 52.0109 10.6477 52.0109C15.8896 52.0109 20.094 47.7405 20.094 42.5394C20.1486 38.8165 18.1283 35.5864 14.9067 33.9987ZM10.7023 50.6969C6.22478 50.6969 2.56636 47.0288 2.56636 42.5394C2.56636 39.0903 4.69589 36.0791 7.86288 34.8747V4.21562C7.86288 2.62792 9.11876 1.36871 10.7023 1.36871C12.2858 1.36871 13.5416 2.62792 13.5416 4.21562V34.9294C16.7086 36.0791 18.8382 39.0903 18.8382 42.5942C18.8382 47.0288 15.1797 50.6969 10.7023 50.6969Z" fill="#192646"/>
<path d="M12.2312 35.8601V9.58095C12.2312 8.75973 11.5759 8.048 10.7023 8.048C9.88321 8.048 9.17336 8.70498 9.17336 9.58095V35.8601C6.17018 36.5719 3.87684 39.2545 3.87684 42.4847C3.87684 46.2623 6.93463 49.3282 10.7023 49.3282C14.4699 49.3282 17.5277 46.2623 17.5277 42.4847C17.5277 39.2545 15.2343 36.5719 12.2312 35.8601Z" fill="#192646"/>
<path d="M0 32.411C0 32.1373 0.218413 31.8635 0.546034 31.8635H4.42287C4.69589 31.8635 4.96891 32.0825 4.96891 32.411C4.96891 32.6847 4.75049 32.9585 4.42287 32.9585H0.546034C0.218413 32.9037 0 32.6847 0 32.411Z" fill="#192646"/>
<path d="M1.91112 29.9473C1.91112 29.6736 2.12953 29.3998 2.45715 29.3998H4.42287C4.69589 29.3998 4.96891 29.6188 4.96891 29.9473C4.96891 30.2211 4.75049 30.4948 4.42287 30.4948H2.45715C2.12953 30.4948 1.91112 30.2758 1.91112 29.9473Z" fill="#192646"/>
<path d="M1.91112 27.5384C1.91112 27.2647 2.12953 26.9909 2.45715 26.9909H4.42287C4.69589 26.9909 4.96891 27.2099 4.96891 27.5384C4.96891 27.8121 4.75049 28.0859 4.42287 28.0859H2.45715C2.12953 28.0859 1.91112 27.8121 1.91112 27.5384Z" fill="#192646"/>
<path d="M1.91112 25.0747C1.91112 24.801 2.12953 24.5272 2.45715 24.5272H4.42287C4.69589 24.5272 4.96891 24.7462 4.96891 25.0747C4.96891 25.3485 4.75049 25.6222 4.42287 25.6222H2.45715C2.12953 25.6222 1.91112 25.4032 1.91112 25.0747Z" fill="#192646"/>
<path d="M0 22.6658C0 22.3921 0.218413 22.1183 0.546034 22.1183H4.42287C4.69589 22.1183 4.96891 22.3373 4.96891 22.6658C4.96891 22.9395 4.75049 23.2133 4.42287 23.2133H0.546034C0.218413 23.2133 0 22.9395 0 22.6658Z" fill="#192646"/>
<path d="M1.91112 20.2569C1.91112 19.9831 2.12953 19.7094 2.45715 19.7094H4.42287C4.69589 19.7094 4.96891 19.9284 4.96891 20.2569C4.96891 20.5306 4.75049 20.8044 4.42287 20.8044H2.45715C2.12953 20.7496 1.91112 20.5306 1.91112 20.2569Z" fill="#192646"/>
<path d="M1.91112 17.7932C1.91112 17.5195 2.12953 17.2457 2.45715 17.2457H4.42287C4.69589 17.2457 4.96891 17.4647 4.96891 17.7932C4.96891 18.0669 4.75049 18.3407 4.42287 18.3407H2.45715C2.12953 18.3407 1.91112 18.0669 1.91112 17.7932Z" fill="#192646"/>
<path d="M1.91112 15.3843C1.91112 15.1105 2.12953 14.8368 2.45715 14.8368H4.42287C4.69589 14.8368 4.96891 15.0558 4.96891 15.3843C4.96891 15.658 4.75049 15.9318 4.42287 15.9318H2.45715C2.12953 15.877 1.91112 15.658 1.91112 15.3843Z" fill="#192646"/>
<path d="M0 12.9206C0 12.6469 0.218413 12.3731 0.546034 12.3731H4.42287C4.69589 12.3731 4.96891 12.5921 4.96891 12.9206C4.96891 13.1943 4.75049 13.4681 4.42287 13.4681H0.546034C0.218413 13.4681 0 13.2491 0 12.9206Z" fill="#192646"/>
<path d="M1.91112 10.5117C1.91112 10.2379 2.12953 9.96419 2.45715 9.96419H4.42287C4.69589 9.96419 4.96891 10.1832 4.96891 10.5117C4.96891 10.7854 4.75049 11.0592 4.42287 11.0592H2.45715C2.12953 11.0044 1.91112 10.7854 1.91112 10.5117Z" fill="#192646"/>
<path d="M1.91112 8.048C1.91112 7.77426 2.12953 7.50052 2.45715 7.50052H4.42287C4.69589 7.50052 4.96891 7.71951 4.96891 8.048C4.96891 8.32174 4.75049 8.59548 4.42287 8.59548H2.45715C2.12953 8.59548 1.91112 8.37649 1.91112 8.048Z" fill="#192646"/>
<path d="M1.91112 5.63908C1.91112 5.36533 2.12953 5.09159 2.45715 5.09159H4.42287C4.69589 5.09159 4.96891 5.31059 4.96891 5.63908C4.96891 5.91282 4.75049 6.18656 4.42287 6.18656H2.45715C2.12953 6.18656 1.91112 5.91282 1.91112 5.63908Z" fill="#192646"/>
<path d="M0 3.1754C0 2.90166 0.218413 2.62792 0.546034 2.62792H4.42287C4.69589 2.62792 4.96891 2.84691 4.96891 3.1754C4.96891 3.44914 4.75049 3.72288 4.42287 3.72288H0.546034C0.218413 3.72288 0 3.50389 0 3.1754Z" fill="#192646"/>
<path d="M30 0L21.3397 15H38.6603L30 0ZM31.5 50V13.5H28.5V50H31.5Z" fill="#192646"/>
</svg>
