<svg width="29" height="54" viewBox="0 0 29 54" fill="none" xmlns="http://www.w3.org/2000/svg">
<path d="M19.635 33.9987V4.21562C19.635 1.91619 17.7785 0 15.4305 0C13.0826 0 11.2261 1.86144 11.2261 4.21562V33.9987C8.00447 35.5864 5.92955 38.8165 5.92955 42.5394C5.92955 47.7953 10.1886 52.0109 15.3759 52.0109C20.6179 52.0109 24.8223 47.7405 24.8223 42.5394C24.8769 38.8165 22.8566 35.5864 19.635 33.9987ZM15.4305 50.6969C10.9531 50.6969 7.29463 47.0288 7.29463 42.5394C7.29463 39.0903 9.42416 36.0791 12.5912 34.8747V4.21562C12.5912 2.62792 13.847 1.36871 15.4305 1.36871C17.014 1.36871 18.2699 2.62792 18.2699 4.21562V34.9294C21.4369 36.0791 23.5664 39.0903 23.5664 42.5942C23.5664 47.0288 19.908 50.6969 15.4305 50.6969Z" fill="#192646"/>
<path d="M16.9594 35.8601V9.58095C16.9594 8.75973 16.3042 8.048 15.4305 8.048C14.6115 8.048 13.9016 8.70498 13.9016 9.58095V35.8601C10.8985 36.5719 8.60511 39.2545 8.60511 42.4847C8.60511 46.2623 11.6629 49.3282 15.4305 49.3282C19.1982 49.3282 22.2559 46.2623 22.2559 42.4847C22.2559 39.2545 19.9626 36.5719 16.9594 35.8601Z" fill="#192646"/>
<path d="M4.72827 32.411C4.72827 32.1373 4.94668 31.8635 5.27431 31.8635H9.15114C9.42416 31.8635 9.69718 32.0825 9.69718 32.411C9.69718 32.6847 9.47876 32.9585 9.15114 32.9585H5.27431C4.94668 32.9037 4.72827 32.6847 4.72827 32.411Z" fill="#192646"/>
<path d="M6.63939 29.9473C6.63939 29.6736 6.8578 29.3998 7.18542 29.3998H9.15114C9.42416 29.3998 9.69718 29.6188 9.69718 29.9473C9.69718 30.2211 9.47876 30.4948 9.15114 30.4948H7.18542C6.8578 30.4948 6.63939 30.2758 6.63939 29.9473Z" fill="#192646"/>
<path d="M6.63939 27.5384C6.63939 27.2647 6.8578 26.9909 7.18542 26.9909H9.15114C9.42416 26.9909 9.69718 27.2099 9.69718 27.5384C9.69718 27.8121 9.47876 28.0859 9.15114 28.0859H7.18542C6.8578 28.0859 6.63939 27.8121 6.63939 27.5384Z" fill="#192646"/>
<path d="M6.63939 25.0747C6.63939 24.801 6.8578 24.5272 7.18542 24.5272H9.15114C9.42416 24.5272 9.69718 24.7462 9.69718 25.0747C9.69718 25.3485 9.47876 25.6222 9.15114 25.6222H7.18542C6.8578 25.6222 6.63939 25.4032 6.63939 25.0747Z" fill="#192646"/>
<path d="M4.72827 22.6658C4.72827 22.3921 4.94668 22.1183 5.27431 22.1183H9.15114C9.42416 22.1183 9.69718 22.3373 9.69718 22.6658C9.69718 22.9395 9.47876 23.2133 9.15114 23.2133H5.27431C4.94668 23.2133 4.72827 22.9395 4.72827 22.6658Z" fill="#192646"/>
<path d="M6.63939 20.2569C6.63939 19.9831 6.8578 19.7094 7.18542 19.7094H9.15114C9.42416 19.7094 9.69718 19.9284 9.69718 20.2569C9.69718 20.5306 9.47876 20.8044 9.15114 20.8044H7.18542C6.8578 20.7496 6.63939 20.5306 6.63939 20.2569Z" fill="#192646"/>
<path d="M6.63939 17.7932C6.63939 17.5195 6.8578 17.2457 7.18542 17.2457H9.15114C9.42416 17.2457 9.69718 17.4647 9.69718 17.7932C9.69718 18.0669 9.47876 18.3407 9.15114 18.3407H7.18542C6.8578 18.3407 6.63939 18.0669 6.63939 17.7932Z" fill="#192646"/>
<path d="M6.63939 15.3843C6.63939 15.1105 6.8578 14.8368 7.18542 14.8368H9.15114C9.42416 14.8368 9.69718 15.0558 9.69718 15.3843C9.69718 15.658 9.47876 15.9318 9.15114 15.9318H7.18542C6.8578 15.877 6.63939 15.658 6.63939 15.3843Z" fill="#192646"/>
<path d="M4.72827 12.9206C4.72827 12.6469 4.94668 12.3731 5.27431 12.3731H9.15114C9.42416 12.3731 9.69718 12.5921 9.69718 12.9206C9.69718 13.1943 9.47876 13.4681 9.15114 13.4681H5.27431C4.94668 13.4681 4.72827 13.2491 4.72827 12.9206Z" fill="#192646"/>
<path d="M6.63939 10.5117C6.63939 10.2379 6.8578 9.96419 7.18542 9.96419H9.15114C9.42416 9.96419 9.69718 10.1832 9.69718 10.5117C9.69718 10.7854 9.47876 11.0592 9.15114 11.0592H7.18542C6.8578 11.0044 6.63939 10.7854 6.63939 10.5117Z" fill="#192646"/>
<path d="M6.63939 8.048C6.63939 7.77426 6.8578 7.50052 7.18542 7.50052H9.15114C9.42416 7.50052 9.69718 7.71951 9.69718 8.048C9.69718 8.32174 9.47876 8.59548 9.15114 8.59548H7.18542C6.8578 8.59548 6.63939 8.37649 6.63939 8.048Z" fill="#192646"/>
<path d="M6.63939 5.63908C6.63939 5.36533 6.8578 5.09159 7.18542 5.09159H9.15114C9.42416 5.09159 9.69718 5.31059 9.69718 5.63908C9.69718 5.91282 9.47876 6.18656 9.15114 6.18656H7.18542C6.8578 6.18656 6.63939 5.91282 6.63939 5.63908Z" fill="#192646"/>
<path d="M4.72827 3.1754C4.72827 2.90166 4.94668 2.62792 5.27431 2.62792H9.15114C9.42416 2.62792 9.69718 2.84691 9.69718 3.1754C9.69718 3.44914 9.47876 3.72288 9.15114 3.72288H5.27431C4.94668 3.72288 4.72827 3.50389 4.72827 3.1754Z" fill="#192646"/>
<circle cx="14.5" cy="39.3234" r="14.5" fill="#192646"/>
<path d="M22.4593 33.4634L20.9116 31.9158L14.7758 38.0515L8.64007 31.9158L7.09241 33.4634L13.2282 39.5992L7.09241 45.735L8.64007 47.2826L14.7758 41.1469L20.9116 47.2826L22.4593 45.735L16.3235 39.5992L22.4593 33.4634Z" fill="white"/>
</svg>
