<svg width="22" height="55" viewBox="0 0 22 55" fill="none" xmlns="http://www.w3.org/2000/svg">
<path d="M10.9657 55C17.0033 55 22 50.1187 22 44.0687C22 40.5625 20.3344 37.3312 17.4891 35.2687V6.39375C17.4891 4.675 16.7951 3.09375 15.6153 1.85625C14.2968 0.6875 12.7006 0 10.9657 0C7.42634 0 4.51161 2.8875 4.51161 6.39375V35.2687C1.66628 37.3312 0.000714296 40.5625 0.000714296 44.0687C-0.0686841 50.1187 4.928 55 10.9657 55ZM5.62198 36.2313C5.69138 36.1625 5.76078 36.0938 5.76078 36.0938C5.76078 36.0938 5.83018 36.025 5.83018 35.9562C5.83018 35.8875 5.89958 35.8875 5.89958 35.8187C5.89958 35.75 5.89958 35.75 5.89958 35.6813V6.39375C5.89958 3.64375 8.18972 1.375 10.9657 1.375C12.2842 1.375 13.6028 1.925 14.5744 2.81875C15.5459 3.78125 16.0317 5.01875 16.0317 6.39375V35.6813C16.0317 35.75 16.0317 35.75 16.0317 35.8187C16.0317 35.8875 16.0317 35.8875 16.1011 35.9562C16.1011 36.025 16.1705 36.025 16.1705 36.0938C16.1705 36.1625 16.2399 36.1625 16.2399 36.1625C16.2399 36.1625 16.2399 36.1625 16.3093 36.2313C18.9465 38.0187 20.5426 40.975 20.5426 44.1375C20.612 49.3625 16.2399 53.625 10.9657 53.625C5.69138 53.625 1.31928 49.3625 1.31928 44.0687C1.31928 40.9062 2.91545 38.0187 5.62198 36.2313Z" fill="#192646"/>
<path d="M10.9657 50.5312C14.5744 50.5312 17.4891 47.6437 17.4891 44.0687C17.4891 40.7687 14.9214 38.0187 11.6596 37.675V5.70625C11.6596 5.29375 11.382 5.01875 10.9657 5.01875C10.5493 5.01875 10.2717 5.29375 10.2717 5.70625V37.7438C7.00995 38.0875 4.44221 40.8375 4.44221 44.1375C4.44221 47.6437 7.35694 50.5312 10.9657 50.5312ZM10.9657 39.05C13.811 39.05 16.1011 41.3187 16.1011 44.1375C16.1011 46.9562 13.811 49.225 10.9657 49.225C8.12032 49.225 5.83018 46.9562 5.83018 44.1375C5.83018 41.3187 8.12032 39.05 10.9657 39.05Z" fill="#192646"/>
</svg>
