<svg width="202" height="56" viewBox="0 0 202 56" fill="none" xmlns="http://www.w3.org/2000/svg">
<path d="M89.5682 22.9361H87.1682C86.3762 22.9361 86.1602 23.0561 85.8242 23.7041L81.8642 31.4561L77.9042 23.6801C77.5682 23.0801 77.3282 22.9361 76.4882 22.9361H74.2322C73.4642 22.9361 73.2002 23.1761 73.2002 23.9441V39.0161C73.2002 39.7601 73.4642 40.0001 74.2322 40.0001H76.6802C77.4482 40.0001 77.7122 39.7601 77.7122 39.0161V35.6081C77.7122 33.9521 77.5922 32.7521 76.7282 29.2961H76.9682C77.2082 30.1361 77.9522 32.3441 78.4562 33.2561L79.8722 35.9681C80.1362 36.4961 80.3762 36.6641 81.0242 36.6641H82.6322C83.2802 36.6641 83.5202 36.4481 83.7842 35.9681L85.1282 33.2561C85.6322 32.2721 86.4962 30.0881 86.7362 29.2961H87.0002C86.0882 32.4881 85.9442 34.0001 85.9442 35.5841V39.0161C85.9442 39.7601 86.1842 40.0001 86.9522 40.0001H89.5682C90.3362 40.0001 90.6002 39.7601 90.6002 39.0161V23.9441C90.6002 23.1761 90.3362 22.9361 89.5682 22.9361Z" fill="#00A900"/>
<path d="M97.6369 33.9521V23.9681C97.6369 23.2241 97.3729 22.9601 96.6049 22.9601H93.8929C93.1249 22.9601 92.8849 23.2241 92.8849 23.9681V33.7361C92.8849 37.7681 95.3809 40.3601 100.109 40.3601C104.861 40.3601 107.357 37.7681 107.357 33.7361V23.9681C107.357 23.2241 107.093 22.9601 106.325 22.9601H103.613C102.845 22.9601 102.605 23.2241 102.605 23.9681V33.9521C102.605 35.3681 101.765 36.1601 100.109 36.1601C98.4529 36.1601 97.6369 35.3681 97.6369 33.9521Z" fill="#00A900"/>
<path d="M121.31 22.9601H110.174C109.43 22.9601 109.166 23.2241 109.166 23.9681V26.1281C109.166 26.8961 109.43 27.1601 110.174 27.1601H116.03L109.382 36.5201C109.166 36.8081 109.046 37.1201 109.046 37.5281V38.9921C109.046 39.7361 109.31 40.0001 110.054 40.0001H121.43C122.198 40.0001 122.438 39.7361 122.438 38.9921V36.8081C122.438 36.0401 122.198 35.8001 121.43 35.8001H115.358L122.006 26.4641C122.222 26.1521 122.318 25.8641 122.318 25.4081V23.9681C122.318 23.2241 122.078 22.9601 121.31 22.9601Z" fill="#00A900"/>
<path d="M123.745 29.3201V33.6401C123.745 37.7921 126.385 40.3601 131.137 40.3601C135.865 40.3601 138.505 37.7921 138.505 33.6401V29.3201C138.505 25.1681 135.865 22.6001 131.137 22.6001C126.385 22.6001 123.745 25.1681 123.745 29.3201ZM133.753 29.1041V33.8561C133.753 35.3681 132.793 36.1601 131.137 36.1601C129.457 36.1601 128.497 35.3681 128.497 33.8561V29.1041C128.497 27.5921 129.457 26.8001 131.137 26.8001C132.793 26.8001 133.753 27.5921 133.753 29.1041Z" fill="#00A900"/>
<path d="M151.288 22.9601H141.232C140.464 22.9601 140.2 23.2241 140.2 23.9681V38.9921C140.2 39.7361 140.464 40.0001 141.232 40.0001H143.944C144.712 40.0001 144.952 39.7361 144.952 38.9921V34.1441H150.016C150.784 34.1441 151.048 33.8801 151.048 33.1121V30.9521C151.048 30.2081 150.784 29.9441 150.016 29.9441H144.952V27.1601H151.288C152.056 27.1601 152.32 26.8961 152.32 26.1281V23.9681C152.32 23.2241 152.056 22.9601 151.288 22.9601Z" fill="black"/>
<path d="M153.433 29.3201V33.6401C153.433 37.7921 156.073 40.3601 160.825 40.3601C165.553 40.3601 168.193 37.7921 168.193 33.6401V29.3201C168.193 25.1681 165.553 22.6001 160.825 22.6001C156.073 22.6001 153.433 25.1681 153.433 29.3201ZM163.441 29.1041V33.8561C163.441 35.3681 162.481 36.1601 160.825 36.1601C159.145 36.1601 158.185 35.3681 158.185 33.8561V29.1041C158.185 27.5921 159.145 26.8001 160.825 26.8001C162.481 26.8001 163.441 27.5921 163.441 29.1041Z" fill="black"/>
<path d="M183.592 22.9601H181.144C180.376 22.9601 180.136 23.2241 180.136 23.9681V27.9041C180.136 30.3521 180.448 31.5041 181.216 33.9761H181.024C180.256 32.1521 180.064 31.2401 179.008 29.5841L175.072 23.4401C174.856 23.1041 174.616 22.9601 174.064 22.9601H171.232C170.464 22.9601 170.2 23.2241 170.2 23.9681V38.9921C170.2 39.7361 170.464 40.0001 171.232 40.0001H173.656C174.424 40.0001 174.688 39.7361 174.688 38.9921V35.0801C174.688 32.4161 174.4 31.1921 173.896 28.8881H174.088C174.736 31.0481 175.144 32.1761 176.2 33.8321L179.896 39.5201C180.112 39.8561 180.376 40.0001 180.88 40.0001H183.592C184.336 40.0001 184.6 39.7361 184.6 38.9921V23.9681C184.6 23.2241 184.336 22.9601 183.592 22.9601Z" fill="black"/>
<path d="M193.893 22.9601H188.037C187.269 22.9601 187.005 23.2241 187.005 23.9681V38.9921C187.005 39.7361 187.269 40.0001 188.037 40.0001H193.893C198.621 40.0001 201.261 37.4081 201.261 33.2801V29.6801C201.261 25.5281 198.621 22.9601 193.893 22.9601ZM196.509 29.7521V33.2081C196.509 34.9121 195.669 35.8001 193.725 35.8001H191.757V27.1601H193.725C195.669 27.1601 196.509 28.0481 196.509 29.7521Z" fill="black"/>
<path d="M4.93172 29.4948C6.09856 26.0635 8.06598 22.899 10.7009 20.2152C11.8126 18.8127 13.271 19.5418 12.0632 21.3105C9.6015 23.8178 7.76347 26.7743 6.67337 29.9799C5.58327 33.1855 5.26651 36.5656 5.74452 39.8916L3.93749 40.1043C3.42582 36.5442 3.76488 32.9262 4.93172 29.4948Z" fill="#A0A0A0"/>
<path d="M58.0439 29.4948C56.877 26.0635 54.9096 22.899 52.2747 20.2152C51.163 18.8127 49.7046 19.5418 50.9124 21.3105C53.3741 23.8178 55.2121 26.7743 56.3022 29.9799C57.3923 33.1855 57.7091 36.5656 57.2311 39.8916L59.0381 40.1043C59.5498 36.5442 59.2107 32.9262 58.0439 29.4948Z" fill="#A0A0A0"/>
<path d="M53.4655 22.6762C54.6408 22.0908 55.1098 20.6445 54.3899 19.5464C52.1128 16.0731 49.0217 13.1531 45.354 11.0313C40.9817 8.50184 35.9648 7.20788 30.8716 7.29596C25.7785 7.38405 20.8125 8.85066 16.5364 11.5297C12.9491 13.7771 9.96755 16.8025 7.8201 20.3527C7.1412 21.475 7.66106 22.9019 8.85496 23.4453L9.97157 23.9535C11.1236 24.4778 12.4724 23.9792 13.1486 22.9092C14.8112 20.2784 17.0671 18.0326 19.7586 16.3464C23.1051 14.2497 26.9916 13.1019 30.9776 13.033C34.9636 12.9641 38.8899 13.9767 42.3117 15.9563C45.0654 17.5494 47.4039 19.7173 49.1629 22.291C49.8764 23.3349 51.2405 23.7845 52.3723 23.2207L53.4655 22.6762Z" fill="#393839"/>
<path d="M8.60899 29.7585C8.83411 27.191 11.098 25.2917 13.6655 25.5163L15.99 25.7197C17.2737 25.832 18.2232 26.9637 18.1106 28.2475L16.4802 46.8428C16.3676 48.1266 15.2357 49.0762 13.9519 48.9639L11.6274 48.7605C9.05992 48.5359 7.16102 46.2724 7.38614 43.7049L8.60899 29.7585Z" fill="#393839"/>
<path d="M6.08037 31.8796C6.19293 30.5959 7.32487 29.6462 8.60863 29.7585L7.38579 43.705C6.10203 43.5927 5.15258 42.461 5.26514 41.1773L6.08037 31.8796Z" fill="#D3D0D0"/>
<path d="M1.22783 33.7973C1.34039 32.5136 2.47233 31.5639 3.75609 31.6763L6.08055 31.8796L5.26532 41.1773L2.94087 40.9739C1.65711 40.8616 0.70766 39.7299 0.820219 38.4461L1.22783 33.7973Z" fill="#666666"/>
<path d="M3.75586 31.6763L6.08031 31.8796L5.26508 41.1773L2.94063 40.9739L3.75586 31.6763Z" fill="#A0A0A0"/>
<path d="M54.392 29.7585C54.1669 27.191 51.903 25.2917 49.3355 25.5163L47.011 25.7197C45.7273 25.832 44.7778 26.9637 44.8904 28.2475L46.5208 46.8428C46.6334 48.1266 47.7653 49.0762 49.0491 48.9639L51.3735 48.7605C53.9411 48.5359 55.84 46.2724 55.6148 43.7049L54.392 29.7585Z" fill="#393839"/>
<path d="M56.9206 31.8796C56.808 30.5959 55.6761 29.6462 54.3923 29.7585L55.6152 43.705C56.8989 43.5927 57.8484 42.461 57.7358 41.1773L56.9206 31.8796Z" fill="#D3D0D0"/>
<path d="M61.7731 33.7973C61.6606 32.5136 60.5286 31.5639 59.2449 31.6763L56.9204 31.8796L57.7357 41.1773L60.0601 40.9739C61.3439 40.8616 62.2933 39.7299 62.1808 38.4461L61.7731 33.7973Z" fill="#666666"/>
<path d="M59.2451 31.6763L56.9207 31.8796L57.7359 41.1773L60.0603 40.9739L59.2451 31.6763Z" fill="#A0A0A0"/>
<path d="M47.8337 37.3333C47.8337 46.354 40.521 53.6667 31.5003 53.6667C22.4797 53.6667 15.167 46.354 15.167 37.3333C15.167 28.3127 22.4797 21 31.5003 21C40.521 21 47.8337 28.3127 47.8337 37.3333Z" fill="#01BE01"/>
<path d="M40.8333 35.4583C42.3889 36.3564 42.3889 38.6016 40.8333 39.4997L28.3646 46.6986C26.809 47.5967 24.8646 46.474 24.8646 44.6778V30.2802C24.8646 28.484 26.809 27.3613 28.3646 28.2594L40.8333 35.4583Z" fill="white"/>
</svg>
