<svg width="35" height="36" viewBox="0 0 35 36" fill="none" xmlns="http://www.w3.org/2000/svg">
<mask id="path-1-outside-1_1_906" maskUnits="userSpaceOnUse" x="-0.502441" y="-0.671852" width="36" height="37" fill="black">
<rect fill="white" x="-0.502441" y="-0.671852" width="36" height="37"/>
<path d="M31.1771 6.95916H33.2617C33.4812 6.95916 33.7006 6.79373 33.7006 6.51801C33.7006 6.24229 33.536 6.07686 33.2617 6.07686H31.1771C30.9577 6.07686 30.7382 6.24229 30.7382 6.51801C30.7382 6.79373 30.9577 6.95916 31.1771 6.95916Z"/>
<path d="M31.1771 9.38547H33.2617C33.4812 9.38547 33.7006 9.22004 33.7006 8.99947C33.7006 8.77889 33.536 8.55832 33.3166 8.55832H31.232C31.0125 8.55832 30.7931 8.72375 30.7931 8.99947C30.7931 9.1649 30.9577 9.38547 31.1771 9.38547Z"/>
<path d="M31.1771 11.8118H33.2617C33.4812 11.8118 33.7006 11.6464 33.7006 11.3706C33.7006 11.0949 33.536 10.9295 33.2617 10.9295H31.1771C30.9577 10.9295 30.7382 11.0949 30.7382 11.3706C30.7382 11.6464 30.9577 11.8118 31.1771 11.8118Z"/>
<path d="M31.1771 14.2381H33.2617C33.4812 14.2381 33.7006 14.0727 33.7006 13.797C33.7006 13.5212 33.536 13.3558 33.2617 13.3558H31.1771C30.9577 13.3558 30.7382 13.5212 30.7382 13.797C30.7382 14.0727 30.9577 14.2381 31.1771 14.2381Z"/>
<path d="M31.1771 16.6644H33.2617C33.4812 16.6644 33.7006 16.499 33.7006 16.2233C33.7006 15.9475 33.536 15.7821 33.2617 15.7821H31.1771C30.9577 15.7821 30.7382 15.9475 30.7382 16.2233C30.7382 16.499 30.9577 16.6644 31.1771 16.6644Z"/>
<path d="M29.3119 18.3187V4.03655C29.3119 2.05138 27.721 0.452221 25.7461 0.452221C23.7712 0.452221 22.1803 2.05138 22.1803 4.03655V18.3187C18.8888 19.7525 16.8042 22.9508 16.8042 26.5351C16.8042 31.498 20.8089 35.4684 25.6913 35.4684C28.6536 35.4684 31.3965 33.9795 33.0423 31.5532C33.152 31.3877 33.152 31.112 32.9326 31.0017C32.768 30.8914 32.4937 30.8914 32.384 31.112C30.8479 33.3178 28.3793 34.6412 25.6913 34.6412C21.2477 34.6412 17.5722 31.0017 17.5722 26.48C17.5722 23.1162 19.602 20.1385 22.6741 18.9253C22.8386 18.8702 22.9483 18.7047 22.9483 18.5393V4.03655C22.9483 2.54767 24.1552 1.27937 25.6913 1.27937C27.2273 1.27937 28.4342 2.49253 28.4342 4.03655V18.5944C28.4342 18.7599 28.5439 18.9253 28.7085 18.9804C31.8354 20.1936 33.8103 23.1714 33.8103 26.5351C33.8103 27.7483 33.536 28.8511 33.0971 29.954C32.9874 30.1746 33.0971 30.3952 33.3166 30.5054C33.536 30.6157 33.7554 30.5054 33.8652 30.2849C34.4137 29.1269 34.688 27.8586 34.688 26.5351C34.688 22.9508 32.6034 19.7525 29.3119 18.3187Z"/>
<path d="M21.906 23.3919C21.7415 23.2816 21.4672 23.3368 21.3575 23.5022C20.754 24.3845 20.4249 25.4322 20.4249 26.5351C20.4249 29.5129 22.8386 31.9392 25.801 31.9392C28.7633 31.9392 31.1771 29.5129 31.1771 26.5351C31.1771 24.1639 29.5862 22.0685 27.337 21.3516V10.9846C27.337 10.7641 27.1724 10.5435 26.8981 10.5435C26.6239 10.5435 26.4593 10.7089 26.4593 10.9846V21.7376C26.4593 21.903 26.569 22.1236 26.7884 22.1236C28.8182 22.5648 30.2994 24.4397 30.2994 26.5351C30.2994 29.0166 28.2696 31.0569 25.801 31.0569C23.3324 31.0569 21.3026 29.0166 21.3026 26.5351C21.3026 25.5977 21.5769 24.7154 22.0706 23.9985C22.1803 23.7779 22.1255 23.5574 21.906 23.3919Z"/>
<path d="M23.0032 22.9508C23.5518 22.5648 24.1004 22.2339 24.7587 22.1236C24.9232 22.0685 25.0878 21.903 25.0878 21.7376V10.9846C25.0878 10.7641 24.9232 10.5435 24.649 10.5435C24.3747 10.5435 24.2101 10.7089 24.2101 10.9846V21.4068C23.6066 21.5722 23.0581 21.903 22.5095 22.2891C22.3449 22.3993 22.29 22.6751 22.4546 22.8405C22.5643 22.9508 22.6741 23.0059 22.7838 23.0059C22.8386 23.0611 22.9483 23.0059 23.0032 22.9508Z"/>
<path d="M19.1631 16.7196C19.3826 16.7196 19.602 16.5541 19.602 16.3336C19.602 16.113 19.4374 15.8924 19.218 15.8924L16.4751 15.7821L15.3779 14.6792L17.1882 14.7895C17.4076 14.7895 17.6271 14.6241 17.6271 14.4035C17.6271 14.183 17.4625 13.9624 17.2431 13.9624L14.5002 13.8521L12.6898 12.0324C12.8544 11.7566 13.019 11.4809 13.0738 11.1501H15.5973L17.6271 13.0249C17.6819 13.0801 17.7917 13.1352 17.9014 13.1352C18.0111 13.1352 18.1208 13.0801 18.1757 13.0249C18.3402 12.8595 18.3402 12.5838 18.1757 12.4184L16.8042 11.2052H18.3402L20.37 13.0801C20.4249 13.1352 20.5346 13.1904 20.6443 13.1904C20.754 13.1904 20.8637 13.1352 20.9186 13.0801C21.0832 12.9147 21.0832 12.6389 20.9186 12.4735L19.1083 10.8192L20.9186 9.1649C21.0832 8.99947 21.0832 8.72375 20.9186 8.55832C20.754 8.39289 20.4797 8.39289 20.3151 8.50317L18.3951 10.2678H16.8591L18.2305 9.05461C18.3951 8.88918 18.3951 8.61346 18.2305 8.44803C18.066 8.2826 17.7917 8.2826 17.6271 8.39289L15.6522 10.2678H13.1287C13.0738 9.93691 12.9641 9.60604 12.7447 9.38547L14.555 7.56573L17.2979 7.45545C17.5174 7.45545 17.6819 7.23487 17.6819 7.0143C17.6819 6.79373 17.4625 6.62829 17.2431 6.62829L15.4328 6.73858L16.5299 5.63571L19.2728 5.52542C19.4923 5.52542 19.6568 5.30485 19.6568 5.08428C19.6568 4.8637 19.4374 4.69827 19.218 4.69827L16.7493 4.75342L16.8591 2.3271C16.8591 2.10653 16.6945 1.88595 16.4751 1.88595C16.2556 1.88595 16.0362 2.05138 16.0362 2.27196L15.9265 5.02913L14.8293 6.132L14.939 4.31227C14.939 4.09169 14.7744 3.87112 14.555 3.87112C14.3356 3.87112 14.1161 4.03655 14.1161 4.25712L14.0064 7.0143L12.1961 8.83403C11.9218 8.6686 11.6475 8.50317 11.3184 8.44803V5.85629L13.1836 3.81598C13.3481 3.65054 13.3481 3.37483 13.1836 3.2094C13.019 3.04397 12.7447 3.04397 12.5801 3.26454L11.3732 4.64313V3.09911L13.2384 1.0588C13.403 0.893369 13.3481 0.617651 13.1836 0.452221C13.019 0.28679 12.7447 0.28679 12.5801 0.452221L10.9344 2.27196L9.28861 0.452221C9.12404 0.28679 8.84974 0.28679 8.68517 0.452221C8.52059 0.617651 8.52059 0.893369 8.68517 1.0588L10.4406 3.04397V4.58798L9.1789 3.2094C9.01432 3.04397 8.74003 3.04397 8.57545 3.15425C8.41088 3.31968 8.41088 3.5954 8.57545 3.76083L10.4406 5.80114V8.33774C10.1115 8.39289 9.78234 8.50317 9.5629 8.72375L7.75258 6.95916L7.64286 4.20198C7.64286 3.98141 7.42343 3.81598 7.20399 3.81598C6.98456 3.81598 6.81999 4.03655 6.81999 4.25712L6.9297 6.07686L5.83254 4.97399L5.72282 2.21681C5.72282 1.99624 5.50339 1.83081 5.28395 1.83081C5.06452 1.83081 4.89994 2.05138 4.89994 2.27196L4.9548 4.75342L2.48617 4.64313C2.26674 4.64313 2.04731 4.80856 2.04731 5.02913C2.04731 5.24971 2.21188 5.47028 2.43132 5.47028L5.17423 5.58057L6.2714 6.68344L4.46108 6.57315C4.24164 6.57315 4.02221 6.73858 4.02221 6.95916C4.02221 7.17973 4.18678 7.4003 4.40622 7.4003L7.14914 7.51059L8.95946 9.33033C8.79489 9.60604 8.63031 9.88176 8.57545 10.2126H5.99711L3.96735 8.33774C3.80278 8.17231 3.52848 8.17231 3.36391 8.39289C3.19933 8.55832 3.19933 8.83404 3.41877 8.99947L4.79023 10.2678H3.25419L1.22443 8.39289C1.05986 8.22746 0.785565 8.22746 0.62099 8.44803C0.456415 8.61346 0.456415 8.88918 0.62099 9.05461L2.43132 10.7089L0.62099 12.3632C0.456415 12.5286 0.456415 12.8044 0.62099 12.9698C0.730707 13.0801 0.785565 13.0801 0.895282 13.0801C1.005 13.0801 1.11472 13.0249 1.16957 12.9698L3.19933 11.0949H4.73537L3.36391 12.3081C3.19933 12.4735 3.19933 12.7492 3.30905 12.9147C3.41877 13.0249 3.47362 13.0249 3.6382 13.0249C3.74792 13.0249 3.85763 12.9698 3.91249 12.9147L5.94225 11.0398H8.46574C8.52059 11.3706 8.63031 11.7015 8.84975 11.9221L7.14914 13.8521L4.40622 13.9624C4.18678 13.9624 4.02221 14.183 4.02221 14.4035C4.02221 14.6241 4.24164 14.7895 4.46108 14.7895L6.2714 14.6792L5.17423 15.7821L2.43132 15.8924C2.21188 15.8924 2.04731 16.113 2.04731 16.3336C2.04731 16.5541 2.26674 16.7196 2.48617 16.7196L4.9548 16.6093L4.84508 19.0907C4.84508 19.3113 5.00966 19.5319 5.22909 19.5319C5.44853 19.5319 5.6131 19.3664 5.66796 19.1459L5.77768 16.3887L6.87484 15.2858L6.76513 17.1056C6.76513 17.3261 6.9297 17.5467 7.14914 17.5467C7.36857 17.5467 7.53314 17.3813 7.588 17.1607L7.69772 14.4035L9.50805 12.5838C9.78234 12.7492 10.0566 12.9147 10.3858 12.9698V15.5064L8.52059 17.5467C8.35602 17.7121 8.35602 17.9879 8.52059 18.1533C8.68517 18.3187 8.95946 18.3187 9.12404 18.1533L10.3858 16.7747V18.3187L8.52059 20.359C8.35602 20.5245 8.35602 20.8002 8.52059 20.9656C8.68517 21.131 8.95946 21.131 9.12404 20.9656L10.7698 19.1459L12.4155 20.9656C12.4704 21.0759 12.635 21.0759 12.6898 21.0759C12.7995 21.0759 12.9093 21.0208 12.9641 20.9656C13.1287 20.8002 13.1287 20.5245 12.9641 20.359L11.0989 18.3187V16.7747L12.3058 18.1533C12.3607 18.2636 12.5253 18.2636 12.5801 18.2636C12.6898 18.2636 12.7995 18.2084 12.8544 18.1533C13.019 17.9879 13.019 17.7121 12.8544 17.5467L10.9892 15.5064V12.9698C11.3184 12.9147 11.6475 12.8044 11.867 12.5838L13.6773 14.4035L13.787 17.1607C13.787 17.3813 14.0064 17.5467 14.2259 17.5467C14.4453 17.5467 14.6099 17.3261 14.6099 17.1056L14.8293 15.2858L15.9265 16.3887L16.0362 19.1459C16.0362 19.3664 16.2556 19.5319 16.4751 19.5319C16.6945 19.5319 16.8591 19.3113 16.8591 19.0907L16.7493 16.6093L19.1631 16.7196ZM10.8246 12.1978C10.0018 12.1978 9.34347 11.5361 9.34347 10.7089C9.34347 9.88176 10.0018 9.22004 10.8246 9.22004C11.6475 9.22004 12.3058 9.88176 12.3058 10.7089C12.3058 11.5361 11.6475 12.1978 10.8246 12.1978Z"/>
</mask>
<path d="M31.1771 6.95916H33.2617C33.4812 6.95916 33.7006 6.79373 33.7006 6.51801C33.7006 6.24229 33.536 6.07686 33.2617 6.07686H31.1771C30.9577 6.07686 30.7382 6.24229 30.7382 6.51801C30.7382 6.79373 30.9577 6.95916 31.1771 6.95916Z" fill="white"/>
<path d="M31.1771 9.38547H33.2617C33.4812 9.38547 33.7006 9.22004 33.7006 8.99947C33.7006 8.77889 33.536 8.55832 33.3166 8.55832H31.232C31.0125 8.55832 30.7931 8.72375 30.7931 8.99947C30.7931 9.1649 30.9577 9.38547 31.1771 9.38547Z" fill="white"/>
<path d="M31.1771 11.8118H33.2617C33.4812 11.8118 33.7006 11.6464 33.7006 11.3706C33.7006 11.0949 33.536 10.9295 33.2617 10.9295H31.1771C30.9577 10.9295 30.7382 11.0949 30.7382 11.3706C30.7382 11.6464 30.9577 11.8118 31.1771 11.8118Z" fill="white"/>
<path d="M31.1771 14.2381H33.2617C33.4812 14.2381 33.7006 14.0727 33.7006 13.797C33.7006 13.5212 33.536 13.3558 33.2617 13.3558H31.1771C30.9577 13.3558 30.7382 13.5212 30.7382 13.797C30.7382 14.0727 30.9577 14.2381 31.1771 14.2381Z" fill="white"/>
<path d="M31.1771 16.6644H33.2617C33.4812 16.6644 33.7006 16.499 33.7006 16.2233C33.7006 15.9475 33.536 15.7821 33.2617 15.7821H31.1771C30.9577 15.7821 30.7382 15.9475 30.7382 16.2233C30.7382 16.499 30.9577 16.6644 31.1771 16.6644Z" fill="white"/>
<path d="M29.3119 18.3187V4.03655C29.3119 2.05138 27.721 0.452221 25.7461 0.452221C23.7712 0.452221 22.1803 2.05138 22.1803 4.03655V18.3187C18.8888 19.7525 16.8042 22.9508 16.8042 26.5351C16.8042 31.498 20.8089 35.4684 25.6913 35.4684C28.6536 35.4684 31.3965 33.9795 33.0423 31.5532C33.152 31.3877 33.152 31.112 32.9326 31.0017C32.768 30.8914 32.4937 30.8914 32.384 31.112C30.8479 33.3178 28.3793 34.6412 25.6913 34.6412C21.2477 34.6412 17.5722 31.0017 17.5722 26.48C17.5722 23.1162 19.602 20.1385 22.6741 18.9253C22.8386 18.8702 22.9483 18.7047 22.9483 18.5393V4.03655C22.9483 2.54767 24.1552 1.27937 25.6913 1.27937C27.2273 1.27937 28.4342 2.49253 28.4342 4.03655V18.5944C28.4342 18.7599 28.5439 18.9253 28.7085 18.9804C31.8354 20.1936 33.8103 23.1714 33.8103 26.5351C33.8103 27.7483 33.536 28.8511 33.0971 29.954C32.9874 30.1746 33.0971 30.3952 33.3166 30.5054C33.536 30.6157 33.7554 30.5054 33.8652 30.2849C34.4137 29.1269 34.688 27.8586 34.688 26.5351C34.688 22.9508 32.6034 19.7525 29.3119 18.3187Z" fill="white"/>
<path d="M21.906 23.3919C21.7415 23.2816 21.4672 23.3368 21.3575 23.5022C20.754 24.3845 20.4249 25.4322 20.4249 26.5351C20.4249 29.5129 22.8386 31.9392 25.801 31.9392C28.7633 31.9392 31.1771 29.5129 31.1771 26.5351C31.1771 24.1639 29.5862 22.0685 27.337 21.3516V10.9846C27.337 10.7641 27.1724 10.5435 26.8981 10.5435C26.6239 10.5435 26.4593 10.7089 26.4593 10.9846V21.7376C26.4593 21.903 26.569 22.1236 26.7884 22.1236C28.8182 22.5648 30.2994 24.4397 30.2994 26.5351C30.2994 29.0166 28.2696 31.0569 25.801 31.0569C23.3324 31.0569 21.3026 29.0166 21.3026 26.5351C21.3026 25.5977 21.5769 24.7154 22.0706 23.9985C22.1803 23.7779 22.1255 23.5574 21.906 23.3919Z" fill="white"/>
<path d="M23.0032 22.9508C23.5518 22.5648 24.1004 22.2339 24.7587 22.1236C24.9232 22.0685 25.0878 21.903 25.0878 21.7376V10.9846C25.0878 10.7641 24.9232 10.5435 24.649 10.5435C24.3747 10.5435 24.2101 10.7089 24.2101 10.9846V21.4068C23.6066 21.5722 23.0581 21.903 22.5095 22.2891C22.3449 22.3993 22.29 22.6751 22.4546 22.8405C22.5643 22.9508 22.6741 23.0059 22.7838 23.0059C22.8386 23.0611 22.9483 23.0059 23.0032 22.9508Z" fill="white"/>
<path d="M19.1631 16.7196C19.3826 16.7196 19.602 16.5541 19.602 16.3336C19.602 16.113 19.4374 15.8924 19.218 15.8924L16.4751 15.7821L15.3779 14.6792L17.1882 14.7895C17.4076 14.7895 17.6271 14.6241 17.6271 14.4035C17.6271 14.183 17.4625 13.9624 17.2431 13.9624L14.5002 13.8521L12.6898 12.0324C12.8544 11.7566 13.019 11.4809 13.0738 11.1501H15.5973L17.6271 13.0249C17.6819 13.0801 17.7917 13.1352 17.9014 13.1352C18.0111 13.1352 18.1208 13.0801 18.1757 13.0249C18.3402 12.8595 18.3402 12.5838 18.1757 12.4184L16.8042 11.2052H18.3402L20.37 13.0801C20.4249 13.1352 20.5346 13.1904 20.6443 13.1904C20.754 13.1904 20.8637 13.1352 20.9186 13.0801C21.0832 12.9147 21.0832 12.6389 20.9186 12.4735L19.1083 10.8192L20.9186 9.1649C21.0832 8.99947 21.0832 8.72375 20.9186 8.55832C20.754 8.39289 20.4797 8.39289 20.3151 8.50317L18.3951 10.2678H16.8591L18.2305 9.05461C18.3951 8.88918 18.3951 8.61346 18.2305 8.44803C18.066 8.2826 17.7917 8.2826 17.6271 8.39289L15.6522 10.2678H13.1287C13.0738 9.93691 12.9641 9.60604 12.7447 9.38547L14.555 7.56573L17.2979 7.45545C17.5174 7.45545 17.6819 7.23487 17.6819 7.0143C17.6819 6.79373 17.4625 6.62829 17.2431 6.62829L15.4328 6.73858L16.5299 5.63571L19.2728 5.52542C19.4923 5.52542 19.6568 5.30485 19.6568 5.08428C19.6568 4.8637 19.4374 4.69827 19.218 4.69827L16.7493 4.75342L16.8591 2.3271C16.8591 2.10653 16.6945 1.88595 16.4751 1.88595C16.2556 1.88595 16.0362 2.05138 16.0362 2.27196L15.9265 5.02913L14.8293 6.132L14.939 4.31227C14.939 4.09169 14.7744 3.87112 14.555 3.87112C14.3356 3.87112 14.1161 4.03655 14.1161 4.25712L14.0064 7.0143L12.1961 8.83403C11.9218 8.6686 11.6475 8.50317 11.3184 8.44803V5.85629L13.1836 3.81598C13.3481 3.65054 13.3481 3.37483 13.1836 3.2094C13.019 3.04397 12.7447 3.04397 12.5801 3.26454L11.3732 4.64313V3.09911L13.2384 1.0588C13.403 0.893369 13.3481 0.617651 13.1836 0.452221C13.019 0.28679 12.7447 0.28679 12.5801 0.452221L10.9344 2.27196L9.28861 0.452221C9.12404 0.28679 8.84974 0.28679 8.68517 0.452221C8.52059 0.617651 8.52059 0.893369 8.68517 1.0588L10.4406 3.04397V4.58798L9.1789 3.2094C9.01432 3.04397 8.74003 3.04397 8.57545 3.15425C8.41088 3.31968 8.41088 3.5954 8.57545 3.76083L10.4406 5.80114V8.33774C10.1115 8.39289 9.78234 8.50317 9.5629 8.72375L7.75258 6.95916L7.64286 4.20198C7.64286 3.98141 7.42343 3.81598 7.20399 3.81598C6.98456 3.81598 6.81999 4.03655 6.81999 4.25712L6.9297 6.07686L5.83254 4.97399L5.72282 2.21681C5.72282 1.99624 5.50339 1.83081 5.28395 1.83081C5.06452 1.83081 4.89994 2.05138 4.89994 2.27196L4.9548 4.75342L2.48617 4.64313C2.26674 4.64313 2.04731 4.80856 2.04731 5.02913C2.04731 5.24971 2.21188 5.47028 2.43132 5.47028L5.17423 5.58057L6.2714 6.68344L4.46108 6.57315C4.24164 6.57315 4.02221 6.73858 4.02221 6.95916C4.02221 7.17973 4.18678 7.4003 4.40622 7.4003L7.14914 7.51059L8.95946 9.33033C8.79489 9.60604 8.63031 9.88176 8.57545 10.2126H5.99711L3.96735 8.33774C3.80278 8.17231 3.52848 8.17231 3.36391 8.39289C3.19933 8.55832 3.19933 8.83404 3.41877 8.99947L4.79023 10.2678H3.25419L1.22443 8.39289C1.05986 8.22746 0.785565 8.22746 0.62099 8.44803C0.456415 8.61346 0.456415 8.88918 0.62099 9.05461L2.43132 10.7089L0.62099 12.3632C0.456415 12.5286 0.456415 12.8044 0.62099 12.9698C0.730707 13.0801 0.785565 13.0801 0.895282 13.0801C1.005 13.0801 1.11472 13.0249 1.16957 12.9698L3.19933 11.0949H4.73537L3.36391 12.3081C3.19933 12.4735 3.19933 12.7492 3.30905 12.9147C3.41877 13.0249 3.47362 13.0249 3.6382 13.0249C3.74792 13.0249 3.85763 12.9698 3.91249 12.9147L5.94225 11.0398H8.46574C8.52059 11.3706 8.63031 11.7015 8.84975 11.9221L7.14914 13.8521L4.40622 13.9624C4.18678 13.9624 4.02221 14.183 4.02221 14.4035C4.02221 14.6241 4.24164 14.7895 4.46108 14.7895L6.2714 14.6792L5.17423 15.7821L2.43132 15.8924C2.21188 15.8924 2.04731 16.113 2.04731 16.3336C2.04731 16.5541 2.26674 16.7196 2.48617 16.7196L4.9548 16.6093L4.84508 19.0907C4.84508 19.3113 5.00966 19.5319 5.22909 19.5319C5.44853 19.5319 5.6131 19.3664 5.66796 19.1459L5.77768 16.3887L6.87484 15.2858L6.76513 17.1056C6.76513 17.3261 6.9297 17.5467 7.14914 17.5467C7.36857 17.5467 7.53314 17.3813 7.588 17.1607L7.69772 14.4035L9.50805 12.5838C9.78234 12.7492 10.0566 12.9147 10.3858 12.9698V15.5064L8.52059 17.5467C8.35602 17.7121 8.35602 17.9879 8.52059 18.1533C8.68517 18.3187 8.95946 18.3187 9.12404 18.1533L10.3858 16.7747V18.3187L8.52059 20.359C8.35602 20.5245 8.35602 20.8002 8.52059 20.9656C8.68517 21.131 8.95946 21.131 9.12404 20.9656L10.7698 19.1459L12.4155 20.9656C12.4704 21.0759 12.635 21.0759 12.6898 21.0759C12.7995 21.0759 12.9093 21.0208 12.9641 20.9656C13.1287 20.8002 13.1287 20.5245 12.9641 20.359L11.0989 18.3187V16.7747L12.3058 18.1533C12.3607 18.2636 12.5253 18.2636 12.5801 18.2636C12.6898 18.2636 12.7995 18.2084 12.8544 18.1533C13.019 17.9879 13.019 17.7121 12.8544 17.5467L10.9892 15.5064V12.9698C11.3184 12.9147 11.6475 12.8044 11.867 12.5838L13.6773 14.4035L13.787 17.1607C13.787 17.3813 14.0064 17.5467 14.2259 17.5467C14.4453 17.5467 14.6099 17.3261 14.6099 17.1056L14.8293 15.2858L15.9265 16.3887L16.0362 19.1459C16.0362 19.3664 16.2556 19.5319 16.4751 19.5319C16.6945 19.5319 16.8591 19.3113 16.8591 19.0907L16.7493 16.6093L19.1631 16.7196ZM10.8246 12.1978C10.0018 12.1978 9.34347 11.5361 9.34347 10.7089C9.34347 9.88176 10.0018 9.22004 10.8246 9.22004C11.6475 9.22004 12.3058 9.88176 12.3058 10.7089C12.3058 11.5361 11.6475 12.1978 10.8246 12.1978Z" fill="white"/>
<path d="M31.1771 6.95916H33.2617C33.4812 6.95916 33.7006 6.79373 33.7006 6.51801C33.7006 6.24229 33.536 6.07686 33.2617 6.07686H31.1771C30.9577 6.07686 30.7382 6.24229 30.7382 6.51801C30.7382 6.79373 30.9577 6.95916 31.1771 6.95916Z" stroke="white" stroke-width="0.379894" mask="url(#path-1-outside-1_1_906)"/>
<path d="M31.1771 9.38547H33.2617C33.4812 9.38547 33.7006 9.22004 33.7006 8.99947C33.7006 8.77889 33.536 8.55832 33.3166 8.55832H31.232C31.0125 8.55832 30.7931 8.72375 30.7931 8.99947C30.7931 9.1649 30.9577 9.38547 31.1771 9.38547Z" stroke="white" stroke-width="0.379894" mask="url(#path-1-outside-1_1_906)"/>
<path d="M31.1771 11.8118H33.2617C33.4812 11.8118 33.7006 11.6464 33.7006 11.3706C33.7006 11.0949 33.536 10.9295 33.2617 10.9295H31.1771C30.9577 10.9295 30.7382 11.0949 30.7382 11.3706C30.7382 11.6464 30.9577 11.8118 31.1771 11.8118Z" stroke="white" stroke-width="0.379894" mask="url(#path-1-outside-1_1_906)"/>
<path d="M31.1771 14.2381H33.2617C33.4812 14.2381 33.7006 14.0727 33.7006 13.797C33.7006 13.5212 33.536 13.3558 33.2617 13.3558H31.1771C30.9577 13.3558 30.7382 13.5212 30.7382 13.797C30.7382 14.0727 30.9577 14.2381 31.1771 14.2381Z" stroke="white" stroke-width="0.379894" mask="url(#path-1-outside-1_1_906)"/>
<path d="M31.1771 16.6644H33.2617C33.4812 16.6644 33.7006 16.499 33.7006 16.2233C33.7006 15.9475 33.536 15.7821 33.2617 15.7821H31.1771C30.9577 15.7821 30.7382 15.9475 30.7382 16.2233C30.7382 16.499 30.9577 16.6644 31.1771 16.6644Z" stroke="white" stroke-width="0.379894" mask="url(#path-1-outside-1_1_906)"/>
<path d="M29.3119 18.3187V4.03655C29.3119 2.05138 27.721 0.452221 25.7461 0.452221C23.7712 0.452221 22.1803 2.05138 22.1803 4.03655V18.3187C18.8888 19.7525 16.8042 22.9508 16.8042 26.5351C16.8042 31.498 20.8089 35.4684 25.6913 35.4684C28.6536 35.4684 31.3965 33.9795 33.0423 31.5532C33.152 31.3877 33.152 31.112 32.9326 31.0017C32.768 30.8914 32.4937 30.8914 32.384 31.112C30.8479 33.3178 28.3793 34.6412 25.6913 34.6412C21.2477 34.6412 17.5722 31.0017 17.5722 26.48C17.5722 23.1162 19.602 20.1385 22.6741 18.9253C22.8386 18.8702 22.9483 18.7047 22.9483 18.5393V4.03655C22.9483 2.54767 24.1552 1.27937 25.6913 1.27937C27.2273 1.27937 28.4342 2.49253 28.4342 4.03655V18.5944C28.4342 18.7599 28.5439 18.9253 28.7085 18.9804C31.8354 20.1936 33.8103 23.1714 33.8103 26.5351C33.8103 27.7483 33.536 28.8511 33.0971 29.954C32.9874 30.1746 33.0971 30.3952 33.3166 30.5054C33.536 30.6157 33.7554 30.5054 33.8652 30.2849C34.4137 29.1269 34.688 27.8586 34.688 26.5351C34.688 22.9508 32.6034 19.7525 29.3119 18.3187Z" stroke="white" stroke-width="0.379894" mask="url(#path-1-outside-1_1_906)"/>
<path d="M21.906 23.3919C21.7415 23.2816 21.4672 23.3368 21.3575 23.5022C20.754 24.3845 20.4249 25.4322 20.4249 26.5351C20.4249 29.5129 22.8386 31.9392 25.801 31.9392C28.7633 31.9392 31.1771 29.5129 31.1771 26.5351C31.1771 24.1639 29.5862 22.0685 27.337 21.3516V10.9846C27.337 10.7641 27.1724 10.5435 26.8981 10.5435C26.6239 10.5435 26.4593 10.7089 26.4593 10.9846V21.7376C26.4593 21.903 26.569 22.1236 26.7884 22.1236C28.8182 22.5648 30.2994 24.4397 30.2994 26.5351C30.2994 29.0166 28.2696 31.0569 25.801 31.0569C23.3324 31.0569 21.3026 29.0166 21.3026 26.5351C21.3026 25.5977 21.5769 24.7154 22.0706 23.9985C22.1803 23.7779 22.1255 23.5574 21.906 23.3919Z" stroke="white" stroke-width="0.379894" mask="url(#path-1-outside-1_1_906)"/>
<path d="M23.0032 22.9508C23.5518 22.5648 24.1004 22.2339 24.7587 22.1236C24.9232 22.0685 25.0878 21.903 25.0878 21.7376V10.9846C25.0878 10.7641 24.9232 10.5435 24.649 10.5435C24.3747 10.5435 24.2101 10.7089 24.2101 10.9846V21.4068C23.6066 21.5722 23.0581 21.903 22.5095 22.2891C22.3449 22.3993 22.29 22.6751 22.4546 22.8405C22.5643 22.9508 22.6741 23.0059 22.7838 23.0059C22.8386 23.0611 22.9483 23.0059 23.0032 22.9508Z" stroke="white" stroke-width="0.379894" mask="url(#path-1-outside-1_1_906)"/>
<path d="M19.1631 16.7196C19.3826 16.7196 19.602 16.5541 19.602 16.3336C19.602 16.113 19.4374 15.8924 19.218 15.8924L16.4751 15.7821L15.3779 14.6792L17.1882 14.7895C17.4076 14.7895 17.6271 14.6241 17.6271 14.4035C17.6271 14.183 17.4625 13.9624 17.2431 13.9624L14.5002 13.8521L12.6898 12.0324C12.8544 11.7566 13.019 11.4809 13.0738 11.1501H15.5973L17.6271 13.0249C17.6819 13.0801 17.7917 13.1352 17.9014 13.1352C18.0111 13.1352 18.1208 13.0801 18.1757 13.0249C18.3402 12.8595 18.3402 12.5838 18.1757 12.4184L16.8042 11.2052H18.3402L20.37 13.0801C20.4249 13.1352 20.5346 13.1904 20.6443 13.1904C20.754 13.1904 20.8637 13.1352 20.9186 13.0801C21.0832 12.9147 21.0832 12.6389 20.9186 12.4735L19.1083 10.8192L20.9186 9.1649C21.0832 8.99947 21.0832 8.72375 20.9186 8.55832C20.754 8.39289 20.4797 8.39289 20.3151 8.50317L18.3951 10.2678H16.8591L18.2305 9.05461C18.3951 8.88918 18.3951 8.61346 18.2305 8.44803C18.066 8.2826 17.7917 8.2826 17.6271 8.39289L15.6522 10.2678H13.1287C13.0738 9.93691 12.9641 9.60604 12.7447 9.38547L14.555 7.56573L17.2979 7.45545C17.5174 7.45545 17.6819 7.23487 17.6819 7.0143C17.6819 6.79373 17.4625 6.62829 17.2431 6.62829L15.4328 6.73858L16.5299 5.63571L19.2728 5.52542C19.4923 5.52542 19.6568 5.30485 19.6568 5.08428C19.6568 4.8637 19.4374 4.69827 19.218 4.69827L16.7493 4.75342L16.8591 2.3271C16.8591 2.10653 16.6945 1.88595 16.4751 1.88595C16.2556 1.88595 16.0362 2.05138 16.0362 2.27196L15.9265 5.02913L14.8293 6.132L14.939 4.31227C14.939 4.09169 14.7744 3.87112 14.555 3.87112C14.3356 3.87112 14.1161 4.03655 14.1161 4.25712L14.0064 7.0143L12.1961 8.83403C11.9218 8.6686 11.6475 8.50317 11.3184 8.44803V5.85629L13.1836 3.81598C13.3481 3.65054 13.3481 3.37483 13.1836 3.2094C13.019 3.04397 12.7447 3.04397 12.5801 3.26454L11.3732 4.64313V3.09911L13.2384 1.0588C13.403 0.893369 13.3481 0.617651 13.1836 0.452221C13.019 0.28679 12.7447 0.28679 12.5801 0.452221L10.9344 2.27196L9.28861 0.452221C9.12404 0.28679 8.84974 0.28679 8.68517 0.452221C8.52059 0.617651 8.52059 0.893369 8.68517 1.0588L10.4406 3.04397V4.58798L9.1789 3.2094C9.01432 3.04397 8.74003 3.04397 8.57545 3.15425C8.41088 3.31968 8.41088 3.5954 8.57545 3.76083L10.4406 5.80114V8.33774C10.1115 8.39289 9.78234 8.50317 9.5629 8.72375L7.75258 6.95916L7.64286 4.20198C7.64286 3.98141 7.42343 3.81598 7.20399 3.81598C6.98456 3.81598 6.81999 4.03655 6.81999 4.25712L6.9297 6.07686L5.83254 4.97399L5.72282 2.21681C5.72282 1.99624 5.50339 1.83081 5.28395 1.83081C5.06452 1.83081 4.89994 2.05138 4.89994 2.27196L4.9548 4.75342L2.48617 4.64313C2.26674 4.64313 2.04731 4.80856 2.04731 5.02913C2.04731 5.24971 2.21188 5.47028 2.43132 5.47028L5.17423 5.58057L6.2714 6.68344L4.46108 6.57315C4.24164 6.57315 4.02221 6.73858 4.02221 6.95916C4.02221 7.17973 4.18678 7.4003 4.40622 7.4003L7.14914 7.51059L8.95946 9.33033C8.79489 9.60604 8.63031 9.88176 8.57545 10.2126H5.99711L3.96735 8.33774C3.80278 8.17231 3.52848 8.17231 3.36391 8.39289C3.19933 8.55832 3.19933 8.83404 3.41877 8.99947L4.79023 10.2678H3.25419L1.22443 8.39289C1.05986 8.22746 0.785565 8.22746 0.62099 8.44803C0.456415 8.61346 0.456415 8.88918 0.62099 9.05461L2.43132 10.7089L0.62099 12.3632C0.456415 12.5286 0.456415 12.8044 0.62099 12.9698C0.730707 13.0801 0.785565 13.0801 0.895282 13.0801C1.005 13.0801 1.11472 13.0249 1.16957 12.9698L3.19933 11.0949H4.73537L3.36391 12.3081C3.19933 12.4735 3.19933 12.7492 3.30905 12.9147C3.41877 13.0249 3.47362 13.0249 3.6382 13.0249C3.74792 13.0249 3.85763 12.9698 3.91249 12.9147L5.94225 11.0398H8.46574C8.52059 11.3706 8.63031 11.7015 8.84975 11.9221L7.14914 13.8521L4.40622 13.9624C4.18678 13.9624 4.02221 14.183 4.02221 14.4035C4.02221 14.6241 4.24164 14.7895 4.46108 14.7895L6.2714 14.6792L5.17423 15.7821L2.43132 15.8924C2.21188 15.8924 2.04731 16.113 2.04731 16.3336C2.04731 16.5541 2.26674 16.7196 2.48617 16.7196L4.9548 16.6093L4.84508 19.0907C4.84508 19.3113 5.00966 19.5319 5.22909 19.5319C5.44853 19.5319 5.6131 19.3664 5.66796 19.1459L5.77768 16.3887L6.87484 15.2858L6.76513 17.1056C6.76513 17.3261 6.9297 17.5467 7.14914 17.5467C7.36857 17.5467 7.53314 17.3813 7.588 17.1607L7.69772 14.4035L9.50805 12.5838C9.78234 12.7492 10.0566 12.9147 10.3858 12.9698V15.5064L8.52059 17.5467C8.35602 17.7121 8.35602 17.9879 8.52059 18.1533C8.68517 18.3187 8.95946 18.3187 9.12404 18.1533L10.3858 16.7747V18.3187L8.52059 20.359C8.35602 20.5245 8.35602 20.8002 8.52059 20.9656C8.68517 21.131 8.95946 21.131 9.12404 20.9656L10.7698 19.1459L12.4155 20.9656C12.4704 21.0759 12.635 21.0759 12.6898 21.0759C12.7995 21.0759 12.9093 21.0208 12.9641 20.9656C13.1287 20.8002 13.1287 20.5245 12.9641 20.359L11.0989 18.3187V16.7747L12.3058 18.1533C12.3607 18.2636 12.5253 18.2636 12.5801 18.2636C12.6898 18.2636 12.7995 18.2084 12.8544 18.1533C13.019 17.9879 13.019 17.7121 12.8544 17.5467L10.9892 15.5064V12.9698C11.3184 12.9147 11.6475 12.8044 11.867 12.5838L13.6773 14.4035L13.787 17.1607C13.787 17.3813 14.0064 17.5467 14.2259 17.5467C14.4453 17.5467 14.6099 17.3261 14.6099 17.1056L14.8293 15.2858L15.9265 16.3887L16.0362 19.1459C16.0362 19.3664 16.2556 19.5319 16.4751 19.5319C16.6945 19.5319 16.8591 19.3113 16.8591 19.0907L16.7493 16.6093L19.1631 16.7196ZM10.8246 12.1978C10.0018 12.1978 9.34347 11.5361 9.34347 10.7089C9.34347 9.88176 10.0018 9.22004 10.8246 9.22004C11.6475 9.22004 12.3058 9.88176 12.3058 10.7089C12.3058 11.5361 11.6475 12.1978 10.8246 12.1978Z" stroke="white" stroke-width="0.379894" mask="url(#path-1-outside-1_1_906)"/>
</svg>
