<svg width="36" height="36" viewBox="0 0 36 36" fill="none" xmlns="http://www.w3.org/2000/svg">
<path d="M26.7479 21.3669C26.7231 21.3833 26.6983 21.3997 26.6733 21.4163C26.6328 21.4385 26.5919 21.4607 26.5506 21.4831C25.9406 21.8141 25.2706 22.1778 24.9235 22.8152L24.9235 22.8152L24.922 22.8182C24.6162 23.4308 24.6162 23.9244 24.6162 24.5724V24.5791V24.6741H24.7112H28.9114H29.0064V24.5791V23.2162V23.1212H28.9114H26.7742C26.9262 23.0169 27.0832 22.9224 27.2418 22.8269C27.3169 22.7817 27.3923 22.7362 27.4677 22.6895C27.7804 22.4956 28.0875 22.2813 28.3346 21.9721C28.8839 21.2992 29.0776 20.2502 28.5806 19.4959C28.263 18.8055 27.4562 18.4398 26.7817 18.4398C26.3206 18.4398 25.8284 18.5779 25.4415 18.8414C25.0541 19.1054 24.7674 19.4993 24.7348 20.008L24.6759 20.5391L24.6642 20.6445H24.7703H26.0718H26.1542L26.1658 20.5629C26.1915 20.383 26.2949 20.2258 26.427 20.12C26.5611 20.0125 26.7107 19.9685 26.8222 19.9908L26.8314 19.9927H26.8409C26.9612 19.9927 27.117 20.0551 27.2362 20.1612C27.3548 20.2668 27.4203 20.3995 27.3979 20.5339L27.3966 20.5417V20.5495C27.3966 20.7544 27.3087 20.9094 27.173 21.0454C27.0535 21.165 26.9032 21.2643 26.7479 21.3669ZM13.5095 29.4641L12.9791 29.5822C12.9788 29.5823 12.9784 29.5823 12.9781 29.5824C12.3928 29.6996 11.8078 29.7581 11.223 29.7581C6.01048 29.7581 1.79344 25.5342 1.79344 20.3125C1.79344 15.9707 4.72195 12.2163 8.8798 11.1603C8.87987 11.1603 8.87995 11.1603 8.88003 11.1603L9.35299 11.0418L9.4249 11.0238V10.9497V10.4169C9.48373 5.72855 13.2866 1.97813 17.9671 1.97813C22.6476 1.97813 26.4505 5.72863 26.5093 10.4171V10.9497V11.0238L26.5812 11.0418L27.0541 11.1603C27.0542 11.1603 27.0543 11.1603 27.0544 11.1603C31.2122 12.2163 34.1407 15.9707 34.1407 20.3125C34.1407 25.5342 29.9237 29.7581 24.7112 29.7581C24.1263 29.7581 23.5413 29.6996 22.9561 29.5824C22.9557 29.5823 22.9554 29.5823 22.9551 29.5822L22.4246 29.4641L22.3502 29.4475L22.3179 29.5166L19.715 35.0869L19.6751 35.1722L19.7601 35.2128L21.0024 35.8054L21.0888 35.8466L21.1294 35.7599L23.289 31.141C23.7451 31.1974 24.2544 31.2518 24.7112 31.2518C30.7388 31.2518 35.6322 26.3499 35.6322 20.3125C35.6322 15.4924 32.4395 11.3252 27.8222 9.93049C27.7252 4.63629 23.3777 0.484494 18.0854 0.484494C12.7912 0.484494 8.44609 4.63794 8.11504 9.92956C3.49608 11.3234 0.301999 15.4913 0.301999 20.3125C0.301999 26.3499 5.19537 31.2518 11.223 31.2518C11.6796 31.2518 12.1887 31.1974 12.6448 31.1411L14.7454 35.7002L14.7857 35.7876L14.8726 35.7461L16.1149 35.1536L16.1995 35.1132L16.1602 35.028L13.6164 29.517L13.5843 29.4475L13.5095 29.4641ZM11.9474 15.0632L11.9464 15.063C11.1001 14.9419 10.2533 15.0631 9.46754 15.4264L9.46752 15.4263L9.46487 15.4277C7.88954 16.2167 6.98239 17.975 7.22444 19.7329C7.46617 21.4883 8.73605 22.9447 10.4935 23.3091C12.1941 23.674 13.949 22.8216 14.8548 21.2488L14.9031 21.1649L14.8183 21.1182L13.6352 20.4664L13.5542 20.4218L13.5074 20.5014C12.9344 21.4773 11.8497 21.9876 10.8295 21.7605L10.8285 21.7603C9.74739 21.5323 8.94535 20.6191 8.7731 19.4688C8.60173 18.3244 9.23152 17.1803 10.1986 16.7244L10.1987 16.7245L10.2026 16.7224C11.1687 16.2101 12.3646 16.437 13.1056 17.2364L13.1727 17.3088L13.2424 17.2389L14.189 16.2908L14.263 16.2166L14.182 16.1502C13.523 15.6101 12.7385 15.1851 11.9474 15.0632ZM19.7418 16.4964C21.1642 16.4964 22.309 17.6941 22.309 19.1866C22.309 20.6791 21.1642 21.8768 19.7418 21.8768C18.3195 21.8768 17.1747 20.6791 17.1747 19.1866C17.1747 17.6955 18.3773 16.4964 19.7418 16.4964ZM19.7418 15.0028C17.4977 15.0028 15.6241 16.9444 15.6241 19.2459C15.6241 21.5464 17.4377 23.4889 19.7418 23.4889C21.986 23.4889 23.8596 21.5473 23.8596 19.2459C23.8596 16.8852 22.0451 15.0028 19.7418 15.0028Z" fill="white" stroke="white" stroke-width="0.189947"/>
</svg>
