<svg width="35" height="33" viewBox="0 0 35 33" fill="none" xmlns="http://www.w3.org/2000/svg">
<mask id="path-1-outside-1_1_930" maskUnits="userSpaceOnUse" x="-0.603027" y="-0.391541" width="36" height="33" fill="black">
<rect fill="white" x="-0.603027" y="-0.391541" width="36" height="33"/>
<path d="M32.7945 17.3163C33.803 17.3163 34.5875 16.5314 34.5875 15.5222C34.5875 15.4661 34.5875 15.354 34.5875 15.2979L32.9626 2.17833C32.8505 1.28126 32.0661 0.608459 31.1696 0.608459H8.47747C8.30938 0.608459 8.19732 0.720593 8.19732 0.888793C8.19732 1.05699 8.30938 1.16913 8.47747 1.16913H31.1696C31.786 1.16913 32.3462 1.61766 32.4023 2.23439L34.0271 15.4101C34.0832 16.0829 33.6349 16.6996 32.9626 16.8117C32.9065 16.8117 32.8505 16.8117 32.7945 16.8117H2.20211C1.52975 16.8117 0.969448 16.2511 0.969448 15.5783C0.969448 15.5222 0.969448 15.4661 0.969448 15.4101L2.59432 2.23439C2.65035 1.61766 3.21065 1.16913 3.82698 1.16913H6.34833C6.51642 1.16913 6.62848 1.05699 6.62848 0.888793C6.62848 0.720593 6.46039 0.608459 6.34833 0.608459H3.82698C2.9305 0.608459 2.14608 1.28126 2.03402 2.17833L0.409148 15.2979C0.297088 16.3071 0.969448 17.2042 1.97799 17.3163C2.03402 17.3163 2.14608 17.3163 2.20211 17.3163H4.55537V18.9983C4.55537 19.7833 5.1717 20.4561 6.01215 20.4561H28.9844C29.3767 20.4561 29.7689 20.2879 29.993 20.0075C30.3292 19.6151 30.4412 19.1105 30.3852 18.6059C30.3852 18.4377 30.2171 18.3255 30.049 18.3816C29.8809 18.3816 29.7689 18.5498 29.8249 18.718C29.8809 19.0544 29.7689 19.3908 29.6008 19.6711C29.4327 19.8393 29.2086 19.9515 28.9844 19.9515H6.01215C5.50788 19.9515 5.11567 19.559 5.11567 19.0544V17.3724H32.7945V17.3163Z"/>
<path d="M4.94758 11.5975C3.99507 11.5975 3.26668 12.3264 3.26668 13.2795C3.26668 14.2327 3.99507 14.9615 4.94758 14.9615C5.90009 14.9615 6.62848 14.2327 6.62848 13.2795C6.62848 12.3825 5.84406 11.5975 4.94758 11.5975ZM4.94758 14.4009C4.33125 14.4009 3.82698 13.8963 3.82698 13.2795C3.82698 12.6628 4.33125 12.1582 4.94758 12.1582C5.56391 12.1582 6.06818 12.6628 6.06818 13.2795C6.06818 13.8963 5.56391 14.4009 4.94758 14.4009Z"/>
<path d="M26.5191 4.02853H8.47747C8.30938 4.02853 8.19732 4.14066 8.19732 4.30886C8.19732 4.47706 8.30938 4.58919 8.47747 4.58919H26.5191C26.6872 4.58919 26.7993 4.47706 26.7993 4.30886C26.7993 4.14066 26.6872 4.02853 26.5191 4.02853Z"/>
<path d="M26.5191 8.68206H8.47747C8.30938 8.68206 8.19732 8.79419 8.19732 8.96239C8.19732 9.13059 8.30938 9.24273 8.47747 9.24273H26.5191C26.6872 9.24273 26.7993 9.13059 26.7993 8.96239C26.7993 8.79419 26.6872 8.68206 26.5191 8.68206Z"/>
<path d="M26.5191 13.3356H8.47747C8.30938 13.3356 8.19732 13.4477 8.19732 13.6159C8.19732 13.7841 8.30938 13.8963 8.47747 13.8963H26.5191C26.6872 13.8963 26.7993 13.7841 26.7993 13.6159C26.7993 13.4477 26.6872 13.3356 26.5191 13.3356Z"/>
<path d="M8.30938 31.6694C8.30938 31.8376 8.42144 31.9497 8.58953 31.9497C8.75762 31.9497 8.86968 31.8376 8.86968 31.6694C8.86968 31.3891 8.98174 31.1648 9.14983 30.9966C9.71013 30.3799 9.71013 29.4828 9.14983 28.9221C8.75762 28.5297 8.75762 27.9129 9.14983 27.5205C9.71013 26.9037 9.71013 26.0067 9.14983 25.446C8.75762 25.0535 8.75762 24.4368 9.14983 24.0443C9.42998 23.764 9.54204 23.3715 9.54204 22.9791C9.54204 22.8109 9.42998 22.6987 9.26189 22.6987C9.0938 22.6987 8.98174 22.8109 8.98174 22.9791C8.98174 23.2594 8.86968 23.4837 8.70159 23.6519C8.14129 24.2686 8.14129 25.1657 8.70159 25.7263C9.0938 26.1188 9.0938 26.7355 8.70159 27.128C8.14129 27.7447 8.14129 28.6418 8.70159 29.2025C9.0938 29.5949 9.0938 30.2117 8.70159 30.6041C8.42144 30.8845 8.30938 31.2769 8.30938 31.6694Z"/>
<path d="M14.1365 31.6694C14.1365 31.8376 14.2486 31.9497 14.4166 31.9497C14.5847 31.9497 14.6968 31.8376 14.6968 31.6694C14.6968 31.3891 14.8089 31.1648 14.9769 30.9966C15.5372 30.3799 15.5372 29.4828 14.9769 28.9221C14.5847 28.5297 14.5847 27.9129 14.9769 27.5205C15.5372 26.9037 15.5372 26.0067 14.9769 25.446C14.5847 25.0535 14.5847 24.4368 14.9769 24.0443C15.2571 23.764 15.3692 23.3715 15.3692 22.9791C15.3692 22.8109 15.2571 22.6987 15.089 22.6987C14.9209 22.6987 14.8089 22.8109 14.8089 22.9791C14.8089 23.2594 14.6968 23.4837 14.5287 23.6519C13.9684 24.2686 13.9684 25.1657 14.5287 25.7263C14.9209 26.1188 14.9209 26.7355 14.5287 27.128C13.9684 27.7447 13.9684 28.6418 14.5287 29.2025C14.9209 29.5949 14.9209 30.2117 14.5287 30.6041C14.3046 30.8845 14.1365 31.2769 14.1365 31.6694Z"/>
<path d="M20.0196 31.6694C20.0196 31.8376 20.1317 31.9497 20.2998 31.9497C20.4679 31.9497 20.5799 31.8376 20.5799 31.6694C20.5799 31.3891 20.692 31.1648 20.8601 30.9966C21.4204 30.3799 21.4204 29.4828 20.8601 28.9221C20.4679 28.5297 20.4679 27.9129 20.8601 27.5205C21.4204 26.9037 21.4204 26.0067 20.8601 25.446C20.4679 25.0535 20.4679 24.4368 20.8601 24.0443C21.1402 23.764 21.2523 23.3715 21.2523 22.9791C21.2523 22.8109 21.1402 22.6987 20.9722 22.6987C20.8041 22.6987 20.692 22.8109 20.692 22.9791C20.692 23.2594 20.58 23.4837 20.4119 23.6519C19.8516 24.2686 19.8516 25.1657 20.4119 25.7263C20.8041 26.1188 20.8041 26.7355 20.4119 27.128C19.8516 27.7447 19.8516 28.6418 20.4119 29.2025C20.8041 29.5949 20.8041 30.2117 20.4119 30.6041C20.1877 30.8845 20.0196 31.2769 20.0196 31.6694Z"/>
<path d="M25.9028 31.6694C25.9028 31.8376 26.0149 31.9497 26.1829 31.9497C26.351 31.9497 26.4631 31.8376 26.4631 31.6694C26.4631 31.3891 26.5752 31.1648 26.7432 30.9966C27.3035 30.3799 27.3035 29.4828 26.7432 28.9221C26.351 28.5297 26.351 27.9129 26.7432 27.5205C27.3035 26.9037 27.3035 26.0067 26.7432 25.446C26.351 25.0535 26.351 24.4368 26.7432 24.0443C27.0234 23.764 27.1355 23.3715 27.1355 22.9791C27.1355 22.8109 27.0234 22.6987 26.8553 22.6987C26.6872 22.6987 26.5752 22.8109 26.5752 22.9791C26.5752 23.2594 26.4631 23.4837 26.295 23.6519C25.7347 24.2686 25.7347 25.1657 26.295 25.7263C26.6872 26.1188 26.6872 26.7355 26.295 27.128C25.7347 27.7447 25.7347 28.6418 26.295 29.2025C26.6872 29.5949 26.6872 30.2117 26.295 30.6041C26.0149 30.8845 25.9028 31.2769 25.9028 31.6694Z"/>
</mask>
<path d="M32.7945 17.3163C33.803 17.3163 34.5875 16.5314 34.5875 15.5222C34.5875 15.4661 34.5875 15.354 34.5875 15.2979L32.9626 2.17833C32.8505 1.28126 32.0661 0.608459 31.1696 0.608459H8.47747C8.30938 0.608459 8.19732 0.720593 8.19732 0.888793C8.19732 1.05699 8.30938 1.16913 8.47747 1.16913H31.1696C31.786 1.16913 32.3462 1.61766 32.4023 2.23439L34.0271 15.4101C34.0832 16.0829 33.6349 16.6996 32.9626 16.8117C32.9065 16.8117 32.8505 16.8117 32.7945 16.8117H2.20211C1.52975 16.8117 0.969448 16.2511 0.969448 15.5783C0.969448 15.5222 0.969448 15.4661 0.969448 15.4101L2.59432 2.23439C2.65035 1.61766 3.21065 1.16913 3.82698 1.16913H6.34833C6.51642 1.16913 6.62848 1.05699 6.62848 0.888793C6.62848 0.720593 6.46039 0.608459 6.34833 0.608459H3.82698C2.9305 0.608459 2.14608 1.28126 2.03402 2.17833L0.409148 15.2979C0.297088 16.3071 0.969448 17.2042 1.97799 17.3163C2.03402 17.3163 2.14608 17.3163 2.20211 17.3163H4.55537V18.9983C4.55537 19.7833 5.1717 20.4561 6.01215 20.4561H28.9844C29.3767 20.4561 29.7689 20.2879 29.993 20.0075C30.3292 19.6151 30.4412 19.1105 30.3852 18.6059C30.3852 18.4377 30.2171 18.3255 30.049 18.3816C29.8809 18.3816 29.7689 18.5498 29.8249 18.718C29.8809 19.0544 29.7689 19.3908 29.6008 19.6711C29.4327 19.8393 29.2086 19.9515 28.9844 19.9515H6.01215C5.50788 19.9515 5.11567 19.559 5.11567 19.0544V17.3724H32.7945V17.3163Z" fill="white"/>
<path d="M4.94758 11.5975C3.99507 11.5975 3.26668 12.3264 3.26668 13.2795C3.26668 14.2327 3.99507 14.9615 4.94758 14.9615C5.90009 14.9615 6.62848 14.2327 6.62848 13.2795C6.62848 12.3825 5.84406 11.5975 4.94758 11.5975ZM4.94758 14.4009C4.33125 14.4009 3.82698 13.8963 3.82698 13.2795C3.82698 12.6628 4.33125 12.1582 4.94758 12.1582C5.56391 12.1582 6.06818 12.6628 6.06818 13.2795C6.06818 13.8963 5.56391 14.4009 4.94758 14.4009Z" fill="white"/>
<path d="M26.5191 4.02853H8.47747C8.30938 4.02853 8.19732 4.14066 8.19732 4.30886C8.19732 4.47706 8.30938 4.58919 8.47747 4.58919H26.5191C26.6872 4.58919 26.7993 4.47706 26.7993 4.30886C26.7993 4.14066 26.6872 4.02853 26.5191 4.02853Z" fill="white"/>
<path d="M26.5191 8.68206H8.47747C8.30938 8.68206 8.19732 8.79419 8.19732 8.96239C8.19732 9.13059 8.30938 9.24273 8.47747 9.24273H26.5191C26.6872 9.24273 26.7993 9.13059 26.7993 8.96239C26.7993 8.79419 26.6872 8.68206 26.5191 8.68206Z" fill="white"/>
<path d="M26.5191 13.3356H8.47747C8.30938 13.3356 8.19732 13.4477 8.19732 13.6159C8.19732 13.7841 8.30938 13.8963 8.47747 13.8963H26.5191C26.6872 13.8963 26.7993 13.7841 26.7993 13.6159C26.7993 13.4477 26.6872 13.3356 26.5191 13.3356Z" fill="white"/>
<path d="M8.30938 31.6694C8.30938 31.8376 8.42144 31.9497 8.58953 31.9497C8.75762 31.9497 8.86968 31.8376 8.86968 31.6694C8.86968 31.3891 8.98174 31.1648 9.14983 30.9966C9.71013 30.3799 9.71013 29.4828 9.14983 28.9221C8.75762 28.5297 8.75762 27.9129 9.14983 27.5205C9.71013 26.9037 9.71013 26.0067 9.14983 25.446C8.75762 25.0535 8.75762 24.4368 9.14983 24.0443C9.42998 23.764 9.54204 23.3715 9.54204 22.9791C9.54204 22.8109 9.42998 22.6987 9.26189 22.6987C9.0938 22.6987 8.98174 22.8109 8.98174 22.9791C8.98174 23.2594 8.86968 23.4837 8.70159 23.6519C8.14129 24.2686 8.14129 25.1657 8.70159 25.7263C9.0938 26.1188 9.0938 26.7355 8.70159 27.128C8.14129 27.7447 8.14129 28.6418 8.70159 29.2025C9.0938 29.5949 9.0938 30.2117 8.70159 30.6041C8.42144 30.8845 8.30938 31.2769 8.30938 31.6694Z" fill="white"/>
<path d="M14.1365 31.6694C14.1365 31.8376 14.2486 31.9497 14.4166 31.9497C14.5847 31.9497 14.6968 31.8376 14.6968 31.6694C14.6968 31.3891 14.8089 31.1648 14.9769 30.9966C15.5372 30.3799 15.5372 29.4828 14.9769 28.9221C14.5847 28.5297 14.5847 27.9129 14.9769 27.5205C15.5372 26.9037 15.5372 26.0067 14.9769 25.446C14.5847 25.0535 14.5847 24.4368 14.9769 24.0443C15.2571 23.764 15.3692 23.3715 15.3692 22.9791C15.3692 22.8109 15.2571 22.6987 15.089 22.6987C14.9209 22.6987 14.8089 22.8109 14.8089 22.9791C14.8089 23.2594 14.6968 23.4837 14.5287 23.6519C13.9684 24.2686 13.9684 25.1657 14.5287 25.7263C14.9209 26.1188 14.9209 26.7355 14.5287 27.128C13.9684 27.7447 13.9684 28.6418 14.5287 29.2025C14.9209 29.5949 14.9209 30.2117 14.5287 30.6041C14.3046 30.8845 14.1365 31.2769 14.1365 31.6694Z" fill="white"/>
<path d="M20.0196 31.6694C20.0196 31.8376 20.1317 31.9497 20.2998 31.9497C20.4679 31.9497 20.5799 31.8376 20.5799 31.6694C20.5799 31.3891 20.692 31.1648 20.8601 30.9966C21.4204 30.3799 21.4204 29.4828 20.8601 28.9221C20.4679 28.5297 20.4679 27.9129 20.8601 27.5205C21.4204 26.9037 21.4204 26.0067 20.8601 25.446C20.4679 25.0535 20.4679 24.4368 20.8601 24.0443C21.1402 23.764 21.2523 23.3715 21.2523 22.9791C21.2523 22.8109 21.1402 22.6987 20.9722 22.6987C20.8041 22.6987 20.692 22.8109 20.692 22.9791C20.692 23.2594 20.58 23.4837 20.4119 23.6519C19.8516 24.2686 19.8516 25.1657 20.4119 25.7263C20.8041 26.1188 20.8041 26.7355 20.4119 27.128C19.8516 27.7447 19.8516 28.6418 20.4119 29.2025C20.8041 29.5949 20.8041 30.2117 20.4119 30.6041C20.1877 30.8845 20.0196 31.2769 20.0196 31.6694Z" fill="white"/>
<path d="M25.9028 31.6694C25.9028 31.8376 26.0149 31.9497 26.1829 31.9497C26.351 31.9497 26.4631 31.8376 26.4631 31.6694C26.4631 31.3891 26.5752 31.1648 26.7432 30.9966C27.3035 30.3799 27.3035 29.4828 26.7432 28.9221C26.351 28.5297 26.351 27.9129 26.7432 27.5205C27.3035 26.9037 27.3035 26.0067 26.7432 25.446C26.351 25.0535 26.351 24.4368 26.7432 24.0443C27.0234 23.764 27.1355 23.3715 27.1355 22.9791C27.1355 22.8109 27.0234 22.6987 26.8553 22.6987C26.6872 22.6987 26.5752 22.8109 26.5752 22.9791C26.5752 23.2594 26.4631 23.4837 26.295 23.6519C25.7347 24.2686 25.7347 25.1657 26.295 25.7263C26.6872 26.1188 26.6872 26.7355 26.295 27.128C25.7347 27.7447 25.7347 28.6418 26.295 29.2025C26.6872 29.5949 26.6872 30.2117 26.295 30.6041C26.0149 30.8845 25.9028 31.2769 25.9028 31.6694Z" fill="white"/>
<path d="M32.7945 17.3163C33.803 17.3163 34.5875 16.5314 34.5875 15.5222C34.5875 15.4661 34.5875 15.354 34.5875 15.2979L32.9626 2.17833C32.8505 1.28126 32.0661 0.608459 31.1696 0.608459H8.47747C8.30938 0.608459 8.19732 0.720593 8.19732 0.888793C8.19732 1.05699 8.30938 1.16913 8.47747 1.16913H31.1696C31.786 1.16913 32.3462 1.61766 32.4023 2.23439L34.0271 15.4101C34.0832 16.0829 33.6349 16.6996 32.9626 16.8117C32.9065 16.8117 32.8505 16.8117 32.7945 16.8117H2.20211C1.52975 16.8117 0.969448 16.2511 0.969448 15.5783C0.969448 15.5222 0.969448 15.4661 0.969448 15.4101L2.59432 2.23439C2.65035 1.61766 3.21065 1.16913 3.82698 1.16913H6.34833C6.51642 1.16913 6.62848 1.05699 6.62848 0.888793C6.62848 0.720593 6.46039 0.608459 6.34833 0.608459H3.82698C2.9305 0.608459 2.14608 1.28126 2.03402 2.17833L0.409148 15.2979C0.297088 16.3071 0.969448 17.2042 1.97799 17.3163C2.03402 17.3163 2.14608 17.3163 2.20211 17.3163H4.55537V18.9983C4.55537 19.7833 5.1717 20.4561 6.01215 20.4561H28.9844C29.3767 20.4561 29.7689 20.2879 29.993 20.0075C30.3292 19.6151 30.4412 19.1105 30.3852 18.6059C30.3852 18.4377 30.2171 18.3255 30.049 18.3816C29.8809 18.3816 29.7689 18.5498 29.8249 18.718C29.8809 19.0544 29.7689 19.3908 29.6008 19.6711C29.4327 19.8393 29.2086 19.9515 28.9844 19.9515H6.01215C5.50788 19.9515 5.11567 19.559 5.11567 19.0544V17.3724H32.7945V17.3163Z" stroke="white" stroke-width="0.379894" mask="url(#path-1-outside-1_1_930)"/>
<path d="M4.94758 11.5975C3.99507 11.5975 3.26668 12.3264 3.26668 13.2795C3.26668 14.2327 3.99507 14.9615 4.94758 14.9615C5.90009 14.9615 6.62848 14.2327 6.62848 13.2795C6.62848 12.3825 5.84406 11.5975 4.94758 11.5975ZM4.94758 14.4009C4.33125 14.4009 3.82698 13.8963 3.82698 13.2795C3.82698 12.6628 4.33125 12.1582 4.94758 12.1582C5.56391 12.1582 6.06818 12.6628 6.06818 13.2795C6.06818 13.8963 5.56391 14.4009 4.94758 14.4009Z" stroke="white" stroke-width="0.379894" mask="url(#path-1-outside-1_1_930)"/>
<path d="M26.5191 4.02853H8.47747C8.30938 4.02853 8.19732 4.14066 8.19732 4.30886C8.19732 4.47706 8.30938 4.58919 8.47747 4.58919H26.5191C26.6872 4.58919 26.7993 4.47706 26.7993 4.30886C26.7993 4.14066 26.6872 4.02853 26.5191 4.02853Z" stroke="white" stroke-width="0.379894" mask="url(#path-1-outside-1_1_930)"/>
<path d="M26.5191 8.68206H8.47747C8.30938 8.68206 8.19732 8.79419 8.19732 8.96239C8.19732 9.13059 8.30938 9.24273 8.47747 9.24273H26.5191C26.6872 9.24273 26.7993 9.13059 26.7993 8.96239C26.7993 8.79419 26.6872 8.68206 26.5191 8.68206Z" stroke="white" stroke-width="0.379894" mask="url(#path-1-outside-1_1_930)"/>
<path d="M26.5191 13.3356H8.47747C8.30938 13.3356 8.19732 13.4477 8.19732 13.6159C8.19732 13.7841 8.30938 13.8963 8.47747 13.8963H26.5191C26.6872 13.8963 26.7993 13.7841 26.7993 13.6159C26.7993 13.4477 26.6872 13.3356 26.5191 13.3356Z" stroke="white" stroke-width="0.379894" mask="url(#path-1-outside-1_1_930)"/>
<path d="M8.30938 31.6694C8.30938 31.8376 8.42144 31.9497 8.58953 31.9497C8.75762 31.9497 8.86968 31.8376 8.86968 31.6694C8.86968 31.3891 8.98174 31.1648 9.14983 30.9966C9.71013 30.3799 9.71013 29.4828 9.14983 28.9221C8.75762 28.5297 8.75762 27.9129 9.14983 27.5205C9.71013 26.9037 9.71013 26.0067 9.14983 25.446C8.75762 25.0535 8.75762 24.4368 9.14983 24.0443C9.42998 23.764 9.54204 23.3715 9.54204 22.9791C9.54204 22.8109 9.42998 22.6987 9.26189 22.6987C9.0938 22.6987 8.98174 22.8109 8.98174 22.9791C8.98174 23.2594 8.86968 23.4837 8.70159 23.6519C8.14129 24.2686 8.14129 25.1657 8.70159 25.7263C9.0938 26.1188 9.0938 26.7355 8.70159 27.128C8.14129 27.7447 8.14129 28.6418 8.70159 29.2025C9.0938 29.5949 9.0938 30.2117 8.70159 30.6041C8.42144 30.8845 8.30938 31.2769 8.30938 31.6694Z" stroke="white" stroke-width="0.379894" mask="url(#path-1-outside-1_1_930)"/>
<path d="M14.1365 31.6694C14.1365 31.8376 14.2486 31.9497 14.4166 31.9497C14.5847 31.9497 14.6968 31.8376 14.6968 31.6694C14.6968 31.3891 14.8089 31.1648 14.9769 30.9966C15.5372 30.3799 15.5372 29.4828 14.9769 28.9221C14.5847 28.5297 14.5847 27.9129 14.9769 27.5205C15.5372 26.9037 15.5372 26.0067 14.9769 25.446C14.5847 25.0535 14.5847 24.4368 14.9769 24.0443C15.2571 23.764 15.3692 23.3715 15.3692 22.9791C15.3692 22.8109 15.2571 22.6987 15.089 22.6987C14.9209 22.6987 14.8089 22.8109 14.8089 22.9791C14.8089 23.2594 14.6968 23.4837 14.5287 23.6519C13.9684 24.2686 13.9684 25.1657 14.5287 25.7263C14.9209 26.1188 14.9209 26.7355 14.5287 27.128C13.9684 27.7447 13.9684 28.6418 14.5287 29.2025C14.9209 29.5949 14.9209 30.2117 14.5287 30.6041C14.3046 30.8845 14.1365 31.2769 14.1365 31.6694Z" stroke="white" stroke-width="0.379894" mask="url(#path-1-outside-1_1_930)"/>
<path d="M20.0196 31.6694C20.0196 31.8376 20.1317 31.9497 20.2998 31.9497C20.4679 31.9497 20.5799 31.8376 20.5799 31.6694C20.5799 31.3891 20.692 31.1648 20.8601 30.9966C21.4204 30.3799 21.4204 29.4828 20.8601 28.9221C20.4679 28.5297 20.4679 27.9129 20.8601 27.5205C21.4204 26.9037 21.4204 26.0067 20.8601 25.446C20.4679 25.0535 20.4679 24.4368 20.8601 24.0443C21.1402 23.764 21.2523 23.3715 21.2523 22.9791C21.2523 22.8109 21.1402 22.6987 20.9722 22.6987C20.8041 22.6987 20.692 22.8109 20.692 22.9791C20.692 23.2594 20.58 23.4837 20.4119 23.6519C19.8516 24.2686 19.8516 25.1657 20.4119 25.7263C20.8041 26.1188 20.8041 26.7355 20.4119 27.128C19.8516 27.7447 19.8516 28.6418 20.4119 29.2025C20.8041 29.5949 20.8041 30.2117 20.4119 30.6041C20.1877 30.8845 20.0196 31.2769 20.0196 31.6694Z" stroke="white" stroke-width="0.379894" mask="url(#path-1-outside-1_1_930)"/>
<path d="M25.9028 31.6694C25.9028 31.8376 26.0149 31.9497 26.1829 31.9497C26.351 31.9497 26.4631 31.8376 26.4631 31.6694C26.4631 31.3891 26.5752 31.1648 26.7432 30.9966C27.3035 30.3799 27.3035 29.4828 26.7432 28.9221C26.351 28.5297 26.351 27.9129 26.7432 27.5205C27.3035 26.9037 27.3035 26.0067 26.7432 25.446C26.351 25.0535 26.351 24.4368 26.7432 24.0443C27.0234 23.764 27.1355 23.3715 27.1355 22.9791C27.1355 22.8109 27.0234 22.6987 26.8553 22.6987C26.6872 22.6987 26.5752 22.8109 26.5752 22.9791C26.5752 23.2594 26.4631 23.4837 26.295 23.6519C25.7347 24.2686 25.7347 25.1657 26.295 25.7263C26.6872 26.1188 26.6872 26.7355 26.295 27.128C25.7347 27.7447 25.7347 28.6418 26.295 29.2025C26.6872 29.5949 26.6872 30.2117 26.295 30.6041C26.0149 30.8845 25.9028 31.2769 25.9028 31.6694Z" stroke="white" stroke-width="0.379894" mask="url(#path-1-outside-1_1_930)"/>
</svg>
