<svg width="34" height="35" viewBox="0 0 34 35" fill="none" xmlns="http://www.w3.org/2000/svg">
<path d="M30.6437 10.0995L32.7635 11.2759C32.7639 11.2762 32.7644 11.2765 32.7648 11.2767C33.0679 11.4574 33.4247 11.3309 33.5979 11.0424C33.7801 10.7391 33.6533 10.3818 33.3641 10.2085L33.3642 10.2084L33.3618 10.2071L17.2681 1.16372C17.0867 1.04475 16.8474 1.04475 16.666 1.16372L0.572267 10.2071L0.572249 10.2071L0.569966 10.2085C0.280786 10.3818 0.154023 10.7391 0.336166 11.0424C0.509439 11.3309 0.866128 11.4574 1.16921 11.2768L3.29045 10.0995V17.325C3.29045 17.4974 3.34838 17.6484 3.45663 17.7565C3.56487 17.8647 3.71598 17.9225 3.88844 17.9225C4.0609 17.9225 4.21201 17.8647 4.32026 17.7565C4.42851 17.6484 4.48644 17.4974 4.48644 17.325V9.44094L16.9671 2.4091L29.4477 9.44094V17.325C29.4477 17.4974 29.5056 17.6484 29.6138 17.7565C29.7221 17.8647 29.8732 17.9225 30.0457 17.9225C30.2181 17.9225 30.3692 17.8647 30.4775 17.7565C30.5857 17.6484 30.6437 17.4974 30.6437 17.325V10.0995ZM29.4477 26.3701V33.3102H4.48644V26.3701C4.48644 26.1978 4.42851 26.0468 4.32026 25.9386C4.21201 25.8305 4.0609 25.7726 3.88844 25.7726C3.71598 25.7726 3.56487 25.8305 3.45663 25.9386C3.34838 26.0468 3.29045 26.1978 3.29045 26.3701V33.3102H0.870304C0.697845 33.3102 0.546735 33.3681 0.438491 33.4762C0.330239 33.5843 0.272308 33.7353 0.272308 33.9077C0.272308 34.0801 0.330238 34.2311 0.438491 34.3392C0.546734 34.4473 0.697845 34.5052 0.870304 34.5052H33.0638C33.2363 34.5052 33.3874 34.4473 33.4956 34.3392C33.6039 34.2311 33.6618 34.0801 33.6618 33.9077C33.6618 33.7353 33.6039 33.5843 33.4956 33.4762C33.3874 33.3681 33.2363 33.3102 33.0638 33.3102H30.6437V26.3701C30.6437 26.1978 30.5857 26.0468 30.4775 25.9386C30.3692 25.8305 30.2181 25.7726 30.0457 25.7726C29.8732 25.7726 29.7221 25.8305 29.6138 25.9386C29.5056 26.0468 29.4477 26.1978 29.4477 26.3701ZM9.00246 18.749L11.5062 21.2501H0.870304C0.697844 21.2501 0.546734 21.3079 0.438491 21.4161C0.330238 21.5242 0.272308 21.6752 0.272308 21.8476C0.272308 22.0199 0.330239 22.1709 0.438491 22.2791C0.546734 22.3872 0.697844 22.445 0.870304 22.445H11.5062L9.00246 24.9462C8.76412 25.1843 8.76412 25.546 9.00246 25.7841C9.24075 26.0221 9.60265 26.0221 9.84094 25.7841L13.3621 22.2665C13.6004 22.0284 13.6004 21.6667 13.3621 21.4286L9.84094 17.9111C9.60265 17.673 9.24075 17.673 9.00246 17.9111C8.76412 18.1492 8.76412 18.5109 9.00246 18.749ZM33.6618 21.8476C33.6618 21.6752 33.6039 21.5242 33.4956 21.4161C33.3874 21.3079 33.2363 21.2501 33.0638 21.2501H22.4279L24.9316 18.749C25.17 18.5109 25.17 18.1492 24.9316 17.9111C24.6933 17.673 24.3315 17.673 24.0932 17.9111L20.572 21.4286C20.3337 21.6667 20.3337 22.0284 20.572 22.2665L24.0932 25.7841C24.3315 26.0221 24.6933 26.0221 24.9316 25.7841C25.17 25.546 25.17 25.1843 24.9316 24.9462L22.4279 22.445H33.0638C33.2363 22.445 33.3874 22.3872 33.4956 22.2791C33.6039 22.1709 33.6618 22.0199 33.6618 21.8476Z" fill="white" stroke="white" stroke-width="0.189947"/>
</svg>
