<svg width="43" height="43" viewBox="0 0 43 43" fill="none" xmlns="http://www.w3.org/2000/svg">
<mask id="path-1-outside-1_299_3" maskUnits="userSpaceOnUse" x="0" y="0" width="43" height="43" fill="black">
<rect fill="white" width="43" height="43"/>
<path d="M6.82833 41.9163H5.03629C4.60084 41.9163 4.24075 41.682 4.03978 41.2553C3.95604 41.0796 3.90579 40.8955 3.88067 40.7114L3.59595 39.0547C3.55408 38.8288 3.71319 38.6112 3.93929 38.5694C4.16539 38.5276 4.38311 38.6865 4.42498 38.9124L4.7097 40.5859C4.7097 40.5943 4.7097 40.611 4.7097 40.6194C4.7097 40.6278 4.76832 41.0712 5.03629 41.0712H6.82833C7.10467 41.0712 7.14654 40.6278 7.14654 40.611C7.14654 40.5943 7.14654 40.5859 7.15492 40.5776L7.43964 38.9124C7.48151 38.6865 7.69923 38.5359 7.92533 38.5694C8.15143 38.6029 8.30216 38.8288 8.26867 39.0547L7.98395 40.7031C7.94208 41.1382 7.64899 41.9163 6.82833 41.9163Z"/>
<path d="M24.5227 42H22.7306C22.2952 42 21.9351 41.7657 21.7341 41.339C21.6504 41.1633 21.6001 40.9792 21.575 40.7951L21.2903 39.1384C21.2568 38.9124 21.4159 38.6949 21.6504 38.6698C21.8681 38.6363 22.0691 38.7869 22.1193 38.9961L22.404 40.6696C22.404 40.678 22.404 40.6947 22.404 40.7031C22.404 40.7114 22.4543 41.1633 22.7306 41.1633H24.5227C24.799 41.1633 24.8493 40.7114 24.8493 40.7031C24.8493 40.6947 24.8493 40.678 24.8493 40.6696L25.134 39.0045C25.1759 38.7786 25.3936 38.628 25.6197 38.6614C25.8458 38.6949 25.9965 38.9208 25.963 39.1467L25.6783 40.7951C25.6364 41.2218 25.3433 42 24.5227 42Z"/>
<path d="M25.4271 39.3224H4.12352C2.39846 39.3224 1 37.9251 1 36.2014V4.12102C1 2.39735 2.39846 1 4.12352 1H25.4271C27.1521 1 28.5506 2.39735 28.5506 4.12102V36.2014C28.5506 37.9251 27.1521 39.3224 25.4271 39.3224ZM4.12352 1.83673C2.85904 1.83673 1.8374 2.85755 1.8374 4.12102V36.2014C1.8374 37.4649 2.85904 38.4857 4.12352 38.4857H25.4271C26.6916 38.4857 27.7132 37.4649 27.7132 36.2014V4.12102C27.7132 2.85755 26.6916 1.83673 25.4271 1.83673H4.12352Z"/>
<path d="M14.9846 35.3898H14.4822C13.3266 35.3898 12.3887 34.4527 12.3887 33.298V26.9388C12.3887 25.7841 13.3266 24.8469 14.4822 24.8469H14.9846C16.1403 24.8469 17.0782 25.7841 17.0782 26.9388V33.298C17.0782 34.4527 16.1403 35.3898 14.9846 35.3898ZM14.4822 25.6837C13.7872 25.6837 13.2261 26.2443 13.2261 26.9388V33.298C13.2261 33.9924 13.7872 34.5531 14.4822 34.5531H14.9846C15.6797 34.5531 16.2408 33.9924 16.2408 33.298V26.9388C16.2408 26.2443 15.6797 25.6837 14.9846 25.6837H14.4822Z"/>
<path d="M36.2463 34.7371H36.0872C34.4124 34.7371 33.0391 33.6996 32.746 32.2186C32.4278 30.5953 33.3489 29.3402 34.1696 28.2273C34.471 27.8341 34.7474 27.4241 34.9986 26.9973C35.3084 26.4535 35.5513 25.8678 35.7104 25.2569C35.7523 25.0729 35.9281 24.939 36.1207 24.939H36.238C36.4306 24.939 36.598 25.0729 36.6483 25.2569C36.8158 25.8678 37.0502 26.4451 37.3601 26.9973C37.6113 27.4241 37.8876 27.8341 38.1891 28.2273C39.0014 29.3402 39.9309 30.612 39.6127 32.2269C39.3112 33.6996 37.9295 34.7371 36.2463 34.7371ZM36.171 26.4786C36.037 26.7965 35.8862 27.0978 35.7271 27.399C35.4592 27.8592 35.1661 28.2943 34.8395 28.721C34.0607 29.7837 33.3238 30.7878 33.5666 32.0596C33.8095 33.3314 35.0153 33.9004 36.0872 33.9004H36.2463C37.7453 33.9004 38.5911 32.98 38.7753 32.0596C39.0265 30.7961 38.2812 29.7837 37.5024 28.7127C37.1842 28.2943 36.8828 27.8508 36.6232 27.3906C36.4557 27.0894 36.3049 26.7882 36.171 26.4786Z"/>
<path d="M36.2128 5.37612C35.4927 5.37612 34.873 5.06653 34.2114 4.40551C33.6671 3.86163 32.9553 3.70265 32.0761 3.9202C31.6322 4.03735 31.2052 4.22143 30.82 4.47245C30.6274 4.59796 30.3678 4.53939 30.2421 4.33857C30.1249 4.15449 30.1668 3.91184 30.3426 3.77796C31.247 3.15041 33.3405 2.34714 34.7976 3.80306C35.501 4.50592 36.0119 4.6649 36.8409 4.43898C37.2428 4.3302 37.5192 4.06245 37.8207 3.78633C38.1221 3.5102 38.4403 3.20898 38.8842 3.05C39.9393 2.67347 41.0279 2.93286 41.8569 3.77796C42.0328 3.92857 42.0495 4.19633 41.8904 4.37204C41.7397 4.54776 41.4717 4.56449 41.2959 4.40551C41.2791 4.39714 41.2708 4.38041 41.254 4.36367C40.6511 3.75286 39.9058 3.56878 39.1605 3.83653C38.8758 3.93694 38.6497 4.15449 38.3817 4.39714C38.0384 4.7151 37.6448 5.08327 37.0502 5.25061C36.7906 5.32592 36.5059 5.36776 36.2128 5.37612Z"/>
<path d="M36.2128 9.72714C35.4927 9.72714 34.873 9.41755 34.2114 8.75653C32.88 7.42612 30.8451 8.8151 30.8283 8.83184C30.6441 8.96571 30.3761 8.92388 30.2421 8.7398C30.1082 8.55571 30.15 8.28796 30.3343 8.15408C30.3426 8.15408 30.3426 8.14571 30.351 8.14571C31.2554 7.51816 33.3489 6.7149 34.806 8.17082C35.5094 8.87367 36.0202 9.03265 36.8409 8.80673C37.2428 8.69796 37.5192 8.4302 37.8207 8.15408C38.1221 7.87796 38.4403 7.57673 38.8842 7.41775C39.9393 7.04122 41.0279 7.30061 41.8569 8.14571C42.0077 8.32143 41.9909 8.58918 41.8151 8.7398C41.656 8.87367 41.4215 8.87367 41.2624 8.73143C40.6594 8.12061 39.9142 7.93653 39.1689 8.20429C38.8842 8.30469 38.6581 8.52225 38.3901 8.7649C38.0467 9.08286 37.6532 9.45102 37.0586 9.61837C36.7906 9.67694 36.5059 9.71878 36.2128 9.72714Z"/>
<path d="M36.2128 14.0698C35.4927 14.0698 34.873 13.7602 34.2114 13.0992C33.6671 12.5553 32.9553 12.3963 32.0761 12.6139C31.6322 12.731 31.2052 12.9151 30.82 13.1661C30.6274 13.3 30.3678 13.2498 30.2421 13.0573C30.1165 12.8649 30.1584 12.6139 30.351 12.48C31.2554 11.8524 33.3489 11.0492 34.806 12.5051C35.5094 13.208 36.0202 13.3669 36.8409 13.141C37.2428 13.0322 37.5192 12.7645 37.8207 12.4884C38.1221 12.2122 38.4403 11.911 38.8842 11.752C39.9393 11.3671 41.0279 11.6349 41.8569 12.48C42.0077 12.6557 41.9909 12.9235 41.8151 13.0741C41.656 13.208 41.4215 13.208 41.2624 13.0657C40.6594 12.4549 39.9142 12.2708 39.1689 12.5386C38.8842 12.639 38.6581 12.8565 38.3901 13.0992C38.0467 13.4171 37.6532 13.7853 37.0586 13.9443C36.7906 14.028 36.5059 14.0698 36.2128 14.0698Z"/>
<path d="M36.2128 18.5045C35.4927 18.5045 34.873 18.1949 34.2114 17.5339C33.6671 16.99 32.9553 16.831 32.0761 17.0486C31.6322 17.1657 31.2052 17.3498 30.82 17.6008C30.6274 17.7347 30.3678 17.6845 30.2421 17.492C30.1165 17.2996 30.1584 17.0486 30.351 16.9147C31.2554 16.2871 33.3489 15.4839 34.806 16.9398C35.5094 17.6427 36.0202 17.8016 36.8409 17.5757C37.2428 17.4669 37.5192 17.1992 37.8207 16.9231C38.1221 16.6469 38.4403 16.3457 38.8842 16.1867C39.9393 15.8018 41.0279 16.0696 41.8569 16.9147C42.0077 17.0904 41.9909 17.3582 41.8151 17.5088C41.656 17.6427 41.4215 17.6427 41.2624 17.5004C40.6594 16.8896 39.9142 16.7055 39.1689 16.9733C38.8842 17.0737 38.6581 17.2912 38.3901 17.5339C38.0467 17.8518 37.6532 18.22 37.0586 18.379C36.7906 18.4627 36.5059 18.5045 36.2128 18.5045Z"/>
<path d="M36.2128 22.9392C35.4927 22.9392 34.873 22.6296 34.2114 21.9686C33.6671 21.4247 32.9553 21.2657 32.0761 21.4833C31.6322 21.6004 31.2052 21.7845 30.82 22.0355C30.6274 22.1694 30.3678 22.1192 30.2421 21.9267C30.1165 21.7343 30.1584 21.4833 30.351 21.3494C31.2554 20.7218 33.3489 19.9186 34.806 21.3745C35.5094 22.0773 36.0202 22.2363 36.8409 22.0104C37.2428 21.9016 37.5192 21.6339 37.8207 21.3578C38.1221 21.0816 38.4403 20.7804 38.8842 20.6214C39.9393 20.2365 41.0279 20.5043 41.8569 21.3494C42.0077 21.5251 41.9909 21.7929 41.8151 21.9435C41.656 22.0773 41.4215 22.0773 41.2624 21.9351C40.6594 21.3243 39.9142 21.1402 39.1689 21.408C38.8842 21.5084 38.6581 21.7259 38.3901 21.9686C38.0467 22.2865 37.6532 22.6547 37.0586 22.8137C36.7906 22.8973 36.5059 22.9392 36.2128 22.9392Z"/>
<path d="M23.1912 18.4878H6.35939C6.12491 18.4878 5.94068 18.3037 5.94068 18.0694C5.94068 17.8351 6.12491 17.651 6.35939 17.651H23.1912C23.4257 17.651 23.6099 17.8351 23.6099 18.0694C23.6099 18.3037 23.4257 18.4878 23.1912 18.4878Z"/>
<path d="M23.1912 16.1951H6.35939C6.12491 16.1951 5.94068 16.011 5.94068 15.7767C5.94068 15.5424 6.12491 15.3584 6.35939 15.3584H23.1912C23.4257 15.3584 23.6099 15.5424 23.6099 15.7767C23.6099 16.011 23.4257 16.1951 23.1912 16.1951Z"/>
<path d="M23.1912 13.9945H6.35939C6.12491 13.9945 5.94068 13.8104 5.94068 13.5761C5.94068 13.3418 6.12491 13.1578 6.35939 13.1578H23.1912C23.4257 13.1578 23.6099 13.3418 23.6099 13.5761C23.6099 13.8104 23.4257 13.9945 23.1912 13.9945Z"/>
<path d="M23.1912 11.7939H6.35939C6.12491 11.7939 5.94068 11.6098 5.94068 11.3755C5.94068 11.1412 6.12491 10.9571 6.35939 10.9571H23.1912C23.4257 10.9571 23.6099 11.1412 23.6099 11.3755C23.6099 11.6098 23.4257 11.7939 23.1912 11.7939Z"/>
<path d="M23.1912 9.59327H6.35939C6.12491 9.59327 5.94068 9.40918 5.94068 9.1749C5.94068 8.94061 6.12491 8.75653 6.35939 8.75653H23.1912C23.4257 8.75653 23.6099 8.94061 23.6099 9.1749C23.6099 9.40918 23.4257 9.59327 23.1912 9.59327Z"/>
<path d="M23.1912 7.39265H6.35939C6.12491 7.39265 5.94068 7.20857 5.94068 6.97429C5.94068 6.74 6.12491 6.55592 6.35939 6.55592H23.1912C23.4257 6.55592 23.6099 6.74 23.6099 6.97429C23.6099 7.20857 23.4257 7.39265 23.1912 7.39265Z"/>
<path d="M23.1912 5.1H6.35939C6.12491 5.1 5.94068 4.91592 5.94068 4.68163C5.94068 4.44735 6.12491 4.26327 6.35939 4.26327H23.1912C23.4257 4.26327 23.6099 4.44735 23.6099 4.68163C23.6099 4.91592 23.4257 5.1 23.1912 5.1Z"/>
<path d="M26.1221 22.3367C26.1221 22.1024 26.3063 21.9184 26.5408 21.9184C26.7753 21.9184 26.9595 22.1024 26.9595 22.3367C26.9595 22.571 26.7753 22.7551 26.5408 22.7551C26.3063 22.7551 26.1221 22.571 26.1221 22.3367ZM24.4473 22.3367C24.4473 22.1024 24.6315 21.9184 24.866 21.9184C25.1005 21.9184 25.2847 22.1024 25.2847 22.3367C25.2847 22.571 25.1005 22.7551 24.866 22.7551C24.6315 22.7551 24.4473 22.571 24.4473 22.3367ZM22.7725 22.3367C22.7725 22.1024 22.9567 21.9184 23.1912 21.9184C23.4257 21.9184 23.6099 22.1024 23.6099 22.3367C23.6099 22.571 23.4257 22.7551 23.1912 22.7551C22.9567 22.7551 22.7725 22.571 22.7725 22.3367ZM21.0977 22.3367C21.0977 22.1024 21.2819 21.9184 21.5164 21.9184C21.7509 21.9184 21.9351 22.1024 21.9351 22.3367C21.9351 22.571 21.7509 22.7551 21.5164 22.7551C21.2819 22.7551 21.0977 22.571 21.0977 22.3367ZM19.4229 22.3367C19.4229 22.1024 19.6071 21.9184 19.8416 21.9184C20.0761 21.9184 20.2603 22.1024 20.2603 22.3367C20.2603 22.571 20.0761 22.7551 19.8416 22.7551C19.6071 22.7551 19.4229 22.571 19.4229 22.3367ZM17.7481 22.3367C17.7481 22.1024 17.9323 21.9184 18.1668 21.9184C18.4013 21.9184 18.5855 22.1024 18.5855 22.3367C18.5855 22.571 18.4013 22.7551 18.1668 22.7551C17.9323 22.7551 17.7481 22.571 17.7481 22.3367ZM16.0733 22.3367C16.0733 22.1024 16.2575 21.9184 16.492 21.9184C16.7264 21.9184 16.9107 22.1024 16.9107 22.3367C16.9107 22.571 16.7264 22.7551 16.492 22.7551C16.2575 22.7551 16.0733 22.571 16.0733 22.3367ZM14.3985 22.3367C14.3985 22.1024 14.5827 21.9184 14.8172 21.9184C15.0516 21.9184 15.2359 22.1024 15.2359 22.3367C15.2359 22.571 15.0516 22.7551 14.8172 22.7551C14.5827 22.7551 14.3985 22.571 14.3985 22.3367ZM12.7237 22.3367C12.7237 22.1024 12.9079 21.9184 13.1424 21.9184C13.3768 21.9184 13.5611 22.1024 13.5611 22.3367C13.5611 22.571 13.3768 22.7551 13.1424 22.7551C12.9079 22.7551 12.7237 22.571 12.7237 22.3367ZM11.0488 22.3367C11.0488 22.1024 11.2331 21.9184 11.4675 21.9184C11.702 21.9184 11.8863 22.1024 11.8863 22.3367C11.8863 22.571 11.702 22.7551 11.4675 22.7551C11.2331 22.7551 11.0488 22.571 11.0488 22.3367ZM9.37404 22.3367C9.37404 22.1024 9.55827 21.9184 9.79274 21.9184C10.0272 21.9184 10.2114 22.1024 10.2114 22.3367C10.2114 22.571 10.0272 22.7551 9.79274 22.7551C9.55827 22.7551 9.37404 22.571 9.37404 22.3367ZM7.69923 22.3367C7.69923 22.1024 7.88346 21.9184 8.11793 21.9184C8.35241 21.9184 8.53664 22.1024 8.53664 22.3367C8.53664 22.571 8.35241 22.7551 8.11793 22.7551C7.88346 22.7551 7.69923 22.571 7.69923 22.3367ZM6.02442 22.3367C6.02442 22.1024 6.20865 21.9184 6.44313 21.9184C6.6776 21.9184 6.86183 22.1024 6.86183 22.3367C6.86183 22.571 6.6776 22.7551 6.44313 22.7551C6.20865 22.7551 6.02442 22.571 6.02442 22.3367ZM4.34962 22.3367C4.34962 22.1024 4.53384 21.9184 4.76832 21.9184C5.00279 21.9184 5.18702 22.1024 5.18702 22.3367C5.18702 22.571 5.00279 22.7551 4.76832 22.7551C4.53384 22.7551 4.34962 22.571 4.34962 22.3367ZM2.67481 22.3367C2.67481 22.1024 2.85904 21.9184 3.09351 21.9184C3.32798 21.9184 3.51221 22.1024 3.51221 22.3367C3.51221 22.571 3.32798 22.7551 3.09351 22.7551C2.85904 22.7551 2.67481 22.571 2.67481 22.3367ZM1 22.3367C1 22.1024 1.18423 21.9184 1.4187 21.9184C1.65318 21.9184 1.8374 22.1024 1.8374 22.3367C1.8374 22.571 1.65318 22.7551 1.4187 22.7551C1.18423 22.7551 1 22.571 1 22.3367Z"/>
</mask>
<path d="M6.82833 41.9163H5.03629C4.60084 41.9163 4.24075 41.682 4.03978 41.2553C3.95604 41.0796 3.90579 40.8955 3.88067 40.7114L3.59595 39.0547C3.55408 38.8288 3.71319 38.6112 3.93929 38.5694C4.16539 38.5276 4.38311 38.6865 4.42498 38.9124L4.7097 40.5859C4.7097 40.5943 4.7097 40.611 4.7097 40.6194C4.7097 40.6278 4.76832 41.0712 5.03629 41.0712H6.82833C7.10467 41.0712 7.14654 40.6278 7.14654 40.611C7.14654 40.5943 7.14654 40.5859 7.15492 40.5776L7.43964 38.9124C7.48151 38.6865 7.69923 38.5359 7.92533 38.5694C8.15143 38.6029 8.30216 38.8288 8.26867 39.0547L7.98395 40.7031C7.94208 41.1382 7.64899 41.9163 6.82833 41.9163Z" fill="white"/>
<path d="M24.5227 42H22.7306C22.2952 42 21.9351 41.7657 21.7341 41.339C21.6504 41.1633 21.6001 40.9792 21.575 40.7951L21.2903 39.1384C21.2568 38.9124 21.4159 38.6949 21.6504 38.6698C21.8681 38.6363 22.0691 38.7869 22.1193 38.9961L22.404 40.6696C22.404 40.678 22.404 40.6947 22.404 40.7031C22.404 40.7114 22.4543 41.1633 22.7306 41.1633H24.5227C24.799 41.1633 24.8493 40.7114 24.8493 40.7031C24.8493 40.6947 24.8493 40.678 24.8493 40.6696L25.134 39.0045C25.1759 38.7786 25.3936 38.628 25.6197 38.6614C25.8458 38.6949 25.9965 38.9208 25.963 39.1467L25.6783 40.7951C25.6364 41.2218 25.3433 42 24.5227 42Z" fill="white"/>
<path d="M25.4271 39.3224H4.12352C2.39846 39.3224 1 37.9251 1 36.2014V4.12102C1 2.39735 2.39846 1 4.12352 1H25.4271C27.1521 1 28.5506 2.39735 28.5506 4.12102V36.2014C28.5506 37.9251 27.1521 39.3224 25.4271 39.3224ZM4.12352 1.83673C2.85904 1.83673 1.8374 2.85755 1.8374 4.12102V36.2014C1.8374 37.4649 2.85904 38.4857 4.12352 38.4857H25.4271C26.6916 38.4857 27.7132 37.4649 27.7132 36.2014V4.12102C27.7132 2.85755 26.6916 1.83673 25.4271 1.83673H4.12352Z" fill="white"/>
<path d="M14.9846 35.3898H14.4822C13.3266 35.3898 12.3887 34.4527 12.3887 33.298V26.9388C12.3887 25.7841 13.3266 24.8469 14.4822 24.8469H14.9846C16.1403 24.8469 17.0782 25.7841 17.0782 26.9388V33.298C17.0782 34.4527 16.1403 35.3898 14.9846 35.3898ZM14.4822 25.6837C13.7872 25.6837 13.2261 26.2443 13.2261 26.9388V33.298C13.2261 33.9924 13.7872 34.5531 14.4822 34.5531H14.9846C15.6797 34.5531 16.2408 33.9924 16.2408 33.298V26.9388C16.2408 26.2443 15.6797 25.6837 14.9846 25.6837H14.4822Z" fill="white"/>
<path d="M36.2463 34.7371H36.0872C34.4124 34.7371 33.0391 33.6996 32.746 32.2186C32.4278 30.5953 33.3489 29.3402 34.1696 28.2273C34.471 27.8341 34.7474 27.4241 34.9986 26.9973C35.3084 26.4535 35.5513 25.8678 35.7104 25.2569C35.7523 25.0729 35.9281 24.939 36.1207 24.939H36.238C36.4306 24.939 36.598 25.0729 36.6483 25.2569C36.8158 25.8678 37.0502 26.4451 37.3601 26.9973C37.6113 27.4241 37.8876 27.8341 38.1891 28.2273C39.0014 29.3402 39.9309 30.612 39.6127 32.2269C39.3112 33.6996 37.9295 34.7371 36.2463 34.7371ZM36.171 26.4786C36.037 26.7965 35.8862 27.0978 35.7271 27.399C35.4592 27.8592 35.1661 28.2943 34.8395 28.721C34.0607 29.7837 33.3238 30.7878 33.5666 32.0596C33.8095 33.3314 35.0153 33.9004 36.0872 33.9004H36.2463C37.7453 33.9004 38.5911 32.98 38.7753 32.0596C39.0265 30.7961 38.2812 29.7837 37.5024 28.7127C37.1842 28.2943 36.8828 27.8508 36.6232 27.3906C36.4557 27.0894 36.3049 26.7882 36.171 26.4786Z" fill="white"/>
<path d="M36.2128 5.37612C35.4927 5.37612 34.873 5.06653 34.2114 4.40551C33.6671 3.86163 32.9553 3.70265 32.0761 3.9202C31.6322 4.03735 31.2052 4.22143 30.82 4.47245C30.6274 4.59796 30.3678 4.53939 30.2421 4.33857C30.1249 4.15449 30.1668 3.91184 30.3426 3.77796C31.247 3.15041 33.3405 2.34714 34.7976 3.80306C35.501 4.50592 36.0119 4.6649 36.8409 4.43898C37.2428 4.3302 37.5192 4.06245 37.8207 3.78633C38.1221 3.5102 38.4403 3.20898 38.8842 3.05C39.9393 2.67347 41.0279 2.93286 41.8569 3.77796C42.0328 3.92857 42.0495 4.19633 41.8904 4.37204C41.7397 4.54776 41.4717 4.56449 41.2959 4.40551C41.2791 4.39714 41.2708 4.38041 41.254 4.36367C40.6511 3.75286 39.9058 3.56878 39.1605 3.83653C38.8758 3.93694 38.6497 4.15449 38.3817 4.39714C38.0384 4.7151 37.6448 5.08327 37.0502 5.25061C36.7906 5.32592 36.5059 5.36776 36.2128 5.37612Z" fill="white"/>
<path d="M36.2128 9.72714C35.4927 9.72714 34.873 9.41755 34.2114 8.75653C32.88 7.42612 30.8451 8.8151 30.8283 8.83184C30.6441 8.96571 30.3761 8.92388 30.2421 8.7398C30.1082 8.55571 30.15 8.28796 30.3343 8.15408C30.3426 8.15408 30.3426 8.14571 30.351 8.14571C31.2554 7.51816 33.3489 6.7149 34.806 8.17082C35.5094 8.87367 36.0202 9.03265 36.8409 8.80673C37.2428 8.69796 37.5192 8.4302 37.8207 8.15408C38.1221 7.87796 38.4403 7.57673 38.8842 7.41775C39.9393 7.04122 41.0279 7.30061 41.8569 8.14571C42.0077 8.32143 41.9909 8.58918 41.8151 8.7398C41.656 8.87367 41.4215 8.87367 41.2624 8.73143C40.6594 8.12061 39.9142 7.93653 39.1689 8.20429C38.8842 8.30469 38.6581 8.52225 38.3901 8.7649C38.0467 9.08286 37.6532 9.45102 37.0586 9.61837C36.7906 9.67694 36.5059 9.71878 36.2128 9.72714Z" fill="white"/>
<path d="M36.2128 14.0698C35.4927 14.0698 34.873 13.7602 34.2114 13.0992C33.6671 12.5553 32.9553 12.3963 32.0761 12.6139C31.6322 12.731 31.2052 12.9151 30.82 13.1661C30.6274 13.3 30.3678 13.2498 30.2421 13.0573C30.1165 12.8649 30.1584 12.6139 30.351 12.48C31.2554 11.8524 33.3489 11.0492 34.806 12.5051C35.5094 13.208 36.0202 13.3669 36.8409 13.141C37.2428 13.0322 37.5192 12.7645 37.8207 12.4884C38.1221 12.2122 38.4403 11.911 38.8842 11.752C39.9393 11.3671 41.0279 11.6349 41.8569 12.48C42.0077 12.6557 41.9909 12.9235 41.8151 13.0741C41.656 13.208 41.4215 13.208 41.2624 13.0657C40.6594 12.4549 39.9142 12.2708 39.1689 12.5386C38.8842 12.639 38.6581 12.8565 38.3901 13.0992C38.0467 13.4171 37.6532 13.7853 37.0586 13.9443C36.7906 14.028 36.5059 14.0698 36.2128 14.0698Z" fill="white"/>
<path d="M36.2128 18.5045C35.4927 18.5045 34.873 18.1949 34.2114 17.5339C33.6671 16.99 32.9553 16.831 32.0761 17.0486C31.6322 17.1657 31.2052 17.3498 30.82 17.6008C30.6274 17.7347 30.3678 17.6845 30.2421 17.492C30.1165 17.2996 30.1584 17.0486 30.351 16.9147C31.2554 16.2871 33.3489 15.4839 34.806 16.9398C35.5094 17.6427 36.0202 17.8016 36.8409 17.5757C37.2428 17.4669 37.5192 17.1992 37.8207 16.9231C38.1221 16.6469 38.4403 16.3457 38.8842 16.1867C39.9393 15.8018 41.0279 16.0696 41.8569 16.9147C42.0077 17.0904 41.9909 17.3582 41.8151 17.5088C41.656 17.6427 41.4215 17.6427 41.2624 17.5004C40.6594 16.8896 39.9142 16.7055 39.1689 16.9733C38.8842 17.0737 38.6581 17.2912 38.3901 17.5339C38.0467 17.8518 37.6532 18.22 37.0586 18.379C36.7906 18.4627 36.5059 18.5045 36.2128 18.5045Z" fill="white"/>
<path d="M36.2128 22.9392C35.4927 22.9392 34.873 22.6296 34.2114 21.9686C33.6671 21.4247 32.9553 21.2657 32.0761 21.4833C31.6322 21.6004 31.2052 21.7845 30.82 22.0355C30.6274 22.1694 30.3678 22.1192 30.2421 21.9267C30.1165 21.7343 30.1584 21.4833 30.351 21.3494C31.2554 20.7218 33.3489 19.9186 34.806 21.3745C35.5094 22.0773 36.0202 22.2363 36.8409 22.0104C37.2428 21.9016 37.5192 21.6339 37.8207 21.3578C38.1221 21.0816 38.4403 20.7804 38.8842 20.6214C39.9393 20.2365 41.0279 20.5043 41.8569 21.3494C42.0077 21.5251 41.9909 21.7929 41.8151 21.9435C41.656 22.0773 41.4215 22.0773 41.2624 21.9351C40.6594 21.3243 39.9142 21.1402 39.1689 21.408C38.8842 21.5084 38.6581 21.7259 38.3901 21.9686C38.0467 22.2865 37.6532 22.6547 37.0586 22.8137C36.7906 22.8973 36.5059 22.9392 36.2128 22.9392Z" fill="white"/>
<path d="M23.1912 18.4878H6.35939C6.12491 18.4878 5.94068 18.3037 5.94068 18.0694C5.94068 17.8351 6.12491 17.651 6.35939 17.651H23.1912C23.4257 17.651 23.6099 17.8351 23.6099 18.0694C23.6099 18.3037 23.4257 18.4878 23.1912 18.4878Z" fill="white"/>
<path d="M23.1912 16.1951H6.35939C6.12491 16.1951 5.94068 16.011 5.94068 15.7767C5.94068 15.5424 6.12491 15.3584 6.35939 15.3584H23.1912C23.4257 15.3584 23.6099 15.5424 23.6099 15.7767C23.6099 16.011 23.4257 16.1951 23.1912 16.1951Z" fill="white"/>
<path d="M23.1912 13.9945H6.35939C6.12491 13.9945 5.94068 13.8104 5.94068 13.5761C5.94068 13.3418 6.12491 13.1578 6.35939 13.1578H23.1912C23.4257 13.1578 23.6099 13.3418 23.6099 13.5761C23.6099 13.8104 23.4257 13.9945 23.1912 13.9945Z" fill="white"/>
<path d="M23.1912 11.7939H6.35939C6.12491 11.7939 5.94068 11.6098 5.94068 11.3755C5.94068 11.1412 6.12491 10.9571 6.35939 10.9571H23.1912C23.4257 10.9571 23.6099 11.1412 23.6099 11.3755C23.6099 11.6098 23.4257 11.7939 23.1912 11.7939Z" fill="white"/>
<path d="M23.1912 9.59327H6.35939C6.12491 9.59327 5.94068 9.40918 5.94068 9.1749C5.94068 8.94061 6.12491 8.75653 6.35939 8.75653H23.1912C23.4257 8.75653 23.6099 8.94061 23.6099 9.1749C23.6099 9.40918 23.4257 9.59327 23.1912 9.59327Z" fill="white"/>
<path d="M23.1912 7.39265H6.35939C6.12491 7.39265 5.94068 7.20857 5.94068 6.97429C5.94068 6.74 6.12491 6.55592 6.35939 6.55592H23.1912C23.4257 6.55592 23.6099 6.74 23.6099 6.97429C23.6099 7.20857 23.4257 7.39265 23.1912 7.39265Z" fill="white"/>
<path d="M23.1912 5.1H6.35939C6.12491 5.1 5.94068 4.91592 5.94068 4.68163C5.94068 4.44735 6.12491 4.26327 6.35939 4.26327H23.1912C23.4257 4.26327 23.6099 4.44735 23.6099 4.68163C23.6099 4.91592 23.4257 5.1 23.1912 5.1Z" fill="white"/>
<path d="M26.1221 22.3367C26.1221 22.1024 26.3063 21.9184 26.5408 21.9184C26.7753 21.9184 26.9595 22.1024 26.9595 22.3367C26.9595 22.571 26.7753 22.7551 26.5408 22.7551C26.3063 22.7551 26.1221 22.571 26.1221 22.3367ZM24.4473 22.3367C24.4473 22.1024 24.6315 21.9184 24.866 21.9184C25.1005 21.9184 25.2847 22.1024 25.2847 22.3367C25.2847 22.571 25.1005 22.7551 24.866 22.7551C24.6315 22.7551 24.4473 22.571 24.4473 22.3367ZM22.7725 22.3367C22.7725 22.1024 22.9567 21.9184 23.1912 21.9184C23.4257 21.9184 23.6099 22.1024 23.6099 22.3367C23.6099 22.571 23.4257 22.7551 23.1912 22.7551C22.9567 22.7551 22.7725 22.571 22.7725 22.3367ZM21.0977 22.3367C21.0977 22.1024 21.2819 21.9184 21.5164 21.9184C21.7509 21.9184 21.9351 22.1024 21.9351 22.3367C21.9351 22.571 21.7509 22.7551 21.5164 22.7551C21.2819 22.7551 21.0977 22.571 21.0977 22.3367ZM19.4229 22.3367C19.4229 22.1024 19.6071 21.9184 19.8416 21.9184C20.0761 21.9184 20.2603 22.1024 20.2603 22.3367C20.2603 22.571 20.0761 22.7551 19.8416 22.7551C19.6071 22.7551 19.4229 22.571 19.4229 22.3367ZM17.7481 22.3367C17.7481 22.1024 17.9323 21.9184 18.1668 21.9184C18.4013 21.9184 18.5855 22.1024 18.5855 22.3367C18.5855 22.571 18.4013 22.7551 18.1668 22.7551C17.9323 22.7551 17.7481 22.571 17.7481 22.3367ZM16.0733 22.3367C16.0733 22.1024 16.2575 21.9184 16.492 21.9184C16.7264 21.9184 16.9107 22.1024 16.9107 22.3367C16.9107 22.571 16.7264 22.7551 16.492 22.7551C16.2575 22.7551 16.0733 22.571 16.0733 22.3367ZM14.3985 22.3367C14.3985 22.1024 14.5827 21.9184 14.8172 21.9184C15.0516 21.9184 15.2359 22.1024 15.2359 22.3367C15.2359 22.571 15.0516 22.7551 14.8172 22.7551C14.5827 22.7551 14.3985 22.571 14.3985 22.3367ZM12.7237 22.3367C12.7237 22.1024 12.9079 21.9184 13.1424 21.9184C13.3768 21.9184 13.5611 22.1024 13.5611 22.3367C13.5611 22.571 13.3768 22.7551 13.1424 22.7551C12.9079 22.7551 12.7237 22.571 12.7237 22.3367ZM11.0488 22.3367C11.0488 22.1024 11.2331 21.9184 11.4675 21.9184C11.702 21.9184 11.8863 22.1024 11.8863 22.3367C11.8863 22.571 11.702 22.7551 11.4675 22.7551C11.2331 22.7551 11.0488 22.571 11.0488 22.3367ZM9.37404 22.3367C9.37404 22.1024 9.55827 21.9184 9.79274 21.9184C10.0272 21.9184 10.2114 22.1024 10.2114 22.3367C10.2114 22.571 10.0272 22.7551 9.79274 22.7551C9.55827 22.7551 9.37404 22.571 9.37404 22.3367ZM7.69923 22.3367C7.69923 22.1024 7.88346 21.9184 8.11793 21.9184C8.35241 21.9184 8.53664 22.1024 8.53664 22.3367C8.53664 22.571 8.35241 22.7551 8.11793 22.7551C7.88346 22.7551 7.69923 22.571 7.69923 22.3367ZM6.02442 22.3367C6.02442 22.1024 6.20865 21.9184 6.44313 21.9184C6.6776 21.9184 6.86183 22.1024 6.86183 22.3367C6.86183 22.571 6.6776 22.7551 6.44313 22.7551C6.20865 22.7551 6.02442 22.571 6.02442 22.3367ZM4.34962 22.3367C4.34962 22.1024 4.53384 21.9184 4.76832 21.9184C5.00279 21.9184 5.18702 22.1024 5.18702 22.3367C5.18702 22.571 5.00279 22.7551 4.76832 22.7551C4.53384 22.7551 4.34962 22.571 4.34962 22.3367ZM2.67481 22.3367C2.67481 22.1024 2.85904 21.9184 3.09351 21.9184C3.32798 21.9184 3.51221 22.1024 3.51221 22.3367C3.51221 22.571 3.32798 22.7551 3.09351 22.7551C2.85904 22.7551 2.67481 22.571 2.67481 22.3367ZM1 22.3367C1 22.1024 1.18423 21.9184 1.4187 21.9184C1.65318 21.9184 1.8374 22.1024 1.8374 22.3367C1.8374 22.571 1.65318 22.7551 1.4187 22.7551C1.18423 22.7551 1 22.571 1 22.3367Z" fill="white"/>
<path d="M6.82833 41.9163H5.03629C4.60084 41.9163 4.24075 41.682 4.03978 41.2553C3.95604 41.0796 3.90579 40.8955 3.88067 40.7114L3.59595 39.0547C3.55408 38.8288 3.71319 38.6112 3.93929 38.5694C4.16539 38.5276 4.38311 38.6865 4.42498 38.9124L4.7097 40.5859C4.7097 40.5943 4.7097 40.611 4.7097 40.6194C4.7097 40.6278 4.76832 41.0712 5.03629 41.0712H6.82833C7.10467 41.0712 7.14654 40.6278 7.14654 40.611C7.14654 40.5943 7.14654 40.5859 7.15492 40.5776L7.43964 38.9124C7.48151 38.6865 7.69923 38.5359 7.92533 38.5694C8.15143 38.6029 8.30216 38.8288 8.26867 39.0547L7.98395 40.7031C7.94208 41.1382 7.64899 41.9163 6.82833 41.9163Z" stroke="white" stroke-width="0.4" mask="url(#path-1-outside-1_299_3)"/>
<path d="M24.5227 42H22.7306C22.2952 42 21.9351 41.7657 21.7341 41.339C21.6504 41.1633 21.6001 40.9792 21.575 40.7951L21.2903 39.1384C21.2568 38.9124 21.4159 38.6949 21.6504 38.6698C21.8681 38.6363 22.0691 38.7869 22.1193 38.9961L22.404 40.6696C22.404 40.678 22.404 40.6947 22.404 40.7031C22.404 40.7114 22.4543 41.1633 22.7306 41.1633H24.5227C24.799 41.1633 24.8493 40.7114 24.8493 40.7031C24.8493 40.6947 24.8493 40.678 24.8493 40.6696L25.134 39.0045C25.1759 38.7786 25.3936 38.628 25.6197 38.6614C25.8458 38.6949 25.9965 38.9208 25.963 39.1467L25.6783 40.7951C25.6364 41.2218 25.3433 42 24.5227 42Z" stroke="white" stroke-width="0.4" mask="url(#path-1-outside-1_299_3)"/>
<path d="M25.4271 39.3224H4.12352C2.39846 39.3224 1 37.9251 1 36.2014V4.12102C1 2.39735 2.39846 1 4.12352 1H25.4271C27.1521 1 28.5506 2.39735 28.5506 4.12102V36.2014C28.5506 37.9251 27.1521 39.3224 25.4271 39.3224ZM4.12352 1.83673C2.85904 1.83673 1.8374 2.85755 1.8374 4.12102V36.2014C1.8374 37.4649 2.85904 38.4857 4.12352 38.4857H25.4271C26.6916 38.4857 27.7132 37.4649 27.7132 36.2014V4.12102C27.7132 2.85755 26.6916 1.83673 25.4271 1.83673H4.12352Z" stroke="white" stroke-width="0.4" mask="url(#path-1-outside-1_299_3)"/>
<path d="M14.9846 35.3898H14.4822C13.3266 35.3898 12.3887 34.4527 12.3887 33.298V26.9388C12.3887 25.7841 13.3266 24.8469 14.4822 24.8469H14.9846C16.1403 24.8469 17.0782 25.7841 17.0782 26.9388V33.298C17.0782 34.4527 16.1403 35.3898 14.9846 35.3898ZM14.4822 25.6837C13.7872 25.6837 13.2261 26.2443 13.2261 26.9388V33.298C13.2261 33.9924 13.7872 34.5531 14.4822 34.5531H14.9846C15.6797 34.5531 16.2408 33.9924 16.2408 33.298V26.9388C16.2408 26.2443 15.6797 25.6837 14.9846 25.6837H14.4822Z" stroke="white" stroke-width="0.4" mask="url(#path-1-outside-1_299_3)"/>
<path d="M36.2463 34.7371H36.0872C34.4124 34.7371 33.0391 33.6996 32.746 32.2186C32.4278 30.5953 33.3489 29.3402 34.1696 28.2273C34.471 27.8341 34.7474 27.4241 34.9986 26.9973C35.3084 26.4535 35.5513 25.8678 35.7104 25.2569C35.7523 25.0729 35.9281 24.939 36.1207 24.939H36.238C36.4306 24.939 36.598 25.0729 36.6483 25.2569C36.8158 25.8678 37.0502 26.4451 37.3601 26.9973C37.6113 27.4241 37.8876 27.8341 38.1891 28.2273C39.0014 29.3402 39.9309 30.612 39.6127 32.2269C39.3112 33.6996 37.9295 34.7371 36.2463 34.7371ZM36.171 26.4786C36.037 26.7965 35.8862 27.0978 35.7271 27.399C35.4592 27.8592 35.1661 28.2943 34.8395 28.721C34.0607 29.7837 33.3238 30.7878 33.5666 32.0596C33.8095 33.3314 35.0153 33.9004 36.0872 33.9004H36.2463C37.7453 33.9004 38.5911 32.98 38.7753 32.0596C39.0265 30.7961 38.2812 29.7837 37.5024 28.7127C37.1842 28.2943 36.8828 27.8508 36.6232 27.3906C36.4557 27.0894 36.3049 26.7882 36.171 26.4786Z" stroke="white" stroke-width="0.4" mask="url(#path-1-outside-1_299_3)"/>
<path d="M36.2128 5.37612C35.4927 5.37612 34.873 5.06653 34.2114 4.40551C33.6671 3.86163 32.9553 3.70265 32.0761 3.9202C31.6322 4.03735 31.2052 4.22143 30.82 4.47245C30.6274 4.59796 30.3678 4.53939 30.2421 4.33857C30.1249 4.15449 30.1668 3.91184 30.3426 3.77796C31.247 3.15041 33.3405 2.34714 34.7976 3.80306C35.501 4.50592 36.0119 4.6649 36.8409 4.43898C37.2428 4.3302 37.5192 4.06245 37.8207 3.78633C38.1221 3.5102 38.4403 3.20898 38.8842 3.05C39.9393 2.67347 41.0279 2.93286 41.8569 3.77796C42.0328 3.92857 42.0495 4.19633 41.8904 4.37204C41.7397 4.54776 41.4717 4.56449 41.2959 4.40551C41.2791 4.39714 41.2708 4.38041 41.254 4.36367C40.6511 3.75286 39.9058 3.56878 39.1605 3.83653C38.8758 3.93694 38.6497 4.15449 38.3817 4.39714C38.0384 4.7151 37.6448 5.08327 37.0502 5.25061C36.7906 5.32592 36.5059 5.36776 36.2128 5.37612Z" stroke="white" stroke-width="0.4" mask="url(#path-1-outside-1_299_3)"/>
<path d="M36.2128 9.72714C35.4927 9.72714 34.873 9.41755 34.2114 8.75653C32.88 7.42612 30.8451 8.8151 30.8283 8.83184C30.6441 8.96571 30.3761 8.92388 30.2421 8.7398C30.1082 8.55571 30.15 8.28796 30.3343 8.15408C30.3426 8.15408 30.3426 8.14571 30.351 8.14571C31.2554 7.51816 33.3489 6.7149 34.806 8.17082C35.5094 8.87367 36.0202 9.03265 36.8409 8.80673C37.2428 8.69796 37.5192 8.4302 37.8207 8.15408C38.1221 7.87796 38.4403 7.57673 38.8842 7.41775C39.9393 7.04122 41.0279 7.30061 41.8569 8.14571C42.0077 8.32143 41.9909 8.58918 41.8151 8.7398C41.656 8.87367 41.4215 8.87367 41.2624 8.73143C40.6594 8.12061 39.9142 7.93653 39.1689 8.20429C38.8842 8.30469 38.6581 8.52225 38.3901 8.7649C38.0467 9.08286 37.6532 9.45102 37.0586 9.61837C36.7906 9.67694 36.5059 9.71878 36.2128 9.72714Z" stroke="white" stroke-width="0.4" mask="url(#path-1-outside-1_299_3)"/>
<path d="M36.2128 14.0698C35.4927 14.0698 34.873 13.7602 34.2114 13.0992C33.6671 12.5553 32.9553 12.3963 32.0761 12.6139C31.6322 12.731 31.2052 12.9151 30.82 13.1661C30.6274 13.3 30.3678 13.2498 30.2421 13.0573C30.1165 12.8649 30.1584 12.6139 30.351 12.48C31.2554 11.8524 33.3489 11.0492 34.806 12.5051C35.5094 13.208 36.0202 13.3669 36.8409 13.141C37.2428 13.0322 37.5192 12.7645 37.8207 12.4884C38.1221 12.2122 38.4403 11.911 38.8842 11.752C39.9393 11.3671 41.0279 11.6349 41.8569 12.48C42.0077 12.6557 41.9909 12.9235 41.8151 13.0741C41.656 13.208 41.4215 13.208 41.2624 13.0657C40.6594 12.4549 39.9142 12.2708 39.1689 12.5386C38.8842 12.639 38.6581 12.8565 38.3901 13.0992C38.0467 13.4171 37.6532 13.7853 37.0586 13.9443C36.7906 14.028 36.5059 14.0698 36.2128 14.0698Z" stroke="white" stroke-width="0.4" mask="url(#path-1-outside-1_299_3)"/>
<path d="M36.2128 18.5045C35.4927 18.5045 34.873 18.1949 34.2114 17.5339C33.6671 16.99 32.9553 16.831 32.0761 17.0486C31.6322 17.1657 31.2052 17.3498 30.82 17.6008C30.6274 17.7347 30.3678 17.6845 30.2421 17.492C30.1165 17.2996 30.1584 17.0486 30.351 16.9147C31.2554 16.2871 33.3489 15.4839 34.806 16.9398C35.5094 17.6427 36.0202 17.8016 36.8409 17.5757C37.2428 17.4669 37.5192 17.1992 37.8207 16.9231C38.1221 16.6469 38.4403 16.3457 38.8842 16.1867C39.9393 15.8018 41.0279 16.0696 41.8569 16.9147C42.0077 17.0904 41.9909 17.3582 41.8151 17.5088C41.656 17.6427 41.4215 17.6427 41.2624 17.5004C40.6594 16.8896 39.9142 16.7055 39.1689 16.9733C38.8842 17.0737 38.6581 17.2912 38.3901 17.5339C38.0467 17.8518 37.6532 18.22 37.0586 18.379C36.7906 18.4627 36.5059 18.5045 36.2128 18.5045Z" stroke="white" stroke-width="0.4" mask="url(#path-1-outside-1_299_3)"/>
<path d="M36.2128 22.9392C35.4927 22.9392 34.873 22.6296 34.2114 21.9686C33.6671 21.4247 32.9553 21.2657 32.0761 21.4833C31.6322 21.6004 31.2052 21.7845 30.82 22.0355C30.6274 22.1694 30.3678 22.1192 30.2421 21.9267C30.1165 21.7343 30.1584 21.4833 30.351 21.3494C31.2554 20.7218 33.3489 19.9186 34.806 21.3745C35.5094 22.0773 36.0202 22.2363 36.8409 22.0104C37.2428 21.9016 37.5192 21.6339 37.8207 21.3578C38.1221 21.0816 38.4403 20.7804 38.8842 20.6214C39.9393 20.2365 41.0279 20.5043 41.8569 21.3494C42.0077 21.5251 41.9909 21.7929 41.8151 21.9435C41.656 22.0773 41.4215 22.0773 41.2624 21.9351C40.6594 21.3243 39.9142 21.1402 39.1689 21.408C38.8842 21.5084 38.6581 21.7259 38.3901 21.9686C38.0467 22.2865 37.6532 22.6547 37.0586 22.8137C36.7906 22.8973 36.5059 22.9392 36.2128 22.9392Z" stroke="white" stroke-width="0.4" mask="url(#path-1-outside-1_299_3)"/>
<path d="M23.1912 18.4878H6.35939C6.12491 18.4878 5.94068 18.3037 5.94068 18.0694C5.94068 17.8351 6.12491 17.651 6.35939 17.651H23.1912C23.4257 17.651 23.6099 17.8351 23.6099 18.0694C23.6099 18.3037 23.4257 18.4878 23.1912 18.4878Z" stroke="white" stroke-width="0.4" mask="url(#path-1-outside-1_299_3)"/>
<path d="M23.1912 16.1951H6.35939C6.12491 16.1951 5.94068 16.011 5.94068 15.7767C5.94068 15.5424 6.12491 15.3584 6.35939 15.3584H23.1912C23.4257 15.3584 23.6099 15.5424 23.6099 15.7767C23.6099 16.011 23.4257 16.1951 23.1912 16.1951Z" stroke="white" stroke-width="0.4" mask="url(#path-1-outside-1_299_3)"/>
<path d="M23.1912 13.9945H6.35939C6.12491 13.9945 5.94068 13.8104 5.94068 13.5761C5.94068 13.3418 6.12491 13.1578 6.35939 13.1578H23.1912C23.4257 13.1578 23.6099 13.3418 23.6099 13.5761C23.6099 13.8104 23.4257 13.9945 23.1912 13.9945Z" stroke="white" stroke-width="0.4" mask="url(#path-1-outside-1_299_3)"/>
<path d="M23.1912 11.7939H6.35939C6.12491 11.7939 5.94068 11.6098 5.94068 11.3755C5.94068 11.1412 6.12491 10.9571 6.35939 10.9571H23.1912C23.4257 10.9571 23.6099 11.1412 23.6099 11.3755C23.6099 11.6098 23.4257 11.7939 23.1912 11.7939Z" stroke="white" stroke-width="0.4" mask="url(#path-1-outside-1_299_3)"/>
<path d="M23.1912 9.59327H6.35939C6.12491 9.59327 5.94068 9.40918 5.94068 9.1749C5.94068 8.94061 6.12491 8.75653 6.35939 8.75653H23.1912C23.4257 8.75653 23.6099 8.94061 23.6099 9.1749C23.6099 9.40918 23.4257 9.59327 23.1912 9.59327Z" stroke="white" stroke-width="0.4" mask="url(#path-1-outside-1_299_3)"/>
<path d="M23.1912 7.39265H6.35939C6.12491 7.39265 5.94068 7.20857 5.94068 6.97429C5.94068 6.74 6.12491 6.55592 6.35939 6.55592H23.1912C23.4257 6.55592 23.6099 6.74 23.6099 6.97429C23.6099 7.20857 23.4257 7.39265 23.1912 7.39265Z" stroke="white" stroke-width="0.4" mask="url(#path-1-outside-1_299_3)"/>
<path d="M23.1912 5.1H6.35939C6.12491 5.1 5.94068 4.91592 5.94068 4.68163C5.94068 4.44735 6.12491 4.26327 6.35939 4.26327H23.1912C23.4257 4.26327 23.6099 4.44735 23.6099 4.68163C23.6099 4.91592 23.4257 5.1 23.1912 5.1Z" stroke="white" stroke-width="0.4" mask="url(#path-1-outside-1_299_3)"/>
<path d="M26.1221 22.3367C26.1221 22.1024 26.3063 21.9184 26.5408 21.9184C26.7753 21.9184 26.9595 22.1024 26.9595 22.3367C26.9595 22.571 26.7753 22.7551 26.5408 22.7551C26.3063 22.7551 26.1221 22.571 26.1221 22.3367ZM24.4473 22.3367C24.4473 22.1024 24.6315 21.9184 24.866 21.9184C25.1005 21.9184 25.2847 22.1024 25.2847 22.3367C25.2847 22.571 25.1005 22.7551 24.866 22.7551C24.6315 22.7551 24.4473 22.571 24.4473 22.3367ZM22.7725 22.3367C22.7725 22.1024 22.9567 21.9184 23.1912 21.9184C23.4257 21.9184 23.6099 22.1024 23.6099 22.3367C23.6099 22.571 23.4257 22.7551 23.1912 22.7551C22.9567 22.7551 22.7725 22.571 22.7725 22.3367ZM21.0977 22.3367C21.0977 22.1024 21.2819 21.9184 21.5164 21.9184C21.7509 21.9184 21.9351 22.1024 21.9351 22.3367C21.9351 22.571 21.7509 22.7551 21.5164 22.7551C21.2819 22.7551 21.0977 22.571 21.0977 22.3367ZM19.4229 22.3367C19.4229 22.1024 19.6071 21.9184 19.8416 21.9184C20.0761 21.9184 20.2603 22.1024 20.2603 22.3367C20.2603 22.571 20.0761 22.7551 19.8416 22.7551C19.6071 22.7551 19.4229 22.571 19.4229 22.3367ZM17.7481 22.3367C17.7481 22.1024 17.9323 21.9184 18.1668 21.9184C18.4013 21.9184 18.5855 22.1024 18.5855 22.3367C18.5855 22.571 18.4013 22.7551 18.1668 22.7551C17.9323 22.7551 17.7481 22.571 17.7481 22.3367ZM16.0733 22.3367C16.0733 22.1024 16.2575 21.9184 16.492 21.9184C16.7264 21.9184 16.9107 22.1024 16.9107 22.3367C16.9107 22.571 16.7264 22.7551 16.492 22.7551C16.2575 22.7551 16.0733 22.571 16.0733 22.3367ZM14.3985 22.3367C14.3985 22.1024 14.5827 21.9184 14.8172 21.9184C15.0516 21.9184 15.2359 22.1024 15.2359 22.3367C15.2359 22.571 15.0516 22.7551 14.8172 22.7551C14.5827 22.7551 14.3985 22.571 14.3985 22.3367ZM12.7237 22.3367C12.7237 22.1024 12.9079 21.9184 13.1424 21.9184C13.3768 21.9184 13.5611 22.1024 13.5611 22.3367C13.5611 22.571 13.3768 22.7551 13.1424 22.7551C12.9079 22.7551 12.7237 22.571 12.7237 22.3367ZM11.0488 22.3367C11.0488 22.1024 11.2331 21.9184 11.4675 21.9184C11.702 21.9184 11.8863 22.1024 11.8863 22.3367C11.8863 22.571 11.702 22.7551 11.4675 22.7551C11.2331 22.7551 11.0488 22.571 11.0488 22.3367ZM9.37404 22.3367C9.37404 22.1024 9.55827 21.9184 9.79274 21.9184C10.0272 21.9184 10.2114 22.1024 10.2114 22.3367C10.2114 22.571 10.0272 22.7551 9.79274 22.7551C9.55827 22.7551 9.37404 22.571 9.37404 22.3367ZM7.69923 22.3367C7.69923 22.1024 7.88346 21.9184 8.11793 21.9184C8.35241 21.9184 8.53664 22.1024 8.53664 22.3367C8.53664 22.571 8.35241 22.7551 8.11793 22.7551C7.88346 22.7551 7.69923 22.571 7.69923 22.3367ZM6.02442 22.3367C6.02442 22.1024 6.20865 21.9184 6.44313 21.9184C6.6776 21.9184 6.86183 22.1024 6.86183 22.3367C6.86183 22.571 6.6776 22.7551 6.44313 22.7551C6.20865 22.7551 6.02442 22.571 6.02442 22.3367ZM4.34962 22.3367C4.34962 22.1024 4.53384 21.9184 4.76832 21.9184C5.00279 21.9184 5.18702 22.1024 5.18702 22.3367C5.18702 22.571 5.00279 22.7551 4.76832 22.7551C4.53384 22.7551 4.34962 22.571 4.34962 22.3367ZM2.67481 22.3367C2.67481 22.1024 2.85904 21.9184 3.09351 21.9184C3.32798 21.9184 3.51221 22.1024 3.51221 22.3367C3.51221 22.571 3.32798 22.7551 3.09351 22.7551C2.85904 22.7551 2.67481 22.571 2.67481 22.3367ZM1 22.3367C1 22.1024 1.18423 21.9184 1.4187 21.9184C1.65318 21.9184 1.8374 22.1024 1.8374 22.3367C1.8374 22.571 1.65318 22.7551 1.4187 22.7551C1.18423 22.7551 1 22.571 1 22.3367Z" stroke="white" stroke-width="0.4" mask="url(#path-1-outside-1_299_3)"/>
</svg>
