<svg width="39" height="33" viewBox="0 0 39 33" fill="none" xmlns="http://www.w3.org/2000/svg">
<path d="M0.895122 18.1911H0.887144L0.879277 18.1924C0.558287 18.2467 0.402585 18.52 0.402585 18.7794C0.402585 18.9305 0.491285 19.0563 0.599444 19.1403C0.707957 19.2245 0.849526 19.278 0.98347 19.278H31.4192C34.7668 19.278 37.5085 22.0596 37.5085 25.4618C37.5085 28.8645 34.8105 31.6456 31.4192 31.6456C28.0279 31.6456 25.3298 28.8645 25.3298 25.4618C25.3298 25.3061 25.2783 25.1688 25.181 25.07C25.0836 24.9711 24.9477 24.9184 24.7931 24.9184C24.6386 24.9184 24.5026 24.9711 24.4052 25.07C24.3079 25.1688 24.2564 25.3061 24.2564 25.4618C24.2564 29.4596 27.4781 32.7326 31.4192 32.7326C35.3603 32.7326 38.582 29.4596 38.582 25.4618C38.582 21.464 35.3603 18.1911 31.4192 18.1911H0.98347H0.983457H0.983445H0.983429H0.98342H0.983409H0.983398H0.983385H0.983372H0.983357H0.983342H0.983325H0.983308H0.98329H0.98327H0.98325H0.983229H0.983206H0.983183H0.983159H0.983134H0.983108H0.983081H0.983053H0.983024H0.982994H0.982963H0.982931H0.982898H0.982865H0.98283H0.982794H0.982758H0.98272H0.982682H0.982643H0.982602H0.982561H0.982519H0.982476H0.982432H0.982387H0.982341H0.982295H0.982247H0.982199H0.982149H0.982099H0.982047H0.981995H0.981942H0.981888H0.981833H0.981778H0.981721H0.981663H0.981605H0.981546H0.981485H0.981424H0.981362H0.981299H0.981236H0.981171H0.981106H0.981039H0.980972H0.980904H0.980835H0.980765H0.980694H0.980623H0.98055H0.980477H0.980403H0.980328H0.980252H0.980175H0.980098H0.980019H0.97994H0.97986H0.979779H0.979697H0.979615H0.979531H0.979447H0.979362H0.979276H0.97919H0.979102H0.979014H0.978924H0.978834H0.978744H0.978652H0.978559H0.978466H0.978372H0.978277H0.978182H0.978085H0.977988H0.97789H0.977791H0.977691H0.977591H0.97749H0.977388H0.977285H0.977181H0.977077H0.976972H0.976866H0.976759H0.976651H0.976543H0.976434H0.976324H0.976214H0.976102H0.97599H0.975877H0.975764H0.975649H0.975534H0.975418H0.975302H0.975184H0.975066H0.974947H0.974828H0.974707H0.974586H0.974465H0.974342H0.974219H0.974095H0.97397H0.973844H0.973718H0.973591H0.973464H0.973335H0.973206H0.973076H0.972946H0.972815H0.972683H0.97255H0.972417H0.972283H0.972148H0.972012H0.971876H0.971739H0.971602H0.971464H0.971325H0.971185H0.971045H0.970904H0.970762H0.97062H0.970477H0.970333H0.970189H0.970044H0.969898H0.969752H0.969605H0.969457H0.969309H0.96916H0.96901H0.96886H0.968709H0.968557H0.968405H0.968252H0.968098H0.967944H0.967789H0.967634H0.967478H0.967321H0.967163H0.967005H0.966847H0.966687H0.966527H0.966367H0.966206H0.966044H0.965882H0.965719H0.965555H0.965391H0.965226H0.96506H0.964894H0.964728H0.96456H0.964392H0.964224H0.964055H0.963885H0.963715H0.963544H0.963373H0.963201H0.963028H0.962855H0.962681H0.962507H0.962332H0.962156H0.96198H0.961803H0.961626H0.961448H0.96127H0.961091H0.960912H0.960732H0.960551H0.96037H0.960188H0.960006H0.959823H0.95964H0.959456H0.959272H0.959087H0.958901H0.958715H0.958528H0.958341H0.958154H0.957965H0.957777H0.957588H0.957398H0.957208H0.957017H0.956825H0.956634H0.956441H0.956248H0.956055H0.955861H0.955667H0.955472H0.955277H0.955081H0.954884H0.954687H0.95449H0.954292H0.954094H0.953895H0.953696H0.953496H0.953296H0.953095H0.952894H0.952692H0.95249H0.952287H0.952084H0.95188H0.951676H0.951472H0.951267H0.951061H0.950855H0.950649H0.950442H0.950235H0.950027H0.949819H0.94961H0.949401H0.949192H0.948982H0.948771H0.948561H0.948349H0.948138H0.947925H0.947713H0.9475H0.947287H0.947073H0.946858H0.946644H0.946429H0.946213H0.945997H0.945781H0.945564H0.945347H0.94513H0.944912H0.944693H0.944475H0.944255H0.944036H0.943816H0.943596H0.943375H0.943154H0.942932H0.94271H0.942488H0.942266H0.942043H0.941819H0.941595H0.941371H0.941147H0.940922H0.940697H0.940471H0.940245H0.940019H0.939792H0.939565H0.939338H0.93911H0.938882H0.938654H0.938425H0.938196H0.937966H0.937737H0.937506H0.937276H0.937045H0.936814H0.936583H0.936351H0.936119H0.935886H0.935654H0.93542H0.935187H0.934953H0.934719H0.934485H0.93425H0.934015H0.93378H0.933545H0.933309H0.933073H0.932836H0.932599H0.932362H0.932125H0.931887H0.931649H0.931411H0.931173H0.930934H0.930695H0.930455H0.930216H0.929976H0.929736H0.929495H0.929255H0.929014H0.928772H0.928531H0.928289H0.928047H0.927805H0.927562H0.92732H0.927077H0.926833H0.92659H0.926346H0.926102H0.925858H0.925613H0.925368H0.925124H0.924878H0.924633H0.924387H0.924141H0.923895H0.923649H0.923402H0.923156H0.922909H0.922661H0.922414H0.922166H0.921918H0.92167H0.921422H0.921174H0.920925H0.920676H0.920427H0.920178H0.919928H0.919679H0.919429H0.919179H0.918929H0.918678H0.918428H0.918177H0.917926H0.917675H0.917424H0.917172H0.916921H0.916669H0.916417H0.916165H0.915913H0.91566H0.915408H0.915155H0.914902H0.914649H0.914396H0.914142H0.913889H0.913635H0.913381H0.913128H0.912873H0.912619H0.912365H0.91211H0.911856H0.911601H0.911346H0.911091H0.910836H0.910581H0.910326H0.91007H0.909815H0.909559H0.909303H0.909047H0.908791H0.908535H0.908279H0.908023H0.907766H0.90751H0.907253H0.906996H0.90674H0.906483H0.906226H0.905969H0.905712H0.905454H0.905197H0.90494H0.904682H0.904425H0.904167H0.90391H0.903652H0.903394H0.903136H0.902878H0.90262H0.902362H0.902104H0.901846H0.901588H0.90133H0.901071H0.900813H0.900555H0.900296H0.900038H0.899779H0.899521H0.899262H0.899004H0.898745H0.898486H0.898228H0.897969H0.89771H0.897451H0.897193H0.896934H0.896675H0.896416H0.896158H0.895899H0.89564H0.895381H0.895122ZM2.66207 21.7789H2.65409L2.64623 21.7803C2.32524 21.8346 2.16953 22.1079 2.16953 22.3672V22.375L2.17079 22.3826C2.22388 22.7061 2.49215 22.8659 2.75042 22.8659H15.1191C17.1011 22.8659 18.6905 24.4403 18.6905 26.3139C18.6905 28.2316 17.1019 29.762 15.1191 29.762C13.1371 29.762 11.5476 28.1875 11.5476 26.3139C11.5476 26.1582 11.4961 26.0209 11.3988 25.9221C11.3014 25.8232 11.1655 25.7705 11.0109 25.7705C10.8564 25.7705 10.7204 25.8232 10.623 25.9221C10.5257 26.0209 10.4742 26.1582 10.4742 26.3139C10.4742 28.8359 12.5958 30.8489 15.1191 30.8489C17.6423 30.8489 19.7639 28.8359 19.7639 26.3139C19.7639 23.7919 17.6423 21.7789 15.1191 21.7789H2.75042H2.7504H2.75038H2.75036H2.75033H2.75031H2.75029H2.75027H2.75026H2.75024H2.75022H2.7502H2.75018H2.75016H2.75013H2.75011H2.75008H2.75006H2.75003H2.75H2.74997H2.74994H2.74991H2.74988H2.74985H2.74981H2.74978H2.74974H2.74971H2.74967H2.74963H2.74959H2.74955H2.74951H2.74947H2.74943H2.74938H2.74934H2.74929H2.74924H2.7492H2.74915H2.7491H2.74905H2.749H2.74894H2.74889H2.74884H2.74878H2.74873H2.74867H2.74861H2.74855H2.7485H2.74844H2.74837H2.74831H2.74825H2.74819H2.74812H2.74806H2.74799H2.74792H2.74785H2.74778H2.74771H2.74764H2.74757H2.7475H2.74743H2.74735H2.74728H2.7472H2.74712H2.74705H2.74697H2.74689H2.74681H2.74673H2.74665H2.74656H2.74648H2.7464H2.74631H2.74623H2.74614H2.74605H2.74596H2.74587H2.74578H2.74569H2.7456H2.74551H2.74542H2.74532H2.74523H2.74513H2.74503H2.74494H2.74484H2.74474H2.74464H2.74454H2.74444H2.74434H2.74423H2.74413H2.74403H2.74392H2.74382H2.74371H2.7436H2.74349H2.74338H2.74327H2.74316H2.74305H2.74294H2.74283H2.74271H2.7426H2.74248H2.74237H2.74225H2.74213H2.74202H2.7419H2.74178H2.74166H2.74154H2.74141H2.74129H2.74117H2.74104H2.74092H2.74079H2.74067H2.74054H2.74041H2.74028H2.74016H2.74003H2.7399H2.73976H2.73963H2.7395H2.73937H2.73923H2.7391H2.73896H2.73883H2.73869H2.73855H2.73841H2.73827H2.73813H2.73799H2.73785H2.73771H2.73757H2.73743H2.73728H2.73714H2.73699H2.73685H2.7367H2.73655H2.73641H2.73626H2.73611H2.73596H2.73581H2.73566H2.73551H2.73535H2.7352H2.73505H2.73489H2.73474H2.73458H2.73443H2.73427H2.73411H2.73395H2.7338H2.73364H2.73348H2.73332H2.73316H2.73299H2.73283H2.73267H2.7325H2.73234H2.73218H2.73201H2.73184H2.73168H2.73151H2.73134H2.73117H2.731H2.73083H2.73066H2.73049H2.73032H2.73015H2.72998H2.7298H2.72963H2.72946H2.72928H2.72911H2.72893H2.72875H2.72858H2.7284H2.72822H2.72804H2.72786H2.72768H2.7275H2.72732H2.72714H2.72696H2.72677H2.72659H2.72641H2.72622H2.72604H2.72585H2.72566H2.72548H2.72529H2.7251H2.72492H2.72473H2.72454H2.72435H2.72416H2.72397H2.72378H2.72358H2.72339H2.7232H2.723H2.72281H2.72262H2.72242H2.72223H2.72203H2.72183H2.72164H2.72144H2.72124H2.72104H2.72084H2.72065H2.72045H2.72025H2.72004H2.71984H2.71964H2.71944H2.71924H2.71903H2.71883H2.71863H2.71842H2.71822H2.71801H2.7178H2.7176H2.71739H2.71718H2.71698H2.71677H2.71656H2.71635H2.71614H2.71593H2.71572H2.71551H2.7153H2.71509H2.71487H2.71466H2.71445H2.71424H2.71402H2.71381H2.71359H2.71338H2.71316H2.71295H2.71273H2.71251H2.7123H2.71208H2.71186H2.71164H2.71142H2.71121H2.71099H2.71077H2.71055H2.71032H2.7101H2.70988H2.70966H2.70944H2.70922H2.70899H2.70877H2.70855H2.70832H2.7081H2.70787H2.70765H2.70742H2.7072H2.70697H2.70674H2.70652H2.70629H2.70606H2.70583H2.7056H2.70537H2.70515H2.70492H2.70469H2.70446H2.70423H2.70399H2.70376H2.70353H2.7033H2.70307H2.70284H2.7026H2.70237H2.70214H2.7019H2.70167H2.70143H2.7012H2.70097H2.70073H2.70049H2.70026H2.70002H2.69979H2.69955H2.69931H2.69907H2.69884H2.6986H2.69836H2.69812H2.69788H2.69764H2.69741H2.69717H2.69693H2.69669H2.69644H2.6962H2.69596H2.69572H2.69548H2.69524H2.695H2.69475H2.69451H2.69427H2.69403H2.69378H2.69354H2.6933H2.69305H2.69281H2.69256H2.69232H2.69207H2.69183H2.69158H2.69134H2.69109H2.69084H2.6906H2.69035H2.69011H2.68986H2.68961H2.68936H2.68912H2.68887H2.68862H2.68837H2.68812H2.68787H2.68763H2.68738H2.68713H2.68688H2.68663H2.68638H2.68613H2.68588H2.68563H2.68538H2.68513H2.68488H2.68462H2.68437H2.68412H2.68387H2.68362H2.68337H2.68311H2.68286H2.68261H2.68236H2.6821H2.68185H2.6816H2.68135H2.68109H2.68084H2.68058H2.68033H2.68008H2.67982H2.67957H2.67931H2.67906H2.67881H2.67855H2.6783H2.67804H2.67779H2.67753H2.67728H2.67702H2.67676H2.67651H2.67625H2.676H2.67574H2.67548H2.67523H2.67497H2.67472H2.67446H2.6742H2.67395H2.67369H2.67343H2.67318H2.67292H2.67266H2.6724H2.67215H2.67189H2.67163H2.67137H2.67112H2.67086H2.6706H2.67034H2.67009H2.66983H2.66957H2.66931H2.66905H2.6688H2.66854H2.66828H2.66802H2.66776H2.6675H2.66725H2.66699H2.66673H2.66647H2.66621H2.66595H2.66569H2.66544H2.66518H2.66492H2.66466H2.6644H2.66414H2.66388H2.66362H2.66337H2.66311H2.66285H2.66259H2.66233H2.66207ZM19.5364 0.251607C15.5953 0.251607 12.3737 3.52459 12.3737 7.52236C12.3737 7.67806 12.4252 7.81538 12.5225 7.91416C12.6199 8.01307 12.7558 8.06582 12.9104 8.06582C13.0649 8.06582 13.2009 8.01306 13.2983 7.91416C13.3956 7.81538 13.4471 7.67806 13.4471 7.52236C13.4471 4.11966 16.1451 1.33853 19.5364 1.33853C22.9277 1.33853 25.6258 4.11966 25.6258 7.52236C25.6258 10.9251 22.9277 13.7062 19.5364 13.7062H2.75042C2.59588 13.7062 2.45992 13.7589 2.3625 13.8579C2.2652 13.9566 2.21371 14.094 2.21371 14.2497C2.21371 14.4054 2.2652 14.5427 2.3625 14.6415C2.45992 14.7404 2.59588 14.7931 2.75042 14.7931H19.4923C23.4334 14.7931 26.655 11.5201 26.655 7.52236C26.655 3.52537 23.4783 0.251607 19.5364 0.251607Z" fill="white" stroke="white" stroke-width="0.189947"/>
</svg>
