<!-- Generated by IcoMoon.io -->
<svg version="1.1" xmlns="http://www.w3.org/2000/svg" width="1024" height="1024" viewBox="0 0 1024 1024">
<g id="icomoon-ignore">
</g>
<path fill="#000" d="M546.788 311.969c-3.928 32.824-14.588 67.332-29.458 92.020-49.096 82.762-134.944 136.066-241.271 124.563-126.527-14.027-234.538-126.247-217.986-272.412 14.027-125.966 128.491-232.574 274.376-216.022 123.441 14.027 231.452 129.333 214.339 271.851v0zM263.996 2.805c-145.043 21.883-265.959 149.532-242.955 320.947 19.077 141.677 152.057 266.801 320.947 242.113 143.079-21.041 266.521-152.338 241.832-322.911-12.625-86.97-56.671-139.152-102.961-179.831-47.132-42.082-132.98-72.942-216.864-60.318v0z"></path>
<path fill="#000" d="M885.69 950.496c108.853 0.281 161.315-134.102 77.431-208.447-40.679-35.91-90.898-28.335-153.179-28.335-122.599 0-244.918 0-367.518 0-60.037 0-326.838-6.453-360.504 3.647-14.588 37.874 21.041 31.702 51.901 31.702h642.455c53.585 0 129.052-10.38 164.401 21.041 37.874 33.946 36.752 90.056-0.281 123.722-40.399 36.471-99.595 20.48-123.441-16.833-22.724-35.349-4.208-61.159-29.738-62.562-30.58-1.964-16.833 46.29-11.222 61.44 14.027 39.557 54.987 74.626 109.694 74.626v0z"></path>
<path fill="#000" d="M580.173 844.449c48.535 42.924 31.982 118.111-24.408 139.713-33.666 12.905-65.929 0.561-85.848-15.43-27.213-21.883-24.408-61.721-31.982-77.151-12.344-3.367-17.955-2.244-27.494 2.525-18.797 74.906 64.807 148.69 145.885 127.088 35.91-9.539 63.684-35.349 76.87-63.404 16.272-35.349 14.027-80.798-5.892-112.5-46.010-72.942-123.161-56.951-224.438-56.951-46.852 0-93.422 0-140.274 0-63.123 0-120.355-10.661-99.314 32.544 22.724 6.733 271.009 3.086 329.363 3.086 38.155-0.281 63.684-0.842 87.531 20.48v0z"></path>
<path fill="#000" d="M347.599 323.191v-201.995c0-44.327-46.29-38.716-49.657-10.38-4.769 42.643 4.489 169.451-0.281 201.153-2.244 13.747-40.399 46.29-49.938 55.268-8.416 7.855-46.29 39.838-49.096 52.182-3.367 15.43 8.136 26.652 20.199 28.616 15.43 2.525 24.127-9.819 31.421-16.552 9.539-8.697 16.272-15.991 26.091-24.408l51.34-49.657c9.819-8.978 19.919-14.027 19.919-34.227v0z"></path>
</svg>
