<!-- Generated by IcoMoon.io -->
<svg version="1.1" xmlns="http://www.w3.org/2000/svg" width="1024" height="1024" viewBox="0 0 1024 1024">
<g id="icomoon-ignore">
</g>
<path fill="#000" d="M366.99 582.514v-444.971c0-70.515-58.032-128.061-129.959-128.061s-129.141 57.547-129.141 128.061v444.971c-67.023 42.959-107.89 117.525-107.89 196.955 0 129.684 106.255 235.050 237.031 235.050s237.031-105.366 237.031-235.050c0.817-79.43-40.050-153.996-107.072-196.955zM237.031 971.562c-107.073 0-193.712-85.915-193.712-192.093 0-68.892 36.781-132.113 97.265-166.965h0.817l3.269-3.243c0.817-0.81 0.817-1.619 1.635-1.619 0.817-0.812 0.817-0.812 1.635-1.621 0-0.812 0.817-0.812 0.817-1.621l0.817-1.621 0.817-2.431c0-0.812 0.817-1.621 0.817-1.621 0-0.812 0.817-0.812 0.817-1.621v-1.621c0 0 0 0 0-0.81v-457.13c-0.817-47.010 37.598-85.104 85.005-85.104s86.638 38.094 86.638 85.104v456.318c0 0 0 0 0 0.812 0 0.81 0 0.81 0 1.621 0 0.81 0 0.81 0 1.619v1.621c0 0.812 0 1.621 0.817 1.621l0.817 2.431 0.817 1.621c0 0.812 0.817 1.621 0.817 1.621 0 0.81 0.817 0.812 1.635 1.621 0 0.81 0.817 0.81 1.637 1.621l1.635 1.621c0.817 0.81 1.635 0.81 1.635 1.619 59.665 34.042 97.263 98.073 97.263 166.967-0.817 105.366-86.638 191.281-193.71 191.281z"></path>
<path fill="#000" d="M269.725 677.346l-3.269-516.298c0-17.831-12.261-34.042-30.242-34.042-17.983 0-31.877 14.589-31.877 32.421l0.817 517.919c-44.954 13.778-75.196 55.114-75.196 102.123 0 59.168 48.224 106.989 107.89 106.989s107.89-47.821 107.89-106.989c-0.817-47.009-31.059-88.345-76.013-102.123z"></path>
<path fill="#000" d="M730.074 113.22c-105.468 0-190.187 84.72-190.187 190.187s84.719 190.187 190.187 190.187c105.468 0 190.187-84.719 190.187-190.187s-84.719-190.187-190.187-190.187zM730.074 459.016c-86.448 0-155.608-69.16-155.608-155.608s69.16-155.608 155.608-155.608c86.448 0 155.608 69.159 155.608 155.608s-69.16 155.608-155.608 155.608z"></path>
<path fill="#000" d="M602.129 116.678c5.188 8.645 15.561 10.374 24.206 6.916s10.375-15.561 6.916-24.206l-25.934-44.953c-5.188-6.916-15.561-10.374-24.206-5.187s-10.375 15.561-6.916 22.477l25.934 44.953z"></path>
<path fill="#000" d="M481.102 180.65l44.954 25.934c8.645 5.186 19.018 1.729 24.204-6.916 5.188-8.645 1.729-19.019-6.916-24.205l-44.952-25.935c-6.918-3.458-17.29-1.729-22.477 6.916-5.188 8.645-1.729 19.019 5.186 24.206z"></path>
<path fill="#000" d="M453.439 320.698h51.869c10.373 0 17.289-6.916 17.289-17.29s-6.916-17.29-17.289-17.29h-51.869c-10.375 0-17.29 6.916-17.29 17.29s6.916 17.29 17.29 17.29z"></path>
<path fill="#000" d="M526.055 400.23l-44.954 25.934c-6.916 5.188-10.375 15.561-5.186 24.206 5.186 8.645 15.559 10.375 24.204 6.916l44.954-25.934c8.645-5.188 10.375-15.561 6.916-24.206-6.916-8.645-17.289-10.375-25.934-6.916z"></path>
<path fill="#000" d="M602.129 490.138l-25.934 44.952c-5.186 8.645-1.729 19.020 6.916 24.206s19.018 1.729 24.206-6.916l25.934-44.954c5.186-8.645 1.729-19.018-6.916-24.204-8.645-5.188-19.018-1.729-24.206 6.916z"></path>
<path fill="#000" d="M747.365 528.174c0-10.373-6.916-17.289-17.29-17.289s-17.29 6.916-17.29 17.289v51.869c0 10.375 6.916 17.29 17.29 17.29s17.29-6.916 17.29-17.29v-51.869z"></path>
<path fill="#000" d="M833.813 483.222c-8.645 5.186-10.375 15.559-6.916 24.204l25.934 44.954c5.188 8.645 15.561 10.375 24.206 6.916 8.645-3.457 10.375-15.561 6.916-24.206l-25.934-44.952c-5.188-8.645-15.561-12.104-24.206-6.916z"></path>
<path fill="#000" d="M916.804 431.352l44.952 25.934c8.645 5.186 19.020 1.729 24.206-6.916s1.729-19.018-6.916-24.206l-44.954-25.934c-8.645-5.186-19.018-1.729-24.204 6.916-5.188 8.645-1.729 19.018 6.916 24.206z"></path>
<path fill="#000" d="M937.552 303.407c0 10.375 6.916 17.29 17.289 17.29h51.869c10.375 0 17.29-6.916 17.29-17.29s-6.916-17.29-17.29-17.29h-51.869c-10.373 0-17.289 6.916-17.289 17.29z"></path>
<path fill="#000" d="M925.448 208.314c3.459 0 5.188 0 8.645-1.729l44.954-25.934c6.916-5.187 10.375-15.561 5.186-24.206-5.186-8.645-15.559-10.374-24.204-6.916l-44.954 25.935c-8.645 5.187-10.375 15.561-6.916 24.205 5.186 5.186 10.373 8.645 17.289 8.645z"></path>
<path fill="#000" d="M833.813 123.594c8.645 5.187 19.018 1.729 24.206-6.916l25.934-44.953c5.186-8.645 1.729-19.019-6.916-24.206s-19.018-1.729-24.206 6.916l-25.934 44.953c-3.459 8.645-1.729 19.019 6.916 24.206z"></path>
<path fill="#000" d="M730.074 95.93c10.375 0 17.29-6.916 17.29-17.29v-51.869c0-10.374-6.916-17.29-17.29-17.29s-17.29 6.916-17.29 17.29v51.869c0 10.374 6.916 17.29 17.29 17.29z"></path>
</svg>
