<!-- Generated by IcoMoon.io -->
<svg version="1.1" xmlns="http://www.w3.org/2000/svg" width="1024" height="1024" viewBox="0 0 1024 1024">
<g id="icomoon-ignore">
</g>
<path fill="#000" d="M794.483 564.966c-127.117 0-229.517 102.4-229.517 229.517s102.4 229.517 229.517 229.517c127.117 0 229.517-102.4 229.517-229.517s-102.4-229.517-229.517-229.517zM794.483 600.276c107.697 0 194.207 86.51 194.207 194.207s-86.51 194.207-194.207 194.207c-107.697 0-194.207-86.51-194.207-194.207s86.51-194.207 194.207-194.207zM72.386 552.607c21.186 224.22 210.097 400.773 439.614 400.773 10.593 0 17.656-7.063 17.656-17.656s-7.063-17.656-17.656-17.656c-208.332 0-381.352-158.895-404.303-361.929l38.841 38.841c7.062 7.061 17.655 7.061 24.717 0 7.062-7.063 7.062-17.656 0-24.719l-70.621-70.62c-7.062-7.061-17.655-7.061-24.717 0l-70.621 70.62c-7.062 7.063-7.062 17.656 0 24.719 7.062 7.061 17.655 7.061 24.717 0l42.372-42.373zM776.827 653.241v151.834l-65.324 65.324c-7.061 7.061-7.061 17.656 0 24.717 7.063 7.063 17.656 7.063 24.719 0l70.62-70.62c3.532-3.532 5.297-7.063 5.297-12.359v-158.897c0-10.593-7.063-17.656-17.656-17.656s-17.656 7.063-17.656 17.656zM916.303 466.097l-38.841-38.841c-7.061-7.063-17.654-7.063-24.717 0-7.061 7.061-7.061 17.654 0 24.717l70.622 70.62c7.061 7.063 17.656 7.063 24.717 0l70.62-70.62c7.063-7.063 7.063-17.656 0-24.717-7.061-7.063-17.654-7.063-24.717 0l-42.371 42.371c-21.188-222.454-210.097-399.006-439.615-399.006-10.593 0-17.656 7.062-17.656 17.655s7.063 17.655 17.656 17.655c208.332 0 381.351 157.13 404.303 360.167zM229.517 0c-127.117 0-229.517 102.4-229.517 229.517s102.4 229.517 229.517 229.517c127.117 0 229.517-102.4 229.517-229.517s-102.4-229.517-229.517-229.517zM229.517 35.31c107.697 0 194.207 86.51 194.207 194.207s-86.51 194.207-194.207 194.207c-107.696 0-194.207-86.51-194.207-194.207 0-107.696 86.51-194.207 194.207-194.207zM211.862 88.276v158.897c0 5.295 1.765 8.827 5.296 12.359l70.622 70.62c7.061 7.063 17.654 7.063 24.717 0 7.061-7.061 7.061-17.654 0-24.717l-65.324-65.324v-151.834c0-10.593-7.063-17.655-17.656-17.655s-17.655 7.062-17.655 17.655z"></path>
</svg>
