<svg width="55" height="55" viewBox="0 0 55 55" fill="none" xmlns="http://www.w3.org/2000/svg">
<path d="M27.5 7.86675C24.4071 7.86675 21.9193 10.3545 21.9193 13.4474C21.9193 13.5819 21.9193 13.7164 21.9193 13.9181L23.3313 31.5342C23.533 33.8203 25.5501 35.5012 27.8362 35.3667C29.8533 35.2323 31.467 33.6186 31.6687 31.5342L33.0807 13.9181C33.3496 10.8252 31.0636 8.1357 27.9707 7.86675C27.8362 7.86675 27.6345 7.86675 27.5 7.86675ZM28.9792 31.3325C28.912 32.1394 28.1724 32.7445 27.3655 32.6773C26.6932 32.61 26.088 32.0721 26.0208 31.3325L24.6088 13.7164C24.5416 12.9095 24.8105 12.1027 25.3484 11.4976C26.4242 10.2873 28.3068 10.22 29.4499 11.3631C29.5171 11.4303 29.5844 11.4976 29.5844 11.4976C30.1222 12.1027 30.3912 12.9095 30.324 13.7164L28.9792 31.3325ZM27.5 37.2494C24.7433 37.2494 22.5245 39.4682 22.5245 42.2249C22.5245 44.9817 24.7433 47.2005 27.5 47.2005C30.2567 47.2005 32.4755 44.9817 32.4755 42.2249C32.4755 39.4682 30.2567 37.2494 27.5 37.2494ZM27.5 44.4438C26.2225 44.4438 25.2139 43.4352 25.2139 42.1577C25.2139 40.8802 26.2225 39.8716 27.5 39.8716C28.7775 39.8716 29.7861 40.8802 29.7861 42.1577C29.7861 43.4352 28.7775 44.4438 27.5 44.4438ZM27.5 0C12.3044 0 0 12.3044 0 27.5C0 42.6956 12.3044 55 27.5 55C42.6956 55 55 42.6956 55 27.5C55 12.3044 42.6956 0 27.5 0ZM27.5 52.3105C13.7836 52.3105 2.68949 41.2164 2.68949 27.5C2.68949 13.7836 13.7836 2.68949 27.5 2.68949C41.2164 2.68949 52.3105 13.7836 52.3105 27.5C52.3105 41.2164 41.2164 52.3105 27.5 52.3105Z" fill="#192646"/>
</svg>
