<svg width="56" height="55" viewBox="0 0 56 55" fill="none" xmlns="http://www.w3.org/2000/svg">
<path d="M23.0169 16.785C23.0169 17.0224 23.2542 17.2597 23.4915 17.4971C23.7288 17.7345 23.9661 17.7345 24.2034 17.7345C24.2034 17.7345 25.1525 17.4971 26.339 17.4971C29.1864 17.4971 32.9831 18.4465 34.6441 23.6685C34.6441 23.9058 34.8814 24.1432 35.1186 24.1432H35.3559C35.5932 24.1432 35.5932 24.1432 35.8305 24.1432C36.0678 23.9058 41.7627 21.0575 42.4746 12.5125C42.4746 12.2752 42.4746 7.52797 38.9153 3.73021C35.1186 -0.0675516 29.1864 -1.01699 20.4068 1.11925C20.1695 1.11925 18.0339 2.06869 17.0847 3.73021C17.0847 3.96757 16.3729 6.10381 18.7458 8.71477C20.4068 10.3763 22.7797 14.6488 23.0169 16.785ZM18.9831 4.44229C19.2203 3.73021 20.4068 3.01813 21.1186 2.78077C28.7119 0.881889 34.4068 1.59397 37.7288 4.91701C40.8136 8.00269 40.5763 12.2752 40.8136 12.2752C40.339 17.7345 37.7288 20.5828 36.3051 21.7696C33.9322 16.3103 29.1864 15.5982 26.5763 15.5982C25.8644 15.5982 25.3898 15.5982 24.9153 15.5982C24.4407 12.9873 22.0678 9.18949 20.6441 7.52797C18.7458 5.62909 18.9831 4.44229 18.9831 4.44229Z" fill="#192646"/>
<path d="M15.661 42.4199L22.0678 32.4508C22.3051 31.9761 22.3051 31.5013 21.8305 31.264C21.8305 31.264 18.2712 28.1783 18.9831 24.1432C18.9831 24.1432 19.6949 21.0575 21.3559 19.396C21.5932 19.1586 21.5932 18.9213 21.5932 18.4465C21.5932 17.9718 21.3559 17.9718 21.1186 17.7345C20.8814 17.7345 18.0339 16.3103 14.4746 16.3103C9.9661 16.3103 6.16949 18.4465 3.32203 22.4817C3.32203 22.4817 -1.42373 33.8749 9.49153 42.6573C9.72881 42.8946 11.1525 44.3188 12.8136 44.3188C13.7627 44.3188 14.9492 43.8441 15.661 42.4199ZM4.98305 23.4311C7.35593 20.1081 10.4407 18.2092 14.4746 18.2092C16.3729 18.2092 18.2712 18.6839 19.2203 18.9213C17.7966 21.0575 17.322 23.4311 17.322 23.6685C16.6102 27.7036 18.9831 30.7893 20.1695 31.9761L14.2373 41.4705C13.7627 42.4199 13.2881 42.4199 13.0508 42.4199C12.339 42.4199 11.3898 41.7078 11.1525 41.2331C0.711864 33.4002 4.98305 23.6685 4.98305 23.4311Z" fill="#192646"/>
<path d="M48.1695 29.8398C41.5254 29.6025 35.8305 26.7541 35.5932 26.7541C35.3559 26.5168 35.1186 26.5168 34.8814 26.7541C34.6441 26.7541 34.4068 26.9915 34.4068 27.2289C32.9831 30.7893 30.6102 32.6881 27.2881 32.6881C25.6271 32.6881 24.2034 32.2134 24.2034 32.2134C23.9661 32.2134 23.4915 32.2134 23.2542 32.2134C23.017 32.4508 22.7797 32.6881 22.7797 32.9255C22.5424 37.4353 23.4915 41.2331 25.8644 43.8441C29.1864 47.6418 34.1695 47.8792 34.4068 47.8792C44.8475 47.4045 49.1186 37.6727 49.1186 37.198C50.5424 34.587 51.017 32.4508 50.3051 31.0266C49.8305 30.0772 48.4068 29.8398 48.1695 29.8398ZM47.6949 36.7233C47.4576 37.198 43.8983 45.9803 34.6441 46.2177C34.1695 46.2177 30.3729 45.743 27.5254 42.6573C25.6271 40.521 24.9153 37.9101 24.9153 34.3497C25.6271 34.587 26.339 34.587 27.2881 34.587C29.661 34.587 33.4576 33.8749 35.8305 28.8904C37.7288 29.8398 42.7119 31.5013 48.1695 31.7387C48.1695 31.7387 48.6441 31.7387 48.8814 32.2134C49.1186 32.4508 49.3559 33.6376 47.6949 36.7233Z" fill="#192646"/>
<path d="M22.7797 24.8553C22.7797 27.2289 24.678 28.8904 26.8136 28.8904C28.9492 28.8904 30.8475 26.9915 30.8475 24.8553C30.8475 22.719 28.9492 20.8201 26.8136 20.8201C24.678 20.5828 22.7797 22.4817 22.7797 24.8553ZM29.1864 24.8553C29.1864 26.0421 28.2373 26.9915 27.0508 26.9915C25.8644 26.9915 24.9153 26.0421 24.9153 24.8553C24.9153 23.6685 25.8644 22.719 27.0508 22.719C28.2373 22.719 29.1864 23.6685 29.1864 24.8553Z" fill="#192646"/>
<path d="M13.7627 1.83133C14.2373 1.83133 14.4746 1.11925 14.2373 0.644529C14 0.169809 13.5254 -0.0675515 13.0508 0.169809C6.40678 2.78077 1.42373 8.71477 0 15.5982C0 16.0729 0.237288 16.5477 0.711864 16.785H0.949153C1.42373 16.785 1.89831 16.5477 1.89831 16.0729C3.08475 9.66421 7.59322 4.20493 13.7627 1.83133Z" fill="#192646"/>
<path d="M31.0847 51.9143C25.1525 53.8132 18.0339 52.6264 13.0508 48.5913C12.5763 48.3539 12.1017 48.3539 11.6271 48.8286C11.3898 49.3034 11.3898 49.7781 11.8644 50.2528C15.661 53.3385 20.1695 55 25.1525 55C27.2881 55 29.661 54.7626 31.5593 54.0506C32.0339 53.8132 32.2712 53.3385 32.2712 52.8638C32.2712 51.9143 31.5593 51.677 31.0847 51.9143Z" fill="#192646"/>
<path d="M55.5254 18.2092C54.339 12.5125 51.2542 7.52797 46.5085 4.20493C46.0339 3.96757 45.5593 3.96757 45.0847 4.44229C44.8475 4.91701 44.8475 5.39173 45.322 5.86645C49.5932 8.95213 52.4407 13.6993 53.6271 18.6839C53.8644 20.1081 54.1017 21.5322 54.1017 22.9564C54.1017 25.0926 53.8644 27.2289 53.1525 29.1277C52.9153 29.6025 53.3898 30.0772 53.8644 30.3145H54.1017C54.5763 30.3145 54.8136 30.0772 55.0508 29.6025C55.7627 27.4662 56 25.0926 56 22.719C56 21.2949 55.7627 19.6333 55.5254 18.2092Z" fill="#192646"/>
<path d="M13.5254 4.44229C8.30508 6.34117 4.74576 11.0884 4.0339 16.5477C4.0339 17.0224 4.27119 17.4971 4.98305 17.4971C5.45763 17.4971 5.9322 17.0224 5.9322 16.5477C6.40678 11.8005 9.72881 7.76533 14.2373 6.10381C14.7119 5.86645 14.9492 5.39173 14.7119 4.91701C14.4746 4.44229 14 4.20493 13.5254 4.44229Z" fill="#192646"/>
<path d="M16.8475 47.6418C16.6102 48.1166 16.6102 48.5913 17.0847 48.8286C19.4576 50.4902 22.3051 51.2022 25.1525 51.2022C26.5763 51.2022 27.7627 50.9649 29.1864 50.7275C29.661 50.4902 29.8983 50.0154 29.8983 49.5407C29.8983 49.066 29.1864 48.8286 28.7119 48.8286C25.1525 49.7781 21.3559 49.3034 18.2712 47.1671C17.7966 46.9298 17.0847 47.1671 16.8475 47.6418Z" fill="#192646"/>
<path d="M45.0847 9.66421C44.6102 10.1389 44.6102 10.6137 45.0847 11.0884C48.8814 15.1235 50.3051 20.5828 49.5932 25.8047C49.5932 26.5168 49.3559 26.9915 49.1186 27.4662C48.8814 27.9409 49.3559 28.4157 49.8305 28.653H50.0678C50.5424 28.653 50.7797 28.4157 51.0169 27.9409C51.2542 27.2289 51.2542 26.7541 51.4915 26.0421C52.4407 20.1081 50.7797 14.1741 46.5085 9.66421C46.0339 9.18949 45.322 9.18949 45.0847 9.66421Z" fill="#192646"/>
</svg>
