<svg width="57" height="57" viewBox="0 0 57 57" fill="none" xmlns="http://www.w3.org/2000/svg">
<path d="M44.5021 6.00109L44.4936 5.99264L44.4839 5.98562C39.8432 2.62737 34.216 0.85 28.4907 0.85C13.1897 0.85 0.85 13.194 0.85 28.5C0.85 43.806 13.1897 56.15 28.4907 56.15C35.3019 56.15 41.8172 53.6812 46.9499 49.1391L46.9506 49.1385C58.3029 38.9673 59.2903 21.4886 49.1223 10.1321L49.1224 10.1319L49.1166 10.1261C48.6862 9.69554 48.0001 9.5575 47.5299 10.0279C47.1004 10.4575 46.9621 11.1418 47.4288 11.6121C55.4299 20.4969 56.1124 33.676 49.1831 43.3412L49.1828 43.3416C40.9838 54.8632 25.1722 57.4995 13.6542 49.2975C2.13653 41.0957 -0.499013 25.2787 7.70034 13.7566C15.8992 2.23525 31.8079 -0.400809 43.2273 7.79955C43.6905 8.14598 44.2686 8.02485 44.6078 7.5806C45.0689 7.1105 44.9302 6.42933 44.5021 6.00109ZM24.4134 45.1964C24.4134 47.4399 26.2478 49.275 28.4907 49.275C30.7335 49.275 32.5679 47.4399 32.5679 45.1964V23.5893C32.5679 21.3458 30.7335 19.5107 28.4907 19.5107C26.2478 19.5107 24.4134 21.3458 24.4134 23.5893V45.1964ZM26.6771 23.5893C26.6771 22.5917 27.4936 21.775 28.4907 21.775C29.4878 21.775 30.3043 22.5917 30.3043 23.5893V45.1964C30.3043 46.194 29.4878 47.0107 28.4907 47.0107C27.4936 47.0107 26.6771 46.194 26.6771 45.1964V23.5893ZM32.077 12.2946C32.077 10.3458 30.439 8.70714 28.4907 8.70714C26.5423 8.70714 24.9043 10.3458 24.9043 12.2946C24.9043 14.2435 26.5423 15.8821 28.4907 15.8821C30.439 15.8821 32.077 14.2435 32.077 12.2946Z" fill="#192646" stroke="#192646" stroke-width="0.3"/>
</svg>
