<svg width="41" height="36" viewBox="0 0 41 36" fill="none" xmlns="http://www.w3.org/2000/svg">
<path d="M23.1721 2.36623L23.1714 2.36511C22.6435 1.48767 21.703 0.9 20.6421 0.9C19.5849 0.9 18.6427 1.42762 18.1127 2.30844L18.1124 2.309L1.34822 30.5846C0.760384 31.5233 0.761068 32.6387 1.28968 33.5758C1.81863 34.5135 2.81776 35.1 3.87729 35.1H37.1227C38.2402 35.1 39.1819 34.5125 39.7103 33.5758C40.2389 32.6388 40.2396 31.5235 39.652 30.5849C39.6517 30.5844 39.6514 30.584 39.6511 30.5836L23.1721 2.36623ZM2.4854 31.2549L2.48576 31.2543L19.1923 3.03666C19.519 2.54934 20.0014 2.23333 20.5852 2.23333C21.1748 2.23333 21.7093 2.55429 21.9755 3.032L21.9754 3.03202L21.9765 3.03389L38.514 31.2539L38.5146 31.2549C38.8365 31.7898 38.8365 32.3735 38.5146 32.9084C38.189 33.4495 37.7079 33.7667 37.0659 33.7667H3.87729C3.29087 33.7667 2.75408 33.4484 2.42944 32.9099C2.16402 32.4322 2.16268 31.7912 2.4854 31.2549ZM22.0472 25.443L22.0474 25.443L22.0483 25.4363L23.7532 12.403L23.7541 12.4031V12.39C23.7541 12.2 23.6913 12.0145 23.6298 11.8918C23.5826 11.7977 23.4777 11.7443 23.3872 11.7143C23.2908 11.6822 23.1806 11.6667 23.0858 11.6667H18.5394C18.3491 11.6667 18.1508 11.7296 18.0141 11.8659C17.9383 11.9414 17.9034 12.0336 17.8869 12.1241C17.8711 12.211 17.8711 12.3037 17.8711 12.3856V12.39H17.8702L17.8719 12.403L19.5768 25.4363L19.5766 25.4363L19.5779 25.443C19.642 25.7624 19.9024 26.0333 20.2443 26.0333H21.3809C21.7227 26.0333 21.9831 25.7624 22.0472 25.443ZM19.3919 13H22.3469L20.8694 24.4588L19.3919 13ZM20.8126 26.5133C19.5057 26.5133 18.4962 27.5795 18.4962 28.8233C18.4962 30.0672 19.5057 31.1333 20.8126 31.1333C22.1194 31.1333 23.1289 30.0672 23.1289 28.8233C23.1289 27.5795 22.1194 26.5133 20.8126 26.5133ZM20.8126 29.8C20.2458 29.8 19.8328 29.338 19.8328 28.8233C19.8328 28.3122 20.2992 27.8467 20.8126 27.8467C21.3259 27.8467 21.7923 28.3122 21.7923 28.8233C21.7923 29.338 21.3793 29.8 20.8126 29.8Z" fill="white" stroke="white" stroke-width="0.2"/>
</svg>
