<svg width="51" height="55" viewBox="0 0 51 55" fill="none" xmlns="http://www.w3.org/2000/svg">
<path d="M12.1179 1.11082L11.8293 1.40208H12.0915V19.1235C12.0915 19.5058 12.3975 19.8255 12.7908 19.8255H24.6171V42.3721L8.13455 32.8642C7.91089 32.7292 7.63609 32.7396 7.42628 32.8647C7.2237 32.9855 7.0805 33.209 7.0805 33.4665V42.8814L1.29926 42.8834C1.29921 42.8834 1.29917 42.8834 1.29912 42.8834C0.909703 42.8834 0.6 43.2014 0.6 43.5854C0.6 43.9713 0.909513 44.2853 1.29926 44.2853H7.0805V53.698C7.0805 53.9453 7.2129 54.178 7.4307 54.3024C7.64599 54.4286 7.91713 54.4284 8.1322 54.3016C8.13323 54.301 8.13426 54.3004 8.13529 54.2998L25.3143 44.3908L42.4467 54.273V54.4H42.8467C42.9731 54.4 43.0952 54.3645 43.2001 54.3019C43.2002 54.3019 43.2002 54.3019 43.2002 54.3019L43.0201 54M12.1179 1.11082L43.5439 44.2834L43.1439 44.2832V53.5979H43.2467V53.6959V53.9979V54H43.0201M12.1179 1.11082C12.2006 0.817897 12.4684 0.6 12.7908 0.6H13.7502L13.7481 0.602083H37.8377C38.2311 0.602083 38.537 0.921848 38.537 1.30411V19.1256C38.537 19.5154 38.2215 19.8276 37.8377 19.8276H26.0114V42.3762L12.1179 1.11082ZM43.0201 54H42.8467H43.0201ZM26.7175 43.5792L42.1516 34.6776V52.4826L26.7175 43.5792ZM8.48108 34.6777L23.9112 43.5792L8.48108 52.4825V34.6777ZM42.9973 33.2103C42.9065 33.1562 42.7889 33.1562 42.6981 33.2103H42.9973ZM13.4859 2.00197H37.1405V18.4215H26.0156V10.6044H35.2558C35.6415 10.6044 35.9551 10.2883 35.9551 9.90242C35.9551 9.51834 35.6453 9.20039 35.2558 9.20039H15.3706C14.9811 9.20039 14.6714 9.51834 14.6714 9.90242C14.6714 10.2865 14.9811 10.6044 15.3706 10.6044H24.6171V18.4215H13.4859V2.00197Z" fill="#192646" stroke="#192646" stroke-width="0.8"/>
</svg>
