<svg width="50" height="63" viewBox="0 0 50 63" fill="none" xmlns="http://www.w3.org/2000/svg">
<path d="M2.47016 25.2169H7.35798C7.86361 25.2169 8.36925 24.7952 8.36925 24.2892C8.36925 23.7831 7.94789 23.3614 7.44225 23.3614H2.47016C1.96452 23.3614 1.54316 23.7831 1.54316 24.2892C1.54316 24.7952 1.96452 25.2169 2.47016 25.2169Z" fill="#192646"/>
<path d="M49.073 23.2771H44.1852C43.6795 23.2771 43.2582 23.6988 43.2582 24.2048C43.2582 24.7108 43.6795 25.1325 44.1852 25.1325H49.073C49.5786 25.1325 50 24.7108 50 24.2048C50 23.6988 49.5786 23.2771 49.073 23.2771Z" fill="#192646"/>
<path d="M25.8137 6.83133C26.3194 6.83133 26.7407 6.40964 26.7407 5.90361V0.927711C26.7407 0.421687 26.3194 0 25.8137 0C25.3081 0 24.8867 0.421687 24.8867 0.927711V5.81928C24.8024 6.40964 25.3081 6.83133 25.8137 6.83133Z" fill="#192646"/>
<path d="M41.7413 16.0241C41.9098 16.0241 42.0784 15.9398 42.2469 15.8554L46.4605 13.4096C46.9662 13.1566 47.1347 12.5663 46.8819 12.1446C46.6291 11.7229 46.0392 11.5542 45.5335 11.8072L41.3199 14.253C40.8985 14.506 40.73 15.0964 40.9828 15.5181C41.0671 15.8554 41.4042 16.0241 41.7413 16.0241Z" fill="#192646"/>
<path d="M15.7853 8.77108C15.9538 9.10843 16.2909 9.27711 16.628 9.27711C16.7965 9.27711 16.9651 9.19277 17.1336 9.10843C17.555 8.85542 17.7235 8.26506 17.4707 7.84337L15.0268 3.54217C14.774 3.12048 14.1841 2.95181 13.7627 3.20482C13.3413 3.45783 13.1728 4.04819 13.4256 4.46988L15.7853 8.77108Z" fill="#192646"/>
<path d="M5.16688 13.4096L9.38052 15.8554C9.54907 15.9398 9.71761 16.0241 9.88616 16.0241C10.3918 16.0241 10.8132 15.6024 10.8132 15.0964C10.8132 14.759 10.6446 14.4217 10.3075 14.253L6.09388 11.8072C5.67252 11.5542 5.08261 11.7229 4.82979 12.1446C4.57697 12.5663 4.74552 13.1566 5.16688 13.4096Z" fill="#192646"/>
<path d="M46.4605 35.0843L42.2469 32.6386C41.8255 32.3012 41.2356 32.3855 40.8985 32.8072C40.5614 33.2289 40.6457 33.8193 41.0671 34.1566C41.1514 34.241 41.1514 34.241 41.2356 34.241L45.4493 36.6867C45.6178 36.7711 45.7864 36.8554 45.9549 36.8554C46.292 36.8554 46.6291 36.6867 46.7976 36.3494C47.0505 35.9277 46.8819 35.3373 46.4605 35.0843Z" fill="#192646"/>
<path d="M34.4938 9.19277C34.6624 9.27711 34.8309 9.36145 34.9994 9.36145C35.3365 9.36145 35.6736 9.19277 35.8422 8.85542L38.2861 4.63855C38.5389 4.21687 38.3704 3.62651 37.949 3.37349C37.5276 3.12048 36.9377 3.28916 36.6006 3.71084L34.0724 8.01205C33.9039 8.3494 34.0724 8.85542 34.4938 9.19277Z" fill="#192646"/>
<path d="M38.2018 38.7952C38.2018 38.6265 38.2018 38.4578 38.2018 38.3735C38.2018 36.7711 37.7804 35.253 37.022 33.8193C39.2974 31.1205 40.5614 27.747 40.5614 24.2892C40.5614 16.1084 33.9039 9.44578 25.7294 9.44578C17.555 9.44578 10.8974 16.1084 10.8974 24.2892C10.8974 25.0482 10.9817 25.7229 11.1503 26.4819C9.04343 28.0843 7.77934 30.5301 7.77934 33.1446V33.3976C3.81852 33.0602 0.363337 36.0121 0.0262454 39.9759C-0.310846 43.9398 2.6387 47.3976 6.59952 47.7349C6.93661 47.7349 7.2737 47.7349 7.52652 47.7349H7.86361C7.86361 47.988 7.77934 48.241 7.77934 48.494C7.77934 48.8313 7.77934 49.0843 7.86361 49.4217C7.94789 49.9277 8.45352 50.3494 8.95916 50.2651C9.4648 50.1807 9.88616 49.6747 9.80189 49.1687C9.71761 48.9157 9.71761 48.747 9.71761 48.494C9.71761 46.3012 11.2345 44.4458 13.4256 44.0241C13.9313 43.9398 14.2683 43.4337 14.1841 42.8434C14.1841 42.759 14.0998 42.6747 14.0998 42.5904C13.7627 42 13.5942 41.4096 13.5942 40.7349C13.5942 38.7108 15.2796 37.0241 17.3022 36.9398C18.2292 36.9398 19.1562 37.2771 19.8303 37.9518C20.0832 38.2048 20.5045 38.2892 20.8416 38.1205C21.1787 37.9518 21.3473 37.6988 21.4315 37.3614C22.0214 33.2289 25.7294 30.3614 29.8588 30.9518C33.5668 31.4578 36.3478 34.5783 36.3478 38.3735C36.3478 38.8795 36.2635 39.3012 36.1793 39.7229C36.095 40.2289 36.4321 40.7349 37.022 40.8193C37.1063 40.8193 37.2748 40.8193 37.3591 40.8193C40.6457 40.1446 43.9324 42.253 44.6065 45.5422C45.2807 48.8313 43.1739 52.1205 39.8873 52.7952C39.4659 52.8795 39.0445 52.9639 38.6232 52.9639H37.4434C36.9377 52.9639 36.5164 53.3855 36.5164 53.8916C36.5164 54.3976 36.9377 54.8193 37.4434 54.8193H38.6232C43.0896 54.8193 46.6291 51.1928 46.6291 46.7229C46.6291 42.253 43.0054 38.7108 38.5389 38.7108C38.4546 38.7952 38.3704 38.7952 38.2018 38.7952ZM19.9146 35.6747C19.1562 35.253 18.2292 35.0843 17.3864 35.0843C14.2683 35.0843 11.8244 37.6145 11.8244 40.7349C11.8244 41.3253 11.9087 41.9157 12.0773 42.4217C10.4761 43.0121 9.21198 44.2771 8.5378 45.7952H7.61079C4.74552 45.7952 2.38588 43.4337 2.38588 40.5663C2.38588 37.6988 4.74552 35.3374 7.61079 35.3374C7.94789 35.3374 8.36925 35.3374 8.70634 35.4217C9.04343 35.506 9.29625 35.3374 9.54907 35.1687C9.80189 34.9157 9.88616 34.6627 9.80189 34.3253C9.71761 33.9036 9.71761 33.5663 9.71761 33.1446C9.63334 29.6024 12.4986 26.7349 16.0381 26.6506C19.0719 26.6506 21.6843 28.6747 22.3585 31.6265C21.1787 32.7229 20.336 34.1566 19.9146 35.6747ZM28.8475 29.0121C27.1621 29.0121 25.4766 29.5181 23.9597 30.3614C22.7799 26.988 19.6618 24.7952 16.1223 24.7952C15.0268 24.7952 13.9313 25.0482 12.92 25.4699C12.92 25.0482 12.8357 24.7108 12.8357 24.3735C12.6672 17.2048 18.3134 11.3012 25.3923 11.1325C32.4713 10.9639 38.5389 16.4458 38.7074 23.6145C38.7074 23.8675 38.7074 24.0361 38.7074 24.2892C38.7074 27.1566 37.6962 29.9398 35.9264 32.2169C34.1567 30.1084 31.5443 28.9277 28.8475 29.0121Z" fill="#192646"/>
<path d="M8.62207 53.9759L6.59952 56C6.26243 56.3374 6.26243 57.0121 6.59952 57.3494C6.76807 57.5181 7.02089 57.6024 7.2737 57.6024C7.52652 57.6024 7.77934 57.5181 7.94789 57.3494L9.97043 55.3253C10.3075 54.988 10.3075 54.3133 9.97043 53.9759C9.63334 53.5542 9.04343 53.5542 8.62207 53.9759Z" fill="#192646"/>
<path d="M3.22861 59.3735L1.20606 61.3976C0.868973 61.7349 0.868973 62.3253 1.20606 62.747C1.37461 62.9157 1.62743 63 1.88025 63C2.13306 63 2.38588 62.9157 2.55443 62.747L4.57698 60.7229C4.91407 60.3855 4.91407 59.7108 4.57698 59.3735C4.23988 58.9518 3.5657 58.9518 3.22861 59.3735Z" fill="#192646"/>
<path d="M13.3413 51.9518L15.3639 49.9277C15.701 49.5904 15.701 48.9157 15.3639 48.5783C15.0268 48.241 14.3526 48.241 14.0155 48.5783L11.993 50.6024C11.6559 50.9398 11.5716 51.5301 11.9087 51.9518C11.9087 51.9518 11.9087 51.9518 11.993 52.0361C12.1615 52.2048 12.4143 52.3735 12.6672 52.2892C12.92 52.2048 13.1728 52.1205 13.3413 51.9518Z" fill="#192646"/>
<path d="M18.9876 53.5542L21.0102 51.5301C21.3473 51.1928 21.4315 50.6024 21.0944 50.2651C21.0944 50.2651 21.0944 50.1807 21.0102 50.1807C20.6731 49.8434 20.0832 49.8434 19.6618 50.1807L17.6393 52.2048C17.3022 52.5422 17.3022 53.2169 17.6393 53.5542C17.8078 53.7229 18.0606 53.8072 18.3134 53.8072C18.5663 53.8072 18.8191 53.7229 18.9876 53.5542Z" fill="#192646"/>
<path d="M24.3811 45.4578L22.3585 47.4819C22.0214 47.8193 22.0214 48.494 22.3585 48.8313C22.5271 49 22.7799 49.0843 23.0327 49.0843C23.2855 49.0843 23.5383 49 23.7069 48.8313L25.7294 46.8072C26.1508 46.4699 26.1508 45.8795 25.8137 45.4578C25.4766 45.0361 24.8867 45.0361 24.3811 45.4578C24.4653 45.3735 24.4653 45.3735 24.3811 45.4578Z" fill="#192646"/>
<path d="M16.2909 54.9036C15.9538 54.5663 15.2796 54.5663 14.9425 54.9036L12.92 56.9277C12.5829 57.2651 12.5829 57.9398 12.92 58.2771C13.0885 58.4458 13.3413 58.5301 13.5942 58.5301C13.847 58.5301 14.0998 58.4458 14.2683 58.2771L16.2909 56.253C16.628 55.8313 16.628 55.241 16.2909 54.9036Z" fill="#192646"/>
<path d="M27.8363 51.9518L29.8588 49.9277C30.1959 49.5904 30.2802 49 29.9431 48.6627C29.9431 48.6627 29.9431 48.5783 29.8588 48.5783C29.5217 48.241 28.9318 48.241 28.5104 48.5783L26.4879 50.6024C26.1508 51.0241 26.1508 51.6145 26.4879 51.9518C26.6564 52.1205 26.9093 52.2048 27.1621 52.2048C27.4149 52.2048 27.6677 52.1205 27.8363 51.9518Z" fill="#192646"/>
<path d="M23.117 53.9759L21.0944 56C20.7573 56.3374 20.6731 56.9277 21.0102 57.2651L21.0944 57.3494C21.263 57.5181 21.5158 57.6024 21.7686 57.6024C22.0214 57.6024 22.2743 57.5181 22.4428 57.3494L24.4653 55.3253C24.8024 54.9036 24.8024 54.3133 24.4653 53.9759C24.1283 53.5542 23.4541 53.5542 23.117 53.9759Z" fill="#192646"/>
<path d="M17.7235 59.3735L15.701 61.3976C15.3639 61.8193 15.3639 62.4096 15.701 62.747C15.8695 62.9157 16.1223 63 16.3752 63C16.628 63 16.8808 62.9157 17.0493 62.747L19.0719 60.7229C19.409 60.3855 19.409 59.7108 19.0719 59.3735C18.7348 59.0361 18.0606 58.9518 17.7235 59.3735Z" fill="#192646"/>
<path d="M34.1567 50.1807L32.0499 52.2048C31.7128 52.5422 31.7128 53.2169 32.0499 53.5542C32.2184 53.7229 32.4713 53.8072 32.7241 53.8072C32.9769 53.8072 33.2297 53.7229 33.3983 53.5542L35.4208 51.5301C35.7579 51.1928 35.7579 50.5181 35.4208 50.1807C35.0837 49.8434 34.4938 49.8434 34.1567 50.1807Z" fill="#192646"/>
<path d="M37.4434 49.0843C37.6962 49.0843 37.949 49 38.1175 48.8313L40.1401 46.8072C40.4772 46.4699 40.4772 45.7952 40.1401 45.4578C39.7187 45.1205 39.1288 45.1205 38.7917 45.4578L36.7692 47.4819C36.4321 47.9036 36.4321 48.494 36.7692 48.8313C37.022 49 37.1905 49.0843 37.4434 49.0843Z" fill="#192646"/>
<path d="M29.4374 54.9036L27.4149 56.9277C27.0778 57.2651 27.0778 57.9398 27.4149 58.2771C27.5834 58.4458 27.8363 58.5301 28.0891 58.5301C28.3419 58.5301 28.5947 58.4458 28.7633 58.2771L30.7858 56.253C31.2072 55.9157 31.2072 55.3253 30.8701 54.9036C30.533 54.4819 29.8588 54.4819 29.4374 54.9036Z" fill="#192646"/>
</svg>
