<svg width="31" height="43" viewBox="0 0 31 43" fill="none" xmlns="http://www.w3.org/2000/svg">
<path fill-rule="evenodd" clip-rule="evenodd" d="M0.582764 13.4069L29.5828 0.0911865L30.4173 1.90875L8.00685 12.1988L8.05151 16.2266H10.5088L10.3664 32.5951H7.87504V40.9408L29.0028 41L28.9972 43L5.87504 42.9352V30.5951H8.3837L8.4913 18.2266H6.07357L6.01686 13.1125L1.41732 15.2245L0.582764 13.4069Z" fill="#969696"/>
<rect x="8" y="16" width="4" height="17" fill="white"/>
<path d="M17.6665 9.47418L15.1665 8.58758L2.66645 31.6392L3.49978 33.4124H28.4998L29.3331 32.5258L28.4998 29.866L17.6665 9.47418Z" fill="#D2D2D2"/>
<path d="M14.875 24.9179C14.9091 25.7159 15.3523 26.1874 16 26.1874C16.6478 26.1874 17.091 25.7159 17.1251 24.9179C17.1933 23.7572 17.2615 22.5603 17.2955 21.3996C17.3637 20.2389 17.4319 19.1145 17.466 17.9538C17.5001 16.9745 16.8183 16.1765 15.966 16.2128C15.0796 16.249 14.4318 17.0107 14.5 18.0263C14.6364 20.3114 14.7727 22.6328 14.875 24.9179Z" fill="#192646"/>
<path d="M16.034 26.9845C14.9771 26.9845 14.1589 27.8187 14.1589 28.9068C14.1589 30.0675 14.9771 30.9743 16.034 30.9743C17.0567 30.9743 17.909 30.0675 17.909 29.0157C17.8749 27.8912 17.0567 26.9845 16.034 26.9845Z" fill="#192646"/>
<path d="M30.5223 30.5026C27.2155 24.4819 22.8179 16.5389 18.4543 8.63212C17.8747 7.58031 16.9884 7 15.9998 7C15.0112 7 14.1248 7.58031 13.5794 8.59585C11.568 12.2228 9.55669 15.886 7.54536 19.513C6.07947 22.1606 4.61358 24.8446 3.1136 27.4922C2.90906 27.8187 2.73861 28.1813 2.53407 28.5078C2.15907 29.1969 1.78408 29.886 1.40908 30.5751C1.20454 30.9378 1.10227 31.3005 1.03409 31.6269C0.96591 32.0984 1 32.6062 1.13636 33.0777C1.30681 33.513 1.57954 33.9119 1.92044 34.2383C2.19316 34.456 2.49998 34.6373 2.87497 34.7824C3.35224 34.9637 3.8295 35 4.13632 35C6.76128 35 9.35215 35 11.7726 35H19.4088C22.2042 35 24.9996 35 27.7951 35C27.8291 35 27.8632 35 27.8632 35C27.8973 35 27.9655 35 27.9996 35C28.1019 35 28.2723 35 28.4769 34.9637C29.9087 34.7824 30.5223 33.8756 30.7609 33.3679C30.9655 32.8601 31.2723 31.8083 30.5223 30.5026ZM28.2041 32.9689C28.136 32.9689 28.0678 32.9689 27.9655 32.9689C27.8973 32.9689 27.8291 32.9689 27.761 32.9689C24.9655 32.9689 22.1701 32.9689 19.3747 32.9689H15.9657C14.568 32.9689 13.1703 32.9689 11.7726 32.9689C9.21579 32.9689 6.6931 32.9689 4.17041 32.9689C3.96586 32.9689 3.72723 32.9326 3.52269 32.8601C2.90906 32.6425 2.7727 32.2073 3.07951 31.5907C3.62496 30.5751 4.2045 29.5233 4.78403 28.5078C8.26125 22.2332 11.7385 15.9223 15.2157 9.64767C15.4543 9.2487 15.7271 9.03109 15.9998 9.03109C16.2725 9.03109 16.5793 9.2487 16.8179 9.64767C20.8406 16.9378 24.8633 24.228 28.8859 31.5181C29.3291 32.3161 29.0564 32.8601 28.2041 32.9689Z" fill="#192646"/>
</svg>
