<svg width="35" height="42" viewBox="0 0 35 42" fill="none" xmlns="http://www.w3.org/2000/svg">
<path fill-rule="evenodd" clip-rule="evenodd" d="M5.64327 12.8518L1.42512 14.8329L0.57489 13.0226L28.1003 0.0948486L28.9505 1.90513L7.65349 11.9077L7.6115 15.8302L9.0158 15.7887L18.6127 24.9968L17.2281 26.44L8.2364 17.8126L5.58933 17.8908L5.64327 12.8518ZM5.77922 29.8596L7.77909 29.8367L7.88697 39.265L27.7538 39.322L27.748 41.322L5.90965 41.2593L5.77922 29.8596Z" fill="#192646"/>
<path fill-rule="evenodd" clip-rule="evenodd" d="M20.0019 33.2182L26.5309 28.7275C26.8476 28.5077 27.1617 28.2896 27.4806 28.0758L34.0565 23.5647C34.3568 23.3525 34.7243 23.1363 35 22.9088L34.3649 22C34.1685 22.0655 27.4937 26.7059 26.8691 27.1288L22.1907 30.335C21.8723 30.5594 21.5743 30.7508 21.26 30.9747L19.3587 32.2646C19.436 31.6355 19.7329 30.2421 19.8603 29.5195C19.931 29.1186 20.1494 28.4524 19.8973 28.1651C19.5891 27.8139 19.0156 27.977 18.9077 28.4494C18.6396 29.6231 18.3897 31.2701 18.1485 32.5486C17.858 34.0877 17.8704 33.9659 19.3408 34.2447L23.5023 34.9987C24.0034 35.0305 24.3025 34.483 24.0113 34.1121C23.796 33.8377 23.2422 33.8138 22.7659 33.7267C21.8668 33.5624 20.8893 33.4203 20.0019 33.2182V33.2182Z" fill="#192646"/>
</svg>
