<svg width="35" height="43" viewBox="0 0 35 43" fill="none" xmlns="http://www.w3.org/2000/svg">
<path fill-rule="evenodd" clip-rule="evenodd" d="M32.9981 22.7818L26.4691 27.2725C26.1524 27.4923 25.8383 27.7104 25.5194 27.9242L18.9435 32.4353C18.6432 32.6475 18.2757 32.8637 18 33.0912L18.6351 34C18.8315 33.9345 25.5063 29.2941 26.1309 28.8712L30.8093 25.665C31.1277 25.4406 31.4257 25.2492 31.74 25.0253L33.6413 23.7354C33.564 24.3645 33.2671 25.7579 33.1397 26.4805C33.069 26.8814 32.8506 27.5476 33.1027 27.8349C33.4109 28.1861 33.9844 28.023 34.0923 27.5506C34.3604 26.3769 34.6103 24.7299 34.8515 23.4514C35.142 21.9123 35.1296 22.0341 33.6592 21.7553L29.4977 21.0013C28.9966 20.9695 28.6975 21.517 28.9887 21.8879C29.204 22.1623 29.7578 22.1862 30.2341 22.2733C31.1332 22.4376 32.1107 22.5797 32.9981 22.7818V22.7818Z" fill="#192646"/>
<path fill-rule="evenodd" clip-rule="evenodd" d="M5.94638 13.283L1.42149 15.3862L0.578491 13.5726L29.5785 0.0931396L30.4215 1.9068L7.9566 12.3487L7.91162 16.5073L9.42141 16.4631L19.5154 26.048L18.1383 27.4983L8.64784 18.4866L5.88923 18.5673L5.94638 13.283ZM6.08881 31.0907L8.08867 31.0676L8.20282 40.9404L29.1868 41L29.1811 43L6.22574 42.9348L6.08881 31.0907Z" fill="#192646"/>
</svg>
