<svg width="27" height="50" viewBox="0 0 27 50" fill="none" xmlns="http://www.w3.org/2000/svg">
<path d="M17.3636 28.2727C21 30.3636 23.1818 34.1818 23.1818 38.3636C23.1818 44.7273 18 50 11.6364 50C5.18182 50 0 44.7273 0 38.3636C0 34.1818 2.18182 30.3636 5.81818 28.2727V5.72727C5.81818 2.63636 8.45455 0 11.6364 0C14.7273 0 17.3636 2.63636 17.3636 5.72727V28.2727ZM15.0909 29.7273V5.72727C15.0909 3.81818 13.5455 2.27273 11.6364 2.27273C9.72727 2.27273 8.09091 3.81818 8.09091 5.72727V29.7273C4.63636 31.4545 2.27273 34.2727 2.27273 38.3636C2.27273 43.4545 6.45455 47.6364 11.6364 47.6364C16.7273 47.6364 20.9091 43.4545 20.9091 38.3636C20.9091 34.2727 18.6364 31.4545 15.0909 29.7273Z" fill="#192646"/>
<path d="M12.7273 31.4545C16.0909 32 18.5455 34.9091 18.5455 38.3636C18.5455 42.1818 15.4545 45.3636 11.6364 45.3636C7.72727 45.3636 4.63636 42.1818 4.63636 38.3636C4.63636 34.9091 7.18182 32 10.4545 31.4545L10.4545 24.4545H12.7273L12.7273 31.4545ZM11.6364 33.7273C9 33.7273 6.90909 35.8182 6.90909 38.3636C6.90909 40.9091 9 43 11.6364 43C14.1818 43 16.2727 40.9091 16.2727 38.3636C16.2727 35.8182 14.1818 33.7273 11.6364 33.7273Z" fill="#192646"/>
<path d="M19.2727 24.4545H27V26.2727H19.2727V24.4545Z" fill="#192646"/>
</svg>
