<svg width="44" height="52" viewBox="0 0 44 52" fill="none" xmlns="http://www.w3.org/2000/svg">
<mask id="path-1-outside-1_26_1208" maskUnits="userSpaceOnUse" x="2" y="0" width="42" height="52" fill="black">
<rect fill="white" x="2" width="42" height="52"/>
<path d="M23.2788 35.898V10.4898C23.2788 10.1837 23.076 9.97959 22.7719 9.97959C22.4677 9.97959 22.2649 10.1837 22.2649 10.4898V35.949C19.6793 36.2551 17.8542 38.551 18.1077 41.1531C18.3612 43.7551 20.6933 45.5918 23.2788 45.3367C25.8644 45.0816 27.6895 42.7347 27.436 40.1327C27.1825 37.8878 25.4588 36.1531 23.2788 35.898ZM22.7719 44.2653C20.744 44.2653 19.1217 42.6327 19.1217 40.5918C19.1217 38.551 20.744 36.9184 22.7719 36.9184C24.7997 36.9184 26.4221 38.551 26.4221 40.5918C26.4221 42.6327 24.7997 44.2653 22.7719 44.2653ZM33.6717 30.0816L35.2433 32.8367C35.3954 33.0918 35.294 33.398 35.0406 33.551C34.9392 33.602 34.8885 33.602 34.7871 33.602C34.5843 33.602 34.4322 33.5 34.3308 33.3469L32.8099 30.5918C32.6578 30.3367 32.7592 30.0306 33.0127 29.8776C33.2155 29.7755 33.5196 29.8265 33.6717 30.0816ZM40.8707 27.6837C40.7693 27.8367 40.6172 27.9388 40.4144 27.9388C40.3131 27.9388 40.2624 27.8878 40.161 27.8878L37.4233 26.3061C37.1698 26.1531 37.1191 25.8469 37.2205 25.5918C37.3726 25.3367 37.6768 25.2857 37.9303 25.3878L40.6679 27.0204C40.9214 27.1735 41.0228 27.4796 40.8707 27.6837ZM43 19.7245C43 20.0306 42.7972 20.2347 42.493 20.2347H39.3498C39.0456 20.2347 38.8428 20.0306 38.8428 19.7245C38.8428 19.4184 39.0456 19.2143 39.3498 19.2143H42.493C42.7972 19.2143 43 19.4694 43 19.7245ZM37.2712 13.8571C37.1191 13.602 37.2205 13.2959 37.474 13.1429L40.2117 11.5612C40.4651 11.4082 40.7693 11.5102 40.9214 11.7653C41.0735 12.0204 40.9721 12.3265 40.7186 12.4796L37.981 14.0612C37.8796 14.1122 37.8289 14.1122 37.7275 14.1122C37.5247 14.1122 37.3219 14.0102 37.2712 13.8571ZM32.962 9.57143C32.7085 9.41837 32.6578 9.11224 32.7592 8.85714L34.3308 6.10204C34.4829 5.84694 34.7871 5.79592 35.0406 5.89796C35.294 6.05102 35.3447 6.35714 35.2433 6.61224L33.6717 9.36735C33.5196 9.62245 33.2155 9.67347 32.962 9.57143ZM40.0089 49.9796H27.2332C32.4043 47.5306 34.5843 41.3061 32.1508 36.1531C31.3397 34.4184 30.0215 32.9388 28.3992 31.8673V28.551C33.2155 28.2959 36.9163 24.1633 36.6629 19.2653C36.4094 14.7755 32.8606 11.2041 28.3485 10.949V6.61224C28.3485 3.5 25.8644 1 22.7719 1C19.6793 1 17.1952 3.5 17.1952 6.61224V31.8163C12.379 34.9286 11.0101 41.3571 14.1027 46.2041C15.1673 47.8367 16.6375 49.1633 18.3612 49.9796H5.53485C5.23067 49.9796 5.02788 50.1837 5.02788 50.4898C5.02788 50.7959 5.23067 51 5.53485 51H40.0089C40.3131 51 40.5158 50.7959 40.5158 50.4898C40.5158 50.1837 40.3131 49.9796 40.0089 49.9796ZM35.5982 19.7245C35.5982 23.8571 32.455 27.2245 28.3485 27.5306V11.9694C32.455 12.2245 35.5982 15.6429 35.5982 19.7245ZM13.4436 40.5918C13.4436 37.3265 15.1166 34.2653 17.9049 32.5816C18.057 32.4796 18.1584 32.3265 18.1584 32.1224V29.9796H19.5779C19.8821 29.9796 20.0849 29.7755 20.0849 29.4694C20.0849 29.1633 19.8821 28.9592 19.5779 28.9592H18.2091V26.5612H20.1863C20.4905 26.5612 20.6933 26.3571 20.6933 26.051C20.6933 25.7449 20.4905 25.5408 20.1863 25.5408H18.2091V23.1429H19.6286C19.9328 23.1429 20.1356 22.9388 20.1356 22.6327C20.1356 22.3265 19.9328 22.1224 19.6286 22.1224H18.2091V19.7245H20.1863C20.4905 19.7245 20.6933 19.5204 20.6933 19.2143C20.6933 18.9082 20.4905 18.7041 20.1863 18.7041H18.2091V16.3061H19.6286C19.9328 16.3061 20.1356 16.102 20.1356 15.7959C20.1356 15.4898 19.9328 15.2857 19.6286 15.2857H18.2091V12.8878H20.1863C20.4905 12.8878 20.6933 12.6837 20.6933 12.3776C20.6933 12.0714 20.4905 11.8673 20.1863 11.8673H18.2091V9.46939H19.6286C19.9328 9.46939 20.1356 9.26531 20.1356 8.95918C20.1356 8.65306 19.9328 8.44898 19.6286 8.44898H18.2091V6.61224C18.2091 4.06122 20.237 2.02041 22.7719 2.02041C25.3067 2.02041 27.3346 4.06122 27.3346 6.61224V32.1224C27.3346 32.3265 27.436 32.4796 27.5881 32.5816C31.9987 35.2857 33.4182 41.051 30.7313 45.4898C28.0444 49.9286 22.3156 51.3571 17.9049 48.6531C15.1673 46.9184 13.4436 43.8571 13.4436 40.5918ZM42.5437 50.4898C42.5437 50.7959 42.3409 51 42.0368 51H41.5805C41.2763 51 41.0735 50.7959 41.0735 50.4898C41.0735 50.1837 41.2763 49.9796 41.5805 49.9796H42.0368C42.3409 49.9796 42.5437 50.1837 42.5437 50.4898ZM4.47022 50.4898C4.47022 50.7959 4.26743 51 3.96324 51H3.50697C3.20279 51 3 50.7959 3 50.4898C3 50.1837 3.20279 49.9796 3.50697 49.9796H3.96324C4.26743 49.9796 4.47022 50.1837 4.47022 50.4898Z"/>
</mask>
<path d="M23.2788 35.898V10.4898C23.2788 10.1837 23.076 9.97959 22.7719 9.97959C22.4677 9.97959 22.2649 10.1837 22.2649 10.4898V35.949C19.6793 36.2551 17.8542 38.551 18.1077 41.1531C18.3612 43.7551 20.6933 45.5918 23.2788 45.3367C25.8644 45.0816 27.6895 42.7347 27.436 40.1327C27.1825 37.8878 25.4588 36.1531 23.2788 35.898ZM22.7719 44.2653C20.744 44.2653 19.1217 42.6327 19.1217 40.5918C19.1217 38.551 20.744 36.9184 22.7719 36.9184C24.7997 36.9184 26.4221 38.551 26.4221 40.5918C26.4221 42.6327 24.7997 44.2653 22.7719 44.2653ZM33.6717 30.0816L35.2433 32.8367C35.3954 33.0918 35.294 33.398 35.0406 33.551C34.9392 33.602 34.8885 33.602 34.7871 33.602C34.5843 33.602 34.4322 33.5 34.3308 33.3469L32.8099 30.5918C32.6578 30.3367 32.7592 30.0306 33.0127 29.8776C33.2155 29.7755 33.5196 29.8265 33.6717 30.0816ZM40.8707 27.6837C40.7693 27.8367 40.6172 27.9388 40.4144 27.9388C40.3131 27.9388 40.2624 27.8878 40.161 27.8878L37.4233 26.3061C37.1698 26.1531 37.1191 25.8469 37.2205 25.5918C37.3726 25.3367 37.6768 25.2857 37.9303 25.3878L40.6679 27.0204C40.9214 27.1735 41.0228 27.4796 40.8707 27.6837ZM43 19.7245C43 20.0306 42.7972 20.2347 42.493 20.2347H39.3498C39.0456 20.2347 38.8428 20.0306 38.8428 19.7245C38.8428 19.4184 39.0456 19.2143 39.3498 19.2143H42.493C42.7972 19.2143 43 19.4694 43 19.7245ZM37.2712 13.8571C37.1191 13.602 37.2205 13.2959 37.474 13.1429L40.2117 11.5612C40.4651 11.4082 40.7693 11.5102 40.9214 11.7653C41.0735 12.0204 40.9721 12.3265 40.7186 12.4796L37.981 14.0612C37.8796 14.1122 37.8289 14.1122 37.7275 14.1122C37.5247 14.1122 37.3219 14.0102 37.2712 13.8571ZM32.962 9.57143C32.7085 9.41837 32.6578 9.11224 32.7592 8.85714L34.3308 6.10204C34.4829 5.84694 34.7871 5.79592 35.0406 5.89796C35.294 6.05102 35.3447 6.35714 35.2433 6.61224L33.6717 9.36735C33.5196 9.62245 33.2155 9.67347 32.962 9.57143ZM40.0089 49.9796H27.2332C32.4043 47.5306 34.5843 41.3061 32.1508 36.1531C31.3397 34.4184 30.0215 32.9388 28.3992 31.8673V28.551C33.2155 28.2959 36.9163 24.1633 36.6629 19.2653C36.4094 14.7755 32.8606 11.2041 28.3485 10.949V6.61224C28.3485 3.5 25.8644 1 22.7719 1C19.6793 1 17.1952 3.5 17.1952 6.61224V31.8163C12.379 34.9286 11.0101 41.3571 14.1027 46.2041C15.1673 47.8367 16.6375 49.1633 18.3612 49.9796H5.53485C5.23067 49.9796 5.02788 50.1837 5.02788 50.4898C5.02788 50.7959 5.23067 51 5.53485 51H40.0089C40.3131 51 40.5158 50.7959 40.5158 50.4898C40.5158 50.1837 40.3131 49.9796 40.0089 49.9796ZM35.5982 19.7245C35.5982 23.8571 32.455 27.2245 28.3485 27.5306V11.9694C32.455 12.2245 35.5982 15.6429 35.5982 19.7245ZM13.4436 40.5918C13.4436 37.3265 15.1166 34.2653 17.9049 32.5816C18.057 32.4796 18.1584 32.3265 18.1584 32.1224V29.9796H19.5779C19.8821 29.9796 20.0849 29.7755 20.0849 29.4694C20.0849 29.1633 19.8821 28.9592 19.5779 28.9592H18.2091V26.5612H20.1863C20.4905 26.5612 20.6933 26.3571 20.6933 26.051C20.6933 25.7449 20.4905 25.5408 20.1863 25.5408H18.2091V23.1429H19.6286C19.9328 23.1429 20.1356 22.9388 20.1356 22.6327C20.1356 22.3265 19.9328 22.1224 19.6286 22.1224H18.2091V19.7245H20.1863C20.4905 19.7245 20.6933 19.5204 20.6933 19.2143C20.6933 18.9082 20.4905 18.7041 20.1863 18.7041H18.2091V16.3061H19.6286C19.9328 16.3061 20.1356 16.102 20.1356 15.7959C20.1356 15.4898 19.9328 15.2857 19.6286 15.2857H18.2091V12.8878H20.1863C20.4905 12.8878 20.6933 12.6837 20.6933 12.3776C20.6933 12.0714 20.4905 11.8673 20.1863 11.8673H18.2091V9.46939H19.6286C19.9328 9.46939 20.1356 9.26531 20.1356 8.95918C20.1356 8.65306 19.9328 8.44898 19.6286 8.44898H18.2091V6.61224C18.2091 4.06122 20.237 2.02041 22.7719 2.02041C25.3067 2.02041 27.3346 4.06122 27.3346 6.61224V32.1224C27.3346 32.3265 27.436 32.4796 27.5881 32.5816C31.9987 35.2857 33.4182 41.051 30.7313 45.4898C28.0444 49.9286 22.3156 51.3571 17.9049 48.6531C15.1673 46.9184 13.4436 43.8571 13.4436 40.5918ZM42.5437 50.4898C42.5437 50.7959 42.3409 51 42.0368 51H41.5805C41.2763 51 41.0735 50.7959 41.0735 50.4898C41.0735 50.1837 41.2763 49.9796 41.5805 49.9796H42.0368C42.3409 49.9796 42.5437 50.1837 42.5437 50.4898ZM4.47022 50.4898C4.47022 50.7959 4.26743 51 3.96324 51H3.50697C3.20279 51 3 50.7959 3 50.4898C3 50.1837 3.20279 49.9796 3.50697 49.9796H3.96324C4.26743 49.9796 4.47022 50.1837 4.47022 50.4898Z" fill="#192646"/>
<path d="M23.2788 35.898V10.4898C23.2788 10.1837 23.076 9.97959 22.7719 9.97959C22.4677 9.97959 22.2649 10.1837 22.2649 10.4898V35.949C19.6793 36.2551 17.8542 38.551 18.1077 41.1531C18.3612 43.7551 20.6933 45.5918 23.2788 45.3367C25.8644 45.0816 27.6895 42.7347 27.436 40.1327C27.1825 37.8878 25.4588 36.1531 23.2788 35.898ZM22.7719 44.2653C20.744 44.2653 19.1217 42.6327 19.1217 40.5918C19.1217 38.551 20.744 36.9184 22.7719 36.9184C24.7997 36.9184 26.4221 38.551 26.4221 40.5918C26.4221 42.6327 24.7997 44.2653 22.7719 44.2653ZM33.6717 30.0816L35.2433 32.8367C35.3954 33.0918 35.294 33.398 35.0406 33.551C34.9392 33.602 34.8885 33.602 34.7871 33.602C34.5843 33.602 34.4322 33.5 34.3308 33.3469L32.8099 30.5918C32.6578 30.3367 32.7592 30.0306 33.0127 29.8776C33.2155 29.7755 33.5196 29.8265 33.6717 30.0816ZM40.8707 27.6837C40.7693 27.8367 40.6172 27.9388 40.4144 27.9388C40.3131 27.9388 40.2624 27.8878 40.161 27.8878L37.4233 26.3061C37.1698 26.1531 37.1191 25.8469 37.2205 25.5918C37.3726 25.3367 37.6768 25.2857 37.9303 25.3878L40.6679 27.0204C40.9214 27.1735 41.0228 27.4796 40.8707 27.6837ZM43 19.7245C43 20.0306 42.7972 20.2347 42.493 20.2347H39.3498C39.0456 20.2347 38.8428 20.0306 38.8428 19.7245C38.8428 19.4184 39.0456 19.2143 39.3498 19.2143H42.493C42.7972 19.2143 43 19.4694 43 19.7245ZM37.2712 13.8571C37.1191 13.602 37.2205 13.2959 37.474 13.1429L40.2117 11.5612C40.4651 11.4082 40.7693 11.5102 40.9214 11.7653C41.0735 12.0204 40.9721 12.3265 40.7186 12.4796L37.981 14.0612C37.8796 14.1122 37.8289 14.1122 37.7275 14.1122C37.5247 14.1122 37.3219 14.0102 37.2712 13.8571ZM32.962 9.57143C32.7085 9.41837 32.6578 9.11224 32.7592 8.85714L34.3308 6.10204C34.4829 5.84694 34.7871 5.79592 35.0406 5.89796C35.294 6.05102 35.3447 6.35714 35.2433 6.61224L33.6717 9.36735C33.5196 9.62245 33.2155 9.67347 32.962 9.57143ZM40.0089 49.9796H27.2332C32.4043 47.5306 34.5843 41.3061 32.1508 36.1531C31.3397 34.4184 30.0215 32.9388 28.3992 31.8673V28.551C33.2155 28.2959 36.9163 24.1633 36.6629 19.2653C36.4094 14.7755 32.8606 11.2041 28.3485 10.949V6.61224C28.3485 3.5 25.8644 1 22.7719 1C19.6793 1 17.1952 3.5 17.1952 6.61224V31.8163C12.379 34.9286 11.0101 41.3571 14.1027 46.2041C15.1673 47.8367 16.6375 49.1633 18.3612 49.9796H5.53485C5.23067 49.9796 5.02788 50.1837 5.02788 50.4898C5.02788 50.7959 5.23067 51 5.53485 51H40.0089C40.3131 51 40.5158 50.7959 40.5158 50.4898C40.5158 50.1837 40.3131 49.9796 40.0089 49.9796ZM35.5982 19.7245C35.5982 23.8571 32.455 27.2245 28.3485 27.5306V11.9694C32.455 12.2245 35.5982 15.6429 35.5982 19.7245ZM13.4436 40.5918C13.4436 37.3265 15.1166 34.2653 17.9049 32.5816C18.057 32.4796 18.1584 32.3265 18.1584 32.1224V29.9796H19.5779C19.8821 29.9796 20.0849 29.7755 20.0849 29.4694C20.0849 29.1633 19.8821 28.9592 19.5779 28.9592H18.2091V26.5612H20.1863C20.4905 26.5612 20.6933 26.3571 20.6933 26.051C20.6933 25.7449 20.4905 25.5408 20.1863 25.5408H18.2091V23.1429H19.6286C19.9328 23.1429 20.1356 22.9388 20.1356 22.6327C20.1356 22.3265 19.9328 22.1224 19.6286 22.1224H18.2091V19.7245H20.1863C20.4905 19.7245 20.6933 19.5204 20.6933 19.2143C20.6933 18.9082 20.4905 18.7041 20.1863 18.7041H18.2091V16.3061H19.6286C19.9328 16.3061 20.1356 16.102 20.1356 15.7959C20.1356 15.4898 19.9328 15.2857 19.6286 15.2857H18.2091V12.8878H20.1863C20.4905 12.8878 20.6933 12.6837 20.6933 12.3776C20.6933 12.0714 20.4905 11.8673 20.1863 11.8673H18.2091V9.46939H19.6286C19.9328 9.46939 20.1356 9.26531 20.1356 8.95918C20.1356 8.65306 19.9328 8.44898 19.6286 8.44898H18.2091V6.61224C18.2091 4.06122 20.237 2.02041 22.7719 2.02041C25.3067 2.02041 27.3346 4.06122 27.3346 6.61224V32.1224C27.3346 32.3265 27.436 32.4796 27.5881 32.5816C31.9987 35.2857 33.4182 41.051 30.7313 45.4898C28.0444 49.9286 22.3156 51.3571 17.9049 48.6531C15.1673 46.9184 13.4436 43.8571 13.4436 40.5918ZM42.5437 50.4898C42.5437 50.7959 42.3409 51 42.0368 51H41.5805C41.2763 51 41.0735 50.7959 41.0735 50.4898C41.0735 50.1837 41.2763 49.9796 41.5805 49.9796H42.0368C42.3409 49.9796 42.5437 50.1837 42.5437 50.4898ZM4.47022 50.4898C4.47022 50.7959 4.26743 51 3.96324 51H3.50697C3.20279 51 3 50.7959 3 50.4898C3 50.1837 3.20279 49.9796 3.50697 49.9796H3.96324C4.26743 49.9796 4.47022 50.1837 4.47022 50.4898Z" stroke="#192646" stroke-width="0.8" mask="url(#path-1-outside-1_26_1208)"/>
<path d="M6 12L0.226497 22H11.7735L6 12ZM7 34L7 21H5L5 34H7Z" fill="#192646"/>
</svg>
