<svg width="45" height="44" viewBox="0 0 45 44" fill="none" xmlns="http://www.w3.org/2000/svg">
<path d="M31.7033 37.333H31.7033V37.3371C31.7033 40.5747 34.5465 43.2 37.9516 43.2C41.3568 43.2 44.2 40.5747 44.2 37.3371C44.2 34.8903 42.6452 32.728 40.3253 31.9084V29.1843H43.0549C43.2421 29.1843 43.4136 29.1211 43.5389 28.996C43.6641 28.8709 43.7275 28.6995 43.7275 28.5124C43.7275 28.3253 43.6641 28.1538 43.5389 28.0287C43.4136 27.9036 43.2421 27.8404 43.0549 27.8404H40.3253V22.0112H43.0549C43.2421 22.0112 43.4136 21.9481 43.5389 21.823C43.6641 21.6978 43.7275 21.5264 43.7275 21.3393C43.7275 21.1522 43.6641 20.9808 43.5389 20.8557C43.4136 20.7306 43.2421 20.6674 43.0549 20.6674H40.3253V14.8382H43.0549C43.2421 14.8382 43.4136 14.775 43.5389 14.6499C43.6641 14.5248 43.7275 14.3534 43.7275 14.1663C43.7275 13.9792 43.6641 13.8078 43.5389 13.6826C43.4136 13.5575 43.2421 13.4944 43.0549 13.4944H40.3253V12.5146C40.3253 11.1797 39.2459 10.0494 37.8571 10.0494C36.4711 10.0494 35.389 11.1297 35.389 12.5146V32.0085C33.2098 32.8733 31.7513 34.9858 31.7033 37.333ZM37.8919 11.4873L37.8919 11.4876H37.9044C38.513 11.4876 38.9802 11.9272 38.9802 12.5146V21.9416H36.7341V12.5215C36.7776 11.9168 37.2576 11.4477 37.8919 11.4873ZM6.88843 7.82122L6.89696 7.83259L6.90702 7.84264L11.8213 12.7505C12.0884 13.0172 12.4984 13.0172 12.7655 12.7505C13.0327 12.4836 13.0327 12.0737 12.7655 11.8068L7.85122 6.89894L7.84116 6.88889L7.82979 6.88037C7.68326 6.77062 7.49642 6.74248 7.33315 6.76577C7.17415 6.78845 7.00731 6.86424 6.89716 7.00341C6.67853 7.23249 6.70521 7.57725 6.88843 7.82122ZM37.9989 41.8562C35.2608 41.8562 33.097 39.8097 33.0956 37.3394C33.1418 35.3987 34.4528 33.6837 36.3034 33.1412C36.459 33.1009 36.5772 32.9903 36.6532 32.8765C36.7304 32.7608 36.7813 32.6166 36.7813 32.4764V23.2854H39.0275V32.382C39.0275 32.6951 39.2182 32.9752 39.5098 33.048C41.4973 33.5442 42.8551 35.3027 42.9022 37.3375C42.8548 39.8118 40.6869 41.8562 37.9989 41.8562ZM33.0484 21.5753C33.0484 15.2348 27.902 10.1438 21.6022 10.1438C15.2541 10.1438 10.156 15.2831 10.156 21.5753C10.156 27.9157 15.3024 33.0067 21.6022 33.0067C27.9025 33.0067 33.0484 27.868 33.0484 21.5753ZM21.6022 31.6629C15.9954 31.6629 11.5011 27.1281 11.5011 21.5753C11.5011 15.9765 16.0415 11.4876 21.6022 11.4876C27.209 11.4876 31.7033 16.0225 31.7033 21.5753C31.7033 27.1275 27.1623 31.6629 21.6022 31.6629ZM20.9297 34.6944V41.6786C20.9297 41.8657 20.993 42.0372 21.1183 42.1623C21.2435 42.2874 21.4151 42.3506 21.6022 42.3506C21.7893 42.3506 21.9608 42.2874 22.0861 42.1623C22.2114 42.0372 22.2747 41.8657 22.2747 41.6786V34.6944C22.2747 34.5073 22.2114 34.3359 22.0861 34.2107C21.9608 34.0856 21.7893 34.0225 21.6022 34.0225C21.1957 34.0225 20.9297 34.3609 20.9297 34.6944ZM20.9297 1.47191V8.45618C20.9297 8.64328 20.993 8.8147 21.1183 8.93983C21.2435 9.06493 21.4151 9.12809 21.6022 9.12809C21.7893 9.12809 21.9608 9.06493 22.0861 8.93983C22.2114 8.8147 22.2747 8.64328 22.2747 8.45618V1.47191C22.2747 1.28481 22.2114 1.11339 22.0861 0.988262C21.9608 0.863161 21.7893 0.8 21.6022 0.8C21.4151 0.8 21.2435 0.863161 21.1183 0.988261C20.993 1.11339 20.9297 1.28481 20.9297 1.47191ZM8.46593 22.2472C8.65306 22.2472 8.82458 22.184 8.94985 22.0589C9.07513 21.9338 9.13846 21.7624 9.13846 21.5753C9.13846 21.3882 9.07513 21.2168 8.94985 21.0916C8.82458 20.9665 8.65306 20.9034 8.46593 20.9034H1.47253C1.2854 20.9034 1.11388 20.9665 0.988616 21.0916C0.863329 21.2168 0.8 21.3882 0.8 21.5753C0.8 21.7624 0.863329 21.9338 0.988616 22.0589C1.11388 22.184 1.2854 22.2472 1.47253 22.2472H8.46593ZM36.2974 6.89894C36.0303 6.63219 35.6203 6.63219 35.3532 6.89894L30.4389 11.8068C30.1717 12.0737 30.1717 12.4836 30.4389 12.7505C30.706 13.0172 31.116 13.0172 31.3831 12.7505L36.2974 7.84264C36.5646 7.57575 36.5646 7.16583 36.2974 6.89894ZM11.8213 30.4001L6.90702 35.3079C6.63978 35.5748 6.63978 35.9847 6.90702 36.2516C7.17412 36.5184 7.58412 36.5184 7.85122 36.2516L12.7655 31.3438C13.0327 31.0769 13.0327 30.667 12.7655 30.4001C12.4984 30.1333 12.0884 30.1333 11.8213 30.4001Z" fill="#192646" stroke="#192646" stroke-width="0.4"/>
</svg>
