<svg width="31" height="34" viewBox="0 0 31 34" fill="none" xmlns="http://www.w3.org/2000/svg">
<path d="M0 12.5481V32.9047C0 33.509 0.486715 33.9999 1.04831 33.9999H12.093V26.1443C12.093 24.256 13.628 22.7075 15.5 22.7075C17.372 22.7075 18.907 24.256 18.907 26.1443V33.9999H29.9517C30.5507 33.9999 31 33.509 31 32.9425V12.5481C31 12.1327 30.8128 11.755 30.4758 11.4906L16.3986 0.311519C15.8744 -0.103921 15.0882 -0.103921 14.564 0.311519L0.524155 11.4906C0.187198 11.755 0 12.1327 0 12.5481ZM1.49758 12.6237L15.4626 1.52007L29.465 12.6614V32.4892H20.4046V26.1443C20.4046 23.4251 18.1957 21.1968 15.5 21.1968C12.8043 21.1968 10.5954 23.4251 10.5954 26.1443V32.4892H1.49758V12.6237Z" fill="white"/>
</svg>
