<svg width="39" height="36" viewBox="0 0 39 36" fill="none" xmlns="http://www.w3.org/2000/svg">
<path d="M5.0895 13.4416L5.08913 13.4427L5.91406 22.8875L5.94247 22.9834C5.94291 22.9832 5.94335 22.9831 5.94379 22.983C6.30643 22.8748 6.5041 22.4997 6.38473 22.1476C5.94732 20.812 5.725 19.4131 5.725 18C5.725 16.587 5.94728 15.1952 6.38474 13.8524C6.50486 13.498 6.29688 13.1253 5.94512 13.0104C5.5881 12.8937 5.20781 13.0937 5.0895 13.4416ZM1.73638 12.7474L1.73637 12.7474L1.73597 12.7486C1.18353 14.4444 0.9 16.2115 0.9 18C0.9 19.7885 1.18353 21.5558 1.74332 23.2518C1.83725 23.5363 2.10161 23.71 2.3875 23.71C2.4544 23.71 2.52286 23.7017 2.59922 23.6767C2.9534 23.561 3.15022 23.1874 3.0393 22.8361L3.03932 22.8361L3.03871 22.8343C2.51476 21.2795 2.25625 19.6541 2.25625 18C2.25625 16.3459 2.51475 14.7203 3.03166 13.1581L3.03167 13.1581L3.03208 13.1568C3.143 12.8055 2.94618 12.4319 2.59199 12.3162C2.23497 12.1995 1.85469 12.3995 1.73638 12.7474ZM37.264 12.7486L37.2636 12.7474C37.1446 12.3975 36.7638 12.2082 36.41 12.3155L36.408 12.3162C36.0538 12.4319 35.857 12.8055 35.9679 13.1568L35.9682 13.1577C36.4781 14.7204 36.7438 16.3462 36.7438 18C36.7438 19.654 36.4853 21.2795 35.9685 22.8416C35.8484 23.1955 36.0555 23.5677 36.4063 23.6833C36.4779 23.7093 36.5477 23.7171 36.6197 23.7171C36.9071 23.7171 37.17 23.5351 37.2636 23.2597L37.2639 23.2588C37.8238 21.5626 38.1 19.7953 38.1 18.0071C38.1 16.2186 37.8165 14.4444 37.264 12.7486ZM32.6076 13.858L32.6079 13.859C33.0454 15.1948 33.2678 16.5938 33.2678 18.0071C33.2678 19.4202 33.0455 20.8191 32.6081 22.1546C32.4881 22.5085 32.6952 22.8805 33.0459 22.9961C33.1175 23.0222 33.1873 23.03 33.2594 23.03C33.5467 23.03 33.8096 22.848 33.9033 22.5726L33.9036 22.5715C34.3838 21.1024 34.6312 19.569 34.6312 18.0142C34.6312 16.4594 34.3839 14.9261 33.9037 13.457C33.7855 13.093 33.404 12.901 33.0477 13.0174C32.6935 13.1332 32.4967 13.5068 32.6076 13.858ZM23.0673 31.7H31.0625C32.0697 31.7 32.8969 30.8921 32.8969 29.9V28.2C32.8969 27.2079 32.0697 26.4 31.0625 26.4H30.5844V16.3C30.5844 13.9333 29.8183 11.6808 28.3743 9.78646L28.3741 9.78631C27.1242 8.15279 25.4008 6.88031 23.4681 6.15258C23.5832 5.76822 23.6469 5.37095 23.6469 4.96667C23.6469 2.72081 21.7863 0.9 19.5 0.9C17.2137 0.9 15.3531 2.72081 15.3531 4.96667C15.3531 5.37095 15.4168 5.76823 15.5319 6.15258C13.5992 6.88031 11.8758 8.15279 10.6259 9.78631L10.6257 9.78646C9.18175 11.6808 8.41563 13.9333 8.41563 16.3V26.4H7.9375C6.93026 26.4 6.10313 27.2079 6.10313 28.2V29.9C6.10313 30.8921 6.93026 31.7 7.9375 31.7H15.9327C15.9867 33.5879 17.5657 35.1 19.5 35.1C21.4343 35.1 23.0133 33.5879 23.0673 31.7ZM17.03 6.23703L17.0296 6.23629C16.8139 5.84071 16.7094 5.41101 16.7094 4.96667C16.7094 3.45836 17.9563 2.23333 19.5 2.23333C21.0437 2.23333 22.2906 3.45836 22.2906 4.96667C22.2906 5.41796 22.1862 5.84059 21.9704 6.23629L21.97 6.23703C21.8761 6.41277 21.8679 6.62133 21.9442 6.80435C22.0212 6.98867 22.1821 7.12913 22.3681 7.18714L22.3689 7.18739C26.4758 8.4287 29.2281 12.0881 29.2281 16.3V26.4H9.77188V16.3C9.77188 12.0881 12.5241 8.4288 16.6309 7.18744C16.8264 7.12905 16.9795 6.98719 17.0558 6.80435C17.1321 6.62133 17.1239 6.41277 17.03 6.23703ZM19.5 3.16667C18.4928 3.16667 17.6656 3.97456 17.6656 4.96667C17.6656 5.95877 18.4928 6.76667 19.5 6.76667C20.5072 6.76667 21.3344 5.95877 21.3344 4.96667C21.3344 3.97456 20.5072 3.16667 19.5 3.16667ZM19.5 5.43333C19.2354 5.43333 19.0219 5.22123 19.0219 4.96667C19.0219 4.71211 19.2354 4.5 19.5 4.5C19.7646 4.5 19.9781 4.71211 19.9781 4.96667C19.9781 5.22123 19.7646 5.43333 19.5 5.43333ZM19.5 33.7667C18.3158 33.7667 17.3437 32.8438 17.2898 31.7H21.7102C21.6563 32.8438 20.6842 33.7667 19.5 33.7667ZM31.5406 29.9C31.5406 30.1546 31.3271 30.3667 31.0625 30.3667H7.9375C7.67286 30.3667 7.45937 30.1546 7.45937 29.9V28.2C7.45937 27.9454 7.67286 27.7333 7.9375 27.7333H31.0625C31.3271 27.7333 31.5406 27.9454 31.5406 28.2V29.9Z" fill="white" stroke="white" stroke-width="0.2"/>
</svg>
