<!-- Generated by IcoMoon.io -->
<svg version="1.1" xmlns="http://www.w3.org/2000/svg" width="32" height="32" viewBox="0 0 32 32">
<path d="M0.615 2.462v-0.462c-0.255 0-0.462 0.207-0.462 0.462h0.462zM31.385 2.462h0.462c0-0.255-0.207-0.462-0.462-0.462v0.462zM31.385 24.909v0.462c0.255 0 0.462-0.207 0.462-0.462h-0.462zM0.615 24.909h-0.462c0 0.255 0.207 0.462 0.462 0.462v-0.462zM11.688 14.448v0zM10.129 12.89l-0.326-0.326c-0.004 0.004-0.008 0.008-0.012 0.012l0.338 0.314zM14.743 15.847l-0.289 0.36 0.007 0.005 0.282-0.365zM12.007 13.654l0.289-0.36c-0.139-0.111-0.328-0.133-0.488-0.056s-0.262 0.239-0.262 0.416h0.462zM10.925 14.766v-0.462c-0.178 0-0.34 0.103-0.417 0.264s-0.053 0.352 0.059 0.49l0.358-0.292zM14.139 18.709l-0.358 0.292c0.082 0.101 0.204 0.163 0.334 0.169s0.257-0.042 0.35-0.134l-0.326-0.326zM14.839 18.009v0zM12.007 13.685h-0.462c0 0.178 0.102 0.34 0.263 0.417s0.351 0.054 0.49-0.059l-0.291-0.358zM15.952 10.474l0.291 0.358c0.101-0.082 0.163-0.204 0.17-0.334s-0.042-0.258-0.135-0.35l-0.326 0.326zM15.252 9.774v0zM13.089 9.902l-0.359-0.291-0.002 0.003 0.361 0.288zM10.957 12.572l-0.361-0.288c-0.111 0.139-0.132 0.328-0.055 0.488s0.239 0.261 0.416 0.261v-0.462zM10.925 12.572v0.462c0.178 0 0.341-0.103 0.417-0.264s0.053-0.352-0.060-0.49l-0.357 0.293zM7.743 8.693l0.357-0.293c-0.083-0.101-0.204-0.162-0.334-0.168s-0.257 0.042-0.349 0.135l0.326 0.326zM7.043 9.393v0zM7.17 11.555v0zM9.843 13.717l-0.29 0.359c0.145 0.117 0.346 0.136 0.51 0.047s0.258-0.267 0.24-0.452l-0.459 0.046zM8.793 17.501l0.359 0.291 0.001-0.002-0.36-0.289zM10.989 14.766l0.36 0.289c0.116-0.145 0.134-0.346 0.046-0.509s-0.267-0.258-0.452-0.239l0.046 0.459zM9.811 13.749l0.458-0.057c-0.021-0.166-0.13-0.309-0.286-0.371s-0.333-0.036-0.463 0.070l0.291 0.358zM5.897 16.928l-0.291-0.358c-0.101 0.082-0.163 0.204-0.17 0.335s0.042 0.258 0.135 0.35l0.326-0.326zM6.597 17.628l-0.326 0.326c0.005 0.005 0.011 0.011 0.017 0.016l0.31-0.342zM13.917 6.905v0zM7.904 20.449v0zM19.166 21.793v0.461h0.023l0.023-0.002-0.046-0.459zM22.221 4.783v-0.462c-0.255 0-0.462 0.207-0.462 0.462h0.462zM29.73 4.783h0.462c0-0.255-0.207-0.462-0.462-0.462v0.462zM29.73 13.018v0.462c0.255 0 0.462-0.207 0.462-0.462h-0.462zM22.221 13.018h-0.462c0 0.255 0.207 0.462 0.462 0.462v-0.462zM7.297 24.909h0.462v-0.462h-0.462v0.462zM4.306 24.909v-0.462h-0.462v0.462h0.462zM2.906 27.071v-0.462h-0.462v0.462h0.462zM2.906 29.201h-0.462v0.462h0.462v-0.462zM8.697 29.201v0.462h0.462v-0.462h-0.462zM8.697 27.071h0.462v-0.462h-0.462v0.462zM24.703 24.909v-0.462h-0.462v0.462h0.462zM27.694 24.909h0.462v-0.462h-0.462v0.462zM29.094 27.071h0.462v-0.462h-0.462v0.462zM29.094 29.201v0.462h0.462v-0.462h-0.462zM23.303 29.201h-0.462v0.462h0.462v-0.462zM23.303 27.071v-0.462h-0.462v0.462h0.462zM0.615 2.923h30.769v-0.923h-30.769v0.923zM30.923 2.462v22.448h0.923v-22.448h-0.923zM31.385 24.448h-30.769v0.923h30.769v-0.923zM1.077 24.909v-22.448h-0.923v22.448h0.923zM11.362 14.122c-0.227 0.227-0.644 0.244-0.919-0.012l-0.628 0.677c0.616 0.571 1.599 0.588 2.199-0.012l-0.652-0.653zM10.456 14.122c-0.227-0.227-0.244-0.642 0.012-0.917l-0.676-0.628c-0.572 0.615-0.589 1.599 0.012 2.199l0.652-0.653zM10.456 13.217c0.227-0.227 0.644-0.244 0.919 0.012l0.628-0.677c-0.616-0.571-1.599-0.588-2.199 0.012l0.652 0.653zM11.375 13.229c0.242 0.224 0.26 0.621-0.012 0.893l0.652 0.653c0.619-0.618 0.637-1.62-0.012-2.223l-0.628 0.677zM15.032 15.487l-2.736-2.194-0.577 0.72 2.736 2.194 0.577-0.72zM11.545 13.654c0 0.183-0.059 0.345-0.183 0.468l0.652 0.653c0.322-0.322 0.454-0.732 0.454-1.121h-0.923zM11.362 14.122c-0.133 0.133-0.269 0.183-0.437 0.183v0.923c0.404 0 0.777-0.141 1.090-0.453l-0.652-0.653zM10.567 15.058l3.214 3.943 0.716-0.583-3.214-3.943-0.716 0.583zM14.465 19.035l0.7-0.7-0.652-0.653-0.7 0.7 0.652 0.653zM15.165 18.336c0.818-0.817 0.798-2.13-0.14-2.854l-0.564 0.731c0.463 0.357 0.506 1.016 0.051 1.47l0.652 0.653zM11.362 13.217c0.124 0.123 0.183 0.286 0.183 0.468h0.923c0-0.39-0.132-0.8-0.454-1.121l-0.652 0.653zM12.298 14.043l3.946-3.211-0.583-0.716-3.946 3.211 0.583 0.716zM16.279 10.148l-0.7-0.7-0.652 0.653 0.7 0.699 0.652-0.653zM15.578 9.448c-0.803-0.803-2.139-0.712-2.849 0.163l0.717 0.581c0.373-0.46 1.073-0.497 1.479-0.091l0.652-0.653zM12.728 9.614l-2.132 2.671 0.721 0.576 2.132-2.671-0.721-0.576zM10.957 13.034c0.152 0 0.297 0.059 0.381 0.157l0.701-0.601c-0.298-0.347-0.725-0.479-1.082-0.479v0.923zM10.487 13.217c0.133-0.133 0.269-0.183 0.437-0.183v-0.923c-0.404 0-0.777 0.141-1.090 0.453l0.652 0.653zM11.282 12.28l-3.182-3.879-0.714 0.585 3.182 3.879 0.714-0.585zM7.417 8.367l-0.7 0.7 0.652 0.653 0.7-0.699-0.652-0.653zM6.717 9.066c-0.803 0.803-0.713 2.139 0.163 2.847l0.581-0.718c-0.46-0.373-0.497-1.071-0.091-1.477l-0.652-0.653zM6.88 11.914l2.673 2.162 0.581-0.718-2.673-2.162-0.581 0.718zM10.302 13.671c-0.016-0.156 0.042-0.311 0.185-0.454l-0.652-0.653c-0.302 0.302-0.499 0.719-0.451 1.199l0.918-0.092zM9.153 17.79l2.196-2.734-0.72-0.578-2.196 2.734 0.72 0.578zM10.943 14.307c-0.197 0.020-0.358-0.040-0.466-0.163l-0.694 0.608c0.338 0.386 0.813 0.517 1.252 0.473l-0.092-0.919zM10.456 14.122c-0.099-0.098-0.163-0.246-0.186-0.43l-0.916 0.115c0.041 0.325 0.167 0.686 0.45 0.969l0.652-0.653zM9.52 13.391l-3.914 3.179 0.582 0.716 3.914-3.18-0.582-0.716zM5.571 17.255l0.7 0.7 0.652-0.653-0.7-0.7-0.652 0.653zM6.288 17.97c0.853 0.771 2.146 0.707 2.864-0.179l-0.717-0.581c-0.364 0.45-1.044 0.513-1.527 0.075l-0.619 0.685zM13.73 7.327c3.51 1.556 5.093 5.66 3.536 9.167l0.844 0.375c1.764-3.973-0.030-8.623-4.006-10.385l-0.374 0.844zM17.266 16.494c-1.557 3.507-5.664 5.089-9.174 3.533l-0.374 0.844c3.976 1.762 8.628-0.029 10.392-4.003l-0.844-0.375zM8.092 20.027c-3.51-1.556-5.093-5.66-3.536-9.167l-0.844-0.375c-1.764 3.973 0.030 8.623 4.005 10.385l0.374-0.844zM4.556 10.861c1.557-3.507 5.664-5.089 9.175-3.533l0.374-0.844c-3.976-1.762-8.628 0.029-10.392 4.003l0.844 0.375zM3.018 4.783c0 0.079-0.063 0.143-0.143 0.143v0.923c0.557 0 1.066-0.445 1.066-1.066h-0.923zM2.875 4.925c-0.040 0-0.090-0.018-0.129-0.053-0.035-0.032-0.046-0.063-0.046-0.090h-0.923c0 0.649 0.572 1.066 1.098 1.066v-0.923zM2.7 4.783c0-0.079 0.063-0.143 0.143-0.143v-0.923c-0.557 0-1.066 0.445-1.066 1.066h0.923zM2.843 4.64c0.040 0 0.090 0.018 0.129 0.053 0.035 0.032 0.046 0.063 0.046 0.090h0.923c0-0.649-0.572-1.066-1.098-1.066v0.923zM19.309 4.783c0 0.079-0.063 0.143-0.143 0.143v0.923c0.557 0 1.066-0.445 1.066-1.066h-0.923zM19.166 4.925c-0.080 0-0.143-0.064-0.143-0.143h-0.923c0 0.557 0.446 1.066 1.066 1.066v-0.923zM19.023 4.783c0-0.079 0.063-0.143 0.143-0.143v-0.923c-0.557 0-1.066 0.445-1.066 1.066h0.923zM19.166 4.64c0.080 0 0.143 0.064 0.143 0.143h0.923c0-0.621-0.509-1.066-1.066-1.066v0.923zM3.018 22.397c0 0.078-0.064 0.143-0.143 0.143v0.923c0.588 0 1.066-0.477 1.066-1.066h-0.923zM2.875 22.54c-0.079 0-0.143-0.064-0.143-0.143h-0.923c0 0.589 0.478 1.066 1.066 1.066v-0.923zM2.732 22.397c0-0.078 0.064-0.143 0.143-0.143v-0.923c-0.588 0-1.066 0.477-1.066 1.066h0.923zM2.875 22.255c0.079 0 0.143 0.064 0.143 0.143h0.923c0-0.589-0.478-1.066-1.066-1.066v0.923zM19.309 22.397c0 0.079-0.063 0.143-0.143 0.143v0.923c0.557 0 1.066-0.445 1.066-1.066h-0.923zM19.166 22.54c-0.080 0-0.143-0.064-0.143-0.143h-0.923c0 0.557 0.446 1.066 1.066 1.066v-0.923zM19.023 22.397c0-0.079 0.063-0.143 0.143-0.143v-0.923c-0.557 0-1.066 0.445-1.066 1.066h0.923zM19.212 22.252c0.003-0 0.022-0.001 0.050 0.026s0.048 0.070 0.048 0.119h0.923c0-0.576-0.478-1.127-1.112-1.063l0.092 0.918zM22.221 5.244h7.509v-0.923h-7.509v0.923zM29.268 4.783v8.235h0.923v-8.235h-0.923zM29.73 12.556h-7.509v0.923h7.509v-0.923zM22.682 13.018v-8.235h-0.923v8.235h0.923zM28.139 7.215h1.591v-0.923h-1.591v0.923zM22.221 7.215h5.25v-0.923h-5.25v0.923zM22.221 9.378h7.509v-0.923h-7.509v0.923zM24.353 11.508h5.377v-0.923h-5.377v0.923zM22.221 11.508h1.464v-0.923h-1.464v0.923zM23.541 22.524v-7.663h-0.923v7.663h0.923zM26.341 22.524v-7.663h-0.923v7.663h0.923zM29.173 20.331v-5.469h-0.923v5.469h0.923zM29.173 22.524v-1.431h-0.923v1.431h0.923zM7.759 27.071v-2.162h-0.923v2.162h0.923zM7.297 24.448h-2.991v0.923h2.991v-0.923zM3.845 24.909v2.162h0.923v-2.162h-0.923zM4.306 26.61h-1.4v0.923h1.4v-0.923zM2.445 27.071v2.13h0.923v-2.13h-0.923zM2.906 29.663h5.791v-0.923h-5.791v0.923zM9.159 29.201v-2.13h-0.923v2.13h0.923zM8.697 26.61h-1.4v0.923h1.4v-0.923zM25.164 27.071v-2.162h-0.923v2.162h0.923zM24.703 25.371h2.991v-0.923h-2.991v0.923zM27.232 24.909v2.162h0.923v-2.162h-0.923zM27.694 27.533h1.4v-0.923h-1.4v0.923zM28.632 27.071v2.13h0.923v-2.13h-0.923zM29.094 28.74h-5.791v0.923h5.791v-0.923zM23.764 29.201v-2.13h-0.923v2.13h0.923zM23.303 27.533h1.4v-0.923h-1.4v0.923zM4.306 27.533h2.991v-0.923h-2.991v0.923zM27.694 26.61h-2.991v0.923h2.991v-0.923z"></path>
</svg>
