<!-- Generated by IcoMoon.io -->
<svg version="1.1" xmlns="http://www.w3.org/2000/svg" width="32" height="32" viewBox="0 0 32 32">
<path d="M15.973 13.399c-1.856 0-3.394-1.366-3.394-3.099 0-0.105 0-0.263 0.053-0.42 0.265-3.046 2.916-5.83 3.022-5.935 0.106-0.053 0.212-0.105 0.318-0.105s0.212 0.053 0.318 0.105c0.053 0.053 0.636 0.683 1.326 1.733 0.106 0.21 0.053 0.473-0.106 0.578-0.212 0.105-0.477 0.053-0.583-0.105-0.371-0.525-0.689-0.998-0.954-1.261-0.689 0.788-2.28 2.941-2.492 5.147 0 0.105-0.053 0.21-0.053 0.315 0 1.261 1.113 2.259 2.545 2.259s2.545-0.998 2.545-2.259c0-0.105 0-0.21 0-0.315-0.053-0.63-0.212-1.313-0.53-1.996-0.106-0.21 0-0.473 0.212-0.525 0.212-0.105 0.477 0 0.53 0.21 0.318 0.788 0.53 1.523 0.583 2.206 0 0.158 0.053 0.263 0.053 0.368 0 1.733-1.538 3.099-3.394 3.099z"></path>
<path d="M15.973 12.244c-1.114 0-2.068-0.84-2.068-1.891 0-0.21 0.212-0.42 0.424-0.42s0.424 0.21 0.424 0.42c0 0.578 0.53 1.050 1.22 1.050 0.212 0 0.424 0.21 0.424 0.42s-0.159 0.42-0.424 0.42z"></path>
<path d="M25.73 13.767c-1.485 0-2.704-1.103-2.704-2.469 0-0.105 0-0.21 0-0.315 0.265-2.416 2.333-4.57 2.439-4.675 0.159-0.158 0.477-0.158 0.636 0 0.106 0.105 2.121 2.259 2.386 4.675 0 0.105 0 0.21 0 0.315-0.053 1.366-1.22 2.469-2.757 2.469zM25.73 7.254c-0.583 0.683-1.697 2.206-1.856 3.834 0 0.105 0 0.158 0 0.21 0 0.893 0.848 1.628 1.856 1.628s1.856-0.735 1.856-1.628c0-0.053 0-0.158 0-0.21-0.159-1.628-1.273-3.151-1.856-3.834z"></path>
<path d="M25.571 12.611c-0.742 0-1.326-0.525-1.326-1.208 0-0.21 0.212-0.42 0.424-0.42s0.424 0.21 0.424 0.42c0 0.21 0.212 0.368 0.477 0.368 0.212 0 0.424 0.21 0.424 0.42s-0.212 0.42-0.424 0.42z"></path>
<path d="M31.51 18.442h-22.641c-0.212 0-0.424-0.21-0.424-0.42s0.212-0.42 0.424-0.42h22.641c0.212 0 0.424 0.21 0.424 0.42s-0.159 0.42-0.424 0.42z"></path>
<path d="M3.142 18.442h-2.704c-0.212 0-0.424-0.21-0.424-0.42v-2.574c0-0.21 0.212-0.42 0.424-0.42h26.353c0.212 0 0.424 0.21 0.424 0.42s-0.212 0.42-0.424 0.42h-25.929v1.733h2.28c0.212 0 0.424 0.21 0.424 0.42s-0.212 0.42-0.424 0.42z"></path>
<path d="M6.217 13.767c-1.485 0-2.704-1.103-2.704-2.469 0-0.105 0-0.21 0-0.315 0.265-2.416 2.333-4.57 2.386-4.675 0.159-0.158 0.477-0.158 0.636 0 0.106 0.105 2.121 2.259 2.386 4.675 0 0.105 0 0.21 0 0.315 0 1.366-1.22 2.469-2.704 2.469zM6.217 7.254c-0.583 0.683-1.697 2.206-1.856 3.834 0 0.105 0 0.158 0 0.21 0 0.893 0.848 1.628 1.856 1.628s1.856-0.735 1.856-1.628c0-0.053 0-0.158 0-0.21-0.159-1.628-1.273-3.151-1.856-3.834z"></path>
<path d="M6.005 12.611c-0.742 0-1.326-0.525-1.326-1.208 0-0.21 0.212-0.42 0.424-0.42s0.424 0.21 0.424 0.42c0 0.21 0.212 0.368 0.477 0.368 0.212 0 0.424 0.21 0.424 0.42s-0.159 0.42-0.424 0.42z"></path>
<path d="M17.617 22.486c-0.636 0-1.273-0.21-1.909-0.893-1.007-1.050-1.962-0.63-3.394 0.105-1.273 0.63-2.863 1.418-4.401-0.105-1.008-1.050-1.962-0.63-3.394 0.105-1.273 0.63-2.863 1.418-4.401-0.105-0.159-0.158-0.159-0.42 0-0.578s0.424-0.158 0.583 0c1.007 1.050 1.962 0.63 3.394-0.105 1.273-0.63 2.863-1.418 4.401 0.105 1.008 1.050 1.962 0.63 3.394-0.105 1.273-0.63 2.863-1.418 4.401 0.105 1.007 1.050 1.962 0.63 3.394-0.105 1.273-0.63 2.863-1.418 4.401 0.105 1.008 1.050 1.962 0.63 3.394-0.105 1.273-0.63 2.863-1.418 4.401 0.105 0.159 0.158 0.159 0.42 0 0.578s-0.424 0.158-0.583 0c-1.007-1.050-1.962-0.63-3.394 0.105-1.273 0.63-2.863 1.418-4.401-0.105-1.008-1.050-1.962-0.63-3.394 0.105-0.795 0.315-1.644 0.788-2.492 0.788z"></path>
<path d="M17.617 25.007c-0.636 0-1.273-0.21-1.909-0.893-1.007-1.050-1.962-0.63-3.394 0.105-1.273 0.63-2.863 1.418-4.401-0.105-1.008-1.050-1.962-0.63-3.394 0.105-1.273 0.63-2.863 1.418-4.401-0.105-0.159-0.158-0.159-0.42 0-0.578s0.424-0.158 0.583 0c1.007 1.050 1.962 0.63 3.394-0.105 1.273-0.63 2.863-1.418 4.401 0.105 1.008 1.050 1.962 0.63 3.394-0.105 1.273-0.63 2.863-1.418 4.401 0.105 1.007 1.050 1.962 0.63 3.394-0.105 1.273-0.63 2.863-1.418 4.401 0.105 1.008 1.050 1.962 0.63 3.394-0.105 1.273-0.63 2.863-1.418 4.401 0.105 0.159 0.158 0.159 0.42 0 0.578s-0.424 0.158-0.583 0c-1.007-1.050-1.962-0.63-3.394 0.105-1.273 0.63-2.863 1.418-4.401-0.105-1.008-1.050-1.962-0.63-3.394 0.105-0.795 0.368-1.644 0.788-2.492 0.788z"></path>
<path d="M17.617 27.528c-0.636 0-1.273-0.21-1.909-0.893-1.007-1.050-1.962-0.63-3.394 0.105-1.273 0.63-2.863 1.418-4.401-0.105-1.008-1.050-1.962-0.63-3.394 0.105-1.273 0.63-2.863 1.418-4.401-0.105-0.159-0.158-0.159-0.42 0-0.578s0.424-0.158 0.583 0c1.007 1.050 1.962 0.63 3.394-0.105 1.273-0.63 2.863-1.418 4.401 0.105 1.008 1.050 1.962 0.63 3.394-0.105 1.273-0.63 2.863-1.418 4.401 0.105 1.007 1.050 1.962 0.63 3.394-0.105 1.273-0.63 2.863-1.418 4.401 0.105 1.008 1.050 1.962 0.63 3.394-0.105 1.273-0.63 2.863-1.418 4.401 0.105 0.159 0.158 0.159 0.42 0 0.578s-0.424 0.158-0.583 0c-1.007-1.050-1.962-0.63-3.394 0.105-1.273 0.63-2.863 1.418-4.401-0.105-1.008-1.050-1.962-0.63-3.394 0.105-0.795 0.368-1.644 0.788-2.492 0.788z"></path>
</svg>
