<!-- Generated by IcoMoon.io -->
<svg version="1.1" xmlns="http://www.w3.org/2000/svg" width="1024" height="1024" viewBox="0 0 1024 1024">
<g id="icomoon-ignore">
</g>
<path fill="#000" d="M40.421 733.275h101.053c3.368 0 6.737-3.4 6.737-6.799v-186.978c0-3.4-3.369-6.799-6.737-6.799h-101.053c-3.369 0-6.737 3.4-6.737 6.799v186.978c0 3.4 3.368 6.799 6.737 6.799zM47.158 546.297h87.579v173.379h-87.579v-173.379z"></path>
<path fill="#000" d="M208.842 733.277h101.052c3.368 0 6.738-3.4 6.738-6.799v-288.966c0-3.4-3.37-6.799-6.738-6.799h-101.052c-3.369 0-6.737 3.4-6.737 6.799v288.966c0 3.4 3.368 6.799 6.737 6.799zM215.579 444.311h87.58v275.367h-87.58v-275.367z"></path>
<path fill="#000" d="M377.264 733.264h101.053c3.368 0 6.736-3.4 6.736-6.797v-390.954c0-3.4-3.368-6.799-6.736-6.799h-101.053c-3.37 0-6.738 3.4-6.738 6.799v390.954c0 3.397 3.368 6.797 6.738 6.797zM384 342.312h87.579v377.355h-87.579v-377.355z"></path>
<path fill="#000" d="M545.685 733.266h101.053c3.368 0 6.736-3.4 6.736-6.799v-492.941c0-3.399-3.368-6.799-6.736-6.799h-101.053c-3.368 0-6.738 3.4-6.738 6.799v492.941c0 3.4 3.37 6.799 6.738 6.799zM552.423 240.325h87.577v479.342h-87.577v-479.342z"></path>
<path fill="#000" d="M714.103 733.27h101.053c3.37 0 6.738-3.4 6.738-6.799v-594.93c0-3.399-3.368-6.799-6.738-6.799h-101.053c-3.368 0-6.736 3.4-6.736 6.799v594.93c0 3.4 3.368 6.799 6.736 6.799zM720.841 138.34h87.579v581.332h-87.579v-581.332z"></path>
<path fill="#000" d="M882.526 733.27h101.053c3.368 0 6.736-3.4 6.736-6.797v-696.919c0-3.4-3.368-6.799-6.736-6.799h-101.053c-3.368 0-6.738 3.4-6.738 6.799v696.919c0 3.397 3.37 6.797 6.738 6.797zM889.262 36.354h87.579v683.32h-87.579v-683.32z"></path>
<path fill="#000" d="M1017.264 855.652h-717.476v-44.196c0-3.4-1.684-5.1-3.368-6.799l-33.683-16.998c-1.686-1.7-3.37-1.7-6.738 0l-33.684 16.998c-1.684 1.7-3.369 3.4-3.369 6.799v44.196h-212.211c-3.368 0-6.737 3.4-6.737 6.799v67.991c0 3.4 3.368 6.799 6.737 6.799h212.211v44.194c0 3.4 3.369 6.799 6.737 6.799h67.369c3.368 0 6.736-3.4 6.736-6.799v-44.194h717.476c3.368 0 6.736-3.4 6.736-6.799v-67.991c0-3.4-3.368-6.799-6.736-6.799zM13.474 923.643v-54.393h205.474v54.393h-205.474zM286.315 974.636h-53.894v-158.081l26.947-13.599 26.947 13.599v158.081zM1010.526 923.643h-710.738v-54.393h710.738v54.393z"></path>
<path fill="#000" d="M204.8 432.356h117.029v292.57h-117.029v-292.57z"></path>
</svg>
