<!-- Generated by IcoMoon.io -->
<svg version="1.1" xmlns="http://www.w3.org/2000/svg" width="1024" height="1024" viewBox="0 0 1024 1024">
<g id="icomoon-ignore">
</g>
<path fill="#000" d="M776.138 243.554c0-2.2 0-2.2 0 0-68.942-70.412-161.584-112.219-264.996-112.219-103.415 0-196.054 41.807-262.842 112.219-66.788 68.212-109.876 165.028-109.876 268.446 0 105.617 40.934 200.234 109.876 268.445 66.789 68.213 161.584 112.221 262.842 112.221 103.412 0 196.054-41.809 264.996-112.221 66.786-68.21 109.875-165.027 109.875-268.445s-40.933-200.234-109.875-268.446zM829.997 529.604h23.7c-4.31 83.613-36.626 160.626-88.332 217.838l-15.080-15.405c-6.463-6.599-17.236-6.599-23.7 0-6.463 6.602-6.463 17.604 0 24.206l15.080 15.402c-56.016 52.808-131.418 85.814-213.287 90.214v-24.203c0-8.803-6.463-17.604-17.236-17.604s-15.083 8.8-15.083 17.604v24.203c-81.869-4.4-157.274-37.406-213.288-90.214l15.081-15.402c6.463-6.602 6.463-17.604 0-24.206-6.463-6.599-17.236-6.599-23.699 0l-15.081 15.405c-51.707-57.211-84.023-134.225-88.332-217.838h23.699c8.618 0 17.235-6.602 17.235-17.604s-8.618-15.402-17.235-15.402h-23.699c4.309-83.616 36.625-160.626 88.332-217.838l15.081 15.402c2.155 2.2 6.463 4.401 10.772 4.401s8.618-2.2 10.772-4.401c6.464-6.601 6.464-17.603 0-24.204l-15.081-15.403c56.015-52.809 131.421-85.815 213.29-90.215v24.204c0 8.802 6.463 17.603 17.236 17.603s17.236-6.601 17.236-17.603v-24.204c81.869 4.401 157.271 37.406 213.287 90.215l-15.080 17.603c-6.463 6.601-6.463 17.603 0 24.204 2.153 2.2 6.463 4.401 10.773 4.401 4.307 0 8.617-2.2 10.77-4.401l15.083-15.402c51.706 57.209 84.022 134.223 88.332 217.836h-23.7c-8.617 0-17.236 6.602-17.236 17.604s10.773 13.204 19.39 13.204z"></path>
<path fill="#000" d="M513.295 960.876c-243.451 0-439.505-202.436-439.505-448.876 0-8.8-6.464-17.604-17.236-17.604s-17.235 6.602-17.235 17.604c0 266.246 211.135 481.882 471.823 481.882 8.617 0 17.236-6.602 17.236-17.604s-6.463-15.402-15.083-15.402z"></path>
<path fill="#000" d="M84.562 465.794c2.154 2.199 6.463 4.4 10.772 4.4s8.618-2.202 10.772-4.4c6.463-6.602 6.463-17.604 0-24.206l-38.78-39.608c-6.463-6.599-17.235-6.599-23.699 0l-38.78 39.608c-6.463 6.602-6.463 17.604 0 24.206 6.463 6.599 17.236 6.599 23.699 0l28.008-28.606 28.008 28.606z"></path>
<path fill="#000" d="M513.295 63.123c243.453 0 439.507 202.435 439.507 448.877 0 8.8 6.463 17.604 17.236 17.604 10.77 0 17.233-6.602 17.233-17.604-2.153-266.245-215.444-481.882-473.976-481.882-10.773 0-17.236 6.601-17.236 17.603s6.463 15.403 17.236 15.403z"></path>
<path fill="#000" d="M1019.588 558.206c-6.463-6.599-17.233-6.599-23.697 0l-28.009 28.606-28.006-28.606c-6.463-6.599-17.236-6.599-23.7 0-6.463 6.602-6.463 17.604 0 24.206l38.779 39.608c2.156 2.199 6.463 4.4 10.773 4.4s8.617-2.202 10.773-4.4l38.779-39.608c10.77-8.8 10.77-17.604 4.307-24.206z"></path>
<path fill="#000" d="M631.79 353.572l-99.105 107.818c-6.463-2.199-12.926-4.4-19.39-4.4-30.163 0-53.859 24.206-53.859 55.010 0 24.206 15.080 44.008 38.779 52.808v105.62c0 8.8 6.463 17.601 17.233 17.601 10.773 0 17.236-6.599 17.236-17.601v-105.62c21.546-6.602 38.779-28.603 38.779-52.808 0-11.002-4.307-22.004-8.617-30.804l96.949-105.62c6.463-6.602 6.463-17.604 0-24.203-12.926-4.403-21.543-4.403-28.006 2.199zM513.295 534.004c-12.926 0-21.543-8.8-21.543-22.004s10.77-22.004 21.543-22.004c10.773 0 21.546 11.002 21.546 22.004 0 13.204-10.773 22.004-21.546 22.004z"></path>
</svg>
