<!-- Generated by IcoMoon.io -->
<svg version="1.1" xmlns="http://www.w3.org/2000/svg" width="1024" height="1024" viewBox="0 0 1024 1024">
<g id="icomoon-ignore">
</g>
<path fill="#000" d="M838.386 256.725l40.616-40.61 20.308 20.304c1.451 1.451 4.353 2.902 5.802 2.902 2.902 0 4.353-1.451 5.804-2.902 2.9-2.9 2.9-8.702 0-13.053l-53.673-53.666c-2.9-2.901-8.704-2.901-13.055 0-2.902 2.901-2.902 8.702 0 13.054l20.308 20.306-40.616 40.612c-68.179-65.269-156.666-110.232-255.306-123.286v-102.98h58.024c4.353 0 8.704-4.351 8.704-8.703s-2.902-8.703-8.704-8.703h-230.645c-4.351 0-8.704 4.351-8.704 8.703s4.353 8.703 8.704 8.703h58.024v102.98c-223.392 29.008-396.014 219.015-396.014 449.631 0 249.473 203.084 453.984 454.038 453.984s454.038-203.059 454.038-453.984c-1.451-121.835-49.32-232.067-127.652-313.292zM471.384 17.405h79.783v101.53c-13.057-1.45-26.112-2.901-39.167-2.901s-27.561 0-40.616 1.45c0 1.45 0-100.079 0-100.079zM512 1005.145c-240.8 0-435.18-195.808-435.18-435.129s195.831-435.127 435.18-435.127c240.8 0 435.181 195.806 435.181 435.127 0 240.771-195.831 435.129-435.181 435.129z"></path>
<path fill="#000" d="M271.2 317.643c-2.9-2.9-8.702-2.9-13.055 0-2.9 2.902-2.9 8.702 0 13.053l246.602 246.573c1.451 1.451 4.351 2.9 5.802 2.9 2.902 0 4.353-1.449 5.802-2.9 2.902-2.902 2.902-8.702 0-13.053l-245.151-246.573z"></path>
<path fill="#000" d="M671.933 692.875c-16.102 0-34.348 9.678-35.423 26.881l-1.072 9.676h23.614c1.074-7.525 8.588-12.902 13.953-11.826 5.367 0 12.881 5.375 11.807 11.826 0 8.602-7.512 12.902-13.953 17.203-11.807 6.451-24.688 12.902-31.128 24.729-5.367 10.752-5.367 19.354-5.367 31.18h76.211v-24.729h-44.009c10.735-8.602 23.614-12.902 32.202-23.654 9.66-11.826 12.879-30.106 4.293-43.006-5.367-11.828-19.321-18.279-31.128-18.279z"></path>
<path fill="#000" d="M514.147 367.094c-95.53 0-173.887 75.262-179.254 170.954-83.723 24.731-141.685 99.993-141.685 187.083 0 108.594 88.018 196.759 196.428 196.759 8.586 0 18.247-1.074 26.835-2.15l38.642 83.866 22.54-10.752-46.155-99.993-9.66 2.15c-10.733 2.15-21.467 3.225-32.2 3.225-95.531 0-172.814-77.412-172.814-173.104 0-79.563 53.669-148.376 129.878-167.729l8.588-2.15v-9.676c1.072-86.016 70.843-154.827 156.713-154.827s155.64 68.811 156.713 154.827v9.676l8.588 2.15c76.209 19.354 129.878 88.166 129.878 167.729 0 95.692-77.283 173.104-172.814 173.104-10.733 0-21.467-1.074-32.2-3.225l-9.66-2.15-47.23 101.067 22.542 10.752 39.714-84.94c8.588 1.076 18.248 2.15 26.835 2.15 108.411 0 196.428-88.164 196.428-196.759 0-87.090-57.962-162.352-141.685-187.083-1.074-95.692-79.43-170.954-174.961-170.954z"></path>
<path fill="#000" d="M402.515 631.59c-15.026-2.15-30.053 0-44.007 6.451-27.909 13.979-44.009 45.158-39.716 76.338s26.835 56.985 57.962 63.436c30.055 6.451 61.183-8.602 77.283-36.557l-21.467-11.826c-10.735 18.277-31.128 27.955-50.448 23.654-20.395-4.301-35.423-21.504-38.642-43.008-3.221-21.504 8.586-43.008 26.835-51.61 18.247-9.676 40.788-5.375 54.741 9.678l17.174-17.203c-11.807-9.676-25.76-17.203-39.716-19.354z"></path>
<path fill="#000" d="M544.202 654.168c26.835 0 48.302 22.58 48.302 50.535 0 27.953-21.467 50.533-48.302 50.533s-48.302-22.58-48.302-50.533c0-27.955 22.54-50.535 48.302-50.535zM544.202 630.515c-39.716 0-72.99 34.404-72.99 75.262s32.202 75.264 72.99 75.264c39.714 0 72.988-34.406 72.988-75.264 0-41.932-32.2-75.262-72.988-75.262z"></path>
</svg>
