<!-- Generated by IcoMoon.io -->
<svg version="1.1" xmlns="http://www.w3.org/2000/svg" width="1024" height="1024" viewBox="0 0 1024 1024">
<g id="icomoon-ignore">
</g>
<path fill="#000" d="M1003.261 982.521h-933.266l207.393-207.392 114.064 114.064c7.778 7.778 20.739 7.778 28.517 0l394.047-396.636v41.479c0 10.37 10.367 20.737 20.737 20.737s20.739-10.367 20.739-20.737v-93.327c0-2.592 0-5.186-2.592-7.778-2.592-5.184-5.184-7.778-10.37-10.37-2.592 0-5.184-2.592-7.778-2.592h-93.325c-10.37 0-20.739 10.37-20.739 20.739s10.37 20.739 20.739 20.739h41.479l-378.491 383.675-114.067-114.064c-7.778-7.778-20.739-7.778-28.517 0l-220.354 220.353v-933.265c0-7.777-10.369-18.147-20.739-18.147s-20.739 10.37-20.739 20.739v982.521c0 2.592 0 5.186 2.592 7.778 2.592 5.184 5.185 7.778 10.37 10.37 2.592 0 5.185 2.592 7.777 2.592h982.521c10.37 0 20.739-10.37 20.739-20.739s-10.37-20.739-20.739-20.739z"></path>
<path fill="#000" d="M535.254 302.308c-14.941 0-31.874 8.979-32.87 24.942l-0.994 8.979h21.911c0.997-6.984 7.969-11.972 12.95-10.975 4.979 0 11.951 4.988 10.955 10.975 0 7.983-6.972 11.974-12.948 15.963-10.957 5.987-22.908 11.974-28.884 22.949-4.981 9.976-4.981 17.959-4.981 28.934h70.717v-22.949h-40.837c9.96-7.98 21.914-11.972 29.883-21.95 8.963-10.973 11.951-27.935 3.982-39.906-4.979-10.975-17.927-16.962-28.884-16.962z"></path>
<path fill="#000" d="M388.836 0c-88.647 0-161.357 69.84-166.337 158.636-77.691 22.947-131.477 92.787-131.477 173.601 0 100.771 81.675 182.581 182.274 182.581 7.969 0 16.932-0.997 24.901-1.993l35.856 77.822 20.917-9.978-42.828-92.788-8.966 1.996c-9.96 1.996-19.92 2.995-29.88 2.995-88.647 0-160.362-71.837-160.362-160.634 0-73.83 49.802-137.684 120.521-155.643l7.967-1.995v-8.979c0.997-79.817 65.739-143.671 145.422-143.671s144.425 63.854 145.422 143.671v8.979l7.967 1.995c70.72 17.959 120.52 81.812 120.52 155.643 0 88.797-71.714 160.634-160.361 160.634-9.96 0-19.92-0.999-29.88-2.995l-8.966-1.996-43.825 93.787 20.917 9.976 36.853-78.818c7.969 0.997 16.932 1.993 24.901 1.993 100.6 0 182.274-81.811 182.274-182.581 0-80.814-53.785-150.654-131.477-173.601-0.994-88.797-73.705-158.636-162.354-158.636z"></path>
<path fill="#000" d="M285.25 245.437c-13.945-1.996-27.889 0-40.839 5.987-25.896 12.971-40.836 41.904-36.852 70.838s24.901 52.879 53.785 58.864c27.889 5.987 56.775-7.98 71.716-33.922l-19.922-10.975c-9.96 16.962-28.884 25.941-46.813 21.95-18.924-3.991-32.868-19.954-35.858-39.909-2.987-19.954 7.969-39.909 24.901-47.889 16.932-8.979 37.849-4.99 50.797 8.979l15.938-15.965c-10.957-8.979-23.905-15.963-36.853-17.959z"></path>
<path fill="#000" d="M416.725 266.39c24.901 0 44.822 20.951 44.822 46.892s-19.92 46.892-44.822 46.892c-24.899 0-44.822-20.951-44.822-46.892s20.917-46.892 44.822-46.892zM416.725 244.44c-36.853 0-67.73 31.926-67.73 69.839s29.88 69.841 67.73 69.841c36.855 0 67.732-31.928 67.732-69.841 0-38.91-29.883-69.839-67.732-69.839z"></path>
</svg>
