<!-- Generated by IcoMoon.io -->
<svg version="1.1" xmlns="http://www.w3.org/2000/svg" width="1024" height="1024" viewBox="0 0 1024 1024">
<g id="icomoon-ignore">
</g>
<path fill="#000" d="M195.538 663.251l110.206-190.874h-220.411l110.206 190.874zM176.448 243.326v248.142h38.178v-248.142h-38.178z"></path>
<path fill="#000" d="M644.435 536.205v-297.341c6.533 3.135 17.584 3.906 26.399 6.639 23.526 7.29 46.919 24.035 63.237 40.96 24.237 25.134 38.883 64.596 39.859 99.942 0.413 14.995-5.595 41.985-11.437 56.921-12.328 31.527-36.19 58.61-65.514 74.261-35.57 18.989-39.479 12.347-52.544 18.615zM438.582 124.504c0-92.337 117.266-117.832 158.456-41.551 13.929 25.798 9.274 72.228 9.274 110.167l-0.052 444.792c1.569 15.87 16.701 18.016 43.893 45.055 113.967 113.335 29.715 308.146-130.25 308.146-50.869 0-91.506-21.701-123.892-54.004-81.133-80.928-67.373-209.688 20.755-275.317 24.218-18.035 21.813-10.242 21.813-59.509 13.642 0 38.12 3.922 38.12-17.789 0-21.389-20.577-20.331-38.12-20.331v-30.497c18.483 0 50.828 4.715 50.828-17.792 0-24.825-27.31-20.328-50.828-20.328v-30.497c20.126 0 38.12 3.253 38.12-20.331 0-21.496-18.125-17.789-38.12-17.789v-30.497c18.489 0 50.828 4.032 50.828-17.792 0-26.254-25.773-20.331-50.828-20.331v-30.494c31.765 0 38.12-1.779 38.12-25.415 0-17.078-27.605-12.705-38.12-12.705v-33.036c19.995 0 50.828 5.505 50.828-17.792 0-22.972-27.107-17.792-50.828-17.792v-33.036c32.935 0 38.12 1.648 38.12-22.873 0-16.329-26.859-15.25-38.12-15.25v-25.413zM400.462 627.698c-7.777 5.21-10.004 6.946-17.226 13.273-7.159 6.27-11.139 7.572-17.625 15.411-45.156 54.553-59.178 87.024-59.178 164.464 0 63.683 33.569 116.916 76.806 154.457 6.301 5.47 13.263 9.9 17.223 15.816l-218.687-0.128c-20.67-0.18-13.547-0.107-25.287 7.752-2.146-5.932 0.959-2.608-4.475-5.691-5.874-3.332-12.175-1.933-23.48-1.933-17.983 0-18.317 35.578 0 35.578 29.521 0 17.682 0.959 30.497-7.623 2.649 3.958 3.37 7.623 10.166 7.623h706.502c6.109 0 7.47-4.117 12.705-7.623 6.492 9.695 4.827 7.623 27.955 7.623 18.374 0 18.374-35.578 0-35.578-37.125 0-14.402 0.959-27.165 3.228-8.886 1.58-6.918-3.253-43.992-3.231l-198.227 0.003c5.434-8.115 9.985-9.217 17.185-15.851 79.649-73.43 101.956-184.24 46.504-276.561-9.854-16.406-18.612-26.331-30.234-40.925-5.636-7.077-11.986-10.633-18.861-16.718-21.064-18.636-17.133-2.507-17.133-61.647 0-11.524 8.547-4.827 31.448-11.756 13.328-4.035 21.468-7.028 32.965-12.781 127.795-63.951 145.42-249.905 4.751-331.801-14.413-8.392-47.064-19.787-69.161-19.787 0-62.51 7.798-122.624-33.615-164.612-72.922-73.931-176.229-30.86-200.575 37.158-15.81 44.172-9.783 118.827-9.783 178.281 0 124.526 0 249.055 0 373.581z"></path>
<path fill="#000" d="M441.127 803.052c0 26.049 4.915 50.708 26.391 67.641 35.469 27.96 75.647 28.881 111.296-1.11 43.502-36.595 35.4-142.772-61.45-142.772-39.446 0-76.24 36.644-76.24 76.24z"></path>
<path fill="#000" d="M860.451 406.598c52.427 0 78.782 7.757 78.782-22.873 0-22.608-49.592-15.25-81.324-15.25-26.618 0-25.872 38.12 2.542 38.12z"></path>
<path fill="#000" d="M824.873 282.069c10.447 0 31.593-15.425 40.662-20.328 19.137-10.349 33.039-14.698 33.039-30.499 0-35.010-39.689-9.436-47.78-4.576-8.649 5.191-17.579 10.261-25.962 14.7-8.274 4.379-17.846 9.236-19.224 21.066-1.287 11.079 6.853 19.637 19.268 19.637z"></path>
<path fill="#000" d="M804.542 510.793c0 17.215 22.258 23.764 33.184 30.352 8.968 5.407 31.205 20.476 43.057 20.476 8.613 0 17.789-9.176 17.789-17.789 0-13.528-21.288-23.201-31.596-29.398-12.825-7.708-30.808-21.43-44.645-21.43-10.805 0-17.789 7.897-17.789 17.789z"></path>
<path fill="#000" d="M715.594 167.708c0 24.273 8.498 22.87 22.873 22.87 13.126 0 45.746-71.159 45.746-71.159 0-18.336-12.519-20.328-22.873-20.328-14.126 0-45.744 68.611-45.744 68.617z"></path>
<path fill="#000" d="M715.594 602.283c0 2.28 30.773 73.698 48.286 73.698 10.876 0 20.331-7.834 20.331-17.789 0-5.429-30.827-71.214-47.121-74.863-11.776-2.638-21.496 5.828-21.496 18.951z"></path>
</svg>
