<svg width="44" height="52" viewBox="0 0 44 52" fill="none" xmlns="http://www.w3.org/2000/svg">
<mask id="path-1-outside-1_53_821" maskUnits="userSpaceOnUse" x="2" y="0" width="42" height="52" fill="black">
<rect fill="white" x="2" width="42" height="52"/>
<path d="M22.7719 44.2653C20.744 44.2653 19.1217 42.6327 19.1217 40.5918C19.1217 38.551 20.744 36.9184 22.7719 36.9184C24.7997 36.9184 26.4221 38.551 26.4221 40.5918C26.4221 42.6327 24.7997 44.2653 22.7719 44.2653ZM33.6717 30.0816L35.2433 32.8367C35.3954 33.0918 35.294 33.398 35.0406 33.551C34.9392 33.602 34.8885 33.602 34.7871 33.602C34.5843 33.602 34.4322 33.5 34.3308 33.3469L32.8099 30.5918C32.6578 30.3367 32.7592 30.0306 33.0127 29.8776C33.2155 29.7755 33.5196 29.8265 33.6717 30.0816ZM40.8707 27.6837C40.7693 27.8367 40.6172 27.9388 40.4144 27.9388C40.3131 27.9388 40.2624 27.8878 40.161 27.8878L37.4233 26.3061C37.1698 26.1531 37.1191 25.8469 37.2205 25.5918C37.3726 25.3367 37.6768 25.2857 37.9303 25.3878L40.6679 27.0204C40.9214 27.1735 41.0228 27.4796 40.8707 27.6837ZM43 19.7245C43 20.0306 42.7972 20.2347 42.493 20.2347H39.3498C39.0456 20.2347 38.8428 20.0306 38.8428 19.7245C38.8428 19.4184 39.0456 19.2143 39.3498 19.2143H42.493C42.7972 19.2143 43 19.4694 43 19.7245ZM37.2712 13.8571C37.1191 13.602 37.2205 13.2959 37.474 13.1429L40.2117 11.5612C40.4651 11.4082 40.7693 11.5102 40.9214 11.7653C41.0735 12.0204 40.9721 12.3265 40.7186 12.4796L37.981 14.0612C37.8796 14.1122 37.8289 14.1122 37.7275 14.1122C37.5247 14.1122 37.3219 14.0102 37.2712 13.8571ZM32.962 9.57143C32.7085 9.41837 32.6578 9.11224 32.7592 8.85714L34.3308 6.10204C34.4829 5.84694 34.7871 5.79592 35.0406 5.89796C35.294 6.05102 35.3447 6.35714 35.2433 6.61224L33.6717 9.36735C33.5196 9.62245 33.2155 9.67347 32.962 9.57143ZM40.0089 49.9796H27.2332C32.4043 47.5306 34.5843 41.3061 32.1508 36.1531C31.3397 34.4184 30.0215 32.9388 28.3992 31.8673V28.551C33.2155 28.2959 36.9164 24.1633 36.6629 19.2653C36.4094 14.7755 32.8606 11.2041 28.3485 10.949V6.61224C28.3485 3.5 25.8644 1 22.7719 1C19.6793 1 17.1952 3.5 17.1952 6.61224V31.8163C12.379 34.9286 11.0101 41.3571 14.1027 46.2041C15.1673 47.8367 16.6375 49.1633 18.3612 49.9796H5.53485C5.23067 49.9796 5.02788 50.1837 5.02788 50.4898C5.02788 50.7959 5.23067 51 5.53485 51H40.0089C40.3131 51 40.5158 50.7959 40.5158 50.4898C40.5158 50.1837 40.3131 49.9796 40.0089 49.9796ZM35.5982 19.7245C35.5982 23.8571 32.455 27.2245 28.3485 27.5306V11.9694C32.455 12.2245 35.5982 15.6429 35.5982 19.7245ZM13.4436 40.5918C13.4436 37.3265 15.1166 34.2653 17.9049 32.5816C18.057 32.4796 18.1584 32.3265 18.1584 32.1224V29.9796H19.5779C19.8821 29.9796 20.0849 29.7755 20.0849 29.4694C20.0849 29.1633 19.8821 28.9592 19.5779 28.9592H18.2091V26.5612H20.1863C20.4905 26.5612 20.6933 26.3571 20.6933 26.051C20.6933 25.7449 20.4905 25.5408 20.1863 25.5408H18.2091V23.1429H19.6286C19.9328 23.1429 20.1356 22.9388 20.1356 22.6327C20.1356 22.3265 19.9328 22.1224 19.6286 22.1224H18.2091V19.7245H20.1863C20.4905 19.7245 20.6933 19.5204 20.6933 19.2143C20.6933 18.9082 20.4905 18.7041 20.1863 18.7041H18.2091V16.3061H19.6286C19.9328 16.3061 20.1356 16.102 20.1356 15.7959C20.1356 15.4898 19.9328 15.2857 19.6286 15.2857H18.2091V12.8878H20.1863C20.4905 12.8878 20.6933 12.6837 20.6933 12.3776C20.6933 12.0714 20.4905 11.8673 20.1863 11.8673H18.2091V9.46939H19.6286C19.9328 9.46939 20.1356 9.26531 20.1356 8.95918C20.1356 8.65306 19.9328 8.44898 19.6286 8.44898H18.2091V6.61224C18.2091 4.06122 20.237 2.02041 22.7719 2.02041C25.3067 2.02041 27.3346 4.06122 27.3346 6.61224V32.1224C27.3346 32.3265 27.436 32.4796 27.5881 32.5816C31.9987 35.2857 33.4182 41.051 30.7313 45.4898C28.0444 49.9286 22.3156 51.3571 17.9049 48.6531C15.1673 46.9184 13.4436 43.8571 13.4436 40.5918ZM42.5437 50.4898C42.5437 50.7959 42.3409 51 42.0368 51H41.5805C41.2763 51 41.0735 50.7959 41.0735 50.4898C41.0735 50.1837 41.2763 49.9796 41.5805 49.9796H42.0368C42.3409 49.9796 42.5437 50.1837 42.5437 50.4898ZM4.47022 50.4898C4.47022 50.7959 4.26743 51 3.96324 51H3.50697C3.20279 51 3 50.7959 3 50.4898C3 50.1837 3.20279 49.9796 3.50697 49.9796H3.96324C4.26743 49.9796 4.47022 50.1837 4.47022 50.4898Z"/>
</mask>
<path d="M22.7719 44.2653C20.744 44.2653 19.1217 42.6327 19.1217 40.5918C19.1217 38.551 20.744 36.9184 22.7719 36.9184C24.7997 36.9184 26.4221 38.551 26.4221 40.5918C26.4221 42.6327 24.7997 44.2653 22.7719 44.2653ZM33.6717 30.0816L35.2433 32.8367C35.3954 33.0918 35.294 33.398 35.0406 33.551C34.9392 33.602 34.8885 33.602 34.7871 33.602C34.5843 33.602 34.4322 33.5 34.3308 33.3469L32.8099 30.5918C32.6578 30.3367 32.7592 30.0306 33.0127 29.8776C33.2155 29.7755 33.5196 29.8265 33.6717 30.0816ZM40.8707 27.6837C40.7693 27.8367 40.6172 27.9388 40.4144 27.9388C40.3131 27.9388 40.2624 27.8878 40.161 27.8878L37.4233 26.3061C37.1698 26.1531 37.1191 25.8469 37.2205 25.5918C37.3726 25.3367 37.6768 25.2857 37.9303 25.3878L40.6679 27.0204C40.9214 27.1735 41.0228 27.4796 40.8707 27.6837ZM43 19.7245C43 20.0306 42.7972 20.2347 42.493 20.2347H39.3498C39.0456 20.2347 38.8428 20.0306 38.8428 19.7245C38.8428 19.4184 39.0456 19.2143 39.3498 19.2143H42.493C42.7972 19.2143 43 19.4694 43 19.7245ZM37.2712 13.8571C37.1191 13.602 37.2205 13.2959 37.474 13.1429L40.2117 11.5612C40.4651 11.4082 40.7693 11.5102 40.9214 11.7653C41.0735 12.0204 40.9721 12.3265 40.7186 12.4796L37.981 14.0612C37.8796 14.1122 37.8289 14.1122 37.7275 14.1122C37.5247 14.1122 37.3219 14.0102 37.2712 13.8571ZM32.962 9.57143C32.7085 9.41837 32.6578 9.11224 32.7592 8.85714L34.3308 6.10204C34.4829 5.84694 34.7871 5.79592 35.0406 5.89796C35.294 6.05102 35.3447 6.35714 35.2433 6.61224L33.6717 9.36735C33.5196 9.62245 33.2155 9.67347 32.962 9.57143ZM40.0089 49.9796H27.2332C32.4043 47.5306 34.5843 41.3061 32.1508 36.1531C31.3397 34.4184 30.0215 32.9388 28.3992 31.8673V28.551C33.2155 28.2959 36.9164 24.1633 36.6629 19.2653C36.4094 14.7755 32.8606 11.2041 28.3485 10.949V6.61224C28.3485 3.5 25.8644 1 22.7719 1C19.6793 1 17.1952 3.5 17.1952 6.61224V31.8163C12.379 34.9286 11.0101 41.3571 14.1027 46.2041C15.1673 47.8367 16.6375 49.1633 18.3612 49.9796H5.53485C5.23067 49.9796 5.02788 50.1837 5.02788 50.4898C5.02788 50.7959 5.23067 51 5.53485 51H40.0089C40.3131 51 40.5158 50.7959 40.5158 50.4898C40.5158 50.1837 40.3131 49.9796 40.0089 49.9796ZM35.5982 19.7245C35.5982 23.8571 32.455 27.2245 28.3485 27.5306V11.9694C32.455 12.2245 35.5982 15.6429 35.5982 19.7245ZM13.4436 40.5918C13.4436 37.3265 15.1166 34.2653 17.9049 32.5816C18.057 32.4796 18.1584 32.3265 18.1584 32.1224V29.9796H19.5779C19.8821 29.9796 20.0849 29.7755 20.0849 29.4694C20.0849 29.1633 19.8821 28.9592 19.5779 28.9592H18.2091V26.5612H20.1863C20.4905 26.5612 20.6933 26.3571 20.6933 26.051C20.6933 25.7449 20.4905 25.5408 20.1863 25.5408H18.2091V23.1429H19.6286C19.9328 23.1429 20.1356 22.9388 20.1356 22.6327C20.1356 22.3265 19.9328 22.1224 19.6286 22.1224H18.2091V19.7245H20.1863C20.4905 19.7245 20.6933 19.5204 20.6933 19.2143C20.6933 18.9082 20.4905 18.7041 20.1863 18.7041H18.2091V16.3061H19.6286C19.9328 16.3061 20.1356 16.102 20.1356 15.7959C20.1356 15.4898 19.9328 15.2857 19.6286 15.2857H18.2091V12.8878H20.1863C20.4905 12.8878 20.6933 12.6837 20.6933 12.3776C20.6933 12.0714 20.4905 11.8673 20.1863 11.8673H18.2091V9.46939H19.6286C19.9328 9.46939 20.1356 9.26531 20.1356 8.95918C20.1356 8.65306 19.9328 8.44898 19.6286 8.44898H18.2091V6.61224C18.2091 4.06122 20.237 2.02041 22.7719 2.02041C25.3067 2.02041 27.3346 4.06122 27.3346 6.61224V32.1224C27.3346 32.3265 27.436 32.4796 27.5881 32.5816C31.9987 35.2857 33.4182 41.051 30.7313 45.4898C28.0444 49.9286 22.3156 51.3571 17.9049 48.6531C15.1673 46.9184 13.4436 43.8571 13.4436 40.5918ZM42.5437 50.4898C42.5437 50.7959 42.3409 51 42.0368 51H41.5805C41.2763 51 41.0735 50.7959 41.0735 50.4898C41.0735 50.1837 41.2763 49.9796 41.5805 49.9796H42.0368C42.3409 49.9796 42.5437 50.1837 42.5437 50.4898ZM4.47022 50.4898C4.47022 50.7959 4.26743 51 3.96324 51H3.50697C3.20279 51 3 50.7959 3 50.4898C3 50.1837 3.20279 49.9796 3.50697 49.9796H3.96324C4.26743 49.9796 4.47022 50.1837 4.47022 50.4898Z" fill="#192646"/>
<path d="M27.436 40.1327L27.6351 40.1133L27.6347 40.1102L27.436 40.1327ZM22.2414 35.7504C19.546 36.0695 17.6448 38.4638 17.9087 41.1725L18.3068 41.1337C18.0637 38.6382 19.8126 36.4407 22.2884 36.1476L22.2414 35.7504ZM17.9087 41.1725C18.1733 43.8888 20.6072 45.8013 23.2985 45.5358L23.2592 45.1377C20.7793 45.3824 18.5491 43.6214 18.3068 41.1337L17.9087 41.1725ZM23.2985 45.5358C26.0004 45.2692 27.8986 42.8185 27.6351 40.1133L27.2369 40.152C27.4804 42.6509 25.7283 44.8941 23.2592 45.1377L23.2985 45.5358ZM27.6347 40.1102C27.371 37.7748 25.5762 35.9654 23.3021 35.6993L23.2556 36.0966C25.3414 36.3407 26.994 38.0007 27.2373 40.1551L27.6347 40.1102ZM33.6717 30.0816L34.0192 29.8834L34.0153 29.8768L33.6717 30.0816ZM35.2433 32.8367L34.8958 33.035L34.8998 33.0416L35.2433 32.8367ZM35.0406 33.551L35.2204 33.9083L35.2341 33.9014L35.2473 33.8934L35.0406 33.551ZM34.3308 33.3469L33.9806 33.5403L33.9884 33.5544L33.9973 33.5678L34.3308 33.3469ZM32.8099 30.5918L33.1603 30.3984L33.1535 30.387L32.8099 30.5918ZM33.0127 29.8776L32.8329 29.5202L32.8191 29.5272L32.8059 29.5351L33.0127 29.8776ZM40.8707 27.6837L40.55 27.4446L40.5434 27.4535L40.5373 27.4628L40.8707 27.6837ZM40.161 27.8878L39.9609 28.2341L40.0537 28.2878H40.161V27.8878ZM37.4233 26.3061L37.2165 26.6486L37.2232 26.6525L37.4233 26.3061ZM37.2205 25.5918L36.877 25.387L36.8606 25.4144L36.8488 25.4441L37.2205 25.5918ZM37.9303 25.3878L38.1352 25.0442L38.1085 25.0283L38.0797 25.0167L37.9303 25.3878ZM40.6679 27.0204L40.8747 26.678L40.8728 26.6769L40.6679 27.0204ZM37.2712 13.8571L37.6509 13.7314L37.6372 13.6899L37.6148 13.6523L37.2712 13.8571ZM37.474 13.1429L37.2739 12.7964L37.2673 12.8004L37.474 13.1429ZM40.2117 11.5612L40.4118 11.9076L40.4184 11.9036L40.2117 11.5612ZM40.7186 12.4796L40.9188 12.826L40.9254 12.822L40.7186 12.4796ZM37.981 14.0612L38.1608 14.4185L38.1711 14.4134L38.1811 14.4076L37.981 14.0612ZM32.962 9.57143L32.7552 9.91385L32.7828 9.93048L32.8126 9.94249L32.962 9.57143ZM32.7592 8.85714L32.4117 8.65895L32.3978 8.68332L32.3875 8.7094L32.7592 8.85714ZM34.3308 6.10204L33.9872 5.89717L33.9834 5.90385L34.3308 6.10204ZM35.0406 5.89796L35.2473 5.55554L35.2198 5.53891L35.1899 5.5269L35.0406 5.89796ZM35.2433 6.61224L35.5908 6.81044L35.6047 6.78607L35.6151 6.75999L35.2433 6.61224ZM33.6717 9.36735L34.0154 9.57222L34.0192 9.56554L33.6717 9.36735ZM27.2332 49.9796L27.062 49.6181L27.2332 50.3796V49.9796ZM32.1508 36.1531L31.7885 36.3225L31.7891 36.3239L32.1508 36.1531ZM28.3992 31.8673H27.9992V32.0825L28.1788 32.2011L28.3992 31.8673ZM28.3992 28.551L28.3781 28.1516L27.9992 28.1716V28.551H28.3992ZM36.6629 19.2653L37.0623 19.2446L37.0622 19.2428L36.6629 19.2653ZM28.3485 10.949H27.9485V11.327L28.326 11.3483L28.3485 10.949ZM17.1952 31.8163L17.4123 32.1523L17.5952 32.0341V31.8163H17.1952ZM14.1027 46.2041L13.7654 46.4192L13.7676 46.4226L14.1027 46.2041ZM18.3612 49.9796V50.3796L18.5324 49.6181L18.3612 49.9796ZM28.3485 27.5306H27.9485V27.9615L28.3783 27.9295L28.3485 27.5306ZM28.3485 11.9694L28.3733 11.5702L27.9485 11.5438V11.9694H28.3485ZM17.9049 32.5816L18.1117 32.9241L18.1199 32.9191L18.1278 32.9138L17.9049 32.5816ZM18.1584 29.9796V29.5796H17.7584V29.9796H18.1584ZM18.2091 28.9592H17.8091V29.3592H18.2091V28.9592ZM18.2091 26.5612V26.1612H17.8091V26.5612H18.2091ZM18.2091 25.5408H17.8091V25.9408H18.2091V25.5408ZM18.2091 23.1429V22.7429H17.8091V23.1429H18.2091ZM18.2091 22.1224H17.8091V22.5224H18.2091V22.1224ZM18.2091 19.7245V19.3245H17.8091V19.7245H18.2091ZM18.2091 18.7041H17.8091V19.1041H18.2091V18.7041ZM18.2091 16.3061V15.9061H17.8091V16.3061H18.2091ZM18.2091 15.2857H17.8091V15.6857H18.2091V15.2857ZM18.2091 12.8878V12.4878H17.8091V12.8878H18.2091ZM18.2091 11.8673H17.8091V12.2673H18.2091V11.8673ZM18.2091 9.46939V9.06939H17.8091V9.46939H18.2091ZM18.2091 8.44898H17.8091V8.84898H18.2091V8.44898ZM27.5881 32.5816L27.3652 32.9138L27.372 32.9184L27.379 32.9226L27.5881 32.5816ZM17.9049 48.6531L17.6908 48.991L17.6959 48.9941L17.9049 48.6531ZM22.7719 43.8653C20.9673 43.8653 19.5217 42.4141 19.5217 40.5918H18.7217C18.7217 42.8512 20.5207 44.6653 22.7719 44.6653V43.8653ZM19.5217 40.5918C19.5217 38.7695 20.9673 37.3184 22.7719 37.3184V36.5184C20.5207 36.5184 18.7217 38.3325 18.7217 40.5918H19.5217ZM22.7719 37.3184C24.5764 37.3184 26.0221 38.7695 26.0221 40.5918H26.8221C26.8221 38.3325 25.0231 36.5184 22.7719 36.5184V37.3184ZM26.0221 40.5918C26.0221 42.4141 24.5764 43.8653 22.7719 43.8653V44.6653C25.0231 44.6653 26.8221 42.8512 26.8221 40.5918H26.0221ZM33.3243 30.2798L34.8959 33.0349L35.5908 32.6385L34.0192 29.8834L33.3243 30.2798ZM34.8998 33.0416C34.9167 33.0699 34.9178 33.0941 34.9107 33.1179C34.9026 33.145 34.88 33.1807 34.8338 33.2086L35.2473 33.8934C35.6597 33.6444 35.8685 33.1042 35.5869 32.6319L34.8998 33.0416ZM34.8608 33.1937C34.8472 33.2005 34.8413 33.2026 34.8408 33.2028C34.8407 33.2028 34.8415 33.2026 34.8431 33.2022C34.8447 33.2017 34.8463 33.2014 34.8476 33.2012C34.8504 33.2007 34.8493 33.2012 34.8397 33.2015C34.8284 33.202 34.8144 33.202 34.7871 33.202V34.002C34.8299 34.002 34.9029 34.0031 34.98 33.9902C35.067 33.9756 35.1436 33.947 35.2204 33.9083L34.8608 33.1937ZM34.7871 33.202C34.7557 33.202 34.7371 33.1949 34.7234 33.1869C34.7079 33.1778 34.6869 33.1601 34.6643 33.126L33.9973 33.5678C34.1597 33.8129 34.4279 34.002 34.7871 34.002V33.202ZM34.681 33.1536L33.1601 30.3985L32.4597 30.7852L33.9806 33.5403L34.681 33.1536ZM33.1535 30.387C33.1366 30.3587 33.1354 30.3345 33.1425 30.3107C33.1506 30.2836 33.1732 30.2479 33.2194 30.22L32.8059 29.5351C32.3935 29.7842 32.1847 30.3243 32.4663 30.7967L33.1535 30.387ZM33.1925 30.2349C33.2015 30.2303 33.2273 30.224 33.2588 30.2323C33.2847 30.2392 33.309 30.2543 33.3282 30.2865L34.0153 29.8768C33.7467 29.4263 33.2069 29.332 32.8329 29.5202L33.1925 30.2349ZM40.5373 27.4628C40.5147 27.4969 40.4936 27.5146 40.4781 27.5237C40.4645 27.5317 40.4458 27.5388 40.4144 27.5388V28.3388C40.7736 28.3388 41.0419 28.1496 41.2042 27.9046L40.5373 27.4628ZM40.4144 27.5388C40.4356 27.5388 40.4528 27.5467 40.4149 27.534C40.3768 27.5212 40.2835 27.4878 40.161 27.4878V28.2878C40.1399 28.2878 40.1226 28.2798 40.1605 28.2925C40.1986 28.3053 40.292 28.3388 40.4144 28.3388V27.5388ZM40.3611 27.5414L37.6234 25.9598L37.2232 26.6525L39.9609 28.2341L40.3611 27.5414ZM37.6301 25.9637C37.6009 25.9461 37.5852 25.9236 37.577 25.8908C37.5675 25.8524 37.5692 25.7976 37.5922 25.7396L36.8488 25.4441C36.6971 25.8258 36.7495 26.3665 37.2166 26.6485L37.6301 25.9637ZM37.5641 25.7967C37.5821 25.7665 37.6043 25.7515 37.635 25.7438C37.6714 25.7346 37.7244 25.736 37.7809 25.7588L38.0797 25.0167C37.6969 24.8626 37.157 24.9174 36.877 25.387L37.5641 25.7967ZM37.7254 25.7313L40.4631 27.364L40.8728 26.6769L38.1352 25.0442L37.7254 25.7313ZM40.4612 27.3628C40.5091 27.3918 40.5325 27.4296 40.5398 27.4527C40.5431 27.4633 40.5418 27.4666 40.5423 27.4629C40.543 27.4581 40.5455 27.4506 40.55 27.4446L41.1915 27.9227C41.5344 27.4625 41.2517 26.9057 40.8747 26.678L40.4612 27.3628ZM42.6 19.7245C42.6 19.7874 42.5808 19.8084 42.5768 19.8124C42.5731 19.8162 42.5535 19.8347 42.493 19.8347V20.6347C42.7368 20.6347 42.9706 20.5511 43.1443 20.3763C43.3178 20.2018 43.4 19.9677 43.4 19.7245H42.6ZM42.493 19.8347H39.3498V20.6347H42.493V19.8347ZM39.3498 19.8347C39.2894 19.8347 39.2698 19.8162 39.266 19.8124C39.262 19.8084 39.2428 19.7874 39.2428 19.7245H38.4428C38.4428 19.9677 38.5251 20.2018 38.6985 20.3763C38.8722 20.5511 39.106 20.6347 39.3498 20.6347V19.8347ZM39.2428 19.7245C39.2428 19.6616 39.262 19.6406 39.266 19.6365C39.2698 19.6327 39.2894 19.6143 39.3498 19.6143V18.8143C39.1061 18.8143 38.8722 18.8979 38.6985 19.0726C38.5251 19.2472 38.4428 19.4813 38.4428 19.7245H39.2428ZM39.3498 19.6143H42.493V18.8143H39.3498V19.6143ZM42.493 19.6143C42.5266 19.6143 42.5492 19.6262 42.5673 19.6457C42.5892 19.6693 42.6 19.7003 42.6 19.7245H43.4C43.4 19.2774 43.046 18.8143 42.493 18.8143V19.6143ZM37.6148 13.6523C37.5979 13.624 37.5968 13.5998 37.6039 13.576C37.6119 13.5489 37.6346 13.5132 37.6808 13.4853L37.2673 12.8004C36.8549 13.0495 36.646 13.5896 36.9277 14.062L37.6148 13.6523ZM37.6741 13.4892L40.4118 11.9076L40.0116 11.2149L37.2739 12.7965L37.6741 13.4892ZM40.4184 11.9036C40.4454 11.8873 40.4673 11.8866 40.4889 11.8931C40.5142 11.9008 40.5496 11.9228 40.5778 11.9701L41.265 11.5605C41.0184 11.1469 40.4787 10.9327 40.0049 11.2188L40.4184 11.9036ZM40.5778 11.9701C40.5947 11.9985 40.5959 12.0227 40.5888 12.0464C40.5807 12.0735 40.5581 12.1093 40.5119 12.1372L40.9254 12.822C41.3378 12.573 41.5466 12.0328 41.265 11.5605L40.5778 11.9701ZM40.5185 12.1332L37.7809 13.7149L38.1811 14.4076L40.9187 12.8259L40.5185 12.1332ZM37.8012 13.7039C37.7876 13.7107 37.7818 13.7128 37.7813 13.713C37.7811 13.713 37.7819 13.7128 37.7835 13.7124C37.7851 13.7119 37.7867 13.7116 37.7881 13.7114C37.7908 13.7109 37.7897 13.7114 37.7802 13.7117C37.7688 13.7122 37.7548 13.7122 37.7275 13.7122V14.5122C37.7703 14.5122 37.8433 14.5133 37.9204 14.5004C38.0074 14.4858 38.084 14.4572 38.1608 14.4185L37.8012 13.7039ZM37.7275 13.7122C37.7099 13.7122 37.6915 13.71 37.6739 13.7056C37.6561 13.7012 37.6422 13.6955 37.6329 13.6904C37.6233 13.6852 37.6224 13.6829 37.6264 13.6872C37.6308 13.6918 37.6426 13.7061 37.6509 13.7314L36.8915 13.9829C36.9587 14.1857 37.1118 14.3179 37.2518 14.3938C37.3954 14.4716 37.5627 14.5122 37.7275 14.5122V13.7122ZM33.1687 9.22901C33.1395 9.21136 33.1239 9.18894 33.1157 9.15612C33.1062 9.11775 33.1079 9.06287 33.1309 9.00489L32.3875 8.7094C32.2358 9.09107 32.2881 9.63181 32.7552 9.91385L33.1687 9.22901ZM33.1066 9.05534L34.6782 6.30024L33.9834 5.90385L32.4117 8.65895L33.1066 9.05534ZM34.6744 6.30688C34.6924 6.27666 34.7145 6.26172 34.7453 6.25398C34.7817 6.24481 34.8346 6.24625 34.8912 6.26902L35.1899 5.5269C34.8072 5.37283 34.2672 5.42756 33.9872 5.8972L34.6744 6.30688ZM34.8338 6.24038C34.863 6.25802 34.8787 6.28045 34.8868 6.31327C34.8964 6.35164 34.8947 6.40652 34.8716 6.4645L35.6151 6.75999C35.7668 6.37832 35.7144 5.83758 35.2473 5.55554L34.8338 6.24038ZM34.8959 6.41405L33.3243 9.16915L34.0192 9.56554L35.5908 6.81044L34.8959 6.41405ZM33.3282 9.16251C33.3101 9.19273 33.288 9.20767 33.2573 9.21541C33.2208 9.22458 33.1679 9.22313 33.1113 9.20037L32.8126 9.94249C33.1953 10.0966 33.7353 10.0418 34.0153 9.57218L33.3282 9.16251ZM40.0089 49.5796H27.2332V50.3796H40.0089V49.5796ZM27.4044 50.3411C32.7774 47.7965 35.0391 41.3326 32.5125 35.9823L31.7891 36.3239C34.1294 41.2797 32.0313 47.2647 27.062 49.6181L27.4044 50.3411ZM32.5132 35.9836C31.6687 34.1777 30.2993 32.6428 28.6197 31.5336L28.1788 32.2011C29.7438 33.2347 31.0107 34.6591 31.7885 36.3225L32.5132 35.9836ZM28.7992 31.8673V28.551H27.9992V31.8673H28.7992ZM28.4204 28.9505C33.4607 28.6835 37.327 24.3593 37.0623 19.2446L36.2634 19.286C36.5057 23.9672 32.9702 27.9083 28.3781 28.1516L28.4204 28.9505ZM37.0622 19.2428C36.7973 14.5505 33.087 10.8162 28.3711 10.5496L28.326 11.3483C32.6341 11.5919 36.0214 15.0005 36.2635 19.2879L37.0622 19.2428ZM28.7485 10.949V6.61224H27.9485V10.949H28.7485ZM28.7485 6.61224C28.7485 3.28149 26.0877 0.6 22.7719 0.6V1.4C25.6411 1.4 27.9485 3.71851 27.9485 6.61224H28.7485ZM22.7719 0.6C19.456 0.6 16.7952 3.28149 16.7952 6.61224H17.5952C17.5952 3.71851 19.9026 1.4 22.7719 1.4V0.6ZM16.7952 6.61224V31.8163H17.5952V6.61224H16.7952ZM16.9781 31.4804C11.9749 34.7134 10.556 41.389 13.7655 46.4192L14.4399 45.9889C11.4643 41.3253 12.783 35.1437 17.4123 32.1523L16.9781 31.4804ZM13.7676 46.4226C14.8695 48.1124 16.3946 49.4908 18.19 50.3411L18.5324 49.6181C16.8804 48.8357 15.4651 47.5611 14.4377 45.9856L13.7676 46.4226ZM18.3612 49.5796H5.53485V50.3796H18.3612V49.5796ZM5.53485 49.5796C5.2911 49.5796 5.05723 49.6632 4.88356 49.838C4.71011 50.0125 4.62788 50.2466 4.62788 50.4898H5.42788C5.42788 50.4269 5.44705 50.4059 5.45104 50.4018C5.45481 50.398 5.47443 50.3796 5.53485 50.3796V49.5796ZM4.62788 50.4898C4.62788 50.733 4.71011 50.9671 4.88356 51.1416C5.05723 51.3164 5.2911 51.4 5.53485 51.4V50.6C5.47443 50.6 5.45481 50.5815 5.45104 50.5778C5.44705 50.5737 5.42788 50.5527 5.42788 50.4898H4.62788ZM5.53485 51.4H40.0089V50.6H5.53485V51.4ZM40.0089 51.4C40.2526 51.4 40.4865 51.3164 40.6602 51.1416C40.8336 50.9671 40.9158 50.733 40.9158 50.4898H40.1158C40.1158 50.5527 40.0967 50.5737 40.0927 50.5778C40.0889 50.5815 40.0693 50.6 40.0089 50.6V51.4ZM40.9158 50.4898C40.9158 50.2466 40.8336 50.0125 40.6602 49.838C40.4865 49.6632 40.2526 49.5796 40.0089 49.5796V50.3796C40.0693 50.3796 40.0889 50.398 40.0927 50.4018C40.0967 50.4059 40.1158 50.4269 40.1158 50.4898H40.9158ZM35.1982 19.7245C35.1982 23.647 32.2172 26.8411 28.3188 27.1317L28.3783 27.9295C32.6928 27.6079 35.9982 24.0673 35.9982 19.7245H35.1982ZM28.7485 27.5306V11.9694H27.9485V27.5306H28.7485ZM28.3237 12.3686C32.2156 12.6104 35.1982 15.8504 35.1982 19.7245H35.9982C35.9982 15.4354 32.6944 11.8386 28.3733 11.5702L28.3237 12.3686ZM13.8436 40.5918C13.8436 37.4618 15.4474 34.5328 18.1117 32.9241L17.6982 32.2392C14.7858 33.9978 13.0436 37.1912 13.0436 40.5918H13.8436ZM18.1278 32.9138C18.3723 32.7498 18.5584 32.4805 18.5584 32.1224H17.7584C17.7584 32.1554 17.751 32.1753 17.7427 32.1897C17.7333 32.2058 17.7156 32.227 17.6821 32.2495L18.1278 32.9138ZM18.5584 32.1224V29.9796H17.7584V32.1224H18.5584ZM18.1584 30.3796H19.5779V29.5796H18.1584V30.3796ZM19.5779 30.3796C19.8217 30.3796 20.0556 30.296 20.2292 30.1212C20.4027 29.9467 20.4849 29.7126 20.4849 29.4694H19.6849C19.6849 29.5323 19.6658 29.5533 19.6618 29.5573C19.658 29.5611 19.6384 29.5796 19.5779 29.5796V30.3796ZM20.4849 29.4694C20.4849 29.2262 20.4027 28.9921 20.2292 28.8175C20.0556 28.6428 19.8217 28.5592 19.5779 28.5592V29.3592C19.6384 29.3592 19.658 29.3776 19.6618 29.3814C19.6658 29.3855 19.6849 29.4065 19.6849 29.4694H20.4849ZM19.5779 28.5592H18.2091V29.3592H19.5779V28.5592ZM18.6091 28.9592V26.5612H17.8091V28.9592H18.6091ZM18.2091 26.9612H20.1863V26.1612H18.2091V26.9612ZM20.1863 26.9612C20.4301 26.9612 20.6639 26.8776 20.8376 26.7029C21.0111 26.5283 21.0933 26.2942 21.0933 26.051H20.2933C20.2933 26.1139 20.2741 26.135 20.2701 26.139C20.2664 26.1428 20.2467 26.1612 20.1863 26.1612V26.9612ZM21.0933 26.051C21.0933 25.8078 21.0111 25.5737 20.8376 25.3992C20.6639 25.2244 20.4301 25.1408 20.1863 25.1408V25.9408C20.2467 25.9408 20.2664 25.9593 20.2701 25.9631C20.2741 25.9671 20.2933 25.9881 20.2933 26.051H21.0933ZM20.1863 25.1408H18.2091V25.9408H20.1863V25.1408ZM18.6091 25.5408V23.1429H17.8091V25.5408H18.6091ZM18.2091 23.5429H19.6286V22.7429H18.2091V23.5429ZM19.6286 23.5429C19.8724 23.5429 20.1063 23.4593 20.2799 23.2845C20.4534 23.1099 20.5356 22.8759 20.5356 22.6327H19.7356C19.7356 22.6956 19.7164 22.7166 19.7125 22.7206C19.7087 22.7244 19.6891 22.7429 19.6286 22.7429V23.5429ZM20.5356 22.6327C20.5356 22.3895 20.4534 22.1554 20.2799 21.9808C20.1063 21.806 19.8724 21.7225 19.6286 21.7225V22.5224C19.6891 22.5224 19.7087 22.5409 19.7125 22.5447C19.7164 22.5487 19.7356 22.5697 19.7356 22.6327H20.5356ZM19.6286 21.7225H18.2091V22.5224H19.6286V21.7225ZM18.6091 22.1224V19.7245H17.8091V22.1224H18.6091ZM18.2091 20.1245H20.1863V19.3245H18.2091V20.1245ZM20.1863 20.1245C20.4301 20.1245 20.6639 20.0409 20.8376 19.8661C21.0111 19.6916 21.0933 19.4575 21.0933 19.2143H20.2933C20.2933 19.2772 20.2741 19.2982 20.2701 19.3022C20.2664 19.306 20.2467 19.3245 20.1863 19.3245V20.1245ZM21.0933 19.2143C21.0933 18.9711 21.0111 18.737 20.8376 18.5624C20.6639 18.3877 20.4301 18.3041 20.1863 18.3041V19.1041C20.2467 19.1041 20.2664 19.1225 20.2701 19.1263C20.2741 19.1304 20.2933 19.1514 20.2933 19.2143H21.0933ZM20.1863 18.3041H18.2091V19.1041H20.1863V18.3041ZM18.6091 18.7041V16.3061H17.8091V18.7041H18.6091ZM18.2091 16.7061H19.6286V15.9061H18.2091V16.7061ZM19.6286 16.7061C19.8724 16.7061 20.1063 16.6225 20.2799 16.4478C20.4534 16.2732 20.5356 16.0391 20.5356 15.7959H19.7356C19.7356 15.8588 19.7164 15.8799 19.7125 15.8839C19.7087 15.8877 19.6891 15.9061 19.6286 15.9061V16.7061ZM20.5356 15.7959C20.5356 15.5527 20.4534 15.3186 20.2799 15.1441C20.1063 14.9693 19.8724 14.8857 19.6286 14.8857V15.6857C19.6891 15.6857 19.7087 15.7042 19.7125 15.708C19.7164 15.712 19.7356 15.733 19.7356 15.7959H20.5356ZM19.6286 14.8857H18.2091V15.6857H19.6286V14.8857ZM18.6091 15.2857V12.8878H17.8091V15.2857H18.6091ZM18.2091 13.2878H20.1863V12.4878H18.2091V13.2878ZM20.1863 13.2878C20.4301 13.2878 20.6639 13.2042 20.8376 13.0294C21.0111 12.8548 21.0933 12.6207 21.0933 12.3776H20.2933C20.2933 12.4405 20.2741 12.4615 20.2701 12.4655C20.2664 12.4693 20.2467 12.4878 20.1863 12.4878V13.2878ZM21.0933 12.3776C21.0933 12.1344 21.0111 11.9003 20.8376 11.7257C20.6639 11.5509 20.4301 11.4673 20.1863 11.4673V12.2673C20.2467 12.2673 20.2664 12.2858 20.2701 12.2896C20.2741 12.2936 20.2933 12.3146 20.2933 12.3776H21.0933ZM20.1863 11.4673H18.2091V12.2673H20.1863V11.4673ZM18.6091 11.8673V9.46939H17.8091V11.8673H18.6091ZM18.2091 9.86939H19.6286V9.06939H18.2091V9.86939ZM19.6286 9.86939C19.8724 9.86939 20.1063 9.7858 20.2799 9.61102C20.4534 9.43647 20.5356 9.20238 20.5356 8.95918H19.7356C19.7356 9.02211 19.7164 9.04312 19.7125 9.04714C19.7087 9.05093 19.6891 9.06939 19.6286 9.06939V9.86939ZM20.5356 8.95918C20.5356 8.71598 20.4534 8.4819 20.2799 8.30734C20.1063 8.13257 19.8724 8.04898 19.6286 8.04898V8.84898C19.6891 8.84898 19.7087 8.86743 19.7125 8.87123C19.7164 8.87525 19.7356 8.89626 19.7356 8.95918H20.5356ZM19.6286 8.04898H18.2091V8.84898H19.6286V8.04898ZM18.6091 8.44898V6.61224H17.8091V8.44898H18.6091ZM18.6091 6.61224C18.6091 4.27974 20.4603 2.42041 22.7719 2.42041V1.62041C20.0137 1.62041 17.8091 3.84271 17.8091 6.61224H18.6091ZM22.7719 2.42041C25.0834 2.42041 26.9346 4.27974 26.9346 6.61224H27.7346C27.7346 3.84271 25.53 1.62041 22.7719 1.62041V2.42041ZM26.9346 6.61224V32.1224H27.7346V6.61224H26.9346ZM26.9346 32.1224C26.9346 32.4805 27.1208 32.7498 27.3652 32.9138L27.8109 32.2495C27.7774 32.227 27.7597 32.2058 27.7504 32.1897C27.742 32.1753 27.7346 32.1554 27.7346 32.1224H26.9346ZM27.379 32.9226C31.603 35.5123 32.9616 41.033 30.3891 45.2827L31.0735 45.6969C33.8749 41.069 32.3945 35.0592 27.7972 32.2406L27.379 32.9226ZM30.3891 45.2827C27.8153 49.5345 22.3328 50.8985 18.114 48.312L17.6959 48.9941C22.2984 51.8158 28.2734 50.3226 31.0735 45.6969L30.3891 45.2827ZM18.119 48.3152C15.4948 46.6524 13.8436 43.7174 13.8436 40.5918H13.0436C13.0436 43.9969 14.8398 47.1844 17.6908 48.9909L18.119 48.3152ZM42.1437 50.4898C42.1437 50.5527 42.1246 50.5737 42.1206 50.5778C42.1168 50.5815 42.0972 50.6 42.0368 50.6V51.4C42.2805 51.4 42.5144 51.3164 42.688 51.1416C42.8615 50.9671 42.9437 50.733 42.9437 50.4898H42.1437ZM42.0368 50.6H41.5805V51.4H42.0368V50.6ZM41.5805 50.6C41.5201 50.6 41.5004 50.5815 41.4967 50.5778C41.4927 50.5737 41.4735 50.5527 41.4735 50.4898H40.6735C40.6735 50.733 40.7557 50.9671 40.9292 51.1416C41.1029 51.3164 41.3367 51.4 41.5805 51.4V50.6ZM41.4735 50.4898C41.4735 50.4269 41.4927 50.4059 41.4967 50.4018C41.5004 50.398 41.5201 50.3796 41.5805 50.3796V49.5796C41.3367 49.5796 41.1029 49.6632 40.9292 49.838C40.7557 50.0125 40.6735 50.2466 40.6735 50.4898H41.4735ZM41.5805 50.3796H42.0368V49.5796H41.5805V50.3796ZM42.0368 50.3796C42.0972 50.3796 42.1168 50.398 42.1206 50.4018C42.1246 50.4059 42.1437 50.4269 42.1437 50.4898H42.9437C42.9437 50.2466 42.8615 50.0125 42.688 49.838C42.5144 49.6632 42.2805 49.5796 42.0368 49.5796V50.3796ZM4.07022 50.4898C4.07022 50.5527 4.05105 50.5737 4.04706 50.5778C4.04329 50.5815 4.02367 50.6 3.96324 50.6V51.4C4.207 51.4 4.44087 51.3164 4.61454 51.1416C4.78798 50.9671 4.87022 50.733 4.87022 50.4898H4.07022ZM3.96324 50.6H3.50697V51.4H3.96324V50.6ZM3.50697 50.6C3.44655 50.6 3.42693 50.5815 3.42316 50.5778C3.41916 50.5737 3.4 50.5527 3.4 50.4898H2.6C2.6 50.733 2.68223 50.9671 2.85568 51.1416C3.02935 51.3164 3.26321 51.4 3.50697 51.4V50.6ZM3.4 50.4898C3.4 50.4269 3.41916 50.4059 3.42316 50.4018C3.42693 50.398 3.44655 50.3796 3.50697 50.3796V49.5796C3.26321 49.5796 3.02935 49.6632 2.85568 49.838C2.68223 50.0125 2.6 50.2466 2.6 50.4898H3.4ZM3.50697 50.3796H3.96324V49.5796H3.50697V50.3796ZM3.96324 50.3796C4.02367 50.3796 4.04329 50.398 4.04706 50.4018C4.05105 50.4059 4.07022 50.4269 4.07022 50.4898H4.87022C4.87022 50.2466 4.78798 50.0125 4.61454 49.838C4.44087 49.6632 4.207 49.5796 3.96324 49.5796V50.3796Z" fill="#192646" mask="url(#path-1-outside-1_53_821)"/>
<path d="M6 34L11.7735 24H0.226497L6 34ZM5 12V25H7V12H5Z" fill="#192646"/>
</svg>
