<!-- Generated by IcoMoon.io -->
<svg version="1.1" xmlns="http://www.w3.org/2000/svg" width="1024" height="1024" viewBox="0 0 1024 1024">
<g id="icomoon-ignore">
</g>
<path fill="#000" d="M948.498 437.285h-70.785c-11.010 0-20.447-9.439-20.447-20.449v-108.534c0-18.876-15.731-34.605-34.605-34.605h-25.168c-11.010 0-20.449-9.439-20.449-20.449s9.439-20.449 20.449-20.449h25.168c42.469 0 75.502 34.605 75.502 75.504v88.084h48.763c18.874 0 34.605-15.729 34.605-34.605v-286.279c0-18.876-15.731-34.605-34.605-34.605h-871.423c-18.876 0-34.605 15.73-34.605 34.605v286.279c0 18.876 15.73 34.605 34.605 34.605h50.335v-88.084c0-42.471 34.605-75.504 75.502-75.504h25.167c11.010 0 20.449 9.439 20.449 20.449s-9.439 20.449-20.449 20.449h-25.167c-18.876 0-34.605 15.729-34.605 34.605v108.534c0 11.010-9.438 20.449-20.448 20.449h-70.783c-40.897 0-75.502-34.605-75.502-75.504v-286.279c0-40.897 34.605-75.502 75.502-75.502h872.996c42.469 0 75.502 34.605 75.502 75.502v286.279c0 40.899-34.605 75.504-75.502 75.504z"></path>
<path fill="#000" d="M564.695 368.073c-4.719 0-11.012-1.573-14.158-6.291-7.864-7.864-7.864-20.447 0-29.886l111.682-111.679c7.864-7.866 20.447-7.866 29.886 0 7.864 7.864 7.864 20.447 0 29.886l-113.254 111.679c-4.719 3.146-9.437 6.291-14.156 6.291z"></path>
<path fill="#000" d="M733.002 265.83c-1.573 0-1.573 0-3.146 0l-58.198-9.437c-9.439-1.573-15.731-7.864-17.304-17.302l-9.437-58.201c-1.573-11.011 6.291-22.022 17.302-23.594s22.022 6.292 23.595 17.303l7.864 42.47 42.471 7.864c11.010 1.573 18.874 12.583 17.302 23.595-1.573 11.010-11.010 17.302-20.449 17.302z"></path>
<path fill="#000" d="M742.439 419.981h-155.724c-11.010 0-20.447-9.439-20.447-20.449s9.437-20.449 20.447-20.449h155.724c11.012 0 20.449 9.439 20.449 20.449 1.573 11.010-7.864 20.449-20.449 20.449z"></path>
<path fill="#000" d="M777.044 467.171c-6.291 0-12.583-3.146-17.302-9.437l-34.605-47.188c-4.721-7.866-4.721-17.304 0-23.595l34.605-47.19c6.291-9.437 18.874-11.010 28.312-4.719s11.012 18.876 4.721 28.314l-25.168 36.178 25.168 36.178c6.291 9.439 4.719 22.022-4.721 28.314-3.146 1.573-6.291 3.146-11.010 3.146z"></path>
<path fill="#000" d="M437.285 419.981h-155.722c-11.012 0-20.449-9.439-20.449-20.449s9.437-20.449 20.449-20.449h155.722c11.012 0 20.449 9.439 20.449 20.449s-9.437 20.449-20.449 20.449z"></path>
<path fill="#000" d="M246.956 467.171c-4.719 0-7.864-1.573-12.583-3.146-9.437-6.291-11.010-18.874-4.719-28.314l25.168-36.178-25.168-36.178c-6.291-9.437-4.719-22.022 4.719-28.314s22.022-4.719 28.314 4.719l34.605 47.19c4.719 7.864 4.719 17.302 0 23.595l-34.605 47.188c-3.146 6.291-9.437 9.437-15.731 9.437z"></path>
<path fill="#000" d="M459.307 366.5c-4.719 0-11.012-1.573-14.158-6.291l-110.107-110.107c-7.864-7.866-7.864-20.449 0-29.886 7.864-7.866 20.449-7.866 29.886 0l110.107 110.107c7.864 7.864 7.864 20.449 0 29.886-6.291 4.719-11.010 6.291-15.729 6.291z"></path>
<path fill="#000" d="M290.998 265.83c-9.437 0-18.876-7.864-20.449-17.302-1.573-11.012 6.294-22.022 17.304-23.595l42.469-7.864 7.866-42.47c1.573-11.011 12.583-18.876 23.593-17.303 11.012 1.573 18.876 12.584 17.304 23.594l-9.437 58.201c-1.575 9.437-7.866 15.729-17.304 17.302l-58.2 9.437c-1.573 0-1.573 0-3.146 0z"></path>
<path fill="#000" d="M512.786 344.48c-11.010 0-20.447-9.439-20.447-20.449v-155.724c0-11.011 9.437-20.448 20.447-20.448 11.012 0 20.449 9.438 20.449 20.448v155.724c0 11.010-9.437 20.449-20.449 20.449z"></path>
<path fill="#000" d="M512.786 188.755c-4.719 0-7.864-1.573-12.583-3.146l-47.19-34.605c-9.437-6.292-11.010-18.876-4.719-28.313s18.876-11.011 28.314-4.719l36.178 25.167 36.178-25.167c9.439-6.292 22.022-4.719 28.314 4.719s4.719 22.022-4.719 28.313l-47.188 34.605c-4.721 1.573-9.439 3.146-12.585 3.146z"></path>
<path fill="#000" d="M264.258 154.151h-243.809c-11.011 0-20.449-9.438-20.449-20.449s9.438-20.448 20.449-20.448h243.809c11.012 0 20.449 9.438 20.449 20.448s-9.437 20.449-20.449 20.449z"></path>
<path fill="#000" d="M1003.551 154.151h-243.808c-11.012 0-20.449-9.438-20.449-20.449s9.437-20.448 20.449-20.448h243.808c11.012 0 20.449 9.438 20.449 20.448s-9.437 20.449-20.449 20.449z"></path>
<path fill="#000" d="M502.231 491.981c-4.1 4.1-14.348 20.5-24.599 38.949-6.15 8.2-10.25 16.4-14.35 26.649-4.1 8.2-6.15 16.4-6.15 24.601 0 30.749 24.601 55.347 55.349 55.347s55.347-24.599 55.347-55.347c0-8.2-2.050-16.4-6.15-24.601-4.1-8.198-8.198-18.448-12.298-26.649-10.25-18.448-20.5-32.799-24.601-38.949-2.048-4.098-8.198-6.148-12.298-6.148s-8.2 2.050-10.25 6.148zM487.883 541.18c8.198-14.35 18.448-30.749 26.649-40.999 8.2 10.25 18.448 26.649 26.649 40.999 4.1 8.2 8.2 14.35 10.25 22.548 2.050 8.2 2.050 14.35 2.050 18.45 0 22.548-18.45 38.949-40.999 38.949-22.551 0-40.999-18.45-40.999-38.949 0-4.1 2.050-10.25 4.1-18.45 4.1-6.15 8.2-14.348 12.3-22.548zM532.98 573.979c-4.1 0-8.2 4.1-8.2 8.2 0 6.15-6.148 12.298-12.298 12.298-4.1 0-8.2 4.1-8.2 8.2s4.1 8.2 8.2 8.2c14.348 0 28.699-12.3 28.699-26.649 0-6.15-2.050-10.25-8.2-10.25z"></path>
<path fill="#000" d="M514.531 641.626c-32.799 0-59.447-26.649-59.447-59.447 0-6.15 2.048-16.4 6.148-26.649 4.1-8.2 8.2-18.45 14.35-26.651 12.3-20.498 22.548-36.899 24.599-38.949 4.1-4.098 8.2-8.198 14.35-8.198s12.298 2.050 14.348 8.198c2.050 2.050 14.35 18.45 24.601 38.949 6.148 10.25 10.248 18.45 14.348 26.651 4.1 10.248 6.15 20.498 6.15 26.649 0 32.799-26.649 59.447-59.447 59.447zM504.281 494.031c-2.050 4.1-14.35 18.45-24.599 38.949-6.15 10.25-10.25 18.45-12.3 26.649-4.1 8.2-6.15 16.4-6.15 22.551 0 28.699 24.601 53.297 53.299 53.297s53.297-24.599 53.297-53.297c0-6.15-2.050-14.35-6.15-24.601-4.1-8.198-8.198-16.398-12.298-26.649-10.25-18.448-22.551-34.849-24.601-36.899-6.148-6.148-16.398-6.148-20.498 0zM514.531 625.226c-24.601 0-43.049-18.448-43.049-43.047 0-4.1 2.050-10.25 4.1-18.45 2.050-6.15 6.15-14.348 10.25-22.548 6.148-12.3 16.398-28.699 26.649-40.999l2.050-4.1 2.050 4.1c4.1 6.15 16.398 22.551 26.649 40.999 4.1 8.2 8.2 16.398 10.25 22.548 2.050 8.2 4.098 14.35 4.098 18.45 0 22.548-20.498 43.047-43.047 43.047zM514.531 506.331c-8.2 12.3-16.4 24.599-22.551 36.899-4.098 8.2-8.198 16.398-10.248 22.548s-4.1 12.3-4.1 16.4c0 20.498 16.398 36.899 36.899 36.899 20.498 0 36.899-16.4 36.899-36.899 0-4.1-2.050-10.25-4.1-16.4s-6.15-14.348-10.25-22.548c-8.2-14.35-18.448-28.699-22.548-36.899zM514.531 612.927c-6.15 0-10.25-4.1-10.25-10.25s4.1-10.25 10.25-10.25c4.1 0 8.2-4.098 8.2-8.198 0-6.15 4.098-10.25 10.248-10.25s10.25 4.1 10.25 10.25c2.050 14.348-12.3 28.699-28.699 28.699zM532.98 578.079c-2.050 0-4.1 2.050-4.1 4.1 0 8.198-6.148 14.348-14.348 14.348-2.050 0-4.1 2.050-4.1 4.1s2.050 4.1 4.1 4.1c14.348 0 24.599-10.25 24.599-24.599 0 0-2.050-2.050-6.15-2.050z"></path>
<path fill="#000" d="M416.135 655.976c-4.1 4.098-14.35 20.498-24.601 38.947-4.098 8.2-10.248 18.45-12.298 26.651-4.1 8.198-6.15 18.448-6.15 24.599 0 30.749 24.599 55.347 55.347 55.347s55.349-24.599 55.349-55.347c0-8.2-2.050-16.4-6.15-24.599s-8.2-18.45-12.3-26.651c-8.2-18.448-18.448-32.799-22.548-38.947-4.1-4.1-8.2-6.15-12.3-6.15-6.15 0-10.248 2.050-14.348 6.15zM403.835 707.224c8.2-14.35 18.448-30.749 26.649-40.999 8.2 10.25 18.45 26.649 26.649 40.999 4.1 8.2 8.2 14.35 10.25 22.548 2.050 6.15 4.1 12.3 4.1 18.45 0 22.548-18.448 38.949-40.999 38.949-22.548 0-40.999-18.45-40.999-38.949 0-4.1 2.050-10.25 4.1-18.45 2.050-8.198 6.15-14.348 10.25-22.548zM448.934 740.022c-4.1 0-8.2 4.1-8.2 8.2 0 6.15-4.1 10.25-10.25 10.25-4.1 0-8.2 4.098-8.2 8.198s4.1 8.2 8.2 8.2c14.35 0 28.699-12.3 28.699-26.649-2.050-6.15-4.098-8.2-10.248-8.2z"></path>
<path fill="#000" d="M430.483 805.62c-32.799 0-59.447-26.649-59.447-59.447 0-6.15 2.050-16.4 6.15-26.649 4.1-8.2 8.2-18.45 14.348-26.651 10.25-20.498 22.551-36.897 24.601-38.947v2.050l-2.050-2.050c4.1-4.1 10.248-6.15 16.398-6.15s12.3 2.050 14.35 8.2c2.050 0 12.298 16.398 24.599 36.897 6.15 10.25 10.25 18.45 14.35 26.651 4.1 10.248 6.148 18.448 6.148 26.649-2.048 32.799-26.649 59.447-59.447 59.447zM430.483 653.926c-4.1 0-8.2 2.050-10.248 4.098 0 2.050-12.3 18.45-24.601 36.899-6.15 10.25-10.248 18.45-12.298 26.651-4.1 10.248-6.15 18.448-6.15 24.599 0 30.749 22.548 53.297 53.297 53.297 28.699 0 53.299-24.599 53.299-53.297 0-6.15-2.050-14.35-6.15-24.599-4.1-8.2-8.2-16.4-12.3-26.651-10.248-20.498-22.548-36.899-24.599-36.899-2.050-2.048-6.15-4.098-10.25-4.098zM430.483 789.221c-24.599 0-43.047-18.45-43.047-43.049 0-4.1 2.048-10.25 4.098-18.45 2.050-6.148 6.15-14.348 10.25-22.548 6.15-12.3 16.4-28.699 26.649-40.999l2.050-4.1 2.050 4.1c4.1 6.15 16.4 22.551 26.649 40.999 4.1 8.2 8.2 16.4 10.25 22.548 2.050 8.2 4.1 14.35 4.1 18.45 0 24.599-20.498 43.049-43.049 43.049zM405.885 707.224c-4.1 8.2-8.2 16.4-10.25 22.548-2.050 6.15-4.1 12.3-4.1 16.4 0 20.498 16.4 36.899 36.899 36.899s36.899-16.4 36.899-36.899c0-4.1-2.050-10.25-4.1-16.4-2.050-6.148-6.148-14.348-10.248-22.548-6.15-14.35-16.4-28.699-20.5-36.899-8.2 12.3-16.398 26.649-24.599 36.899zM430.483 776.921c-6.15 0-10.248-4.1-10.248-10.25s4.098-10.248 10.248-10.248c4.1 0 8.2-4.1 8.2-8.2 0-6.15 4.1-10.25 10.25-10.25s10.248 4.1 10.248 10.25c2.050 16.398-12.298 28.699-28.699 28.699zM448.934 742.072c-2.050 0-4.1 2.050-4.1 4.1 0 8.2-6.15 14.348-14.35 14.348-2.050 0-4.1 2.050-4.1 4.1s2.050 4.1 4.1 4.1c14.35 0 24.601-10.248 24.601-24.599 0 0-2.050-2.050-6.15-2.050z"></path>
<path fill="#000" d="M600.627 655.976c-4.1 4.098-14.348 20.498-24.599 38.947-4.1 8.2-10.25 18.45-12.3 26.651-4.1 8.198-6.15 18.448-6.15 24.599 0 30.749 24.601 55.347 55.349 55.347s55.347-24.599 55.347-55.347c0-8.2-2.050-16.4-6.15-24.599s-8.198-18.45-12.298-26.651c-10.25-18.448-20.5-32.799-24.601-38.947-2.048-4.1-8.198-6.15-12.298-6.15s-10.25 2.050-12.3 6.15zM586.279 707.224c8.198-14.35 18.448-30.749 26.649-40.999 8.2 10.25 18.448 26.649 26.649 40.999 4.1 8.2 8.2 14.35 10.25 22.548 2.050 6.15 4.1 12.3 4.1 18.45 0 22.548-18.45 38.949-40.999 38.949-22.551 0-40.999-18.45-40.999-38.949 0-4.1 2.050-10.25 4.1-18.45 2.050-8.198 6.15-14.348 10.25-22.548zM633.426 740.022c-4.1 0-8.2 4.1-8.2 8.2 0 6.15-6.148 12.298-12.298 12.298-4.1 0-8.2 4.1-8.2 8.2s4.1 8.2 8.2 8.2c14.348 0 28.699-12.3 28.699-26.649-2.050-8.2-4.1-10.25-8.2-10.25z"></path>
<path fill="#000" d="M612.927 805.62c-32.799 0-59.447-26.649-59.447-59.447 0-6.15 2.050-16.4 6.148-26.649 4.1-8.2 8.2-18.45 14.35-26.651 10.25-20.498 22.548-36.897 24.599-38.947 4.1-4.1 8.2-8.2 14.35-8.2s12.298 2.050 14.348 8.2c4.1 6.148 14.35 22.548 24.601 38.947 6.148 10.25 10.248 18.45 14.348 26.651 4.1 10.248 6.15 18.448 6.15 26.649 0 32.799-26.649 59.447-59.447 59.447zM612.927 653.926c-4.1 0-8.2 2.050-10.25 4.098 0 2.050-12.298 18.45-24.599 36.899-6.15 10.25-10.25 18.45-12.3 26.651-4.1 10.248-6.15 18.448-6.15 24.599 0 28.699 24.601 53.297 53.299 53.297s53.297-24.599 53.297-53.297c0-6.15-2.050-14.35-6.15-24.599-4.098-8.2-8.198-16.4-12.298-26.651-8.2-16.398-20.5-30.749-24.599-36.899-2.050-2.048-6.15-4.098-10.25-4.098zM612.927 789.221c-24.599 0-43.049-18.45-43.049-43.049 0-4.1 2.050-10.25 4.1-18.45 2.050-6.148 6.15-14.348 10.25-22.548 6.15-12.3 16.398-28.699 26.649-40.999l2.050-4.1 2.050 4.1c4.1 6.15 16.398 22.551 26.649 40.999 4.1 8.2 8.2 16.4 10.25 22.548 2.050 8.2 4.1 14.35 4.1 18.45 0 24.599-20.5 43.049-43.049 43.049zM590.377 707.224c-4.098 8.2-8.198 16.4-10.248 22.548-2.050 6.15-4.1 12.3-4.1 16.4 0 20.498 16.398 36.899 36.899 36.899 20.498 0 36.899-16.4 36.899-36.899 0-4.1-2.050-10.25-4.1-16.4-2.050-6.148-6.15-14.348-10.25-22.548-8.2-16.398-18.448-28.699-22.548-36.899-8.2 12.3-16.4 26.649-22.551 36.899zM612.927 776.921c-6.15 0-10.25-4.1-10.25-10.25s4.1-10.248 10.25-10.248c4.1 0 8.2-4.1 8.2-8.2 0-6.15 4.098-10.25 10.248-10.25s10.25 4.1 10.25 10.25c2.050 16.398-12.3 28.699-28.699 28.699zM633.426 742.072c-2.050 0-4.1 2.050-4.1 4.1 0 8.2-6.148 14.348-14.348 14.348-2.050 0-4.1 2.050-4.1 4.1s2.050 4.1 4.1 4.1c14.348 0 24.599-10.248 24.599-24.599-2.050 0-4.1-2.050-6.15-2.050z"></path>
<path fill="#000" d="M680.575 491.981c-4.1 4.1-14.35 20.5-24.599 38.949-4.1 8.2-10.25 18.45-12.3 26.649-4.1 8.2-6.15 18.45-6.15 24.601 0 30.749 24.599 55.347 55.347 55.347 30.751 0 55.349-24.599 55.349-55.347 0-8.2-2.050-16.4-6.15-24.601-4.1-8.198-8.2-18.448-12.3-26.649-10.248-18.448-20.498-32.799-24.599-38.949-2.050-4.098-8.2-6.148-12.3-6.148-4.098 0-10.248 2.050-12.298 6.148zM668.275 541.18c8.2-14.35 18.45-30.749 26.649-40.999 8.2 10.25 18.45 26.649 26.651 40.999 4.1 8.2 8.198 14.35 10.248 22.548 2.050 6.15 4.1 12.3 4.1 18.45 0 22.548-18.448 38.949-40.999 38.949-22.548 0-40.997-18.45-40.997-38.949 0-4.1 2.050-10.25 4.098-18.45 2.050-6.15 6.15-14.348 10.25-22.548zM713.374 573.979c-4.1 0-8.2 4.1-8.2 8.2 0 6.15-6.15 12.298-12.3 12.298-4.098 0-8.198 4.1-8.198 8.2s4.1 8.2 8.198 8.2c14.35 0 28.701-12.3 28.701-26.649 0-6.15-4.1-10.25-8.2-10.25z"></path>
<path fill="#000" d="M692.873 641.626c-32.799 0-59.447-26.649-59.447-59.447 0-6.15 2.050-16.4 6.15-26.649 4.1-8.2 8.2-18.45 14.35-28.701 8.198-14.348 18.448-28.699 22.548-36.899 4.1-4.098 8.2-8.198 14.35-8.198 6.148 0 12.298 2.050 14.348 8.198 2.050 2.050 12.3 18.45 24.599 38.949 6.15 10.25 10.25 20.5 14.35 26.651 4.1 10.248 6.15 18.448 6.15 26.649 2.050 32.799-24.599 59.447-57.399 59.447zM682.625 494.031c-4.1 6.15-14.35 22.551-24.601 38.949-6.148 10.25-10.248 18.45-12.298 26.649-4.1 10.25-6.15 18.45-6.15 24.601 0 28.699 24.599 53.297 53.297 53.297 28.701 0 53.299-24.599 53.299-53.297 0-6.15-2.050-14.35-6.15-24.601-2.050-8.198-8.2-16.398-12.3-26.649-10.248-20.498-22.548-36.899-24.599-36.899-4.1-8.198-14.348-8.198-20.498-2.050zM692.873 625.226c-24.599 0-43.047-18.448-43.047-43.047 0-4.1 2.050-10.25 4.1-18.45 2.050-6.15 6.148-14.348 10.248-22.548 6.15-12.3 16.4-28.699 26.651-40.999l2.048-4.1 2.050 4.1c4.1 6.15 16.4 22.551 26.651 40.999 4.1 8.2 8.198 16.398 10.248 22.548 2.050 8.2 4.1 14.35 4.1 18.45 0 22.548-18.448 43.047-43.049 43.047zM670.325 543.23c-4.1 8.2-8.2 16.398-10.25 22.548s-4.098 12.3-4.098 16.4c0 20.498 16.398 36.899 36.897 36.899s36.899-16.4 36.899-36.899c0-4.1-2.050-10.25-4.098-16.4-2.050-6.15-6.15-14.348-10.25-22.548-8.2-16.4-18.45-28.699-22.551-36.899-8.198 12.3-16.398 24.599-22.548 36.899zM692.873 612.927c-6.148 0-10.248-4.1-10.248-10.25s4.1-10.25 10.248-10.25c4.1 0 8.2-4.098 8.2-8.198 0-6.15 4.1-10.25 10.25-10.25s10.25 4.1 10.25 10.25c2.050 14.348-12.3 28.699-28.701 28.699zM713.374 578.079c-2.050 0-4.1 2.050-4.1 4.1 0 8.198-6.15 14.348-14.35 14.348-2.050 0-4.098 2.050-4.098 4.1s2.048 4.1 4.098 4.1c14.35 0 24.601-10.25 24.601-24.599-2.050 0-4.1-2.050-6.15-2.050z"></path>
<path fill="#000" d="M325.937 491.981c-4.1 4.1-14.348 20.5-24.599 38.949-4.1 8.2-10.25 16.4-12.3 26.649-4.098 8.2-6.148 16.4-6.148 24.601 0 30.749 24.599 55.347 55.347 55.347s55.347-24.599 55.347-55.347c0-8.2-2.050-16.4-4.1-24.601-4.098-10.248-10.248-18.448-14.348-28.699-10.25-16.398-20.5-32.799-24.599-36.899-2.050-4.098-8.2-6.148-12.3-6.148s-10.25 2.050-12.3 6.148zM311.589 541.18c8.2-14.35 18.448-30.749 26.649-40.999 8.2 10.25 18.448 26.649 26.649 40.999 4.1 8.2 6.15 16.398 10.25 22.548 2.050 6.15 4.1 12.3 4.1 18.45 0 22.548-18.45 38.949-40.999 38.949s-40.999-18.45-40.999-38.949c0-4.1 2.050-10.25 4.1-18.45 4.1-6.15 6.15-14.348 10.25-22.548zM358.736 573.979c-4.1 0-8.198 4.1-8.198 8.2 0 6.15-6.15 12.298-12.3 12.298-4.1 0-8.2 4.1-8.2 8.2s4.1 8.2 8.2 8.2c14.35 0 28.699-12.3 28.699-26.649 0-6.15-4.1-10.25-8.2-10.25z"></path>
<path fill="#000" d="M338.237 641.626c-32.799 0-59.447-26.649-59.447-59.447 0-6.15 2.050-16.4 6.15-26.649 4.098-8.2 8.198-18.45 14.348-26.651 12.3-20.498 22.548-36.899 24.599-38.949 4.1-4.098 8.2-8.198 14.35-8.198s12.3 2.050 14.35 8.198c2.048 2.050 14.348 18.45 24.599 38.949 6.15 10.25 10.25 18.45 14.348 26.651 4.1 10.248 6.15 18.448 6.15 26.649 0 32.799-26.649 59.447-59.447 59.447zM338.237 487.883c-4.1 0-8.2 2.048-10.25 6.148 0 2.050-12.298 18.45-24.599 36.899-4.1 10.25-10.25 20.5-12.3 26.649-4.1 10.25-6.148 18.45-6.148 24.601 0 28.699 24.599 53.297 53.297 53.297s53.297-24.599 53.297-53.297c0-6.15-2.050-14.35-6.148-24.601-2.050-8.198-8.2-16.398-12.3-26.649-12.3-18.448-22.548-34.849-24.599-36.899-2.050-4.1-6.15-6.148-10.25-6.148zM338.237 625.226c-24.599 0-43.049-18.448-43.049-43.047 0-4.1 2.050-10.25 4.1-18.45 2.050-6.15 6.15-14.348 10.25-22.548 6.15-14.35 16.398-28.699 26.649-40.999l2.050-4.1 2.050 4.1c4.1 6.15 16.398 22.551 26.649 40.999 4.1 8.2 8.2 16.398 10.25 22.548 2.050 8.2 4.1 14.35 4.1 18.45 0 22.548-18.45 43.047-43.049 43.047zM315.689 543.23c-4.1 8.2-8.2 16.398-10.25 22.548s-4.1 12.3-4.1 16.4c0 20.498 16.4 36.899 36.899 36.899s36.899-16.4 36.899-36.899c0-4.1-2.050-10.25-4.1-16.4s-6.15-14.348-10.25-22.548c-8.198-14.35-16.398-28.699-22.548-36.899-8.2 12.3-16.4 24.599-22.548 36.899zM338.237 612.927c-6.15 0-10.25-4.1-10.25-10.25s4.1-10.25 10.25-10.25c4.1 0 8.2-4.098 8.2-8.198 0-6.15 4.1-10.25 10.248-10.25 8.2-2.050 12.3 2.050 12.3 8.2 0 16.398-14.35 30.749-30.749 30.749zM358.736 578.079c-2.050 0-4.1 2.050-4.1 4.1 0 8.198-6.148 14.348-14.348 14.348-2.050 0-4.1 2.050-4.1 4.1s2.050 4.1 4.1 4.1c14.348 0 24.599-10.25 24.599-24.599-2.050 0-4.1-2.050-6.15-2.050z"></path>
</svg>
