<!-- Generated by IcoMoon.io -->
<svg version="1.1" xmlns="http://www.w3.org/2000/svg" width="1024" height="1024" viewBox="0 0 1024 1024">
<g id="icomoon-ignore">
</g>
<path fill="#000" d="M948.498 437.285h-70.785c-11.010 0-20.447-9.439-20.447-20.449v-108.534c0-18.876-15.731-34.605-34.605-34.605h-25.168c-11.010 0-20.449-9.439-20.449-20.449s9.439-20.449 20.449-20.449h25.168c42.469 0 75.502 34.605 75.502 75.504v88.084h48.763c18.874 0 34.605-15.729 34.605-34.605v-286.279c0-18.876-15.731-34.605-34.605-34.605h-871.423c-18.876 0-34.605 15.73-34.605 34.605v286.279c0 18.876 15.73 34.605 34.605 34.605h50.335v-88.084c0-42.471 34.605-75.504 75.502-75.504h25.167c11.010 0 20.449 9.439 20.449 20.449s-9.439 20.449-20.449 20.449h-25.167c-18.876 0-34.605 15.729-34.605 34.605v108.534c0 11.010-9.438 20.449-20.448 20.449h-70.783c-40.897 0-75.502-34.605-75.502-75.504v-286.279c0-40.897 34.605-75.502 75.502-75.502h872.996c42.469 0 75.502 34.605 75.502 75.502v286.279c0 40.899-34.605 75.504-75.502 75.504z"></path>
<path fill="#000" d="M264.258 154.151h-243.809c-11.011 0-20.449-9.438-20.449-20.448s9.438-20.449 20.449-20.449h243.809c11.012 0 20.449 9.438 20.449 20.449s-9.437 20.448-20.449 20.448z"></path>
<path fill="#000" d="M1003.551 154.151h-243.808c-11.012 0-20.449-9.438-20.449-20.448s9.437-20.449 20.449-20.449h243.808c11.012 0 20.449 9.438 20.449 20.449s-9.437 20.448-20.449 20.448z"></path>
<path fill="#000" d="M408.566 336.853c-4.964-6.535-13.24-9.802-21.514-9.802-8.276 0-16.55 3.267-21.514 9.802-8.276 11.432-31.445 45.734-52.959 84.935-11.583 19.599-21.514 40.835-29.788 60.434-8.276 19.601-13.24 37.569-13.24 53.901 0 65.335 52.959 117.602 117.502 117.602s117.502-52.267 117.502-117.602c0-16.333-4.966-34.3-13.24-53.901-8.274-19.599-18.205-40.835-29.788-60.434-21.516-39.201-44.685-73.503-52.959-84.935zM752.796 492.022c0-14.701-4.964-31.033-11.586-47.366-6.619-17.967-16.55-35.934-26.479-53.901-19.859-34.302-39.719-65.335-47.993-75.137-4.966-6.533-13.24-9.8-19.859-9.8-8.276 0-14.895 3.267-19.859 9.8-6.621 9.802-28.135 40.835-47.995 75.137-9.929 17.967-18.205 35.934-26.479 53.901-6.619 17.967-11.586 34.3-11.586 47.366 0 57.17 46.34 104.536 104.264 104.536 57.922 0 107.571-47.366 107.571-104.536zM645.224 327.051c0-1.632 1.655-1.632 3.31-1.632s3.31 0 3.31 1.632c14.895 21.234 34.755 52.269 51.302 83.302 8.276 14.701 14.895 31.033 19.859 44.102 4.966 14.701 8.276 26.135 8.276 35.934 0 45.734-36.409 83.302-82.747 83.302-46.34 0-84.402-37.569-84.402-83.302 0-9.8 3.31-22.868 8.274-35.934 4.964-14.701 13.24-29.401 19.859-44.102 16.55-31.033 38.064-62.069 52.959-83.302zM708.112 492.022c0-4.899-4.966-9.8-9.931-9.8-6.619 0-9.929 4.901-9.929 9.8 0 21.234-18.205 39.203-39.719 39.203-6.621 0-9.931 4.899-9.931 9.8 0 6.533 4.964 9.8 9.931 9.8 33.098 0 59.578-26.135 59.578-58.802zM492.968 134.314c-6.619 8.167-23.169 32.667-38.064 60.435-8.274 14.701-14.895 29.401-21.514 42.467-4.964 14.701-9.929 27.769-9.929 39.201 0 47.368 38.064 86.569 86.057 86.569s86.057-39.201 86.057-86.569c0-11.432-3.31-24.5-9.929-39.201-4.966-14.701-13.24-29.401-21.514-42.467-14.895-27.767-33.1-52.268-38.064-60.435-4.966-11.434-23.169-11.434-33.1 0zM509.518 145.747c1.655 0 1.655 0 0 0 1.655 0 1.655 0 1.655 0 11.586 16.334 28.133 42.468 41.374 66.968 6.619 13.066 13.24 24.5 16.55 35.934 4.964 11.434 6.619 21.234 6.619 29.401 0 35.934-29.788 65.335-66.198 65.335s-66.198-29.401-66.198-65.335c0-8.167 1.655-17.967 6.619-29.401s9.929-22.868 16.55-35.934c14.895-26.134 31.443-50.635 43.028-66.968zM387.052 632.492c-52.959 0-97.642-44.1-97.642-96.369 0-13.066 4.964-31.033 13.24-50.635 8.274-19.599 18.205-39.201 29.788-58.8 19.859-35.934 41.374-66.97 47.995-76.769l1.655-1.634c1.655-1.632 3.31-3.267 4.964-3.267s3.31 1.634 4.964 3.267c4.964 6.535 28.135 39.201 49.65 78.404 11.583 19.599 21.514 39.201 29.788 58.8 8.274 19.601 13.24 37.569 13.24 50.635-1.655 52.269-44.685 96.369-97.642 96.369zM375.466 598.192c0 6.533 4.966 9.8 9.931 9.8 39.719 0 72.817-32.668 72.817-71.868 0-6.533-4.964-9.8-9.929-9.8-6.619 0-9.931 4.901-9.931 9.8 0 29.401-23.169 52.269-52.957 52.269-4.964 0-9.931 4.899-9.931 9.8zM542.618 266.617c-6.621 0-9.931 4.901-9.931 9.8 0 11.434-9.929 21.234-21.514 21.234-6.619 0-9.931 4.901-9.931 9.802 0 6.533 4.966 9.8 9.931 9.8 23.169 0 41.374-17.967 41.374-40.835 0-4.899-3.31-9.8-9.929-9.8z"></path>
<path fill="#000" d="M387.052 655.36c-66.198 0-120.812-53.901-120.812-119.237 0-14.701 4.964-32.668 13.24-55.534 6.619-17.967 16.548-37.569 29.788-60.436 21.514-39.201 44.683-71.868 54.614-84.935 3.31-8.167 13.238-11.434 21.514-11.434 9.929 0 18.205 4.901 24.824 11.434 6.619 9.8 31.445 45.734 54.614 84.935 13.238 22.868 21.514 42.469 29.788 60.436 8.276 22.866 13.24 40.833 13.24 55.534-1.655 65.335-54.614 119.237-120.812 119.237zM385.397 328.686c-8.276 0-14.895 3.267-19.859 9.8-8.276 13.066-31.445 45.734-52.959 84.935-11.583 22.868-21.514 42.469-29.788 60.436-6.621 19.599-11.586 37.566-11.586 52.267 0 63.701 51.304 114.336 115.847 114.336 62.888 0 115.847-50.635 115.847-114.336 0-14.701-4.966-32.668-13.24-53.901-6.619-17.967-16.55-37.566-29.79-60.434-21.514-39.201-46.338-75.135-52.957-84.935-4.964-4.901-13.24-8.167-21.514-8.167zM387.052 635.759c-54.614 0-99.297-44.1-99.297-99.635 0-13.066 4.964-31.033 13.24-52.267 6.619-17.967 16.55-37.569 29.788-58.802 18.205-35.934 39.719-66.968 46.338-76.769l1.655-1.632c1.657-1.634 4.966-3.267 6.621-3.267 3.31 0 4.964 1.632 6.619 3.267 4.964 6.533 28.135 39.201 49.65 78.402 13.238 21.234 23.169 42.467 29.788 58.802 8.274 21.234 13.24 39.201 13.24 52.267 1.655 53.901-43.028 99.635-97.642 99.635zM387.052 348.285c-1.655 0-1.655 0-3.31 1.634l-1.655 1.632c-6.621 9.802-28.135 40.835-47.995 76.769-13.238 21.234-23.169 40.835-29.788 57.168-8.276 21.234-13.24 37.569-13.24 50.635 0 52.269 43.028 94.736 94.333 94.736 52.957 0 94.331-42.467 94.331-94.736 0-13.066-4.964-29.401-13.238-50.635-6.621-16.333-16.55-37.566-29.79-58.8-21.514-39.203-44.683-71.868-49.648-76.769 1.655-1.634 0-1.634 0-1.634zM387.052 611.258c-6.619 0-13.24-4.899-13.24-13.066 0-6.533 4.964-11.434 11.586-11.434 28.133 0 49.648-22.868 49.648-50.635 0-6.533 4.964-13.066 13.24-13.066 6.619 0 13.24 4.899 13.24 13.066 0 40.835-33.1 75.135-74.473 75.135zM448.285 527.956c-4.964 0-8.276 3.269-8.276 8.167 0 31.035-24.824 55.536-54.612 55.536-3.31 0-6.621 3.267-6.621 6.533 0 4.901 3.312 8.167 8.276 8.167 38.064 0 69.507-31.035 69.507-70.236 0-4.899-3.31-8.167-8.274-8.167zM648.534 598.192c-59.578 0-107.573-47.368-107.573-106.17 0-13.066 3.312-29.399 11.586-49 6.619-16.333 14.895-34.3 26.479-53.901 21.514-37.569 43.028-68.602 47.995-75.135 4.964-6.533 13.238-11.434 21.514-11.434 9.929 0 18.205 4.901 23.169 11.434 23.169 32.668 38.064 58.802 47.993 75.135 11.586 19.601 19.859 37.569 26.479 53.901 8.276 19.601 11.586 35.934 11.586 49-1.655 58.802-49.648 106.17-109.226 106.17zM648.534 307.452c-8.276 0-14.895 3.267-18.205 9.8-3.31 3.267-26.481 35.934-47.995 75.135-11.583 19.601-19.859 37.569-24.824 52.269-6.619 19.599-11.583 34.3-11.583 47.366 0 55.536 46.338 101.27 102.607 101.27 56.267 0 102.607-45.734 102.607-101.27 0-13.066-3.31-27.767-11.586-47.366-6.619-16.335-14.895-32.668-24.824-52.269-8.276-16.333-24.824-42.467-46.338-75.135-4.966-6.533-11.586-9.8-19.859-9.8zM648.534 578.591c-47.995 0-87.714-39.201-87.714-86.569 0-9.8 3.312-22.866 8.276-37.566 4.964-13.068 11.583-27.767 21.514-45.734 19.859-37.569 43.028-70.236 51.302-83.302 1.655-3.267 8.276-3.267 11.586 0 8.274 13.066 31.443 45.734 51.302 83.302 8.276 16.333 16.55 32.666 21.514 45.734 4.966 14.701 8.276 27.767 8.276 37.566 0 22.868-8.276 44.102-24.824 62.069-16.55 14.701-38.064 24.5-61.233 24.5zM645.224 327.051l1.655 1.634c-8.276 13.066-31.445 45.734-51.304 83.302-8.274 16.333-14.895 31.033-19.859 44.1-4.964 14.701-8.274 26.135-8.274 35.934 0 45.736 36.407 81.67 82.747 81.67 21.514 0 41.374-8.167 57.924-24.5 14.893-14.701 23.169-35.936 23.169-57.17 0-9.8-3.31-21.234-8.276-35.934-4.964-13.066-11.583-27.767-19.859-44.1-19.859-37.569-43.028-70.236-51.302-83.302h-3.31l-3.31-1.634zM648.534 554.090c-6.621 0-13.24-4.899-13.24-13.066s4.964-13.068 13.24-13.068c19.859 0 36.407-16.333 36.407-37.566 0-6.533 4.966-13.068 13.24-13.068 6.619 0 11.586 4.901 13.24 11.434 0 37.569-28.135 65.335-62.888 65.335zM698.182 483.856c-4.964 0-8.274 3.267-8.274 8.165 0 22.868-18.205 42.469-41.374 42.469-4.966 0-8.276 3.267-8.276 8.165 0 4.901 3.31 8.167 8.276 8.167 31.443 0 57.922-26.135 57.922-57.168 0-6.533-3.31-9.8-8.274-9.8zM511.173 366.252c-49.648 0-89.367-39.201-89.367-88.201 0-11.434 3.31-24.5 9.929-39.201 4.964-14.701 11.586-29.401 21.514-45.735 14.895-26.134 31.445-50.635 38.064-60.435 4.964-6.534 13.24-9.8 21.514-9.8s14.895 3.267 19.859 9.8c1.655 3.267 19.859 29.401 38.064 60.435 8.274 16.334 16.55 31.034 21.514 44.101 6.619 16.335 9.929 29.401 9.929 40.835-1.655 47.368-41.374 86.569-91.021 88.201zM511.173 127.78c-6.619 0-13.24 3.267-16.55 8.167-6.619 9.8-23.169 34.301-38.064 60.435-8.274 16.334-16.55 29.4-19.859 42.468-6.619 14.701-8.274 27.767-8.274 37.566 0 45.736 38.064 83.302 84.402 83.302s84.402-37.566 84.402-83.302c0-9.8-3.31-22.866-8.274-39.201-4.964-13.066-11.586-27.767-19.859-42.467-18.205-31.034-36.409-57.168-38.064-60.435-6.619-3.267-13.24-6.534-19.859-6.534zM511.173 345.018c-38.064 0-67.852-31.033-67.852-68.602 0-8.165 1.655-17.967 6.619-29.401 3.31-9.8 9.929-22.866 16.55-35.934 11.583-21.233 26.479-47.367 41.374-66.967l1.655-1.633h1.655l3.31 1.633c14.895 21.234 29.79 45.735 41.374 66.967 6.619 13.068 13.24 26.135 16.55 35.934 4.964 11.434 6.619 21.236 6.619 29.401 1.655 37.569-29.788 68.602-67.852 68.602zM511.173 147.381c-14.895 19.6-29.788 44.101-41.374 65.335-6.619 13.066-13.24 24.5-16.55 35.934-4.964 11.434-6.619 21.234-6.619 27.767 0 34.302 28.133 63.703 62.888 63.703s62.888-27.769 62.888-63.703c0-6.533-1.655-16.333-6.619-27.767-3.312-9.8-9.931-22.868-16.55-35.934-8.276-19.6-23.169-44.101-38.064-65.335zM511.173 320.518c-6.619 0-13.24-4.901-13.24-13.066 0-8.167 4.966-13.068 13.24-13.068 9.929 0 18.205-8.165 18.205-17.967 0-6.533 4.964-13.066 13.238-13.066 6.621 0 13.24 4.901 13.24 13.066 0 24.502-19.859 44.102-44.683 44.102zM542.616 269.883c-4.964 0-8.274 3.267-8.274 8.167 0 13.066-9.929 22.868-23.169 22.868-4.964 0-8.274 3.267-8.274 8.165 0 4.901 3.31 8.167 8.274 8.167 21.514 0 39.719-17.967 39.719-39.201 0-4.901-3.31-8.167-8.276-8.167z"></path>
</svg>
