<svg width="1138" height="848" viewBox="0 0 1138 848" fill="none" xmlns="http://www.w3.org/2000/svg">
<g clip-path="url(#clip0_171_130)">
<path d="M1138 745.129H0V745.585H1138V745.129Z" fill="#EBEBEB"/>
<path d="M1023.97 781.771H974.582V782.227H1023.97V781.771Z" fill="#EBEBEB"/>
<path d="M784.537 770.164H706.926V770.619H784.537V770.164Z" fill="#EBEBEB"/>
<path d="M1003.94 760.833H902.66V761.288H1003.94V760.833Z" fill="#EBEBEB"/>
<path d="M393.748 772.213H368.484V772.668H393.748V772.213Z" fill="#EBEBEB"/>
<path d="M348.228 772.213H260.83V772.668H348.228V772.213Z" fill="#EBEBEB"/>
<path d="M213.944 762.654H150.898V763.109H213.944V762.654Z" fill="#EBEBEB"/>
<path d="M539.412 643.624H99.9166C92.861 643.624 86.9434 637.707 86.9434 630.652V12.9726C86.9434 5.91734 92.861 0 99.9166 0H539.412C546.468 0 552.385 5.91734 552.385 12.9726V630.652C552.385 637.934 546.695 643.624 539.412 643.624ZM99.9166 0.45518C93.0886 0.45518 87.3986 5.91734 87.3986 12.9726V630.652C87.3986 637.479 92.861 643.169 99.9166 643.169H539.412C546.24 643.169 551.93 637.707 551.93 630.652V12.9726C551.93 6.14493 546.468 0.45518 539.412 0.45518H99.9166Z" fill="#EBEBEB"/>
<path d="M1031.71 643.624H592.215C585.16 643.624 579.242 637.707 579.242 630.652V12.9726C579.242 5.91734 585.16 0 592.215 0H1031.71C1038.77 0 1044.68 5.91734 1044.68 12.9726V630.652C1044.68 637.934 1038.99 643.624 1031.71 643.624ZM592.215 0.45518C585.387 0.45518 579.697 5.91734 579.697 12.9726V630.652C579.697 637.479 585.16 643.169 592.215 643.169H1031.71C1038.54 643.169 1044.23 637.707 1044.23 630.652V12.9726C1044.23 6.14493 1038.77 0.45518 1031.71 0.45518H592.215Z" fill="#EBEBEB"/>
<path d="M491.844 332.054L492.982 302.239L474.546 296.322C473.863 286.081 472.042 276.067 469.539 266.28L485.016 254.901L474.546 226.907L455.2 228.5C450.648 219.397 445.186 210.748 439.268 202.783L449.282 186.169L428.798 164.32L411.501 173.196C403.762 166.596 395.569 160.678 386.92 155.444L389.651 136.326L362.339 124.037L349.821 138.602C340.262 135.416 330.475 133.14 320.233 131.775L315.681 113.112L285.638 111.974L279.72 130.409C269.478 131.319 259.464 132.913 249.677 135.416L238.07 119.94L210.075 130.409L211.668 149.754C202.564 154.306 193.915 159.768 185.722 165.913L169.107 155.899L147.257 176.382L156.134 193.679C149.533 201.417 143.616 209.61 138.381 218.259L119.262 215.3L106.744 242.611L121.538 255.128C118.352 264.687 116.076 274.701 114.71 284.715L95.8196 289.494L94.6816 319.309L113.117 325.226C113.8 335.468 115.621 345.481 118.124 355.268L102.648 366.647L113.117 394.641L132.463 393.048C137.015 402.151 142.478 410.8 148.395 418.993L138.381 435.607L158.865 457.456L176.162 448.58C183.901 455.18 192.094 461.097 200.743 466.332L197.784 485.449L225.096 497.739L237.614 483.173C247.174 486.36 256.96 488.636 267.202 490.001L271.754 508.663L301.798 509.801L307.715 491.367C317.957 490.456 327.972 488.863 337.758 486.36L349.138 501.836L377.133 491.367L375.768 472.021C384.872 467.47 393.52 462.008 401.714 455.863L418.329 465.877L440.178 445.393L431.302 428.097C437.902 420.359 443.82 412.165 449.055 403.517L468.173 406.476L480.691 379.165L465.897 366.647C469.084 357.089 471.36 347.302 472.725 337.061L491.844 332.054ZM289.735 429.007C224.186 426.731 172.976 371.882 175.252 306.336C177.528 240.79 232.38 189.582 297.928 191.631C363.477 193.907 414.687 248.756 412.411 314.302C410.135 379.848 355.284 431.283 289.735 429.007Z" fill="#EBEBEB"/>
<path d="M1003.71 233.28L1011.23 226.224L1008.27 220.307C1010.54 217.576 1012.59 214.845 1014.41 211.886L1021.01 212.797L1025.34 203.465L1020.33 199.141C1021.47 195.727 1022.15 192.313 1022.83 188.9L1029.43 187.307L1029.66 177.065L1023.29 175.017C1023.06 171.603 1022.38 167.961 1021.69 164.548L1026.93 160.678L1023.29 150.892L1016.69 151.347C1015.09 148.161 1013.27 145.202 1011.23 142.471L1014.64 136.782L1007.58 129.271L1001.67 132.23C998.935 129.954 996.204 127.906 993.245 126.085L994.155 119.485L984.824 115.16L980.499 120.167C977.085 119.03 973.671 118.347 970.257 117.892L968.664 111.519L958.422 111.064L956.374 117.436C952.96 117.664 949.318 118.347 946.132 119.03L942.262 113.567L932.476 117.209L932.931 123.809C929.744 125.402 926.786 127.223 924.054 129.271L918.364 125.857L910.854 132.913L913.812 138.83C911.536 141.561 909.488 144.292 907.667 147.251L901.067 146.34L896.742 155.672L901.75 159.996C900.612 163.41 899.929 166.823 899.246 170.237L892.646 171.83L892.418 182.072L898.791 184.12C899.018 187.534 899.701 191.176 900.384 194.589L894.922 198.458L898.563 208.245L905.164 207.79C906.757 210.976 908.578 213.935 910.626 216.666L907.212 222.355L914.268 229.866L920.185 226.907C922.916 229.183 925.648 231.231 928.606 233.052L927.696 239.652L937.028 243.976L941.352 238.969C944.766 240.107 948.18 240.79 951.594 241.245L953.187 247.618L963.429 248.073L965.478 241.7C968.892 241.473 972.533 240.79 975.72 240.107L979.589 245.57L989.376 241.928L988.92 235.328C992.107 233.735 995.066 231.914 997.797 229.866L1003.71 233.28ZM949.773 189.582C944.311 183.665 944.538 174.334 950.456 168.872C956.374 163.41 965.705 163.637 971.168 169.554C976.63 175.472 976.402 184.803 970.485 190.265C964.795 195.955 955.463 195.727 949.773 189.582Z" fill="#EBEBEB"/>
<path d="M728.321 540.298L704.878 524.14C702.602 515.491 699.416 507.298 695.319 499.56L701.236 475.891L667.096 439.249L642.971 443.573C635.46 439.021 627.494 435.379 619.073 432.421L604.506 407.841L554.434 406.02L538.275 429.462C529.626 431.738 521.432 434.924 513.694 439.021L490.024 433.104L453.38 467.242L457.704 491.139C453.152 498.65 449.511 506.615 446.552 515.036L421.971 529.602L420.15 579.671L443.821 595.83C446.097 604.479 449.283 612.672 453.152 620.41L447.235 644.079L481.375 680.721L505.273 676.397C512.784 680.949 520.75 684.59 529.171 687.549L543.737 712.129L593.809 713.95L609.969 690.508C618.618 688.232 626.811 685.046 634.777 680.949L658.22 686.866L694.864 652.728L690.539 628.831C695.091 621.32 698.733 613.355 701.692 604.934L726.272 590.368L728.321 540.298ZM572.415 616.313C541.234 615.176 517.108 589.23 518.018 558.278C519.156 527.098 545.103 502.974 576.056 503.884C607.238 505.022 631.363 530.967 630.453 561.919C629.542 592.872 603.596 617.224 572.415 616.313Z" fill="#EBEBEB"/>
<path d="M781.806 398.282L742.203 396.917C740.61 396.917 739.017 396.006 738.334 394.641L727.637 376.661C721.947 374.613 716.484 372.11 711.022 368.923L693.952 372.11C692.359 372.337 690.766 371.882 689.628 370.744L662.771 341.84C661.633 340.702 661.178 338.881 661.633 337.288L665.957 320.447C663.454 315.212 661.178 309.295 659.357 303.377L642.287 291.543C640.921 290.632 640.238 289.039 640.238 287.446L641.604 248.073C641.604 246.48 642.514 244.887 643.88 244.204L661.86 233.507C663.909 227.59 666.64 222.128 669.599 217.121L666.412 200.052C666.185 198.458 666.64 196.865 667.778 195.727L696.683 168.872C697.821 167.734 699.642 167.279 701.235 167.734L718.078 172.058C723.54 169.327 729.23 167.279 734.92 165.458L746.755 148.389C747.666 147.023 749.259 146.113 750.852 146.34L790.227 147.706C791.82 147.706 793.413 148.616 794.096 149.982L804.793 167.961C810.483 170.01 815.945 172.513 821.18 175.699L838.478 172.513C840.071 172.286 841.664 172.741 842.802 173.879L869.887 202.555C871.025 203.693 871.48 205.514 871.025 207.107L866.7 223.948C869.431 229.411 871.48 235.1 873.301 240.79L890.371 252.625C891.736 253.535 892.419 255.128 892.419 256.721L891.054 296.095C891.054 297.688 890.143 299.281 888.778 299.964L870.797 310.66C868.749 316.578 866.018 322.04 863.059 327.047L866.245 344.116C866.473 345.709 866.018 347.302 864.88 348.44L835.974 375.296C834.836 376.434 833.015 376.889 831.422 376.434L814.58 372.11C809.117 374.841 803.2 376.889 797.51 378.71L785.675 395.779C784.992 397.6 783.399 398.282 781.806 398.282ZM745.39 387.358L779.53 388.496L790.91 372.11C791.592 371.199 792.503 370.516 793.641 370.289C800.014 368.696 806.159 366.192 812.304 363.234C813.214 362.778 814.58 362.551 815.718 362.778L831.65 366.875L856.686 343.661L853.727 327.274C853.5 326.136 853.727 324.998 854.41 323.86C857.596 318.398 860.555 312.481 862.831 306.108C863.286 304.97 863.969 304.06 864.88 303.377L881.95 293.136L883.088 258.997L866.7 247.618C865.79 246.935 865.107 246.252 864.88 245.114C864.88 244.887 864.88 244.887 864.88 244.659C863.059 238.287 860.783 232.142 857.824 226.224C857.369 225.086 857.141 223.948 857.369 222.811L861.466 206.652L838.25 181.617L821.863 184.575C820.725 184.803 819.587 184.575 818.449 183.893C812.759 180.479 806.841 177.748 800.696 175.472C800.241 175.244 800.013 175.244 799.786 175.017C799.103 174.561 798.648 174.106 798.193 173.424L787.496 157.037L753.356 155.899L741.976 172.286C741.293 173.196 740.382 173.879 739.244 174.334C732.871 176.155 726.726 178.43 720.809 181.389C719.671 181.844 718.533 182.072 717.395 181.844L701.235 177.748L676.199 201.19L679.158 217.576C679.385 218.714 679.158 219.624 678.703 220.535C678.703 220.762 678.475 220.762 678.475 220.99C675.061 226.452 672.33 232.597 670.054 238.969C669.599 240.107 668.916 241.018 668.006 241.473L650.936 251.714L649.798 285.853L666.185 297.232C667.095 297.915 667.778 298.826 668.006 299.964C669.826 306.564 672.102 312.709 675.061 318.398C675.289 318.626 675.289 319.081 675.516 319.536C675.744 320.219 675.744 321.129 675.516 321.812L671.42 337.971L694.635 363.006L710.794 360.047C711.932 359.82 713.07 360.047 714.208 360.73C719.898 364.144 726.044 366.875 732.189 369.151C733.327 369.606 734.237 370.289 734.92 371.199L745.39 387.358ZM766.329 344.344C765.418 344.344 764.736 344.344 763.825 344.344C724.223 342.978 692.814 309.522 694.18 269.922C695.545 230.321 729.002 199.141 768.605 200.279C808.207 201.645 839.616 235.1 838.25 274.701C837.567 293.819 829.374 311.798 815.49 324.771C802.062 337.516 784.764 344.344 766.329 344.344ZM766.329 209.838C732.872 209.838 705.104 236.466 703.966 270.149C702.828 304.515 729.913 333.419 764.28 334.785C780.895 335.24 796.827 329.323 809.118 317.943C821.408 306.564 828.236 291.088 828.919 274.473C830.057 240.107 802.972 211.203 768.605 209.838C767.694 209.838 767.012 209.838 766.329 209.838Z" fill="#EBEBEB"/>
<path d="M872.618 114.705L856.458 110.154L851.906 93.9946L858.279 87.6221L865.107 101.505L878.991 108.333L872.618 114.705Z" fill="#E0E0E0"/>
<path d="M873.756 103.781C876.715 100.822 876.715 96.043 873.756 93.0843C870.797 90.1256 866.017 90.1256 863.059 93.0843L871.252 80.7944L882.177 86.2566L884.453 97.6361L873.756 103.781Z" fill="#E0E0E0"/>
<path d="M857.141 88.7601L869.203 76.6978L885.591 81.022L889.915 97.4085L877.852 109.471L861.465 105.147L857.141 88.7601ZM878.763 98.5464C881.721 95.5878 881.721 90.8084 878.763 87.8497C875.804 84.891 871.024 84.891 868.065 87.8497C865.107 90.8084 865.107 95.5878 868.065 98.5464C871.024 101.505 875.804 101.505 878.763 98.5464Z" fill="#F0F0F0"/>
<path d="M205.295 550.312L214.171 547.809L216.447 539.16L213.033 535.747L209.392 543.257L201.881 546.671L205.295 550.312Z" fill="#E0E0E0"/>
<path d="M204.839 544.395C203.246 542.802 203.246 540.298 204.839 538.705C206.433 537.112 208.936 537.112 210.529 538.705L206.205 532.105L200.287 535.064L198.922 541.209L204.839 544.395Z" fill="#E0E0E0"/>
<path d="M213.716 536.429L207.343 530.057L198.694 532.333L196.418 540.981L202.791 547.354L211.44 545.078L213.716 536.429ZM202.108 541.664C200.515 540.071 200.515 537.567 202.108 535.974C203.701 534.381 206.205 534.381 207.798 535.974C209.391 537.567 209.391 540.071 207.798 541.664C206.205 543.257 203.701 543.257 202.108 541.664Z" fill="#F0F0F0"/>
<path d="M173.886 69.8701L181.169 77.153C182.99 78.9737 186.176 78.9737 187.997 77.153C189.818 75.3323 189.818 72.146 187.997 70.3253L180.714 63.0424C178.893 61.2217 175.707 61.2217 173.886 63.0424C171.838 64.8631 171.838 68.0494 173.886 69.8701Z" fill="#F0F0F0"/>
<path d="M168.65 51.8905C174.34 49.8422 180.258 52.5733 182.306 57.8079C184.127 63.0424 181.168 68.9598 175.478 71.0081C169.788 73.0564 163.871 70.3253 161.822 65.0907C160.002 59.6286 162.96 53.7112 168.65 51.8905Z" fill="#E0E0E0"/>
<path d="M160.786 63.721L161.863 66.7196L183.497 58.9501L182.42 55.9515L160.786 63.721Z" fill="#F0F0F0"/>
<path d="M569 848C812.732 848 1010.32 836.486 1010.32 822.282C1010.32 808.079 812.732 796.565 569 796.565C325.268 796.565 127.684 808.079 127.684 822.282C127.684 836.486 325.268 848 569 848Z" fill="#F5F5F5"/>
<path d="M292.921 265.37C292.693 265.37 292.693 265.37 292.466 265.37C282.224 261.501 276.079 257.632 272.892 252.852C270.616 253.308 267.885 253.08 265.609 251.942C263.333 250.804 260.829 248.756 259.236 246.025C257.643 247.163 255.822 247.618 253.774 246.935C251.498 246.252 248.994 244.204 246.946 241.473C245.58 242.383 244.442 242.611 243.304 242.383C236.476 241.928 227.372 228.273 226.689 213.935C226.689 213.252 227.145 212.797 227.827 212.797C228.51 212.797 228.965 213.252 228.965 213.935C229.648 227.59 238.297 239.652 243.532 240.107C244.442 240.107 245.125 239.88 245.58 239.425C242.394 233.962 240.801 226.224 243.304 218.031C245.353 211.203 246.946 208.472 248.994 208.928C252.863 209.838 252.408 224.859 250.36 234.645C249.905 236.921 249.222 238.514 248.539 239.652C250.36 242.383 252.408 243.976 254.229 244.659C255.822 245.114 257.188 244.659 258.098 243.976C256.277 239.652 256.05 233.507 258.326 225.997C261.512 215.983 262.878 215.755 263.561 215.528C264.016 215.3 264.699 215.528 264.926 215.983C266.975 218.259 264.471 233.962 261.967 241.7C261.512 242.611 261.285 243.521 260.602 244.432C261.967 247.163 264.016 248.983 266.292 250.121C268.113 251.032 269.933 251.259 271.527 251.032C271.299 250.576 271.071 250.121 271.071 249.666C269.251 244.887 270.161 239.197 273.803 232.369C276.306 227.817 278.127 225.769 279.948 225.769C280.403 225.769 281.541 225.997 282.224 227.362C284.272 231.004 282.679 243.066 278.81 249.211C277.899 250.576 276.534 251.714 275.168 252.397C278.127 256.494 284.045 259.908 293.149 263.549C293.831 263.777 294.059 264.459 293.831 264.915C293.831 265.142 293.376 265.37 292.921 265.37ZM279.948 228.045C279.948 228.045 278.582 228.045 275.851 233.28C272.665 239.425 271.754 244.432 273.347 248.756C273.575 249.211 273.803 249.894 274.03 250.349C275.168 249.894 276.306 248.983 276.989 247.845C280.175 243.066 281.769 233.052 280.403 228.955C280.175 228.045 279.948 228.045 279.948 228.045ZM263.788 218.259C263.105 219.397 262.195 221.673 260.829 226.224C258.781 232.369 258.781 237.376 259.919 241.018C259.919 240.79 260.147 240.563 260.147 240.335C262.65 232.824 264.016 222.128 263.788 218.259ZM248.767 211.203C248.311 211.659 247.173 213.024 245.58 218.486C243.532 225.769 244.67 232.369 247.173 237.149C247.629 236.238 248.084 235.1 248.311 233.962C250.587 222.811 249.905 212.797 248.767 211.203Z" fill="#263238"/>
<path d="M379.411 384.627C375.997 384.627 372.355 383.944 368.941 381.896C368.486 381.668 368.258 380.986 368.486 380.303C368.713 379.848 369.396 379.62 370.079 379.848C378.273 384.627 388.742 381.213 390.791 377.799C391.018 377.344 391.246 376.889 391.018 376.206C387.832 376.434 383.963 375.751 379.411 372.792C373.721 369.151 373.265 368.013 373.265 367.33C373.265 366.875 373.493 366.42 373.948 366.192C376.224 365.054 386.466 369.834 390.791 372.565C391.246 373.02 391.929 373.247 392.156 373.703C393.977 373.247 395.57 372.337 396.481 371.199C397.163 370.289 397.619 369.606 397.846 368.696C397.619 368.696 397.619 368.696 397.391 368.696C393.749 369.151 390.108 367.558 386.239 363.916C383.507 361.413 382.597 359.82 382.825 358.454C382.825 357.999 383.28 357.316 384.418 356.861C387.604 356.178 395.343 359.364 398.529 362.778C399.212 363.461 399.667 364.371 399.895 365.509C402.853 364.144 406.04 360.958 409.681 355.723C410.137 355.268 410.819 355.04 411.275 355.495C411.73 355.951 411.957 356.633 411.502 357.089C407.178 363.006 403.536 366.42 400.122 367.785C399.895 369.378 399.212 370.972 398.074 372.337C396.936 373.703 395.343 374.841 393.067 375.523C393.294 376.661 393.067 377.572 392.384 378.71C391.018 382.351 385.556 384.627 379.411 384.627ZM377.362 368.923C378.045 369.378 379.183 370.289 380.776 371.199C383.963 373.02 386.694 373.93 388.97 374.158C385.328 371.882 380.321 369.834 377.362 368.923ZM385.328 359.364C385.556 359.82 386.011 360.73 388.059 362.551C391.473 365.737 394.432 367.103 397.391 366.647C397.619 366.647 397.846 366.647 398.074 366.647C397.846 365.965 397.619 365.282 397.163 364.827C393.977 361.185 386.921 358.909 385.328 359.364Z" fill="#263238"/>
<path d="M409.453 381.668L373.947 388.041L341.856 212.341L273.348 224.859L161.824 422.862L173.887 488.18L316.82 462.235L326.607 515.719L395.114 503.201L385.327 449.718L420.833 443.345L409.453 381.668ZM230.104 414.214L289.28 310.433L305.667 400.331L230.104 414.214Z" fill="#65A7EE"/>
<path d="M695.091 200.279C693.725 188.217 691.449 177.293 687.808 167.961C684.394 158.63 678.931 149.299 671.876 140.195C664.82 131.092 655.261 123.354 642.971 116.526C630.68 109.926 614.748 105.147 594.719 102.643C553.069 97.1809 520.522 104.691 497.307 124.719C474.091 144.975 458.615 183.665 451.331 240.79C448.373 264.004 447.69 285.625 449.055 305.198C450.649 324.998 454.29 340.93 459.98 352.764C467.946 369.606 478.871 383.034 493.21 393.275C507.549 403.289 527.35 410.117 552.158 413.303C596.768 419.221 629.77 410.572 651.392 387.586C672.786 364.599 687.125 325.909 694.181 271.287C697.595 247.39 697.822 223.493 695.091 200.279Z" fill="#65A7EE"/>
<path d="M573.098 390.317C567.636 390.089 561.718 389.634 555.8 388.951C534.861 386.22 518.929 380.985 507.777 373.247C496.852 365.737 488.886 355.723 482.741 342.75V342.523C478.416 333.419 475.458 320.219 474.32 303.832C472.954 285.853 473.637 265.825 476.368 244.432C484.562 181.389 501.176 154.989 513.922 144.064C528.716 131.319 548.517 125.402 574.691 126.312C580.154 126.54 585.844 126.995 591.534 127.678C608.376 129.954 621.577 133.595 631.136 138.83C640.24 143.837 647.296 149.527 652.303 155.899C657.765 162.954 661.862 170.01 664.593 177.065C667.324 184.575 669.373 193.451 670.511 203.465C673.014 224.631 672.787 246.707 669.828 268.784C663.455 317.715 651.392 352.309 633.64 371.199C620.211 384.855 600.41 391.227 573.098 390.317Z" fill="#192646"/>
<path d="M617.479 200.962L617.706 192.313L612.472 190.493C612.244 187.534 611.789 184.575 611.106 181.844L615.658 178.43L612.699 170.237L607.237 170.692C605.871 167.961 604.278 165.685 602.685 163.182L605.644 158.403L599.726 152.03L594.719 154.534C592.443 152.713 590.167 150.892 587.663 149.299L588.574 143.837L580.608 140.195L576.966 144.52C574.235 143.609 571.276 142.926 568.317 142.471L566.952 137.009L558.303 136.782L556.482 142.016C553.523 142.244 550.564 142.699 547.833 143.382L544.419 138.83L536.226 141.789L536.681 147.251C533.95 148.616 531.674 150.209 529.17 151.802L524.39 148.844L518.018 154.761L520.521 159.768C518.7 162.044 516.88 164.32 515.514 166.823L510.052 165.913L506.41 173.879L510.734 177.52C509.824 180.251 509.141 183.21 508.686 186.169L503.224 187.534L502.996 196.182L508.231 198.003C508.459 200.962 508.914 203.921 509.596 206.652L505.044 210.065L508.003 218.259L513.466 217.804C514.831 220.535 516.425 222.811 518.018 225.314L515.059 230.093L520.976 236.466L525.984 233.962C528.26 235.783 530.536 237.604 533.039 239.197L532.129 244.659L540.095 248.301L543.736 243.976C546.468 244.887 549.426 245.57 552.385 246.025L553.751 251.487L562.4 251.714L564.22 246.48C567.179 246.252 570.138 245.797 572.869 245.114L576.283 249.666L584.477 246.707L584.022 241.245C586.753 239.88 589.029 238.287 591.532 236.694L596.312 239.652L602.685 233.735L600.181 228.728C602.002 226.452 603.823 224.176 605.188 221.673L610.651 222.583L614.292 214.617L609.968 210.976C610.878 208.245 611.561 205.286 612.016 202.327L617.479 200.962ZM559.213 228.955C540.322 228.273 525.528 212.569 526.211 193.679C526.894 174.789 542.598 159.996 561.489 160.678C580.38 161.361 595.174 177.065 594.491 195.955C594.036 214.845 578.104 229.638 559.213 228.955Z" fill="#65A7EE"/>
<path opacity="0.3" d="M653.439 359.364L654.121 353.447L650.707 352.082C650.707 350.033 650.48 348.213 650.252 346.164L653.439 344.116L651.845 338.426H647.976C647.294 336.605 646.383 334.785 645.245 333.192L647.293 330.005L643.652 325.454L640.238 326.819C638.872 325.454 637.279 324.088 635.686 322.95L636.596 319.309L631.361 316.578L628.63 319.309C626.81 318.626 624.989 317.943 622.94 317.488L622.257 313.846L616.34 313.164L614.974 316.578C612.926 316.578 611.105 316.805 609.057 317.033L607.008 313.846L601.318 315.44V319.309C599.498 319.991 597.677 320.902 596.083 322.04L592.897 319.764L588.345 323.405L589.711 326.819C588.345 328.185 586.979 329.778 585.841 331.371L582.2 330.461L579.469 335.695L582.2 338.426C581.517 340.247 580.834 342.068 580.379 344.116L576.737 344.799L576.055 350.716L579.469 352.082C579.469 354.13 579.696 355.951 579.924 357.999L576.737 360.047L578.331 365.737H582.2C582.883 367.558 583.793 369.378 584.931 370.972L582.655 374.158L586.297 378.71L589.711 377.344C591.076 378.71 592.669 380.075 594.263 381.213L593.352 384.855L598.587 387.586L601.318 384.855C603.139 385.537 604.96 386.22 607.008 386.675L607.691 390.317L613.609 390.999L614.974 387.586C617.023 387.586 618.843 387.358 620.892 387.13L622.94 390.317L628.63 388.724V384.855C630.451 384.172 632.272 383.261 633.865 382.123L636.824 384.399L641.376 380.758L640.01 377.344C641.376 375.979 642.741 374.385 643.879 372.792L647.521 373.703L650.252 368.468L647.521 365.737C648.204 363.916 648.887 362.096 649.342 360.047L653.439 359.364ZM624.078 357.089C621.347 362.096 615.202 363.916 610.195 361.185C605.187 358.454 603.594 352.309 606.098 347.302C608.829 342.295 614.974 340.702 619.981 343.206C624.989 346.164 626.81 352.309 624.078 357.089Z" fill="#407BFF"/>
<path d="M685.758 261.046L678.93 256.266C678.247 253.763 677.337 251.487 676.199 249.211L678.02 242.383L668.233 231.914L661.405 233.28C659.356 231.914 656.853 231.004 654.577 230.093L650.252 223.038L635.914 222.583L631.134 229.411C628.63 230.093 626.354 231.004 624.078 232.142L617.25 230.321L606.781 240.107L608.146 246.935C606.781 249.211 605.87 251.487 604.96 253.763L597.904 257.859L597.449 272.198L604.277 276.977C604.96 279.48 605.87 281.756 607.008 284.032L605.188 290.86L614.974 301.329L621.802 299.963C624.078 301.329 626.354 302.239 628.63 303.15L632.727 310.205L647.066 310.66L651.846 303.833C654.349 303.15 656.625 302.239 658.901 301.101L665.729 302.922L676.199 293.136L674.833 286.308C676.199 284.032 677.109 281.756 678.02 279.48L685.075 275.156L685.758 261.046ZM640.921 282.894C632.044 282.667 624.989 275.156 625.216 266.053C625.444 257.177 632.955 250.121 642.059 250.349C650.935 250.576 657.991 258.087 657.763 267.191C657.308 276.294 649.797 283.349 640.921 282.894Z" fill="white"/>
<path d="M735.151 146.113L736.289 143.154C737.199 142.699 737.882 142.244 738.565 141.561H741.296L744.482 137.009L743.572 134.506C743.799 133.595 744.027 132.685 744.255 131.775L746.531 129.726L745.62 124.492L742.661 123.354C742.206 122.443 741.751 121.761 741.068 121.078V118.347L736.516 115.16L734.013 116.071C733.102 115.843 732.192 115.616 731.281 115.388L729.233 113.112L723.998 114.023L722.86 116.981C721.95 117.436 721.267 117.892 720.357 118.574H717.625L714.439 123.126L715.349 125.63C715.122 126.54 714.894 127.45 714.667 128.361L712.391 130.409L713.301 135.644L716.26 136.782C716.715 137.692 717.17 138.375 717.853 139.285V142.016L722.405 145.202L724.909 144.292C725.819 144.52 726.729 144.747 727.64 144.975L729.688 147.251L735.151 146.113ZM723.771 131.319C723.088 127.906 725.364 124.947 728.778 124.264C732.192 123.581 735.151 125.857 735.833 129.271C736.516 132.685 734.24 135.644 730.826 136.326C727.412 136.782 724.226 134.506 723.771 131.319Z" fill="#65A7EE"/>
<path d="M672.786 130.864L670.965 129.499C673.924 125.857 678.248 121.305 684.621 118.119L685.759 120.167C678.931 123.581 674.606 128.816 672.786 130.864Z" fill="#65A7EE"/>
<path d="M690.992 117.892L690.082 115.843C698.731 112.202 707.607 110.609 716.711 111.519L716.484 113.795C707.835 113.112 699.186 114.478 690.992 117.892Z" fill="#65A7EE"/>
<path d="M686.668 133.823L684.848 132.457C689.627 125.63 698.731 119.712 707.38 117.892L707.835 120.167C699.642 121.761 690.993 127.45 686.668 133.823Z" fill="#65A7EE"/>
<path d="M535.544 352.764C535.317 352.764 534.861 352.537 534.634 352.309L529.854 347.302C527.351 347.075 525.075 346.619 522.799 345.937L515.288 349.123C514.833 349.35 514.605 349.35 514.15 349.123L501.632 340.93C501.404 340.702 501.177 340.247 501.177 340.019L501.404 331.826C499.811 330.005 498.445 327.957 497.307 325.681L490.935 323.178C490.479 322.95 490.252 322.722 490.252 322.267L487.293 307.702C487.293 307.246 487.293 307.019 487.521 306.564L492.528 301.784C492.755 299.281 493.211 297.005 493.893 294.729L490.707 287.218C490.479 286.763 490.479 286.536 490.707 286.08L498.901 273.563C499.128 273.335 499.356 273.108 499.811 273.108L508.005 273.335C509.825 271.742 511.874 270.377 514.15 269.239L516.653 262.866C516.881 262.411 517.109 262.184 517.564 262.184L532.13 259.225C532.585 259.225 532.813 259.225 533.268 259.452L538.048 264.459C540.551 264.687 542.827 265.142 545.331 265.825L552.842 262.639C553.297 262.411 553.525 262.411 553.98 262.639L566.498 270.832C566.725 271.06 566.953 271.515 566.953 271.742L566.725 279.936C568.319 281.756 569.684 283.805 570.822 286.08L577.195 288.584C577.65 288.812 577.878 289.039 577.878 289.494L580.837 304.06C580.837 304.515 580.837 304.743 580.609 305.198L575.602 309.977C575.374 312.481 574.919 314.757 574.236 317.033L577.423 324.543C577.65 324.998 577.65 325.226 577.423 325.681L569.229 338.199C569.001 338.426 568.774 338.654 568.319 338.654L560.125 338.426C558.304 340.019 556.256 341.385 553.98 342.523L551.476 348.895C551.249 349.35 551.021 349.578 550.566 349.578L535.544 352.764C535.772 352.764 535.772 352.764 535.544 352.764ZM522.799 343.888H523.026C525.53 344.571 528.033 345.026 530.537 345.254C530.765 345.254 530.992 345.481 531.22 345.709L535.772 350.488L549.2 347.757L551.704 341.612C551.704 341.385 551.931 341.157 552.159 340.93C554.435 339.792 556.711 338.426 558.532 336.605C558.759 336.378 558.987 336.378 559.215 336.378L567.181 336.605L574.691 325.226L571.505 317.943C571.505 317.715 571.277 317.488 571.505 317.26C572.188 314.757 572.643 312.253 572.871 309.75C572.871 309.522 573.098 309.295 573.098 309.067L577.878 304.515L575.147 291.087L569.001 288.584C568.774 288.584 568.546 288.356 568.319 288.129C567.181 285.853 565.815 283.805 563.994 281.756C563.767 281.529 563.767 281.301 563.767 281.074L563.994 273.108L552.614 265.597L545.331 268.784C545.103 268.784 544.876 269.011 544.648 268.784C542.145 268.101 539.641 267.646 537.137 267.418C536.91 267.418 536.682 267.191 536.455 267.191L531.903 262.411L518.474 265.142L515.971 271.287C515.971 271.515 515.743 271.742 515.515 271.97C513.239 273.108 511.191 274.473 509.143 276.294C508.915 276.522 508.687 276.522 508.46 276.522L500.494 276.294L492.983 287.674L496.169 294.957C496.397 295.184 496.397 295.639 496.169 295.867C495.487 298.143 495.031 300.646 494.804 303.15C494.804 303.377 494.576 303.605 494.576 303.832L489.797 308.384L492.528 321.812L498.673 324.316C498.901 324.316 499.128 324.543 499.356 324.998C500.494 327.274 501.859 329.323 503.453 331.371C503.68 331.598 503.68 331.826 503.68 332.054L503.453 340.019L514.833 347.53L522.116 344.344C522.571 343.888 522.571 343.888 522.799 343.888ZM533.951 336.378C528.261 336.378 522.343 334.785 517.336 331.371C510.508 326.819 505.956 319.991 504.363 312.026C502.77 304.06 504.363 296.094 508.687 289.267C518.019 275.384 536.91 271.515 550.793 280.618C564.677 289.95 568.546 308.612 559.215 322.722C553.525 331.598 543.738 336.378 533.951 336.378ZM510.736 290.632C506.639 296.777 505.046 304.288 506.639 311.798C508.232 319.081 512.329 325.454 518.702 329.55C531.675 338.199 548.973 334.557 557.621 321.585C566.27 308.612 562.629 291.315 549.655 282.667C536.682 274.246 519.157 277.66 510.736 290.632Z" fill="white"/>
<path d="M969.122 402.151L933.388 397.372L957.059 220.307L888.096 210.976L720.81 364.827L711.934 430.6L856.004 449.945L848.721 503.884L917.684 513.215L924.967 459.276L960.7 464.056L969.122 402.151ZM788.407 377.799L876.716 297.46L864.653 388.041L788.407 377.799Z" fill="#65A7EE"/>
<path d="M896.974 511.622C896.064 511.394 895.836 510.939 895.836 510.257L949.094 219.169C949.094 218.486 949.777 218.259 950.46 218.259C951.143 218.259 951.598 218.941 951.37 219.624L898.34 510.712C898.112 511.167 897.657 511.622 896.974 511.622Z" fill="#263238"/>
<path d="M944.087 223.948C944.087 225.086 943.176 225.769 942.266 225.769C941.356 225.769 940.445 224.859 940.445 223.948C940.445 223.038 941.356 222.128 942.266 222.128C943.404 222.128 944.087 223.038 944.087 223.948Z" fill="#263238"/>
<path d="M936.575 263.322C936.575 264.459 935.665 265.142 934.754 265.142C933.616 265.142 932.934 264.232 932.934 263.322C932.934 262.184 933.844 261.501 934.754 261.501C935.892 261.501 936.575 262.411 936.575 263.322Z" fill="#263238"/>
<path d="M929.063 302.695C929.063 303.833 928.153 304.515 927.243 304.515C926.105 304.515 925.422 303.605 925.422 302.695C925.422 301.557 926.332 300.874 927.243 300.874C928.153 300.874 929.063 301.784 929.063 302.695Z" fill="#263238"/>
<path d="M914.044 343.661C914.044 344.799 913.134 345.481 912.223 345.481C911.313 345.481 910.402 344.571 910.402 343.661C910.402 342.523 911.313 341.84 912.223 341.84C913.134 341.84 914.044 342.75 914.044 343.661Z" fill="#263238"/>
<path d="M913.817 381.441C913.817 382.579 912.907 383.261 911.997 383.261C911.086 383.261 910.176 382.351 910.176 381.441C910.176 380.53 911.086 379.62 911.997 379.62C912.907 379.62 913.817 380.53 913.817 381.441Z" fill="#263238"/>
<path d="M906.306 420.814C906.306 421.952 905.395 422.634 904.485 422.634C903.574 422.634 902.664 421.724 902.664 420.814C902.664 419.676 903.574 418.993 904.485 418.993C905.395 418.993 906.306 419.903 906.306 420.814Z" fill="#263238"/>
<path d="M898.567 460.187C898.567 461.325 897.657 462.008 896.747 462.008C895.609 462.008 894.926 461.097 894.926 460.187C894.926 459.049 895.836 458.366 896.747 458.366C897.885 458.366 898.795 459.276 898.567 460.187Z" fill="#263238"/>
<path d="M891.056 499.56C891.056 500.698 890.145 501.381 889.235 501.381C888.097 501.381 887.414 500.47 887.414 499.56C887.414 498.649 888.325 497.739 889.235 497.739C890.373 497.739 891.056 498.649 891.056 499.56Z" fill="#263238"/>
<path d="M912.221 344.799C911.765 344.799 911.31 344.344 911.083 343.888C910.855 343.206 911.31 342.75 911.993 342.523L917.683 341.385C918.366 341.157 918.821 341.612 919.049 342.295C919.276 342.978 918.821 343.433 918.138 343.661L912.448 344.799H912.221Z" fill="#263238"/>
<path d="M931.11 323.86C931.11 323.86 926.103 337.061 924.282 345.254C922.461 353.22 922.461 371.199 922.461 371.199" fill="#263238"/>
<path d="M922.462 372.337C921.779 372.337 921.324 371.882 921.324 371.199C921.324 370.516 921.552 352.992 923.145 345.026C924.966 337.061 929.745 324.088 929.973 323.633C930.201 322.95 930.883 322.722 931.339 322.95C932.021 323.178 932.249 323.86 932.021 324.316C932.021 324.543 927.014 337.516 925.193 345.481C923.6 353.22 923.373 370.972 923.373 371.199C923.6 371.882 923.145 372.337 922.462 372.337Z" fill="#263238"/>
<path d="M506.41 568.747C509.597 517.767 503.679 425.138 599.499 437.428C702.146 450.628 672.786 570.796 672.786 570.796L506.41 568.747Z" fill="#192646"/>
<path d="M572.414 538.023C595.542 538.023 614.292 519.274 614.292 496.146C614.292 473.018 595.542 454.269 572.414 454.269C549.285 454.269 530.535 473.018 530.535 496.146C530.535 519.274 549.285 538.023 572.414 538.023Z" fill="white"/>
<path d="M577.876 454.497C558.075 451.083 536.908 465.649 534.859 480.442L613.381 487.725C610.65 470.884 593.58 457.228 577.876 454.497Z" fill="#263238"/>
<path d="M604.504 495.236C604.049 506.16 597.904 514.808 591.303 514.353C584.475 513.898 579.468 504.794 579.923 493.87C580.378 482.946 586.524 474.297 593.124 474.753C599.952 475.208 604.959 484.311 604.504 495.236Z" fill="#263238"/>
<path d="M572.414 540.298C548.061 540.298 528.26 520.498 528.26 496.146C528.26 471.794 548.061 451.994 572.414 451.994C596.767 451.994 616.569 471.794 616.569 496.146C616.569 520.498 596.767 540.298 572.414 540.298ZM572.414 456.773C550.565 456.773 532.812 474.525 532.812 496.374C532.812 518.222 550.565 535.974 572.414 535.974C594.264 535.974 612.017 518.222 612.017 496.374C612.017 474.525 594.264 456.773 572.414 456.773Z" fill="#65A7EE"/>
<path opacity="0.3" d="M661.179 567.382H660.951C660.268 567.154 660.041 566.699 660.041 566.016C660.041 565.788 667.324 534.836 659.813 503.656C659.586 502.974 660.041 502.518 660.723 502.291C661.406 502.063 661.862 502.519 662.089 503.201C669.828 535.064 662.317 566.244 662.317 566.699C662.089 567.154 661.634 567.382 661.179 567.382Z" fill="white"/>
<path opacity="0.3" d="M654.806 486.587C654.351 486.587 653.896 486.36 653.668 485.904C650.709 479.532 647.068 473.615 642.971 468.38C642.516 467.925 642.743 467.242 643.198 466.787C643.654 466.332 644.336 466.559 644.792 467.014C649.116 472.249 652.985 478.394 655.944 484.994C656.172 485.677 655.944 486.132 655.489 486.587C655.034 486.587 655.034 486.587 654.806 486.587Z" fill="white"/>
<path d="M292.92 807.944C292.693 807.944 292.465 807.944 292.01 807.944C285.637 807.717 280.857 802.482 280.857 796.337C281.085 789.965 286.092 785.185 292.465 785.185H292.693C299.293 785.185 314.997 777.22 348.227 725.101C350.048 722.37 353.007 720.322 356.193 719.867C359.379 719.412 362.793 720.322 365.297 722.598C406.037 758.102 449.509 780.406 449.737 780.633C455.427 783.364 457.475 790.42 454.744 795.882C452.013 801.572 444.957 803.62 439.495 800.889C437.674 799.979 399.892 780.633 360.29 748.316C332.978 789.737 312.266 807.944 292.92 807.944Z" fill="#192646"/>
<path d="M363.477 720.322C363.249 720.322 362.794 720.322 362.567 720.322C358.925 719.867 356.194 716.225 356.877 712.584C358.47 701.205 356.421 658.873 342.083 625.872C340.717 622.914 341.855 619.272 344.586 617.451C375.767 596.286 442.227 593.554 444.958 593.554C448.599 593.554 451.786 596.286 452.013 600.155C452.241 604.024 449.282 606.982 445.413 607.21C444.73 607.21 386.692 609.486 356.877 625.872C369.622 658.645 372.353 699.611 370.305 714.405C369.622 718.046 366.663 720.322 363.477 720.322Z" fill="#192646"/>
<path d="M374.857 711.674C370.305 700.977 349.821 702.115 337.758 711.446C331.385 716.453 322.736 731.019 321.826 736.481C320.916 741.943 324.557 746.722 330.93 746.04C338.668 745.357 349.593 733.977 349.593 733.977C342.538 741.033 351.642 746.04 365.525 735.798C373.036 730.108 379.864 723.508 374.857 711.674Z" fill="#65A7EE"/>
<path d="M766.328 571.706H766.1C765.417 571.478 765.19 570.795 765.417 570.34C768.376 559.871 771.79 553.271 776.115 549.63C775.432 547.354 775.432 544.85 776.57 542.119C777.48 539.616 779.301 537.112 782.032 535.291C780.667 533.926 780.211 532.105 780.667 529.829C781.122 527.553 782.943 524.822 785.446 522.546C784.308 521.408 784.081 520.043 784.081 519.133C784.081 512.305 796.599 502.063 810.937 500.015C811.62 499.787 812.075 500.47 812.303 500.925C812.303 501.608 811.848 502.063 811.393 502.291C797.964 504.112 786.584 513.898 786.584 519.133C786.584 520.043 786.812 520.726 787.495 521.181C792.729 517.539 800.24 515.264 808.661 516.857C815.717 518.222 818.448 519.588 818.221 521.864C817.538 525.96 802.744 526.643 792.729 525.505C790.453 525.277 788.86 524.595 787.722 524.14C785.219 526.188 783.625 528.464 783.17 530.284C782.715 531.878 783.398 533.243 784.308 533.926C788.633 531.65 794.55 530.74 802.289 532.56C812.531 534.836 812.986 536.202 813.213 536.885C813.441 537.34 813.213 538.023 812.758 538.478C810.482 540.754 794.778 539.616 786.812 537.795C785.674 537.567 784.763 537.112 784.081 536.657C781.349 538.25 779.756 540.526 778.846 542.802C778.163 544.623 777.935 546.443 778.391 548.036C778.846 547.809 779.301 547.581 779.756 547.354C784.536 545.078 790.226 545.533 797.281 548.492C801.833 550.54 804.109 552.361 804.337 553.954C804.337 554.409 804.337 555.547 802.971 556.23C799.557 558.506 787.267 558.278 781.122 554.864C779.529 554.181 778.391 552.816 777.708 551.45C774.066 554.864 770.88 561.009 768.149 570.568C767.238 571.478 766.783 571.706 766.328 571.706ZM778.618 550.54C779.301 551.678 780.211 552.588 781.349 553.271C786.584 556.002 796.599 556.685 800.468 555.092C801.151 554.864 801.378 554.409 801.378 554.409C801.378 554.409 801.151 553.043 795.688 550.768C789.315 548.036 784.308 547.581 780.211 549.63C779.756 549.857 779.073 550.085 778.618 550.54ZM786.357 535.519C786.584 535.519 786.812 535.519 787.039 535.747C795.005 537.795 805.93 538.023 809.572 537.34C808.434 536.885 806.158 535.974 801.378 535.064C794.778 533.698 789.998 534.154 786.357 535.519ZM789.088 522.774C790.226 523.229 791.364 523.457 792.274 523.457C803.654 524.822 813.669 523.229 815.034 521.864C814.579 521.408 813.213 520.498 807.523 519.36C800.24 517.995 793.64 519.815 789.088 522.774Z" fill="#263238"/>
<path d="M469.995 804.075C471.588 803.62 470.905 802.254 469.312 802.254H438.586C379.865 796.109 338.897 804.303 364.844 806.351C390.79 808.399 363.023 807.944 344.132 814.999C325.241 822.055 484.561 823.875 498.9 814.999C512.101 806.579 449.283 810.675 469.995 804.075Z" fill="#192646"/>
<path d="M690.765 813.179L422.652 804.303L411.5 544.395L728.092 551.45L690.765 813.179Z" fill="#65A7EE"/>
<path d="M506.409 808.172C505.727 808.172 505.271 807.717 505.271 807.034L483.877 545.988C483.877 545.305 484.332 544.85 485.015 544.85C485.698 544.85 486.153 545.305 486.153 545.988L507.547 807.034C507.547 807.489 507.092 808.172 506.409 808.172Z" fill="#263238"/>
<path d="M690.766 813.179L762.687 802.254L785.447 560.554L728.092 551.45L690.766 813.179Z" fill="#85B5E8"/>
<path d="M445.413 754.233L438.813 599.699C438.13 583.541 451.103 570.34 467.263 570.568L667.778 575.12C684.621 575.575 697.139 590.368 694.863 606.982L672.558 762.654C670.51 776.764 658.219 787.006 643.88 786.551L472.27 780.861C457.931 780.406 446.096 768.799 445.413 754.233Z" fill="#192646"/>
<path d="M286.321 818.641L271.982 811.813L259.236 750.136L266.064 742.398L286.321 818.641Z" fill="#86B5E8"/>
<path d="M286.321 818.641L305.212 807.717L288.824 756.736L266.064 742.398L286.321 818.641Z" fill="#65A7EE"/>
<path d="M596.085 830.02C595.63 830.02 594.947 830.02 594.492 830.02C588.119 829.793 583.34 824.558 583.34 818.413C583.567 812.041 588.802 807.261 594.947 807.261C612.473 807.944 649.571 797.02 670.738 776.537C672.104 775.171 673.697 774.261 675.29 773.806C711.251 763.109 724.679 784.73 725.135 785.64L705.561 797.247C705.561 797.247 705.561 797.475 705.789 797.703C705.561 797.475 700.554 790.875 684.167 794.972C658.22 819.096 617.252 830.02 596.085 830.02Z" fill="#192646"/>
<path d="M594.947 845.041L553.523 842.538L550.109 766.068L605.871 768.116L594.947 845.041Z" fill="#65A7EE"/>
<path d="M594.945 845.041L604.732 835.483L610.65 787.689L605.87 768.116L594.945 845.041Z" fill="#86B5E8"/>
<path d="M835.065 816.137C833.699 816.137 832.106 815.682 830.968 814.772C807.298 796.792 775.434 764.93 763.143 733.977C762.916 733.522 762.916 733.067 762.688 732.612C756.771 697.108 751.081 622.231 750.853 619.045C750.625 615.175 753.357 611.989 757.226 611.762C760.868 611.534 764.281 614.265 764.509 618.134C764.509 618.817 770.427 694.604 776.117 729.881C788.407 759.923 821.637 790.647 839.389 804.075C842.348 806.351 843.031 810.675 840.755 813.634C839.162 815.227 837.113 816.137 835.065 816.137Z" fill="#192646"/>
<path d="M866.699 819.551C861.464 819.551 855.547 817.048 848.946 812.496C845.988 810.22 845.305 806.123 847.353 802.937C849.629 799.978 853.726 799.296 856.912 801.344C862.602 805.441 865.561 805.896 866.699 805.896C870.568 805.896 873.527 808.855 873.527 812.724C873.527 816.593 870.341 819.551 866.699 819.551Z" fill="#192646"/>
<path d="M850.768 812.268C858.051 790.647 888.094 794.744 898.336 798.158C908.578 801.344 917.91 805.441 923.6 809.082C929.29 812.724 929.29 818.868 921.779 822.282C912.675 826.607 889.46 822.738 889.46 822.738C901.295 827.972 889.46 836.393 868.521 828.2C861.693 825.469 848.264 820.234 850.768 812.268Z" fill="#65A7EE"/>
<path d="M778.165 628.376C775.434 646.811 760.185 660.466 747.667 658.645C735.149 656.824 734.693 640.438 737.425 622.003C740.156 603.568 744.935 590.141 757.453 591.961C769.971 593.554 780.896 609.941 778.165 628.376Z" fill="#192646"/>
<path d="M477.733 554.637C478.738 554.637 479.554 553.821 479.554 552.816C479.554 551.81 478.738 550.995 477.733 550.995C476.727 550.995 475.912 551.81 475.912 552.816C475.912 553.821 476.727 554.637 477.733 554.637Z" fill="#263238"/>
<path d="M496.624 566.244C496.624 567.382 495.714 568.064 494.803 568.064C493.893 568.064 492.982 567.154 492.982 566.244C492.982 565.106 493.893 564.423 494.803 564.423C495.714 564.423 496.624 565.333 496.624 566.244Z" fill="#263238"/>
<path d="M498.671 786.778C498.671 787.916 497.761 788.599 496.85 788.599C495.712 788.599 495.029 787.689 495.029 786.778C495.029 785.64 495.94 784.958 496.85 784.958C497.988 784.958 498.671 785.868 498.671 786.778Z" fill="#263238"/>
<path d="M515.741 800.206C515.741 801.344 514.831 802.027 513.92 802.027C512.782 802.027 512.1 801.116 512.1 800.206C512.1 799.068 513.01 798.385 513.92 798.385C515.058 798.385 515.741 799.296 515.741 800.206Z" fill="#263238"/>
<path d="M521.704 607.964L521.559 612.369L514.472 612.136L513.694 635.76L509.09 635.609L509.867 611.984L502.739 611.75L502.884 607.345L521.704 607.964Z" fill="white"/>
<path d="M540.049 636.627L538.313 630.918L526.661 630.535L524.593 636.119L519.588 635.954L530.481 608.253L536.006 608.435L545.014 636.79L540.049 636.627ZM528.285 626.259L536.974 626.545L533.071 613.589L528.285 626.259Z" fill="white"/>
<path d="M569.14 637.584L563.655 637.404L553.042 623.706L552.603 637.04L547.999 636.889L548.921 608.86L553.526 609.011L553.113 621.544L564.176 609.362L569.662 609.542L557.841 622.822L569.14 637.584Z" fill="white"/>
<path d="M593.481 634.697C590.586 637.408 587.109 638.696 583.052 638.563C578.994 638.429 575.597 636.915 572.859 634.019C570.15 631.097 568.861 627.607 568.995 623.55C569.128 619.492 570.643 616.108 573.538 613.397C576.46 610.661 579.951 609.359 584.008 609.493C588.066 609.626 591.449 611.154 594.159 614.076C596.896 616.972 598.198 620.449 598.065 624.506C597.931 628.564 596.403 631.961 593.481 634.697ZM576.205 631.002C578.065 632.961 580.396 633.986 583.199 634.078C586.002 634.17 588.382 633.3 590.34 631.467C592.325 629.608 593.365 627.238 593.46 624.355C593.555 621.472 592.673 619.051 590.813 617.092C588.981 615.108 586.663 614.07 583.86 613.978C581.058 613.885 578.664 614.769 576.678 616.627C574.721 618.46 573.694 620.818 573.6 623.701C573.505 626.584 574.373 629.018 576.205 631.002Z" fill="white"/>
<path d="M607.623 607.985L607.747 604.221L618.959 604.59L618.835 608.354L607.623 607.985ZM617.22 639.166L617.846 620.146L605.408 638.777L601.804 638.659L602.726 610.63L607.331 610.781L606.705 629.801L619.143 611.17L622.747 611.288L621.825 639.317L617.22 639.166Z" fill="white"/>
<path d="M474.146 684.007C469.928 683.868 466.477 682.365 463.792 679.497C461.108 676.603 459.833 673.1 459.969 668.99C460.104 664.879 461.605 661.481 464.473 658.796C467.341 656.084 470.884 654.798 475.102 654.937C478.332 655.043 481.157 656.085 483.577 658.062C486.025 660.013 487.56 662.495 488.182 665.508L483.337 665.349C482.806 663.621 481.77 662.224 480.229 661.158C478.688 660.065 476.93 659.486 474.954 659.421C471.965 659.323 469.504 660.191 467.573 662.025C465.669 663.859 464.669 666.231 464.573 669.141C464.478 672.051 465.32 674.483 467.099 676.439C468.905 678.396 471.303 679.424 474.293 679.522C476.269 679.587 478.06 679.138 479.669 678.176C481.278 677.186 482.404 675.847 483.048 674.158L487.893 674.318C487.101 677.258 485.42 679.634 482.848 681.447C480.276 683.26 477.376 684.113 474.146 684.007Z" fill="white"/>
<path d="M507.932 656.538L507.787 660.942L500.7 660.709L499.922 684.334L495.318 684.182L496.095 660.558L488.967 660.323L489.112 655.919L507.932 656.538Z" fill="white"/>
<path d="M521.666 656.99C524.202 657.073 526.322 658.025 528.026 659.844C529.73 661.638 530.541 663.789 530.459 666.298C530.377 668.78 529.426 670.874 527.607 672.578C525.787 674.281 523.609 675.092 521.073 675.008L515.347 674.82L515.018 684.83L510.413 684.679L511.335 656.65L521.666 656.99ZM521.215 670.684C522.47 670.725 523.539 670.306 524.423 669.426C525.334 668.548 525.811 667.454 525.854 666.146C525.897 664.838 525.493 663.716 524.642 662.78C523.818 661.844 522.778 661.355 521.524 661.314L515.798 661.126L515.489 670.495L521.215 670.684Z" fill="white"/>
<path d="M549.309 685.958L547.573 680.249L535.921 679.866L533.853 685.45L528.848 685.285L539.74 657.584L545.266 657.766L554.274 686.122L549.309 685.958ZM537.544 675.59L546.233 675.876L542.33 662.921L537.544 675.59Z" fill="white"/>
<path d="M573.396 658.691L578.001 658.843L577.079 686.872L572.474 686.72L572.876 674.508L562.265 674.159L561.863 686.371L557.258 686.22L558.18 658.191L562.785 658.342L562.41 669.754L573.02 670.103L573.396 658.691Z" fill="white"/>
<path d="M598.091 687.563L598.716 668.543L586.279 687.174L582.675 687.056L583.597 659.027L588.202 659.179L587.576 678.198L600.014 659.567L603.618 659.686L602.696 687.714L598.091 687.563Z" fill="white"/>
<path d="M628.252 684.146L631.256 684.245L630.921 694.415L626.316 694.264L626.506 688.498L608.287 687.898L609.209 659.87L613.814 660.021L613.037 683.645L623.648 683.994L624.425 660.37L629.03 660.522L628.252 684.146Z" fill="white"/>
<path d="M635.112 688.781L636.034 660.752L640.638 660.904L640.309 670.914L646.035 671.102C648.571 671.186 650.691 672.137 652.395 673.957C654.099 675.777 654.91 677.928 654.828 680.41C654.746 682.893 653.796 684.986 651.976 686.69C650.156 688.394 647.978 689.204 645.442 689.121L635.112 688.781ZM657.254 689.509L658.176 661.48L662.781 661.632L661.859 689.661L657.254 689.509ZM639.859 684.608L645.585 684.796C646.839 684.838 647.908 684.418 648.793 683.539C649.703 682.66 650.18 681.567 650.223 680.259C650.266 678.951 649.862 677.829 649.011 676.892C648.187 675.956 647.147 675.468 645.893 675.427L640.167 675.238L639.859 684.608Z" fill="white"/>
<path d="M550.689 706.971L555.294 707.122L554.372 735.151L549.767 735L550.169 722.787L539.558 722.438L539.156 734.651L534.551 734.499L535.473 706.47L540.078 706.622L539.703 718.034L550.313 718.383L550.689 706.971Z" fill="white"/>
<path d="M564.718 731.082L576.53 731.471L576.385 735.875L559.968 735.335L560.89 707.307L577.107 707.84L576.962 712.245L565.35 711.863L565.11 719.15L575.721 719.499L575.579 723.824L564.968 723.474L564.718 731.082Z" fill="white"/>
<path d="M598.114 708.531L597.969 712.936L590.882 712.702L590.105 736.327L585.5 736.175L586.277 712.551L579.15 712.317L579.295 707.912L598.114 708.531Z" fill="white"/>
</g>
<defs>
<clipPath id="clip0_171_130">
<rect width="1138" height="848" fill="white"/>
</clipPath>
</defs>
</svg>
