<svg width="13" height="22" viewBox="0 0 13 22" fill="none" xmlns="http://www.w3.org/2000/svg">
<path d="M0.96239 19.5867C0.96239 19.4237 1.04141 19.2402 1.15995 19.1179L8.92394 11.1074L1.15995 3.09685C1.04141 2.97455 0.96239 2.7911 0.96239 2.62804C0.96239 2.46497 1.04141 2.28152 1.15995 2.15923L2.14773 1.14007C2.26627 1.01777 2.44407 0.936243 2.60211 0.936243C2.76016 0.936243 2.93796 1.01777 3.05649 1.14007L12.2626 10.6386C12.3812 10.7609 12.4602 10.9443 12.4602 11.1074C12.4602 11.2705 12.3812 11.4539 12.2626 11.5762L3.05649 21.0747C2.93796 21.197 2.76016 21.2785 2.60211 21.2785C2.44407 21.2785 2.26627 21.197 2.14773 21.0747L1.15995 20.0555C1.04141 19.9333 0.96239 19.7702 0.96239 19.5867Z" fill="white"/>
</svg>
