<svg width="13" height="22" viewBox="0 0 13 22" fill="none" xmlns="http://www.w3.org/2000/svg">
<path d="M12.2278 2.41326C12.2278 2.57632 12.1488 2.75977 12.0302 2.88207L4.26625 10.8926L12.0302 18.9032C12.1488 19.0255 12.2278 19.2089 12.2278 19.372C12.2278 19.535 12.1488 19.7185 12.0302 19.8408L11.0425 20.8599C10.9239 20.9822 10.7461 21.0638 10.5881 21.0638C10.43 21.0638 10.2522 20.9822 10.1337 20.8599L0.927537 11.3614C0.809003 11.2391 0.72998 11.0557 0.72998 10.8926C0.72998 10.7295 0.809003 10.5461 0.927537 10.4238L10.1337 0.925297C10.2522 0.803 10.43 0.721466 10.5881 0.721466C10.7461 0.721466 10.9239 0.803 11.0425 0.925297L12.0302 1.94445C12.1488 2.06675 12.2278 2.22981 12.2278 2.41326Z" fill="white"/>
</svg>
