<svg width="27" height="27" viewBox="0 0 27 27" fill="none" xmlns="http://www.w3.org/2000/svg">
<path d="M22.4414 4.55191L22.4412 4.55173C20.1495 2.26725 16.9899 0.85 13.4961 0.85C10.0025 0.85 6.84268 2.25924 4.55073 4.55191L4.55054 4.5521C2.26679 6.84453 0.85 10.0052 0.85 13.5C0.85 16.9946 2.25877 20.1554 4.55073 22.4481L4.55091 22.4483C6.84263 24.7327 10.0023 26.15 13.4961 26.15C16.9896 26.15 20.1495 24.7408 22.4414 22.4481C24.7332 20.1556 26.15 16.9949 26.15 13.5C26.15 10.0051 24.7332 6.84441 22.4414 4.55191ZM13.4961 1.93666C16.6869 1.93666 19.5746 3.22561 21.6709 5.32254C23.7594 7.41169 25.0557 10.3004 25.0557 13.5C25.0557 16.6919 23.7672 19.5805 21.6709 21.6775C19.5824 23.7666 16.6946 25.0633 13.4961 25.0633C10.3052 25.0633 7.41751 23.7744 5.32124 21.6775C3.23275 19.5883 1.93641 16.6996 1.93641 13.5C1.93641 10.3081 3.22498 7.41946 5.32124 5.32254C7.40974 3.23339 10.2975 1.93666 13.4961 1.93666ZM19.3667 8.39051C19.5747 8.18247 19.5747 7.83579 19.3667 7.62775C19.1587 7.41968 18.8121 7.41968 18.6041 7.62775L13.4963 12.7372L8.38844 7.62775C8.18044 7.41968 7.83379 7.41968 7.62579 7.62775C7.41781 7.83579 7.41781 8.18247 7.62579 8.3905L12.7337 13.5L7.62579 18.6095C7.41781 18.8175 7.41781 19.1642 7.62579 19.3723C7.83379 19.5803 8.18044 19.5803 8.38844 19.3723L13.4963 14.2628L18.6041 19.3723C18.8121 19.5803 19.1587 19.5803 19.3667 19.3723C19.5747 19.1642 19.5747 18.8175 19.3667 18.6095L14.2588 13.5L19.3667 8.39051Z" fill="white" stroke="white" stroke-width="0.3"/>
</svg>
