<svg width="57" height="40" viewBox="0 0 57 40" fill="none" xmlns="http://www.w3.org/2000/svg">
<path d="M15.3592 20.3895V5.38954C15.0824 -1.79651 4.90935 -1.79651 4.63253 5.38954V13.064C4.63253 13.9709 6.01661 13.9709 6.01661 13.064V5.38954C6.01661 3.15698 7.81592 1.34302 10.0305 1.34302C12.245 1.34302 13.9751 3.15698 13.9751 5.38954V20.8081C13.9751 21.0872 14.1135 21.2965 14.3211 21.436C21.9336 25.9012 18.8194 37.6221 10.0305 37.6919C5.25537 37.6221 1.37994 33.7151 1.37994 28.9012C1.37994 25.8314 3.04084 22.9012 5.7398 21.3663C5.94741 21.2267 6.08582 21.0174 6.08582 20.7384V16.6919C6.08582 15.7849 4.70174 15.7849 4.70174 16.6919V20.3895C-3.81037 25.8314 -0.00414658 39.0174 10.0305 39.0174C19.9959 39.0174 23.8021 25.8314 15.3592 20.3895Z" fill="#192646"/>
<path d="M11.5529 18.6453C11.9682 18.6453 12.245 18.3663 12.245 17.9477V5.52907C12.245 5.11047 11.9682 4.8314 11.5529 4.8314H8.43876C8.02353 4.8314 7.74672 5.11047 7.74672 5.52907V22.343C4.97855 23.3198 3.04084 25.9709 3.04084 28.9012C3.38686 38.1802 16.4664 38.1802 16.8817 28.9012C16.8817 25.9012 15.0132 23.25 12.1758 22.343V21.436C12.1758 20.5291 10.7917 20.5291 10.7917 21.436V22.9012C10.7917 23.25 10.9993 23.5291 11.2761 23.5988C17.5045 25.343 16.328 34.4826 9.89205 34.5523C6.84706 34.5523 4.35572 32.0407 4.35572 28.9709C4.35572 26.4593 6.08582 24.2267 8.50796 23.5988C8.78478 23.5291 9.0616 23.25 9.0616 22.9012V6.22674H10.7917V17.9477C10.8609 18.3663 11.2069 18.6453 11.5529 18.6453Z" fill="#192646"/>
<path d="M40.3592 20.3895V5.38954C40.0824 -1.79651 29.9093 -1.79651 29.6325 5.38954V13.064C29.6325 13.9709 31.0166 13.9709 31.0166 13.064V5.38954C31.0166 3.15698 32.8159 1.34302 35.0305 1.34302C37.245 1.34302 38.9751 3.15698 38.9751 5.38954V20.8081C38.9751 21.0872 39.1135 21.2965 39.3211 21.436C46.9336 25.9012 43.8194 37.6221 35.0305 37.6919C30.2554 37.6221 26.3799 33.7151 26.3799 28.9012C26.3799 25.8314 28.0408 22.9012 30.7398 21.3663C30.9474 21.2267 31.0858 21.0174 31.0858 20.7384V16.6919C31.0858 15.7849 29.7017 15.7849 29.7017 16.6919V20.3895C21.1896 25.8314 24.9959 39.0174 35.0305 39.0174C44.9959 39.0174 48.8021 25.8314 40.3592 20.3895Z" fill="#192646"/>
<path d="M36.5529 18.6453C36.9682 18.6453 37.245 18.3663 37.245 17.9477V5.52907C37.245 5.11047 36.9682 4.8314 36.5529 4.8314H33.4388C33.0235 4.8314 32.7467 5.11047 32.7467 5.52907V22.343C29.9786 23.3198 28.0408 25.9709 28.0408 28.9012C28.3869 38.1802 41.4664 38.1802 41.8817 28.9012C41.8817 25.9012 40.0132 23.25 37.1758 22.343V21.436C37.1758 20.5291 35.7917 20.5291 35.7917 21.436V22.9012C35.7917 23.25 35.9993 23.5291 36.2761 23.5988C42.5045 25.343 41.328 34.4826 34.892 34.5523C31.8471 34.5523 29.3557 32.0407 29.3557 28.9709C29.3557 26.4593 31.0858 24.2267 33.508 23.5988C33.7848 23.5291 34.0616 23.25 34.0616 22.9012V6.22674H35.7917V17.9477C35.8609 18.3663 36.2069 18.6453 36.5529 18.6453Z" fill="#192646"/>
<circle cx="35" cy="29" r="6" fill="#192646"/>
<path d="M51 7L45.2265 17H56.7735L51 7ZM52 29V16H50V29H52Z" fill="#192646"/>
</svg>
