<svg width="27" height="27" viewBox="0 0 27 27" fill="none" xmlns="http://www.w3.org/2000/svg">
<path d="M1.20692 10.6153L1.20688 10.6153L1.20602 10.6188C1.17523 10.744 1.20671 10.8748 1.26887 10.9731C1.32791 11.0664 1.43107 11.1539 1.567 11.1615C1.68754 11.1863 1.80933 11.1529 1.90357 11.0954C2.0026 11.035 2.09152 10.9358 2.12255 10.8096C2.39342 9.70844 2.77958 8.64972 3.35752 7.63152C5.59508 3.75037 9.68438 1.67173 13.8139 1.75014C15.7031 1.78934 17.5932 2.29865 19.369 3.3187C25.0017 6.57326 26.8923 13.7486 23.6513 19.356C20.4103 24.9634 13.2341 26.8844 7.64015 23.6301L7.63891 23.6294C4.74625 21.9831 2.81757 19.2393 2.12317 16.1812L2.12319 16.1812L2.12255 16.1786C2.09152 16.0524 2.0026 15.9531 1.90357 15.8927C1.80469 15.8324 1.67547 15.7986 1.5492 15.8307C1.42313 15.8628 1.32535 15.954 1.26647 16.0537C1.20756 16.1535 1.17511 16.2828 1.20592 16.4086C1.99647 19.6626 4.05234 22.6368 7.21629 24.4457C13.2662 27.9418 20.9778 25.8925 24.4581 19.8238C27.938 13.7955 25.8819 6.03932 19.8317 2.5427C17.9729 1.45755 15.8771 0.894814 13.8594 0.854516C9.39141 0.734154 4.96245 3.02445 2.58932 7.20424C1.95596 8.29064 1.52185 9.45509 1.20692 10.6153ZM13.0416 6.08246C12.746 6.19664 12.6351 6.60962 12.8893 6.86801L12.8903 6.86898L19.081 13.0462H1.31261C1.18481 13.0462 1.07018 13.1096 0.990769 13.1903C0.911207 13.2712 0.85 13.3866 0.85 13.5139C0.85 13.7645 1.08263 13.9816 1.35168 13.9816H19.081L12.8903 20.1589L12.8893 20.1599C12.7147 20.3374 12.7147 20.6296 12.8893 20.8071C13.0651 20.9858 13.3564 20.986 13.5325 20.8077C13.5326 20.8075 13.5328 20.8073 13.533 20.8071L20.5267 13.8186L20.5275 13.8177C20.7022 13.6402 20.7022 13.348 20.5275 13.1704L20.5267 13.1696L13.533 6.18104C13.5328 6.18087 13.5327 6.1807 13.5325 6.18053C13.5006 6.14823 13.4495 6.11067 13.3972 6.08117C13.3488 6.0538 13.2714 6.01711 13.1916 6.01711H13.0416V6.08246Z" fill="white" stroke="white" stroke-width="0.3"/>
</svg>
