<svg width="33" height="33" viewBox="0 0 33 33" fill="none" xmlns="http://www.w3.org/2000/svg">
<path d="M32.8553 15.3421C32.8553 14.7632 32.5658 14.1842 32.1316 13.75C31.8421 13.1711 31.2632 13.0263 30.5395 13.0263H28.3684C28.0789 12.0132 27.6447 11.1447 27.2105 10.2763L28.8026 8.68421C29.6711 7.81579 29.6711 6.36842 28.8026 5.35526L27.3553 3.9079C26.4868 3.03947 24.8947 3.03947 24.0263 3.9079L22.4342 5.5C21.5658 5.06579 20.6974 4.63158 19.8289 4.48684V2.31579C19.6842 1.01316 18.6711 0 17.3684 0H15.3421C14.0395 0 13.0263 1.01316 13.0263 2.31579V4.77632C12.1579 5.06579 11.2895 5.35526 10.4211 5.78947L8.68421 4.19737C7.81579 3.32895 6.22368 3.32895 5.35526 4.19737L3.9079 5.64474C3.61842 6.07895 3.32895 6.6579 3.32895 7.23684C3.32895 7.81579 3.61842 8.39474 4.05263 8.82895L5.78947 10.5658C5.35526 11.4342 4.92105 12.3026 4.63158 13.1711H2.31579C1.01316 13.1711 0 14.1842 0 15.4868V17.5132C0 18.8158 1.01316 19.8289 2.31579 19.8289H4.63158C4.92105 20.8421 5.35526 21.7105 5.78947 22.5789L4.19737 24.1711C3.32895 25.0395 3.32895 26.4868 4.19737 27.5L5.64474 28.9474C6.51316 29.8158 8.10526 29.8158 8.97368 28.9474L10.5658 27.3553C11.4342 27.7895 12.3026 28.2237 13.3158 28.5132V30.6842C13.3158 31.9868 14.3289 33 15.6316 33H17.6579C18.9605 33 19.9737 31.9868 19.9737 30.6842V28.5132C20.9868 28.2237 21.8553 27.7895 22.7237 27.3553L24.1711 28.8026C25.0395 29.6711 26.6316 29.6711 27.5 28.8026L28.9474 27.3553C29.8158 26.4868 29.8158 25.0395 28.9474 24.0263L27.5 22.5789C27.9342 21.7105 28.3684 20.6974 28.6579 19.8289H30.6842C31.9868 19.8289 33 18.8158 33 17.5132L32.8553 15.3421ZM30.5395 18.5263H27.9342C27.6447 18.5263 27.3553 18.6711 27.3553 18.9605C27.0658 20.1184 26.6316 21.2763 26.0526 22.2895C25.9079 22.5789 25.9079 22.8684 26.1974 23.0132L28.0789 24.8947C28.5132 25.3289 28.5132 26.0526 28.0789 26.4868L26.6316 27.9342C26.1974 28.3684 25.4737 28.3684 25.0395 27.9342L23.1579 26.1974C23.0132 26.0526 22.7237 25.9079 22.4342 26.0526C21.4211 26.6316 20.2632 27.2105 19.1053 27.3553C18.8158 27.3553 18.6711 27.6447 18.6711 27.9342V30.5395C18.6711 30.8289 18.5263 31.1184 18.3816 31.4079C18.0921 31.6974 17.8026 31.6974 17.5132 31.6974H15.4868C14.9079 31.6974 14.3289 31.1184 14.3289 30.5395V27.9342C14.3289 27.6447 14.1842 27.5 13.8947 27.3553C12.7368 27.0658 11.7237 26.6316 10.7105 26.0526C10.5658 26.0526 10.5658 26.0526 10.4211 26.0526C10.2763 26.0526 10.1316 26.0526 9.98684 26.1974L8.10526 28.0789C7.67105 28.5132 6.94737 28.5132 6.51316 28.0789L5.06579 26.6316C4.63158 26.1974 4.63158 25.4737 5.06579 25.0395L6.94737 23.1579C7.09211 23.0132 7.23684 22.7237 7.09211 22.4342C6.51316 21.4211 6.07895 20.4079 5.78947 19.25C5.78947 18.9605 5.5 18.8158 5.21053 18.8158H2.31579C1.73684 18.8158 1.15789 18.2368 1.15789 17.6579V15.6316C1.15789 15.0526 1.73684 14.4737 2.31579 14.4737H5.06579C5.35526 14.4737 5.5 14.3289 5.64474 14.0395C5.93421 12.8816 6.36842 11.8684 6.94737 11C7.09211 10.5658 7.09211 10.2763 6.94737 10.1316L4.77632 8.10526C4.63158 7.81579 4.48684 7.52632 4.48684 7.23684C4.48684 6.94737 4.63158 6.6579 4.77632 6.36842L6.22368 4.92105C6.6579 4.48684 7.38158 4.48684 7.81579 4.92105L9.84211 6.94737C10.1316 7.23684 10.4211 7.23684 10.7105 7.09211C11.5789 6.51316 12.5921 6.07895 13.75 5.78947C14.0395 5.78947 14.1842 5.5 14.1842 5.21053V2.31579C14.1842 1.73684 14.7632 1.15789 15.3421 1.15789H17.3684C17.9474 1.15789 18.5263 1.73684 18.5263 2.31579V5.06579C18.5263 5.35526 18.6711 5.5 18.9605 5.64474C20.1184 5.93421 21.1316 6.36842 22.1447 6.94737C22.4342 7.09211 22.7237 7.09211 22.8684 6.80263L24.8947 4.77632C25.3289 4.34211 26.0526 4.34211 26.4868 4.77632L27.9342 6.22368C28.3684 6.6579 28.3684 7.38158 27.9342 7.81579L26.0526 9.84211C25.9079 9.98684 25.7632 10.2763 25.9079 10.5658C26.4868 11.5789 27.0658 12.5921 27.3553 13.75C27.3553 14.0395 27.6447 14.1842 27.9342 14.1842H30.5395C30.8289 14.1842 31.1184 14.3289 31.4079 14.4737C31.6974 14.7632 31.6974 15.0526 31.6974 15.3421V17.3684C31.6974 18.0921 31.2632 18.5263 30.5395 18.5263Z" fill="#192646"/>
<path d="M16.5 10.7105C13.3158 10.7105 10.7105 13.3158 10.7105 16.5C10.7105 19.6842 13.3158 22.2895 16.5 22.2895C19.6842 22.2895 22.2895 19.6842 22.2895 16.5C22.2895 13.3158 19.6842 10.7105 16.5 10.7105ZM16.5 21.1316C13.8947 21.1316 11.8684 19.1053 11.8684 16.5C11.8684 13.8947 13.8947 11.8684 16.5 11.8684C19.1053 11.8684 21.1316 13.8947 21.1316 16.5C21.1316 19.1053 18.9605 21.1316 16.5 21.1316Z" fill="#192646"/>
</svg>
