<svg width="35" height="35" viewBox="0 0 35 35" fill="none" xmlns="http://www.w3.org/2000/svg">
<path d="M27.1437 3.95824L27.1352 3.94978L27.1255 3.94277C24.3306 1.92022 20.9419 0.85 17.4944 0.85C8.28068 0.85 0.85 8.28328 0.85 17.5C0.85 26.7167 8.28068 34.15 17.4944 34.15C21.5958 34.15 25.5191 32.6633 28.6097 29.9284L28.6104 29.9278C35.4464 23.803 36.041 13.2779 29.9181 6.43923L29.9182 6.43908L29.9124 6.43324C29.6391 6.15983 29.1886 6.06107 28.8755 6.37431C28.603 6.64686 28.5041 7.09541 28.8137 7.40848C33.5945 12.7183 34.0021 20.5938 29.8611 26.3697L29.8608 26.3702C24.9607 33.256 15.5112 34.8317 8.62731 29.9296C1.7438 25.0278 0.168618 15.5751 5.06909 8.68876C9.96908 1.8031 19.4764 0.227758 26.3009 5.12814C26.6069 5.35664 26.9886 5.27492 27.2101 4.98773C27.5141 4.67489 27.4148 4.22944 27.1437 3.95824ZM14.9881 27.5179C14.9881 28.8971 16.1155 30.025 17.4944 30.025C18.8733 30.025 20.0007 28.8971 20.0007 27.5179V14.5536C20.0007 13.1743 18.8733 12.0464 17.4944 12.0464C16.1155 12.0464 14.9881 13.1743 14.9881 14.5536V27.5179ZM16.4662 14.5536C16.4662 13.9882 16.9293 13.525 17.4944 13.525C18.0595 13.525 18.5226 13.9882 18.5226 14.5536V27.5179C18.5226 28.0833 18.0595 28.5464 17.4944 28.5464C16.9293 28.5464 16.4662 28.0833 16.4662 27.5179V14.5536ZM19.7062 7.77679C19.7062 6.57435 18.6966 5.56429 17.4944 5.56429C16.2923 5.56429 15.2826 6.57435 15.2826 7.77679C15.2826 8.97922 16.2923 9.98929 17.4944 9.98929C18.6966 9.98929 19.7062 8.97922 19.7062 7.77679Z" fill="#192646" stroke="#192646" stroke-width="0.3"/>
</svg>
