<svg width="25" height="32" viewBox="0 0 25 32" fill="none" xmlns="http://www.w3.org/2000/svg">
<path d="M22.5 13.4194H21.5V9.54839C21.5 4.28387 17.35 0 12.25 0C7.15 0 3 4.28387 3 9.54839V13.4194H2.5C1.1 13.4194 0 14.5548 0 16V29.4194C0 30.8645 1.1 32 2.5 32H22.5C23.9 32 25 30.8645 25 29.4194V16C25 14.5548 23.9 13.4194 22.5 13.4194ZM4 9.54839C4 4.85161 7.7 1.03226 12.25 1.03226C16.8 1.03226 20.5 4.85161 20.5 9.54839V13.4194H18.5V9.54839C18.5 5.9871 15.7 3.09677 12.25 3.09677C8.8 3.09677 6 5.9871 6 9.54839V13.4194H4V9.54839ZM17.5 13.4194H7V9.54839C7 6.55484 9.35 4.12903 12.25 4.12903C15.15 4.12903 17.5 6.55484 17.5 9.54839V13.4194ZM24 29.4194C24 30.2968 23.35 30.9677 22.5 30.9677H2.5C1.65 30.9677 1 30.2968 1 29.4194V16C1 15.1226 1.65 14.4516 2.5 14.4516H22.5C23.35 14.4516 24 15.1226 24 16V29.4194ZM12.5 18.5806C11.4 18.5806 10.5 19.5097 10.5 20.6452V24.7742C10.5 25.9097 11.4 26.8387 12.5 26.8387C13.6 26.8387 14.5 25.9097 14.5 24.7742V20.6452C14.5 19.5097 13.6 18.5806 12.5 18.5806ZM13.5 24.7742C13.5 25.3419 13.05 25.8064 12.5 25.8064C11.95 25.8064 11.5 25.3419 11.5 24.7742V20.6452C11.5 20.0774 11.95 19.6129 12.5 19.6129C13.05 19.6129 13.5 20.0774 13.5 20.6452V24.7742Z" fill="#192646"/>
</svg>
