<svg width="55" height="55" viewBox="0 0 55 55" fill="none" xmlns="http://www.w3.org/2000/svg">
<path d="M46.0615 47.1246C51.405 42.0221 54.5 34.9422 54.5 27.5C54.5 12.6424 42.4335 0.5 27.5 0.5C12.6415 0.5 0.5 12.6415 0.5 27.5C0.5 35.1187 3.74343 42.3576 9.3223 47.4841L9.3222 47.4842L9.33136 47.4922L9.38268 47.5371V47.838H9.72654L9.91101 47.9994L10.3898 48.4782L10.4106 48.4365L10.7528 48.736V48.6233C15.5135 52.413 21.3718 54.5 27.5 54.5C33.5713 54.5 39.442 52.4516 44.2472 48.7292V48.736L44.3167 48.6752C44.6218 48.4373 44.9225 48.1926 45.2187 47.9413L45.3405 47.838H45.6173V47.6155C45.6631 47.5735 45.7066 47.5299 45.7516 47.4849L45.767 47.4695L45.915 47.3214L46.0615 47.175V47.1246ZM27.574 28.8506C27.5617 28.8506 27.5493 28.8506 27.537 28.8506C27.5247 28.8506 27.5123 28.8506 27.5 28.8506C18.0508 28.8506 10.3609 35.7668 9.19328 44.907C4.72484 40.2539 2.24022 33.9762 2.24022 27.5C2.24022 13.5639 13.5639 2.24022 27.5 2.24022C41.4361 2.24022 52.7598 13.5639 52.7598 27.5C52.7598 33.9237 50.2492 40.1572 45.8952 44.8023C44.6586 35.7329 37.0082 28.8506 27.574 28.8506ZM11.0963 46.5882L10.7765 46.3141C11.0409 41.9496 12.8936 38.0861 15.7609 35.2724C18.7732 32.3628 22.8821 30.5908 27.426 30.5908C36.4838 30.5908 43.6977 37.5192 44.1636 46.4743L44.1326 46.5053L43.9517 46.6259L43.4774 46.9421L43.5407 47.0146C39.0451 50.6655 33.3763 52.6858 27.574 52.6858C21.5497 52.6858 15.6692 50.5079 11.0963 46.5882ZM17.8212 16.4707C17.8212 21.7803 22.1903 26.1494 27.5 26.1494C32.8863 26.1494 37.1788 21.7777 37.1788 16.4707C37.1788 11.161 32.8097 6.7919 27.5 6.7919C22.1903 6.7919 17.8212 11.161 17.8212 16.4707ZM19.5615 16.4707C19.5615 12.0834 23.1127 8.53212 27.5 8.53212C31.8873 8.53212 35.4385 12.0834 35.4385 16.4707C35.4385 20.8579 31.8873 24.4092 27.5 24.4092C23.1127 24.4092 19.5615 20.8579 19.5615 16.4707Z" fill="#192646" stroke="#192646"/>
</svg>
