<svg width="23" height="13" viewBox="0 0 23 13" fill="none" xmlns="http://www.w3.org/2000/svg">
<path d="M2.47125 0.280754C2.64628 0.280754 2.84319 0.365577 2.97447 0.492812L11.573 8.82669L20.1715 0.492812C20.3028 0.365577 20.4997 0.280754 20.6747 0.280754C20.8498 0.280754 21.0467 0.365577 21.178 0.492812L22.2719 1.5531C22.4032 1.68034 22.4907 1.87119 22.4907 2.04084C22.4907 2.21048 22.4032 2.40133 22.2719 2.52857L12.0762 12.4105C11.9449 12.5377 11.748 12.6225 11.573 12.6225C11.398 12.6225 11.2011 12.5377 11.0698 12.4105L0.874066 2.52857C0.742792 2.40133 0.655273 2.21048 0.655273 2.04084C0.655273 1.87119 0.742792 1.68034 0.874066 1.5531L1.96803 0.492812C2.0993 0.365577 2.27434 0.280754 2.47125 0.280754Z" fill="white"/>
</svg>
