<svg width="23" height="20" viewBox="0 0 23 20" fill="none" xmlns="http://www.w3.org/2000/svg">
<path d="M1.50379 7.79951L0.0273493 2.81174C-0.0694663 2.51834 0.099961 2.22494 0.390408 2.15159C0.680855 2.05379 0.971302 2.22494 1.04391 2.51834L2.2299 6.50367C3.63373 2.71394 7.26432 0 11.5 0C15.8567 0 19.5599 2.86064 20.8669 6.82152C20.9879 7.16381 20.7217 7.53056 20.3586 7.53056C20.1408 7.53056 19.923 7.38386 19.8503 7.16381C18.6886 3.64303 15.3968 1.07579 11.5 1.07579C7.65158 1.07579 4.35985 3.56968 3.17386 7.06601L7.1917 5.84352C7.48215 5.74572 7.7726 5.91687 7.84521 6.21027C7.94203 6.50367 7.7726 6.79707 7.48215 6.87042L2.54456 8.36186C2.10889 8.50856 1.64901 8.26406 1.50379 7.79951Z" fill="white"/>
<path d="M21.9561 17.4817L20.7701 13.4963C19.3663 17.2861 15.7357 20 11.5 20C7.1433 20 3.4401 17.1394 2.13309 13.1785C2.01207 12.8362 2.27831 12.4694 2.64137 12.4694C2.85921 12.4694 3.07704 12.6161 3.14965 12.8362C4.31144 16.357 7.60317 18.9242 11.5 18.9242C15.3484 18.9242 18.6402 16.4303 19.8261 12.934L15.8083 14.1565C15.5178 14.2543 15.2274 14.0831 15.1548 13.7897C15.058 13.4963 15.2274 13.2029 15.5178 13.1296L20.4554 11.6381C20.8911 11.4914 21.3752 11.7604 21.4962 12.2005L22.9727 17.1883C23.0695 17.4817 22.9 17.7751 22.6096 17.8484C22.3433 17.9462 22.0287 17.7751 21.9561 17.4817Z" fill="white"/>
</svg>
