<svg width="53" height="53" viewBox="0 0 53 53" fill="none" xmlns="http://www.w3.org/2000/svg">
<path fill-rule="evenodd" clip-rule="evenodd" d="M32.9144 14.8374C40.6895 19.1137 42.2445 29.6748 35.9597 35.9597C27.6015 44.3178 13.2176 38.357 13.2176 26.5C13.2176 21.5758 15.9389 17.1051 20.1504 14.7726L21.3166 16.9755C14.967 20.4743 13.7359 29.0269 18.8545 34.1455C25.6577 40.9487 37.3851 36.0892 37.3851 26.5C37.3851 22.4829 35.1822 18.8545 31.7482 16.9755L32.9144 14.8374ZM26.5 0C11.857 0 0 11.857 0 26.5C0 41.143 11.857 53 26.5 53C41.143 53 53 41.143 53 26.5C53 11.857 41.143 0 26.5 0ZM43.4755 9.52445C34.0807 0.129584 18.8545 0.129584 9.52445 9.52445C0.129584 18.9193 0.129584 34.1455 9.52445 43.4755C18.9193 52.8056 34.1455 52.8704 43.4755 43.4755C52.8056 34.0807 52.8704 18.9193 43.4755 9.52445ZM25.2689 12.7641V20.4743C25.2689 22.0941 27.7311 22.0941 27.7311 20.4743V12.6993C27.7311 11.0795 25.2689 11.0795 25.2689 12.7641Z" fill="#65A7EE"/>
</svg>
