<svg width="66" height="66" viewBox="0 0 66 66" fill="none" xmlns="http://www.w3.org/2000/svg">
<path fill-rule="evenodd" clip-rule="evenodd" d="M40.9878 18.4768C50.6699 23.802 52.6064 36.9535 44.78 44.78C34.3716 55.1883 16.4597 47.7653 16.4597 33C16.4597 26.868 19.8484 21.3007 25.0929 18.3961L26.5452 21.1394C18.6381 25.4963 17.1051 36.1467 23.4792 42.5208C31.9511 50.9927 46.555 44.9413 46.555 33C46.555 27.9976 43.8117 23.4792 39.5355 21.1394L40.9878 18.4768ZM33 0C14.7653 0 0 14.7653 0 33C0 51.2347 14.7653 66 33 66C51.2347 66 66 51.2347 66 33C66 14.7653 51.2347 0 33 0ZM54.1394 11.8606C42.4401 0.161369 23.4792 0.161369 11.8606 11.8606C0.161369 23.5599 0.161369 42.5208 11.8606 54.1394C23.5599 65.7579 42.5208 65.8386 54.1394 54.1394C65.7579 42.4401 65.8386 23.5599 54.1394 11.8606ZM31.467 15.8949V25.4963C31.467 27.5134 34.533 27.5134 34.533 25.4963V15.8142C34.533 13.7971 31.467 13.7971 31.467 15.8949Z" fill="black"/>
</svg>
