<svg width="33" height="33" viewBox="0 0 33 33" fill="none" xmlns="http://www.w3.org/2000/svg">
<path d="M16.5 4.72005C14.6443 4.72005 13.1516 6.21271 13.1516 8.06846C13.1516 8.14914 13.1516 8.22983 13.1516 8.35086L13.9988 18.9205C14.1198 20.2922 15.3301 21.3007 16.7017 21.22C17.912 21.1394 18.8802 20.1712 19.0012 18.9205L19.8484 8.35086C20.0098 6.49511 18.6381 4.88142 16.7824 4.72005C16.7017 4.72005 16.5807 4.72005 16.5 4.72005ZM17.3875 18.7995C17.3472 19.2836 16.9034 19.6467 16.4193 19.6064C16.0159 19.566 15.6528 19.2433 15.6125 18.7995L14.7653 8.22983C14.7249 7.74572 14.8863 7.26161 15.209 6.89853C15.8545 6.17237 16.9841 6.13203 17.6699 6.81785C17.7103 6.85819 17.7506 6.89853 17.7506 6.89853C18.0733 7.26161 18.2347 7.74572 18.1944 8.22983L17.3875 18.7995ZM16.5 22.3496C14.846 22.3496 13.5147 23.6809 13.5147 25.335C13.5147 26.989 14.846 28.3203 16.5 28.3203C18.154 28.3203 19.4853 26.989 19.4853 25.335C19.4853 23.6809 18.154 22.3496 16.5 22.3496ZM16.5 26.6663C15.7335 26.6663 15.1284 26.0611 15.1284 25.2946C15.1284 24.5281 15.7335 23.923 16.5 23.923C17.2665 23.923 17.8716 24.5281 17.8716 25.2946C17.8716 26.0611 17.2665 26.6663 16.5 26.6663ZM16.5 0C7.38264 0 0 7.38264 0 16.5C0 25.6174 7.38264 33 16.5 33C25.6174 33 33 25.6174 33 16.5C33 7.38264 25.6174 0 16.5 0ZM16.5 31.3863C8.27017 31.3863 1.61369 24.7298 1.61369 16.5C1.61369 8.27017 8.27017 1.61369 16.5 1.61369C24.7298 1.61369 31.3863 8.27017 31.3863 16.5C31.3863 24.7298 24.7298 31.3863 16.5 31.3863Z" fill="#192646"/>
</svg>
