<svg width="64" height="64" viewBox="0 0 64 64" fill="none" xmlns="http://www.w3.org/2000/svg">
<g filter="url(#filter0_f_4_34589)">
<path d="M21.0645 51.7391C20.1355 47.913 17.9677 46.3188 17 46H53C51.4516 47.7536 49.5161 50.2087 49.5161 51.7391C49.5161 53.2696 49.9032 55.8841 50.6774 57H19.9032C20.6774 56.8406 21.9935 55.5652 21.0645 51.7391Z" fill="url(#paint0_linear_4_34589)"/>
</g>
<g filter="url(#filter1_d_4_34589)">
<path fill-rule="evenodd" clip-rule="evenodd" d="M53 29.5121C53 29.5081 53 29.504 53 29.5C53 22.5964 47.4036 17 40.5 17C35.1094 17 30.5158 20.4122 28.7613 25.1945C28.1946 25.0672 27.6051 25 27 25C22.5817 25 19 28.5817 19 33C19 33.0236 19.0001 33.0473 19.0003 33.0708C15.6079 33.5559 13 36.4734 13 40C13 43.866 16.134 47 20 47H50C54.9706 47 59 42.9706 59 38C59 34.0813 56.4956 30.7476 53 29.5121Z" fill="#64748B"/>
</g>
<g filter="url(#filter2_ii_4_34589)">
<path fill-rule="evenodd" clip-rule="evenodd" d="M59 38C59 42.9706 54.9706 47 50 47H20C16.134 47 13 43.866 13 40C13 36.134 16.134 33 20 33C22.7924 33 25.2029 34.6351 26.3264 37H41.0549C41.5524 32.5 45.3674 29 50 29C54.9706 29 59 33.0294 59 38Z" fill="#F1F5F9"/>
</g>
<g filter="url(#filter3_f_4_34589)">
<circle cx="20" cy="40" r="5" fill="url(#paint1_linear_4_34589)" style="mix-blend-mode:soft-light"/>
</g>
<g filter="url(#filter4_i_4_34589)">
<circle cx="27" cy="33" r="8" fill="#F1F5F9"/>
</g>
<g filter="url(#filter5_f_4_34589)">
<ellipse cx="27" cy="32" rx="6" ry="5" fill="url(#paint2_linear_4_34589)" style="mix-blend-mode:soft-light"/>
</g>
<g filter="url(#filter6_f_4_34589)">
<circle cx="51" cy="37" r="5" fill="url(#paint3_linear_4_34589)" style="mix-blend-mode:soft-light"/>
</g>
<g filter="url(#filter7_i_4_34589)">
<circle cx="40.5" cy="29.5" r="12.5" fill="#F1F5F9"/>
</g>
<g filter="url(#filter8_f_4_34589)">
<ellipse cx="40" cy="24" rx="7" ry="5" fill="url(#paint4_linear_4_34589)" style="mix-blend-mode:soft-light"/>
</g>
<g filter="url(#filter9_i_4_34589)">
<ellipse cx="36" cy="37.5" rx="9" ry="6.5" fill="url(#paint5_linear_4_34589)"/>
</g>
<g filter="url(#filter10_f_4_34589)">
<ellipse cx="36" cy="37.5" rx="7" ry="4.5" fill="url(#paint6_linear_4_34589)" style="mix-blend-mode:soft-light"/>
</g>
<path fill-rule="evenodd" clip-rule="evenodd" d="M53 29.5121C53 29.5081 53 29.504 53 29.5C53 22.5964 47.4036 17 40.5 17C35.1094 17 30.5158 20.4122 28.7613 25.1945C28.1946 25.0672 27.6051 25 27 25C22.5817 25 19 28.5817 19 33C19 33.0236 19.0001 33.0473 19.0003 33.0708C15.6079 33.5559 13 36.4734 13 40C13 43.866 16.134 47 20 47H50C54.9706 47 59 42.9706 59 38C59 34.0813 56.4956 30.7476 53 29.5121Z" fill="#93C5FD" style="mix-blend-mode:color"/>
<path fill-rule="evenodd" clip-rule="evenodd" d="M53 29.5121C53 29.5081 53 29.504 53 29.5C53 22.5964 47.4036 17 40.5 17C35.1094 17 30.5158 20.4122 28.7613 25.1945C28.1946 25.0672 27.6051 25 27 25C22.5817 25 19 28.5817 19 33C19 33.0236 19.0001 33.0473 19.0003 33.0708C15.6079 33.5559 13 36.4734 13 40C13 43.866 16.134 47 20 47H50C54.9706 47 59 42.9706 59 38C59 34.0813 56.4956 30.7476 53 29.5121Z" fill="#93C5FD" fill-opacity="0.2" style="mix-blend-mode:multiply"/>
<g filter="url(#filter11_ii_4_34589)">
<path d="M23.0088 56.9402L26.6235 51.0253C26.7413 50.8325 27.0384 50.9524 26.9893 51.1729L25.4856 57.9398C25.3479 58.5593 24.7985 59 24.164 59C23.1067 59 22.4575 57.8423 23.0088 56.9402Z" fill="#3B82F6"/>
</g>
<path d="M25.0704 58.0909C24.8545 58.5992 24.2674 58.8363 23.7591 58.6203C23.2507 58.4044 23.0137 57.8173 23.2296 57.309C23.4456 56.8006 25.7417 52.2841 26.25 52.5C26.7583 52.7159 25.2864 57.5826 25.0704 58.0909Z" fill="url(#paint7_radial_4_34589)"/>
<g filter="url(#filter12_ii_4_34589)">
<path d="M29.5088 56.9402L33.1235 51.0253C33.2413 50.8325 33.5384 50.9524 33.4893 51.1729L31.9856 57.9398C31.8479 58.5593 31.2985 59 30.664 59C29.6067 59 28.9575 57.8423 29.5088 56.9402Z" fill="#3B82F6"/>
</g>
<path d="M31.5704 58.0909C31.3545 58.5992 30.7674 58.8363 30.2591 58.6203C29.7507 58.4044 29.5137 57.8173 29.7296 57.309C29.9456 56.8006 32.2417 52.2841 32.75 52.5C33.2583 52.7159 31.7864 57.5826 31.5704 58.0909Z" fill="url(#paint8_radial_4_34589)"/>
<g filter="url(#filter13_ii_4_34589)">
<path d="M36.0088 56.9402L39.6235 51.0253C39.7413 50.8325 40.0384 50.9524 39.9893 51.1729L38.4856 57.9398C38.3479 58.5593 37.7985 59 37.164 59C36.1067 59 35.4575 57.8423 36.0088 56.9402Z" fill="#3B82F6"/>
</g>
<path d="M38.0704 58.0909C37.8545 58.5992 37.2674 58.8363 36.7591 58.6203C36.2507 58.4044 36.0137 57.8173 36.2296 57.309C36.4456 56.8006 38.7417 52.2841 39.25 52.5C39.7583 52.7159 38.2864 57.5826 38.0704 58.0909Z" fill="url(#paint9_radial_4_34589)"/>
<defs>
<filter id="filter0_f_4_34589" x="15" y="44" width="40" height="15" filterUnits="userSpaceOnUse" color-interpolation-filters="sRGB">
<feFlood flood-opacity="0" result="BackgroundImageFix"/>
<feBlend mode="normal" in="SourceGraphic" in2="BackgroundImageFix" result="shape"/>
<feGaussianBlur stdDeviation="1" result="effect1_foregroundBlur_4_34589"/>
</filter>
<filter id="filter1_d_4_34589" x="9" y="15" width="54" height="38" filterUnits="userSpaceOnUse" color-interpolation-filters="sRGB">
<feFlood flood-opacity="0" result="BackgroundImageFix"/>
<feColorMatrix in="SourceAlpha" type="matrix" values="0 0 0 0 0 0 0 0 0 0 0 0 0 0 0 0 0 0 127 0" result="hardAlpha"/>
<feOffset dy="2"/>
<feGaussianBlur stdDeviation="2"/>
<feComposite in2="hardAlpha" operator="out"/>
<feColorMatrix type="matrix" values="0 0 0 0 0.278431 0 0 0 0 0.333333 0 0 0 0 0.411765 0 0 0 0.4 0"/>
<feBlend mode="normal" in2="BackgroundImageFix" result="effect1_dropShadow_4_34589"/>
<feBlend mode="normal" in="SourceGraphic" in2="effect1_dropShadow_4_34589" result="shape"/>
</filter>
<filter id="filter2_ii_4_34589" x="13" y="27" width="46" height="22" filterUnits="userSpaceOnUse" color-interpolation-filters="sRGB">
<feFlood flood-opacity="0" result="BackgroundImageFix"/>
<feBlend mode="normal" in="SourceGraphic" in2="BackgroundImageFix" result="shape"/>
<feColorMatrix in="SourceAlpha" type="matrix" values="0 0 0 0 0 0 0 0 0 0 0 0 0 0 0 0 0 0 127 0" result="hardAlpha"/>
<feOffset dy="2"/>
<feGaussianBlur stdDeviation="1"/>
<feComposite in2="hardAlpha" operator="arithmetic" k2="-1" k3="1"/>
<feColorMatrix type="matrix" values="0 0 0 0 0.796078 0 0 0 0 0.835294 0 0 0 0 0.882353 0 0 0 1 0"/>
<feBlend mode="normal" in2="shape" result="effect1_innerShadow_4_34589"/>
<feColorMatrix in="SourceAlpha" type="matrix" values="0 0 0 0 0 0 0 0 0 0 0 0 0 0 0 0 0 0 127 0" result="hardAlpha"/>
<feOffset dy="-2"/>
<feGaussianBlur stdDeviation="1"/>
<feComposite in2="hardAlpha" operator="arithmetic" k2="-1" k3="1"/>
<feColorMatrix type="matrix" values="0 0 0 0 0.796078 0 0 0 0 0.835294 0 0 0 0 0.882353 0 0 0 0.6 0"/>
<feBlend mode="normal" in2="effect1_innerShadow_4_34589" result="effect2_innerShadow_4_34589"/>
</filter>
<filter id="filter3_f_4_34589" x="13" y="33" width="14" height="14" filterUnits="userSpaceOnUse" color-interpolation-filters="sRGB">
<feFlood flood-opacity="0" result="BackgroundImageFix"/>
<feBlend mode="normal" in="SourceGraphic" in2="BackgroundImageFix" result="shape"/>
<feGaussianBlur stdDeviation="1" result="effect1_foregroundBlur_4_34589"/>
</filter>
<filter id="filter4_i_4_34589" x="19" y="25" width="16" height="18" filterUnits="userSpaceOnUse" color-interpolation-filters="sRGB">
<feFlood flood-opacity="0" result="BackgroundImageFix"/>
<feBlend mode="normal" in="SourceGraphic" in2="BackgroundImageFix" result="shape"/>
<feColorMatrix in="SourceAlpha" type="matrix" values="0 0 0 0 0 0 0 0 0 0 0 0 0 0 0 0 0 0 127 0" result="hardAlpha"/>
<feOffset dy="2"/>
<feGaussianBlur stdDeviation="1"/>
<feComposite in2="hardAlpha" operator="arithmetic" k2="-1" k3="1"/>
<feColorMatrix type="matrix" values="0 0 0 0 0.796078 0 0 0 0 0.835294 0 0 0 0 0.882353 0 0 0 1 0"/>
<feBlend mode="normal" in2="shape" result="effect1_innerShadow_4_34589"/>
</filter>
<filter id="filter5_f_4_34589" x="19" y="25" width="16" height="14" filterUnits="userSpaceOnUse" color-interpolation-filters="sRGB">
<feFlood flood-opacity="0" result="BackgroundImageFix"/>
<feBlend mode="normal" in="SourceGraphic" in2="BackgroundImageFix" result="shape"/>
<feGaussianBlur stdDeviation="1" result="effect1_foregroundBlur_4_34589"/>
</filter>
<filter id="filter6_f_4_34589" x="44" y="30" width="14" height="14" filterUnits="userSpaceOnUse" color-interpolation-filters="sRGB">
<feFlood flood-opacity="0" result="BackgroundImageFix"/>
<feBlend mode="normal" in="SourceGraphic" in2="BackgroundImageFix" result="shape"/>
<feGaussianBlur stdDeviation="1" result="effect1_foregroundBlur_4_34589"/>
</filter>
<filter id="filter7_i_4_34589" x="28" y="17" width="25" height="27" filterUnits="userSpaceOnUse" color-interpolation-filters="sRGB">
<feFlood flood-opacity="0" result="BackgroundImageFix"/>
<feBlend mode="normal" in="SourceGraphic" in2="BackgroundImageFix" result="shape"/>
<feColorMatrix in="SourceAlpha" type="matrix" values="0 0 0 0 0 0 0 0 0 0 0 0 0 0 0 0 0 0 127 0" result="hardAlpha"/>
<feOffset dy="2"/>
<feGaussianBlur stdDeviation="1"/>
<feComposite in2="hardAlpha" operator="arithmetic" k2="-1" k3="1"/>
<feColorMatrix type="matrix" values="0 0 0 0 0.796078 0 0 0 0 0.835294 0 0 0 0 0.882353 0 0 0 1 0"/>
<feBlend mode="normal" in2="shape" result="effect1_innerShadow_4_34589"/>
</filter>
<filter id="filter8_f_4_34589" x="31" y="17" width="18" height="14" filterUnits="userSpaceOnUse" color-interpolation-filters="sRGB">
<feFlood flood-opacity="0" result="BackgroundImageFix"/>
<feBlend mode="normal" in="SourceGraphic" in2="BackgroundImageFix" result="shape"/>
<feGaussianBlur stdDeviation="1" result="effect1_foregroundBlur_4_34589"/>
</filter>
<filter id="filter9_i_4_34589" x="27" y="31" width="18" height="15" filterUnits="userSpaceOnUse" color-interpolation-filters="sRGB">
<feFlood flood-opacity="0" result="BackgroundImageFix"/>
<feBlend mode="normal" in="SourceGraphic" in2="BackgroundImageFix" result="shape"/>
<feColorMatrix in="SourceAlpha" type="matrix" values="0 0 0 0 0 0 0 0 0 0 0 0 0 0 0 0 0 0 127 0" result="hardAlpha"/>
<feOffset dy="2"/>
<feGaussianBlur stdDeviation="1"/>
<feComposite in2="hardAlpha" operator="arithmetic" k2="-1" k3="1"/>
<feColorMatrix type="matrix" values="0 0 0 0 0.796078 0 0 0 0 0.835294 0 0 0 0 0.882353 0 0 0 0.6 0"/>
<feBlend mode="normal" in2="shape" result="effect1_innerShadow_4_34589"/>
</filter>
<filter id="filter10_f_4_34589" x="27" y="31" width="18" height="13" filterUnits="userSpaceOnUse" color-interpolation-filters="sRGB">
<feFlood flood-opacity="0" result="BackgroundImageFix"/>
<feBlend mode="normal" in="SourceGraphic" in2="BackgroundImageFix" result="shape"/>
<feGaussianBlur stdDeviation="1" result="effect1_foregroundBlur_4_34589"/>
</filter>
<filter id="filter11_ii_4_34589" x="22.808" y="50.4286" width="4.18677" height="8.57135" filterUnits="userSpaceOnUse" color-interpolation-filters="sRGB">
<feFlood flood-opacity="0" result="BackgroundImageFix"/>
<feBlend mode="normal" in="SourceGraphic" in2="BackgroundImageFix" result="shape"/>
<feColorMatrix in="SourceAlpha" type="matrix" values="0 0 0 0 0 0 0 0 0 0 0 0 0 0 0 0 0 0 127 0" result="hardAlpha"/>
<feOffset dy="-1"/>
<feComposite in2="hardAlpha" operator="arithmetic" k2="-1" k3="1"/>
<feColorMatrix type="matrix" values="0 0 0 0 0.231373 0 0 0 0 0.509804 0 0 0 0 0.964706 0 0 0 1 0"/>
<feBlend mode="normal" in2="shape" result="effect1_innerShadow_4_34589"/>
<feColorMatrix in="SourceAlpha" type="matrix" values="0 0 0 0 0 0 0 0 0 0 0 0 0 0 0 0 0 0 127 0" result="hardAlpha"/>
<feOffset dy="-0.5"/>
<feGaussianBlur stdDeviation="0.25"/>
<feComposite in2="hardAlpha" operator="arithmetic" k2="-1" k3="1"/>
<feColorMatrix type="matrix" values="0 0 0 0 0.113438 0 0 0 0 0.33625 0 0 0 0 0.825 0 0 0 1 0"/>
<feBlend mode="normal" in2="effect1_innerShadow_4_34589" result="effect2_innerShadow_4_34589"/>
</filter>
<filter id="filter12_ii_4_34589" x="29.308" y="50.4286" width="4.18677" height="8.57135" filterUnits="userSpaceOnUse" color-interpolation-filters="sRGB">
<feFlood flood-opacity="0" result="BackgroundImageFix"/>
<feBlend mode="normal" in="SourceGraphic" in2="BackgroundImageFix" result="shape"/>
<feColorMatrix in="SourceAlpha" type="matrix" values="0 0 0 0 0 0 0 0 0 0 0 0 0 0 0 0 0 0 127 0" result="hardAlpha"/>
<feOffset dy="-1"/>
<feComposite in2="hardAlpha" operator="arithmetic" k2="-1" k3="1"/>
<feColorMatrix type="matrix" values="0 0 0 0 0.231373 0 0 0 0 0.509804 0 0 0 0 0.964706 0 0 0 1 0"/>
<feBlend mode="normal" in2="shape" result="effect1_innerShadow_4_34589"/>
<feColorMatrix in="SourceAlpha" type="matrix" values="0 0 0 0 0 0 0 0 0 0 0 0 0 0 0 0 0 0 127 0" result="hardAlpha"/>
<feOffset dy="-0.5"/>
<feGaussianBlur stdDeviation="0.25"/>
<feComposite in2="hardAlpha" operator="arithmetic" k2="-1" k3="1"/>
<feColorMatrix type="matrix" values="0 0 0 0 0.113438 0 0 0 0 0.33625 0 0 0 0 0.825 0 0 0 1 0"/>
<feBlend mode="normal" in2="effect1_innerShadow_4_34589" result="effect2_innerShadow_4_34589"/>
</filter>
<filter id="filter13_ii_4_34589" x="35.808" y="50.4286" width="4.18677" height="8.57135" filterUnits="userSpaceOnUse" color-interpolation-filters="sRGB">
<feFlood flood-opacity="0" result="BackgroundImageFix"/>
<feBlend mode="normal" in="SourceGraphic" in2="BackgroundImageFix" result="shape"/>
<feColorMatrix in="SourceAlpha" type="matrix" values="0 0 0 0 0 0 0 0 0 0 0 0 0 0 0 0 0 0 127 0" result="hardAlpha"/>
<feOffset dy="-1"/>
<feComposite in2="hardAlpha" operator="arithmetic" k2="-1" k3="1"/>
<feColorMatrix type="matrix" values="0 0 0 0 0.231373 0 0 0 0 0.509804 0 0 0 0 0.964706 0 0 0 1 0"/>
<feBlend mode="normal" in2="shape" result="effect1_innerShadow_4_34589"/>
<feColorMatrix in="SourceAlpha" type="matrix" values="0 0 0 0 0 0 0 0 0 0 0 0 0 0 0 0 0 0 127 0" result="hardAlpha"/>
<feOffset dy="-0.5"/>
<feGaussianBlur stdDeviation="0.25"/>
<feComposite in2="hardAlpha" operator="arithmetic" k2="-1" k3="1"/>
<feColorMatrix type="matrix" values="0 0 0 0 0.113438 0 0 0 0 0.33625 0 0 0 0 0.825 0 0 0 1 0"/>
<feBlend mode="normal" in2="effect1_innerShadow_4_34589" result="effect2_innerShadow_4_34589"/>
</filter>
<linearGradient id="paint0_linear_4_34589" x1="35" y1="46" x2="35" y2="57" gradientUnits="userSpaceOnUse">
<stop stop-color="#BAE6FD"/>
<stop offset="1" stop-color="#BAE6FD" stop-opacity="0"/>
</linearGradient>
<linearGradient id="paint1_linear_4_34589" x1="20" y1="35" x2="20" y2="45" gradientUnits="userSpaceOnUse">
<stop stop-color="white"/>
<stop offset="1" stop-color="#F3F3F3" stop-opacity="0.2"/>
</linearGradient>
<linearGradient id="paint2_linear_4_34589" x1="27" y1="27" x2="27" y2="37" gradientUnits="userSpaceOnUse">
<stop stop-color="white"/>
<stop offset="1" stop-color="#F3F3F3" stop-opacity="0.2"/>
</linearGradient>
<linearGradient id="paint3_linear_4_34589" x1="51" y1="32" x2="51" y2="42" gradientUnits="userSpaceOnUse">
<stop stop-color="white"/>
<stop offset="1" stop-color="#F3F3F3" stop-opacity="0.2"/>
</linearGradient>
<linearGradient id="paint4_linear_4_34589" x1="40" y1="19" x2="40" y2="29" gradientUnits="userSpaceOnUse">
<stop stop-color="white"/>
<stop offset="1" stop-color="#F3F3F3" stop-opacity="0.2"/>
</linearGradient>
<linearGradient id="paint5_linear_4_34589" x1="36" y1="31" x2="36" y2="44" gradientUnits="userSpaceOnUse">
<stop stop-color="#F1F5F9"/>
<stop offset="0.650321" stop-color="#F1F5F9" stop-opacity="0"/>
</linearGradient>
<linearGradient id="paint6_linear_4_34589" x1="36" y1="33" x2="36" y2="42" gradientUnits="userSpaceOnUse">
<stop stop-color="white"/>
<stop offset="1" stop-color="#F3F3F3" stop-opacity="0.2"/>
</linearGradient>
<radialGradient id="paint7_radial_4_34589" cx="0" cy="0" r="1" gradientUnits="userSpaceOnUse" gradientTransform="translate(23.75 58.5) rotate(-68.1986) scale(5.38516)">
<stop stop-color="#74D5FF"/>
<stop offset="0.37551" stop-color="#74D5FF" stop-opacity="0"/>
</radialGradient>
<radialGradient id="paint8_radial_4_34589" cx="0" cy="0" r="1" gradientUnits="userSpaceOnUse" gradientTransform="translate(30.25 58.5) rotate(-68.1986) scale(5.38516)">
<stop stop-color="#74D5FF"/>
<stop offset="0.37551" stop-color="#74D5FF" stop-opacity="0"/>
</radialGradient>
<radialGradient id="paint9_radial_4_34589" cx="0" cy="0" r="1" gradientUnits="userSpaceOnUse" gradientTransform="translate(36.75 58.5) rotate(-68.1986) scale(5.38516)">
<stop stop-color="#74D5FF"/>
<stop offset="0.37551" stop-color="#74D5FF" stop-opacity="0"/>
</radialGradient>
</defs>
</svg>
