<!-- Generated by IcoMoon.io -->
<svg version="1.1" xmlns="http://www.w3.org/2000/svg" width="1024" height="1024" viewBox="0 0 1024 1024">
<g id="icomoon-ignore">
</g>
<path fill="#000" d="M948.498 441.795h-70.785c-11.010 0-20.447-9.535-20.447-20.66v-109.654c0-19.071-15.731-34.961-34.605-34.961h-25.168c-11.010 0-20.449-9.535-20.449-20.66s9.439-20.66 20.449-20.66h25.168c42.469 0 75.502 34.963 75.502 76.282v88.994h48.763c18.874 0 34.605-15.89 34.605-34.961v-289.232c0-19.070-15.731-34.962-34.605-34.962h-871.423c-18.876 0-34.605 15.892-34.605 34.962v289.232c0 19.071 15.73 34.961 34.605 34.961h50.335v-88.994c0-42.908 34.605-76.282 75.502-76.282h25.167c11.010 0 20.449 9.535 20.449 20.66s-9.439 20.66-20.449 20.66h-25.167c-18.876 0-34.605 15.89-34.605 34.961v109.654c0 11.125-9.438 20.66-20.448 20.66h-70.783c-40.897 0-75.502-34.963-75.502-76.282v-289.232c0-41.319 34.605-76.281 75.502-76.281h872.996c42.469 0 75.502 34.962 75.502 76.281v289.232c0 41.318-34.605 76.282-75.502 76.282z"></path>
<path fill="#000" d="M564.695 371.87c-4.719 0-11.012-1.589-14.158-6.357-7.864-7.946-7.864-20.66 0-30.196l111.682-112.833c7.864-7.944 20.447-7.944 29.886 0 7.864 7.946 7.864 20.66 0 30.196l-113.254 112.833c-4.719 3.178-9.437 6.357-14.156 6.357z"></path>
<path fill="#000" d="M733.002 268.573c-1.573 0-1.573 0-3.146 0l-58.2-9.535c-9.437-1.589-15.729-7.946-17.302-17.482l-9.437-58.799c-1.573-11.124 6.291-22.249 17.302-23.838 11.012-1.589 22.022 6.357 23.595 17.481l7.864 42.908 42.469 7.946c11.012 1.589 18.876 12.714 17.304 23.837-1.573 11.125-11.010 17.482-20.449 17.482z"></path>
<path fill="#000" d="M742.439 424.313h-155.724c-11.010 0-20.447-9.535-20.447-20.66s9.437-20.66 20.447-20.66h155.724c11.012 0 20.449 9.535 20.449 20.66 1.573 11.125-7.864 20.66-20.449 20.66z"></path>
<path fill="#000" d="M777.044 471.99c-6.291 0-12.583-3.178-17.302-9.535l-34.605-47.675c-4.721-7.946-4.721-17.482 0-23.839l34.605-47.675c6.291-9.535 18.874-11.125 28.314-4.768 9.437 6.357 11.010 19.071 4.719 28.606l-25.168 36.551 25.168 36.551c6.291 9.535 4.719 22.249-4.719 28.606-3.148 1.589-6.294 3.178-11.012 3.178z"></path>
<path fill="#000" d="M674.802 589.588c-4.719 0-11.010-1.589-14.156-6.357l-110.109-111.243c-7.864-7.946-7.864-20.66 0-30.194 7.864-7.946 20.449-7.946 29.886 0l110.109 111.241c7.864 7.946 7.864 20.66 0 30.196-4.721 3.178-9.439 6.357-15.731 6.357z"></path>
<path fill="#000" d="M665.364 646.799c-1.573 0-1.573 0-3.146 0-11.010-1.589-18.874-12.714-17.302-23.839l9.437-58.8c1.573-9.535 7.864-15.892 17.302-17.482l58.2-9.533c11.012-1.589 22.022 6.357 23.595 17.48 1.573 11.125-6.291 22.249-17.304 23.839l-42.469 7.946-7.864 42.908c-1.573 11.125-9.437 17.482-20.449 17.482z"></path>
<path fill="#000" d="M512.788 657.922c-11.012 0-20.449-9.535-20.449-20.658v-157.329c0-11.125 9.437-20.66 20.449-20.66 11.010 0 20.447 9.535 20.447 20.66v157.329c0 11.123-9.437 20.658-20.447 20.658z"></path>
<path fill="#000" d="M464.024 691.296c-6.291 0-12.585-3.178-17.304-9.535-6.291-9.535-4.719-22.247 4.719-28.604l47.19-34.963c7.864-4.766 17.302-4.766 23.595 0l47.188 34.963c9.437 6.357 11.010 19.069 4.719 28.604s-18.874 11.125-28.314 4.768l-36.178-25.426-36.178 25.426c0 4.768-4.719 4.768-9.437 4.768z"></path>
<path fill="#000" d="M349.198 589.588c-4.719 0-11.010-1.589-14.156-6.357-7.864-7.946-7.864-20.66 0-30.196l110.107-111.241c7.866-7.946 20.449-7.946 29.886 0 7.864 7.944 7.864 20.658 0 30.194l-110.107 111.243c-6.291 3.178-11.012 6.357-15.731 6.357z"></path>
<path fill="#000" d="M358.636 646.799c-9.437 0-18.874-7.946-20.449-17.482l-7.864-42.908-42.469-7.946c-11.010-1.589-18.876-12.714-17.304-23.839 1.573-11.123 12.585-19.069 23.595-17.48l58.2 9.533c9.437 1.589 15.729 7.946 17.302 17.482l9.439 58.8c1.573 11.125-6.291 22.249-17.304 23.839-1.573 0-1.573 0-3.146 0z"></path>
<path fill="#000" d="M437.285 424.313h-155.722c-11.012 0-20.449-9.535-20.449-20.66s9.437-20.66 20.449-20.66h155.722c11.012 0 20.449 9.535 20.449 20.66s-9.437 20.66-20.449 20.66z"></path>
<path fill="#000" d="M246.956 471.99c-4.719 0-7.864-1.589-12.583-3.178-9.437-6.357-11.010-19.071-4.719-28.606l25.168-36.551-25.168-36.551c-6.291-9.535-4.719-22.249 4.719-28.606s22.022-4.768 28.314 4.768l34.605 47.675c4.719 7.946 4.719 17.482 0 23.839l-34.605 47.675c-3.146 6.357-9.437 9.535-15.731 9.535z"></path>
<path fill="#000" d="M459.307 370.28c-4.719 0-11.012-1.589-14.158-6.357l-110.107-111.243c-7.864-7.946-7.864-20.66 0-30.196 7.864-7.944 20.447-7.944 29.886 0l110.107 111.243c7.864 7.946 7.864 20.66 0 30.196-6.291 4.768-11.010 6.357-15.729 6.357z"></path>
<path fill="#000" d="M290.998 268.573c-9.437 0-18.876-7.946-20.449-17.482-1.573-11.123 6.294-22.247 17.304-23.837l42.469-7.946 7.864-42.908c1.575-11.124 12.585-19.070 23.595-17.481 11.012 1.589 18.876 12.713 17.304 23.838l-9.439 58.799c-1.573 9.535-7.864 15.892-17.302 17.482l-58.2 9.535c-1.573 0-1.573 0-3.146 0z"></path>
<path fill="#000" d="M512.788 348.031c-11.012 0-20.449-9.535-20.449-20.658v-157.33c0-11.124 9.437-20.659 20.449-20.659 11.010 0 20.447 9.535 20.447 20.659v157.33c0 11.123-9.437 20.658-20.447 20.658z"></path>
<path fill="#000" d="M512.786 190.701c-4.719 0-7.864-1.589-12.583-3.178l-47.19-34.962c-9.437-6.357-11.010-19.070-4.719-28.605s18.876-11.124 28.314-4.768l36.178 25.427 36.178-25.427c9.439-6.357 22.022-4.768 28.314 4.768s4.719 22.249-4.719 28.605l-47.188 34.962c-4.721 1.589-9.439 3.178-12.585 3.178z"></path>
<path fill="#000" d="M264.258 155.74h-243.809c-11.011 0-20.449-9.535-20.449-20.659s9.438-20.659 20.449-20.659h243.809c11.012 0 20.449 9.535 20.449 20.659s-9.437 20.659-20.449 20.659z"></path>
<path fill="#000" d="M1003.551 155.74h-243.808c-11.012 0-20.449-9.535-20.449-20.659s9.437-20.659 20.449-20.659h243.808c11.012 0 20.449 9.535 20.449 20.659s-9.437 20.659-20.449 20.659z"></path>
<path fill="#000" d="M512.788 963.047c-11.012 0-20.449-9.535-20.449-20.658v-152.564c0-11.123 9.437-20.658 20.449-20.658 11.010 0 20.447 9.535 20.447 20.658v152.564c0 11.123-9.437 20.658-20.447 20.658z"></path>
<path fill="#000" d="M784.91 963.047c-11.010 0-20.447-9.535-20.447-20.658v-305.125c0-11.123 9.437-20.658 20.447-20.658 11.012 0 20.449 9.535 20.449 20.658v305.125c0 11.123-9.437 20.658-20.449 20.658z"></path>
<path fill="#000" d="M239.090 963.047c-11.012 0-20.449-9.535-20.449-20.658v-305.125c0-11.123 9.437-20.658 20.449-20.658 11.010 0 20.447 9.535 20.447 20.658v305.125c1.573 11.123-7.864 20.658-20.447 20.658z"></path>
</svg>
