<!-- Generated by IcoMoon.io -->
<svg version="1.1" xmlns="http://www.w3.org/2000/svg" width="1024" height="1024" viewBox="0 0 1024 1024">
<g id="icomoon-ignore">
</g>
<path fill="#000" d="M948.498 437.285h-70.785c-11.010 0-20.447-9.439-20.447-20.449v-108.534c0-18.876-15.731-34.605-34.605-34.605h-25.168c-11.010 0-20.449-9.439-20.449-20.449s9.439-20.449 20.449-20.449h25.168c42.469 0 75.502 34.605 75.502 75.504v88.084h48.763c18.874 0 34.605-15.729 34.605-34.605v-286.279c0-18.876-15.731-34.605-34.605-34.605h-871.423c-18.876 0-34.605 15.73-34.605 34.605v286.279c0 18.876 15.73 34.605 34.605 34.605h50.335v-88.084c0-42.471 34.605-75.504 75.502-75.504h25.167c11.010 0 20.449 9.439 20.449 20.449s-9.439 20.449-20.449 20.449h-25.167c-18.876 0-34.605 15.729-34.605 34.605v108.534c0 11.010-9.438 20.449-20.448 20.449h-70.783c-40.897 0-75.502-34.605-75.502-75.504v-286.279c0-40.897 34.605-75.502 75.502-75.502h872.996c42.469 0 75.502 34.605 75.502 75.502v286.279c0 40.899-34.605 75.504-75.502 75.504z"></path>
<path fill="#000" d="M264.258 154.151h-243.809c-11.011 0-20.449-9.438-20.449-20.448s9.438-20.449 20.449-20.449h243.809c11.012 0 20.449 9.438 20.449 20.449s-9.437 20.448-20.449 20.448z"></path>
<path fill="#000" d="M1003.551 154.151h-243.808c-11.012 0-20.449-9.438-20.449-20.448s9.437-20.449 20.449-20.449h243.808c11.012 0 20.449 9.438 20.449 20.449s-9.437 20.448-20.449 20.448z"></path>
<path fill="#000" d="M466.944 361.984c0-19.968 11.059-39.936 28.754-48.81l8.847-4.438 2.212-2.218-2.212-2.22-4.424-8.874c-22.118-35.498-61.932-59.904-106.168-59.904-59.72 0-110.592 42.154-123.863 99.84-2.212 8.874 0 19.968 6.636 28.842 6.636 6.656 15.483 11.094 24.33 11.094h165.888v-13.312zM489.062 302.080c-22.118 11.094-35.389 35.498-35.389 59.904h-152.617c-4.424 0-11.059-2.218-13.271-6.656s-4.424-8.874-4.424-15.53c11.059-51.030 57.508-88.748 110.592-88.748 37.601 0 72.991 19.968 95.109 51.030zM393.953 490.666c0 59.904 42.025 110.934 99.533 124.246 2.212 2.218 4.424 2.218 6.636 2.218 6.636 0 15.483-2.218 19.907-6.656 6.636-6.656 11.059-15.53 11.059-24.404v-166.4h-11.059c-19.907 0-39.813-11.094-48.66-28.844l-4.424-8.874v-6.656l-2.212 2.218-8.847 4.438c-37.601 24.406-61.932 64.342-61.932 108.714zM409.436 492.886c0-37.718 19.907-73.216 50.872-95.404 11.059 22.188 33.178 35.5 59.72 35.5v153.088c0 4.436-2.212 6.656-6.636 11.092-4.424 2.22-8.847 4.438-15.483 4.438-50.872-11.094-88.474-57.686-88.474-108.714zM765.542 364.202c-6.636-6.656-15.483-11.092-24.33-11.092h-165.888v11.092c0 19.968-11.059 39.936-28.754 48.812l-13.271 6.656 2.212 2.218 4.424 8.874c24.33 37.718 64.143 59.904 108.38 59.904 59.72 0 110.592-42.154 123.863-99.84 2.212-8.874 0-19.968-6.636-26.624zM758.907 388.608c-11.059 51.030-57.508 88.746-108.38 88.746-37.601 0-72.991-19.968-95.109-51.028 22.118-11.094 35.389-35.5 35.389-59.904h150.405c4.424 0 11.059 2.218 13.271 6.656 4.424 4.436 4.424 8.874 4.424 15.53zM548.782 111.275c-8.847-2.219-19.907 0-26.542 6.656s-11.059 15.531-11.059 24.405v164.182h13.271c19.907 0 39.813 11.092 48.66 28.842l4.424 8.874 2.212 2.22 2.212-2.22 8.847-4.436c35.389-19.968 57.508-59.904 57.508-104.278 0-59.904-42.025-110.933-99.533-124.245zM581.96 330.922c-11.059-22.186-35.389-35.498-59.72-35.498v-153.088c0-4.437 2.212-11.093 6.636-13.312 6.636-2.219 11.059-4.437 17.695-4.437 50.872 11.093 88.474 57.685 88.474 110.933-2.212 37.718-19.907 73.216-53.084 95.402zM522.24 315.392c-26.542 0-48.66 22.186-48.66 48.81s22.118 48.812 48.66 48.812c26.542 0 48.66-22.188 48.66-48.812s-22.118-48.81-48.66-48.81zM522.24 397.482c-17.695 0-33.178-15.53-33.178-33.28 0-17.748 15.483-33.28 33.178-33.28s33.178 15.532 33.178 33.28c0 17.75-15.483 33.28-33.178 33.28z"></path>
<path fill="#000" d="M500.122 619.35c-2.212 0-4.424 0-8.847-2.22-57.508-13.312-101.745-66.56-101.745-126.464 0-44.372 22.118-86.528 61.932-110.932h-150.405c-11.059 0-19.907-4.438-26.542-13.312-6.636-8.876-8.847-19.968-8.847-31.062 13.271-59.904 66.355-102.058 128.287-102.058 44.237 0 86.262 22.186 110.592 62.122v2.218-155.306c0-11.093 4.424-19.968 13.271-26.624s19.907-8.875 30.966-6.656c59.72 13.312 101.745 66.56 101.745 126.464 0 44.374-22.118 86.528-61.932 110.934h150.405c11.059 0 19.907 4.436 26.542 13.312 6.636 8.874 8.847 19.968 6.636 31.060-13.271 59.904-66.355 102.060-126.075 102.060-44.237 0-86.262-22.188-110.592-62.124v-2.218 155.306c0 11.094-4.424 19.968-13.271 26.624-4.424 6.656-13.271 8.876-22.118 8.876zM464.732 379.734l-8.847 4.436c-37.601 22.188-59.72 62.124-59.72 106.496 0 57.686 39.813 108.716 97.321 122.028 2.212 2.218 4.424 2.218 6.636 2.218 6.636 0 13.271-2.218 19.907-6.656s11.059-13.312 11.059-22.186v-164.182h-8.847c-22.118 0-42.025-11.094-50.872-31.062v-2.218l-6.636-8.874zM537.723 419.67l4.424 8.874c22.118 37.718 61.932 59.904 106.168 59.904 57.508 0 108.38-39.936 121.651-97.622 2.212-8.874 0-17.748-4.424-24.404-6.636-6.656-13.271-11.094-22.118-11.094h-163.676v8.874c0 22.188-11.059 42.156-30.966 53.248l-11.059 2.22zM528.876 415.232h6.636l8.847-4.438c2.212 0 4.424-2.218 4.424-2.218-4.424 2.218-11.059 4.438-19.907 6.656zM522.24 317.61c-24.33 0-44.237 19.968-44.237 44.374s19.907 44.374 44.237 44.374c24.33 0 44.237-19.968 44.237-44.374s-19.907-44.374-44.237-44.374zM475.791 386.39c0 2.218 2.212 4.436 2.212 4.436-4.424-6.656-6.636-13.312-8.847-22.186v6.656l6.636 11.094zM393.953 239.958c-57.508 0-108.38 39.936-121.651 97.62-2.212 6.656-2.212 15.532 6.636 24.406 4.424 6.656 13.271 11.094 22.118 11.094h161.464v-8.876c0-22.186 11.059-42.154 30.966-53.248l8.847-4.436-4.424-8.876c-22.118-35.498-59.72-57.684-103.956-57.684zM564.265 335.36c4.424 6.656 6.636 13.312 6.636 19.968v-6.656l-4.424-8.874c0-2.22 0-2.22-2.212-4.438zM573.112 337.578l4.424 8.876 8.847-4.438c37.601-24.406 57.508-62.122 57.508-106.496 0-57.685-39.813-108.715-97.321-122.027-6.636-2.219-15.483-2.219-24.33 6.656-6.636 4.437-11.059 13.312-11.059 22.187v161.962h8.847c24.33 2.22 44.237 13.312 53.084 33.28zM508.969 313.174l-8.847 4.436c-2.212 0-4.424 2.22-6.636 4.438 6.636-4.438 13.271-6.656 22.118-8.874h-6.636zM500.122 606.038c-2.212 0-2.212 0-4.424 0-50.872-13.312-90.685-59.904-90.685-113.152 0-39.936 19.907-75.436 53.084-97.622l2.212-2.218 2.212 2.218c11.059 19.968 33.178 33.28 55.296 33.28h2.212v159.744c0 4.438-4.424 8.874-6.636 11.094-2.212 4.436-6.636 6.656-13.271 6.656zM458.097 401.92c-28.754 19.968-46.449 53.248-46.449 88.746 0 51.030 35.389 95.404 86.262 106.496 4.424 0 8.847 0 13.271-2.218 2.212-2.218 4.424-4.438 4.424-6.656v-153.088c-24.33 0-44.237-13.312-57.508-33.28zM648.315 479.574c-39.813 0-75.203-19.968-97.321-53.248l-2.212-2.22 2.212-2.218c19.907-11.094 33.178-33.28 33.178-55.466v-2.22h154.829c6.636 0 13.271 2.22 15.483 8.876 4.424 4.436 4.424 11.092 4.424 17.748-8.847 51.030-55.296 88.748-110.592 88.748zM559.841 426.326c19.907 28.842 53.084 46.592 88.474 46.592 50.872 0 95.109-35.5 106.168-86.528 0-4.438 0-8.876-2.212-11.094-2.212-4.438-6.636-4.438-11.059-4.438h-148.193c0 22.188-13.271 42.156-33.178 55.468zM522.24 401.92c-19.907 0-37.601-17.75-37.601-37.718s17.695-37.716 37.601-37.716c19.907 0 37.601 17.748 37.601 37.716-2.212 19.968-17.695 37.718-37.601 37.718zM522.24 333.142c-17.695 0-30.966 13.312-30.966 31.060 0 17.75 13.271 31.062 30.966 31.062s30.966-13.312 30.966-31.062c-2.212-17.748-15.483-31.060-30.966-31.060zM455.885 364.202h-154.829c-6.636 0-13.271-2.218-15.483-8.874-4.424-4.438-4.424-11.094-4.424-17.75 11.059-53.248 59.72-90.964 112.804-90.964 39.813 0 75.203 19.968 97.321 53.248l2.212 2.218-4.424 2.218c-19.907 11.094-33.178 33.28-33.178 55.468v4.436zM393.953 253.27c-50.872 0-95.109 35.498-106.168 86.528 0 4.436 0 8.874 2.212 13.312 2.212 2.218 6.636 4.436 11.059 4.436h148.193c2.212-24.404 13.271-44.372 33.178-57.684-19.907-28.844-53.084-46.592-88.474-46.592zM581.96 335.36l-2.212-2.218c-11.059-19.968-33.178-33.28-55.296-33.28h-2.212v-155.307c0-6.656 2.212-13.312 8.847-15.531 4.424-4.437 11.059-6.656 17.695-4.437 50.872 8.875 88.474 57.685 88.474 110.933 0 39.936-19.907 75.434-53.084 97.622l-2.212 2.218zM526.664 290.986c24.33 2.22 44.237 13.312 57.508 33.28 28.754-19.968 46.449-53.248 46.449-90.964 0-51.030-35.389-95.403-86.262-106.497-4.424 0-8.847 0-13.271 2.219-2.212 2.219-4.424 6.656-4.424 11.093v150.869z"></path>
</svg>
