<!-- Generated by IcoMoon.io -->
<svg version="1.1" xmlns="http://www.w3.org/2000/svg" width="1024" height="1024" viewBox="0 0 1024 1024">
<g id="icomoon-ignore">
</g>
<path fill="#000" d="M948.498 435.799h-70.785c-11.010 0-20.447-9.406-20.447-20.38v-108.165c0-18.813-15.731-34.488-34.606-34.488h-25.168c-11.010 0-20.449-9.406-20.449-20.38s9.439-20.378 20.449-20.378h25.168c42.469 0 75.502 34.486 75.502 75.246v87.785h48.763c18.874 0 34.606-15.676 34.606-34.486v-285.307c0-18.811-15.731-34.488-34.606-34.488h-871.423c-18.876 0-34.606 15.676-34.606 34.488v285.307c0 18.811 15.729 34.486 34.606 34.486h50.335v-87.785c0-42.326 34.606-75.246 75.502-75.246h25.167c11.010 0 20.449 9.404 20.449 20.378s-9.439 20.38-20.449 20.38h-25.167c-18.876 0-34.606 15.676-34.606 34.488v108.165c0 10.973-9.437 20.38-20.448 20.38h-70.783c-40.898 0-75.502-34.488-75.502-75.246v-285.307c0-40.758 34.606-75.246 75.502-75.246h872.996c42.469 0 75.502 34.488 75.502 75.246v285.307c0 40.757-34.606 75.246-75.502 75.246z"></path>
<path fill="#000" d="M264.258 153.627h-243.809c-11.011 0-20.449-9.406-20.449-20.379s9.437-20.379 20.449-20.379h243.809c11.012 0 20.449 9.406 20.449 20.379s-9.437 20.379-20.449 20.379z"></path>
<path fill="#000" d="M1003.551 153.627h-243.808c-11.012 0-20.449-9.406-20.449-20.379s9.437-20.379 20.449-20.379h243.808c11.012 0 20.449 9.406 20.449 20.379s-9.437 20.379-20.449 20.379z"></path>
<path fill="#000" d="M145.442 366.56h735.289v48.48h-735.289v-48.48z"></path>
<path fill="#000" d="M274.723 253.439c0-13.388 10.852-24.242 24.24-24.242h436.326c13.388 0 24.24 10.855 24.24 24.242 0 13.386-10.852 24.24-24.24 24.24h-436.326c-13.388 0-24.24-10.855-24.24-24.24z"></path>
</svg>
