<!-- Generated by IcoMoon.io -->
<svg version="1.1" xmlns="http://www.w3.org/2000/svg" width="1024" height="1024" viewBox="0 0 1024 1024">
<g id="icomoon-ignore">
</g>
<path fill="#000" d="M948.498 437.285h-70.785c-11.010 0-20.447-9.439-20.447-20.449v-108.534c0-18.876-15.731-34.605-34.605-34.605h-25.168c-11.010 0-20.449-9.439-20.449-20.449s9.439-20.449 20.449-20.449h25.168c42.469 0 75.502 34.605 75.502 75.504v88.084h48.763c18.874 0 34.605-15.729 34.605-34.605v-286.279c0-18.876-15.731-34.605-34.605-34.605h-871.423c-18.876 0-34.605 15.73-34.605 34.605v286.279c0 18.876 15.73 34.605 34.605 34.605h50.335v-88.084c0-42.471 34.605-75.504 75.502-75.504h25.167c11.010 0 20.449 9.439 20.449 20.449s-9.439 20.449-20.449 20.449h-25.167c-18.876 0-34.605 15.729-34.605 34.605v108.534c0 11.010-9.438 20.449-20.448 20.449h-70.783c-40.897 0-75.502-34.605-75.502-75.504v-286.279c0-40.897 34.605-75.502 75.502-75.502h872.996c42.469 0 75.502 34.605 75.502 75.502v286.279c0 40.899-34.605 75.504-75.502 75.504z"></path>
<path fill="#000" d="M564.695 368.073c-4.719 0-11.012-1.573-14.158-6.291-7.864-7.864-7.864-20.449 0-29.886l111.682-111.679c7.864-7.866 20.447-7.866 29.886 0 7.864 7.864 7.864 20.447 0 29.886l-113.254 111.679c-4.719 3.146-9.437 6.291-14.156 6.291z"></path>
<path fill="#000" d="M733.002 265.83c-1.573 0-1.573 0-3.146 0l-58.2-9.437c-9.437-1.573-15.729-7.864-17.302-17.302l-9.437-58.2c-1.573-11.011 6.291-22.022 17.302-23.595 11.012-1.573 22.022 6.292 23.595 17.303l7.864 42.47 42.469 7.864c11.012 1.573 18.876 12.585 17.304 23.595s-11.010 17.302-20.449 17.302z"></path>
<path fill="#000" d="M742.439 419.981h-155.724c-11.010 0-20.447-9.437-20.447-20.449 0-11.010 9.437-20.447 20.447-20.447h155.724c11.012 0 20.449 9.437 20.449 20.447 1.573 11.012-7.864 20.449-20.449 20.449z"></path>
<path fill="#000" d="M777.044 467.171c-6.291 0-12.583-3.146-17.302-9.437l-34.605-47.188c-4.721-7.866-4.721-17.304 0-23.595l34.605-47.188c6.291-9.439 18.874-11.012 28.314-4.721 9.437 6.294 11.010 18.876 4.719 28.314l-25.168 36.178 25.168 36.18c6.291 9.437 4.719 22.020-4.719 28.312-3.148 1.573-6.294 3.146-11.012 3.146z"></path>
<path fill="#000" d="M674.802 583.569c-4.719 0-11.010-1.573-14.156-6.291l-110.109-110.107c-7.864-7.866-7.864-20.449 0-29.886 7.864-7.866 20.449-7.866 29.886 0l110.109 110.107c7.864 7.864 7.864 20.449 0 29.886-4.721 3.146-9.439 6.291-15.731 6.291z"></path>
<path fill="#000" d="M665.364 640.197c-1.573 0-1.573 0-3.146 0-11.010-1.573-18.874-12.583-17.302-23.595l9.437-58.2c1.573-9.437 7.864-15.729 17.302-17.302l58.2-9.437c11.012-1.573 22.022 6.291 23.595 17.302s-6.291 22.022-17.304 23.595l-42.469 7.864-7.864 42.469c-1.573 11.012-9.437 17.304-20.449 17.304z"></path>
<path fill="#000" d="M512.788 651.207c-11.012 0-20.449-9.437-20.449-20.449v-155.722c0-11.012 9.437-20.449 20.449-20.449 11.010 0 20.447 9.437 20.447 20.449v155.722c0 11.012-9.437 20.449-20.447 20.449z"></path>
<path fill="#000" d="M464.024 684.241c-6.291 0-12.585-3.146-17.304-9.439-6.291-9.437-4.719-22.020 4.719-28.312l47.19-34.607c7.864-4.719 17.302-4.719 23.595 0l47.188 34.607c9.437 6.291 11.010 18.874 4.719 28.312s-18.874 11.012-28.314 4.721l-36.178-25.168-36.178 25.168c0 4.719-4.719 4.719-9.437 4.719z"></path>
<path fill="#000" d="M349.198 583.569c-4.719 0-11.010-1.573-14.156-6.291-7.864-7.864-7.864-20.449 0-29.886l110.107-110.107c7.866-7.866 20.449-7.866 29.886 0 7.864 7.864 7.864 20.447 0 29.886l-110.107 110.107c-6.291 3.146-11.012 6.291-15.731 6.291z"></path>
<path fill="#000" d="M358.636 640.197c-9.437 0-18.874-7.864-20.449-17.304l-7.864-42.469-42.469-7.864c-11.010-1.573-18.876-12.585-17.304-23.595s12.585-18.874 23.595-17.302l58.2 9.437c9.437 1.573 15.729 7.864 17.302 17.302l9.439 58.2c1.573 11.012-6.291 22.022-17.304 23.595-1.573 0-1.573 0-3.146 0z"></path>
<path fill="#000" d="M437.285 419.981h-155.722c-11.012 0-20.449-9.437-20.449-20.449 0-11.010 9.437-20.447 20.449-20.447h155.722c11.012 0 20.449 9.437 20.449 20.447 0 11.012-9.437 20.449-20.449 20.449z"></path>
<path fill="#000" d="M246.956 467.171c-4.719 0-7.864-1.573-12.583-3.146-9.437-6.291-11.010-18.874-4.719-28.312l25.168-36.18-25.168-36.178c-6.291-9.437-4.719-22.020 4.719-28.314 9.437-6.291 22.022-4.719 28.314 4.721l34.605 47.188c4.719 7.864 4.719 17.304 0 23.595l-34.605 47.188c-3.146 6.291-9.437 9.437-15.731 9.437z"></path>
<path fill="#000" d="M459.307 366.5c-4.719 0-11.012-1.573-14.158-6.291l-110.107-110.107c-7.864-7.866-7.864-20.449 0-29.886 7.864-7.866 20.447-7.866 29.886 0l110.107 110.107c7.864 7.864 7.864 20.449 0 29.886-6.291 4.719-11.010 6.291-15.729 6.291z"></path>
<path fill="#000" d="M290.998 265.83c-9.437 0-18.876-7.864-20.449-17.302-1.573-11.010 6.294-22.022 17.304-23.595l42.469-7.864 7.864-42.47c1.575-11.011 12.585-18.876 23.595-17.303 11.012 1.573 18.876 12.584 17.304 23.595l-9.439 58.2c-1.573 9.437-7.864 15.729-17.302 17.302l-58.2 9.437c-1.573 0-1.573 0-3.146 0z"></path>
<path fill="#000" d="M512.788 344.48c-11.012 0-20.449-9.439-20.449-20.449v-155.724c0-11.011 9.437-20.449 20.449-20.449 11.010 0 20.447 9.438 20.447 20.449v155.724c0 11.010-9.437 20.449-20.447 20.449z"></path>
<path fill="#000" d="M512.786 188.755c-4.719 0-7.864-1.573-12.583-3.146l-47.19-34.605c-9.437-6.292-11.010-18.876-4.719-28.313s18.876-11.011 28.314-4.719l36.178 25.167 36.178-25.167c9.439-6.292 22.022-4.719 28.314 4.719s4.719 22.021-4.719 28.313l-47.188 34.605c-4.721 1.573-9.439 3.146-12.585 3.146z"></path>
<path fill="#000" d="M264.258 154.151h-243.809c-11.011 0-20.449-9.438-20.449-20.448s9.438-20.448 20.449-20.448h243.809c11.012 0 20.449 9.438 20.449 20.448s-9.437 20.448-20.449 20.448z"></path>
<path fill="#000" d="M1003.551 154.151h-243.808c-11.012 0-20.449-9.438-20.449-20.448s9.437-20.448 20.449-20.448h243.808c11.012 0 20.449 9.438 20.449 20.448s-9.437 20.448-20.449 20.448z"></path>
</svg>
