<svg width="38" height="50" viewBox="0 0 38 50" fill="none" xmlns="http://www.w3.org/2000/svg">
<path d="M37.79 22.24V22.09H37.64H32.57V17.05V16.9H32.42H29.93H29.78V17.05V22.09H24.74H24.59V22.24V24.73V24.88H24.74H29.78V29.95V30.1H29.93H32.42H32.57V29.95V24.88H37.64H37.79V24.73V22.24ZM6.68851 29.1354V28.7685H7.27669C7.42153 28.7685 7.55387 28.7195 7.65037 28.623C7.74687 28.5264 7.79579 28.3941 7.79579 28.2492C7.79579 28.1044 7.74687 27.972 7.65037 27.8755C7.55387 27.779 7.42153 27.73 7.27669 27.73H6.68851V25.7408H8.01488C8.15971 25.7408 8.29205 25.6918 8.38856 25.5953C8.48505 25.4987 8.53397 25.3664 8.53397 25.2215C8.53397 25.0767 8.48505 24.9443 8.38856 24.8478C8.29205 24.7513 8.15971 24.7023 8.01488 24.7023H6.68851V22.7131H7.27669C7.42153 22.7131 7.55387 22.6641 7.65037 22.5676C7.74687 22.4711 7.79579 22.3387 7.79579 22.1938C7.79579 22.049 7.74687 21.9166 7.65037 21.8201C7.55387 21.7236 7.42153 21.6746 7.27669 21.6746H6.68851V19.6854H8.01488C8.15971 19.6854 8.29205 19.6364 8.38856 19.5399C8.48505 19.4434 8.53397 19.311 8.53397 19.1662C8.53397 19.0213 8.48505 18.889 8.38856 18.7924C8.29205 18.6959 8.15971 18.6469 8.01488 18.6469H6.68851V16.6577H7.27669C7.42153 16.6577 7.55387 16.6087 7.65037 16.5122C7.74687 16.4157 7.79579 16.2833 7.79579 16.1385C7.79579 15.9936 7.74687 15.8613 7.65037 15.7647C7.55387 15.6682 7.42153 15.6192 7.27669 15.6192H6.68851V13.7038H8.01488C8.15971 13.7038 8.29205 13.6549 8.38856 13.5584C8.48505 13.4618 8.53397 13.3295 8.53397 13.1846C8.53397 13.0398 8.48505 12.9074 8.38856 12.8109C8.29205 12.7143 8.15971 12.6654 8.01488 12.6654H6.68851V10.6762H7.27669C7.42153 10.6762 7.55387 10.6272 7.65037 10.5307C7.74687 10.4341 7.79579 10.3018 7.79579 10.1569C7.79579 10.0121 7.74687 9.87972 7.65037 9.78319C7.55387 9.68664 7.42153 9.63769 7.27669 9.63769H6.68851V7.72231H8.01488C8.15971 7.72231 8.29205 7.67336 8.38856 7.57682C8.48505 7.48028 8.53397 7.34792 8.53397 7.20308C8.53397 7.05824 8.48505 6.92587 8.38856 6.82934C8.29205 6.7328 8.15971 6.68385 8.01488 6.68385H6.70286C6.99247 3.95999 9.25574 1.88846 12.0011 1.88846C15.071 1.88846 17.3136 4.45657 17.3136 8.16308V26.1596C17.2695 26.3226 17.3296 26.4627 17.4221 26.5553C17.513 26.6461 17.6427 26.7008 17.7589 26.7008C17.9037 26.7008 18.0361 26.6518 18.1326 26.5553C18.2291 26.4587 18.278 26.3264 18.278 26.1815V8.16308C18.278 3.96653 15.6473 0.85 11.9272 0.85C8.44871 0.85 5.57651 3.72336 5.57651 7.20308V28.9099C2.62256 31.0087 0.778006 34.429 0.852154 38.1471C0.927291 43.9873 5.71513 48.8504 11.4766 49.1498L11.4765 49.15H11.4843H11.4852H11.4861H11.4869H11.4878H11.4887H11.4896H11.4904H11.4913H11.4922H11.4931H11.494H11.4948H11.4957H11.4966H11.4975H11.4984H11.4993H11.5002H11.5011H11.502H11.5029H11.5038H11.5047H11.5056H11.5065H11.5074H11.5083H11.5092H11.5101H11.511H11.5119H11.5129H11.5138H11.5147H11.5156H11.5165H11.5174H11.5184H11.5193H11.5202H11.5212H11.5221H11.523H11.5239H11.5249H11.5258H11.5267H11.5277H11.5286H11.5296H11.5305H11.5315H11.5324H11.5333H11.5343H11.5352H11.5362H11.5371H11.5381H11.539H11.54H11.541H11.5419H11.5429H11.5438H11.5448H11.5458H11.5467H11.5477H11.5487H11.5496H11.5506H11.5516H11.5525H11.5535H11.5545H11.5555H11.5564H11.5574H11.5584H11.5594H11.5603H11.5613H11.5623H11.5633H11.5643H11.5653H11.5663H11.5672H11.5682H11.5692H11.5702H11.5712H11.5722H11.5732H11.5742H11.5752H11.5762H11.5772H11.5782H11.5792H11.5802H11.5812H11.5822H11.5832H11.5842H11.5852H11.5862H11.5872H11.5883H11.5893H11.5903H11.5913H11.5923H11.5933H11.5943H11.5954H11.5964H11.5974H11.5984H11.5994H11.6005H11.6015H11.6025H11.6035H11.6045H11.6056H11.6066H11.6076H11.6087H11.6097H11.6107H11.6117H11.6128H11.6138H11.6148H11.6159H11.6169H11.618H11.619H11.62H11.6211H11.6221H11.6231H11.6242H11.6252H11.6263H11.6273H11.6283H11.6294H11.6304H11.6315H11.6325H11.6336H11.6346H11.6357H11.6367H11.6378H11.6388H11.6399H11.6409H11.642H11.643H11.6441H11.6451H11.6462H11.6472H11.6483H11.6494H11.6504H11.6515H11.6525H11.6536H11.6546H11.6557H11.6568H11.6578H11.6589H11.6599H11.661H11.6621H11.6631H11.6642H11.6653H11.6663H11.6674H11.6685H11.6695H11.6706H11.6717H11.6727H11.6738H11.6749H11.6759H11.677H11.6781H11.6791H11.6802H11.6813H11.6823H11.6834H11.6845H11.6856H11.6866H11.6877H11.6888H11.6898H11.6909H11.692H11.6931H11.6941H11.6952H11.6963H11.6974H11.6984H11.6995H11.7006H11.7017H11.7028H11.7038H11.7049H11.706H11.7071H11.7081H11.7092H11.7103H11.7114H11.7125H11.7135H11.7146H11.7157H11.7168H11.7178H11.7189H11.72H11.7211H11.7222H11.7232H11.7243H11.7254H11.7265H11.7276H11.7286H11.7297H11.7308H11.7319H11.733H11.7341H11.7351H11.7362H11.7373H11.7384H11.7395H11.7405H11.7416H11.7427H11.7438H11.7449H11.7459H11.747H11.7481H11.7492H11.7503H11.7514H11.7524H11.7535H11.7546H11.7557H11.7568H11.7578H11.7589H11.76H11.7611H11.7622H11.7632H11.7643H11.7654H11.7665H11.7676H11.7686H11.7697H11.7708H11.7719H11.773H11.774H11.7751H11.7762H11.7773H11.7783H11.7794H11.7805H11.7816H11.7827H11.7837H11.7848H11.7859H11.787H11.788H11.7891H11.7902H11.7913H11.7923H11.7934H11.7945H11.7956H11.7966H11.7977H11.7988H11.7999H11.8009H11.802H11.8031H11.8041H11.8052H11.8063H11.8073H11.8084H11.8095H11.8106H11.8116H11.8127H11.8138H11.8148H11.8159H11.817H11.818H11.8191H11.8201H11.8212H11.8223H11.8233H11.8244H11.8255H11.8265H11.8276H11.8286H11.8297H11.8308H11.8318H11.8329H11.8339H11.835H11.8361H11.8371H11.8382H11.8392H11.8403H11.8413H11.8424H11.8434H11.8445H11.8455H11.8466H11.8476H11.8487H11.8497H11.8508H11.8518H11.8529H11.8539H11.855H11.856H11.8571H11.8581H11.8591H11.8602H11.8612H11.8623H11.8633H11.8643H11.8654H11.8664H11.8675H11.8685H11.8695H11.8706H11.8716H11.8726H11.8737H11.8747H11.8757H11.8767H11.8778H11.8788H11.8798H11.8809H11.8819H11.8829H11.8839H11.885H11.886H11.887H11.888H11.889H11.8901H11.8911H11.8921H11.8931H11.8941H11.8951H11.8961H11.8972H11.8982H11.8992H11.9002H11.9012H11.9022H11.9032H11.9042H11.9052H11.9062H11.9072H11.9082H11.9092H11.9102H11.9112H11.9122H11.9132H11.9142H11.9152H11.9162H11.9172H11.9182H11.9192H11.9201H11.9211H11.9221H11.9231H11.9241H11.9251H11.926H11.927H11.928H11.929H11.93H11.9309H11.9319H11.9329H11.9338H11.9348H11.9358H11.9368H11.9377H11.9387H11.9396H11.9406H11.9416H11.9425H11.9435H11.9444H11.9454H11.9464H11.9473H11.9483H11.9492H11.9502H11.9511H11.9521H11.953H11.954H11.9549H11.9558H11.9568H11.9577H11.9587H11.9596H11.9605H11.9615H11.9624H11.9633H11.9643H11.9652H11.9661H11.967H11.968H11.9689H11.9698H11.9707H11.9716H11.9726H11.9735H11.9744H11.9753H11.9762H11.9771H11.978H11.9789H11.9798H11.9807H11.9816H11.9825H11.9834H11.9843H11.9852H11.9861H11.987H11.9879H11.9888H11.9897H11.9906H11.9915H11.9923H11.9932H11.9941H11.995H11.9958H11.9967H11.9976H11.9985H11.9993H12.0002H12.0011C14.8426 49.15 17.6115 48.1027 19.7077 46.0811C21.9537 43.9835 23.15 41.0634 23.15 37.9969C23.15 34.2599 21.2846 30.7452 18.1476 28.7217C18.0347 28.6171 17.8946 28.5934 17.7664 28.6191C17.6386 28.6446 17.5209 28.7182 17.4314 28.8078C17.3164 28.9228 17.2899 29.0687 17.3165 29.2017C17.3421 29.3295 17.4156 29.4472 17.5052 29.5368L17.5157 29.5473L17.528 29.5556C20.367 31.4489 22.1118 34.5784 22.1118 37.9969C22.1118 40.7632 21.0206 43.3812 18.9855 45.2716C16.9464 47.1659 14.3279 48.1833 11.566 48.0379L11.566 48.0379L11.5623 48.0378C6.25636 47.8923 1.96304 43.3815 1.89031 38.1425L1.89029 38.1415C1.81758 34.6501 3.56225 31.449 6.47264 29.5565L6.48584 29.5479L6.49696 29.5368L6.50086 29.5329C6.5763 29.4575 6.68851 29.3454 6.68851 29.1354ZM12.0011 12.6654C11.8562 12.6654 11.7239 12.7143 11.6274 12.8109C11.5309 12.9074 11.482 13.0398 11.482 13.1846V32.7653C8.81457 33.0568 6.7576 35.3052 6.7576 37.9969C6.7576 40.8859 9.11307 43.2423 12.0011 43.2423C14.8891 43.2423 17.2445 40.8859 17.2445 37.9969C17.2445 35.2313 15.1863 33.0543 12.5202 32.7652V13.1846C12.5202 13.0207 12.4378 12.8899 12.3398 12.8041C12.2446 12.7207 12.1184 12.6654 12.0011 12.6654ZM16.2063 37.9969C16.2063 40.3494 14.282 42.2038 12.0011 42.2038C9.72178 42.2038 7.79579 40.2772 7.79579 37.9969C7.79579 35.7238 9.56254 33.8769 11.8291 33.7909C11.8397 33.8012 11.8576 33.8174 11.88 33.8309C11.9144 33.8515 11.9548 33.8638 12.0011 33.8638C12.0033 33.8638 12.0057 33.8639 12.0083 33.8639C12.0366 33.8642 12.0901 33.8647 12.142 33.8388C12.1689 33.8253 12.1898 33.8081 12.2052 33.7942C12.2059 33.7936 12.2065 33.793 12.2071 33.7925C14.3877 33.8967 16.2063 35.7377 16.2063 37.9969Z" fill="#192646" stroke="#192646" stroke-width="0.3"/>
</svg>
