<svg width="43" height="41" viewBox="0 0 43 41" fill="none" xmlns="http://www.w3.org/2000/svg">
<path d="M21.4971 14.5175C17.1427 14.5175 13.5947 18.0272 13.5947 22.3346V24.1958C13.5947 24.6213 13.971 24.9935 14.4011 24.9935C14.8311 24.9935 15.2074 24.6213 15.2074 24.1958V22.3346C15.2074 18.8781 18.0566 16.1128 21.4971 16.1128C21.9272 16.1128 22.3035 15.7406 22.3035 15.3152C22.3035 14.8898 21.9272 14.5175 21.4971 14.5175Z" fill="#192646"/>
<path d="M6.76747 32.5979V34.0337C5.63856 34.2996 4.72467 35.1504 4.50964 36.2672L3.97206 38.7665C3.86455 39.2983 3.97206 39.8833 4.34837 40.3087C4.72467 40.7341 5.26225 41 5.79983 41H37.2481C37.8395 41 38.377 40.7341 38.6996 40.3087C39.0759 39.8833 39.1834 39.2983 39.0759 38.7665L38.5383 36.2672C38.2695 35.1504 37.3556 34.2464 36.2805 34.0337V32.5447C36.2805 30.9494 34.9365 29.62 33.3238 29.62H33.2163V22.3346C33.2163 15.9533 27.948 10.7951 21.5509 10.7951C15.1537 10.7951 9.83166 15.9533 9.83166 22.3346V29.6732H9.72415C8.05765 29.6732 6.76747 30.9494 6.76747 32.5979ZM35.6354 35.5759C36.2805 35.5759 36.8181 36.0013 36.9256 36.6394L37.4632 39.1388C37.5169 39.2451 37.4632 39.2983 37.4094 39.3515C37.3556 39.4047 37.3019 39.4578 37.1944 39.4578H5.79983C5.69231 39.4578 5.63855 39.4047 5.5848 39.3515C5.53104 39.2983 5.53104 39.2451 5.53104 39.1388L6.06862 36.5863C6.17613 36.0013 6.76747 35.5227 7.41256 35.5227C7.3588 35.5759 35.6354 35.5759 35.6354 35.5759ZM11.4444 22.3346C11.4444 16.8573 15.96 12.3904 21.4971 12.3904C27.0341 12.3904 31.5498 16.8573 31.5498 22.3346V29.6732H11.4444V22.3346ZM8.3802 32.5979C8.3802 31.8534 8.97154 31.2685 9.72415 31.2685H33.3238C34.0764 31.2685 34.6678 31.8534 34.6678 32.5979V33.9805H8.3802V32.5979Z" fill="#192646"/>
<path d="M20.6907 0.797665V7.12581C20.6907 7.55123 21.067 7.92348 21.4971 7.92348C21.9272 7.92348 22.3035 7.55123 22.3035 7.12581V0.797665C22.3035 0.372244 21.9272 0 21.4971 0C21.067 0 20.6907 0.372244 20.6907 0.797665Z" fill="#192646"/>
<path d="M11.8207 10.476C11.982 10.6887 12.2508 10.7951 12.4658 10.7951C12.6271 10.7951 12.7883 10.7419 12.9496 10.6355C13.3259 10.3696 13.3797 9.89105 13.1109 9.51881L9.34784 4.41375C9.07905 4.09468 8.59523 3.98833 8.21893 4.25422C7.84262 4.5201 7.78887 4.9987 8.05765 5.37095L11.8207 10.476Z" fill="#192646"/>
<path d="M0.531566 16.4319L6.60619 18.3995C6.65995 18.3995 6.76747 18.4527 6.87498 18.4527C7.19753 18.4527 7.52008 18.2399 7.62759 17.9209C7.78887 17.4955 7.52008 17.07 7.09001 16.9105L1.06914 14.8898C0.639082 14.7834 0.20902 14.9961 0.0477464 15.4215C-0.113527 15.847 0.155262 16.2724 0.531566 16.4319Z" fill="#192646"/>
<path d="M42.9465 15.4215C42.7852 14.9961 42.3551 14.7834 41.9251 14.8898L35.8504 16.8573C35.4204 17.0169 35.2053 17.4423 35.3128 17.8677C35.4204 18.1868 35.7429 18.3995 36.0655 18.3995C36.173 18.3995 36.2267 18.3995 36.3342 18.3463L42.4626 16.4319C42.8927 16.3256 43.1077 15.847 42.9465 15.4215Z" fill="#192646"/>
<path d="M33.6464 4.41375L29.8833 9.51881C29.6145 9.89105 29.722 10.3696 30.0446 10.6355C30.2059 10.7419 30.3671 10.7951 30.5284 10.7951C30.7972 10.7951 31.0122 10.6887 31.1735 10.476L34.9365 5.37095C35.2053 4.9987 35.0978 4.5201 34.7753 4.25422C34.4527 3.98833 33.9151 4.09468 33.6464 4.41375Z" fill="#192646"/>
</svg>
