<svg width="58" height="49" viewBox="0 0 58 49" fill="none" xmlns="http://www.w3.org/2000/svg">
<path d="M1.58605 27.0111H1.57775L1.56957 27.0125C1.12065 27.0875 0.9 27.4648 0.9 27.8292C0.9 28.034 1.02189 28.2071 1.17521 28.3247C1.32902 28.4426 1.52908 28.5167 1.71628 28.5167H46.5814C51.5399 28.5167 55.5977 32.5842 55.5977 37.5556C55.5977 42.5274 51.6045 46.5944 46.5814 46.5944C41.5583 46.5944 37.5651 42.5274 37.5651 37.5556C37.5651 37.3371 37.492 37.1472 37.3568 37.0117C37.2216 36.8761 37.0321 36.8028 36.814 36.8028C36.5958 36.8028 36.4063 36.8761 36.2711 37.0117C36.1359 37.1472 36.0628 37.3371 36.0628 37.5556C36.0628 43.355 40.7957 48.1 46.5814 48.1C52.3671 48.1 57.1 43.355 57.1 37.5556C57.1 31.7561 52.3671 27.0111 46.5814 27.0111H1.71628H1.71626H1.71624H1.71622H1.71619H1.71617H1.71615H1.71613H1.71611H1.71609H1.71607H1.71604H1.71601H1.71598H1.71595H1.71592H1.71589H1.71586H1.71582H1.71578H1.71575H1.71571H1.71566H1.71562H1.71558H1.71553H1.71548H1.71544H1.71539H1.71534H1.71528H1.71523H1.71517H1.71512H1.71506H1.715H1.71494H1.71488H1.71481H1.71475H1.71468H1.71462H1.71455H1.71448H1.71441H1.71433H1.71426H1.71418H1.71411H1.71403H1.71395H1.71387H1.71378H1.7137H1.71362H1.71353H1.71344H1.71335H1.71326H1.71317H1.71308H1.71299H1.71289H1.71279H1.7127H1.7126H1.7125H1.7124H1.71229H1.71219H1.71208H1.71198H1.71187H1.71176H1.71165H1.71154H1.71142H1.71131H1.71119H1.71108H1.71096H1.71084H1.71072H1.7106H1.71047H1.71035H1.71022H1.7101H1.70997H1.70984H1.70971H1.70958H1.70945H1.70931H1.70918H1.70904H1.7089H1.70876H1.70862H1.70848H1.70834H1.7082H1.70805H1.70791H1.70776H1.70761H1.70746H1.70731H1.70716H1.70701H1.70686H1.7067H1.70654H1.70639H1.70623H1.70607H1.70591H1.70575H1.70558H1.70542H1.70525H1.70509H1.70492H1.70475H1.70458H1.70441H1.70424H1.70407H1.70389H1.70372H1.70354H1.70336H1.70318H1.703H1.70282H1.70264H1.70246H1.70228H1.70209H1.7019H1.70172H1.70153H1.70134H1.70115H1.70096H1.70077H1.70057H1.70038H1.70018H1.69999H1.69979H1.69959H1.69939H1.69919H1.69899H1.69878H1.69858H1.69838H1.69817H1.69796H1.69776H1.69755H1.69734H1.69713H1.69691H1.6967H1.69649H1.69627H1.69606H1.69584H1.69562H1.6954H1.69518H1.69496H1.69474H1.69452H1.6943H1.69407H1.69385H1.69362H1.69339H1.69316H1.69294H1.69271H1.69247H1.69224H1.69201H1.69178H1.69154H1.6913H1.69107H1.69083H1.69059H1.69035H1.69011H1.68987H1.68963H1.68939H1.68914H1.6889H1.68865H1.6884H1.68816H1.68791H1.68766H1.68741H1.68716H1.68691H1.68665H1.6864H1.68615H1.68589H1.68563H1.68538H1.68512H1.68486H1.6846H1.68434H1.68408H1.68382H1.68355H1.68329H1.68303H1.68276H1.68249H1.68223H1.68196H1.68169H1.68142H1.68115H1.68088H1.68061H1.68034H1.68006H1.67979H1.67951H1.67924H1.67896H1.67868H1.67841H1.67813H1.67785H1.67757H1.67728H1.677H1.67672H1.67644H1.67615H1.67587H1.67558H1.67529H1.67501H1.67472H1.67443H1.67414H1.67385H1.67356H1.67327H1.67298H1.67268H1.67239H1.67209H1.6718H1.6715H1.67121H1.67091H1.67061H1.67031H1.67001H1.66971H1.66941H1.66911H1.66881H1.66851H1.6682H1.6679H1.66759H1.66729H1.66698H1.66667H1.66637H1.66606H1.66575H1.66544H1.66513H1.66482H1.66451H1.6642H1.66388H1.66357H1.66326H1.66294H1.66263H1.66231H1.66199H1.66168H1.66136H1.66104H1.66072H1.6604H1.66008H1.65976H1.65944H1.65912H1.6588H1.65847H1.65815H1.65783H1.6575H1.65718H1.65685H1.65652H1.6562H1.65587H1.65554H1.65521H1.65488H1.65455H1.65422H1.65389H1.65356H1.65323H1.6529H1.65256H1.65223H1.65189H1.65156H1.65122H1.65089H1.65055H1.65022H1.64988H1.64954H1.6492H1.64886H1.64852H1.64819H1.64784H1.6475H1.64716H1.64682H1.64648H1.64614H1.64579H1.64545H1.64511H1.64476H1.64442H1.64407H1.64373H1.64338H1.64303H1.64268H1.64234H1.64199H1.64164H1.64129H1.64094H1.64059H1.64024H1.63989H1.63954H1.63919H1.63884H1.63848H1.63813H1.63778H1.63742H1.63707H1.63672H1.63636H1.63601H1.63565H1.63529H1.63494H1.63458H1.63422H1.63387H1.63351H1.63315H1.63279H1.63243H1.63207H1.63171H1.63135H1.63099H1.63063H1.63027H1.62991H1.62955H1.62919H1.62882H1.62846H1.6281H1.62773H1.62737H1.62701H1.62664H1.62628H1.62591H1.62555H1.62518H1.62482H1.62445H1.62408H1.62372H1.62335H1.62298H1.62261H1.62225H1.62188H1.62151H1.62114H1.62077H1.6204H1.62003H1.61966H1.61929H1.61892H1.61855H1.61818H1.61781H1.61744H1.61707H1.61669H1.61632H1.61595H1.61558H1.6152H1.61483H1.61446H1.61408H1.61371H1.61334H1.61296H1.61259H1.61221H1.61184H1.61146H1.61109H1.61071H1.61034H1.60996H1.60959H1.60921H1.60883H1.60846H1.60808H1.6077H1.60733H1.60695H1.60657H1.6062H1.60582H1.60544H1.60506H1.60468H1.60431H1.60393H1.60355H1.60317H1.60279H1.60241H1.60204H1.60166H1.60128H1.6009H1.60052H1.60014H1.59976H1.59938H1.599H1.59862H1.59824H1.59786H1.59748H1.5971H1.59672H1.59634H1.59596H1.59558H1.5952H1.59482H1.59444H1.59405H1.59367H1.59329H1.59291H1.59253H1.59215H1.59177H1.59139H1.59101H1.59062H1.59024H1.58986H1.58948H1.5891H1.58872H1.58834H1.58795H1.58757H1.58719H1.58681H1.58643H1.58605ZM4.1907 32.2333H4.1824L4.17422 32.2347C3.72531 32.3097 3.50465 32.687 3.50465 33.0514V33.0596L3.50601 33.0678C3.58075 33.5174 3.95699 33.7389 4.32093 33.7389H22.5535C25.4974 33.7389 27.8581 36.0478 27.8581 38.7958C27.8581 41.6083 25.4983 43.8528 22.5535 43.8528C19.6096 43.8528 17.2488 41.5438 17.2488 38.7958C17.2488 38.5773 17.1758 38.3875 17.0406 38.2519C16.9053 38.1164 16.7158 38.043 16.4977 38.043C16.2795 38.043 16.09 38.1164 15.9548 38.2519C15.8196 38.3875 15.7465 38.5773 15.7465 38.7958C15.7465 42.4455 18.8561 45.3583 22.5535 45.3583C26.2509 45.3583 29.3605 42.4455 29.3605 38.7958C29.3605 35.1461 26.2509 32.2333 22.5535 32.2333H4.32093H4.32091H4.32089H4.32087H4.32084H4.32082H4.32081H4.32079H4.32076H4.32074H4.32072H4.32069H4.32066H4.32064H4.32061H4.32057H4.32054H4.32051H4.32047H4.32044H4.3204H4.32036H4.32032H4.32027H4.32023H4.32018H4.32014H4.32009H4.32004H4.31999H4.31993H4.31988H4.31983H4.31977H4.31971H4.31965H4.31959H4.31953H4.31947H4.3194H4.31933H4.31927H4.3192H4.31913H4.31906H4.31898H4.31891H4.31883H4.31876H4.31868H4.3186H4.31852H4.31844H4.31835H4.31827H4.31818H4.31809H4.31801H4.31791H4.31782H4.31773H4.31764H4.31754H4.31745H4.31735H4.31725H4.31715H4.31705H4.31694H4.31684H4.31673H4.31663H4.31652H4.31641H4.3163H4.31619H4.31607H4.31596H4.31584H4.31573H4.31561H4.31549H4.31537H4.31525H4.31512H4.315H4.31488H4.31475H4.31462H4.31449H4.31436H4.31423H4.3141H4.31396H4.31383H4.31369H4.31355H4.31342H4.31328H4.31314H4.31299H4.31285H4.3127H4.31256H4.31241H4.31226H4.31211H4.31196H4.31181H4.31166H4.31151H4.31135H4.3112H4.31104H4.31088H4.31072H4.31056H4.3104H4.31023H4.31007H4.3099H4.30974H4.30957H4.3094H4.30923H4.30906H4.30889H4.30872H4.30854H4.30837H4.30819H4.30801H4.30784H4.30766H4.30748H4.30729H4.30711H4.30693H4.30674H4.30656H4.30637H4.30618H4.30599H4.3058H4.30561H4.30542H4.30522H4.30503H4.30483H4.30464H4.30444H4.30424H4.30404H4.30384H4.30364H4.30344H4.30323H4.30303H4.30282H4.30261H4.30241H4.3022H4.30199H4.30178H4.30157H4.30135H4.30114H4.30092H4.30071H4.30049H4.30027H4.30006H4.29984H4.29962H4.29939H4.29917H4.29895H4.29872H4.2985H4.29827H4.29804H4.29782H4.29759H4.29736H4.29713H4.29689H4.29666H4.29643H4.29619H4.29596H4.29572H4.29548H4.29524H4.295H4.29476H4.29452H4.29428H4.29404H4.29379H4.29355H4.2933H4.29306H4.29281H4.29256H4.29231H4.29206H4.29181H4.29156H4.29131H4.29105H4.2908H4.29054H4.29029H4.29003H4.28977H4.28951H4.28925H4.28899H4.28873H4.28847H4.28821H4.28794H4.28768H4.28741H4.28715H4.28688H4.28661H4.28634H4.28607H4.2858H4.28553H4.28526H4.28499H4.28471H4.28444H4.28416H4.28389H4.28361H4.28333H4.28306H4.28278H4.2825H4.28222H4.28194H4.28165H4.28137H4.28109H4.2808H4.28052H4.28023H4.27995H4.27966H4.27937H4.27908H4.27879H4.2785H4.27821H4.27792H4.27763H4.27733H4.27704H4.27675H4.27645H4.27615H4.27586H4.27556H4.27526H4.27496H4.27466H4.27436H4.27406H4.27376H4.27346H4.27316H4.27285H4.27255H4.27224H4.27194H4.27163H4.27133H4.27102H4.27071H4.2704H4.27009H4.26978H4.26947H4.26916H4.26885H4.26853H4.26822H4.26791H4.26759H4.26728H4.26696H4.26665H4.26633H4.26601H4.26569H4.26537H4.26505H4.26473H4.26441H4.26409H4.26377H4.26345H4.26312H4.2628H4.26248H4.26215H4.26183H4.2615H4.26117H4.26085H4.26052H4.26019H4.25986H4.25953H4.2592H4.25887H4.25854H4.25821H4.25788H4.25755H4.25721H4.25688H4.25655H4.25621H4.25588H4.25554H4.2552H4.25487H4.25453H4.25419H4.25385H4.25352H4.25318H4.25284H4.2525H4.25216H4.25181H4.25147H4.25113H4.25079H4.25044H4.2501H4.24976H4.24941H4.24907H4.24872H4.24838H4.24803H4.24768H4.24734H4.24699H4.24664H4.24629H4.24594H4.24559H4.24524H4.24489H4.24454H4.24419H4.24384H4.24349H4.24313H4.24278H4.24243H4.24208H4.24172H4.24137H4.24101H4.24066H4.2403H4.23995H4.23959H4.23923H4.23888H4.23852H4.23816H4.2378H4.23744H4.23708H4.23672H4.23636H4.236H4.23564H4.23528H4.23492H4.23456H4.2342H4.23384H4.23347H4.23311H4.23275H4.23239H4.23202H4.23166H4.23129H4.23093H4.23056H4.2302H4.22983H4.22947H4.2291H4.22873H4.22837H4.228H4.22763H4.22726H4.2269H4.22653H4.22616H4.22579H4.22542H4.22505H4.22468H4.22431H4.22394H4.22357H4.2232H4.22283H4.22246H4.22209H4.22172H4.22134H4.22097H4.2206H4.22023H4.21986H4.21948H4.21911H4.21874H4.21836H4.21799H4.21761H4.21724H4.21686H4.21649H4.21612H4.21574H4.21536H4.21499H4.21461H4.21424H4.21386H4.21349H4.21311H4.21273H4.21236H4.21198H4.2116H4.21122H4.21085H4.21047H4.21009H4.20971H4.20934H4.20896H4.20858H4.2082H4.20782H4.20744H4.20707H4.20669H4.20631H4.20593H4.20555H4.20517H4.20479H4.20441H4.20403H4.20365H4.20327H4.20289H4.20251H4.20213H4.20175H4.20137H4.20099H4.20061H4.20023H4.19985H4.19947H4.19909H4.19871H4.19832H4.19794H4.19756H4.19718H4.1968H4.19642H4.19604H4.19566H4.19528H4.19489H4.19451H4.19413H4.19375H4.19337H4.19299H4.19261H4.19222H4.19184H4.19146H4.19108H4.1907ZM29.0651 0.9C23.2794 0.9 18.5465 5.64501 18.5465 11.4444C18.5465 11.6629 18.6196 11.8528 18.7548 11.9883C18.89 12.1239 19.0795 12.1972 19.2977 12.1972C19.5158 12.1972 19.7054 12.1239 19.8406 11.9883C19.9758 11.8528 20.0488 11.6629 20.0488 11.4444C20.0488 6.47258 24.042 2.40556 29.0651 2.40556C34.0883 2.40556 38.0814 6.47258 38.0814 11.4444C38.0814 16.4163 34.0883 20.4833 29.0651 20.4833H4.32093C4.10278 20.4833 3.91325 20.5567 3.77804 20.6922C3.64284 20.8278 3.56977 21.0176 3.56977 21.2361C3.56977 21.4546 3.64284 21.6445 3.77804 21.78C3.91325 21.9156 4.10278 21.9889 4.32093 21.9889H29C34.7857 21.9889 39.5186 17.2439 39.5186 11.4444C39.5186 5.64582 34.8516 0.9 29.0651 0.9Z" fill="#192646" stroke="#192646" stroke-width="0.2"/>
</svg>
