<svg width="50" height="50" viewBox="0 0 50 50" fill="none" xmlns="http://www.w3.org/2000/svg">
<path d="M12.611 36.1867C12.4324 36.6334 12.7003 37.1695 13.1467 37.3482C13.5932 37.5269 14.129 37.2589 14.2182 36.8121C14.2182 36.8121 16.0934 31.6299 16.272 31.0044L21.7188 27.8772C22.3439 28.5026 23.1475 29.0387 24.0404 29.1281V35.4719C23.1475 36.4547 20.0223 40.118 20.0223 40.118C19.6651 40.4754 19.7544 41.1009 20.1115 41.3689C20.4687 41.637 21.0045 41.637 21.3616 41.2796L24.0404 38.2417V42.7985C24.0404 43.3346 24.4869 43.692 24.9333 43.692C25.3798 43.692 25.8263 43.3346 25.8263 42.7985V38.2417L28.505 41.2796C28.8622 41.637 29.398 41.637 29.7551 41.3689C30.1123 41.0115 30.1123 40.4754 29.8444 40.118L25.8263 35.4719V29.1281C26.7192 28.9494 27.5228 28.5026 28.1479 27.8772L33.5947 31.0044L35.6484 36.8121C35.827 37.2589 36.3628 37.5269 36.8092 37.3482C37.2557 37.1695 37.5236 36.7228 37.345 36.1867L36.0056 32.3447C36.0949 32.3447 40.3809 35.0251 40.4702 34.7571C41.006 34.7571 41.3631 34.3103 41.3631 33.8636C41.3631 33.5955 41.1846 33.2381 40.9167 33.1488C40.9167 33.1488 39.1308 32.166 36.8985 30.8257C38.5058 30.5577 40.9167 30.1109 40.9167 30.1109C41.3631 30.0216 41.7203 29.5748 41.631 29.0387C41.5417 28.592 41.0953 28.2346 40.6488 28.3239C40.6488 28.3239 35.202 29.3068 34.6662 29.4855C32.4339 28.2346 30.2016 26.8944 29.1301 26.2689C29.398 25.4648 29.398 24.5713 29.1301 23.6778L34.6662 20.4612L40.6488 21.6228C41.0953 21.7121 41.631 21.3547 41.631 20.908C41.7203 20.4612 41.3631 20.0145 40.9167 19.9251L36.8985 19.2103L40.9167 16.8872C41.3631 16.6192 41.4524 16.0831 41.1846 15.6364C40.9167 15.1896 40.3809 15.1003 40.0238 15.279C40.0238 15.279 38.2379 16.2618 36.0056 17.602L37.345 13.76C37.5236 13.3133 37.2557 12.7772 36.8092 12.5985C36.3628 12.4198 35.827 12.6878 35.7377 13.1346C35.7377 13.1346 33.8626 18.3168 33.684 18.9423C31.4517 20.1932 29.3087 21.4441 28.2372 22.0695C27.6121 21.4441 26.8085 20.908 25.9156 20.8186V14.4748C26.8085 13.492 29.9337 9.82865 29.9337 9.82865C30.2909 9.47126 30.2016 8.84581 29.8444 8.57776C29.4872 8.30972 28.9515 8.30972 28.5943 8.66711L25.9156 11.705V7.14818C25.9156 6.61208 25.4691 6.25468 25.0226 6.25468C24.5762 6.25468 24.1297 6.61208 24.1297 7.14818V11.705C23.0582 10.4541 21.4509 8.66711 21.4509 8.66711C21.0938 8.30972 20.558 8.30972 20.2008 8.57776C19.8437 8.93516 19.8437 9.47126 20.1115 9.82865L24.1297 14.4748V20.8186C23.2368 20.9973 22.4331 21.4441 21.8081 22.0695L16.3613 18.9423L14.3075 13.1346C14.129 12.6878 13.5932 12.4198 13.1467 12.5985C12.7003 12.7772 12.4324 13.2239 12.611 13.6707L13.9504 17.5127L9.93221 15.1896C9.48574 14.9216 8.94999 15.1003 8.68211 15.547C8.41423 15.9937 8.59282 16.5298 9.03928 16.7979L13.0574 19.121C11.4502 19.389 9.03928 19.8358 9.03928 19.8358C8.59282 19.9251 8.23565 20.3719 8.32494 20.908C8.41424 21.3547 8.7714 21.6228 9.21787 21.6228C9.30716 21.6228 9.30716 21.6228 9.39645 21.6228C9.39645 21.6228 14.8433 20.6399 15.379 20.4612L20.9152 23.6778C20.6473 24.4819 20.6473 25.3754 20.9152 26.2689C19.8437 26.8944 17.6114 28.1452 15.379 29.4855L9.39645 28.3239C8.94999 28.2346 8.50353 28.592 8.41423 29.0387C8.32494 29.4855 8.68211 29.9322 9.12857 30.0216L13.1467 30.7364C10.9144 31.9873 9.12857 33.0595 9.12857 33.0595C8.68211 33.3275 8.59282 33.8636 8.8607 34.3103C9.12857 34.6677 9.66433 34.8464 10.0215 34.6677L14.0397 32.3447C13.4146 33.7742 12.611 36.1867 12.611 36.1867ZM24.9333 22.5162C26.2727 22.5162 27.3442 23.6778 27.3442 25.018C27.3442 26.3583 26.2727 27.4305 24.9333 27.4305C23.5939 27.4305 22.4331 26.3583 22.4331 24.9287C22.5224 23.5884 23.5939 22.5162 24.9333 22.5162Z" fill="#192646"/>
<path d="M43.8633 8.66711L45.2027 8.84581C45.6492 8.93516 46.0956 8.57776 46.1849 8.04167C46.2742 7.59492 45.9171 7.14818 45.3813 7.05883L41.9882 6.61208C41.5417 6.52273 41.0953 6.88013 41.006 7.32687L40.5595 10.7221C40.4702 11.1689 40.8274 11.6156 41.3631 11.705C41.8096 11.7943 42.2561 11.4369 42.3454 10.9008L42.5239 9.7393C59.4895 29.9322 35.4698 58.524 12.2538 44.2281C11.8073 43.9601 11.2716 44.0494 11.0037 44.4962C10.7358 44.9429 10.8251 45.479 11.2716 45.747C35.7377 61.3832 62.2576 30.4683 43.8633 8.66711Z" fill="#192646"/>
<path d="M7.43202 38.8671L7.34273 39.9393C-9.53354 20.0145 14.8433 -8.93469 37.7022 5.53989C38.1486 5.80794 38.6844 5.71859 38.9522 5.27184C39.2201 4.8251 39.1308 4.289 38.6844 4.02095C34.5769 1.42983 29.8444 0.000237822 24.9333 0.000237822C3.94961 -0.0891114 -7.7477 25.018 5.82475 41.0115C5.19971 40.9222 4.57466 40.8328 4.57466 40.8328C4.1282 40.7435 3.68174 41.1009 3.59244 41.637C3.50315 42.0837 3.86032 42.5305 4.30678 42.6198L7.87848 43.1559C8.32494 43.2453 8.8607 42.8879 8.8607 42.3518L9.12857 39.1352C9.12857 38.6884 8.7714 38.2417 8.32494 38.1524C7.87848 38.063 7.52131 38.4204 7.43202 38.8671Z" fill="#192646"/>
</svg>
