<svg width="35" height="43" viewBox="0 0 35 43" fill="none" xmlns="http://www.w3.org/2000/svg">
<path d="M34.2762 40.807H0.723844C0.340633 40.807 0 40.463 0 40.076V0.731C0 0.344 0.340633 0 0.723844 0H34.2762C34.6594 0 35 0.344 35 0.731V40.119C35 40.506 34.6594 40.807 34.2762 40.807ZM1.44769 39.388H33.5949V1.462H1.44769V39.388Z" fill="#192646"/>
<path d="M32.0195 43H2.98054C2.59732 43 2.25669 42.656 2.25669 42.269V40.076C2.25669 39.689 2.59732 39.345 2.98054 39.345H32.0195C32.4027 39.345 32.7433 39.689 32.7433 40.076V42.269C32.7433 42.656 32.4027 43 32.0195 43ZM3.70438 41.538H31.2956V40.807H3.70438V41.538Z" fill="#192646"/>
<path d="M17.5 40.807C17.1168 40.807 16.7762 40.463 16.7762 40.076V0.731C16.7762 0.344 17.1168 0 17.5 0C17.8832 0 18.2238 0.344 18.2238 0.731V40.119C18.2238 40.506 17.8832 40.807 17.5 40.807Z" fill="#192646"/>
<path d="M11.0706 26.789H4.08759C3.70438 26.789 3.36375 26.445 3.36375 26.058V16.082C3.36375 15.695 3.70438 15.351 4.08759 15.351H11.0706C11.4538 15.351 11.7944 15.695 11.7944 16.082V26.058C11.7944 26.445 11.4538 26.789 11.0706 26.789ZM4.81144 25.327H10.3467V16.813H4.81144V25.327Z" fill="#192646"/>
<path d="M11.0706 20.038H4.08759C3.70438 20.038 3.36375 19.694 3.36375 19.307C3.36375 18.92 3.70438 18.576 4.08759 18.576H11.0706C11.4538 18.576 11.7944 18.92 11.7944 19.307C11.7944 19.694 11.4538 20.038 11.0706 20.038Z" fill="#192646"/>
<path d="M20.1399 31.906C19.7567 31.906 19.4161 31.562 19.4161 31.175V12.04C19.4161 11.653 19.7567 11.309 20.1399 11.309C20.5231 11.309 20.8637 11.653 20.8637 12.04V31.175C20.8637 31.562 20.5231 31.906 20.1399 31.906Z" fill="#192646"/>
<path d="M14.8601 31.906C14.4769 31.906 14.1363 31.562 14.1363 31.175V12.04C14.1363 11.653 14.4769 11.309 14.8601 11.309C15.2433 11.309 15.5839 11.653 15.5839 12.04V31.175C15.5839 31.562 15.2859 31.906 14.8601 31.906Z" fill="#192646"/>
</svg>
