<svg width="34" height="38" viewBox="0 0 34 38" fill="none" xmlns="http://www.w3.org/2000/svg">
<mask id="path-1-outside-1_225_711" maskUnits="userSpaceOnUse" x="0" y="0" width="34" height="38" fill="black">
<rect fill="white" width="34" height="38"/>
<path d="M17.1295 37.7316C15.7516 37.7316 14.6169 36.6039 14.6169 35.2345C14.6169 33.8651 15.7516 32.7374 17.1295 32.7374C18.5074 32.7374 19.6422 33.8651 19.6422 35.2345C19.6422 36.624 18.5074 37.7316 17.1295 37.7316ZM17.1295 33.4624C16.1366 33.4624 15.3464 34.2477 15.3464 35.2345C15.3464 36.2213 16.1366 37.0066 17.1295 37.0066C18.1224 37.0066 18.9127 36.2213 18.9127 35.2345C18.9127 34.2679 18.1224 33.4624 17.1295 33.4624Z"/>
<path d="M17.1295 33.4624C16.9269 33.4624 16.7648 33.3013 16.7648 33.0999V29.3945C16.7648 29.1931 16.9269 29.032 17.1295 29.032C17.3321 29.032 17.4943 29.1931 17.4943 29.3945V33.0999C17.4943 33.3013 17.3321 33.4624 17.1295 33.4624Z"/>
<path d="M32.8943 9.45794C32.6917 9.45794 32.5296 9.29683 32.5296 9.09545V7.38373C32.5296 5.97407 31.3745 4.80607 29.9359 4.80607H27.6056C27.403 4.80607 27.2409 4.64497 27.2409 4.44359C27.2409 4.24221 27.403 4.08111 27.6056 4.08111H29.9359C31.7595 4.08111 33.259 5.55118 33.259 7.38373V9.09545C33.259 9.29683 33.0969 9.45794 32.8943 9.45794Z"/>
<path d="M29.9359 29.7771H4.32317C2.49948 29.7771 1 28.307 1 26.4745V7.38373C1 5.57131 2.47921 4.08111 4.32317 4.08111H9.14581C9.34844 4.08111 9.51055 4.24221 9.51055 4.44359C9.51055 4.64497 9.34844 4.80607 9.14581 4.80607H4.32317C2.90474 4.80607 1.72948 5.95393 1.72948 7.38373V26.4745C1.72948 27.8842 2.88448 29.0522 4.32317 29.0522H29.9561C31.3745 29.0522 32.5498 27.9043 32.5498 26.4745V11.4516C32.5498 11.2502 32.7119 11.0891 32.9146 11.0891C33.1172 11.0891 33.2793 11.2502 33.2793 11.4516V26.4745C33.259 28.2869 31.7798 29.7771 29.9359 29.7771Z"/>
<path d="M23.9177 5.672H10.3616C9.44976 5.672 8.72028 4.94704 8.72028 4.04083V2.63117C8.72028 1.72497 9.44976 1 10.3616 1H23.9177C24.8295 1 25.559 1.72497 25.559 2.63117V4.04083C25.559 4.94704 24.8093 5.672 23.9177 5.672ZM10.3616 1.72497C9.85502 1.72497 9.44976 2.12772 9.44976 2.63117V4.04083C9.44976 4.54428 9.85502 4.94704 10.3616 4.94704H23.9177C24.4243 4.94704 24.8295 4.54428 24.8295 4.04083V2.63117C24.8295 2.12772 24.4243 1.72497 23.9177 1.72497H10.3616Z"/>
<path d="M27.7677 23.1115C27.5651 23.1115 27.403 22.9504 27.403 22.749V9.61904C27.403 9.35725 27.2206 9.13573 26.9977 9.13573H24.2824C24.0595 9.13573 23.8772 9.35725 23.8772 9.61904V21.9233C23.8772 22.5879 23.3706 23.1316 22.7424 23.1316H20.0272C19.399 23.1316 18.8924 22.5879 18.8924 21.9233V15.4792C18.8924 15.2174 18.71 14.9959 18.4871 14.9959H15.7719C15.549 14.9959 15.3666 15.2174 15.3666 15.4792V21.9233C15.3666 22.5879 14.86 23.1316 14.2319 23.1316H11.5166C10.8884 23.1316 10.3819 22.5879 10.3819 21.9233V20.856C10.3819 20.5942 10.1995 20.3727 9.9766 20.3727H7.28159C7.0587 20.3727 6.87633 20.5942 6.87633 20.856V22.7691C6.87633 22.9705 6.71422 23.1316 6.51159 23.1316C6.30896 23.1316 6.14685 22.9705 6.14685 22.7691V20.856C6.14685 20.1915 6.65343 19.6477 7.28159 19.6477H9.99686C10.625 19.6477 11.1316 20.1915 11.1316 20.856V21.9233C11.1316 22.1851 11.314 22.4066 11.5369 22.4066H14.2521C14.475 22.4066 14.6574 22.1851 14.6574 21.9233V15.4792C14.6574 14.8146 15.164 14.2709 15.7921 14.2709H18.5074C19.1356 14.2709 19.6422 14.8146 19.6422 15.4792V21.9233C19.6422 22.1851 19.8245 22.4066 20.0474 22.4066H22.7627C22.9856 22.4066 23.1679 22.1851 23.1679 21.9233V9.61904C23.1679 8.95449 23.6745 8.41076 24.3027 8.41076H27.018C27.6461 8.41076 28.1527 8.95449 28.1527 9.61904V22.749C28.1324 22.9504 27.9703 23.1115 27.7677 23.1115Z"/>
</mask>
<path d="M17.1295 37.7316C15.7516 37.7316 14.6169 36.6039 14.6169 35.2345C14.6169 33.8651 15.7516 32.7374 17.1295 32.7374C18.5074 32.7374 19.6422 33.8651 19.6422 35.2345C19.6422 36.624 18.5074 37.7316 17.1295 37.7316ZM17.1295 33.4624C16.1366 33.4624 15.3464 34.2477 15.3464 35.2345C15.3464 36.2213 16.1366 37.0066 17.1295 37.0066C18.1224 37.0066 18.9127 36.2213 18.9127 35.2345C18.9127 34.2679 18.1224 33.4624 17.1295 33.4624Z" fill="#192646"/>
<path d="M17.1295 33.4624C16.9269 33.4624 16.7648 33.3013 16.7648 33.0999V29.3945C16.7648 29.1931 16.9269 29.032 17.1295 29.032C17.3321 29.032 17.4943 29.1931 17.4943 29.3945V33.0999C17.4943 33.3013 17.3321 33.4624 17.1295 33.4624Z" fill="#192646"/>
<path d="M32.8943 9.45794C32.6917 9.45794 32.5296 9.29683 32.5296 9.09545V7.38373C32.5296 5.97407 31.3745 4.80607 29.9359 4.80607H27.6056C27.403 4.80607 27.2409 4.64497 27.2409 4.44359C27.2409 4.24221 27.403 4.08111 27.6056 4.08111H29.9359C31.7595 4.08111 33.259 5.55118 33.259 7.38373V9.09545C33.259 9.29683 33.0969 9.45794 32.8943 9.45794Z" fill="#192646"/>
<path d="M29.9359 29.7771H4.32317C2.49948 29.7771 1 28.307 1 26.4745V7.38373C1 5.57131 2.47921 4.08111 4.32317 4.08111H9.14581C9.34844 4.08111 9.51055 4.24221 9.51055 4.44359C9.51055 4.64497 9.34844 4.80607 9.14581 4.80607H4.32317C2.90474 4.80607 1.72948 5.95393 1.72948 7.38373V26.4745C1.72948 27.8842 2.88448 29.0522 4.32317 29.0522H29.9561C31.3745 29.0522 32.5498 27.9043 32.5498 26.4745V11.4516C32.5498 11.2502 32.7119 11.0891 32.9146 11.0891C33.1172 11.0891 33.2793 11.2502 33.2793 11.4516V26.4745C33.259 28.2869 31.7798 29.7771 29.9359 29.7771Z" fill="#192646"/>
<path d="M23.9177 5.672H10.3616C9.44976 5.672 8.72028 4.94704 8.72028 4.04083V2.63117C8.72028 1.72497 9.44976 1 10.3616 1H23.9177C24.8295 1 25.559 1.72497 25.559 2.63117V4.04083C25.559 4.94704 24.8093 5.672 23.9177 5.672ZM10.3616 1.72497C9.85502 1.72497 9.44976 2.12772 9.44976 2.63117V4.04083C9.44976 4.54428 9.85502 4.94704 10.3616 4.94704H23.9177C24.4243 4.94704 24.8295 4.54428 24.8295 4.04083V2.63117C24.8295 2.12772 24.4243 1.72497 23.9177 1.72497H10.3616Z" fill="#192646"/>
<path d="M27.7677 23.1115C27.5651 23.1115 27.403 22.9504 27.403 22.749V9.61904C27.403 9.35725 27.2206 9.13573 26.9977 9.13573H24.2824C24.0595 9.13573 23.8772 9.35725 23.8772 9.61904V21.9233C23.8772 22.5879 23.3706 23.1316 22.7424 23.1316H20.0272C19.399 23.1316 18.8924 22.5879 18.8924 21.9233V15.4792C18.8924 15.2174 18.71 14.9959 18.4871 14.9959H15.7719C15.549 14.9959 15.3666 15.2174 15.3666 15.4792V21.9233C15.3666 22.5879 14.86 23.1316 14.2319 23.1316H11.5166C10.8884 23.1316 10.3819 22.5879 10.3819 21.9233V20.856C10.3819 20.5942 10.1995 20.3727 9.9766 20.3727H7.28159C7.0587 20.3727 6.87633 20.5942 6.87633 20.856V22.7691C6.87633 22.9705 6.71422 23.1316 6.51159 23.1316C6.30896 23.1316 6.14685 22.9705 6.14685 22.7691V20.856C6.14685 20.1915 6.65343 19.6477 7.28159 19.6477H9.99686C10.625 19.6477 11.1316 20.1915 11.1316 20.856V21.9233C11.1316 22.1851 11.314 22.4066 11.5369 22.4066H14.2521C14.475 22.4066 14.6574 22.1851 14.6574 21.9233V15.4792C14.6574 14.8146 15.164 14.2709 15.7921 14.2709H18.5074C19.1356 14.2709 19.6422 14.8146 19.6422 15.4792V21.9233C19.6422 22.1851 19.8245 22.4066 20.0474 22.4066H22.7627C22.9856 22.4066 23.1679 22.1851 23.1679 21.9233V9.61904C23.1679 8.95449 23.6745 8.41076 24.3027 8.41076H27.018C27.6461 8.41076 28.1527 8.95449 28.1527 9.61904V22.749C28.1324 22.9504 27.9703 23.1115 27.7677 23.1115Z" fill="#192646"/>
<path d="M18.9127 35.2345H18.8208H18.9127ZM17.4943 33.0999H17.4024H17.4943ZM33.2793 26.4745L33.3711 26.4755V26.4745H33.2793ZM28.1527 22.749L28.2445 22.7582V22.749H28.1527ZM17.1295 37.6398C15.8018 37.6398 14.7087 36.5526 14.7087 35.2345H14.525C14.525 36.6551 15.7014 37.8234 17.1295 37.8234V37.6398ZM14.7087 35.2345C14.7087 33.9164 15.8018 32.8292 17.1295 32.8292V32.6456C15.7014 32.6456 14.525 33.8139 14.525 35.2345H14.7087ZM17.1295 32.8292C18.4572 32.8292 19.5503 33.9164 19.5503 35.2345H19.734C19.734 33.8139 18.5576 32.6456 17.1295 32.6456V32.8292ZM19.5503 35.2345C19.5503 36.5723 18.4577 37.6398 17.1295 37.6398V37.8234C18.5571 37.8234 19.734 36.6758 19.734 35.2345H19.5503ZM17.1295 33.3705C16.0864 33.3705 15.2545 34.1965 15.2545 35.2345H15.4382C15.4382 34.299 16.1868 33.5542 17.1295 33.5542V33.3705ZM15.2545 35.2345C15.2545 36.2725 16.0864 37.0985 17.1295 37.0985V36.9148C16.1868 36.9148 15.4382 36.17 15.4382 35.2345H15.2545ZM17.1295 37.0985C18.1726 37.0985 19.0045 36.2725 19.0045 35.2345H18.8208C18.8208 36.17 18.0722 36.9148 17.1295 36.9148V37.0985ZM19.0045 35.2345C19.0045 34.2173 18.1733 33.3705 17.1295 33.3705V33.5542C18.0715 33.5542 18.8208 34.3185 18.8208 35.2345H19.0045ZM17.1295 33.3705C16.9771 33.3705 16.8566 33.25 16.8566 33.0999H16.6729C16.6729 33.3525 16.8767 33.5542 17.1295 33.5542V33.3705ZM16.8566 33.0999V29.3945H16.6729V33.0999H16.8566ZM16.8566 29.3945C16.8566 29.2444 16.9771 29.1239 17.1295 29.1239V28.9402C16.8767 28.9402 16.6729 29.1419 16.6729 29.3945H16.8566ZM17.1295 29.1239C17.282 29.1239 17.4024 29.2444 17.4024 29.3945H17.5861C17.5861 29.1419 17.3823 28.9402 17.1295 28.9402V29.1239ZM17.4024 29.3945V33.0999H17.5861V29.3945H17.4024ZM17.4024 33.0999C17.4024 33.25 17.282 33.3705 17.1295 33.3705V33.5542C17.3823 33.5542 17.5861 33.3525 17.5861 33.0999H17.4024ZM32.8943 9.36609C32.7418 9.36609 32.6214 9.24557 32.6214 9.09545H32.4377C32.4377 9.34809 32.6415 9.54978 32.8943 9.54978V9.36609ZM32.6214 9.09545V7.38373H32.4377V9.09545H32.6214ZM32.6214 7.38373C32.6214 5.92328 31.4252 4.71423 29.9359 4.71423V4.89792C31.3239 4.89792 32.4377 6.02487 32.4377 7.38373H32.6214ZM29.9359 4.71423H27.6056V4.89792H29.9359V4.71423ZM27.6056 4.71423C27.4531 4.71423 27.3327 4.59371 27.3327 4.44359H27.149C27.149 4.69623 27.3528 4.89792 27.6056 4.89792V4.71423ZM27.3327 4.44359C27.3327 4.29347 27.4531 4.17295 27.6056 4.17295V3.98926C27.3528 3.98926 27.149 4.19095 27.149 4.44359H27.3327ZM27.6056 4.17295H29.9359V3.98926H27.6056V4.17295ZM29.9359 4.17295C31.7097 4.17295 33.1672 5.6028 33.1672 7.38373H33.3509C33.3509 5.49955 31.8094 3.98926 29.9359 3.98926V4.17295ZM33.1672 7.38373V9.09545H33.3509V7.38373H33.1672ZM33.1672 9.09545C33.1672 9.24557 33.0467 9.36609 32.8943 9.36609V9.54978C33.1471 9.54978 33.3509 9.34809 33.3509 9.09545H33.1672ZM29.9359 29.6853H4.32317V29.869H29.9359V29.6853ZM4.32317 29.6853C2.5493 29.6853 1.09184 28.2554 1.09184 26.4745H0.908156C0.908156 28.3587 2.44966 29.869 4.32317 29.869V29.6853ZM1.09184 26.4745V7.38373H0.908156V26.4745H1.09184ZM1.09184 7.38373C1.09184 5.62221 2.52977 4.17295 4.32317 4.17295V3.98926C2.42866 3.98926 0.908156 5.52042 0.908156 7.38373H1.09184ZM4.32317 4.17295H9.14581V3.98926H4.32317V4.17295ZM9.14581 4.17295C9.29825 4.17295 9.4187 4.29347 9.4187 4.44359H9.60239C9.60239 4.19095 9.39863 3.98926 9.14581 3.98926V4.17295ZM9.4187 4.44359C9.4187 4.59371 9.29825 4.71423 9.14581 4.71423V4.89792C9.39863 4.89792 9.60239 4.69623 9.60239 4.44359H9.4187ZM9.14581 4.71423H4.32317V4.89792H9.14581V4.71423ZM4.32317 4.71423C2.85502 4.71423 1.63763 5.90221 1.63763 7.38373H1.82132C1.82132 6.00566 2.95446 4.89792 4.32317 4.89792V4.71423ZM1.63763 7.38373V26.4745H1.82132V7.38373H1.63763ZM1.63763 26.4745C1.63763 27.9349 2.83382 29.144 4.32317 29.144V28.9603C2.93513 28.9603 1.82132 27.8334 1.82132 26.4745H1.63763ZM4.32317 29.144H29.9561V28.9603H4.32317V29.144ZM29.9561 29.144C31.4243 29.144 32.6417 27.956 32.6417 26.4745H32.458C32.458 27.8526 31.3248 28.9603 29.9561 28.9603V29.144ZM32.6417 26.4745V11.4516H32.458V26.4745H32.6417ZM32.6417 11.4516C32.6417 11.3015 32.7621 11.181 32.9146 11.181V10.9973C32.6617 10.9973 32.458 11.199 32.458 11.4516H32.6417ZM32.9146 11.181C33.067 11.181 33.1874 11.3015 33.1874 11.4516H33.3711C33.3711 11.199 33.1674 10.9973 32.9146 10.9973V11.181ZM33.1874 11.4516V26.4745H33.3711V11.4516H33.1874ZM33.1875 26.4735C33.1677 28.236 31.7291 29.6853 29.9359 29.6853V29.869C31.8306 29.869 33.3503 28.3378 33.3711 26.4755L33.1875 26.4735ZM23.9177 5.58016H10.3616V5.76385H23.9177V5.58016ZM10.3616 5.58016C9.49994 5.58016 8.81213 4.89578 8.81213 4.04083H8.62844C8.62844 4.9983 9.39957 5.76385 10.3616 5.76385V5.58016ZM8.81213 4.04083V2.63117H8.62844V4.04083H8.81213ZM8.81213 2.63117C8.81213 1.77623 9.49994 1.09184 10.3616 1.09184V0.908156C9.39957 0.908156 8.62844 1.67371 8.62844 2.63117H8.81213ZM10.3616 1.09184H23.9177V0.908156H10.3616V1.09184ZM23.9177 1.09184C24.7793 1.09184 25.4672 1.77623 25.4672 2.63117H25.6509C25.6509 1.67371 24.8797 0.908156 23.9177 0.908156V1.09184ZM25.4672 2.63117V4.04083H25.6509V2.63117H25.4672ZM25.4672 4.04083C25.4672 4.89504 24.7598 5.58016 23.9177 5.58016V5.76385C24.8587 5.76385 25.6509 4.99903 25.6509 4.04083H25.4672ZM10.3616 1.63312C9.80484 1.63312 9.35791 2.07646 9.35791 2.63117H9.5416C9.5416 2.17899 9.90521 1.81681 10.3616 1.81681V1.63312ZM9.35791 2.63117V4.04083H9.5416V2.63117H9.35791ZM9.35791 4.04083C9.35791 4.59554 9.80484 5.03888 10.3616 5.03888V4.85519C9.90521 4.85519 9.5416 4.49302 9.5416 4.04083H9.35791ZM10.3616 5.03888H23.9177V4.85519H10.3616V5.03888ZM23.9177 5.03888C24.4745 5.03888 24.9214 4.59554 24.9214 4.04083H24.7377C24.7377 4.49302 24.3741 4.85519 23.9177 4.85519V5.03888ZM24.9214 4.04083V2.63117H24.7377V4.04083H24.9214ZM24.9214 2.63117C24.9214 2.07646 24.4745 1.63312 23.9177 1.63312V1.81681C24.3741 1.81681 24.7377 2.17899 24.7377 2.63117H24.9214ZM23.9177 1.63312H10.3616V1.81681H23.9177V1.63312ZM27.7677 23.0196C27.6153 23.0196 27.4948 22.8991 27.4948 22.749H27.3111C27.3111 23.0016 27.5149 23.2033 27.7677 23.2033V23.0196ZM27.4948 22.749V9.61904H27.3111V22.749H27.4948ZM27.4948 9.61904C27.4948 9.32287 27.2862 9.04388 26.9977 9.04388V9.22757C27.1549 9.22757 27.3111 9.39162 27.3111 9.61904H27.4948ZM26.9977 9.04388H24.2824V9.22757H26.9977V9.04388ZM24.2824 9.04388C23.9939 9.04388 23.7853 9.32287 23.7853 9.61904H23.969C23.969 9.39162 24.1252 9.22757 24.2824 9.22757V9.04388ZM23.7853 9.61904V21.9233H23.969V9.61904H23.7853ZM23.7853 21.9233C23.7853 22.5429 23.3143 23.0398 22.7424 23.0398V23.2234C23.4269 23.2234 23.969 22.6329 23.969 21.9233H23.7853ZM22.7424 23.0398H20.0272V23.2234H22.7424V23.0398ZM20.0272 23.0398C19.4553 23.0398 18.9843 22.5429 18.9843 21.9233H18.8006C18.8006 22.6329 19.3427 23.2234 20.0272 23.2234V23.0398ZM18.9843 21.9233V15.4792H18.8006V21.9233H18.9843ZM18.9843 15.4792C18.9843 15.183 18.7757 14.904 18.4871 14.904V15.0877C18.6444 15.0877 18.8006 15.2518 18.8006 15.4792H18.9843ZM18.4871 14.904H15.7719V15.0877H18.4871V14.904ZM15.7719 14.904C15.4833 14.904 15.2748 15.183 15.2748 15.4792H15.4585C15.4585 15.2518 15.6146 15.0877 15.7719 15.0877V14.904ZM15.2748 15.4792V21.9233H15.4585V15.4792H15.2748ZM15.2748 21.9233C15.2748 22.5429 14.8038 23.0398 14.2319 23.0398V23.2234C14.9163 23.2234 15.4585 22.6329 15.4585 21.9233H15.2748ZM14.2319 23.0398H11.5166V23.2234H14.2319V23.0398ZM11.5166 23.0398C10.9447 23.0398 10.4737 22.5429 10.4737 21.9233H10.29C10.29 22.6329 10.8322 23.2234 11.5166 23.2234V23.0398ZM10.4737 21.9233V20.856H10.29V21.9233H10.4737ZM10.4737 20.856C10.4737 20.5598 10.2652 20.2809 9.9766 20.2809V20.4645C10.1338 20.4645 10.29 20.6286 10.29 20.856H10.4737ZM9.9766 20.2809H7.28159V20.4645H9.9766V20.2809ZM7.28159 20.2809C6.99304 20.2809 6.78449 20.5598 6.78449 20.856H6.96817C6.96817 20.6286 7.12435 20.4645 7.28159 20.4645V20.2809ZM6.78449 20.856V22.7691H6.96817V20.856H6.78449ZM6.78449 22.7691C6.78449 22.9192 6.66404 23.0398 6.51159 23.0398V23.2234C6.76441 23.2234 6.96817 23.0218 6.96817 22.7691H6.78449ZM6.51159 23.0398C6.35915 23.0398 6.2387 22.9192 6.2387 22.7691H6.05501C6.05501 23.0218 6.25877 23.2234 6.51159 23.2234V23.0398ZM6.2387 22.7691V20.856H6.05501V22.7691H6.2387ZM6.2387 20.856C6.2387 20.2364 6.70971 19.7396 7.28159 19.7396V19.5559C6.59716 19.5559 6.05501 20.1465 6.05501 20.856H6.2387ZM7.28159 19.7396H9.99686V19.5559H7.28159V19.7396ZM9.99686 19.7396C10.5687 19.7396 11.0398 20.2364 11.0398 20.856H11.2234C11.2234 20.1465 10.6813 19.5559 9.99686 19.5559V19.7396ZM11.0398 20.856V21.9233H11.2234V20.856H11.0398ZM11.0398 21.9233C11.0398 22.2195 11.2483 22.4985 11.5369 22.4985V22.3148C11.3796 22.3148 11.2234 22.1507 11.2234 21.9233H11.0398ZM11.5369 22.4985H14.2521V22.3148H11.5369V22.4985ZM14.2521 22.4985C14.5407 22.4985 14.7492 22.2195 14.7492 21.9233H14.5656C14.5656 22.1507 14.4094 22.3148 14.2521 22.3148V22.4985ZM14.7492 21.9233V15.4792H14.5656V21.9233H14.7492ZM14.7492 15.4792C14.7492 14.8596 15.2203 14.3627 15.7921 14.3627V14.1791C15.1077 14.1791 14.5656 14.7696 14.5656 15.4792H14.7492ZM15.7921 14.3627H18.5074V14.1791H15.7921V14.3627ZM18.5074 14.3627C19.0793 14.3627 19.5503 14.8596 19.5503 15.4792H19.734C19.734 14.7696 19.1918 14.1791 18.5074 14.1791V14.3627ZM19.5503 15.4792V21.9233H19.734V15.4792H19.5503ZM19.5503 21.9233C19.5503 22.2195 19.7589 22.4985 20.0474 22.4985V22.3148C19.8902 22.3148 19.734 22.1507 19.734 21.9233H19.5503ZM20.0474 22.4985H22.7627V22.3148H20.0474V22.4985ZM22.7627 22.4985C23.0512 22.4985 23.2598 22.2195 23.2598 21.9233H23.0761C23.0761 22.1507 22.9199 22.3148 22.7627 22.3148V22.4985ZM23.2598 21.9233V9.61904H23.0761V21.9233H23.2598ZM23.2598 9.61904C23.2598 8.99947 23.7308 8.50261 24.3027 8.50261V8.31892C23.6182 8.31892 23.0761 8.9095 23.0761 9.61904H23.2598ZM24.3027 8.50261H27.018V8.31892H24.3027V8.50261ZM27.018 8.50261C27.5898 8.50261 28.0609 8.99947 28.0609 9.61904H28.2445C28.2445 8.9095 27.7024 8.31892 27.018 8.31892V8.50261ZM28.0609 9.61904V22.749H28.2445V9.61904H28.0609ZM28.0613 22.7398C28.0453 22.8989 27.9186 23.0196 27.7677 23.0196V23.2033C28.0221 23.2033 28.2196 23.0018 28.2441 22.7582L28.0613 22.7398Z" fill="white" mask="url(#path-1-outside-1_225_711)"/>
</svg>
