<svg width="51" height="47" viewBox="0 0 51 47" fill="none" xmlns="http://www.w3.org/2000/svg">
<mask id="path-1-outside-1_1_1300" maskUnits="userSpaceOnUse" x="0" y="0" width="51" height="47" fill="black">
<rect fill="white" width="51" height="47"/>
<path d="M47.4304 24.9893C48.8758 24.9893 50 23.8623 50 22.4132C50 22.3327 50 22.1717 50 22.0912L47.6713 3.25402C47.5107 1.96601 46.3865 1 45.1017 1H12.5805C12.3396 1 12.179 1.161 12.179 1.4025C12.179 1.64401 12.3396 1.80501 12.5805 1.80501H45.1017C45.985 1.80501 46.788 2.44902 46.8683 3.33453L49.197 22.2522C49.2773 23.2182 48.6349 24.1038 47.6713 24.2648C47.591 24.2648 47.5107 24.2648 47.4304 24.2648H3.58703C2.62343 24.2648 1.82044 23.4598 1.82044 22.4937C1.82044 22.4132 1.82044 22.3327 1.82044 22.2522L4.14912 3.33453C4.22942 2.44902 5.03241 1.80501 5.9157 1.80501H9.52917C9.77007 1.80501 9.93067 1.64401 9.93067 1.4025C9.93067 1.161 9.68977 1 9.52917 1H5.9157C4.63092 1 3.50673 1.96601 3.34613 3.25402L1.01745 22.0912C0.85685 23.5403 1.82044 24.8283 3.26583 24.9893C3.34613 24.9893 3.50673 24.9893 3.58703 24.9893H6.95959V27.4043C6.95959 28.5313 7.84289 29.4973 9.04737 29.4973H41.9701C42.5322 29.4973 43.0943 29.2558 43.4155 28.8533C43.8973 28.2898 44.0579 27.5653 43.9776 26.8408C43.9776 26.5993 43.7367 26.4383 43.4958 26.5188C43.2549 26.5188 43.0943 26.7603 43.1746 27.0018C43.2549 27.4848 43.0943 27.9678 42.8534 28.3703C42.6125 28.6118 42.2913 28.7728 41.9701 28.7728H9.04737C8.32468 28.7728 7.76259 28.2093 7.76259 27.4848V25.0698H47.4304V24.9893Z"/>
<path d="M7.52169 16.7782C6.1566 16.7782 5.11271 17.8247 5.11271 19.1932C5.11271 20.5617 6.1566 21.6082 7.52169 21.6082C8.88678 21.6082 9.93067 20.5617 9.93067 19.1932C9.93067 17.9052 8.80648 16.7782 7.52169 16.7782ZM7.52169 20.8032C6.6384 20.8032 5.9157 20.0787 5.9157 19.1932C5.9157 18.3077 6.6384 17.5832 7.52169 17.5832C8.40498 17.5832 9.12768 18.3077 9.12768 19.1932C9.12768 20.0787 8.40498 20.8032 7.52169 20.8032Z"/>
<path d="M38.4369 5.91055H12.5805C12.3396 5.91055 12.179 6.07156 12.179 6.31306C12.179 6.55456 12.3396 6.71556 12.5805 6.71556H38.4369C38.6778 6.71556 38.8384 6.55456 38.8384 6.31306C38.8384 6.07156 38.6778 5.91055 38.4369 5.91055Z"/>
<path d="M38.4369 12.5921H12.5805C12.3396 12.5921 12.179 12.7531 12.179 12.9946C12.179 13.2361 12.3396 13.3971 12.5805 13.3971H38.4369C38.6778 13.3971 38.8384 13.2361 38.8384 12.9946C38.8384 12.7531 38.6778 12.5921 38.4369 12.5921Z"/>
<path d="M38.4369 19.2737H12.5805C12.3396 19.2737 12.179 19.4347 12.179 19.6762C12.179 19.9177 12.3396 20.0787 12.5805 20.0787H38.4369C38.6778 20.0787 38.8384 19.9177 38.8384 19.6762C38.8384 19.4347 38.6778 19.2737 38.4369 19.2737Z"/>
<path d="M12.3396 45.5975C12.3396 45.839 12.5002 46 12.7411 46C12.982 46 13.1426 45.839 13.1426 45.5975C13.1426 45.195 13.3032 44.873 13.5441 44.6315C14.3471 43.746 14.3471 42.458 13.5441 41.653C12.982 41.0894 12.982 40.2039 13.5441 39.6404C14.3471 38.7549 14.3471 37.4669 13.5441 36.6619C12.982 36.0984 12.982 35.2129 13.5441 34.6494C13.9456 34.2469 14.1062 33.6834 14.1062 33.1199C14.1062 32.8784 13.9456 32.7174 13.7047 32.7174C13.4638 32.7174 13.3032 32.8784 13.3032 33.1199C13.3032 33.5224 13.1426 33.8444 12.9017 34.0859C12.0987 34.9714 12.0987 36.2594 12.9017 37.0644C13.4638 37.6279 13.4638 38.5134 12.9017 39.0769C12.0987 39.9624 12.0987 41.2504 12.9017 42.0555C13.4638 42.619 13.4638 43.5045 12.9017 44.068C12.5002 44.4705 12.3396 45.034 12.3396 45.5975Z"/>
<path d="M20.6908 45.5975C20.6908 45.839 20.8514 46 21.0923 46C21.3332 46 21.4938 45.839 21.4938 45.5975C21.4938 45.195 21.6544 44.873 21.8953 44.6315C22.6982 43.746 22.6982 42.458 21.8953 41.653C21.3332 41.0894 21.3332 40.2039 21.8953 39.6404C22.6982 38.7549 22.6982 37.4669 21.8953 36.6619C21.3332 36.0984 21.3332 35.2129 21.8953 34.6494C22.2968 34.2469 22.4574 33.6834 22.4574 33.1199C22.4574 32.8784 22.2968 32.7174 22.0559 32.7174C21.815 32.7174 21.6544 32.8784 21.6544 33.1199C21.6544 33.5224 21.4938 33.8444 21.2529 34.0859C20.4499 34.9714 20.4499 36.2594 21.2529 37.0644C21.815 37.6279 21.815 38.5134 21.2529 39.0769C20.4499 39.9624 20.4499 41.2504 21.2529 42.0555C21.815 42.619 21.815 43.5045 21.2529 44.068C20.9317 44.4705 20.6908 45.034 20.6908 45.5975Z"/>
<path d="M29.1222 45.5975C29.1222 45.839 29.2828 46 29.5237 46C29.7646 46 29.9252 45.839 29.9252 45.5975C29.9252 45.195 30.0858 44.873 30.3267 44.6315C31.1297 43.746 31.1297 42.458 30.3267 41.653C29.7646 41.0894 29.7646 40.2039 30.3267 39.6404C31.1297 38.7549 31.1297 37.4669 30.3267 36.6619C29.7646 36.0984 29.7646 35.2129 30.3267 34.6494C30.7282 34.2469 30.8888 33.6834 30.8888 33.1199C30.8888 32.8784 30.7282 32.7174 30.4873 32.7174C30.2464 32.7174 30.0858 32.8784 30.0858 33.1199C30.0858 33.5224 29.9252 33.8444 29.6843 34.0859C28.8813 34.9714 28.8813 36.2594 29.6843 37.0644C30.2464 37.6279 30.2464 38.5134 29.6843 39.0769C28.8813 39.9624 28.8813 41.2504 29.6843 42.0555C30.2464 42.619 30.2464 43.5045 29.6843 44.068C29.3631 44.4705 29.1222 45.034 29.1222 45.5975Z"/>
<path d="M37.5536 45.5975C37.5536 45.839 37.7142 46 37.9551 46C38.196 46 38.3566 45.839 38.3566 45.5975C38.3566 45.195 38.5172 44.873 38.7581 44.6315C39.5611 43.746 39.5611 42.458 38.7581 41.653C38.196 41.0894 38.196 40.2039 38.7581 39.6404C39.5611 38.7549 39.5611 37.4669 38.7581 36.6619C38.196 36.0984 38.196 35.2129 38.7581 34.6494C39.1596 34.2469 39.3202 33.6834 39.3202 33.1199C39.3202 32.8784 39.1596 32.7174 38.9187 32.7174C38.6778 32.7174 38.5172 32.8784 38.5172 33.1199C38.5172 33.5224 38.3566 33.8444 38.1157 34.0859C37.3127 34.9714 37.3127 36.2594 38.1157 37.0644C38.6778 37.6279 38.6778 38.5134 38.1157 39.0769C37.3127 39.9624 37.3127 41.2504 38.1157 42.0555C38.6778 42.619 38.6778 43.5045 38.1157 44.068C37.7142 44.4705 37.5536 45.034 37.5536 45.5975Z"/>
</mask>
<path d="M47.4304 24.9893C48.8758 24.9893 50 23.8623 50 22.4132C50 22.3327 50 22.1717 50 22.0912L47.6713 3.25402C47.5107 1.96601 46.3865 1 45.1017 1H12.5805C12.3396 1 12.179 1.161 12.179 1.4025C12.179 1.64401 12.3396 1.80501 12.5805 1.80501H45.1017C45.985 1.80501 46.788 2.44902 46.8683 3.33453L49.197 22.2522C49.2773 23.2182 48.6349 24.1038 47.6713 24.2648C47.591 24.2648 47.5107 24.2648 47.4304 24.2648H3.58703C2.62343 24.2648 1.82044 23.4598 1.82044 22.4937C1.82044 22.4132 1.82044 22.3327 1.82044 22.2522L4.14912 3.33453C4.22942 2.44902 5.03241 1.80501 5.9157 1.80501H9.52917C9.77007 1.80501 9.93067 1.64401 9.93067 1.4025C9.93067 1.161 9.68977 1 9.52917 1H5.9157C4.63092 1 3.50673 1.96601 3.34613 3.25402L1.01745 22.0912C0.85685 23.5403 1.82044 24.8283 3.26583 24.9893C3.34613 24.9893 3.50673 24.9893 3.58703 24.9893H6.95959V27.4043C6.95959 28.5313 7.84289 29.4973 9.04737 29.4973H41.9701C42.5322 29.4973 43.0943 29.2558 43.4155 28.8533C43.8973 28.2898 44.0579 27.5653 43.9776 26.8408C43.9776 26.5993 43.7367 26.4383 43.4958 26.5188C43.2549 26.5188 43.0943 26.7603 43.1746 27.0018C43.2549 27.4848 43.0943 27.9678 42.8534 28.3703C42.6125 28.6118 42.2913 28.7728 41.9701 28.7728H9.04737C8.32468 28.7728 7.76259 28.2093 7.76259 27.4848V25.0698H47.4304V24.9893Z" fill="#192646"/>
<path d="M7.52169 16.7782C6.1566 16.7782 5.11271 17.8247 5.11271 19.1932C5.11271 20.5617 6.1566 21.6082 7.52169 21.6082C8.88678 21.6082 9.93067 20.5617 9.93067 19.1932C9.93067 17.9052 8.80648 16.7782 7.52169 16.7782ZM7.52169 20.8032C6.6384 20.8032 5.9157 20.0787 5.9157 19.1932C5.9157 18.3077 6.6384 17.5832 7.52169 17.5832C8.40498 17.5832 9.12768 18.3077 9.12768 19.1932C9.12768 20.0787 8.40498 20.8032 7.52169 20.8032Z" fill="#192646"/>
<path d="M38.4369 5.91055H12.5805C12.3396 5.91055 12.179 6.07156 12.179 6.31306C12.179 6.55456 12.3396 6.71556 12.5805 6.71556H38.4369C38.6778 6.71556 38.8384 6.55456 38.8384 6.31306C38.8384 6.07156 38.6778 5.91055 38.4369 5.91055Z" fill="#192646"/>
<path d="M38.4369 12.5921H12.5805C12.3396 12.5921 12.179 12.7531 12.179 12.9946C12.179 13.2361 12.3396 13.3971 12.5805 13.3971H38.4369C38.6778 13.3971 38.8384 13.2361 38.8384 12.9946C38.8384 12.7531 38.6778 12.5921 38.4369 12.5921Z" fill="#192646"/>
<path d="M38.4369 19.2737H12.5805C12.3396 19.2737 12.179 19.4347 12.179 19.6762C12.179 19.9177 12.3396 20.0787 12.5805 20.0787H38.4369C38.6778 20.0787 38.8384 19.9177 38.8384 19.6762C38.8384 19.4347 38.6778 19.2737 38.4369 19.2737Z" fill="#192646"/>
<path d="M12.3396 45.5975C12.3396 45.839 12.5002 46 12.7411 46C12.982 46 13.1426 45.839 13.1426 45.5975C13.1426 45.195 13.3032 44.873 13.5441 44.6315C14.3471 43.746 14.3471 42.458 13.5441 41.653C12.982 41.0894 12.982 40.2039 13.5441 39.6404C14.3471 38.7549 14.3471 37.4669 13.5441 36.6619C12.982 36.0984 12.982 35.2129 13.5441 34.6494C13.9456 34.2469 14.1062 33.6834 14.1062 33.1199C14.1062 32.8784 13.9456 32.7174 13.7047 32.7174C13.4638 32.7174 13.3032 32.8784 13.3032 33.1199C13.3032 33.5224 13.1426 33.8444 12.9017 34.0859C12.0987 34.9714 12.0987 36.2594 12.9017 37.0644C13.4638 37.6279 13.4638 38.5134 12.9017 39.0769C12.0987 39.9624 12.0987 41.2504 12.9017 42.0555C13.4638 42.619 13.4638 43.5045 12.9017 44.068C12.5002 44.4705 12.3396 45.034 12.3396 45.5975Z" fill="#192646"/>
<path d="M20.6908 45.5975C20.6908 45.839 20.8514 46 21.0923 46C21.3332 46 21.4938 45.839 21.4938 45.5975C21.4938 45.195 21.6544 44.873 21.8953 44.6315C22.6982 43.746 22.6982 42.458 21.8953 41.653C21.3332 41.0894 21.3332 40.2039 21.8953 39.6404C22.6982 38.7549 22.6982 37.4669 21.8953 36.6619C21.3332 36.0984 21.3332 35.2129 21.8953 34.6494C22.2968 34.2469 22.4574 33.6834 22.4574 33.1199C22.4574 32.8784 22.2968 32.7174 22.0559 32.7174C21.815 32.7174 21.6544 32.8784 21.6544 33.1199C21.6544 33.5224 21.4938 33.8444 21.2529 34.0859C20.4499 34.9714 20.4499 36.2594 21.2529 37.0644C21.815 37.6279 21.815 38.5134 21.2529 39.0769C20.4499 39.9624 20.4499 41.2504 21.2529 42.0555C21.815 42.619 21.815 43.5045 21.2529 44.068C20.9317 44.4705 20.6908 45.034 20.6908 45.5975Z" fill="#192646"/>
<path d="M29.1222 45.5975C29.1222 45.839 29.2828 46 29.5237 46C29.7646 46 29.9252 45.839 29.9252 45.5975C29.9252 45.195 30.0858 44.873 30.3267 44.6315C31.1297 43.746 31.1297 42.458 30.3267 41.653C29.7646 41.0894 29.7646 40.2039 30.3267 39.6404C31.1297 38.7549 31.1297 37.4669 30.3267 36.6619C29.7646 36.0984 29.7646 35.2129 30.3267 34.6494C30.7282 34.2469 30.8888 33.6834 30.8888 33.1199C30.8888 32.8784 30.7282 32.7174 30.4873 32.7174C30.2464 32.7174 30.0858 32.8784 30.0858 33.1199C30.0858 33.5224 29.9252 33.8444 29.6843 34.0859C28.8813 34.9714 28.8813 36.2594 29.6843 37.0644C30.2464 37.6279 30.2464 38.5134 29.6843 39.0769C28.8813 39.9624 28.8813 41.2504 29.6843 42.0555C30.2464 42.619 30.2464 43.5045 29.6843 44.068C29.3631 44.4705 29.1222 45.034 29.1222 45.5975Z" fill="#192646"/>
<path d="M37.5536 45.5975C37.5536 45.839 37.7142 46 37.9551 46C38.196 46 38.3566 45.839 38.3566 45.5975C38.3566 45.195 38.5172 44.873 38.7581 44.6315C39.5611 43.746 39.5611 42.458 38.7581 41.653C38.196 41.0894 38.196 40.2039 38.7581 39.6404C39.5611 38.7549 39.5611 37.4669 38.7581 36.6619C38.196 36.0984 38.196 35.2129 38.7581 34.6494C39.1596 34.2469 39.3202 33.6834 39.3202 33.1199C39.3202 32.8784 39.1596 32.7174 38.9187 32.7174C38.6778 32.7174 38.5172 32.8784 38.5172 33.1199C38.5172 33.5224 38.3566 33.8444 38.1157 34.0859C37.3127 34.9714 37.3127 36.2594 38.1157 37.0644C38.6778 37.6279 38.6778 38.5134 38.1157 39.0769C37.3127 39.9624 37.3127 41.2504 38.1157 42.0555C38.6778 42.619 38.6778 43.5045 38.1157 44.068C37.7142 44.4705 37.5536 45.034 37.5536 45.5975Z" fill="#192646"/>
<path d="M47.4304 24.9893C48.8758 24.9893 50 23.8623 50 22.4132C50 22.3327 50 22.1717 50 22.0912L47.6713 3.25402C47.5107 1.96601 46.3865 1 45.1017 1H12.5805C12.3396 1 12.179 1.161 12.179 1.4025C12.179 1.64401 12.3396 1.80501 12.5805 1.80501H45.1017C45.985 1.80501 46.788 2.44902 46.8683 3.33453L49.197 22.2522C49.2773 23.2182 48.6349 24.1038 47.6713 24.2648C47.591 24.2648 47.5107 24.2648 47.4304 24.2648H3.58703C2.62343 24.2648 1.82044 23.4598 1.82044 22.4937C1.82044 22.4132 1.82044 22.3327 1.82044 22.2522L4.14912 3.33453C4.22942 2.44902 5.03241 1.80501 5.9157 1.80501H9.52917C9.77007 1.80501 9.93067 1.64401 9.93067 1.4025C9.93067 1.161 9.68977 1 9.52917 1H5.9157C4.63092 1 3.50673 1.96601 3.34613 3.25402L1.01745 22.0912C0.85685 23.5403 1.82044 24.8283 3.26583 24.9893C3.34613 24.9893 3.50673 24.9893 3.58703 24.9893H6.95959V27.4043C6.95959 28.5313 7.84289 29.4973 9.04737 29.4973H41.9701C42.5322 29.4973 43.0943 29.2558 43.4155 28.8533C43.8973 28.2898 44.0579 27.5653 43.9776 26.8408C43.9776 26.5993 43.7367 26.4383 43.4958 26.5188C43.2549 26.5188 43.0943 26.7603 43.1746 27.0018C43.2549 27.4848 43.0943 27.9678 42.8534 28.3703C42.6125 28.6118 42.2913 28.7728 41.9701 28.7728H9.04737C8.32468 28.7728 7.76259 28.2093 7.76259 27.4848V25.0698H47.4304V24.9893Z" stroke="#192646" mask="url(#path-1-outside-1_1_1300)"/>
<path d="M7.52169 16.7782C6.1566 16.7782 5.11271 17.8247 5.11271 19.1932C5.11271 20.5617 6.1566 21.6082 7.52169 21.6082C8.88678 21.6082 9.93067 20.5617 9.93067 19.1932C9.93067 17.9052 8.80648 16.7782 7.52169 16.7782ZM7.52169 20.8032C6.6384 20.8032 5.9157 20.0787 5.9157 19.1932C5.9157 18.3077 6.6384 17.5832 7.52169 17.5832C8.40498 17.5832 9.12768 18.3077 9.12768 19.1932C9.12768 20.0787 8.40498 20.8032 7.52169 20.8032Z" stroke="#192646" mask="url(#path-1-outside-1_1_1300)"/>
<path d="M38.4369 5.91055H12.5805C12.3396 5.91055 12.179 6.07156 12.179 6.31306C12.179 6.55456 12.3396 6.71556 12.5805 6.71556H38.4369C38.6778 6.71556 38.8384 6.55456 38.8384 6.31306C38.8384 6.07156 38.6778 5.91055 38.4369 5.91055Z" stroke="#192646" mask="url(#path-1-outside-1_1_1300)"/>
<path d="M38.4369 12.5921H12.5805C12.3396 12.5921 12.179 12.7531 12.179 12.9946C12.179 13.2361 12.3396 13.3971 12.5805 13.3971H38.4369C38.6778 13.3971 38.8384 13.2361 38.8384 12.9946C38.8384 12.7531 38.6778 12.5921 38.4369 12.5921Z" stroke="#192646" mask="url(#path-1-outside-1_1_1300)"/>
<path d="M38.4369 19.2737H12.5805C12.3396 19.2737 12.179 19.4347 12.179 19.6762C12.179 19.9177 12.3396 20.0787 12.5805 20.0787H38.4369C38.6778 20.0787 38.8384 19.9177 38.8384 19.6762C38.8384 19.4347 38.6778 19.2737 38.4369 19.2737Z" stroke="#192646" mask="url(#path-1-outside-1_1_1300)"/>
<path d="M12.3396 45.5975C12.3396 45.839 12.5002 46 12.7411 46C12.982 46 13.1426 45.839 13.1426 45.5975C13.1426 45.195 13.3032 44.873 13.5441 44.6315C14.3471 43.746 14.3471 42.458 13.5441 41.653C12.982 41.0894 12.982 40.2039 13.5441 39.6404C14.3471 38.7549 14.3471 37.4669 13.5441 36.6619C12.982 36.0984 12.982 35.2129 13.5441 34.6494C13.9456 34.2469 14.1062 33.6834 14.1062 33.1199C14.1062 32.8784 13.9456 32.7174 13.7047 32.7174C13.4638 32.7174 13.3032 32.8784 13.3032 33.1199C13.3032 33.5224 13.1426 33.8444 12.9017 34.0859C12.0987 34.9714 12.0987 36.2594 12.9017 37.0644C13.4638 37.6279 13.4638 38.5134 12.9017 39.0769C12.0987 39.9624 12.0987 41.2504 12.9017 42.0555C13.4638 42.619 13.4638 43.5045 12.9017 44.068C12.5002 44.4705 12.3396 45.034 12.3396 45.5975Z" stroke="#192646" mask="url(#path-1-outside-1_1_1300)"/>
<path d="M20.6908 45.5975C20.6908 45.839 20.8514 46 21.0923 46C21.3332 46 21.4938 45.839 21.4938 45.5975C21.4938 45.195 21.6544 44.873 21.8953 44.6315C22.6982 43.746 22.6982 42.458 21.8953 41.653C21.3332 41.0894 21.3332 40.2039 21.8953 39.6404C22.6982 38.7549 22.6982 37.4669 21.8953 36.6619C21.3332 36.0984 21.3332 35.2129 21.8953 34.6494C22.2968 34.2469 22.4574 33.6834 22.4574 33.1199C22.4574 32.8784 22.2968 32.7174 22.0559 32.7174C21.815 32.7174 21.6544 32.8784 21.6544 33.1199C21.6544 33.5224 21.4938 33.8444 21.2529 34.0859C20.4499 34.9714 20.4499 36.2594 21.2529 37.0644C21.815 37.6279 21.815 38.5134 21.2529 39.0769C20.4499 39.9624 20.4499 41.2504 21.2529 42.0555C21.815 42.619 21.815 43.5045 21.2529 44.068C20.9317 44.4705 20.6908 45.034 20.6908 45.5975Z" stroke="#192646" mask="url(#path-1-outside-1_1_1300)"/>
<path d="M29.1222 45.5975C29.1222 45.839 29.2828 46 29.5237 46C29.7646 46 29.9252 45.839 29.9252 45.5975C29.9252 45.195 30.0858 44.873 30.3267 44.6315C31.1297 43.746 31.1297 42.458 30.3267 41.653C29.7646 41.0894 29.7646 40.2039 30.3267 39.6404C31.1297 38.7549 31.1297 37.4669 30.3267 36.6619C29.7646 36.0984 29.7646 35.2129 30.3267 34.6494C30.7282 34.2469 30.8888 33.6834 30.8888 33.1199C30.8888 32.8784 30.7282 32.7174 30.4873 32.7174C30.2464 32.7174 30.0858 32.8784 30.0858 33.1199C30.0858 33.5224 29.9252 33.8444 29.6843 34.0859C28.8813 34.9714 28.8813 36.2594 29.6843 37.0644C30.2464 37.6279 30.2464 38.5134 29.6843 39.0769C28.8813 39.9624 28.8813 41.2504 29.6843 42.0555C30.2464 42.619 30.2464 43.5045 29.6843 44.068C29.3631 44.4705 29.1222 45.034 29.1222 45.5975Z" stroke="#192646" mask="url(#path-1-outside-1_1_1300)"/>
<path d="M37.5536 45.5975C37.5536 45.839 37.7142 46 37.9551 46C38.196 46 38.3566 45.839 38.3566 45.5975C38.3566 45.195 38.5172 44.873 38.7581 44.6315C39.5611 43.746 39.5611 42.458 38.7581 41.653C38.196 41.0894 38.196 40.2039 38.7581 39.6404C39.5611 38.7549 39.5611 37.4669 38.7581 36.6619C38.196 36.0984 38.196 35.2129 38.7581 34.6494C39.1596 34.2469 39.3202 33.6834 39.3202 33.1199C39.3202 32.8784 39.1596 32.7174 38.9187 32.7174C38.6778 32.7174 38.5172 32.8784 38.5172 33.1199C38.5172 33.5224 38.3566 33.8444 38.1157 34.0859C37.3127 34.9714 37.3127 36.2594 38.1157 37.0644C38.6778 37.6279 38.6778 38.5134 38.1157 39.0769C37.3127 39.9624 37.3127 41.2504 38.1157 42.0555C38.6778 42.619 38.6778 43.5045 38.1157 44.068C37.7142 44.4705 37.5536 45.034 37.5536 45.5975Z" stroke="#192646" mask="url(#path-1-outside-1_1_1300)"/>
</svg>
