<svg width="48" height="48" viewBox="0 0 48 48" fill="none" xmlns="http://www.w3.org/2000/svg">
<path d="M42.8949 13.3044L45.8759 14.9588C45.8764 14.9591 45.8769 14.9594 45.8774 14.9597C46.2798 15.1997 46.7552 15.0333 46.9876 14.6464C47.2293 14.2439 47.0626 13.7679 46.6748 13.5355L46.6749 13.5355L46.6724 13.5341L24.4002 1.01891C24.1593 0.860362 23.8407 0.860362 23.5998 1.01891L1.32757 13.5341L1.32756 13.5341L1.32515 13.5355C0.937437 13.7679 0.770673 14.2439 1.01239 14.6464C1.24478 15.0333 1.72024 15.1997 2.12261 14.9597L5.10514 13.3044V23.3568C5.10514 23.5881 5.18279 23.7887 5.3259 23.9317C5.469 24.0746 5.66972 24.1522 5.90125 24.1522C6.13277 24.1522 6.3335 24.0746 6.4766 23.9317C6.61971 23.7887 6.69736 23.5881 6.69736 23.3568V12.4281L24 2.67939L41.3026 12.4281V23.3568C41.3026 23.5881 41.3803 23.7887 41.5234 23.9317C41.6665 24.0746 41.8672 24.1522 42.0988 24.1522C42.3303 24.1522 42.531 24.0746 42.6741 23.9317C42.8172 23.7887 42.8949 23.5881 42.8949 23.3568V13.3044ZM41.3026 35.8738V45.5092H6.69736V35.8738C6.69736 35.6424 6.61971 35.4418 6.4766 35.2989C6.3335 35.1559 6.13278 35.0784 5.90125 35.0784C5.66972 35.0784 5.469 35.1559 5.3259 35.2989C5.18279 35.4418 5.10514 35.6424 5.10514 35.8738V45.5092H1.72461C1.49309 45.5092 1.29237 45.5868 1.14926 45.7297C1.00615 45.8727 0.928509 46.0732 0.928509 46.3046C0.928509 46.536 1.00615 46.7366 1.14926 46.8795C1.29237 47.0225 1.49309 47.1 1.72461 47.1H46.2754C46.5069 47.1 46.7076 47.0225 46.8507 46.8795C46.9938 46.7366 47.0715 46.536 47.0715 46.3046C47.0715 46.0732 46.9938 45.8727 46.8507 45.7297C46.7076 45.5868 46.5069 45.5092 46.2754 45.5092H42.8949V35.8738C42.8949 35.6424 42.8172 35.4418 42.6741 35.2989C42.531 35.1559 42.3303 35.0784 42.0988 35.0784C41.8672 35.0784 41.6665 35.1559 41.5234 35.2989C41.3803 35.4418 41.3026 35.6424 41.3026 35.8738ZM13.0005 25.3051L16.5189 28.8199H1.72461C1.49309 28.8199 1.29237 28.8974 1.14926 29.0404C1.00615 29.1833 0.928509 29.3839 0.928509 29.6153C0.928509 29.8466 1.00615 30.0472 1.14926 30.1902C1.29237 30.3331 1.49309 30.4107 1.72461 30.4107H16.5189L13.0005 33.9255C12.6829 34.2427 12.6829 34.7233 13.0005 35.0405C13.318 35.3577 13.7989 35.3577 14.1164 35.0405L18.9891 30.1728C19.3066 29.8556 19.3066 29.375 18.9891 29.0577L14.1164 24.19C13.7989 23.8729 13.318 23.8729 13.0005 24.19C12.6829 24.5072 12.6829 24.9879 13.0005 25.3051ZM47.0715 29.6153C47.0715 29.3839 46.9938 29.1833 46.8507 29.0404C46.7076 28.8974 46.5069 28.8199 46.2754 28.8199H31.4811L34.9995 25.3051C35.3171 24.9879 35.3171 24.5072 34.9995 24.19C34.682 23.8729 34.2011 23.8729 33.8836 24.19L29.0109 29.0577C28.6934 29.375 28.6934 29.8556 29.0109 30.1728L33.8836 35.0405C34.2011 35.3577 34.682 35.3577 34.9995 35.0405C35.3171 34.7233 35.3171 34.2427 34.9995 33.9255L31.4811 30.4107H46.2754C46.5069 30.4107 46.7076 30.3331 46.8507 30.1902C46.9938 30.0472 47.0715 29.8466 47.0715 29.6153Z" fill="#192646" stroke="#192646" stroke-width="0.2"/>
</svg>
