<svg width="48" height="48" viewBox="0 0 48 48" fill="none" xmlns="http://www.w3.org/2000/svg">
<path d="M39.15 42.45C35.025 45.15 30.15 46.5 25.125 46.5C20.55 46.5 16.2 45.3 12.375 43.125L13.8 42.9C14.175 42.825 14.475 42.45 14.4 42.075C14.325 41.7 13.95 41.4 13.575 41.475L10.125 42C9.75 42.075 9.45 42.45 9.525 42.825L10.05 46.275C10.125 46.65 10.5 46.95 10.875 46.875C11.25 46.8 11.55 46.425 11.475 46.05L11.175 44.175C15.3 46.65 20.1 48 25.125 48C30.45 48 35.625 46.5 39.975 43.65C40.35 43.425 40.425 42.975 40.2 42.6C39.975 42.3 39.525 42.225 39.15 42.45Z" fill="#192646"/>
<path d="M10.2 6.225C14.175 3.15 18.975 1.5 24 1.5C27.6 1.5 31.125 2.4 34.35 3.975L32.55 4.65C32.175 4.8 31.95 5.25 32.1 5.625C32.25 6 32.7 6.225 33.075 6.075L36.375 4.875C36.525 4.8 36.675 4.65 36.825 4.5C36.9 4.35 36.9 4.125 36.825 3.9L35.625 0.6C35.475 0.225 35.025 0 34.65 0.15C34.275 0.3 34.05 0.75 34.2 1.125L34.725 2.55C31.35 0.9 27.75 0 24 0C18.6 0 13.5 1.725 9.3 5.025C9 5.25 8.925 5.775 9.15 6.075C9.375 6.45 9.9 6.45 10.2 6.225Z" fill="#192646"/>
<path d="M5.25 9.375L1.8 10.05C1.425 10.125 1.125 10.5 1.2 10.95C1.275 11.325 1.65 11.625 2.1 11.55L3.75 11.25C1.275 15 0 19.425 0 24C0 29.1 1.575 33.975 4.575 38.1C4.8 38.4 5.325 38.475 5.625 38.25C5.925 38.025 6 37.5 5.775 37.2C3 33.375 1.5 28.8 1.5 24C1.5 19.725 2.7 15.6 4.95 12L5.25 13.65C5.325 14.025 5.7 14.325 6.15 14.25C6.525 14.175 6.825 13.8 6.75 13.35L6.075 9.9C6 9.525 5.625 9.3 5.25 9.375Z" fill="#192646"/>
<path d="M45.375 37.5L43.725 37.725C46.5 33.675 48 28.875 48 24C48 18 45.75 12.3 41.775 7.875C41.475 7.575 41.025 7.575 40.725 7.8C40.425 8.1 40.425 8.55 40.65 8.85C44.4 12.975 46.5 18.375 46.5 24C46.5 28.575 45.075 33.075 42.45 36.825L42.225 35.175C42.15 34.8 41.775 34.5 41.4 34.5C41.025 34.575 40.725 34.95 40.725 35.325L41.175 38.775C41.175 39 41.325 39.15 41.475 39.3C41.625 39.375 41.775 39.45 41.925 39.45H42L45.45 39C45.825 38.925 46.125 38.55 46.125 38.175C46.125 37.725 45.75 37.425 45.375 37.5Z" fill="#192646"/>
<path d="M12.15 40.8C12.45 41.025 12.825 41.025 13.125 40.8L35.85 21.825C36.075 21.675 36.15 21.375 36.075 21.075C36 20.775 35.775 20.55 35.55 20.55L29.4 19.05L35.775 9.675C35.925 9.45 35.925 9.225 35.85 9C35.775 8.775 35.55 8.625 35.325 8.55L27.15 6.975C26.85 6.9 26.55 7.05 26.4 7.275L16.05 22.2C15.9 22.425 15.9 22.65 15.975 22.875C16.05 23.1 16.275 23.25 16.5 23.325L22.275 24.675L12 39.825C11.85 40.2 11.85 40.575 12.15 40.8ZM24.15 24.6C24.3 24.375 24.3 24.15 24.225 23.925C24.15 23.7 23.925 23.55 23.7 23.475L17.925 22.2L27.3 8.625L33.825 9.9L27.525 19.2C27.375 19.425 27.375 19.65 27.45 19.875C27.525 20.1 27.75 20.25 27.975 20.325L33.75 21.75L16.275 36.3L24.15 24.6Z" fill="#192646"/>
</svg>
