<!-- Generated by IcoMoon.io -->
<svg version="1.1" xmlns="http://www.w3.org/2000/svg" width="1024" height="1024" viewBox="0 0 1024 1024">
<g id="icomoon-ignore">
</g>
<path fill="#000" d="M525.071 545.016c-1.229-5.708-6.145-10.148-12.291-10.148s-11.062 4.439-12.291 10.148c0 0.635-13.52 71.034-86.038 178.854-30.113 44.395-62.069 111.625-43.632 180.756 14.748 54.543 63.299 99.573 118.608 109.721 7.374 1.269 15.364 1.904 22.739 1.904 8.603 0 17.208-0.635 25.196-2.537 54.080-11.417 102.629-56.447 116.765-109.722 18.436-69.132-13.52-136.359-43.634-180.756-71.902-107.185-85.422-177.585-85.422-178.219zM631.388 898.283c-11.676 43.762-52.851 82.451-97.713 91.329-3.688 0.635-20.895 1.904-20.895 1.904-6.145 0-12.291-0.635-18.436-1.269-45.477-8.88-87.266-46.934-99.557-91.964-15.979-59.617 12.905-119.87 39.946-159.826 31.956-45.665 58.382-95.135 78.048-147.776 20.28 52.641 46.706 102.112 78.662 147.776 27.041 39.956 55.925 100.209 39.946 159.826z"></path>
<path fill="#000" d="M453.238 817.59c2.82-5.586-0.704-12.289-8.456-14.523-7.047-2.234-15.503 0.558-18.321 6.704-1.409 2.234-26.073 56.42 21.844 96.081 5.638 4.468 14.094 4.468 19.731 0.558 5.638-4.47 5.638-11.172 0.705-15.641-35.234-29.607-16.208-71.503-15.504-73.179z"></path>
<path fill="#000" d="M389.094 610.327c8.028-27.541 0-59.318-22.622-90.39-34.297-48.725-40.135-79.797-40.135-80.502-1.46-7.768-8.756-12.712-16.784-11.299-5.838 0.705-10.945 5.649-11.675 11.299 0 0-6.568 31.777-40.865 79.797-22.621 31.777-29.919 62.849-22.621 90.389 8.757 29.66 33.567 51.55 64.216 57.906 8.756 1.412 18.243 1.412 26.999 0 30.649-7.063 54.731-28.953 63.487-57.2zM360.635 602.559c-5.838 18.36-21.892 32.484-40.865 36.721-0.73 0-8.028 0.705-8.028 0.705-2.189 0-5.108 0-7.298-0.705-19.702-4.237-35.756-18.361-41.594-36.721-7.297-24.716 5.838-50.139 18.243-67.086 11.676-16.241 21.891-33.896 30.648-51.55 8.757 18.361 18.973 35.309 30.648 51.55 12.406 16.948 25.541 42.371 18.245 67.086z"></path>
<path fill="#000" d="M816.989 610.327c8.028-27.541 0-59.318-22.622-90.39-34.297-48.725-40.135-79.797-40.135-80.502-1.46-7.768-8.756-12.712-16.784-11.299-5.838 0.705-10.945 5.649-11.675 11.299 0 0-6.568 31.777-40.865 79.797-22.622 31.777-29.92 62.849-22.622 90.389 8.756 29.66 33.567 51.55 64.216 57.906 8.756 1.412 18.243 1.412 26.999 0 30.649-7.063 54.729-28.953 63.487-57.2zM788.529 602.559c-5.837 18.36-21.891 32.484-40.863 36.721-0.73 0-8.028 0.705-8.028 0.705-2.189 0-5.108 0-7.298-0.705-19.703-4.237-35.756-18.361-41.595-36.721-7.296-24.716 5.838-50.139 18.245-67.086 11.675-16.241 21.891-33.896 30.648-51.55 8.756 18.361 18.973 35.309 30.648 51.55 12.406 16.948 25.541 42.371 18.243 67.086z"></path>
<path fill="#000" d="M170.439 384.437c1.9 0 52.255 0.961 52.255 0.961 10.451 0 19.002-8.649 19.002-19.221s-8.551-19.222-19.002-19.222h-32.303c3.8-73.043 32.303-143.203 80.758-197.985l28.503 28.834c7.601 7.689 19.002 7.689 26.602 0s7.601-19.222 0-26.911l-28.502-28.833c54.155-49.016 123.512-77.848 195.72-82.654v37.483c0 10.572 8.551 19.222 19.002 19.222s19.002-8.65 19.002-19.222v-37.483c72.208 3.844 141.564 33.638 195.72 82.654l-28.503 28.833c-7.601 7.689-7.601 19.222 0 26.911s19.003 7.689 26.604 0l28.502-28.834c48.455 54.783 76.959 124.942 80.759 197.985h-32.304c-10.451 0-19.002 8.649-19.002 19.222s8.551 19.221 19.002 19.221h47.505c11.401 0.962 21.852-7.689 22.802-19.221 0 0 0 0 0-0.962 0.95-201.829-160.566-365.215-360.086-365.215s-361.036 163.386-361.036 365.215c0 10.572 8.551 19.222 19.002 19.222z"></path>
<path fill="#000" d="M599.882 309.472l68.406-65.354c7.601-7.689 7.601-19.222 0.95-26.911-7.601-7.689-19.002-7.689-26.602-0.961l-68.408 65.354c9.502 7.689 18.053 17.3 25.653 27.872z"></path>
<path fill="#000" d="M512.473 300.822c-37.054 0-66.507 29.793-66.507 67.275s29.452 67.277 66.507 67.277c37.053 0 66.507-29.794 66.507-67.277s-29.454-67.275-66.507-67.275zM512.473 396.931c-16.152 0-28.503-12.494-28.503-28.834 0-16.338 12.351-28.832 28.503-28.832s28.503 12.494 28.503 28.832c0 15.377-12.351 28.834-28.503 28.834z"></path>
</svg>
