<svg width="39" height="39" viewBox="0 0 39 39" fill="none" xmlns="http://www.w3.org/2000/svg">
<path d="M26.5118 28.86V33.696L25.888 33.54C25.4981 33.462 25.0303 33.696 24.9523 34.164C24.8743 34.554 25.1083 35.022 25.5761 35.1L26.5898 35.334C28.3832 35.724 30.1767 35.88 31.9701 35.88C33.7636 35.88 35.557 35.724 37.3505 35.334L38.3642 35.1C38.754 35.022 39.066 34.632 38.988 34.164C38.91 33.774 38.4421 33.462 38.0523 33.54L37.4285 33.696V28.86C37.4285 26.13 35.4011 23.868 32.7499 23.478V22.62C32.7499 22.152 32.438 21.84 31.9701 21.84C31.5023 21.84 31.1904 22.152 31.1904 22.62V23.478C28.5392 23.868 26.5118 26.13 26.5118 28.86ZM31.9701 24.96C34.1535 24.96 35.8689 26.676 35.8689 28.86V34.008C33.2957 34.398 30.6445 34.398 28.0713 34.008V28.86C28.0713 26.676 29.7868 24.96 31.9701 24.96ZM33.6856 36.738C34.0755 36.972 34.1535 37.44 33.9975 37.83C33.5297 38.532 32.8279 39 31.9701 39C31.1124 39 30.4106 38.532 29.9428 37.83C29.7088 37.44 29.8648 36.972 30.2547 36.738C30.6445 36.504 31.1124 36.66 31.3463 37.05C31.6582 37.518 32.438 37.518 32.6719 37.05C32.8279 36.66 33.3737 36.582 33.6856 36.738ZM38.988 19.5C38.988 20.904 38.832 22.23 38.5981 23.556C38.5201 23.946 38.1302 24.258 37.6624 24.18C37.2725 24.102 36.9606 23.712 37.0386 23.244C37.2725 21.996 37.4285 20.748 37.4285 19.5C37.4285 9.594 29.3969 1.56 19.494 1.56C9.59104 1.56 1.55952 9.594 1.55952 19.5C1.55952 29.406 9.59104 37.44 19.494 37.44C21.5214 37.44 23.5487 37.128 25.4981 36.426C25.888 36.27 26.3559 36.504 26.5118 36.894C26.6678 37.284 26.4338 37.752 26.044 37.908C23.9386 38.61 21.7553 39 19.494 39C8.73331 39 0 30.264 0 19.5C0 8.736 8.73331 0 19.494 0C30.2547 0 38.988 8.736 38.988 19.5ZM20.2737 5.46C20.2737 5.928 19.9618 6.24 19.494 6.24C19.0261 6.24 18.7142 5.928 18.7142 5.46V3.9C18.7142 3.432 19.0261 3.12 19.494 3.12C19.9618 3.12 20.2737 3.432 20.2737 3.9V5.46ZM10.1369 10.14C9.98092 10.296 9.74699 10.374 9.59104 10.374C9.43509 10.374 9.20116 10.296 9.04521 10.14L7.95355 9.048C7.64164 8.736 7.64164 8.268 7.95355 7.956C8.26545 7.644 8.73331 7.644 9.04521 7.956L10.1369 9.048C10.4488 9.36 10.4488 9.828 10.1369 10.14ZM5.45832 18.72C5.92617 18.72 6.23808 19.032 6.23808 19.5C6.23808 19.968 5.92617 20.28 5.45832 20.28H3.8988C3.43094 20.28 3.11904 19.968 3.11904 19.5C3.11904 19.032 3.43094 18.72 3.8988 18.72H5.45832ZM10.1369 28.86C10.4488 29.172 10.4488 29.64 10.1369 29.952L9.04521 31.044C8.88926 31.2 8.65533 31.278 8.49938 31.278C8.34343 31.278 8.1095 31.2 7.95355 31.044C7.64164 30.732 7.64164 30.264 7.95355 29.952L9.04521 28.86C9.35711 28.548 9.82497 28.548 10.1369 28.86ZM19.494 32.76C19.9618 32.76 20.2737 33.072 20.2737 33.54V35.1C20.2737 35.568 19.9618 35.88 19.494 35.88C19.0261 35.88 18.7142 35.568 18.7142 35.1V33.54C18.7142 33.072 19.0261 32.76 19.494 32.76ZM33.5297 20.28C33.0618 20.28 32.7499 19.968 32.7499 19.5C32.7499 19.032 33.0618 18.72 33.5297 18.72H35.0892C35.557 18.72 35.8689 19.032 35.8689 19.5C35.8689 19.968 35.557 20.28 35.0892 20.28H33.5297ZM29.3969 10.374C29.163 10.374 29.0071 10.296 28.8511 10.14C28.5392 9.828 28.5392 9.36 28.8511 9.048L29.9428 7.956C30.2547 7.644 30.7225 7.644 31.0344 7.956C31.3463 8.268 31.3463 8.736 31.0344 9.048L29.9428 10.14C29.7868 10.296 29.6309 10.374 29.3969 10.374ZM20.2737 19.5C20.2737 19.734 20.1958 19.89 20.0398 20.046L12.2422 27.846C12.0863 28.002 11.9303 28.08 11.6964 28.08C11.4625 28.08 11.3065 28.002 11.1506 27.846C10.8387 27.534 10.8387 27.066 11.1506 26.754L18.7142 19.188V11.7C18.7142 11.232 19.0261 10.92 19.494 10.92C19.9618 10.92 20.2737 11.232 20.2737 11.7V19.5Z" fill="#192646"/>
</svg>
