<!-- Generated by IcoMoon.io -->
<svg version="1.1" xmlns="http://www.w3.org/2000/svg" width="1024" height="1024" viewBox="0 0 1024 1024">
<g id="icomoon-ignore">
</g>
<path fill="#000" d="M512 446.292c-20.038 0-37.849 8.904-50.093 23.376l-359.561-133.573c-3.34-1.113-5.566 0-6.679 3.338-1.113 2.227 0 5.567 3.34 6.68l67.905 31.167c-16.698 43.411-25.603 89.049-25.603 132.462h18.924c0-41.187 7.792-83.484 23.377-124.671l263.827 121.331c0 2.227 0 3.34 0 5.564 0 35.62 28.942 65.675 65.678 65.675s65.678-28.942 65.678-65.675c0-36.731-31.169-65.673-66.791-65.673zM512 556.492c-24.491 0-44.527-20.038-44.527-44.527 0-24.487 20.036-44.524 44.527-44.524s44.529 20.038 44.529 44.524c0 24.489-20.038 44.527-44.529 44.527z"></path>
<path fill="#000" d="M707.922 38.891c-260.486-107.972-561.049 16.697-669.028 277.165-107.979 260.471 16.698 561.013 277.185 668.984 63.451 26.716 130.244 38.96 194.808 38.96 201.488 0 392.957-119.104 474.219-316.126 107.98-260.469-16.698-561.010-277.184-668.983zM699.015 965.005c-121.337 50.091-253.806 50.091-375.143 0-114.66-47.864-205.941-134.687-257.148-247.111h189.242c62.34 77.918 155.848 123.555 256.035 123.555s193.695-44.524 256.035-123.555h188.128c-51.207 111.311-141.375 199.246-257.148 247.111zM965.070 697.856h-205.942l-3.34 3.34c-58.998 76.804-148.053 120.218-243.788 120.218s-184.791-43.413-243.788-119.104l-3.34-3.34h-205.941c-48.98-121.329-48.98-253.791 0-374.006 50.094-121.331 144.715-214.833 264.94-264.923 61.224-25.602 124.677-37.846 188.128-37.846s126.904 12.244 187.015 37.846c121.34 50.090 214.846 144.705 264.941 264.923 50.093 120.215 50.093 252.677 1.113 372.893z"></path>
<path fill="#000" d="M654.489 169.126c-148.055-61.221-313.919-18.923-416.334 92.389l14.473 13.358c66.791-73.466 161.413-114.651 260.486-114.651 44.527 0 90.169 8.905 134.695 26.715 134.697 55.656 217.073 185.89 217.073 323.916h18.924c-1.113-145.818-87.942-282.731-229.317-341.726z"></path>
</svg>
