<!-- Generated by IcoMoon.io -->
<svg version="1.1" xmlns="http://www.w3.org/2000/svg" width="1024" height="1024" viewBox="0 0 1024 1024">
<g id="icomoon-ignore">
</g>
<path fill="#000" d="M510.55 1024c-253.583 0-459.35-207.135-459.35-463.864 0-115.237 42.023-226.097 118.823-310.7 5.796-5.835 10.143-11.67 15.94-16.046 5.796-5.835 14.491-5.835 20.287 0s5.796 14.588 0 20.423c-4.347 4.375-10.143 10.209-14.49 16.044-72.453 80.228-111.577 183.796-111.577 291.74 0 239.225 192.725 434.688 430.369 434.688 115.925 0 223.156-45.22 305.752-126.906 5.796-5.835 14.49-5.835 20.287 0s5.796 14.588 0 20.423c-86.944 86.063-202.869 134.199-326.040 134.199z"></path>
<path fill="#000" d="M882.958 822.7c-2.898 0-5.796-1.458-7.246-2.916-7.244-4.377-8.694-13.128-4.346-20.423 46.369-71.475 71.004-153.162 71.004-239.225 0-239.225-192.725-434.689-431.821-434.689-86.942 0-169.54 26.256-240.542 74.393-7.246 4.376-15.94 2.917-20.287-4.376s-2.898-16.046 4.347-20.422c76.801-51.054 165.192-78.769 257.932-78.769 253.585 0 460.8 207.133 460.8 463.863 0 90.44-26.083 179.419-75.35 255.271-5.798 4.377-10.144 7.293-14.492 7.293z"></path>
<path fill="#000" d="M658.354 29.174h-295.606c-8.696 0-14.492-5.835-14.492-14.587s5.796-14.587 14.492-14.587h295.606c8.696 0 14.492 5.835 14.492 14.587s-5.796 14.587-14.492 14.587z"></path>
<path fill="#000" d="M758.34 192.547c-2.898 0-5.796-1.459-7.246-2.917-7.244-4.376-8.694-13.128-4.346-20.422l39.123-61.265c4.348-7.294 13.042-8.752 20.287-4.376s8.694 13.128 4.348 20.422l-40.575 62.724c-2.898 4.376-7.244 5.835-11.592 5.835z"></path>
<path fill="#000" d="M510.55 490.119c-8.694 0-14.49-5.835-14.49-14.586v-196.923c0-8.753 5.796-14.588 14.49-14.588 8.696 0 14.492 5.835 14.492 14.588v195.463c0 8.753-5.796 16.046-14.492 16.046z"></path>
<path fill="#000" d="M914.838 983.157c-4.348 0-7.246-1.458-10.144-4.377l-796.981-803.737c-5.796-5.835-5.796-14.587 0-20.422s14.491-5.835 20.287 0l798.431 803.738c5.796 5.835 5.796 14.586 0 20.421-2.9 2.918-7.246 4.377-11.594 4.377z"></path>
<path fill="#000" d="M681.529 652.528c-17.068 0-36.409 10.258-37.548 28.494l-1.137 10.256h25.031c1.139-7.977 9.103-13.677 14.791-12.536 5.689 0 13.654 5.698 12.515 12.536 0 9.118-7.963 13.677-14.791 18.235-12.515 6.838-26.169 13.677-32.995 26.212-5.689 11.397-5.689 20.515-5.689 33.051h80.783v-26.212h-46.649c11.379-9.118 25.031-13.677 34.134-25.074 10.24-12.536 13.652-31.912 4.551-45.586-5.689-12.538-20.48-19.376-32.995-19.376z"></path>
<path fill="#000" d="M514.275 307.2c-101.261 0-184.32 79.778-190.009 181.211-88.746 26.214-150.186 105.992-150.186 198.308 0 115.11 93.299 208.564 208.214 208.564 9.101 0 19.341-1.139 28.445-2.279l40.96 88.898 23.892-11.397-48.925-105.992-10.24 2.279c-11.377 2.279-22.755 3.418-34.132 3.418-101.263 0-183.183-82.057-183.183-183.491 0-84.337 56.889-157.278 137.67-177.793l9.103-2.279v-10.256c1.137-91.177 75.094-164.116 166.115-164.116s164.979 72.94 166.115 164.116v10.256l9.103 2.279c80.781 20.515 137.671 93.456 137.671 177.793 0 101.433-81.92 183.491-183.183 183.491-11.377 0-22.755-1.139-34.132-3.418l-10.24-2.279-50.063 107.131 23.894 11.397 42.097-90.036c9.103 1.141 19.343 2.279 28.445 2.279 114.915 0 208.214-93.454 208.214-208.564 0-92.316-61.44-172.093-150.186-198.308-1.139-101.433-84.195-181.211-185.459-181.211z"></path>
<path fill="#000" d="M395.946 587.565c-15.927-2.279-31.857 0-46.647 6.838-29.583 14.817-46.649 47.868-42.099 80.919s28.445 60.404 61.44 67.242c31.859 6.838 64.854-9.118 81.92-38.75l-22.755-12.536c-11.379 19.374-32.995 29.633-53.475 25.074-21.619-4.559-37.548-22.794-40.96-45.588-3.414-22.794 9.101-45.588 28.445-54.706 19.341-10.256 43.235-5.698 58.026 10.258l18.205-18.235c-12.515-10.256-27.306-18.235-42.099-20.515z"></path>
<path fill="#000" d="M546.134 611.498c28.445 0 51.2 23.935 51.2 53.567 0 29.63-22.755 53.565-51.2 53.565s-51.2-23.935-51.2-53.565c0-29.633 23.892-53.567 51.2-53.567zM546.134 586.426c-42.099 0-77.369 36.469-77.369 79.778s34.134 79.78 77.369 79.78c42.097 0 77.367-36.471 77.367-79.78 0-44.448-34.132-79.778-77.367-79.778z"></path>
</svg>
