<svg width="39" height="45" viewBox="0 0 39 45" fill="none" xmlns="http://www.w3.org/2000/svg">
<path d="M33.4213 28.5158C33.0904 28.5158 32.7595 28.8 32.7595 29.1789C32.7595 34.4368 28.4578 38.7474 23.2106 38.7474C22.8324 38.7474 22.5488 39.0316 22.5488 39.4105C22.5488 39.7895 22.8324 40.0737 23.2106 40.0737C29.1669 40.0737 34.0359 35.1947 34.0359 29.2263C34.0832 28.8 33.7995 28.5158 33.4213 28.5158Z" fill="#192646"/>
<path d="M32.9014 12.6947C29.7341 7.05789 26.3778 2.22632 25.6687 1.27895C25.1015 0.473684 24.2033 0 23.2106 0C22.2179 0 21.3197 0.473684 20.7524 1.27895C20.327 1.89474 18.9088 3.93158 17.1598 6.72632C15.6471 6.01579 13.9453 5.63684 12.1962 5.63684C5.48356 5.63684 0 11.1316 0 17.8579C0 22.8789 3.07268 27.2368 7.42171 29.0842C7.42171 29.1316 7.42171 29.1316 7.42171 29.1789C7.42171 37.8947 14.5125 45 23.2106 45C31.9086 45 38.9995 37.8947 38.9995 29.1789C39.0467 24.8211 36.0213 18.3316 32.9014 12.6947ZM1.27635 17.8579C1.27635 11.8421 6.14537 6.91579 12.1962 6.91579C18.1997 6.91579 23.116 11.7947 23.116 17.8579C23.116 23.9211 18.1997 28.7526 12.1962 28.7526C6.19264 28.7526 1.27635 23.8737 1.27635 17.8579ZM23.2579 43.7211C15.3634 43.7211 8.93442 37.3737 8.74533 29.5579C9.83259 29.8895 11.0144 30.0789 12.1962 30.0789C18.9088 30.0789 24.3924 24.5842 24.3924 17.8579C24.3924 13.3579 21.9342 9.42632 18.3416 7.34211C20.0434 4.59474 21.4142 2.60526 21.8397 2.03684C22.1706 1.56316 22.6906 1.32632 23.2579 1.32632C23.8251 1.32632 24.3451 1.61053 24.676 2.03684C25.9996 3.93158 37.7704 20.8895 37.7704 29.1789C37.7704 37.1842 31.2468 43.7211 23.2579 43.7211Z" fill="#192646"/>
<path d="M17.8216 12.1737C17.5852 11.9368 17.1598 11.9368 16.9234 12.1737L6.57082 22.5947C6.33446 22.8316 6.33446 23.2579 6.57082 23.4947C6.71263 23.6368 6.85445 23.6842 7.04354 23.6842C7.18535 23.6842 7.37444 23.6368 7.51626 23.4947L17.8688 13.1211C18.1052 12.8368 18.1052 12.4579 17.8216 12.1737Z" fill="#192646"/>
<path d="M8.4617 16.5316C9.78532 16.5316 10.8726 15.4421 10.8726 14.1158C10.8726 12.7895 9.78532 11.7 8.4617 11.7C7.13808 11.7 6.05082 12.7895 6.05082 14.1158C6.05082 15.4421 7.13808 16.5316 8.4617 16.5316ZM8.4617 12.9789C9.07624 12.9789 9.59623 13.5 9.59623 14.1158C9.59623 14.7316 9.07624 15.2526 8.4617 15.2526C7.84716 15.2526 7.32717 14.7316 7.32717 14.1158C7.32717 13.4526 7.84716 12.9789 8.4617 12.9789Z" fill="#192646"/>
<path d="M15.9307 19.1368C14.6071 19.1368 13.5198 20.2263 13.5198 21.5526C13.5198 22.8789 14.6071 23.9684 15.9307 23.9684C17.2543 23.9684 18.3416 22.8789 18.3416 21.5526C18.3416 20.2263 17.2543 19.1368 15.9307 19.1368ZM15.9307 22.7368C15.3161 22.7368 14.7962 22.2158 14.7962 21.6C14.7962 20.9842 15.3161 20.4632 15.9307 20.4632C16.5452 20.4632 17.0652 20.9842 17.0652 21.6C17.0652 22.2158 16.5452 22.7368 15.9307 22.7368Z" fill="#192646"/>
<circle cx="23" cy="29" r="13" fill="#192646"/>
<path d="M16.5419 36H29.5207C29.9829 36 30.3295 35.6712 30.3295 35.2329C30.3295 34.7945 29.9829 34.4658 29.5207 34.4658H16.5419C16.0797 34.4658 15.8486 34.1735 15.7716 34.0274C15.6946 33.8813 15.5405 33.5525 15.7716 33.1507L22.5884 21.9361C22.8195 21.5342 23.2046 21.4977 23.3586 21.4977C23.5127 21.4977 23.8978 21.5342 24.1289 21.9361L30.4835 32.3836C30.7146 32.7489 31.2153 32.8584 31.6004 32.6758C31.9856 32.4566 32.1011 31.9817 31.9085 31.6164L25.5539 21.2055C25.0917 20.4749 24.283 20 23.3586 20C22.4343 20 21.6256 20.4384 21.1634 21.2055L14.3466 32.4201C13.8845 33.1507 13.8845 34.0639 14.3466 34.7945C14.8088 35.5616 15.6175 36 16.5419 36Z" fill="white"/>
<path d="M23.3586 30.5205C23.8208 30.5205 24.1674 30.1918 24.1674 29.7534V25.2237C24.1674 24.7854 23.8208 24.4566 23.3586 24.4566C22.8965 24.4566 22.5499 24.7854 22.5499 25.2237V29.7534C22.5499 30.1918 22.8965 30.5205 23.3586 30.5205Z" fill="white"/>
<path d="M23.3586 33.4064C23.8691 33.4064 24.283 33.0139 24.283 32.5297C24.283 32.0455 23.8691 31.653 23.3586 31.653C22.8482 31.653 22.4343 32.0455 22.4343 32.5297C22.4343 33.0139 22.8482 33.4064 23.3586 33.4064Z" fill="white"/>
</svg>
