<svg width="33" height="43" viewBox="0 0 33 43" fill="none" xmlns="http://www.w3.org/2000/svg">
<path d="M3.00049 1L32.0005 14.3157M26.0005 11.5906L25.938 17.2266H23.5005L23.6255 31.5952H26.1255V41.9381L4.00048 42" stroke="#969696" stroke-width="2" stroke-miterlimit="10"/>
<path d="M16.6669 9.47418L14.1669 8.58758L1.66694 31.6392L2.50027 33.4124H27.5003L28.3336 32.5258L27.5003 29.866L16.6669 9.47418Z" fill="#D2D2D2"/>
<path d="M13.8755 24.9179C13.9096 25.7159 14.3528 26.1874 15.0005 26.1874C15.6483 26.1874 16.0915 25.7159 16.1256 24.9179C16.1938 23.7572 16.2619 22.5603 16.296 21.3996C16.3642 20.2389 16.4324 19.1145 16.4665 17.9538C16.5006 16.9745 15.8187 16.1765 14.9664 16.2128C14.08 16.249 13.4323 17.0107 13.5005 18.0263C13.6368 20.3114 13.7732 22.6328 13.8755 24.9179Z" fill="#192646"/>
<path d="M15.0345 26.9845C13.9776 26.9845 13.1594 27.8187 13.1594 28.9068C13.1594 30.0675 13.9776 30.9743 15.0345 30.9743C16.0572 30.9743 16.9095 30.0675 16.9095 29.0157C16.8754 27.8912 16.0572 26.9845 15.0345 26.9845Z" fill="#192646"/>
<path d="M29.5228 30.5026C26.216 24.4819 21.8183 16.5389 17.4548 8.63212C16.8752 7.58031 15.9889 7 15.0003 7C14.0116 7 13.1253 7.58031 12.5798 8.59585C10.5685 12.2228 8.55718 15.886 6.54585 19.513C5.07996 22.1606 3.61407 24.8446 2.11409 27.4922C1.90955 27.8187 1.7391 28.1813 1.53456 28.5078C1.15956 29.1969 0.784567 29.886 0.409573 30.5751C0.205031 30.9378 0.102759 31.3005 0.0345787 31.6269C-0.0336021 32.0984 0.000488281 32.6062 0.13685 33.0777C0.307302 33.513 0.580025 33.9119 0.920929 34.2383C1.19365 34.456 1.50047 34.6373 1.87546 34.7824C2.35273 34.9637 2.82999 35 3.1368 35C5.76177 35 8.35264 35 10.7731 35H18.4093C21.2047 35 24.0001 35 26.7955 35C26.8296 35 26.8637 35 26.8637 35C26.8978 35 26.966 35 27.0001 35C27.1024 35 27.2728 35 27.4773 34.9637C28.9091 34.7824 29.5228 33.8756 29.7614 33.3679C29.9659 32.8601 30.2728 31.8083 29.5228 30.5026ZM27.2046 32.9689C27.1364 32.9689 27.0683 32.9689 26.966 32.9689C26.8978 32.9689 26.8296 32.9689 26.7614 32.9689C23.966 32.9689 21.1706 32.9689 18.3752 32.9689H14.9662C13.5685 32.9689 12.1708 32.9689 10.7731 32.9689C8.21627 32.9689 5.69358 32.9689 3.1709 32.9689C2.96635 32.9689 2.72772 32.9326 2.52318 32.8601C1.90955 32.6425 1.77319 32.2073 2.08 31.5907C2.62545 30.5751 3.20499 29.5233 3.78452 28.5078C7.26174 22.2332 10.739 15.9223 14.2162 9.64767C14.4548 9.2487 14.7275 9.03109 15.0003 9.03109C15.273 9.03109 15.5798 9.2487 15.8184 9.64767C19.8411 16.9378 23.8638 24.228 27.8864 31.5181C28.3296 32.3161 28.0569 32.8601 27.2046 32.9689Z" fill="#192646"/>
</svg>
