<svg width="31" height="42" viewBox="0 0 31 42" fill="none" xmlns="http://www.w3.org/2000/svg">
<path d="M30 13.9276L2.47504 1M24.3401 11.2942L24.3997 16.8602L22.374 16.8004L13.0799 25.718M24.2209 29.8476L24.1018 40.2615L3.24955 40.3214" stroke="#192646" stroke-width="2" stroke-miterlimit="10"/>
<path d="M15.7463 33.3499C15.7961 33.6215 15.6164 33.8821 15.3448 33.932L10.9188 34.7449C10.6472 34.7948 10.3866 34.615 10.3367 34.3434C10.2869 34.0718 10.4666 33.8112 10.7382 33.7613L14.6724 33.0387L13.9498 29.1045C13.8999 28.833 14.0796 28.5723 14.3512 28.5224C14.6228 28.4726 14.8834 28.6523 14.9333 28.9239L15.7463 33.3499ZM1.28435 23.1982L15.5384 33.0286L14.9706 33.8518L0.716622 24.0214L1.28435 23.1982Z" fill="#192646"/>
</svg>
