<svg width="31" height="42" viewBox="0 0 31 42" fill="none" xmlns="http://www.w3.org/2000/svg">
<path d="M29.9999 13.9275L2.47503 1M24.34 11.2941L24.3996 16.8602L22.3739 16.8003L13.0798 25.7179M24.2209 29.8475L24.1017 40.2614L3.24954 40.3212" stroke="#192646" stroke-width="2" stroke-miterlimit="10"/>
<path d="M0.508744 23.6999C0.458858 23.4283 0.638593 23.1677 0.910192 23.1178L5.33615 22.3049C5.60775 22.255 5.86837 22.4348 5.91825 22.7064C5.96814 22.978 5.7884 23.2386 5.51681 23.2885L1.58262 24.0111L2.30522 27.9453C2.35511 28.2169 2.17537 28.4775 1.90378 28.5274C1.63218 28.5772 1.37156 28.3975 1.32168 28.1259L0.508744 23.6999ZM14.9706 33.8515L0.716651 24.0212L1.28438 23.198L15.5383 33.0283L14.9706 33.8515Z" fill="#192646"/>
</svg>
