<!-- Generated by IcoMoon.io -->
<svg version="1.1" xmlns="http://www.w3.org/2000/svg" width="1024" height="1024" viewBox="0 0 1024 1024">
<g id="icomoon-ignore">
</g>
<path fill="#000" d="M768.862 523.225c-25.858 0-55.165 15.54-56.889 43.17l-1.724 15.54h37.927c1.724-12.087 13.791-20.722 22.411-18.993 8.618 0 20.687 8.632 18.962 18.993 0 13.816-12.067 20.722-22.411 27.63-18.962 10.361-39.649 20.722-49.994 39.717-8.618 17.269-8.618 31.082-8.618 50.078h122.397v-39.717h-70.681c17.24-13.814 37.927-20.722 51.718-37.99 15.514-18.995 20.687-48.349 6.896-69.071-8.62-18.995-31.031-29.356-49.994-29.356z"></path>
<path fill="#000" d="M515.447 0c-153.426 0-279.271 120.877-287.891 274.563-134.465 39.717-227.555 160.594-227.555 300.466 0 174.408 141.36 316.006 315.474 316.006 13.791 0 29.307-1.726 43.098-3.453l62.061 134.691 36.202-17.269-74.127-160.594-15.516 3.455c-17.24 3.453-34.478 5.179-51.718 5.179-153.427 0-277.548-124.33-277.548-278.016 0-127.785 86.195-238.301 208.592-269.384l13.791-3.453v-15.542c1.724-138.144 113.779-248.661 251.691-248.661s249.967 110.516 251.691 248.661v15.542l13.791 3.453c122.397 31.082 208.591 141.599 208.591 269.384 0 153.686-124.121 278.016-277.547 278.016-17.24 0-34.478-1.726-51.718-5.179l-15.516-3.455-75.852 162.32 36.202 17.269 63.785-136.417c13.791 1.726 29.307 3.453 43.098 3.453 174.113 0 315.474-141.599 315.474-316.006 0-139.872-93.092-260.749-227.555-300.466-1.724-153.686-127.57-274.563-280.998-274.563z"></path>
<path fill="#000" d="M336.161 424.796c-24.134-3.453-48.269 0-70.679 10.361-44.823 22.448-70.681 72.526-63.785 122.604s43.099 91.521 93.090 101.882c48.269 10.361 98.263-13.814 124.121-58.712l-34.478-18.995c-17.238 29.356-49.992 44.898-81.023 37.99-32.754-6.908-56.889-34.535-62.061-69.073-5.171-34.535 13.791-69.071 43.098-82.887 29.307-15.54 65.507-8.634 87.919 15.542l27.582-27.63c-18.962-15.542-41.374-27.63-63.785-31.082z"></path>
<path fill="#000" d="M563.718 461.058c43.096 0 77.574 36.264 77.574 81.16 0 44.898-34.478 81.16-77.574 81.16-43.098 0-77.576-36.262-77.576-81.16 0-44.896 36.2-81.16 77.576-81.16zM563.718 423.070c-63.785 0-117.228 55.257-117.228 120.877 0 65.618 51.718 120.877 117.228 120.877 63.783 0 117.225-55.259 117.225-120.877 0-67.346-51.718-120.877-117.225-120.877z"></path>
</svg>
