<!-- Generated by IcoMoon.io -->
<svg version="1.1" xmlns="http://www.w3.org/2000/svg" width="1024" height="1024" viewBox="0 0 1024 1024">
<g id="icomoon-ignore">
</g>
<path fill="#000" d="M624.994 862.124c-63.56 74.256-157.133 115.703-254.236 115.703-185.378 0-335.448-146.786-335.448-328.108 0-326.381 278.951-556.056 335.448-599.228 26.484 20.723 104.166 84.617 178.318 179.596 5.297 6.908 17.655 8.634 24.718 3.454 7.061-5.181 8.827-17.269 3.53-24.176-93.573-122.609-192.442-193.411-195.973-195.138-7.061-3.454-14.124-3.454-21.185 0-14.124 10.361-360.166 255.579-360.166 635.492 0 200.318 165.959 362.645 370.758 362.645 107.697 0 210.097-46.625 280.718-126.061 7.063-6.907 5.297-17.271-1.766-24.178-7.061-6.907-17.655-6.907-24.716 0z"></path>
<path fill="#000" d="M688.552 269.805c8.827 0 17.655-8.634 17.655-17.268s-8.827-17.27-17.655-17.27c-8.827 0-17.655-6.908-17.655-17.269 0-8.634 8.827-17.269 17.655-17.269 30.015 0 52.966 24.176 52.966 51.807 0 27.629-22.952 51.805-52.966 51.805h-406.070c-8.827 0-17.655 8.634-17.655 17.268s8.827 17.271 17.655 17.271h406.070c49.434 0 88.276-37.993 88.276-86.344 0-48.354-38.842-86.345-88.276-86.345-30.013 0-52.966 24.176-52.966 51.806s22.954 51.807 52.966 51.807z"></path>
<path fill="#000" d="M582.621 528.838h-123.587c-8.827 0-17.655 8.634-17.655 17.268s8.827 17.268 17.655 17.268h123.587c49.434 0 88.276-37.99 88.276-86.344 0-48.351-38.842-86.344-88.276-86.344-30.015 0-52.966 24.176-52.966 51.807 0 27.629 22.952 51.805 52.966 51.805 8.827 0 17.655-8.634 17.655-17.268s-8.827-17.268-17.655-17.268c-8.827 0-17.655-8.634-17.655-17.268s8.827-17.268 17.655-17.268c30.013 0 52.964 24.176 52.964 51.805s-22.952 51.807-52.964 51.807z"></path>
<path fill="#000" d="M723.861 787.87h-335.446c-8.83 0-17.657 8.634-17.657 17.268s8.827 17.268 17.657 17.268h335.446c30.015 0 52.966 22.449 52.966 51.805 0 29.359-22.952 51.807-52.966 51.807-8.827 0-17.655-8.634-17.655-17.268s8.827-17.268 17.655-17.268c8.83 0 17.657-8.634 17.657-17.271 0-8.634-8.827-17.268-17.657-17.268-30.013 0-52.964 22.451-52.964 51.807s22.952 51.805 52.964 51.805c49.436 0 88.278-37.99 88.278-86.344 0-48.351-38.842-86.342-88.278-86.342z"></path>
<path fill="#000" d="M918.070 701.526h-247.173c-8.827 0-17.655 8.634-17.655 17.268s8.827 17.268 17.655 17.268h247.173c30.013 0 52.964 22.449 52.964 51.807 0 29.356-22.952 51.805-52.964 51.805-8.827 0-17.655-8.634-17.655-17.268s8.827-17.268 17.655-17.268c8.827 0 17.655-8.634 17.655-17.268 0-8.637-8.827-17.271-17.655-17.271-30.015 0-52.966 22.451-52.966 51.807s22.952 51.805 52.966 51.805c49.434 0 88.276-37.99 88.276-86.342 0-48.354-38.842-86.344-88.276-86.344z"></path>
<path fill="#000" d="M723.861 425.225c0 67.347 54.733 120.881 123.587 120.881 38.842 0 70.621-31.083 70.621-69.076 0-37.99-31.779-69.076-70.621-69.076-8.827 0-17.655 8.634-17.655 17.271 0 8.634 8.827 17.268 17.655 17.268 19.421 0 35.309 15.542 35.309 34.537s-15.888 34.539-35.309 34.539c-49.434 0-88.276-37.993-88.276-86.344 0-48.354 38.842-86.344 88.276-86.344 77.682 0 141.242 62.166 141.242 138.149s-63.56 138.152-141.242 138.152h-282.482c-8.827 0-17.657 8.634-17.657 17.268s8.83 17.268 17.657 17.268h282.482c97.103 0 176.552-77.71 176.552-172.688s-79.448-172.688-176.552-172.688c-68.855 0-123.587 53.534-123.587 120.883z"></path>
<path fill="#000" d="M547.309 736.063h70.621c8.827 0 17.655-8.634 17.655-17.268s-8.827-17.268-17.655-17.268h-70.621c-8.827 0-17.655 8.634-17.655 17.268s8.827 17.268 17.655 17.268z"></path>
<path fill="#000" d="M476.691 701.526c-8.83 0-17.657 8.634-17.657 17.268s8.827 17.268 17.657 17.268h17.655c8.827 0 17.655-8.634 17.655-17.268s-8.827-17.268-17.655-17.268h-17.655z"></path>
<path fill="#000" d="M406.070 528.838h-70.621c-8.827 0-17.655 8.634-17.655 17.268s8.827 17.268 17.655 17.268h70.621c8.827 0 17.655-8.634 17.655-17.268s-8.827-17.268-17.655-17.268z"></path>
<path fill="#000" d="M529.655 632.45c0-8.634-8.827-17.268-17.655-17.268h-52.966c-8.827 0-17.655 8.634-17.655 17.268s8.827 17.268 17.655 17.268h52.966c8.827 0 17.655-8.634 17.655-17.268z"></path>
<path fill="#000" d="M406.070 615.182h-176.552c-10.593 0-17.655 8.634-17.655 17.268s7.062 17.268 17.655 17.268h176.552c8.827 0 17.655-8.634 17.655-17.268s-8.827-17.268-17.655-17.268z"></path>
</svg>
