<!-- Generated by IcoMoon.io -->
<svg version="1.1" xmlns="http://www.w3.org/2000/svg" width="1024" height="1024" viewBox="0 0 1024 1024">
<g id="icomoon-ignore">
</g>
<path fill="#000" d="M512 0c-282.169 0-512 229.831-512 512s229.831 512 512 512c282.169 0 512-229.831 512-512s-229.831-512-512-512zM512 1001.244c-269.653 0-489.244-219.591-489.244-489.244s219.591-489.244 489.244-489.244c269.653 0 489.244 219.591 489.244 489.244s-219.591 489.244-489.244 489.244z"></path>
<path fill="#000" d="M522.24 235.52c4.551-4.551 4.551-11.378 0-15.929s-11.378-4.551-15.929 0c-138.809 138.809-35.271 263.964 0 299.236 39.822 39.822 120.604 146.773 0 268.516-4.551 4.551-4.551 11.378 0 15.929 2.276 2.276 4.551 3.413 7.964 3.413 2.276 0 5.689-1.138 7.964-3.413 138.809-138.809 35.271-263.964 0-299.236-39.822-39.822-120.604-146.773 0-268.516z"></path>
<path fill="#000" d="M691.769 235.52c4.551-4.551 4.551-11.378 0-15.929s-11.378-4.551-15.929 0c-138.809 138.809-35.271 263.964 0 299.236 39.822 39.822 120.604 146.773 0 268.516-4.551 4.551-4.551 11.378 0 15.929 2.276 2.276 4.551 3.413 7.964 3.413 2.276 0 5.689-1.138 7.964-3.413 138.809-138.809 35.271-263.964 0-299.236-39.822-39.822-120.604-146.773 0-268.516z"></path>
<path fill="#000" d="M352.709 235.52c4.551-4.551 4.551-11.378 0-15.929s-11.378-4.551-15.929 0c-138.808 138.809-35.271 263.964 0 299.236 39.822 39.822 120.604 146.773 0 268.516-4.551 4.551-4.551 11.378 0 15.929 2.276 2.276 4.551 3.413 7.964 3.413 2.276 0 5.689-1.138 7.964-3.413 138.809-138.809 35.271-263.964 0-299.236-40.96-39.822-121.742-146.773 0-268.516z"></path>
</svg>
