<!-- Generated by IcoMoon.io -->
<svg version="1.1" xmlns="http://www.w3.org/2000/svg" width="1024" height="1024" viewBox="0 0 1024 1024">
<g id="icomoon-ignore">
</g>
<path fill="#000" d="M753.684 795.477h-17.161v-361.284c0-47.881-38.61-87.055-85.799-87.055-17.159 0-34.319 6.528-49.335 15.234-6.434-4.352-12.87-8.706-19.304-10.882-21.451-8.706-45.046-6.53-66.495 4.354-4.291 2.176-6.436 4.352-10.725 6.528-6.436-4.352-12.87-8.706-19.306-10.882-21.449-6.53-45.044-4.352-66.495 6.53-4.289 2.176-6.434 4.352-10.724 6.53-6.435-4.354-12.87-8.706-19.305-10.883-45.045-15.234-94.38 8.706-109.394 54.41-2.145 8.706-4.29 19.587-4.29 28.293v361.284h-17.16c-6.435 0-10.725 4.354-10.725 10.882v124.056c0 6.53 4.29 10.882 10.725 10.882h115.83v69.646c0 6.53 4.29 10.882 10.725 10.882s10.725-4.352 10.725-10.882v-69.646h227.368v69.646c0 6.53 4.291 10.882 10.726 10.882s10.725-4.352 10.725-10.882v-69.646h115.83c6.434 0 10.725-4.352 10.725-10.882v-124.056c-6.436-8.706-10.725-13.058-17.161-13.058zM601.39 390.665c15.015 17.411 21.449 41.353 12.87 65.294-2.145 4.352-4.291 6.528-8.579 8.706-6.436 2.176-15.015-2.178-17.161-8.706-2.145-6.53-4.291-15.235-4.291-21.765 0-15.234 6.436-30.469 17.161-43.529zM489.851 412.43c2.145-8.706 6.434-15.235 12.87-21.765 15.015 17.411 21.449 41.353 12.87 65.294-2.145 4.352-4.291 6.528-8.579 8.706-6.436 2.176-15.015-2.178-17.161-8.706-4.291-13.059-4.291-26.117 0-43.529zM393.326 412.43c2.145-8.706 6.435-15.235 12.87-21.765 15.014 17.411 21.45 41.353 12.869 65.294-2.144 4.352-4.289 6.528-8.579 8.706-6.435 2.176-15.015-2.178-17.16-8.706-4.29-13.059-4.29-26.117 0-43.529zM292.511 434.193c0-6.53 2.145-15.234 4.29-21.763 12.87-34.823 49.335-52.234 83.655-41.353 4.29 2.176 6.435 2.176 10.725 4.354-6.435 8.706-12.87 17.411-17.16 28.293-6.435 19.587-6.435 39.175 0 58.762s25.74 28.293 45.044 21.765c10.726-4.354 17.161-10.882 21.451-21.765 10.725-30.469 2.145-63.116-17.161-87.055 15.015-8.706 34.319-10.882 53.625-4.354 4.291 2.176 6.434 2.176 10.725 4.354-6.434 8.706-12.87 17.411-17.161 28.293-6.434 19.587-6.434 39.175 0 58.762 6.436 19.587 25.74 28.293 45.046 21.765 10.725-4.354 17.159-10.882 21.449-21.765 8.579-21.763 6.436-45.705-4.291-67.468-4.289-6.53-8.579-13.059-12.87-19.587 15.015-8.706 34.321-10.882 53.625-4.354 4.291 2.176 6.436 2.176 10.725 4.354-12.87 15.234-21.449 34.823-21.449 56.586 0 10.882 2.145 19.587 4.291 28.293 6.434 19.587 25.74 28.293 45.044 21.763 10.725-4.352 17.161-10.882 21.451-21.763 10.725-30.469 2.144-63.116-17.161-87.055 8.579-4.354 19.304-8.706 32.174-8.706 36.465 0 64.35 30.469 64.35 65.292v361.283h-420.418v-356.931zM742.96 919.533h-478.333v-102.292h480.479l-2.145 102.292z"></path>
<path fill="#000" d="M489.851 212.2c-6.436 2.176-8.579 8.706-6.436 13.058 2.145 4.354 6.436 6.53 10.726 6.53 2.144 0 2.144 0 4.289 0 17.161-6.53 32.176-17.411 40.755-34.823s10.725-34.822 4.291-54.41c-2.145-8.706-8.581-17.411-15.015-26.117-25.74-28.293-25.74-69.645 0-97.938 4.289-4.353 4.289-10.882 0-15.235-4.291-4.353-10.725-4.353-15.015 0-32.174 36.999-32.174 91.409 0 126.232 4.291 4.353 8.579 10.882 10.725 17.411 4.291 13.059 2.145 26.118-2.145 37s-19.304 23.939-32.174 28.293z"></path>
<path fill="#000" d="M618.551 212.2c-6.436 2.176-8.581 8.706-6.436 13.058 2.145 4.354 6.436 6.53 10.725 6.53 2.145 0 2.145 0 4.291 0 36.465-10.882 55.77-52.234 45.044-87.056-2.144-8.706-8.579-17.411-15.014-26.117-25.74-28.293-25.74-69.645 0-97.938 4.289-4.353 4.289-10.882 0-15.235-4.291-4.353-10.725-4.353-15.015 0-32.176 36.999-32.176 91.409 0 126.232 4.291 4.353 8.579 10.882 10.725 17.411 4.291 28.293-8.579 54.41-34.319 63.116z"></path>
<path fill="#000" d="M361.151 212.2c-6.435 2.176-8.58 6.53-6.435 13.058 2.145 4.354 6.435 6.53 10.725 6.53 2.145 0 2.145 0 4.29 0 36.465-10.882 55.77-52.234 45.045-87.056-2.145-10.882-8.58-19.588-15.015-26.117-25.74-28.293-25.74-69.645 0-97.938 4.29-4.353 4.29-10.882 0-15.235s-10.725-4.353-15.015 0c-32.175 36.999-32.175 91.409 0 126.232 4.29 4.353 8.58 10.882 10.725 17.411 4.29 28.293-8.58 54.41-34.32 63.116z"></path>
</svg>
