<!-- Generated by IcoMoon.io -->
<svg version="1.1" xmlns="http://www.w3.org/2000/svg" width="1024" height="1024" viewBox="0 0 1024 1024">
<g id="icomoon-ignore">
</g>
<path fill="#000" d="M329.762 138.508c-0.010-31.918 0.893-53.285 17.309-73.769 11.691-14.59 32.213-29.295 60.357-29.418 28.971-0.124 51.375 15.094 61.963 30.064 17.955 25.388 16.89 39.389 16.881 75.347v543.071c16.748 11.967 26.548 16.881 40.111 30.901 101.666 105.097 25.892 281.539-116.684 283.079-123.090 1.34-203.294-131.873-148.288-241.038 14.163-28.097 41.157-59.331 68.351-71.83v-546.407zM294.67 662.084c-8.64 13.459-45.757 28.895-71.326 92.151-52.525 129.924 41.176 280.484 186.346 279.097 186.546-1.787 261.959-236.571 133.137-350.67-7.053-6.245-16.368-13.079-22.86-19.181 0-128.945 0-257.891 0-386.836 0-41.822 4.933-158.582-3.735-191.299-30.15-113.709-189.398-113.766-217.903-0.295-8.697 34.617-3.65 146.045-3.65 189.369 0 129.221 0 258.442 0 387.663v0z"></path>
<path fill="#000" d="M690.127 568.925l-83.264 0.485c8.421 21.263 98.967 172.802 101.79 174.969 11.178-19.552 98.197-166.452 99.423-175.035h-82.57l-0.010-387.53-34.655-0.466-0.703 387.578z"></path>
<path fill="#000" d="M392.999 772.095c36.556-10.132 66.659 16.292 73.189 45.035 17.793 78.274-98.643 105.183-116.418 27.441-8.051-35.197 14.98-64.644 43.229-72.476v0zM389.321 736.261c-30.53 13.031-36.072 12.204-54.407 33.743-51.308 60.262-6.796 158.772 74.805 157.223 66.925-1.274 127.225-79.823 71.003-157.964-20.407-28.363-53.19-28.211-55.158-35.891l-0.38-172.821h-33.61l-2.253 175.71z"></path>
<path fill="#000" d="M389.321 736.261l2.253-175.71h33.61c-3.080-4.116-8.564-2.557-15.455-2.49-6.511 0.057-12.366-0.114-18.858 0.532-5.161 17.347-1.122 148.013-1.559 177.668z"></path>
</svg>
