<!-- Generated by IcoMoon.io -->
<svg version="1.1" xmlns="http://www.w3.org/2000/svg" width="1024" height="1024" viewBox="0 0 1024 1024">
<g id="icomoon-ignore">
</g>
<path fill="#000" d="M145.566 1021.91h-44.757c-10.876 0-19.869-5.852-24.888-16.509-2.091-4.388-3.346-8.986-3.974-13.584l-7.111-41.377c-1.046-5.642 2.928-11.077 8.575-12.121s11.085 2.925 12.13 8.567l7.111 41.797c0 0.21 0 0.627 0 0.837s1.464 11.284 8.157 11.284h44.757c6.902 0 7.947-11.074 7.947-11.494 0-0.417 0-0.627 0.209-0.834l7.111-41.589c1.046-5.642 6.483-9.403 12.13-8.567s9.412 6.479 8.575 12.121l-7.111 41.17c-1.046 10.867-8.366 30.3-28.862 30.3z"></path>
<path fill="#000" d="M587.494 1024h-44.759c-10.874 0-19.868-5.852-24.888-16.509-2.090-4.388-3.347-8.986-3.974-13.584l-7.111-41.377c-0.837-5.644 3.137-11.077 8.994-11.704 5.437-0.837 10.457 2.925 11.711 8.15l7.111 41.797c0 0.21 0 0.627 0 0.837 0 0.207 1.256 11.494 8.157 11.494h44.759c6.901 0 8.157-11.286 8.157-11.494 0-0.21 0-0.627 0-0.837l7.111-41.587c1.046-5.642 6.484-9.403 12.131-8.569 5.647 0.837 9.411 6.479 8.574 12.121l-7.111 41.17c-1.046 10.657-8.367 30.093-28.862 30.093z"></path>
<path fill="#000" d="M610.082 957.125h-532.070c-43.084 0-78.012-34.898-78.012-77.949v-801.227c0-43.050 34.927-77.949 78.012-77.949h532.070c43.083 0 78.011 34.9 78.011 77.949v801.227c0 43.050-34.928 77.949-78.011 77.949zM78.012 20.898c-31.581 0-57.097 25.495-57.097 57.051v801.227c0 31.557 25.516 57.052 57.097 57.052h532.070c31.582 0 57.097-25.495 57.097-57.052v-801.227c0-31.556-25.515-57.051-57.097-57.051h-532.070z"></path>
<path fill="#000" d="M349.274 858.906h-12.548c-28.862 0-52.286-23.405-52.286-52.244v-158.825c0-28.839 23.425-52.246 52.286-52.246h12.548c28.864 0 52.289 23.407 52.289 52.246v158.825c0 28.839-23.425 52.244-52.289 52.244zM336.726 616.49c-17.358 0-31.372 14.001-31.372 31.347v158.825c0 17.343 14.014 31.347 31.372 31.347h12.548c17.361 0 31.374-14.004 31.374-31.347v-158.825c0-17.346-14.014-31.347-31.374-31.347h-12.548z"></path>
<path fill="#000" d="M880.298 842.605h-3.974c-41.829 0-76.128-25.912-83.449-62.901-7.947-40.543 15.058-71.89 35.555-99.685 7.528-9.82 14.431-20.060 20.705-30.72 7.737-13.582 13.804-28.21 17.778-43.468 1.046-4.596 5.437-7.94 10.247-7.94h2.93c4.81 0 8.991 3.344 10.247 7.94 4.183 15.258 10.038 29.676 17.778 43.468 6.274 10.66 13.175 20.9 20.705 30.72 20.288 27.795 43.503 59.559 35.555 99.892-7.53 36.782-42.039 62.694-84.078 62.694zM878.417 636.344c-3.347 7.94-7.113 15.465-11.087 22.988-6.691 11.494-14.011 22.361-22.168 33.018-19.451 26.542-37.856 51.62-31.791 83.384 6.067 31.764 36.182 45.975 62.954 45.975h3.974c37.438 0 58.563-22.988 63.163-45.975 6.274-31.557-12.34-56.842-31.791-83.591-7.947-10.45-15.475-21.526-21.959-33.020-4.183-7.523-7.95-15.045-11.294-22.778z"></path>
<path fill="#000" d="M879.461 109.296c-17.985 0-33.462-7.732-49.986-24.242-13.594-13.584-31.372-17.554-53.33-12.121-11.087 2.926-21.751 7.523-31.372 13.793-4.81 3.135-11.294 1.672-14.433-3.344-2.927-4.598-1.881-10.658 2.51-14.002 22.588-15.673 74.874-35.736 111.266 0.627 17.568 17.554 30.328 21.525 51.033 15.882 10.038-2.717 16.941-9.404 24.471-16.3 7.528-6.897 15.475-14.42 26.562-18.39 26.352-9.404 53.54-2.926 74.245 18.181 4.393 3.762 4.81 10.449 0.837 14.838-3.764 4.389-10.457 4.807-14.848 0.836-0.42-0.209-0.627-0.627-1.046-1.045-15.058-15.255-33.672-19.853-52.286-13.166-7.111 2.508-12.758 7.941-19.451 14.002-8.574 7.941-18.405 17.137-33.255 21.316-6.484 1.881-13.594 2.926-20.915 3.135z"></path>
<path fill="#000" d="M879.461 217.966c-17.985 0-33.462-7.732-49.986-24.242-33.253-33.228-84.075 1.463-84.495 1.881-4.601 3.343-11.294 2.299-14.641-2.299-3.344-4.598-2.3-11.285 2.303-14.629 0.207 0 0.207-0.209 0.417-0.209 22.588-15.673 74.874-35.735 111.266 0.627 17.568 17.554 30.325 21.525 50.823 15.882 10.038-2.717 16.941-9.404 24.471-16.3 7.528-6.896 15.475-14.42 26.562-18.39 26.352-9.404 53.54-2.926 74.245 18.181 3.766 4.389 3.347 11.076-1.044 14.838-3.974 3.343-9.83 3.343-13.804-0.209-15.060-15.256-33.672-19.853-52.286-13.166-7.111 2.508-12.758 7.941-19.451 14.002-8.577 7.941-18.405 17.136-33.255 21.316-6.693 1.463-13.804 2.508-21.124 2.717z"></path>
<path fill="#000" d="M879.461 326.426c-17.985 0-33.462-7.732-49.986-24.241-13.594-13.584-31.372-17.555-53.33-12.121-11.087 2.925-21.751 7.523-31.372 13.792-4.81 3.344-11.294 2.090-14.433-2.717-3.137-4.805-2.090-11.074 2.72-14.418 22.588-15.675 74.874-35.735 111.266 0.627 17.568 17.555 30.325 21.524 50.823 15.882 10.038-2.717 16.941-9.403 24.471-16.299 7.528-6.898 15.475-14.421 26.562-18.392 26.352-9.613 53.54-2.925 74.245 18.182 3.766 4.388 3.347 11.077-1.044 14.838-3.974 3.344-9.83 3.344-13.804-0.21-15.060-15.255-33.672-19.853-52.286-13.165-7.111 2.508-12.758 7.94-19.451 14.001-8.577 7.94-18.405 17.136-33.255 21.107-6.693 2.090-13.804 3.134-21.124 3.134z"></path>
<path fill="#000" d="M879.461 437.186c-17.985 0-33.462-7.732-49.986-24.241-13.594-13.584-31.372-17.555-53.33-12.121-11.087 2.925-21.751 7.523-31.372 13.792-4.81 3.344-11.294 2.090-14.433-2.717-3.137-4.805-2.090-11.074 2.72-14.418 22.588-15.675 74.874-35.735 111.266 0.627 17.568 17.555 30.325 21.524 50.823 15.882 10.038-2.717 16.941-9.403 24.471-16.299 7.528-6.898 15.475-14.421 26.562-18.392 26.352-9.613 53.54-2.925 74.245 18.182 3.766 4.388 3.347 11.077-1.044 14.838-3.974 3.344-9.83 3.344-13.804-0.21-15.060-15.255-33.672-19.853-52.286-13.165-7.111 2.508-12.758 7.94-19.451 14.001-8.577 7.94-18.405 17.136-33.255 21.107-6.693 2.090-13.804 3.134-21.124 3.134z"></path>
<path fill="#000" d="M879.461 547.945c-17.985 0-33.462-7.732-49.986-24.241-13.594-13.584-31.372-17.555-53.33-12.121-11.087 2.925-21.751 7.523-31.372 13.792-4.81 3.344-11.294 2.090-14.433-2.717-3.137-4.805-2.090-11.074 2.72-14.418 22.588-15.675 74.874-35.735 111.266 0.627 17.568 17.553 30.325 21.524 50.823 15.882 10.038-2.717 16.941-9.403 24.471-16.299 7.528-6.898 15.475-14.421 26.562-18.392 26.352-9.613 53.54-2.925 74.245 18.182 3.766 4.388 3.347 11.077-1.044 14.838-3.974 3.342-9.83 3.342-13.804-0.21-15.060-15.255-33.672-19.853-52.286-13.165-7.111 2.508-12.758 7.94-19.451 14.001-8.577 7.94-18.405 17.136-33.255 21.107-6.693 2.088-13.804 3.134-21.124 3.134z"></path>
<path fill="#000" d="M554.239 436.768h-420.385c-5.856 0-10.458-4.598-10.458-10.45s4.601-10.45 10.458-10.45h420.385c5.857 0 10.457 4.598 10.457 10.45s-4.601 10.45-10.457 10.45z"></path>
<path fill="#000" d="M554.239 379.507h-420.385c-5.856 0-10.458-4.598-10.458-10.45s4.601-10.447 10.458-10.447h420.385c5.857 0 10.457 4.596 10.457 10.447s-4.601 10.45-10.457 10.45z"></path>
<path fill="#000" d="M554.239 324.546h-420.385c-5.856 0-10.458-4.598-10.458-10.45s4.601-10.447 10.458-10.447h420.385c5.857 0 10.457 4.596 10.457 10.447s-4.601 10.45-10.457 10.45z"></path>
<path fill="#000" d="M554.239 269.584h-420.385c-5.856 0-10.458-4.598-10.458-10.45s4.601-10.449 10.458-10.449h420.385c5.857 0 10.457 4.597 10.457 10.449s-4.601 10.45-10.457 10.45z"></path>
<path fill="#000" d="M554.239 214.622h-420.385c-5.856 0-10.458-4.598-10.458-10.449s4.601-10.449 10.458-10.449h420.385c5.857 0 10.457 4.598 10.457 10.449s-4.601 10.449-10.457 10.449z"></path>
<path fill="#000" d="M554.239 159.66h-420.385c-5.856 0-10.458-4.598-10.458-10.449s4.601-10.449 10.458-10.449h420.385c5.857 0 10.457 4.598 10.457 10.449s-4.601 10.449-10.457 10.449z"></path>
<path fill="#000" d="M554.239 102.4h-420.385c-5.856 0-10.458-4.598-10.458-10.449s4.601-10.449 10.458-10.449h420.385c5.857 0 10.457 4.598 10.457 10.449s-4.601 10.449-10.457 10.449z"></path>
<path fill="#000" d="M627.44 532.897c0-5.852 4.601-10.447 10.457-10.447s10.457 4.596 10.457 10.447c0 5.852-4.601 10.45-10.457 10.45s-10.457-4.598-10.457-10.45zM585.611 532.897c0-5.852 4.601-10.447 10.457-10.447s10.457 4.596 10.457 10.447c0 5.852-4.601 10.45-10.457 10.45s-10.457-4.598-10.457-10.45zM543.781 532.897c0-5.852 4.601-10.447 10.457-10.447s10.457 4.596 10.457 10.447c0 5.852-4.601 10.45-10.457 10.45s-10.457-4.598-10.457-10.45zM501.952 532.897c0-5.852 4.601-10.447 10.457-10.447s10.457 4.596 10.457 10.447c0 5.852-4.601 10.45-10.457 10.45s-10.457-4.598-10.457-10.45zM460.123 532.897c0-5.852 4.601-10.447 10.457-10.447s10.457 4.596 10.457 10.447c0 5.852-4.601 10.45-10.457 10.45s-10.457-4.598-10.457-10.45zM418.294 532.897c0-5.852 4.601-10.447 10.457-10.447s10.457 4.596 10.457 10.447c0 5.852-4.601 10.45-10.457 10.45s-10.457-4.598-10.457-10.45zM376.465 532.897c0-5.852 4.601-10.447 10.457-10.447 5.854 0 10.457 4.596 10.457 10.447s-4.603 10.45-10.457 10.45c-5.857 0-10.457-4.598-10.457-10.45zM334.636 532.897c0-5.852 4.601-10.447 10.457-10.447 5.854 0 10.457 4.596 10.457 10.447s-4.603 10.45-10.457 10.45c-5.857 0-10.457-4.598-10.457-10.45zM292.807 532.897c0-5.852 4.601-10.447 10.457-10.447 5.854 0 10.457 4.596 10.457 10.447s-4.603 10.45-10.457 10.45c-5.857 0-10.457-4.598-10.457-10.45zM250.975 532.897c0-5.852 4.603-10.447 10.457-10.447 5.857 0 10.46 4.596 10.46 10.447s-4.603 10.45-10.46 10.45c-5.854 0-10.457-4.598-10.457-10.45zM209.147 532.897c0-5.852 4.601-10.447 10.457-10.447s10.457 4.596 10.457 10.447c0 5.852-4.601 10.45-10.457 10.45s-10.457-4.598-10.457-10.45zM167.317 532.897c0-5.852 4.601-10.447 10.457-10.447s10.458 4.596 10.458 10.447c0 5.852-4.601 10.45-10.458 10.45s-10.457-4.598-10.457-10.45zM125.488 532.897c0-5.852 4.601-10.447 10.458-10.447s10.457 4.596 10.457 10.447c0 5.852-4.601 10.45-10.457 10.45s-10.458-4.598-10.458-10.45zM83.659 532.897c0-5.852 4.601-10.447 10.457-10.447s10.457 4.596 10.457 10.447c0 5.852-4.601 10.45-10.457 10.45s-10.457-4.598-10.457-10.45zM41.829 532.897c0-5.852 4.601-10.447 10.457-10.447s10.457 4.596 10.457 10.447c0 5.852-4.601 10.45-10.457 10.45s-10.457-4.598-10.457-10.45zM0 532.897c0-5.852 4.601-10.447 10.457-10.447s10.457 4.596 10.457 10.447c0 5.852-4.601 10.45-10.457 10.45s-10.457-4.598-10.457-10.45z"></path>
</svg>
