<!-- Generated by IcoMoon.io -->
<svg version="1.1" xmlns="http://www.w3.org/2000/svg" width="1024" height="1024" viewBox="0 0 1024 1024">
<g id="icomoon-ignore">
</g>
<path fill="#000" d="M688.598 124.983c84.38-14.284 153.48 49.5 165.106 119.595 14.284 87.038-47.174 155.803-118.265 168.427-141.186 24.582-219.253-139.858-141.186-233.54 22.924-27.907 48.17-46.509 94.345-54.482v0zM168.035 623.62c0-175.403 231.215-425.886 335.525-570.725l69.098 89.029c-4.651 9.635-11.96 15.947-18.934 26.577-55.81 86.374-28.902 199.985 49.832 252.474 61.124 40.861 105.308 38.867 181.051 18.604 7.64 21.593 22.257 46.177 31.89 70.759 74.082 191.016-34.881 401.634-207.959 460.766-233.208 79.728-440.503-113.613-440.503-347.485v0zM818.156 416.325c57.471-24.582 113.281-151.151 41.858-254.799-39.199-56.807-117.268-90.691-193.343-72.42-12.624 2.989-22.922 6.644-34.55 11.626-11.294 4.983-17.94 10.963-28.238 14.949-12.956-10.964-31.558-38.204-43.186-53.485l-41.191-55.478c-23.586-21.927-40.861 15.613-51.159 29.898-13.62 18.936-25.58 33.221-40.197 52.822-168.427 224.236-421.567 473.721-229.884 767.056 180.054 275.729 589.993 199.322 670.385-130.224 42.524-175.070-39.531-259.118-50.495-309.946v0z"></path>
<path fill="#000" d="M663.682 799.356l-4.319-11.294 7.641 4.984c23.586 9.635 64.447 44.515 80.724 16.942 8.637-21.593-39.199-38.204-64.447-50.495 16.609-12.624 64.115-15.283 75.742-30.896 9.967-13.62-1.328-28.238-15.613-28.569l-83.381 26.244c-21.927 7.309-20.929 9.301-41.526-1.328-18.934-9.967-57.471-24.582-70.427-38.536 15.613-10.963 80.724-47.505 96.007-44.184 32.556 7.309 82.719 37.873 113.945 28.238 14.617-38.536-16.279-30.564-74.414-54.481 26.908-22.592 76.739-25.581 63.45-53.485-13.288-28.569-67.77 16.277-86.374 19.932 3.323-17.94 13.953-57.471 10.632-74.414-16.611-18.604-33.885-10.963-39.201 13.953-4.651 22.921-8.637 44.847-12.622 67.436-3.655 19.6 0 16.609-15.283 24.582-9.967 4.984-16.942 8.637-26.576 13.289-18.604 9.3-33.886 21.26-53.818 26.576v-93.682c13.288-8.307 86.704-60.462 88.699-71.091 1.66-8.637-5.648-38.536-42.854-9.301-10.632 8.307-35.214 28.238-45.513 32.889-0.997-19.268 5.315-53.818-3.987-68.434-10.299-15.947-31.226-10.963-35.214 6.644-3.323 15.283 0.997 42.524-1.66 60.794-18.604-10.632-59.797-51.159-76.075-44.515-26.244 24.916 0.334 36.21 18.934 49.832 16.611 12.292 42.524 34.549 58.135 41.525l0.334 95.011c-15.283-4.651-53.485-26.244-68.102-33.885-15.283-7.973-21.927-6.644-26.244-23.918-9.633-38.866-10.631-122.582-47.505-94.677-14.949 11.294 2.325 62.787 4.984 81.39-18.272-6.976-70.427-44.847-84.712-24.582-15.283 21.593 19.598 33.885 40.529 44.515l21.26 13.288c-13.62 3.985-71.757 18.272-76.739 30.894-7.64 18.936 8.305 27.907 24.916 24.584l80.724-26.577c19.6-6.644 18.936-6.976 37.208 2.991 23.254 12.292 48.17 22.257 69.43 37.206-3.323 3.655 3.323-0.665-7.308 6.312l-61.791 31.558c-25.912 14.617-23.254 8.307-78.731-10.299-10.632-3.653-29.9-11.294-40.198-13.288-19.268-3.655-55.81 21.593 10.964 42.524 7.308 2.325 12.956 3.985 20.265 6.312 0.997 0.334 9.301 2.989 9.967 3.323 0.664 0.334 1.66 0.664 2.325 0.997l9.301 6.312c-15.283 4.319-26.577 12.622-40.53 19.932-11.958 6.312-37.538 15.613-20.929 35.878 14.949 18.272 63.45-18.272 83.051-25.58-1.995 22.59-13.953 54.813-9.301 75.742 10.963 8.969 13.952 10.963 30.896 6.976 12.956-20.597 14.948-91.688 25.912-105.973 5.648-7.64 76.739-41.858 90.027-47.173v95.011c-10.299 5.648-84.048 58.799-87.702 67.77-9.635 22.922 17.94 30.232 39.863 13.289 16.611-12.624 30.232-24.916 47.838-34.217 0 36.541-11.958 93.682 36.21 72.42 5.98-20.597 1.661-49.166 4.319-73.084 35.214 22.259 52.157 50.827 83.051 42.854 13.288-28.901-11.626-36.874-30.564-51.158-17.274-12.957-37.206-29.9-53.153-39.531v-93.683c12.292 3.655 37.872 18.936 50.827 25.581 9.633 4.983 16.277 7.973 26.908 13.288 15.613 7.64 13.62 4.319 17.274 22.922 4.319 22.59 7.973 44.515 12.292 66.772 5.98 29.898 21.26 37.206 40.529 17.606 2.66-20.262-7.97-42.519-8.304-64.778v0z"></path>
<path fill="#000" d="M738.428 288.096c0-30.564 4.32-119.593-4.319-143.178-26.908-5.98-28.569 2.657-28.238 30.23 0.334 20.929 0 42.19 0 63.119 0 76.075 1.661 51.159-38.536 90.691-7.64 7.309-28.238 22.257-25.58 34.55 8.637 39.863 63.45-28.569 71.091-35.546 12.627-11.296 25.581-15.615 25.581-39.866v0z"></path>
<path fill="#000" d="M663.682 799.356c-0.332-10.297-1.66-3.323 3.323-5.98l-7.641-4.984 4.317 10.964z"></path>
</svg>
