<?xml version="1.0"?>
<svg width="43" height="43" xmlns="http://www.w3.org/2000/svg" xmlns:svg="http://www.w3.org/2000/svg">
 <!-- <rect x="0.528571" y="0.528571" width="41.5744" height="41.5744" rx="20.7872" stroke="#192646" stroke-width="1.05714"/> -->
 <g class="layer">
  <title>Layer 1</title>
  <path d="m30.896,34.9893l-16.2006,0c-0.527,0.0573 -1.0512,-0.1176 -1.4457,-0.4795c-0.3946,-0.3618 -0.6184,-0.8775 -0.6184,-1.4203c0,-0.5428 0.2238,-1.0584 0.6184,-1.4203c0.3945,-0.3619 0.9187,-0.5368 1.4457,-0.4795l12.6112,0c0.3328,0 0.5801,-0.205 0.5801,-0.392c0,-0.187 -0.2473,-0.392 -0.5801,-0.392l-12.6112,0c-0.527,0.0573 -1.0512,-0.1176 -1.4457,-0.4795c-0.3946,-0.3619 -0.6184,-0.8775 -0.6184,-1.4203c0,-0.5428 0.2238,-1.0585 0.6184,-1.4203c0.3945,-0.3619 0.9187,-0.5368 1.4457,-0.4795l16.2006,0c0.262,0 0.5064,0.1447 0.636,0.3769c0.1325,0.2322 0.1325,0.5187 0,0.7539c-0.1325,0.2322 -0.374,0.377 -0.636,0.377l-16.2006,0c-0.3327,0 -0.58,0.211 -0.58,0.395c0,0.1839 0.2473,0.392 0.58,0.392l12.6112,0c0.5271,-0.0573 1.0512,0.1176 1.4458,0.4795c0.3945,0.3619 0.6183,0.8775 0.6183,1.4203c0,0.5428 -0.2238,1.0585 -0.6183,1.4203c-0.3946,0.3619 -0.9187,0.5368 -1.4458,0.4795l-12.6112,0c-0.3327,0 -0.58,0.2051 -0.58,0.392c0,0.187 0.2473,0.3921 0.58,0.3921l16.2006,0c0.2502,0.018 0.477,0.1658 0.5977,0.392c0.1207,0.2261 0.1207,0.5006 0,0.7267c-0.1207,0.2262 -0.3475,0.3679 -0.5977,0.386z" fill="#192646" id="svg_1"/>
  <path d="m16.4091,25.3968c-0.1649,0 -0.315,-0.0814 -0.4093,-0.2201c-0.0912,-0.1387 -0.1089,-0.3136 -0.0471,-0.4704c0.0619,-0.1538 0.1944,-0.2684 0.3534,-0.3046c0.0765,0 1.961,-0.4825 1.961,-2.8949c0,-1.3751 -0.9599,-2.6718 -1.8904,-3.9232c-0.8833,-1.1912 -1.7166,-2.313 -1.7667,-3.5313c-0.0618,-1.5771 0.6773,-3.0758 1.9522,-3.9624c0.1473,-0.0874 0.3298,-0.0874 0.477,-0.003c0.1502,0.0844 0.2444,0.2412 0.2562,0.4131c0.0088,0.1749 -0.0707,0.3408 -0.2091,0.4403c-0.9746,0.6875 -1.5429,1.8334 -1.5046,3.0457c0.0471,0.9107 0.7921,1.9149 1.5783,2.9794c0.9834,1.3178 2.0905,2.8165 2.0905,4.5293c0,2.5994 -1.7902,3.676 -2.7383,3.884l-0.1031,0.0181z" fill="#e2e2e2" id="svg_2"/>
  <path d="m21.6238,25.3968c-0.1649,0 -0.3151,-0.0814 -0.4093,-0.2201c-0.0913,-0.1387 -0.1089,-0.3136 -0.0471,-0.4704c0.0618,-0.1538 0.1943,-0.2684 0.3533,-0.3046c0.0766,0 1.964,-0.4825 1.964,-2.8949c0,-1.3751 -0.9599,-2.6718 -1.8933,-3.9232c-0.8804,-1.1912 -1.7137,-2.313 -1.7667,-3.5313c-0.0589,-1.5771 0.6802,-3.0758 1.9581,-3.9624c0.1089,-0.0784 0.2473,-0.10855 0.3769,-0.0784c0.1325,0.0271 0.2473,0.1086 0.318,0.2262c0.0707,0.1176 0.0942,0.2563 0.0618,0.389c-0.0324,0.1327 -0.1178,0.2473 -0.2326,0.3136c-0.9746,0.6875 -1.5429,1.8334 -1.5046,3.0457c0.0471,0.9107 0.792,1.9149 1.5841,2.9794c0.9776,1.3178 2.0877,2.8165 2.0877,4.5293c0,2.5994 -1.7903,3.676 -2.7384,3.8841l-0.1119,0.018z" fill="#e2e2e2" id="svg_3"/>
  <path d="m26.8385,25.3968c-0.1738,0.0212 -0.3475,-0.0573 -0.4505,-0.202c-0.1031,-0.1447 -0.1267,-0.3347 -0.056,-0.5006c0.0707,-0.1658 0.2209,-0.2804 0.3975,-0.2985c0.0766,0 1.964,-0.4825 1.964,-2.8949c0,-1.3751 -0.9599,-2.6718 -1.8904,-3.9233c-0.8833,-1.1911 -1.7166,-2.3129 -1.7667,-3.5312c-0.0588,-1.5741 0.6802,-3.0698 1.9552,-3.9564c0.1119,-0.0693 0.2444,-0.09347 0.371,-0.0633c0.1266,0.0301 0.2385,0.1085 0.3062,0.2231c0.0677,0.1116 0.0913,0.2473 0.0618,0.377c-0.0294,0.1296 -0.106,0.2412 -0.2149,0.3136c-0.9746,0.6875 -1.537,1.8365 -1.4958,3.0457c0.0501,0.9107 0.795,1.9149 1.5841,2.9794c0.9776,1.3178 2.0906,2.8165 2.0906,4.5293c0,2.5994 -1.7961,3.676 -2.7413,3.8841l-0.1148,0.018z" fill="#e2e2e2" id="svg_4"/>
 </g>
</svg>