<svg width="41" height="41" viewBox="0 0 41 41" fill="none" xmlns="http://www.w3.org/2000/svg">
<path d="M30.8505 25.9811C30.545 25.9811 30.2396 26.24 30.2396 26.5853C30.2396 31.3758 26.2687 35.3032 21.4252 35.3032C21.0761 35.3032 20.8143 35.5621 20.8143 35.9074C20.8143 36.2526 21.0761 36.5116 21.4252 36.5116C26.9233 36.5116 31.4177 32.0663 31.4177 26.6284C31.4614 26.24 31.1996 25.9811 30.8505 25.9811Z" fill="#192646"/>
<path d="M30.3705 11.5663C27.4469 6.43053 24.3487 2.02842 23.6942 1.16526C23.1706 0.431579 22.3415 0 21.4252 0C20.5088 0 19.6797 0.431579 19.1561 1.16526C18.7634 1.72632 17.4543 3.5821 15.8398 6.12842C14.4434 5.48105 12.8725 5.13579 11.258 5.13579C5.06175 5.13579 0 10.1421 0 16.2705C0 20.8453 2.83632 24.8158 6.85081 26.4989C6.85081 26.5421 6.85081 26.5421 6.85081 26.5853C6.85081 34.5263 13.3962 41 21.4252 41C29.4541 41 35.9995 34.5263 35.9995 26.5853C36.0431 22.6147 33.2504 16.7021 30.3705 11.5663ZM1.17817 16.2705C1.17817 10.7895 5.67265 6.30105 11.258 6.30105C16.7998 6.30105 21.3379 10.7463 21.3379 16.2705C21.3379 21.7947 16.7998 26.1968 11.258 26.1968C5.71628 26.1968 1.17817 21.7516 1.17817 16.2705ZM21.4688 39.8347C14.1816 39.8347 8.24716 34.0516 8.07261 26.9305C9.07624 27.2326 10.1671 27.4053 11.258 27.4053C17.4543 27.4053 22.516 22.3989 22.516 16.2705C22.516 12.1705 20.247 8.58842 16.9307 6.68947C18.5016 4.18632 19.767 2.37368 20.1597 1.85579C20.4652 1.42421 20.9452 1.20842 21.4688 1.20842C21.9924 1.20842 22.4724 1.46737 22.7779 1.85579C23.9997 3.58211 34.865 19.0326 34.865 26.5853C34.865 33.8789 28.8432 39.8347 21.4688 39.8347Z" fill="#192646"/>
<path d="M16.4507 11.0916C16.2325 10.8758 15.8398 10.8758 15.6216 11.0916L6.06537 20.5863C5.84719 20.8021 5.84719 21.1905 6.06537 21.4063C6.19628 21.5358 6.32718 21.5789 6.50173 21.5789C6.63263 21.5789 6.80718 21.5358 6.93808 21.4063L16.4943 11.9547C16.7125 11.6958 16.7125 11.3505 16.4507 11.0916Z" fill="#192646"/>
<path d="M7.8108 15.0621C9.0326 15.0621 10.0362 14.0695 10.0362 12.8611C10.0362 11.6526 9.0326 10.66 7.8108 10.66C6.589 10.66 5.58538 11.6526 5.58538 12.8611C5.58538 14.0695 6.589 15.0621 7.8108 15.0621ZM7.8108 11.8253C8.37806 11.8253 8.85806 12.3 8.85806 12.8611C8.85806 13.4221 8.37806 13.8968 7.8108 13.8968C7.24353 13.8968 6.76354 13.4221 6.76354 12.8611C6.76354 12.2568 7.24353 11.8253 7.8108 11.8253Z" fill="#192646"/>
<path d="M14.7052 17.4358C13.4834 17.4358 12.4798 18.4284 12.4798 19.6368C12.4798 20.8453 13.4834 21.8379 14.7052 21.8379C15.927 21.8379 16.9307 20.8453 16.9307 19.6368C16.9307 18.4284 15.927 17.4358 14.7052 17.4358ZM14.7052 20.7158C14.138 20.7158 13.658 20.2411 13.658 19.68C13.658 19.1189 14.138 18.6442 14.7052 18.6442C15.2725 18.6442 15.7525 19.1189 15.7525 19.68C15.7525 20.2411 15.2725 20.7158 14.7052 20.7158Z" fill="#192646"/>
<path d="M38.616 14.456V17.112H33.048V22.68H30.392V17.112H24.856V14.456H30.392V8.92H33.048V14.456H38.616Z" fill="#192646"/>
</svg>
