<svg width="43" height="43" viewBox="0 0 43 43" fill="none" xmlns="http://www.w3.org/2000/svg">
<path d="M2.62195 34.6098H9.96341C10.278 34.6098 10.4878 34.4 10.4878 34.0854C10.4878 33.7707 10.278 33.561 9.96341 33.561H2.62195C1.78293 33.561 1.04878 32.8268 1.04878 31.9878V2.62195C1.04878 1.78293 1.78293 1.04878 2.62195 1.04878H40.378C41.2171 1.04878 41.9512 1.78293 41.9512 2.62195V31.9878C41.9512 32.8268 41.2171 33.561 40.378 33.561H33.0366C32.722 33.561 32.5122 33.7707 32.5122 34.0854C32.5122 34.4 32.722 34.6098 33.0366 34.6098H40.378C41.8463 34.6098 43 33.4561 43 31.9878V2.62195C43 1.15366 41.8463 0 40.378 0H2.62195C1.15366 0 0 1.15366 0 2.62195V31.9878C0 33.4561 1.15366 34.6098 2.62195 34.6098Z" fill="#192646"/>
<path d="M39.3293 5.2439C40.1683 5.2439 40.9024 4.50976 40.9024 3.67073C40.9024 2.83171 40.1683 2.09756 39.3293 2.09756C38.4902 2.09756 37.7561 2.83171 37.7561 3.67073C37.7561 4.50976 38.4902 5.2439 39.3293 5.2439ZM39.3293 3.14634C39.6439 3.14634 39.8537 3.3561 39.8537 3.67073C39.8537 3.98537 39.6439 4.19512 39.3293 4.19512C39.0146 4.19512 38.8049 3.98537 38.8049 3.67073C38.8049 3.3561 39.0146 3.14634 39.3293 3.14634Z" fill="#192646"/>
<path d="M3.67073 2.09756C2.83171 2.09756 2.09756 2.83171 2.09756 3.67073C2.09756 4.50976 2.83171 5.2439 3.67073 5.2439C4.50976 5.2439 5.2439 4.50976 5.2439 3.67073C5.2439 2.83171 4.50976 2.09756 3.67073 2.09756ZM3.67073 4.19512C3.3561 4.19512 3.14634 3.98537 3.14634 3.67073C3.14634 3.3561 3.3561 3.14634 3.67073 3.14634C3.98537 3.14634 4.19512 3.3561 4.19512 3.67073C4.19512 3.98537 3.98537 4.19512 3.67073 4.19512Z" fill="#192646"/>
<path d="M3.67073 29.3659C2.83171 29.3659 2.09756 30.1 2.09756 30.939C2.09756 31.778 2.83171 32.5122 3.67073 32.5122C4.50976 32.5122 5.2439 31.778 5.2439 30.939C5.2439 30.1 4.50976 29.3659 3.67073 29.3659ZM3.67073 31.4634C3.3561 31.4634 3.14634 31.2537 3.14634 30.939C3.14634 30.6244 3.3561 30.4146 3.67073 30.4146C3.98537 30.4146 4.19512 30.6244 4.19512 30.939C4.19512 31.2537 3.98537 31.4634 3.67073 31.4634Z" fill="#192646"/>
<path d="M39.3293 32.5122C40.1683 32.5122 40.9024 31.778 40.9024 30.939C40.9024 30.1 40.1683 29.3659 39.3293 29.3659C38.4902 29.3659 37.7561 30.1 37.7561 30.939C37.7561 31.778 38.4902 32.5122 39.3293 32.5122ZM39.3293 30.4146C39.6439 30.4146 39.8537 30.6244 39.8537 30.939C39.8537 31.2537 39.6439 31.4634 39.3293 31.4634C39.0146 31.4634 38.8049 31.2537 38.8049 30.939C38.8049 30.6244 39.0146 30.4146 39.3293 30.4146Z" fill="#192646"/>
<path d="M8.49512 9.33415C8.6 9.43902 8.70488 9.43902 8.91463 9.43902H34.0854C34.1902 9.43902 34.4 9.33415 34.5049 9.33415L35.5537 8.28537C35.7634 8.07561 35.7634 7.76097 35.5537 7.55122C35.3439 7.34146 35.0293 7.34146 34.8195 7.55122L33.8756 8.49512H9.12439L8.18049 7.55122C7.97073 7.34146 7.6561 7.34146 7.44634 7.55122C7.23659 7.76097 7.23659 8.07561 7.44634 8.28537L8.49512 9.33415Z" fill="#192646"/>
<path d="M7.44634 10.3829L8.49512 11.4317C8.6 11.5366 8.70488 11.5366 8.91463 11.5366H34.0854C34.1902 11.5366 34.4 11.4317 34.5049 11.4317L35.5537 10.3829C35.7634 10.1732 35.7634 9.85854 35.5537 9.64878C35.3439 9.43902 35.0293 9.43902 34.8195 9.64878L33.8756 10.5927H9.12439L8.18049 9.64878C7.97073 9.43902 7.6561 9.43902 7.44634 9.64878C7.23659 9.85854 7.34146 10.1732 7.44634 10.3829Z" fill="#192646"/>
<path d="M7.44634 12.4805L8.49512 13.5293C8.6 13.6341 8.70488 13.6341 8.91463 13.6341H34.0854C34.1902 13.6341 34.4 13.5293 34.5049 13.5293L35.5537 12.4805C35.7634 12.2707 35.7634 11.9561 35.5537 11.7463C35.3439 11.5366 35.0293 11.5366 34.8195 11.7463L33.8756 12.6902H9.12439L8.18049 11.7463C7.97073 11.5366 7.6561 11.5366 7.44634 11.7463C7.23659 11.9561 7.34146 12.2707 7.44634 12.4805Z" fill="#192646"/>
<path d="M7.44634 14.578L8.49512 15.6268C8.6 15.7317 8.70488 15.7317 8.91463 15.7317H34.0854C34.1902 15.7317 34.4 15.6268 34.5049 15.6268L35.5537 14.578C35.7634 14.3683 35.7634 14.0537 35.5537 13.8439C35.3439 13.6341 35.0293 13.6341 34.8195 13.8439L33.8756 14.7878H9.12439L8.18049 13.8439C7.97073 13.6341 7.6561 13.6341 7.44634 13.8439C7.23659 14.0537 7.34146 14.3683 7.44634 14.578Z" fill="#192646"/>
<path d="M7.44634 16.6756L8.49512 17.7244C8.6 17.8293 8.70488 17.8293 8.91463 17.8293H34.0854C34.1902 17.8293 34.4 17.7244 34.5049 17.7244L35.5537 16.6756C35.7634 16.4659 35.7634 16.1512 35.5537 15.9415C35.3439 15.7317 35.0293 15.7317 34.8195 15.9415L33.8756 16.8854H9.12439L8.18049 15.9415C7.97073 15.7317 7.6561 15.7317 7.44634 15.9415C7.23659 16.1512 7.34146 16.4659 7.44634 16.6756Z" fill="#192646"/>
<path d="M7.44634 18.7732L8.49512 19.8219C8.6 19.9268 8.70488 19.9268 8.91463 19.9268H34.0854C34.1902 19.9268 34.4 19.8219 34.5049 19.8219L35.5537 18.7732C35.7634 18.5634 35.7634 18.2488 35.5537 18.039C35.3439 17.8293 35.0293 17.8293 34.8195 18.039L33.8756 18.9829H9.12439L8.18049 18.039C7.97073 17.8293 7.6561 17.8293 7.44634 18.039C7.23659 18.2488 7.34146 18.5634 7.44634 18.7732Z" fill="#192646"/>
<path d="M7.44634 20.8707L8.49512 21.9195C8.6 22.0244 8.70488 22.0244 8.91463 22.0244H34.0854C34.1902 22.0244 34.4 21.9195 34.5049 21.9195L35.5537 20.8707C35.7634 20.661 35.7634 20.3463 35.5537 20.1366C35.3439 19.9268 35.0293 19.9268 34.8195 20.1366L33.8756 21.0805H9.12439L8.18049 20.1366C7.97073 19.9268 7.6561 19.9268 7.44634 20.1366C7.23659 20.3463 7.34146 20.661 7.44634 20.8707Z" fill="#192646"/>
<path d="M7.44634 22.9683L8.49512 24.0171C8.6 24.122 8.70488 24.122 8.91463 24.122H34.0854C34.1902 24.122 34.4 24.0171 34.5049 24.0171L35.5537 22.9683C35.7634 22.7585 35.7634 22.4439 35.5537 22.2341C35.3439 22.0244 35.0293 22.0244 34.8195 22.2341L33.8756 23.178H9.12439L8.18049 22.2341C7.97073 22.0244 7.6561 22.0244 7.44634 22.2341C7.23659 22.4439 7.34146 22.7585 7.44634 22.9683Z" fill="#192646"/>
<path d="M34.5049 26.1146L35.5537 25.0659C35.7634 24.8561 35.7634 24.5415 35.5537 24.3317C35.3439 24.122 35.0293 24.122 34.8195 24.3317L33.8756 25.2756H9.12439L8.18049 24.3317C7.97073 24.122 7.6561 24.122 7.44634 24.3317C7.23659 24.5415 7.23659 24.8561 7.44634 25.0659L8.49512 26.1146C8.6 26.2195 8.70488 26.2195 8.91463 26.2195H34.0854C34.1902 26.2195 34.4 26.1146 34.5049 26.1146Z" fill="#192646"/>
<path d="M13.1098 43C15.1024 43 16.7805 41.3219 16.7805 39.3293V29.8902C16.7805 29.5756 16.5707 29.3659 16.2561 29.3659C15.9415 29.3659 15.7317 29.5756 15.7317 29.8902V39.3293C15.7317 40.7976 14.578 41.9512 13.1098 41.9512C11.6415 41.9512 10.4878 40.7976 10.4878 39.3293C10.4878 37.861 11.6415 36.7073 13.1098 36.7073C13.4244 36.7073 13.6341 36.4976 13.6341 36.1829C13.6341 35.8683 13.4244 35.6585 13.1098 35.6585C11.1171 35.6585 9.43902 37.3366 9.43902 39.3293C9.43902 41.3219 11.1171 43 13.1098 43Z" fill="#192646"/>
<path d="M13.6341 27.7927V33.0366C13.6341 33.3512 13.8439 33.561 14.1585 33.561C14.4732 33.561 14.6829 33.3512 14.6829 33.0366V27.7927C14.6829 27.478 14.4732 27.2683 14.1585 27.2683C13.8439 27.2683 13.6341 27.478 13.6341 27.7927Z" fill="#192646"/>
<path d="M11.5366 28.8415V34.0854C11.5366 34.4 11.7463 34.6098 12.061 34.6098C12.3756 34.6098 12.5854 34.4 12.5854 34.0854V28.8415C12.5854 28.5268 12.3756 28.3171 12.061 28.3171C11.7463 28.3171 11.5366 28.5268 11.5366 28.8415Z" fill="#192646"/>
<path d="M26.7439 29.3659C26.4293 29.3659 26.2195 29.5756 26.2195 29.8902V39.3293C26.2195 41.3219 27.8976 43 29.8902 43C31.8829 43 33.561 41.3219 33.561 39.3293C33.561 37.3366 31.8829 35.6585 29.8902 35.6585C29.5756 35.6585 29.3659 35.8683 29.3659 36.1829C29.3659 36.4976 29.5756 36.7073 29.8902 36.7073C31.3585 36.7073 32.5122 37.861 32.5122 39.3293C32.5122 40.7976 31.3585 41.9512 29.8902 41.9512C28.4219 41.9512 27.2683 40.7976 27.2683 39.3293V29.8902C27.2683 29.5756 27.0585 29.3659 26.7439 29.3659Z" fill="#192646"/>
<path d="M29.3659 33.0366V27.7927C29.3659 27.478 29.1561 27.2683 28.8415 27.2683C28.5268 27.2683 28.3171 27.478 28.3171 27.7927V33.0366C28.3171 33.3512 28.5268 33.561 28.8415 33.561C29.1561 33.561 29.3659 33.3512 29.3659 33.0366Z" fill="#192646"/>
<path d="M31.4634 34.0854V28.8415C31.4634 28.5268 31.2537 28.3171 30.939 28.3171C30.6244 28.3171 30.4146 28.5268 30.4146 28.8415V34.0854C30.4146 34.4 30.6244 34.6098 30.939 34.6098C31.2537 34.6098 31.4634 34.4 31.4634 34.0854Z" fill="#192646"/>
<path d="M18.878 35.1341V39.3293C18.878 39.6439 19.0878 39.8537 19.4024 39.8537C19.7171 39.8537 19.9268 39.6439 19.9268 39.3293V35.1341C19.9268 34.8195 19.7171 34.6098 19.4024 34.6098C19.0878 34.6098 18.878 34.8195 18.878 35.1341Z" fill="#192646"/>
<path d="M20.9756 31.9878V42.4756C20.9756 42.7902 21.1854 43 21.5 43C21.8146 43 22.0244 42.7902 22.0244 42.4756V31.9878C22.0244 31.6732 21.8146 31.4634 21.5 31.4634C21.1854 31.4634 20.9756 31.6732 20.9756 31.9878Z" fill="#192646"/>
<path d="M23.0732 35.1341V39.3293C23.0732 39.6439 23.2829 39.8537 23.5976 39.8537C23.9122 39.8537 24.122 39.6439 24.122 39.3293V35.1341C24.122 34.8195 23.9122 34.6098 23.5976 34.6098C23.2829 34.6098 23.0732 34.8195 23.0732 35.1341Z" fill="#192646"/>
<path d="M6.81707 29.3659H9.96341C10.278 29.3659 10.4878 29.1561 10.4878 28.8415C10.4878 28.5268 10.278 28.3171 9.96341 28.3171H6.81707C6.50244 28.3171 6.29268 28.1073 6.29268 27.7927V6.81707C6.29268 6.50244 6.50244 6.29268 6.81707 6.29268H36.1829C36.4976 6.29268 36.7073 6.50244 36.7073 6.81707V27.7927C36.7073 28.1073 36.4976 28.3171 36.1829 28.3171H33.0366C32.722 28.3171 32.5122 28.5268 32.5122 28.8415C32.5122 29.1561 32.722 29.3659 33.0366 29.3659H36.1829C37.0219 29.3659 37.7561 28.6317 37.7561 27.7927V6.81707C37.7561 5.97805 37.0219 5.2439 36.1829 5.2439H6.81707C5.97805 5.2439 5.2439 5.97805 5.2439 6.81707V27.7927C5.2439 28.6317 5.97805 29.3659 6.81707 29.3659Z" fill="#192646"/>
<path d="M25.1707 28.8415C25.1707 28.5268 24.961 28.3171 24.6463 28.3171H18.3537C18.039 28.3171 17.8293 28.5268 17.8293 28.8415C17.8293 29.1561 18.039 29.3659 18.3537 29.3659H24.6463C24.961 29.3659 25.1707 29.1561 25.1707 28.8415Z" fill="#192646"/>
</svg>
